M48
;DRILL file {KiCad 5.0.0-fee4fd1~65~ubuntu16.04.1} date Sun Jul 29 13:14:12 2018
;FORMAT={-:-/ absolute / inch / decimal}
FMAT,2
INCH,TZ
T1C0.0157
T2C0.0394
T3C0.0433
%
G90
G05
M72
T1
X1.28Y-3.07
X1.28Y-3.37
X1.28Y-3.51
X1.28Y-3.66
X1.28Y-3.82
X1.29Y-2.91
X1.29Y-4.04
X1.29Y-4.33
X1.36Y-4.17
X1.395Y-4.05
X1.41Y-3.93
X1.42Y-2.94
X1.46Y-4.11
X1.465Y-4.255
X1.52Y-4.41
X1.54Y-4.61
X1.55Y-2.79
X1.595Y-4.47
X1.64Y-2.94
X1.745Y-4.47
X1.81Y-3.19
X1.82Y-2.67
X1.82Y-2.94
X1.86Y-4.46
X1.87Y-4.57
X1.9Y-2.79
X1.93Y-4.01
X1.96Y-4.04
X1.96Y-4.33
X2.Y-2.94
X2.Y-4.47
X2.05Y-4.3
X2.08Y-4.33
X2.13Y-4.27
X2.14Y-3.63
X2.17Y-3.15
X2.17Y-4.05
X2.18Y-2.94
X2.19Y-3.455
X2.19Y-4.1
X2.2Y-3.1
X2.205Y-3.76
X2.23Y-3.15
X2.23Y-3.465
X2.23Y-3.735
X2.23Y-4.05
X2.24Y-4.1
X2.25Y-3.1
X2.25Y-4.31
X2.28Y-4.05
X2.29Y-3.15
X2.29Y-4.1
X2.3Y-2.75
X2.3Y-3.1
X2.3Y-4.58
X2.33Y-2.96
X2.33Y-4.24
X2.33Y-4.48
X2.37Y-2.96
X2.37Y-4.24
X2.4Y-2.67
X2.4Y-3.53
X2.4Y-3.6
X2.4Y-3.67
X2.41Y-2.96
X2.41Y-3.39
X2.41Y-3.47
X2.41Y-3.73
X2.41Y-3.81
X2.41Y-4.24
X2.43Y-3.43
X2.43Y-3.77
X2.44Y-3.56
X2.44Y-3.64
X2.45Y-2.96
X2.45Y-4.24
X2.46Y-3.39
X2.46Y-3.47
X2.46Y-3.73
X2.46Y-3.81
X2.49Y-2.75
X2.49Y-2.96
X2.49Y-3.53
X2.49Y-3.6
X2.49Y-3.67
X2.49Y-4.24
X2.52Y-3.39
X2.52Y-3.47
X2.52Y-3.73
X2.52Y-3.81
X2.53Y-2.96
X2.53Y-3.56
X2.53Y-3.64
X2.53Y-4.24
X2.54Y-4.47
X2.55Y-3.43
X2.55Y-3.77
X2.57Y-2.96
X2.57Y-3.39
X2.57Y-3.47
X2.57Y-3.53
X2.57Y-3.6
X2.57Y-3.67
X2.57Y-3.73
X2.57Y-3.81
X2.57Y-3.985
X2.57Y-4.24
X2.575Y-3.22
X2.61Y-2.96
X2.61Y-4.24
X2.65Y-2.96
X2.65Y-4.24
X2.65Y-4.58
X2.68Y-2.75
X2.68Y-3.23
X2.68Y-3.97
X2.7Y-3.18
X2.7Y-4.02
X2.71Y-3.27
X2.71Y-3.93
X2.71Y-4.3
X2.72Y-4.07
X2.73Y-3.14
X2.73Y-3.23
X2.73Y-3.97
X2.75Y-3.18
X2.75Y-4.02
X2.7503Y-3.4681
X2.7503Y-3.7319
X2.76Y-2.86
X2.76Y-3.27
X2.76Y-3.93
X2.78Y-4.47
X2.8Y-2.67
X2.82Y-3.48
X2.82Y-3.72
X2.86Y-3.43
X2.87Y-4.31
X2.88Y-3.72
X2.935Y-3.775
X2.98Y-2.72
X2.98Y-2.79
X2.98Y-2.86
X2.98Y-4.43
X2.98Y-4.5
X2.98Y-4.56
X3.01Y-3.72
X3.01Y-4.31
X3.045Y-3.8
X3.055Y-3.91
X3.12Y-4.6
X3.13Y-3.33
X3.14Y-3.445
X3.14Y-3.82
X3.14Y-4.07
X3.14Y-4.17
X3.14Y-4.26
X3.16Y-3.72
X3.195Y-3.13
X3.2Y-3.255
X3.2Y-4.5
X3.21Y-2.78
X3.21Y-3.01
X3.22Y-4.12
X3.22Y-4.3
X3.235Y-3.37
X3.28Y-3.21
X3.295Y-3.415
X3.3Y-4.06
X3.3Y-4.17
X3.31Y-3.735
X3.31Y-4.26
X3.315Y-3.285
X3.35Y-2.84
X3.36Y-4.43
X3.375Y-2.675
X3.4Y-3.77
X3.42Y-3.715
X3.42Y-4.62
X3.43Y-4.24
X3.4638Y-3.415
X3.51Y-3.03
X3.51Y-3.46
X3.59Y-3.54
X3.6001Y-4.08
X3.67Y-4.28
X3.93Y-3.88
X4.08Y-3.55
X4.11Y-4.19
X4.12Y-4.52
X4.14Y-4.44
X4.16Y-3.44
X4.1606Y-3.3406
X4.18Y-3.91
X4.18Y-3.98
X4.2Y-3.34
X4.2Y-3.44
X4.28Y-2.89
X4.28Y-2.96
X4.29Y-3.29
X4.29Y-3.96
X4.33Y-3.93
X4.36Y-2.98
X4.49Y-3.16
X4.49Y-3.62
X4.49Y-3.69
X4.49Y-3.75
X4.52Y-3.22
X4.55Y-3.62
X4.55Y-3.69
X4.55Y-3.75
X4.55Y-4.08
X4.61Y-2.96
X4.62Y-3.62
X4.62Y-3.68
X4.62Y-3.75
T2
X4.2Y-4.56
X4.3Y-4.56
X4.4Y-4.56
X4.5Y-4.56
X3.51Y-2.73
X3.61Y-2.73
X3.71Y-2.73
X3.81Y-2.73
X3.91Y-2.73
X4.01Y-2.73
X3.51Y-4.56
X3.61Y-4.56
X3.71Y-4.56
X3.81Y-4.56
X3.91Y-4.56
X4.01Y-4.56
T3
X1.3858Y-3.0693
X1.3858Y-3.2193
X1.3858Y-3.3693
X1.3858Y-3.5193
X1.3858Y-3.6693
X1.3858Y-3.8193
T2
X1.5512Y-4.1417G85X1.5512Y-4.2205
G05
X1.6299Y-4.3661G85X1.7087Y-4.3661
G05
X1.7874Y-4.1417G85X1.7874Y-4.2205
G05
T0
M30
