G04 #@! TF.GenerationSoftware,KiCad,Pcbnew,5.0.0-fee4fd1~65~ubuntu16.04.1*
G04 #@! TF.CreationDate,2018-07-29T13:14:09-07:00*
G04 #@! TF.ProjectId,wifistepper,77696669737465707065722E6B696361,rev?*
G04 #@! TF.SameCoordinates,Original*
G04 #@! TF.FileFunction,Soldermask,Top*
G04 #@! TF.FilePolarity,Negative*
%FSLAX46Y46*%
G04 Gerber Fmt 4.6, Leading zero omitted, Abs format (unit mm)*
G04 Created by KiCad (PCBNEW 5.0.0-fee4fd1~65~ubuntu16.04.1) date Sun Jul 29 13:14:09 2018*
%MOMM*%
%LPD*%
G01*
G04 APERTURE LIST*
%ADD10C,0.100000*%
%ADD11C,1.275000*%
%ADD12C,3.600000*%
%ADD13C,1.650000*%
%ADD14C,1.375000*%
%ADD15R,1.700000X5.300000*%
%ADD16R,1.300000X1.200000*%
%ADD17R,1.600000X1.300000*%
%ADD18R,3.900000X3.900000*%
%ADD19C,3.400000*%
%ADD20C,3.900000*%
%ADD21R,3.150000X3.150000*%
%ADD22C,3.150000*%
%ADD23R,2.100000X2.100000*%
%ADD24O,2.100000X2.100000*%
%ADD25R,1.900000X4.600000*%
%ADD26C,1.750000*%
%ADD27R,1.300000X2.100000*%
%ADD28R,4.700000X4.700000*%
%ADD29R,5.900000X5.080000*%
%ADD30R,2.700000X3.410000*%
%ADD31R,1.560000X1.600000*%
%ADD32R,0.600000X1.200000*%
%ADD33R,1.200000X0.600000*%
%ADD34R,2.540000X3.250000*%
%ADD35R,1.840000X1.120000*%
%ADD36R,1.140000X2.570000*%
%ADD37R,1.250000X0.700000*%
%ADD38R,1.000000X1.950000*%
%ADD39C,1.550000*%
G04 APERTURE END LIST*
D10*
G04 #@! TO.C,R10*
G36*
X104032993Y-87210535D02*
X104063935Y-87215125D01*
X104094278Y-87222725D01*
X104123730Y-87233263D01*
X104152008Y-87246638D01*
X104178838Y-87262719D01*
X104203963Y-87281353D01*
X104227140Y-87302360D01*
X104248147Y-87325537D01*
X104266781Y-87350662D01*
X104282862Y-87377492D01*
X104296237Y-87405770D01*
X104306775Y-87435222D01*
X104314375Y-87465565D01*
X104318965Y-87496507D01*
X104320500Y-87527750D01*
X104320500Y-88240250D01*
X104318965Y-88271493D01*
X104314375Y-88302435D01*
X104306775Y-88332778D01*
X104296237Y-88362230D01*
X104282862Y-88390508D01*
X104266781Y-88417338D01*
X104248147Y-88442463D01*
X104227140Y-88465640D01*
X104203963Y-88486647D01*
X104178838Y-88505281D01*
X104152008Y-88521362D01*
X104123730Y-88534737D01*
X104094278Y-88545275D01*
X104063935Y-88552875D01*
X104032993Y-88557465D01*
X104001750Y-88559000D01*
X103364250Y-88559000D01*
X103333007Y-88557465D01*
X103302065Y-88552875D01*
X103271722Y-88545275D01*
X103242270Y-88534737D01*
X103213992Y-88521362D01*
X103187162Y-88505281D01*
X103162037Y-88486647D01*
X103138860Y-88465640D01*
X103117853Y-88442463D01*
X103099219Y-88417338D01*
X103083138Y-88390508D01*
X103069763Y-88362230D01*
X103059225Y-88332778D01*
X103051625Y-88302435D01*
X103047035Y-88271493D01*
X103045500Y-88240250D01*
X103045500Y-87527750D01*
X103047035Y-87496507D01*
X103051625Y-87465565D01*
X103059225Y-87435222D01*
X103069763Y-87405770D01*
X103083138Y-87377492D01*
X103099219Y-87350662D01*
X103117853Y-87325537D01*
X103138860Y-87302360D01*
X103162037Y-87281353D01*
X103187162Y-87262719D01*
X103213992Y-87246638D01*
X103242270Y-87233263D01*
X103271722Y-87222725D01*
X103302065Y-87215125D01*
X103333007Y-87210535D01*
X103364250Y-87209000D01*
X104001750Y-87209000D01*
X104032993Y-87210535D01*
X104032993Y-87210535D01*
G37*
D11*
X103683000Y-87884000D03*
D10*
G36*
X102457993Y-87210535D02*
X102488935Y-87215125D01*
X102519278Y-87222725D01*
X102548730Y-87233263D01*
X102577008Y-87246638D01*
X102603838Y-87262719D01*
X102628963Y-87281353D01*
X102652140Y-87302360D01*
X102673147Y-87325537D01*
X102691781Y-87350662D01*
X102707862Y-87377492D01*
X102721237Y-87405770D01*
X102731775Y-87435222D01*
X102739375Y-87465565D01*
X102743965Y-87496507D01*
X102745500Y-87527750D01*
X102745500Y-88240250D01*
X102743965Y-88271493D01*
X102739375Y-88302435D01*
X102731775Y-88332778D01*
X102721237Y-88362230D01*
X102707862Y-88390508D01*
X102691781Y-88417338D01*
X102673147Y-88442463D01*
X102652140Y-88465640D01*
X102628963Y-88486647D01*
X102603838Y-88505281D01*
X102577008Y-88521362D01*
X102548730Y-88534737D01*
X102519278Y-88545275D01*
X102488935Y-88552875D01*
X102457993Y-88557465D01*
X102426750Y-88559000D01*
X101789250Y-88559000D01*
X101758007Y-88557465D01*
X101727065Y-88552875D01*
X101696722Y-88545275D01*
X101667270Y-88534737D01*
X101638992Y-88521362D01*
X101612162Y-88505281D01*
X101587037Y-88486647D01*
X101563860Y-88465640D01*
X101542853Y-88442463D01*
X101524219Y-88417338D01*
X101508138Y-88390508D01*
X101494763Y-88362230D01*
X101484225Y-88332778D01*
X101476625Y-88302435D01*
X101472035Y-88271493D01*
X101470500Y-88240250D01*
X101470500Y-87527750D01*
X101472035Y-87496507D01*
X101476625Y-87465565D01*
X101484225Y-87435222D01*
X101494763Y-87405770D01*
X101508138Y-87377492D01*
X101524219Y-87350662D01*
X101542853Y-87325537D01*
X101563860Y-87302360D01*
X101587037Y-87281353D01*
X101612162Y-87262719D01*
X101638992Y-87246638D01*
X101667270Y-87233263D01*
X101696722Y-87222725D01*
X101727065Y-87215125D01*
X101758007Y-87210535D01*
X101789250Y-87209000D01*
X102426750Y-87209000D01*
X102457993Y-87210535D01*
X102457993Y-87210535D01*
G37*
D11*
X102108000Y-87884000D03*
G04 #@! TD*
D12*
G04 #@! TO.C,REF\002A\002A*
X120000000Y-70000000D03*
G04 #@! TD*
G04 #@! TO.C,REF\002A\002A*
X120000000Y-115000000D03*
G04 #@! TD*
G04 #@! TO.C,REF\002A\002A*
X35000000Y-115000000D03*
G04 #@! TD*
D10*
G04 #@! TO.C,C1*
G36*
X53613346Y-97478589D02*
X53645380Y-97483341D01*
X53676794Y-97491210D01*
X53707286Y-97502120D01*
X53736561Y-97515966D01*
X53764338Y-97532615D01*
X53790350Y-97551907D01*
X53814345Y-97573655D01*
X53836093Y-97597650D01*
X53855385Y-97623662D01*
X53872034Y-97651439D01*
X53885880Y-97680714D01*
X53896790Y-97711206D01*
X53904659Y-97742620D01*
X53909411Y-97774654D01*
X53911000Y-97807000D01*
X53911000Y-99297000D01*
X53909411Y-99329346D01*
X53904659Y-99361380D01*
X53896790Y-99392794D01*
X53885880Y-99423286D01*
X53872034Y-99452561D01*
X53855385Y-99480338D01*
X53836093Y-99506350D01*
X53814345Y-99530345D01*
X53790350Y-99552093D01*
X53764338Y-99571385D01*
X53736561Y-99588034D01*
X53707286Y-99601880D01*
X53676794Y-99612790D01*
X53645380Y-99620659D01*
X53613346Y-99625411D01*
X53581000Y-99627000D01*
X52591000Y-99627000D01*
X52558654Y-99625411D01*
X52526620Y-99620659D01*
X52495206Y-99612790D01*
X52464714Y-99601880D01*
X52435439Y-99588034D01*
X52407662Y-99571385D01*
X52381650Y-99552093D01*
X52357655Y-99530345D01*
X52335907Y-99506350D01*
X52316615Y-99480338D01*
X52299966Y-99452561D01*
X52286120Y-99423286D01*
X52275210Y-99392794D01*
X52267341Y-99361380D01*
X52262589Y-99329346D01*
X52261000Y-99297000D01*
X52261000Y-97807000D01*
X52262589Y-97774654D01*
X52267341Y-97742620D01*
X52275210Y-97711206D01*
X52286120Y-97680714D01*
X52299966Y-97651439D01*
X52316615Y-97623662D01*
X52335907Y-97597650D01*
X52357655Y-97573655D01*
X52381650Y-97551907D01*
X52407662Y-97532615D01*
X52435439Y-97515966D01*
X52464714Y-97502120D01*
X52495206Y-97491210D01*
X52526620Y-97483341D01*
X52558654Y-97478589D01*
X52591000Y-97477000D01*
X53581000Y-97477000D01*
X53613346Y-97478589D01*
X53613346Y-97478589D01*
G37*
D13*
X53086000Y-98552000D03*
D10*
G36*
X50813346Y-97478589D02*
X50845380Y-97483341D01*
X50876794Y-97491210D01*
X50907286Y-97502120D01*
X50936561Y-97515966D01*
X50964338Y-97532615D01*
X50990350Y-97551907D01*
X51014345Y-97573655D01*
X51036093Y-97597650D01*
X51055385Y-97623662D01*
X51072034Y-97651439D01*
X51085880Y-97680714D01*
X51096790Y-97711206D01*
X51104659Y-97742620D01*
X51109411Y-97774654D01*
X51111000Y-97807000D01*
X51111000Y-99297000D01*
X51109411Y-99329346D01*
X51104659Y-99361380D01*
X51096790Y-99392794D01*
X51085880Y-99423286D01*
X51072034Y-99452561D01*
X51055385Y-99480338D01*
X51036093Y-99506350D01*
X51014345Y-99530345D01*
X50990350Y-99552093D01*
X50964338Y-99571385D01*
X50936561Y-99588034D01*
X50907286Y-99601880D01*
X50876794Y-99612790D01*
X50845380Y-99620659D01*
X50813346Y-99625411D01*
X50781000Y-99627000D01*
X49791000Y-99627000D01*
X49758654Y-99625411D01*
X49726620Y-99620659D01*
X49695206Y-99612790D01*
X49664714Y-99601880D01*
X49635439Y-99588034D01*
X49607662Y-99571385D01*
X49581650Y-99552093D01*
X49557655Y-99530345D01*
X49535907Y-99506350D01*
X49516615Y-99480338D01*
X49499966Y-99452561D01*
X49486120Y-99423286D01*
X49475210Y-99392794D01*
X49467341Y-99361380D01*
X49462589Y-99329346D01*
X49461000Y-99297000D01*
X49461000Y-97807000D01*
X49462589Y-97774654D01*
X49467341Y-97742620D01*
X49475210Y-97711206D01*
X49486120Y-97680714D01*
X49499966Y-97651439D01*
X49516615Y-97623662D01*
X49535907Y-97597650D01*
X49557655Y-97573655D01*
X49581650Y-97551907D01*
X49607662Y-97532615D01*
X49635439Y-97515966D01*
X49664714Y-97502120D01*
X49695206Y-97491210D01*
X49726620Y-97483341D01*
X49758654Y-97478589D01*
X49791000Y-97477000D01*
X50781000Y-97477000D01*
X50813346Y-97478589D01*
X50813346Y-97478589D01*
G37*
D13*
X50286000Y-98552000D03*
G04 #@! TD*
D10*
G04 #@! TO.C,C2*
G36*
X53421943Y-89738155D02*
X53455312Y-89743105D01*
X53488035Y-89751302D01*
X53519797Y-89762666D01*
X53550293Y-89777090D01*
X53579227Y-89794432D01*
X53606323Y-89814528D01*
X53631318Y-89837182D01*
X53653972Y-89862177D01*
X53674068Y-89889273D01*
X53691410Y-89918207D01*
X53705834Y-89948703D01*
X53717198Y-89980465D01*
X53725395Y-90013188D01*
X53730345Y-90046557D01*
X53732000Y-90080250D01*
X53732000Y-90767750D01*
X53730345Y-90801443D01*
X53725395Y-90834812D01*
X53717198Y-90867535D01*
X53705834Y-90899297D01*
X53691410Y-90929793D01*
X53674068Y-90958727D01*
X53653972Y-90985823D01*
X53631318Y-91010818D01*
X53606323Y-91033472D01*
X53579227Y-91053568D01*
X53550293Y-91070910D01*
X53519797Y-91085334D01*
X53488035Y-91096698D01*
X53455312Y-91104895D01*
X53421943Y-91109845D01*
X53388250Y-91111500D01*
X52275750Y-91111500D01*
X52242057Y-91109845D01*
X52208688Y-91104895D01*
X52175965Y-91096698D01*
X52144203Y-91085334D01*
X52113707Y-91070910D01*
X52084773Y-91053568D01*
X52057677Y-91033472D01*
X52032682Y-91010818D01*
X52010028Y-90985823D01*
X51989932Y-90958727D01*
X51972590Y-90929793D01*
X51958166Y-90899297D01*
X51946802Y-90867535D01*
X51938605Y-90834812D01*
X51933655Y-90801443D01*
X51932000Y-90767750D01*
X51932000Y-90080250D01*
X51933655Y-90046557D01*
X51938605Y-90013188D01*
X51946802Y-89980465D01*
X51958166Y-89948703D01*
X51972590Y-89918207D01*
X51989932Y-89889273D01*
X52010028Y-89862177D01*
X52032682Y-89837182D01*
X52057677Y-89814528D01*
X52084773Y-89794432D01*
X52113707Y-89777090D01*
X52144203Y-89762666D01*
X52175965Y-89751302D01*
X52208688Y-89743105D01*
X52242057Y-89738155D01*
X52275750Y-89736500D01*
X53388250Y-89736500D01*
X53421943Y-89738155D01*
X53421943Y-89738155D01*
G37*
D14*
X52832000Y-90424000D03*
D10*
G36*
X53421943Y-91613155D02*
X53455312Y-91618105D01*
X53488035Y-91626302D01*
X53519797Y-91637666D01*
X53550293Y-91652090D01*
X53579227Y-91669432D01*
X53606323Y-91689528D01*
X53631318Y-91712182D01*
X53653972Y-91737177D01*
X53674068Y-91764273D01*
X53691410Y-91793207D01*
X53705834Y-91823703D01*
X53717198Y-91855465D01*
X53725395Y-91888188D01*
X53730345Y-91921557D01*
X53732000Y-91955250D01*
X53732000Y-92642750D01*
X53730345Y-92676443D01*
X53725395Y-92709812D01*
X53717198Y-92742535D01*
X53705834Y-92774297D01*
X53691410Y-92804793D01*
X53674068Y-92833727D01*
X53653972Y-92860823D01*
X53631318Y-92885818D01*
X53606323Y-92908472D01*
X53579227Y-92928568D01*
X53550293Y-92945910D01*
X53519797Y-92960334D01*
X53488035Y-92971698D01*
X53455312Y-92979895D01*
X53421943Y-92984845D01*
X53388250Y-92986500D01*
X52275750Y-92986500D01*
X52242057Y-92984845D01*
X52208688Y-92979895D01*
X52175965Y-92971698D01*
X52144203Y-92960334D01*
X52113707Y-92945910D01*
X52084773Y-92928568D01*
X52057677Y-92908472D01*
X52032682Y-92885818D01*
X52010028Y-92860823D01*
X51989932Y-92833727D01*
X51972590Y-92804793D01*
X51958166Y-92774297D01*
X51946802Y-92742535D01*
X51938605Y-92709812D01*
X51933655Y-92676443D01*
X51932000Y-92642750D01*
X51932000Y-91955250D01*
X51933655Y-91921557D01*
X51938605Y-91888188D01*
X51946802Y-91855465D01*
X51958166Y-91823703D01*
X51972590Y-91793207D01*
X51989932Y-91764273D01*
X52010028Y-91737177D01*
X52032682Y-91712182D01*
X52057677Y-91689528D01*
X52084773Y-91669432D01*
X52113707Y-91652090D01*
X52144203Y-91637666D01*
X52175965Y-91626302D01*
X52208688Y-91618105D01*
X52242057Y-91613155D01*
X52275750Y-91611500D01*
X53388250Y-91611500D01*
X53421943Y-91613155D01*
X53421943Y-91613155D01*
G37*
D14*
X52832000Y-92299000D03*
G04 #@! TD*
D10*
G04 #@! TO.C,C3*
G36*
X44785943Y-88214155D02*
X44819312Y-88219105D01*
X44852035Y-88227302D01*
X44883797Y-88238666D01*
X44914293Y-88253090D01*
X44943227Y-88270432D01*
X44970323Y-88290528D01*
X44995318Y-88313182D01*
X45017972Y-88338177D01*
X45038068Y-88365273D01*
X45055410Y-88394207D01*
X45069834Y-88424703D01*
X45081198Y-88456465D01*
X45089395Y-88489188D01*
X45094345Y-88522557D01*
X45096000Y-88556250D01*
X45096000Y-89243750D01*
X45094345Y-89277443D01*
X45089395Y-89310812D01*
X45081198Y-89343535D01*
X45069834Y-89375297D01*
X45055410Y-89405793D01*
X45038068Y-89434727D01*
X45017972Y-89461823D01*
X44995318Y-89486818D01*
X44970323Y-89509472D01*
X44943227Y-89529568D01*
X44914293Y-89546910D01*
X44883797Y-89561334D01*
X44852035Y-89572698D01*
X44819312Y-89580895D01*
X44785943Y-89585845D01*
X44752250Y-89587500D01*
X43639750Y-89587500D01*
X43606057Y-89585845D01*
X43572688Y-89580895D01*
X43539965Y-89572698D01*
X43508203Y-89561334D01*
X43477707Y-89546910D01*
X43448773Y-89529568D01*
X43421677Y-89509472D01*
X43396682Y-89486818D01*
X43374028Y-89461823D01*
X43353932Y-89434727D01*
X43336590Y-89405793D01*
X43322166Y-89375297D01*
X43310802Y-89343535D01*
X43302605Y-89310812D01*
X43297655Y-89277443D01*
X43296000Y-89243750D01*
X43296000Y-88556250D01*
X43297655Y-88522557D01*
X43302605Y-88489188D01*
X43310802Y-88456465D01*
X43322166Y-88424703D01*
X43336590Y-88394207D01*
X43353932Y-88365273D01*
X43374028Y-88338177D01*
X43396682Y-88313182D01*
X43421677Y-88290528D01*
X43448773Y-88270432D01*
X43477707Y-88253090D01*
X43508203Y-88238666D01*
X43539965Y-88227302D01*
X43572688Y-88219105D01*
X43606057Y-88214155D01*
X43639750Y-88212500D01*
X44752250Y-88212500D01*
X44785943Y-88214155D01*
X44785943Y-88214155D01*
G37*
D14*
X44196000Y-88900000D03*
D10*
G36*
X44785943Y-86339155D02*
X44819312Y-86344105D01*
X44852035Y-86352302D01*
X44883797Y-86363666D01*
X44914293Y-86378090D01*
X44943227Y-86395432D01*
X44970323Y-86415528D01*
X44995318Y-86438182D01*
X45017972Y-86463177D01*
X45038068Y-86490273D01*
X45055410Y-86519207D01*
X45069834Y-86549703D01*
X45081198Y-86581465D01*
X45089395Y-86614188D01*
X45094345Y-86647557D01*
X45096000Y-86681250D01*
X45096000Y-87368750D01*
X45094345Y-87402443D01*
X45089395Y-87435812D01*
X45081198Y-87468535D01*
X45069834Y-87500297D01*
X45055410Y-87530793D01*
X45038068Y-87559727D01*
X45017972Y-87586823D01*
X44995318Y-87611818D01*
X44970323Y-87634472D01*
X44943227Y-87654568D01*
X44914293Y-87671910D01*
X44883797Y-87686334D01*
X44852035Y-87697698D01*
X44819312Y-87705895D01*
X44785943Y-87710845D01*
X44752250Y-87712500D01*
X43639750Y-87712500D01*
X43606057Y-87710845D01*
X43572688Y-87705895D01*
X43539965Y-87697698D01*
X43508203Y-87686334D01*
X43477707Y-87671910D01*
X43448773Y-87654568D01*
X43421677Y-87634472D01*
X43396682Y-87611818D01*
X43374028Y-87586823D01*
X43353932Y-87559727D01*
X43336590Y-87530793D01*
X43322166Y-87500297D01*
X43310802Y-87468535D01*
X43302605Y-87435812D01*
X43297655Y-87402443D01*
X43296000Y-87368750D01*
X43296000Y-86681250D01*
X43297655Y-86647557D01*
X43302605Y-86614188D01*
X43310802Y-86581465D01*
X43322166Y-86549703D01*
X43336590Y-86519207D01*
X43353932Y-86490273D01*
X43374028Y-86463177D01*
X43396682Y-86438182D01*
X43421677Y-86415528D01*
X43448773Y-86395432D01*
X43477707Y-86378090D01*
X43508203Y-86363666D01*
X43539965Y-86352302D01*
X43572688Y-86344105D01*
X43606057Y-86339155D01*
X43639750Y-86337500D01*
X44752250Y-86337500D01*
X44785943Y-86339155D01*
X44785943Y-86339155D01*
G37*
D14*
X44196000Y-87025000D03*
G04 #@! TD*
D10*
G04 #@! TO.C,C4*
G36*
X53463443Y-95113655D02*
X53496812Y-95118605D01*
X53529535Y-95126802D01*
X53561297Y-95138166D01*
X53591793Y-95152590D01*
X53620727Y-95169932D01*
X53647823Y-95190028D01*
X53672818Y-95212682D01*
X53695472Y-95237677D01*
X53715568Y-95264773D01*
X53732910Y-95293707D01*
X53747334Y-95324203D01*
X53758698Y-95355965D01*
X53766895Y-95388688D01*
X53771845Y-95422057D01*
X53773500Y-95455750D01*
X53773500Y-96568250D01*
X53771845Y-96601943D01*
X53766895Y-96635312D01*
X53758698Y-96668035D01*
X53747334Y-96699797D01*
X53732910Y-96730293D01*
X53715568Y-96759227D01*
X53695472Y-96786323D01*
X53672818Y-96811318D01*
X53647823Y-96833972D01*
X53620727Y-96854068D01*
X53591793Y-96871410D01*
X53561297Y-96885834D01*
X53529535Y-96897198D01*
X53496812Y-96905395D01*
X53463443Y-96910345D01*
X53429750Y-96912000D01*
X52742250Y-96912000D01*
X52708557Y-96910345D01*
X52675188Y-96905395D01*
X52642465Y-96897198D01*
X52610703Y-96885834D01*
X52580207Y-96871410D01*
X52551273Y-96854068D01*
X52524177Y-96833972D01*
X52499182Y-96811318D01*
X52476528Y-96786323D01*
X52456432Y-96759227D01*
X52439090Y-96730293D01*
X52424666Y-96699797D01*
X52413302Y-96668035D01*
X52405105Y-96635312D01*
X52400155Y-96601943D01*
X52398500Y-96568250D01*
X52398500Y-95455750D01*
X52400155Y-95422057D01*
X52405105Y-95388688D01*
X52413302Y-95355965D01*
X52424666Y-95324203D01*
X52439090Y-95293707D01*
X52456432Y-95264773D01*
X52476528Y-95237677D01*
X52499182Y-95212682D01*
X52524177Y-95190028D01*
X52551273Y-95169932D01*
X52580207Y-95152590D01*
X52610703Y-95138166D01*
X52642465Y-95126802D01*
X52675188Y-95118605D01*
X52708557Y-95113655D01*
X52742250Y-95112000D01*
X53429750Y-95112000D01*
X53463443Y-95113655D01*
X53463443Y-95113655D01*
G37*
D14*
X53086000Y-96012000D03*
D10*
G36*
X51588443Y-95113655D02*
X51621812Y-95118605D01*
X51654535Y-95126802D01*
X51686297Y-95138166D01*
X51716793Y-95152590D01*
X51745727Y-95169932D01*
X51772823Y-95190028D01*
X51797818Y-95212682D01*
X51820472Y-95237677D01*
X51840568Y-95264773D01*
X51857910Y-95293707D01*
X51872334Y-95324203D01*
X51883698Y-95355965D01*
X51891895Y-95388688D01*
X51896845Y-95422057D01*
X51898500Y-95455750D01*
X51898500Y-96568250D01*
X51896845Y-96601943D01*
X51891895Y-96635312D01*
X51883698Y-96668035D01*
X51872334Y-96699797D01*
X51857910Y-96730293D01*
X51840568Y-96759227D01*
X51820472Y-96786323D01*
X51797818Y-96811318D01*
X51772823Y-96833972D01*
X51745727Y-96854068D01*
X51716793Y-96871410D01*
X51686297Y-96885834D01*
X51654535Y-96897198D01*
X51621812Y-96905395D01*
X51588443Y-96910345D01*
X51554750Y-96912000D01*
X50867250Y-96912000D01*
X50833557Y-96910345D01*
X50800188Y-96905395D01*
X50767465Y-96897198D01*
X50735703Y-96885834D01*
X50705207Y-96871410D01*
X50676273Y-96854068D01*
X50649177Y-96833972D01*
X50624182Y-96811318D01*
X50601528Y-96786323D01*
X50581432Y-96759227D01*
X50564090Y-96730293D01*
X50549666Y-96699797D01*
X50538302Y-96668035D01*
X50530105Y-96635312D01*
X50525155Y-96601943D01*
X50523500Y-96568250D01*
X50523500Y-95455750D01*
X50525155Y-95422057D01*
X50530105Y-95388688D01*
X50538302Y-95355965D01*
X50549666Y-95324203D01*
X50564090Y-95293707D01*
X50581432Y-95264773D01*
X50601528Y-95237677D01*
X50624182Y-95212682D01*
X50649177Y-95190028D01*
X50676273Y-95169932D01*
X50705207Y-95152590D01*
X50735703Y-95138166D01*
X50767465Y-95126802D01*
X50800188Y-95118605D01*
X50833557Y-95113655D01*
X50867250Y-95112000D01*
X51554750Y-95112000D01*
X51588443Y-95113655D01*
X51588443Y-95113655D01*
G37*
D14*
X51211000Y-96012000D03*
G04 #@! TD*
D10*
G04 #@! TO.C,C5*
G36*
X47885493Y-81152035D02*
X47916435Y-81156625D01*
X47946778Y-81164225D01*
X47976230Y-81174763D01*
X48004508Y-81188138D01*
X48031338Y-81204219D01*
X48056463Y-81222853D01*
X48079640Y-81243860D01*
X48100647Y-81267037D01*
X48119281Y-81292162D01*
X48135362Y-81318992D01*
X48148737Y-81347270D01*
X48159275Y-81376722D01*
X48166875Y-81407065D01*
X48171465Y-81438007D01*
X48173000Y-81469250D01*
X48173000Y-82106750D01*
X48171465Y-82137993D01*
X48166875Y-82168935D01*
X48159275Y-82199278D01*
X48148737Y-82228730D01*
X48135362Y-82257008D01*
X48119281Y-82283838D01*
X48100647Y-82308963D01*
X48079640Y-82332140D01*
X48056463Y-82353147D01*
X48031338Y-82371781D01*
X48004508Y-82387862D01*
X47976230Y-82401237D01*
X47946778Y-82411775D01*
X47916435Y-82419375D01*
X47885493Y-82423965D01*
X47854250Y-82425500D01*
X47141750Y-82425500D01*
X47110507Y-82423965D01*
X47079565Y-82419375D01*
X47049222Y-82411775D01*
X47019770Y-82401237D01*
X46991492Y-82387862D01*
X46964662Y-82371781D01*
X46939537Y-82353147D01*
X46916360Y-82332140D01*
X46895353Y-82308963D01*
X46876719Y-82283838D01*
X46860638Y-82257008D01*
X46847263Y-82228730D01*
X46836725Y-82199278D01*
X46829125Y-82168935D01*
X46824535Y-82137993D01*
X46823000Y-82106750D01*
X46823000Y-81469250D01*
X46824535Y-81438007D01*
X46829125Y-81407065D01*
X46836725Y-81376722D01*
X46847263Y-81347270D01*
X46860638Y-81318992D01*
X46876719Y-81292162D01*
X46895353Y-81267037D01*
X46916360Y-81243860D01*
X46939537Y-81222853D01*
X46964662Y-81204219D01*
X46991492Y-81188138D01*
X47019770Y-81174763D01*
X47049222Y-81164225D01*
X47079565Y-81156625D01*
X47110507Y-81152035D01*
X47141750Y-81150500D01*
X47854250Y-81150500D01*
X47885493Y-81152035D01*
X47885493Y-81152035D01*
G37*
D11*
X47498000Y-81788000D03*
D10*
G36*
X47885493Y-82727035D02*
X47916435Y-82731625D01*
X47946778Y-82739225D01*
X47976230Y-82749763D01*
X48004508Y-82763138D01*
X48031338Y-82779219D01*
X48056463Y-82797853D01*
X48079640Y-82818860D01*
X48100647Y-82842037D01*
X48119281Y-82867162D01*
X48135362Y-82893992D01*
X48148737Y-82922270D01*
X48159275Y-82951722D01*
X48166875Y-82982065D01*
X48171465Y-83013007D01*
X48173000Y-83044250D01*
X48173000Y-83681750D01*
X48171465Y-83712993D01*
X48166875Y-83743935D01*
X48159275Y-83774278D01*
X48148737Y-83803730D01*
X48135362Y-83832008D01*
X48119281Y-83858838D01*
X48100647Y-83883963D01*
X48079640Y-83907140D01*
X48056463Y-83928147D01*
X48031338Y-83946781D01*
X48004508Y-83962862D01*
X47976230Y-83976237D01*
X47946778Y-83986775D01*
X47916435Y-83994375D01*
X47885493Y-83998965D01*
X47854250Y-84000500D01*
X47141750Y-84000500D01*
X47110507Y-83998965D01*
X47079565Y-83994375D01*
X47049222Y-83986775D01*
X47019770Y-83976237D01*
X46991492Y-83962862D01*
X46964662Y-83946781D01*
X46939537Y-83928147D01*
X46916360Y-83907140D01*
X46895353Y-83883963D01*
X46876719Y-83858838D01*
X46860638Y-83832008D01*
X46847263Y-83803730D01*
X46836725Y-83774278D01*
X46829125Y-83743935D01*
X46824535Y-83712993D01*
X46823000Y-83681750D01*
X46823000Y-83044250D01*
X46824535Y-83013007D01*
X46829125Y-82982065D01*
X46836725Y-82951722D01*
X46847263Y-82922270D01*
X46860638Y-82893992D01*
X46876719Y-82867162D01*
X46895353Y-82842037D01*
X46916360Y-82818860D01*
X46939537Y-82797853D01*
X46964662Y-82779219D01*
X46991492Y-82763138D01*
X47019770Y-82749763D01*
X47049222Y-82739225D01*
X47079565Y-82731625D01*
X47110507Y-82727035D01*
X47141750Y-82725500D01*
X47854250Y-82725500D01*
X47885493Y-82727035D01*
X47885493Y-82727035D01*
G37*
D11*
X47498000Y-83363000D03*
G04 #@! TD*
D10*
G04 #@! TO.C,C6*
G36*
X74545443Y-97399655D02*
X74578812Y-97404605D01*
X74611535Y-97412802D01*
X74643297Y-97424166D01*
X74673793Y-97438590D01*
X74702727Y-97455932D01*
X74729823Y-97476028D01*
X74754818Y-97498682D01*
X74777472Y-97523677D01*
X74797568Y-97550773D01*
X74814910Y-97579707D01*
X74829334Y-97610203D01*
X74840698Y-97641965D01*
X74848895Y-97674688D01*
X74853845Y-97708057D01*
X74855500Y-97741750D01*
X74855500Y-98854250D01*
X74853845Y-98887943D01*
X74848895Y-98921312D01*
X74840698Y-98954035D01*
X74829334Y-98985797D01*
X74814910Y-99016293D01*
X74797568Y-99045227D01*
X74777472Y-99072323D01*
X74754818Y-99097318D01*
X74729823Y-99119972D01*
X74702727Y-99140068D01*
X74673793Y-99157410D01*
X74643297Y-99171834D01*
X74611535Y-99183198D01*
X74578812Y-99191395D01*
X74545443Y-99196345D01*
X74511750Y-99198000D01*
X73824250Y-99198000D01*
X73790557Y-99196345D01*
X73757188Y-99191395D01*
X73724465Y-99183198D01*
X73692703Y-99171834D01*
X73662207Y-99157410D01*
X73633273Y-99140068D01*
X73606177Y-99119972D01*
X73581182Y-99097318D01*
X73558528Y-99072323D01*
X73538432Y-99045227D01*
X73521090Y-99016293D01*
X73506666Y-98985797D01*
X73495302Y-98954035D01*
X73487105Y-98921312D01*
X73482155Y-98887943D01*
X73480500Y-98854250D01*
X73480500Y-97741750D01*
X73482155Y-97708057D01*
X73487105Y-97674688D01*
X73495302Y-97641965D01*
X73506666Y-97610203D01*
X73521090Y-97579707D01*
X73538432Y-97550773D01*
X73558528Y-97523677D01*
X73581182Y-97498682D01*
X73606177Y-97476028D01*
X73633273Y-97455932D01*
X73662207Y-97438590D01*
X73692703Y-97424166D01*
X73724465Y-97412802D01*
X73757188Y-97404605D01*
X73790557Y-97399655D01*
X73824250Y-97398000D01*
X74511750Y-97398000D01*
X74545443Y-97399655D01*
X74545443Y-97399655D01*
G37*
D14*
X74168000Y-98298000D03*
D10*
G36*
X76420443Y-97399655D02*
X76453812Y-97404605D01*
X76486535Y-97412802D01*
X76518297Y-97424166D01*
X76548793Y-97438590D01*
X76577727Y-97455932D01*
X76604823Y-97476028D01*
X76629818Y-97498682D01*
X76652472Y-97523677D01*
X76672568Y-97550773D01*
X76689910Y-97579707D01*
X76704334Y-97610203D01*
X76715698Y-97641965D01*
X76723895Y-97674688D01*
X76728845Y-97708057D01*
X76730500Y-97741750D01*
X76730500Y-98854250D01*
X76728845Y-98887943D01*
X76723895Y-98921312D01*
X76715698Y-98954035D01*
X76704334Y-98985797D01*
X76689910Y-99016293D01*
X76672568Y-99045227D01*
X76652472Y-99072323D01*
X76629818Y-99097318D01*
X76604823Y-99119972D01*
X76577727Y-99140068D01*
X76548793Y-99157410D01*
X76518297Y-99171834D01*
X76486535Y-99183198D01*
X76453812Y-99191395D01*
X76420443Y-99196345D01*
X76386750Y-99198000D01*
X75699250Y-99198000D01*
X75665557Y-99196345D01*
X75632188Y-99191395D01*
X75599465Y-99183198D01*
X75567703Y-99171834D01*
X75537207Y-99157410D01*
X75508273Y-99140068D01*
X75481177Y-99119972D01*
X75456182Y-99097318D01*
X75433528Y-99072323D01*
X75413432Y-99045227D01*
X75396090Y-99016293D01*
X75381666Y-98985797D01*
X75370302Y-98954035D01*
X75362105Y-98921312D01*
X75357155Y-98887943D01*
X75355500Y-98854250D01*
X75355500Y-97741750D01*
X75357155Y-97708057D01*
X75362105Y-97674688D01*
X75370302Y-97641965D01*
X75381666Y-97610203D01*
X75396090Y-97579707D01*
X75413432Y-97550773D01*
X75433528Y-97523677D01*
X75456182Y-97498682D01*
X75481177Y-97476028D01*
X75508273Y-97455932D01*
X75537207Y-97438590D01*
X75567703Y-97424166D01*
X75599465Y-97412802D01*
X75632188Y-97404605D01*
X75665557Y-97399655D01*
X75699250Y-97398000D01*
X76386750Y-97398000D01*
X76420443Y-97399655D01*
X76420443Y-97399655D01*
G37*
D14*
X76043000Y-98298000D03*
G04 #@! TD*
D10*
G04 #@! TO.C,C7*
G36*
X76450443Y-83683655D02*
X76483812Y-83688605D01*
X76516535Y-83696802D01*
X76548297Y-83708166D01*
X76578793Y-83722590D01*
X76607727Y-83739932D01*
X76634823Y-83760028D01*
X76659818Y-83782682D01*
X76682472Y-83807677D01*
X76702568Y-83834773D01*
X76719910Y-83863707D01*
X76734334Y-83894203D01*
X76745698Y-83925965D01*
X76753895Y-83958688D01*
X76758845Y-83992057D01*
X76760500Y-84025750D01*
X76760500Y-85138250D01*
X76758845Y-85171943D01*
X76753895Y-85205312D01*
X76745698Y-85238035D01*
X76734334Y-85269797D01*
X76719910Y-85300293D01*
X76702568Y-85329227D01*
X76682472Y-85356323D01*
X76659818Y-85381318D01*
X76634823Y-85403972D01*
X76607727Y-85424068D01*
X76578793Y-85441410D01*
X76548297Y-85455834D01*
X76516535Y-85467198D01*
X76483812Y-85475395D01*
X76450443Y-85480345D01*
X76416750Y-85482000D01*
X75729250Y-85482000D01*
X75695557Y-85480345D01*
X75662188Y-85475395D01*
X75629465Y-85467198D01*
X75597703Y-85455834D01*
X75567207Y-85441410D01*
X75538273Y-85424068D01*
X75511177Y-85403972D01*
X75486182Y-85381318D01*
X75463528Y-85356323D01*
X75443432Y-85329227D01*
X75426090Y-85300293D01*
X75411666Y-85269797D01*
X75400302Y-85238035D01*
X75392105Y-85205312D01*
X75387155Y-85171943D01*
X75385500Y-85138250D01*
X75385500Y-84025750D01*
X75387155Y-83992057D01*
X75392105Y-83958688D01*
X75400302Y-83925965D01*
X75411666Y-83894203D01*
X75426090Y-83863707D01*
X75443432Y-83834773D01*
X75463528Y-83807677D01*
X75486182Y-83782682D01*
X75511177Y-83760028D01*
X75538273Y-83739932D01*
X75567207Y-83722590D01*
X75597703Y-83708166D01*
X75629465Y-83696802D01*
X75662188Y-83688605D01*
X75695557Y-83683655D01*
X75729250Y-83682000D01*
X76416750Y-83682000D01*
X76450443Y-83683655D01*
X76450443Y-83683655D01*
G37*
D14*
X76073000Y-84582000D03*
D10*
G36*
X74575443Y-83683655D02*
X74608812Y-83688605D01*
X74641535Y-83696802D01*
X74673297Y-83708166D01*
X74703793Y-83722590D01*
X74732727Y-83739932D01*
X74759823Y-83760028D01*
X74784818Y-83782682D01*
X74807472Y-83807677D01*
X74827568Y-83834773D01*
X74844910Y-83863707D01*
X74859334Y-83894203D01*
X74870698Y-83925965D01*
X74878895Y-83958688D01*
X74883845Y-83992057D01*
X74885500Y-84025750D01*
X74885500Y-85138250D01*
X74883845Y-85171943D01*
X74878895Y-85205312D01*
X74870698Y-85238035D01*
X74859334Y-85269797D01*
X74844910Y-85300293D01*
X74827568Y-85329227D01*
X74807472Y-85356323D01*
X74784818Y-85381318D01*
X74759823Y-85403972D01*
X74732727Y-85424068D01*
X74703793Y-85441410D01*
X74673297Y-85455834D01*
X74641535Y-85467198D01*
X74608812Y-85475395D01*
X74575443Y-85480345D01*
X74541750Y-85482000D01*
X73854250Y-85482000D01*
X73820557Y-85480345D01*
X73787188Y-85475395D01*
X73754465Y-85467198D01*
X73722703Y-85455834D01*
X73692207Y-85441410D01*
X73663273Y-85424068D01*
X73636177Y-85403972D01*
X73611182Y-85381318D01*
X73588528Y-85356323D01*
X73568432Y-85329227D01*
X73551090Y-85300293D01*
X73536666Y-85269797D01*
X73525302Y-85238035D01*
X73517105Y-85205312D01*
X73512155Y-85171943D01*
X73510500Y-85138250D01*
X73510500Y-84025750D01*
X73512155Y-83992057D01*
X73517105Y-83958688D01*
X73525302Y-83925965D01*
X73536666Y-83894203D01*
X73551090Y-83863707D01*
X73568432Y-83834773D01*
X73588528Y-83807677D01*
X73611182Y-83782682D01*
X73636177Y-83760028D01*
X73663273Y-83739932D01*
X73692207Y-83722590D01*
X73722703Y-83708166D01*
X73754465Y-83696802D01*
X73787188Y-83688605D01*
X73820557Y-83683655D01*
X73854250Y-83682000D01*
X74541750Y-83682000D01*
X74575443Y-83683655D01*
X74575443Y-83683655D01*
G37*
D14*
X74198000Y-84582000D03*
G04 #@! TD*
D10*
G04 #@! TO.C,C8*
G36*
X57739943Y-76276155D02*
X57773312Y-76281105D01*
X57806035Y-76289302D01*
X57837797Y-76300666D01*
X57868293Y-76315090D01*
X57897227Y-76332432D01*
X57924323Y-76352528D01*
X57949318Y-76375182D01*
X57971972Y-76400177D01*
X57992068Y-76427273D01*
X58009410Y-76456207D01*
X58023834Y-76486703D01*
X58035198Y-76518465D01*
X58043395Y-76551188D01*
X58048345Y-76584557D01*
X58050000Y-76618250D01*
X58050000Y-77305750D01*
X58048345Y-77339443D01*
X58043395Y-77372812D01*
X58035198Y-77405535D01*
X58023834Y-77437297D01*
X58009410Y-77467793D01*
X57992068Y-77496727D01*
X57971972Y-77523823D01*
X57949318Y-77548818D01*
X57924323Y-77571472D01*
X57897227Y-77591568D01*
X57868293Y-77608910D01*
X57837797Y-77623334D01*
X57806035Y-77634698D01*
X57773312Y-77642895D01*
X57739943Y-77647845D01*
X57706250Y-77649500D01*
X56593750Y-77649500D01*
X56560057Y-77647845D01*
X56526688Y-77642895D01*
X56493965Y-77634698D01*
X56462203Y-77623334D01*
X56431707Y-77608910D01*
X56402773Y-77591568D01*
X56375677Y-77571472D01*
X56350682Y-77548818D01*
X56328028Y-77523823D01*
X56307932Y-77496727D01*
X56290590Y-77467793D01*
X56276166Y-77437297D01*
X56264802Y-77405535D01*
X56256605Y-77372812D01*
X56251655Y-77339443D01*
X56250000Y-77305750D01*
X56250000Y-76618250D01*
X56251655Y-76584557D01*
X56256605Y-76551188D01*
X56264802Y-76518465D01*
X56276166Y-76486703D01*
X56290590Y-76456207D01*
X56307932Y-76427273D01*
X56328028Y-76400177D01*
X56350682Y-76375182D01*
X56375677Y-76352528D01*
X56402773Y-76332432D01*
X56431707Y-76315090D01*
X56462203Y-76300666D01*
X56493965Y-76289302D01*
X56526688Y-76281105D01*
X56560057Y-76276155D01*
X56593750Y-76274500D01*
X57706250Y-76274500D01*
X57739943Y-76276155D01*
X57739943Y-76276155D01*
G37*
D14*
X57150000Y-76962000D03*
D10*
G36*
X57739943Y-74401155D02*
X57773312Y-74406105D01*
X57806035Y-74414302D01*
X57837797Y-74425666D01*
X57868293Y-74440090D01*
X57897227Y-74457432D01*
X57924323Y-74477528D01*
X57949318Y-74500182D01*
X57971972Y-74525177D01*
X57992068Y-74552273D01*
X58009410Y-74581207D01*
X58023834Y-74611703D01*
X58035198Y-74643465D01*
X58043395Y-74676188D01*
X58048345Y-74709557D01*
X58050000Y-74743250D01*
X58050000Y-75430750D01*
X58048345Y-75464443D01*
X58043395Y-75497812D01*
X58035198Y-75530535D01*
X58023834Y-75562297D01*
X58009410Y-75592793D01*
X57992068Y-75621727D01*
X57971972Y-75648823D01*
X57949318Y-75673818D01*
X57924323Y-75696472D01*
X57897227Y-75716568D01*
X57868293Y-75733910D01*
X57837797Y-75748334D01*
X57806035Y-75759698D01*
X57773312Y-75767895D01*
X57739943Y-75772845D01*
X57706250Y-75774500D01*
X56593750Y-75774500D01*
X56560057Y-75772845D01*
X56526688Y-75767895D01*
X56493965Y-75759698D01*
X56462203Y-75748334D01*
X56431707Y-75733910D01*
X56402773Y-75716568D01*
X56375677Y-75696472D01*
X56350682Y-75673818D01*
X56328028Y-75648823D01*
X56307932Y-75621727D01*
X56290590Y-75592793D01*
X56276166Y-75562297D01*
X56264802Y-75530535D01*
X56256605Y-75497812D01*
X56251655Y-75464443D01*
X56250000Y-75430750D01*
X56250000Y-74743250D01*
X56251655Y-74709557D01*
X56256605Y-74676188D01*
X56264802Y-74643465D01*
X56276166Y-74611703D01*
X56290590Y-74581207D01*
X56307932Y-74552273D01*
X56328028Y-74525177D01*
X56350682Y-74500182D01*
X56375677Y-74477528D01*
X56402773Y-74457432D01*
X56431707Y-74440090D01*
X56462203Y-74425666D01*
X56493965Y-74414302D01*
X56526688Y-74406105D01*
X56560057Y-74401155D01*
X56593750Y-74399500D01*
X57706250Y-74399500D01*
X57739943Y-74401155D01*
X57739943Y-74401155D01*
G37*
D14*
X57150000Y-75087000D03*
G04 #@! TD*
D10*
G04 #@! TO.C,C9*
G36*
X57739943Y-107264155D02*
X57773312Y-107269105D01*
X57806035Y-107277302D01*
X57837797Y-107288666D01*
X57868293Y-107303090D01*
X57897227Y-107320432D01*
X57924323Y-107340528D01*
X57949318Y-107363182D01*
X57971972Y-107388177D01*
X57992068Y-107415273D01*
X58009410Y-107444207D01*
X58023834Y-107474703D01*
X58035198Y-107506465D01*
X58043395Y-107539188D01*
X58048345Y-107572557D01*
X58050000Y-107606250D01*
X58050000Y-108293750D01*
X58048345Y-108327443D01*
X58043395Y-108360812D01*
X58035198Y-108393535D01*
X58023834Y-108425297D01*
X58009410Y-108455793D01*
X57992068Y-108484727D01*
X57971972Y-108511823D01*
X57949318Y-108536818D01*
X57924323Y-108559472D01*
X57897227Y-108579568D01*
X57868293Y-108596910D01*
X57837797Y-108611334D01*
X57806035Y-108622698D01*
X57773312Y-108630895D01*
X57739943Y-108635845D01*
X57706250Y-108637500D01*
X56593750Y-108637500D01*
X56560057Y-108635845D01*
X56526688Y-108630895D01*
X56493965Y-108622698D01*
X56462203Y-108611334D01*
X56431707Y-108596910D01*
X56402773Y-108579568D01*
X56375677Y-108559472D01*
X56350682Y-108536818D01*
X56328028Y-108511823D01*
X56307932Y-108484727D01*
X56290590Y-108455793D01*
X56276166Y-108425297D01*
X56264802Y-108393535D01*
X56256605Y-108360812D01*
X56251655Y-108327443D01*
X56250000Y-108293750D01*
X56250000Y-107606250D01*
X56251655Y-107572557D01*
X56256605Y-107539188D01*
X56264802Y-107506465D01*
X56276166Y-107474703D01*
X56290590Y-107444207D01*
X56307932Y-107415273D01*
X56328028Y-107388177D01*
X56350682Y-107363182D01*
X56375677Y-107340528D01*
X56402773Y-107320432D01*
X56431707Y-107303090D01*
X56462203Y-107288666D01*
X56493965Y-107277302D01*
X56526688Y-107269105D01*
X56560057Y-107264155D01*
X56593750Y-107262500D01*
X57706250Y-107262500D01*
X57739943Y-107264155D01*
X57739943Y-107264155D01*
G37*
D14*
X57150000Y-107950000D03*
D10*
G36*
X57739943Y-105389155D02*
X57773312Y-105394105D01*
X57806035Y-105402302D01*
X57837797Y-105413666D01*
X57868293Y-105428090D01*
X57897227Y-105445432D01*
X57924323Y-105465528D01*
X57949318Y-105488182D01*
X57971972Y-105513177D01*
X57992068Y-105540273D01*
X58009410Y-105569207D01*
X58023834Y-105599703D01*
X58035198Y-105631465D01*
X58043395Y-105664188D01*
X58048345Y-105697557D01*
X58050000Y-105731250D01*
X58050000Y-106418750D01*
X58048345Y-106452443D01*
X58043395Y-106485812D01*
X58035198Y-106518535D01*
X58023834Y-106550297D01*
X58009410Y-106580793D01*
X57992068Y-106609727D01*
X57971972Y-106636823D01*
X57949318Y-106661818D01*
X57924323Y-106684472D01*
X57897227Y-106704568D01*
X57868293Y-106721910D01*
X57837797Y-106736334D01*
X57806035Y-106747698D01*
X57773312Y-106755895D01*
X57739943Y-106760845D01*
X57706250Y-106762500D01*
X56593750Y-106762500D01*
X56560057Y-106760845D01*
X56526688Y-106755895D01*
X56493965Y-106747698D01*
X56462203Y-106736334D01*
X56431707Y-106721910D01*
X56402773Y-106704568D01*
X56375677Y-106684472D01*
X56350682Y-106661818D01*
X56328028Y-106636823D01*
X56307932Y-106609727D01*
X56290590Y-106580793D01*
X56276166Y-106550297D01*
X56264802Y-106518535D01*
X56256605Y-106485812D01*
X56251655Y-106452443D01*
X56250000Y-106418750D01*
X56250000Y-105731250D01*
X56251655Y-105697557D01*
X56256605Y-105664188D01*
X56264802Y-105631465D01*
X56276166Y-105599703D01*
X56290590Y-105569207D01*
X56307932Y-105540273D01*
X56328028Y-105513177D01*
X56350682Y-105488182D01*
X56375677Y-105465528D01*
X56402773Y-105445432D01*
X56431707Y-105428090D01*
X56462203Y-105413666D01*
X56493965Y-105402302D01*
X56526688Y-105394105D01*
X56560057Y-105389155D01*
X56593750Y-105387500D01*
X57706250Y-105387500D01*
X57739943Y-105389155D01*
X57739943Y-105389155D01*
G37*
D14*
X57150000Y-106075000D03*
G04 #@! TD*
D15*
G04 #@! TO.C,C10*
X77470000Y-105254000D03*
X77470000Y-114554000D03*
G04 #@! TD*
G04 #@! TO.C,C11*
X77470000Y-70612000D03*
X77470000Y-79912000D03*
G04 #@! TD*
D10*
G04 #@! TO.C,C12*
G36*
X53435993Y-93306535D02*
X53466935Y-93311125D01*
X53497278Y-93318725D01*
X53526730Y-93329263D01*
X53555008Y-93342638D01*
X53581838Y-93358719D01*
X53606963Y-93377353D01*
X53630140Y-93398360D01*
X53651147Y-93421537D01*
X53669781Y-93446662D01*
X53685862Y-93473492D01*
X53699237Y-93501770D01*
X53709775Y-93531222D01*
X53717375Y-93561565D01*
X53721965Y-93592507D01*
X53723500Y-93623750D01*
X53723500Y-94336250D01*
X53721965Y-94367493D01*
X53717375Y-94398435D01*
X53709775Y-94428778D01*
X53699237Y-94458230D01*
X53685862Y-94486508D01*
X53669781Y-94513338D01*
X53651147Y-94538463D01*
X53630140Y-94561640D01*
X53606963Y-94582647D01*
X53581838Y-94601281D01*
X53555008Y-94617362D01*
X53526730Y-94630737D01*
X53497278Y-94641275D01*
X53466935Y-94648875D01*
X53435993Y-94653465D01*
X53404750Y-94655000D01*
X52767250Y-94655000D01*
X52736007Y-94653465D01*
X52705065Y-94648875D01*
X52674722Y-94641275D01*
X52645270Y-94630737D01*
X52616992Y-94617362D01*
X52590162Y-94601281D01*
X52565037Y-94582647D01*
X52541860Y-94561640D01*
X52520853Y-94538463D01*
X52502219Y-94513338D01*
X52486138Y-94486508D01*
X52472763Y-94458230D01*
X52462225Y-94428778D01*
X52454625Y-94398435D01*
X52450035Y-94367493D01*
X52448500Y-94336250D01*
X52448500Y-93623750D01*
X52450035Y-93592507D01*
X52454625Y-93561565D01*
X52462225Y-93531222D01*
X52472763Y-93501770D01*
X52486138Y-93473492D01*
X52502219Y-93446662D01*
X52520853Y-93421537D01*
X52541860Y-93398360D01*
X52565037Y-93377353D01*
X52590162Y-93358719D01*
X52616992Y-93342638D01*
X52645270Y-93329263D01*
X52674722Y-93318725D01*
X52705065Y-93311125D01*
X52736007Y-93306535D01*
X52767250Y-93305000D01*
X53404750Y-93305000D01*
X53435993Y-93306535D01*
X53435993Y-93306535D01*
G37*
D11*
X53086000Y-93980000D03*
D10*
G36*
X51860993Y-93306535D02*
X51891935Y-93311125D01*
X51922278Y-93318725D01*
X51951730Y-93329263D01*
X51980008Y-93342638D01*
X52006838Y-93358719D01*
X52031963Y-93377353D01*
X52055140Y-93398360D01*
X52076147Y-93421537D01*
X52094781Y-93446662D01*
X52110862Y-93473492D01*
X52124237Y-93501770D01*
X52134775Y-93531222D01*
X52142375Y-93561565D01*
X52146965Y-93592507D01*
X52148500Y-93623750D01*
X52148500Y-94336250D01*
X52146965Y-94367493D01*
X52142375Y-94398435D01*
X52134775Y-94428778D01*
X52124237Y-94458230D01*
X52110862Y-94486508D01*
X52094781Y-94513338D01*
X52076147Y-94538463D01*
X52055140Y-94561640D01*
X52031963Y-94582647D01*
X52006838Y-94601281D01*
X51980008Y-94617362D01*
X51951730Y-94630737D01*
X51922278Y-94641275D01*
X51891935Y-94648875D01*
X51860993Y-94653465D01*
X51829750Y-94655000D01*
X51192250Y-94655000D01*
X51161007Y-94653465D01*
X51130065Y-94648875D01*
X51099722Y-94641275D01*
X51070270Y-94630737D01*
X51041992Y-94617362D01*
X51015162Y-94601281D01*
X50990037Y-94582647D01*
X50966860Y-94561640D01*
X50945853Y-94538463D01*
X50927219Y-94513338D01*
X50911138Y-94486508D01*
X50897763Y-94458230D01*
X50887225Y-94428778D01*
X50879625Y-94398435D01*
X50875035Y-94367493D01*
X50873500Y-94336250D01*
X50873500Y-93623750D01*
X50875035Y-93592507D01*
X50879625Y-93561565D01*
X50887225Y-93531222D01*
X50897763Y-93501770D01*
X50911138Y-93473492D01*
X50927219Y-93446662D01*
X50945853Y-93421537D01*
X50966860Y-93398360D01*
X50990037Y-93377353D01*
X51015162Y-93358719D01*
X51041992Y-93342638D01*
X51070270Y-93329263D01*
X51099722Y-93318725D01*
X51130065Y-93311125D01*
X51161007Y-93306535D01*
X51192250Y-93305000D01*
X51829750Y-93305000D01*
X51860993Y-93306535D01*
X51860993Y-93306535D01*
G37*
D11*
X51511000Y-93980000D03*
G04 #@! TD*
D10*
G04 #@! TO.C,C13*
G36*
X50754943Y-87405955D02*
X50788312Y-87410905D01*
X50821035Y-87419102D01*
X50852797Y-87430466D01*
X50883293Y-87444890D01*
X50912227Y-87462232D01*
X50939323Y-87482328D01*
X50964318Y-87504982D01*
X50986972Y-87529977D01*
X51007068Y-87557073D01*
X51024410Y-87586007D01*
X51038834Y-87616503D01*
X51050198Y-87648265D01*
X51058395Y-87680988D01*
X51063345Y-87714357D01*
X51065000Y-87748050D01*
X51065000Y-88435550D01*
X51063345Y-88469243D01*
X51058395Y-88502612D01*
X51050198Y-88535335D01*
X51038834Y-88567097D01*
X51024410Y-88597593D01*
X51007068Y-88626527D01*
X50986972Y-88653623D01*
X50964318Y-88678618D01*
X50939323Y-88701272D01*
X50912227Y-88721368D01*
X50883293Y-88738710D01*
X50852797Y-88753134D01*
X50821035Y-88764498D01*
X50788312Y-88772695D01*
X50754943Y-88777645D01*
X50721250Y-88779300D01*
X49608750Y-88779300D01*
X49575057Y-88777645D01*
X49541688Y-88772695D01*
X49508965Y-88764498D01*
X49477203Y-88753134D01*
X49446707Y-88738710D01*
X49417773Y-88721368D01*
X49390677Y-88701272D01*
X49365682Y-88678618D01*
X49343028Y-88653623D01*
X49322932Y-88626527D01*
X49305590Y-88597593D01*
X49291166Y-88567097D01*
X49279802Y-88535335D01*
X49271605Y-88502612D01*
X49266655Y-88469243D01*
X49265000Y-88435550D01*
X49265000Y-87748050D01*
X49266655Y-87714357D01*
X49271605Y-87680988D01*
X49279802Y-87648265D01*
X49291166Y-87616503D01*
X49305590Y-87586007D01*
X49322932Y-87557073D01*
X49343028Y-87529977D01*
X49365682Y-87504982D01*
X49390677Y-87482328D01*
X49417773Y-87462232D01*
X49446707Y-87444890D01*
X49477203Y-87430466D01*
X49508965Y-87419102D01*
X49541688Y-87410905D01*
X49575057Y-87405955D01*
X49608750Y-87404300D01*
X50721250Y-87404300D01*
X50754943Y-87405955D01*
X50754943Y-87405955D01*
G37*
D14*
X50165000Y-88091800D03*
D10*
G36*
X50754943Y-89280955D02*
X50788312Y-89285905D01*
X50821035Y-89294102D01*
X50852797Y-89305466D01*
X50883293Y-89319890D01*
X50912227Y-89337232D01*
X50939323Y-89357328D01*
X50964318Y-89379982D01*
X50986972Y-89404977D01*
X51007068Y-89432073D01*
X51024410Y-89461007D01*
X51038834Y-89491503D01*
X51050198Y-89523265D01*
X51058395Y-89555988D01*
X51063345Y-89589357D01*
X51065000Y-89623050D01*
X51065000Y-90310550D01*
X51063345Y-90344243D01*
X51058395Y-90377612D01*
X51050198Y-90410335D01*
X51038834Y-90442097D01*
X51024410Y-90472593D01*
X51007068Y-90501527D01*
X50986972Y-90528623D01*
X50964318Y-90553618D01*
X50939323Y-90576272D01*
X50912227Y-90596368D01*
X50883293Y-90613710D01*
X50852797Y-90628134D01*
X50821035Y-90639498D01*
X50788312Y-90647695D01*
X50754943Y-90652645D01*
X50721250Y-90654300D01*
X49608750Y-90654300D01*
X49575057Y-90652645D01*
X49541688Y-90647695D01*
X49508965Y-90639498D01*
X49477203Y-90628134D01*
X49446707Y-90613710D01*
X49417773Y-90596368D01*
X49390677Y-90576272D01*
X49365682Y-90553618D01*
X49343028Y-90528623D01*
X49322932Y-90501527D01*
X49305590Y-90472593D01*
X49291166Y-90442097D01*
X49279802Y-90410335D01*
X49271605Y-90377612D01*
X49266655Y-90344243D01*
X49265000Y-90310550D01*
X49265000Y-89623050D01*
X49266655Y-89589357D01*
X49271605Y-89555988D01*
X49279802Y-89523265D01*
X49291166Y-89491503D01*
X49305590Y-89461007D01*
X49322932Y-89432073D01*
X49343028Y-89404977D01*
X49365682Y-89379982D01*
X49390677Y-89357328D01*
X49417773Y-89337232D01*
X49446707Y-89319890D01*
X49477203Y-89305466D01*
X49508965Y-89294102D01*
X49541688Y-89285905D01*
X49575057Y-89280955D01*
X49608750Y-89279300D01*
X50721250Y-89279300D01*
X50754943Y-89280955D01*
X50754943Y-89280955D01*
G37*
D14*
X50165000Y-89966800D03*
G04 #@! TD*
D10*
G04 #@! TO.C,C14*
G36*
X74517993Y-85940535D02*
X74548935Y-85945125D01*
X74579278Y-85952725D01*
X74608730Y-85963263D01*
X74637008Y-85976638D01*
X74663838Y-85992719D01*
X74688963Y-86011353D01*
X74712140Y-86032360D01*
X74733147Y-86055537D01*
X74751781Y-86080662D01*
X74767862Y-86107492D01*
X74781237Y-86135770D01*
X74791775Y-86165222D01*
X74799375Y-86195565D01*
X74803965Y-86226507D01*
X74805500Y-86257750D01*
X74805500Y-86970250D01*
X74803965Y-87001493D01*
X74799375Y-87032435D01*
X74791775Y-87062778D01*
X74781237Y-87092230D01*
X74767862Y-87120508D01*
X74751781Y-87147338D01*
X74733147Y-87172463D01*
X74712140Y-87195640D01*
X74688963Y-87216647D01*
X74663838Y-87235281D01*
X74637008Y-87251362D01*
X74608730Y-87264737D01*
X74579278Y-87275275D01*
X74548935Y-87282875D01*
X74517993Y-87287465D01*
X74486750Y-87289000D01*
X73849250Y-87289000D01*
X73818007Y-87287465D01*
X73787065Y-87282875D01*
X73756722Y-87275275D01*
X73727270Y-87264737D01*
X73698992Y-87251362D01*
X73672162Y-87235281D01*
X73647037Y-87216647D01*
X73623860Y-87195640D01*
X73602853Y-87172463D01*
X73584219Y-87147338D01*
X73568138Y-87120508D01*
X73554763Y-87092230D01*
X73544225Y-87062778D01*
X73536625Y-87032435D01*
X73532035Y-87001493D01*
X73530500Y-86970250D01*
X73530500Y-86257750D01*
X73532035Y-86226507D01*
X73536625Y-86195565D01*
X73544225Y-86165222D01*
X73554763Y-86135770D01*
X73568138Y-86107492D01*
X73584219Y-86080662D01*
X73602853Y-86055537D01*
X73623860Y-86032360D01*
X73647037Y-86011353D01*
X73672162Y-85992719D01*
X73698992Y-85976638D01*
X73727270Y-85963263D01*
X73756722Y-85952725D01*
X73787065Y-85945125D01*
X73818007Y-85940535D01*
X73849250Y-85939000D01*
X74486750Y-85939000D01*
X74517993Y-85940535D01*
X74517993Y-85940535D01*
G37*
D11*
X74168000Y-86614000D03*
D10*
G36*
X76092993Y-85940535D02*
X76123935Y-85945125D01*
X76154278Y-85952725D01*
X76183730Y-85963263D01*
X76212008Y-85976638D01*
X76238838Y-85992719D01*
X76263963Y-86011353D01*
X76287140Y-86032360D01*
X76308147Y-86055537D01*
X76326781Y-86080662D01*
X76342862Y-86107492D01*
X76356237Y-86135770D01*
X76366775Y-86165222D01*
X76374375Y-86195565D01*
X76378965Y-86226507D01*
X76380500Y-86257750D01*
X76380500Y-86970250D01*
X76378965Y-87001493D01*
X76374375Y-87032435D01*
X76366775Y-87062778D01*
X76356237Y-87092230D01*
X76342862Y-87120508D01*
X76326781Y-87147338D01*
X76308147Y-87172463D01*
X76287140Y-87195640D01*
X76263963Y-87216647D01*
X76238838Y-87235281D01*
X76212008Y-87251362D01*
X76183730Y-87264737D01*
X76154278Y-87275275D01*
X76123935Y-87282875D01*
X76092993Y-87287465D01*
X76061750Y-87289000D01*
X75424250Y-87289000D01*
X75393007Y-87287465D01*
X75362065Y-87282875D01*
X75331722Y-87275275D01*
X75302270Y-87264737D01*
X75273992Y-87251362D01*
X75247162Y-87235281D01*
X75222037Y-87216647D01*
X75198860Y-87195640D01*
X75177853Y-87172463D01*
X75159219Y-87147338D01*
X75143138Y-87120508D01*
X75129763Y-87092230D01*
X75119225Y-87062778D01*
X75111625Y-87032435D01*
X75107035Y-87001493D01*
X75105500Y-86970250D01*
X75105500Y-86257750D01*
X75107035Y-86226507D01*
X75111625Y-86195565D01*
X75119225Y-86165222D01*
X75129763Y-86135770D01*
X75143138Y-86107492D01*
X75159219Y-86080662D01*
X75177853Y-86055537D01*
X75198860Y-86032360D01*
X75222037Y-86011353D01*
X75247162Y-85992719D01*
X75273992Y-85976638D01*
X75302270Y-85963263D01*
X75331722Y-85952725D01*
X75362065Y-85945125D01*
X75393007Y-85940535D01*
X75424250Y-85939000D01*
X76061750Y-85939000D01*
X76092993Y-85940535D01*
X76092993Y-85940535D01*
G37*
D11*
X75743000Y-86614000D03*
G04 #@! TD*
D10*
G04 #@! TO.C,C15*
G36*
X119207943Y-74655155D02*
X119241312Y-74660105D01*
X119274035Y-74668302D01*
X119305797Y-74679666D01*
X119336293Y-74694090D01*
X119365227Y-74711432D01*
X119392323Y-74731528D01*
X119417318Y-74754182D01*
X119439972Y-74779177D01*
X119460068Y-74806273D01*
X119477410Y-74835207D01*
X119491834Y-74865703D01*
X119503198Y-74897465D01*
X119511395Y-74930188D01*
X119516345Y-74963557D01*
X119518000Y-74997250D01*
X119518000Y-75684750D01*
X119516345Y-75718443D01*
X119511395Y-75751812D01*
X119503198Y-75784535D01*
X119491834Y-75816297D01*
X119477410Y-75846793D01*
X119460068Y-75875727D01*
X119439972Y-75902823D01*
X119417318Y-75927818D01*
X119392323Y-75950472D01*
X119365227Y-75970568D01*
X119336293Y-75987910D01*
X119305797Y-76002334D01*
X119274035Y-76013698D01*
X119241312Y-76021895D01*
X119207943Y-76026845D01*
X119174250Y-76028500D01*
X118061750Y-76028500D01*
X118028057Y-76026845D01*
X117994688Y-76021895D01*
X117961965Y-76013698D01*
X117930203Y-76002334D01*
X117899707Y-75987910D01*
X117870773Y-75970568D01*
X117843677Y-75950472D01*
X117818682Y-75927818D01*
X117796028Y-75902823D01*
X117775932Y-75875727D01*
X117758590Y-75846793D01*
X117744166Y-75816297D01*
X117732802Y-75784535D01*
X117724605Y-75751812D01*
X117719655Y-75718443D01*
X117718000Y-75684750D01*
X117718000Y-74997250D01*
X117719655Y-74963557D01*
X117724605Y-74930188D01*
X117732802Y-74897465D01*
X117744166Y-74865703D01*
X117758590Y-74835207D01*
X117775932Y-74806273D01*
X117796028Y-74779177D01*
X117818682Y-74754182D01*
X117843677Y-74731528D01*
X117870773Y-74711432D01*
X117899707Y-74694090D01*
X117930203Y-74679666D01*
X117961965Y-74668302D01*
X117994688Y-74660105D01*
X118028057Y-74655155D01*
X118061750Y-74653500D01*
X119174250Y-74653500D01*
X119207943Y-74655155D01*
X119207943Y-74655155D01*
G37*
D14*
X118618000Y-75341000D03*
D10*
G36*
X119207943Y-76530155D02*
X119241312Y-76535105D01*
X119274035Y-76543302D01*
X119305797Y-76554666D01*
X119336293Y-76569090D01*
X119365227Y-76586432D01*
X119392323Y-76606528D01*
X119417318Y-76629182D01*
X119439972Y-76654177D01*
X119460068Y-76681273D01*
X119477410Y-76710207D01*
X119491834Y-76740703D01*
X119503198Y-76772465D01*
X119511395Y-76805188D01*
X119516345Y-76838557D01*
X119518000Y-76872250D01*
X119518000Y-77559750D01*
X119516345Y-77593443D01*
X119511395Y-77626812D01*
X119503198Y-77659535D01*
X119491834Y-77691297D01*
X119477410Y-77721793D01*
X119460068Y-77750727D01*
X119439972Y-77777823D01*
X119417318Y-77802818D01*
X119392323Y-77825472D01*
X119365227Y-77845568D01*
X119336293Y-77862910D01*
X119305797Y-77877334D01*
X119274035Y-77888698D01*
X119241312Y-77896895D01*
X119207943Y-77901845D01*
X119174250Y-77903500D01*
X118061750Y-77903500D01*
X118028057Y-77901845D01*
X117994688Y-77896895D01*
X117961965Y-77888698D01*
X117930203Y-77877334D01*
X117899707Y-77862910D01*
X117870773Y-77845568D01*
X117843677Y-77825472D01*
X117818682Y-77802818D01*
X117796028Y-77777823D01*
X117775932Y-77750727D01*
X117758590Y-77721793D01*
X117744166Y-77691297D01*
X117732802Y-77659535D01*
X117724605Y-77626812D01*
X117719655Y-77593443D01*
X117718000Y-77559750D01*
X117718000Y-76872250D01*
X117719655Y-76838557D01*
X117724605Y-76805188D01*
X117732802Y-76772465D01*
X117744166Y-76740703D01*
X117758590Y-76710207D01*
X117775932Y-76681273D01*
X117796028Y-76654177D01*
X117818682Y-76629182D01*
X117843677Y-76606528D01*
X117870773Y-76586432D01*
X117899707Y-76569090D01*
X117930203Y-76554666D01*
X117961965Y-76543302D01*
X117994688Y-76535105D01*
X118028057Y-76530155D01*
X118061750Y-76528500D01*
X119174250Y-76528500D01*
X119207943Y-76530155D01*
X119207943Y-76530155D01*
G37*
D14*
X118618000Y-77216000D03*
G04 #@! TD*
D10*
G04 #@! TO.C,C16*
G36*
X121037493Y-76580035D02*
X121068435Y-76584625D01*
X121098778Y-76592225D01*
X121128230Y-76602763D01*
X121156508Y-76616138D01*
X121183338Y-76632219D01*
X121208463Y-76650853D01*
X121231640Y-76671860D01*
X121252647Y-76695037D01*
X121271281Y-76720162D01*
X121287362Y-76746992D01*
X121300737Y-76775270D01*
X121311275Y-76804722D01*
X121318875Y-76835065D01*
X121323465Y-76866007D01*
X121325000Y-76897250D01*
X121325000Y-77534750D01*
X121323465Y-77565993D01*
X121318875Y-77596935D01*
X121311275Y-77627278D01*
X121300737Y-77656730D01*
X121287362Y-77685008D01*
X121271281Y-77711838D01*
X121252647Y-77736963D01*
X121231640Y-77760140D01*
X121208463Y-77781147D01*
X121183338Y-77799781D01*
X121156508Y-77815862D01*
X121128230Y-77829237D01*
X121098778Y-77839775D01*
X121068435Y-77847375D01*
X121037493Y-77851965D01*
X121006250Y-77853500D01*
X120293750Y-77853500D01*
X120262507Y-77851965D01*
X120231565Y-77847375D01*
X120201222Y-77839775D01*
X120171770Y-77829237D01*
X120143492Y-77815862D01*
X120116662Y-77799781D01*
X120091537Y-77781147D01*
X120068360Y-77760140D01*
X120047353Y-77736963D01*
X120028719Y-77711838D01*
X120012638Y-77685008D01*
X119999263Y-77656730D01*
X119988725Y-77627278D01*
X119981125Y-77596935D01*
X119976535Y-77565993D01*
X119975000Y-77534750D01*
X119975000Y-76897250D01*
X119976535Y-76866007D01*
X119981125Y-76835065D01*
X119988725Y-76804722D01*
X119999263Y-76775270D01*
X120012638Y-76746992D01*
X120028719Y-76720162D01*
X120047353Y-76695037D01*
X120068360Y-76671860D01*
X120091537Y-76650853D01*
X120116662Y-76632219D01*
X120143492Y-76616138D01*
X120171770Y-76602763D01*
X120201222Y-76592225D01*
X120231565Y-76584625D01*
X120262507Y-76580035D01*
X120293750Y-76578500D01*
X121006250Y-76578500D01*
X121037493Y-76580035D01*
X121037493Y-76580035D01*
G37*
D11*
X120650000Y-77216000D03*
D10*
G36*
X121037493Y-75005035D02*
X121068435Y-75009625D01*
X121098778Y-75017225D01*
X121128230Y-75027763D01*
X121156508Y-75041138D01*
X121183338Y-75057219D01*
X121208463Y-75075853D01*
X121231640Y-75096860D01*
X121252647Y-75120037D01*
X121271281Y-75145162D01*
X121287362Y-75171992D01*
X121300737Y-75200270D01*
X121311275Y-75229722D01*
X121318875Y-75260065D01*
X121323465Y-75291007D01*
X121325000Y-75322250D01*
X121325000Y-75959750D01*
X121323465Y-75990993D01*
X121318875Y-76021935D01*
X121311275Y-76052278D01*
X121300737Y-76081730D01*
X121287362Y-76110008D01*
X121271281Y-76136838D01*
X121252647Y-76161963D01*
X121231640Y-76185140D01*
X121208463Y-76206147D01*
X121183338Y-76224781D01*
X121156508Y-76240862D01*
X121128230Y-76254237D01*
X121098778Y-76264775D01*
X121068435Y-76272375D01*
X121037493Y-76276965D01*
X121006250Y-76278500D01*
X120293750Y-76278500D01*
X120262507Y-76276965D01*
X120231565Y-76272375D01*
X120201222Y-76264775D01*
X120171770Y-76254237D01*
X120143492Y-76240862D01*
X120116662Y-76224781D01*
X120091537Y-76206147D01*
X120068360Y-76185140D01*
X120047353Y-76161963D01*
X120028719Y-76136838D01*
X120012638Y-76110008D01*
X119999263Y-76081730D01*
X119988725Y-76052278D01*
X119981125Y-76021935D01*
X119976535Y-75990993D01*
X119975000Y-75959750D01*
X119975000Y-75322250D01*
X119976535Y-75291007D01*
X119981125Y-75260065D01*
X119988725Y-75229722D01*
X119999263Y-75200270D01*
X120012638Y-75171992D01*
X120028719Y-75145162D01*
X120047353Y-75120037D01*
X120068360Y-75096860D01*
X120091537Y-75075853D01*
X120116662Y-75057219D01*
X120143492Y-75041138D01*
X120171770Y-75027763D01*
X120201222Y-75017225D01*
X120231565Y-75009625D01*
X120262507Y-75005035D01*
X120293750Y-75003500D01*
X121006250Y-75003500D01*
X121037493Y-75005035D01*
X121037493Y-75005035D01*
G37*
D11*
X120650000Y-75641000D03*
G04 #@! TD*
D10*
G04 #@! TO.C,C17*
G36*
X114179493Y-76605535D02*
X114210435Y-76610125D01*
X114240778Y-76617725D01*
X114270230Y-76628263D01*
X114298508Y-76641638D01*
X114325338Y-76657719D01*
X114350463Y-76676353D01*
X114373640Y-76697360D01*
X114394647Y-76720537D01*
X114413281Y-76745662D01*
X114429362Y-76772492D01*
X114442737Y-76800770D01*
X114453275Y-76830222D01*
X114460875Y-76860565D01*
X114465465Y-76891507D01*
X114467000Y-76922750D01*
X114467000Y-77560250D01*
X114465465Y-77591493D01*
X114460875Y-77622435D01*
X114453275Y-77652778D01*
X114442737Y-77682230D01*
X114429362Y-77710508D01*
X114413281Y-77737338D01*
X114394647Y-77762463D01*
X114373640Y-77785640D01*
X114350463Y-77806647D01*
X114325338Y-77825281D01*
X114298508Y-77841362D01*
X114270230Y-77854737D01*
X114240778Y-77865275D01*
X114210435Y-77872875D01*
X114179493Y-77877465D01*
X114148250Y-77879000D01*
X113435750Y-77879000D01*
X113404507Y-77877465D01*
X113373565Y-77872875D01*
X113343222Y-77865275D01*
X113313770Y-77854737D01*
X113285492Y-77841362D01*
X113258662Y-77825281D01*
X113233537Y-77806647D01*
X113210360Y-77785640D01*
X113189353Y-77762463D01*
X113170719Y-77737338D01*
X113154638Y-77710508D01*
X113141263Y-77682230D01*
X113130725Y-77652778D01*
X113123125Y-77622435D01*
X113118535Y-77591493D01*
X113117000Y-77560250D01*
X113117000Y-76922750D01*
X113118535Y-76891507D01*
X113123125Y-76860565D01*
X113130725Y-76830222D01*
X113141263Y-76800770D01*
X113154638Y-76772492D01*
X113170719Y-76745662D01*
X113189353Y-76720537D01*
X113210360Y-76697360D01*
X113233537Y-76676353D01*
X113258662Y-76657719D01*
X113285492Y-76641638D01*
X113313770Y-76628263D01*
X113343222Y-76617725D01*
X113373565Y-76610125D01*
X113404507Y-76605535D01*
X113435750Y-76604000D01*
X114148250Y-76604000D01*
X114179493Y-76605535D01*
X114179493Y-76605535D01*
G37*
D11*
X113792000Y-77241500D03*
D10*
G36*
X114179493Y-75030535D02*
X114210435Y-75035125D01*
X114240778Y-75042725D01*
X114270230Y-75053263D01*
X114298508Y-75066638D01*
X114325338Y-75082719D01*
X114350463Y-75101353D01*
X114373640Y-75122360D01*
X114394647Y-75145537D01*
X114413281Y-75170662D01*
X114429362Y-75197492D01*
X114442737Y-75225770D01*
X114453275Y-75255222D01*
X114460875Y-75285565D01*
X114465465Y-75316507D01*
X114467000Y-75347750D01*
X114467000Y-75985250D01*
X114465465Y-76016493D01*
X114460875Y-76047435D01*
X114453275Y-76077778D01*
X114442737Y-76107230D01*
X114429362Y-76135508D01*
X114413281Y-76162338D01*
X114394647Y-76187463D01*
X114373640Y-76210640D01*
X114350463Y-76231647D01*
X114325338Y-76250281D01*
X114298508Y-76266362D01*
X114270230Y-76279737D01*
X114240778Y-76290275D01*
X114210435Y-76297875D01*
X114179493Y-76302465D01*
X114148250Y-76304000D01*
X113435750Y-76304000D01*
X113404507Y-76302465D01*
X113373565Y-76297875D01*
X113343222Y-76290275D01*
X113313770Y-76279737D01*
X113285492Y-76266362D01*
X113258662Y-76250281D01*
X113233537Y-76231647D01*
X113210360Y-76210640D01*
X113189353Y-76187463D01*
X113170719Y-76162338D01*
X113154638Y-76135508D01*
X113141263Y-76107230D01*
X113130725Y-76077778D01*
X113123125Y-76047435D01*
X113118535Y-76016493D01*
X113117000Y-75985250D01*
X113117000Y-75347750D01*
X113118535Y-75316507D01*
X113123125Y-75285565D01*
X113130725Y-75255222D01*
X113141263Y-75225770D01*
X113154638Y-75197492D01*
X113170719Y-75170662D01*
X113189353Y-75145537D01*
X113210360Y-75122360D01*
X113233537Y-75101353D01*
X113258662Y-75082719D01*
X113285492Y-75066638D01*
X113313770Y-75053263D01*
X113343222Y-75042725D01*
X113373565Y-75035125D01*
X113404507Y-75030535D01*
X113435750Y-75029000D01*
X114148250Y-75029000D01*
X114179493Y-75030535D01*
X114179493Y-75030535D01*
G37*
D11*
X113792000Y-75666500D03*
G04 #@! TD*
D10*
G04 #@! TO.C,C18*
G36*
X83835346Y-99766589D02*
X83867380Y-99771341D01*
X83898794Y-99779210D01*
X83929286Y-99790120D01*
X83958561Y-99803966D01*
X83986338Y-99820615D01*
X84012350Y-99839907D01*
X84036345Y-99861655D01*
X84058093Y-99885650D01*
X84077385Y-99911662D01*
X84094034Y-99939439D01*
X84107880Y-99968714D01*
X84118790Y-99999206D01*
X84126659Y-100030620D01*
X84131411Y-100062654D01*
X84133000Y-100095000D01*
X84133000Y-101085000D01*
X84131411Y-101117346D01*
X84126659Y-101149380D01*
X84118790Y-101180794D01*
X84107880Y-101211286D01*
X84094034Y-101240561D01*
X84077385Y-101268338D01*
X84058093Y-101294350D01*
X84036345Y-101318345D01*
X84012350Y-101340093D01*
X83986338Y-101359385D01*
X83958561Y-101376034D01*
X83929286Y-101389880D01*
X83898794Y-101400790D01*
X83867380Y-101408659D01*
X83835346Y-101413411D01*
X83803000Y-101415000D01*
X82313000Y-101415000D01*
X82280654Y-101413411D01*
X82248620Y-101408659D01*
X82217206Y-101400790D01*
X82186714Y-101389880D01*
X82157439Y-101376034D01*
X82129662Y-101359385D01*
X82103650Y-101340093D01*
X82079655Y-101318345D01*
X82057907Y-101294350D01*
X82038615Y-101268338D01*
X82021966Y-101240561D01*
X82008120Y-101211286D01*
X81997210Y-101180794D01*
X81989341Y-101149380D01*
X81984589Y-101117346D01*
X81983000Y-101085000D01*
X81983000Y-100095000D01*
X81984589Y-100062654D01*
X81989341Y-100030620D01*
X81997210Y-99999206D01*
X82008120Y-99968714D01*
X82021966Y-99939439D01*
X82038615Y-99911662D01*
X82057907Y-99885650D01*
X82079655Y-99861655D01*
X82103650Y-99839907D01*
X82129662Y-99820615D01*
X82157439Y-99803966D01*
X82186714Y-99790120D01*
X82217206Y-99779210D01*
X82248620Y-99771341D01*
X82280654Y-99766589D01*
X82313000Y-99765000D01*
X83803000Y-99765000D01*
X83835346Y-99766589D01*
X83835346Y-99766589D01*
G37*
D13*
X83058000Y-100590000D03*
D10*
G36*
X83835346Y-96966589D02*
X83867380Y-96971341D01*
X83898794Y-96979210D01*
X83929286Y-96990120D01*
X83958561Y-97003966D01*
X83986338Y-97020615D01*
X84012350Y-97039907D01*
X84036345Y-97061655D01*
X84058093Y-97085650D01*
X84077385Y-97111662D01*
X84094034Y-97139439D01*
X84107880Y-97168714D01*
X84118790Y-97199206D01*
X84126659Y-97230620D01*
X84131411Y-97262654D01*
X84133000Y-97295000D01*
X84133000Y-98285000D01*
X84131411Y-98317346D01*
X84126659Y-98349380D01*
X84118790Y-98380794D01*
X84107880Y-98411286D01*
X84094034Y-98440561D01*
X84077385Y-98468338D01*
X84058093Y-98494350D01*
X84036345Y-98518345D01*
X84012350Y-98540093D01*
X83986338Y-98559385D01*
X83958561Y-98576034D01*
X83929286Y-98589880D01*
X83898794Y-98600790D01*
X83867380Y-98608659D01*
X83835346Y-98613411D01*
X83803000Y-98615000D01*
X82313000Y-98615000D01*
X82280654Y-98613411D01*
X82248620Y-98608659D01*
X82217206Y-98600790D01*
X82186714Y-98589880D01*
X82157439Y-98576034D01*
X82129662Y-98559385D01*
X82103650Y-98540093D01*
X82079655Y-98518345D01*
X82057907Y-98494350D01*
X82038615Y-98468338D01*
X82021966Y-98440561D01*
X82008120Y-98411286D01*
X81997210Y-98380794D01*
X81989341Y-98349380D01*
X81984589Y-98317346D01*
X81983000Y-98285000D01*
X81983000Y-97295000D01*
X81984589Y-97262654D01*
X81989341Y-97230620D01*
X81997210Y-97199206D01*
X82008120Y-97168714D01*
X82021966Y-97139439D01*
X82038615Y-97111662D01*
X82057907Y-97085650D01*
X82079655Y-97061655D01*
X82103650Y-97039907D01*
X82129662Y-97020615D01*
X82157439Y-97003966D01*
X82186714Y-96990120D01*
X82217206Y-96979210D01*
X82248620Y-96971341D01*
X82280654Y-96966589D01*
X82313000Y-96965000D01*
X83803000Y-96965000D01*
X83835346Y-96966589D01*
X83835346Y-96966589D01*
G37*
D13*
X83058000Y-97790000D03*
G04 #@! TD*
D10*
G04 #@! TO.C,C19*
G36*
X86239493Y-105282035D02*
X86270435Y-105286625D01*
X86300778Y-105294225D01*
X86330230Y-105304763D01*
X86358508Y-105318138D01*
X86385338Y-105334219D01*
X86410463Y-105352853D01*
X86433640Y-105373860D01*
X86454647Y-105397037D01*
X86473281Y-105422162D01*
X86489362Y-105448992D01*
X86502737Y-105477270D01*
X86513275Y-105506722D01*
X86520875Y-105537065D01*
X86525465Y-105568007D01*
X86527000Y-105599250D01*
X86527000Y-106236750D01*
X86525465Y-106267993D01*
X86520875Y-106298935D01*
X86513275Y-106329278D01*
X86502737Y-106358730D01*
X86489362Y-106387008D01*
X86473281Y-106413838D01*
X86454647Y-106438963D01*
X86433640Y-106462140D01*
X86410463Y-106483147D01*
X86385338Y-106501781D01*
X86358508Y-106517862D01*
X86330230Y-106531237D01*
X86300778Y-106541775D01*
X86270435Y-106549375D01*
X86239493Y-106553965D01*
X86208250Y-106555500D01*
X85495750Y-106555500D01*
X85464507Y-106553965D01*
X85433565Y-106549375D01*
X85403222Y-106541775D01*
X85373770Y-106531237D01*
X85345492Y-106517862D01*
X85318662Y-106501781D01*
X85293537Y-106483147D01*
X85270360Y-106462140D01*
X85249353Y-106438963D01*
X85230719Y-106413838D01*
X85214638Y-106387008D01*
X85201263Y-106358730D01*
X85190725Y-106329278D01*
X85183125Y-106298935D01*
X85178535Y-106267993D01*
X85177000Y-106236750D01*
X85177000Y-105599250D01*
X85178535Y-105568007D01*
X85183125Y-105537065D01*
X85190725Y-105506722D01*
X85201263Y-105477270D01*
X85214638Y-105448992D01*
X85230719Y-105422162D01*
X85249353Y-105397037D01*
X85270360Y-105373860D01*
X85293537Y-105352853D01*
X85318662Y-105334219D01*
X85345492Y-105318138D01*
X85373770Y-105304763D01*
X85403222Y-105294225D01*
X85433565Y-105286625D01*
X85464507Y-105282035D01*
X85495750Y-105280500D01*
X86208250Y-105280500D01*
X86239493Y-105282035D01*
X86239493Y-105282035D01*
G37*
D11*
X85852000Y-105918000D03*
D10*
G36*
X86239493Y-103707035D02*
X86270435Y-103711625D01*
X86300778Y-103719225D01*
X86330230Y-103729763D01*
X86358508Y-103743138D01*
X86385338Y-103759219D01*
X86410463Y-103777853D01*
X86433640Y-103798860D01*
X86454647Y-103822037D01*
X86473281Y-103847162D01*
X86489362Y-103873992D01*
X86502737Y-103902270D01*
X86513275Y-103931722D01*
X86520875Y-103962065D01*
X86525465Y-103993007D01*
X86527000Y-104024250D01*
X86527000Y-104661750D01*
X86525465Y-104692993D01*
X86520875Y-104723935D01*
X86513275Y-104754278D01*
X86502737Y-104783730D01*
X86489362Y-104812008D01*
X86473281Y-104838838D01*
X86454647Y-104863963D01*
X86433640Y-104887140D01*
X86410463Y-104908147D01*
X86385338Y-104926781D01*
X86358508Y-104942862D01*
X86330230Y-104956237D01*
X86300778Y-104966775D01*
X86270435Y-104974375D01*
X86239493Y-104978965D01*
X86208250Y-104980500D01*
X85495750Y-104980500D01*
X85464507Y-104978965D01*
X85433565Y-104974375D01*
X85403222Y-104966775D01*
X85373770Y-104956237D01*
X85345492Y-104942862D01*
X85318662Y-104926781D01*
X85293537Y-104908147D01*
X85270360Y-104887140D01*
X85249353Y-104863963D01*
X85230719Y-104838838D01*
X85214638Y-104812008D01*
X85201263Y-104783730D01*
X85190725Y-104754278D01*
X85183125Y-104723935D01*
X85178535Y-104692993D01*
X85177000Y-104661750D01*
X85177000Y-104024250D01*
X85178535Y-103993007D01*
X85183125Y-103962065D01*
X85190725Y-103931722D01*
X85201263Y-103902270D01*
X85214638Y-103873992D01*
X85230719Y-103847162D01*
X85249353Y-103822037D01*
X85270360Y-103798860D01*
X85293537Y-103777853D01*
X85318662Y-103759219D01*
X85345492Y-103743138D01*
X85373770Y-103729763D01*
X85403222Y-103719225D01*
X85433565Y-103711625D01*
X85464507Y-103707035D01*
X85495750Y-103705500D01*
X86208250Y-103705500D01*
X86239493Y-103707035D01*
X86239493Y-103707035D01*
G37*
D11*
X85852000Y-104343000D03*
G04 #@! TD*
D10*
G04 #@! TO.C,C20*
G36*
X93807943Y-106677655D02*
X93841312Y-106682605D01*
X93874035Y-106690802D01*
X93905797Y-106702166D01*
X93936293Y-106716590D01*
X93965227Y-106733932D01*
X93992323Y-106754028D01*
X94017318Y-106776682D01*
X94039972Y-106801677D01*
X94060068Y-106828773D01*
X94077410Y-106857707D01*
X94091834Y-106888203D01*
X94103198Y-106919965D01*
X94111395Y-106952688D01*
X94116345Y-106986057D01*
X94118000Y-107019750D01*
X94118000Y-107707250D01*
X94116345Y-107740943D01*
X94111395Y-107774312D01*
X94103198Y-107807035D01*
X94091834Y-107838797D01*
X94077410Y-107869293D01*
X94060068Y-107898227D01*
X94039972Y-107925323D01*
X94017318Y-107950318D01*
X93992323Y-107972972D01*
X93965227Y-107993068D01*
X93936293Y-108010410D01*
X93905797Y-108024834D01*
X93874035Y-108036198D01*
X93841312Y-108044395D01*
X93807943Y-108049345D01*
X93774250Y-108051000D01*
X92661750Y-108051000D01*
X92628057Y-108049345D01*
X92594688Y-108044395D01*
X92561965Y-108036198D01*
X92530203Y-108024834D01*
X92499707Y-108010410D01*
X92470773Y-107993068D01*
X92443677Y-107972972D01*
X92418682Y-107950318D01*
X92396028Y-107925323D01*
X92375932Y-107898227D01*
X92358590Y-107869293D01*
X92344166Y-107838797D01*
X92332802Y-107807035D01*
X92324605Y-107774312D01*
X92319655Y-107740943D01*
X92318000Y-107707250D01*
X92318000Y-107019750D01*
X92319655Y-106986057D01*
X92324605Y-106952688D01*
X92332802Y-106919965D01*
X92344166Y-106888203D01*
X92358590Y-106857707D01*
X92375932Y-106828773D01*
X92396028Y-106801677D01*
X92418682Y-106776682D01*
X92443677Y-106754028D01*
X92470773Y-106733932D01*
X92499707Y-106716590D01*
X92530203Y-106702166D01*
X92561965Y-106690802D01*
X92594688Y-106682605D01*
X92628057Y-106677655D01*
X92661750Y-106676000D01*
X93774250Y-106676000D01*
X93807943Y-106677655D01*
X93807943Y-106677655D01*
G37*
D14*
X93218000Y-107363500D03*
D10*
G36*
X93807943Y-104802655D02*
X93841312Y-104807605D01*
X93874035Y-104815802D01*
X93905797Y-104827166D01*
X93936293Y-104841590D01*
X93965227Y-104858932D01*
X93992323Y-104879028D01*
X94017318Y-104901682D01*
X94039972Y-104926677D01*
X94060068Y-104953773D01*
X94077410Y-104982707D01*
X94091834Y-105013203D01*
X94103198Y-105044965D01*
X94111395Y-105077688D01*
X94116345Y-105111057D01*
X94118000Y-105144750D01*
X94118000Y-105832250D01*
X94116345Y-105865943D01*
X94111395Y-105899312D01*
X94103198Y-105932035D01*
X94091834Y-105963797D01*
X94077410Y-105994293D01*
X94060068Y-106023227D01*
X94039972Y-106050323D01*
X94017318Y-106075318D01*
X93992323Y-106097972D01*
X93965227Y-106118068D01*
X93936293Y-106135410D01*
X93905797Y-106149834D01*
X93874035Y-106161198D01*
X93841312Y-106169395D01*
X93807943Y-106174345D01*
X93774250Y-106176000D01*
X92661750Y-106176000D01*
X92628057Y-106174345D01*
X92594688Y-106169395D01*
X92561965Y-106161198D01*
X92530203Y-106149834D01*
X92499707Y-106135410D01*
X92470773Y-106118068D01*
X92443677Y-106097972D01*
X92418682Y-106075318D01*
X92396028Y-106050323D01*
X92375932Y-106023227D01*
X92358590Y-105994293D01*
X92344166Y-105963797D01*
X92332802Y-105932035D01*
X92324605Y-105899312D01*
X92319655Y-105865943D01*
X92318000Y-105832250D01*
X92318000Y-105144750D01*
X92319655Y-105111057D01*
X92324605Y-105077688D01*
X92332802Y-105044965D01*
X92344166Y-105013203D01*
X92358590Y-104982707D01*
X92375932Y-104953773D01*
X92396028Y-104926677D01*
X92418682Y-104901682D01*
X92443677Y-104879028D01*
X92470773Y-104858932D01*
X92499707Y-104841590D01*
X92530203Y-104827166D01*
X92561965Y-104815802D01*
X92594688Y-104807605D01*
X92628057Y-104802655D01*
X92661750Y-104801000D01*
X93774250Y-104801000D01*
X93807943Y-104802655D01*
X93807943Y-104802655D01*
G37*
D14*
X93218000Y-105488500D03*
G04 #@! TD*
D10*
G04 #@! TO.C,C21*
G36*
X101225493Y-99440035D02*
X101256435Y-99444625D01*
X101286778Y-99452225D01*
X101316230Y-99462763D01*
X101344508Y-99476138D01*
X101371338Y-99492219D01*
X101396463Y-99510853D01*
X101419640Y-99531860D01*
X101440647Y-99555037D01*
X101459281Y-99580162D01*
X101475362Y-99606992D01*
X101488737Y-99635270D01*
X101499275Y-99664722D01*
X101506875Y-99695065D01*
X101511465Y-99726007D01*
X101513000Y-99757250D01*
X101513000Y-100394750D01*
X101511465Y-100425993D01*
X101506875Y-100456935D01*
X101499275Y-100487278D01*
X101488737Y-100516730D01*
X101475362Y-100545008D01*
X101459281Y-100571838D01*
X101440647Y-100596963D01*
X101419640Y-100620140D01*
X101396463Y-100641147D01*
X101371338Y-100659781D01*
X101344508Y-100675862D01*
X101316230Y-100689237D01*
X101286778Y-100699775D01*
X101256435Y-100707375D01*
X101225493Y-100711965D01*
X101194250Y-100713500D01*
X100481750Y-100713500D01*
X100450507Y-100711965D01*
X100419565Y-100707375D01*
X100389222Y-100699775D01*
X100359770Y-100689237D01*
X100331492Y-100675862D01*
X100304662Y-100659781D01*
X100279537Y-100641147D01*
X100256360Y-100620140D01*
X100235353Y-100596963D01*
X100216719Y-100571838D01*
X100200638Y-100545008D01*
X100187263Y-100516730D01*
X100176725Y-100487278D01*
X100169125Y-100456935D01*
X100164535Y-100425993D01*
X100163000Y-100394750D01*
X100163000Y-99757250D01*
X100164535Y-99726007D01*
X100169125Y-99695065D01*
X100176725Y-99664722D01*
X100187263Y-99635270D01*
X100200638Y-99606992D01*
X100216719Y-99580162D01*
X100235353Y-99555037D01*
X100256360Y-99531860D01*
X100279537Y-99510853D01*
X100304662Y-99492219D01*
X100331492Y-99476138D01*
X100359770Y-99462763D01*
X100389222Y-99452225D01*
X100419565Y-99444625D01*
X100450507Y-99440035D01*
X100481750Y-99438500D01*
X101194250Y-99438500D01*
X101225493Y-99440035D01*
X101225493Y-99440035D01*
G37*
D11*
X100838000Y-100076000D03*
D10*
G36*
X101225493Y-97865035D02*
X101256435Y-97869625D01*
X101286778Y-97877225D01*
X101316230Y-97887763D01*
X101344508Y-97901138D01*
X101371338Y-97917219D01*
X101396463Y-97935853D01*
X101419640Y-97956860D01*
X101440647Y-97980037D01*
X101459281Y-98005162D01*
X101475362Y-98031992D01*
X101488737Y-98060270D01*
X101499275Y-98089722D01*
X101506875Y-98120065D01*
X101511465Y-98151007D01*
X101513000Y-98182250D01*
X101513000Y-98819750D01*
X101511465Y-98850993D01*
X101506875Y-98881935D01*
X101499275Y-98912278D01*
X101488737Y-98941730D01*
X101475362Y-98970008D01*
X101459281Y-98996838D01*
X101440647Y-99021963D01*
X101419640Y-99045140D01*
X101396463Y-99066147D01*
X101371338Y-99084781D01*
X101344508Y-99100862D01*
X101316230Y-99114237D01*
X101286778Y-99124775D01*
X101256435Y-99132375D01*
X101225493Y-99136965D01*
X101194250Y-99138500D01*
X100481750Y-99138500D01*
X100450507Y-99136965D01*
X100419565Y-99132375D01*
X100389222Y-99124775D01*
X100359770Y-99114237D01*
X100331492Y-99100862D01*
X100304662Y-99084781D01*
X100279537Y-99066147D01*
X100256360Y-99045140D01*
X100235353Y-99021963D01*
X100216719Y-98996838D01*
X100200638Y-98970008D01*
X100187263Y-98941730D01*
X100176725Y-98912278D01*
X100169125Y-98881935D01*
X100164535Y-98850993D01*
X100163000Y-98819750D01*
X100163000Y-98182250D01*
X100164535Y-98151007D01*
X100169125Y-98120065D01*
X100176725Y-98089722D01*
X100187263Y-98060270D01*
X100200638Y-98031992D01*
X100216719Y-98005162D01*
X100235353Y-97980037D01*
X100256360Y-97956860D01*
X100279537Y-97935853D01*
X100304662Y-97917219D01*
X100331492Y-97901138D01*
X100359770Y-97887763D01*
X100389222Y-97877225D01*
X100419565Y-97869625D01*
X100450507Y-97865035D01*
X100481750Y-97863500D01*
X101194250Y-97863500D01*
X101225493Y-97865035D01*
X101225493Y-97865035D01*
G37*
D11*
X100838000Y-98501000D03*
G04 #@! TD*
D16*
G04 #@! TO.C,D1*
X46228000Y-87122000D03*
X46228000Y-89022000D03*
X48228000Y-88072000D03*
G04 #@! TD*
D17*
G04 #@! TO.C,D2*
X48768000Y-92710000D03*
X48768000Y-96010000D03*
G04 #@! TD*
D10*
G04 #@! TO.C,D3*
G36*
X100550443Y-90541655D02*
X100583812Y-90546605D01*
X100616535Y-90554802D01*
X100648297Y-90566166D01*
X100678793Y-90580590D01*
X100707727Y-90597932D01*
X100734823Y-90618028D01*
X100759818Y-90640682D01*
X100782472Y-90665677D01*
X100802568Y-90692773D01*
X100819910Y-90721707D01*
X100834334Y-90752203D01*
X100845698Y-90783965D01*
X100853895Y-90816688D01*
X100858845Y-90850057D01*
X100860500Y-90883750D01*
X100860500Y-91996250D01*
X100858845Y-92029943D01*
X100853895Y-92063312D01*
X100845698Y-92096035D01*
X100834334Y-92127797D01*
X100819910Y-92158293D01*
X100802568Y-92187227D01*
X100782472Y-92214323D01*
X100759818Y-92239318D01*
X100734823Y-92261972D01*
X100707727Y-92282068D01*
X100678793Y-92299410D01*
X100648297Y-92313834D01*
X100616535Y-92325198D01*
X100583812Y-92333395D01*
X100550443Y-92338345D01*
X100516750Y-92340000D01*
X99829250Y-92340000D01*
X99795557Y-92338345D01*
X99762188Y-92333395D01*
X99729465Y-92325198D01*
X99697703Y-92313834D01*
X99667207Y-92299410D01*
X99638273Y-92282068D01*
X99611177Y-92261972D01*
X99586182Y-92239318D01*
X99563528Y-92214323D01*
X99543432Y-92187227D01*
X99526090Y-92158293D01*
X99511666Y-92127797D01*
X99500302Y-92096035D01*
X99492105Y-92063312D01*
X99487155Y-92029943D01*
X99485500Y-91996250D01*
X99485500Y-90883750D01*
X99487155Y-90850057D01*
X99492105Y-90816688D01*
X99500302Y-90783965D01*
X99511666Y-90752203D01*
X99526090Y-90721707D01*
X99543432Y-90692773D01*
X99563528Y-90665677D01*
X99586182Y-90640682D01*
X99611177Y-90618028D01*
X99638273Y-90597932D01*
X99667207Y-90580590D01*
X99697703Y-90566166D01*
X99729465Y-90554802D01*
X99762188Y-90546605D01*
X99795557Y-90541655D01*
X99829250Y-90540000D01*
X100516750Y-90540000D01*
X100550443Y-90541655D01*
X100550443Y-90541655D01*
G37*
D14*
X100173000Y-91440000D03*
D10*
G36*
X98675443Y-90541655D02*
X98708812Y-90546605D01*
X98741535Y-90554802D01*
X98773297Y-90566166D01*
X98803793Y-90580590D01*
X98832727Y-90597932D01*
X98859823Y-90618028D01*
X98884818Y-90640682D01*
X98907472Y-90665677D01*
X98927568Y-90692773D01*
X98944910Y-90721707D01*
X98959334Y-90752203D01*
X98970698Y-90783965D01*
X98978895Y-90816688D01*
X98983845Y-90850057D01*
X98985500Y-90883750D01*
X98985500Y-91996250D01*
X98983845Y-92029943D01*
X98978895Y-92063312D01*
X98970698Y-92096035D01*
X98959334Y-92127797D01*
X98944910Y-92158293D01*
X98927568Y-92187227D01*
X98907472Y-92214323D01*
X98884818Y-92239318D01*
X98859823Y-92261972D01*
X98832727Y-92282068D01*
X98803793Y-92299410D01*
X98773297Y-92313834D01*
X98741535Y-92325198D01*
X98708812Y-92333395D01*
X98675443Y-92338345D01*
X98641750Y-92340000D01*
X97954250Y-92340000D01*
X97920557Y-92338345D01*
X97887188Y-92333395D01*
X97854465Y-92325198D01*
X97822703Y-92313834D01*
X97792207Y-92299410D01*
X97763273Y-92282068D01*
X97736177Y-92261972D01*
X97711182Y-92239318D01*
X97688528Y-92214323D01*
X97668432Y-92187227D01*
X97651090Y-92158293D01*
X97636666Y-92127797D01*
X97625302Y-92096035D01*
X97617105Y-92063312D01*
X97612155Y-92029943D01*
X97610500Y-91996250D01*
X97610500Y-90883750D01*
X97612155Y-90850057D01*
X97617105Y-90816688D01*
X97625302Y-90783965D01*
X97636666Y-90752203D01*
X97651090Y-90721707D01*
X97668432Y-90692773D01*
X97688528Y-90665677D01*
X97711182Y-90640682D01*
X97736177Y-90618028D01*
X97763273Y-90597932D01*
X97792207Y-90580590D01*
X97822703Y-90566166D01*
X97854465Y-90554802D01*
X97887188Y-90546605D01*
X97920557Y-90541655D01*
X97954250Y-90540000D01*
X98641750Y-90540000D01*
X98675443Y-90541655D01*
X98675443Y-90541655D01*
G37*
D14*
X98298000Y-91440000D03*
G04 #@! TD*
D10*
G04 #@! TO.C,D4*
G36*
X100550443Y-86985655D02*
X100583812Y-86990605D01*
X100616535Y-86998802D01*
X100648297Y-87010166D01*
X100678793Y-87024590D01*
X100707727Y-87041932D01*
X100734823Y-87062028D01*
X100759818Y-87084682D01*
X100782472Y-87109677D01*
X100802568Y-87136773D01*
X100819910Y-87165707D01*
X100834334Y-87196203D01*
X100845698Y-87227965D01*
X100853895Y-87260688D01*
X100858845Y-87294057D01*
X100860500Y-87327750D01*
X100860500Y-88440250D01*
X100858845Y-88473943D01*
X100853895Y-88507312D01*
X100845698Y-88540035D01*
X100834334Y-88571797D01*
X100819910Y-88602293D01*
X100802568Y-88631227D01*
X100782472Y-88658323D01*
X100759818Y-88683318D01*
X100734823Y-88705972D01*
X100707727Y-88726068D01*
X100678793Y-88743410D01*
X100648297Y-88757834D01*
X100616535Y-88769198D01*
X100583812Y-88777395D01*
X100550443Y-88782345D01*
X100516750Y-88784000D01*
X99829250Y-88784000D01*
X99795557Y-88782345D01*
X99762188Y-88777395D01*
X99729465Y-88769198D01*
X99697703Y-88757834D01*
X99667207Y-88743410D01*
X99638273Y-88726068D01*
X99611177Y-88705972D01*
X99586182Y-88683318D01*
X99563528Y-88658323D01*
X99543432Y-88631227D01*
X99526090Y-88602293D01*
X99511666Y-88571797D01*
X99500302Y-88540035D01*
X99492105Y-88507312D01*
X99487155Y-88473943D01*
X99485500Y-88440250D01*
X99485500Y-87327750D01*
X99487155Y-87294057D01*
X99492105Y-87260688D01*
X99500302Y-87227965D01*
X99511666Y-87196203D01*
X99526090Y-87165707D01*
X99543432Y-87136773D01*
X99563528Y-87109677D01*
X99586182Y-87084682D01*
X99611177Y-87062028D01*
X99638273Y-87041932D01*
X99667207Y-87024590D01*
X99697703Y-87010166D01*
X99729465Y-86998802D01*
X99762188Y-86990605D01*
X99795557Y-86985655D01*
X99829250Y-86984000D01*
X100516750Y-86984000D01*
X100550443Y-86985655D01*
X100550443Y-86985655D01*
G37*
D14*
X100173000Y-87884000D03*
D10*
G36*
X98675443Y-86985655D02*
X98708812Y-86990605D01*
X98741535Y-86998802D01*
X98773297Y-87010166D01*
X98803793Y-87024590D01*
X98832727Y-87041932D01*
X98859823Y-87062028D01*
X98884818Y-87084682D01*
X98907472Y-87109677D01*
X98927568Y-87136773D01*
X98944910Y-87165707D01*
X98959334Y-87196203D01*
X98970698Y-87227965D01*
X98978895Y-87260688D01*
X98983845Y-87294057D01*
X98985500Y-87327750D01*
X98985500Y-88440250D01*
X98983845Y-88473943D01*
X98978895Y-88507312D01*
X98970698Y-88540035D01*
X98959334Y-88571797D01*
X98944910Y-88602293D01*
X98927568Y-88631227D01*
X98907472Y-88658323D01*
X98884818Y-88683318D01*
X98859823Y-88705972D01*
X98832727Y-88726068D01*
X98803793Y-88743410D01*
X98773297Y-88757834D01*
X98741535Y-88769198D01*
X98708812Y-88777395D01*
X98675443Y-88782345D01*
X98641750Y-88784000D01*
X97954250Y-88784000D01*
X97920557Y-88782345D01*
X97887188Y-88777395D01*
X97854465Y-88769198D01*
X97822703Y-88757834D01*
X97792207Y-88743410D01*
X97763273Y-88726068D01*
X97736177Y-88705972D01*
X97711182Y-88683318D01*
X97688528Y-88658323D01*
X97668432Y-88631227D01*
X97651090Y-88602293D01*
X97636666Y-88571797D01*
X97625302Y-88540035D01*
X97617105Y-88507312D01*
X97612155Y-88473943D01*
X97610500Y-88440250D01*
X97610500Y-87327750D01*
X97612155Y-87294057D01*
X97617105Y-87260688D01*
X97625302Y-87227965D01*
X97636666Y-87196203D01*
X97651090Y-87165707D01*
X97668432Y-87136773D01*
X97688528Y-87109677D01*
X97711182Y-87084682D01*
X97736177Y-87062028D01*
X97763273Y-87041932D01*
X97792207Y-87024590D01*
X97822703Y-87010166D01*
X97854465Y-86998802D01*
X97887188Y-86990605D01*
X97920557Y-86985655D01*
X97954250Y-86984000D01*
X98641750Y-86984000D01*
X98675443Y-86985655D01*
X98675443Y-86985655D01*
G37*
D14*
X98298000Y-87884000D03*
G04 #@! TD*
D10*
G04 #@! TO.C,D5*
G36*
X98675443Y-82413655D02*
X98708812Y-82418605D01*
X98741535Y-82426802D01*
X98773297Y-82438166D01*
X98803793Y-82452590D01*
X98832727Y-82469932D01*
X98859823Y-82490028D01*
X98884818Y-82512682D01*
X98907472Y-82537677D01*
X98927568Y-82564773D01*
X98944910Y-82593707D01*
X98959334Y-82624203D01*
X98970698Y-82655965D01*
X98978895Y-82688688D01*
X98983845Y-82722057D01*
X98985500Y-82755750D01*
X98985500Y-83868250D01*
X98983845Y-83901943D01*
X98978895Y-83935312D01*
X98970698Y-83968035D01*
X98959334Y-83999797D01*
X98944910Y-84030293D01*
X98927568Y-84059227D01*
X98907472Y-84086323D01*
X98884818Y-84111318D01*
X98859823Y-84133972D01*
X98832727Y-84154068D01*
X98803793Y-84171410D01*
X98773297Y-84185834D01*
X98741535Y-84197198D01*
X98708812Y-84205395D01*
X98675443Y-84210345D01*
X98641750Y-84212000D01*
X97954250Y-84212000D01*
X97920557Y-84210345D01*
X97887188Y-84205395D01*
X97854465Y-84197198D01*
X97822703Y-84185834D01*
X97792207Y-84171410D01*
X97763273Y-84154068D01*
X97736177Y-84133972D01*
X97711182Y-84111318D01*
X97688528Y-84086323D01*
X97668432Y-84059227D01*
X97651090Y-84030293D01*
X97636666Y-83999797D01*
X97625302Y-83968035D01*
X97617105Y-83935312D01*
X97612155Y-83901943D01*
X97610500Y-83868250D01*
X97610500Y-82755750D01*
X97612155Y-82722057D01*
X97617105Y-82688688D01*
X97625302Y-82655965D01*
X97636666Y-82624203D01*
X97651090Y-82593707D01*
X97668432Y-82564773D01*
X97688528Y-82537677D01*
X97711182Y-82512682D01*
X97736177Y-82490028D01*
X97763273Y-82469932D01*
X97792207Y-82452590D01*
X97822703Y-82438166D01*
X97854465Y-82426802D01*
X97887188Y-82418605D01*
X97920557Y-82413655D01*
X97954250Y-82412000D01*
X98641750Y-82412000D01*
X98675443Y-82413655D01*
X98675443Y-82413655D01*
G37*
D14*
X98298000Y-83312000D03*
D10*
G36*
X100550443Y-82413655D02*
X100583812Y-82418605D01*
X100616535Y-82426802D01*
X100648297Y-82438166D01*
X100678793Y-82452590D01*
X100707727Y-82469932D01*
X100734823Y-82490028D01*
X100759818Y-82512682D01*
X100782472Y-82537677D01*
X100802568Y-82564773D01*
X100819910Y-82593707D01*
X100834334Y-82624203D01*
X100845698Y-82655965D01*
X100853895Y-82688688D01*
X100858845Y-82722057D01*
X100860500Y-82755750D01*
X100860500Y-83868250D01*
X100858845Y-83901943D01*
X100853895Y-83935312D01*
X100845698Y-83968035D01*
X100834334Y-83999797D01*
X100819910Y-84030293D01*
X100802568Y-84059227D01*
X100782472Y-84086323D01*
X100759818Y-84111318D01*
X100734823Y-84133972D01*
X100707727Y-84154068D01*
X100678793Y-84171410D01*
X100648297Y-84185834D01*
X100616535Y-84197198D01*
X100583812Y-84205395D01*
X100550443Y-84210345D01*
X100516750Y-84212000D01*
X99829250Y-84212000D01*
X99795557Y-84210345D01*
X99762188Y-84205395D01*
X99729465Y-84197198D01*
X99697703Y-84185834D01*
X99667207Y-84171410D01*
X99638273Y-84154068D01*
X99611177Y-84133972D01*
X99586182Y-84111318D01*
X99563528Y-84086323D01*
X99543432Y-84059227D01*
X99526090Y-84030293D01*
X99511666Y-83999797D01*
X99500302Y-83968035D01*
X99492105Y-83935312D01*
X99487155Y-83901943D01*
X99485500Y-83868250D01*
X99485500Y-82755750D01*
X99487155Y-82722057D01*
X99492105Y-82688688D01*
X99500302Y-82655965D01*
X99511666Y-82624203D01*
X99526090Y-82593707D01*
X99543432Y-82564773D01*
X99563528Y-82537677D01*
X99586182Y-82512682D01*
X99611177Y-82490028D01*
X99638273Y-82469932D01*
X99667207Y-82452590D01*
X99697703Y-82438166D01*
X99729465Y-82426802D01*
X99762188Y-82418605D01*
X99795557Y-82413655D01*
X99829250Y-82412000D01*
X100516750Y-82412000D01*
X100550443Y-82413655D01*
X100550443Y-82413655D01*
G37*
D14*
X100173000Y-83312000D03*
G04 #@! TD*
D18*
G04 #@! TO.C,J1*
X45400000Y-106200000D03*
D10*
G36*
X40333315Y-104254093D02*
X40415827Y-104266333D01*
X40496742Y-104286601D01*
X40575281Y-104314702D01*
X40650687Y-104350367D01*
X40722235Y-104393251D01*
X40789234Y-104442941D01*
X40851041Y-104498959D01*
X40907059Y-104560766D01*
X40956749Y-104627765D01*
X40999633Y-104699313D01*
X41035298Y-104774719D01*
X41063399Y-104853258D01*
X41083667Y-104934173D01*
X41095907Y-105016685D01*
X41100000Y-105100000D01*
X41100000Y-107300000D01*
X41095907Y-107383315D01*
X41083667Y-107465827D01*
X41063399Y-107546742D01*
X41035298Y-107625281D01*
X40999633Y-107700687D01*
X40956749Y-107772235D01*
X40907059Y-107839234D01*
X40851041Y-107901041D01*
X40789234Y-107957059D01*
X40722235Y-108006749D01*
X40650687Y-108049633D01*
X40575281Y-108085298D01*
X40496742Y-108113399D01*
X40415827Y-108133667D01*
X40333315Y-108145907D01*
X40250000Y-108150000D01*
X38550000Y-108150000D01*
X38466685Y-108145907D01*
X38384173Y-108133667D01*
X38303258Y-108113399D01*
X38224719Y-108085298D01*
X38149313Y-108049633D01*
X38077765Y-108006749D01*
X38010766Y-107957059D01*
X37948959Y-107901041D01*
X37892941Y-107839234D01*
X37843251Y-107772235D01*
X37800367Y-107700687D01*
X37764702Y-107625281D01*
X37736601Y-107546742D01*
X37716333Y-107465827D01*
X37704093Y-107383315D01*
X37700000Y-107300000D01*
X37700000Y-105100000D01*
X37704093Y-105016685D01*
X37716333Y-104934173D01*
X37736601Y-104853258D01*
X37764702Y-104774719D01*
X37800367Y-104699313D01*
X37843251Y-104627765D01*
X37892941Y-104560766D01*
X37948959Y-104498959D01*
X38010766Y-104442941D01*
X38077765Y-104393251D01*
X38149313Y-104350367D01*
X38224719Y-104314702D01*
X38303258Y-104286601D01*
X38384173Y-104266333D01*
X38466685Y-104254093D01*
X38550000Y-104250000D01*
X40250000Y-104250000D01*
X40333315Y-104254093D01*
X40333315Y-104254093D01*
G37*
D19*
X39400000Y-106200000D03*
D10*
G36*
X43470567Y-108954695D02*
X43565213Y-108968734D01*
X43658028Y-108991983D01*
X43748116Y-109024217D01*
X43834612Y-109065127D01*
X43916681Y-109114317D01*
X43993533Y-109171315D01*
X44064429Y-109235571D01*
X44128685Y-109306467D01*
X44185683Y-109383319D01*
X44234873Y-109465388D01*
X44275783Y-109551884D01*
X44308017Y-109641972D01*
X44331266Y-109734787D01*
X44345305Y-109829433D01*
X44350000Y-109925000D01*
X44350000Y-111875000D01*
X44345305Y-111970567D01*
X44331266Y-112065213D01*
X44308017Y-112158028D01*
X44275783Y-112248116D01*
X44234873Y-112334612D01*
X44185683Y-112416681D01*
X44128685Y-112493533D01*
X44064429Y-112564429D01*
X43993533Y-112628685D01*
X43916681Y-112685683D01*
X43834612Y-112734873D01*
X43748116Y-112775783D01*
X43658028Y-112808017D01*
X43565213Y-112831266D01*
X43470567Y-112845305D01*
X43375000Y-112850000D01*
X41425000Y-112850000D01*
X41329433Y-112845305D01*
X41234787Y-112831266D01*
X41141972Y-112808017D01*
X41051884Y-112775783D01*
X40965388Y-112734873D01*
X40883319Y-112685683D01*
X40806467Y-112628685D01*
X40735571Y-112564429D01*
X40671315Y-112493533D01*
X40614317Y-112416681D01*
X40565127Y-112334612D01*
X40524217Y-112248116D01*
X40491983Y-112158028D01*
X40468734Y-112065213D01*
X40454695Y-111970567D01*
X40450000Y-111875000D01*
X40450000Y-109925000D01*
X40454695Y-109829433D01*
X40468734Y-109734787D01*
X40491983Y-109641972D01*
X40524217Y-109551884D01*
X40565127Y-109465388D01*
X40614317Y-109383319D01*
X40671315Y-109306467D01*
X40735571Y-109235571D01*
X40806467Y-109171315D01*
X40883319Y-109114317D01*
X40965388Y-109065127D01*
X41051884Y-109024217D01*
X41141972Y-108991983D01*
X41234787Y-108968734D01*
X41329433Y-108954695D01*
X41425000Y-108950000D01*
X43375000Y-108950000D01*
X43470567Y-108954695D01*
X43470567Y-108954695D01*
G37*
D20*
X42400000Y-110900000D03*
G04 #@! TD*
D21*
G04 #@! TO.C,J2*
X35200000Y-97010000D03*
D22*
X35200000Y-93200000D03*
X35200000Y-89390000D03*
X35200000Y-85580000D03*
X35200000Y-81770000D03*
X35200000Y-77960000D03*
G04 #@! TD*
D23*
G04 #@! TO.C,J3*
X89154000Y-69342000D03*
D24*
X91694000Y-69342000D03*
X94234000Y-69342000D03*
X96774000Y-69342000D03*
X99314000Y-69342000D03*
X101854000Y-69342000D03*
G04 #@! TD*
G04 #@! TO.C,J4*
X101854000Y-115824000D03*
X99314000Y-115824000D03*
X96774000Y-115824000D03*
X94234000Y-115824000D03*
X91694000Y-115824000D03*
D23*
X89154000Y-115824000D03*
G04 #@! TD*
G04 #@! TO.C,J5*
X106680000Y-115824000D03*
D24*
X109220000Y-115824000D03*
X111760000Y-115824000D03*
X114300000Y-115824000D03*
G04 #@! TD*
D25*
G04 #@! TO.C,L1*
X96266000Y-98298000D03*
X92666000Y-98298000D03*
G04 #@! TD*
D10*
G04 #@! TO.C,R1*
G36*
X51441493Y-81152035D02*
X51472435Y-81156625D01*
X51502778Y-81164225D01*
X51532230Y-81174763D01*
X51560508Y-81188138D01*
X51587338Y-81204219D01*
X51612463Y-81222853D01*
X51635640Y-81243860D01*
X51656647Y-81267037D01*
X51675281Y-81292162D01*
X51691362Y-81318992D01*
X51704737Y-81347270D01*
X51715275Y-81376722D01*
X51722875Y-81407065D01*
X51727465Y-81438007D01*
X51729000Y-81469250D01*
X51729000Y-82106750D01*
X51727465Y-82137993D01*
X51722875Y-82168935D01*
X51715275Y-82199278D01*
X51704737Y-82228730D01*
X51691362Y-82257008D01*
X51675281Y-82283838D01*
X51656647Y-82308963D01*
X51635640Y-82332140D01*
X51612463Y-82353147D01*
X51587338Y-82371781D01*
X51560508Y-82387862D01*
X51532230Y-82401237D01*
X51502778Y-82411775D01*
X51472435Y-82419375D01*
X51441493Y-82423965D01*
X51410250Y-82425500D01*
X50697750Y-82425500D01*
X50666507Y-82423965D01*
X50635565Y-82419375D01*
X50605222Y-82411775D01*
X50575770Y-82401237D01*
X50547492Y-82387862D01*
X50520662Y-82371781D01*
X50495537Y-82353147D01*
X50472360Y-82332140D01*
X50451353Y-82308963D01*
X50432719Y-82283838D01*
X50416638Y-82257008D01*
X50403263Y-82228730D01*
X50392725Y-82199278D01*
X50385125Y-82168935D01*
X50380535Y-82137993D01*
X50379000Y-82106750D01*
X50379000Y-81469250D01*
X50380535Y-81438007D01*
X50385125Y-81407065D01*
X50392725Y-81376722D01*
X50403263Y-81347270D01*
X50416638Y-81318992D01*
X50432719Y-81292162D01*
X50451353Y-81267037D01*
X50472360Y-81243860D01*
X50495537Y-81222853D01*
X50520662Y-81204219D01*
X50547492Y-81188138D01*
X50575770Y-81174763D01*
X50605222Y-81164225D01*
X50635565Y-81156625D01*
X50666507Y-81152035D01*
X50697750Y-81150500D01*
X51410250Y-81150500D01*
X51441493Y-81152035D01*
X51441493Y-81152035D01*
G37*
D11*
X51054000Y-81788000D03*
D10*
G36*
X51441493Y-82727035D02*
X51472435Y-82731625D01*
X51502778Y-82739225D01*
X51532230Y-82749763D01*
X51560508Y-82763138D01*
X51587338Y-82779219D01*
X51612463Y-82797853D01*
X51635640Y-82818860D01*
X51656647Y-82842037D01*
X51675281Y-82867162D01*
X51691362Y-82893992D01*
X51704737Y-82922270D01*
X51715275Y-82951722D01*
X51722875Y-82982065D01*
X51727465Y-83013007D01*
X51729000Y-83044250D01*
X51729000Y-83681750D01*
X51727465Y-83712993D01*
X51722875Y-83743935D01*
X51715275Y-83774278D01*
X51704737Y-83803730D01*
X51691362Y-83832008D01*
X51675281Y-83858838D01*
X51656647Y-83883963D01*
X51635640Y-83907140D01*
X51612463Y-83928147D01*
X51587338Y-83946781D01*
X51560508Y-83962862D01*
X51532230Y-83976237D01*
X51502778Y-83986775D01*
X51472435Y-83994375D01*
X51441493Y-83998965D01*
X51410250Y-84000500D01*
X50697750Y-84000500D01*
X50666507Y-83998965D01*
X50635565Y-83994375D01*
X50605222Y-83986775D01*
X50575770Y-83976237D01*
X50547492Y-83962862D01*
X50520662Y-83946781D01*
X50495537Y-83928147D01*
X50472360Y-83907140D01*
X50451353Y-83883963D01*
X50432719Y-83858838D01*
X50416638Y-83832008D01*
X50403263Y-83803730D01*
X50392725Y-83774278D01*
X50385125Y-83743935D01*
X50380535Y-83712993D01*
X50379000Y-83681750D01*
X50379000Y-83044250D01*
X50380535Y-83013007D01*
X50385125Y-82982065D01*
X50392725Y-82951722D01*
X50403263Y-82922270D01*
X50416638Y-82893992D01*
X50432719Y-82867162D01*
X50451353Y-82842037D01*
X50472360Y-82818860D01*
X50495537Y-82797853D01*
X50520662Y-82779219D01*
X50547492Y-82763138D01*
X50575770Y-82749763D01*
X50605222Y-82739225D01*
X50635565Y-82731625D01*
X50666507Y-82727035D01*
X50697750Y-82725500D01*
X51410250Y-82725500D01*
X51441493Y-82727035D01*
X51441493Y-82727035D01*
G37*
D11*
X51054000Y-83363000D03*
G04 #@! TD*
D10*
G04 #@! TO.C,R2*
G36*
X49663493Y-82727035D02*
X49694435Y-82731625D01*
X49724778Y-82739225D01*
X49754230Y-82749763D01*
X49782508Y-82763138D01*
X49809338Y-82779219D01*
X49834463Y-82797853D01*
X49857640Y-82818860D01*
X49878647Y-82842037D01*
X49897281Y-82867162D01*
X49913362Y-82893992D01*
X49926737Y-82922270D01*
X49937275Y-82951722D01*
X49944875Y-82982065D01*
X49949465Y-83013007D01*
X49951000Y-83044250D01*
X49951000Y-83681750D01*
X49949465Y-83712993D01*
X49944875Y-83743935D01*
X49937275Y-83774278D01*
X49926737Y-83803730D01*
X49913362Y-83832008D01*
X49897281Y-83858838D01*
X49878647Y-83883963D01*
X49857640Y-83907140D01*
X49834463Y-83928147D01*
X49809338Y-83946781D01*
X49782508Y-83962862D01*
X49754230Y-83976237D01*
X49724778Y-83986775D01*
X49694435Y-83994375D01*
X49663493Y-83998965D01*
X49632250Y-84000500D01*
X48919750Y-84000500D01*
X48888507Y-83998965D01*
X48857565Y-83994375D01*
X48827222Y-83986775D01*
X48797770Y-83976237D01*
X48769492Y-83962862D01*
X48742662Y-83946781D01*
X48717537Y-83928147D01*
X48694360Y-83907140D01*
X48673353Y-83883963D01*
X48654719Y-83858838D01*
X48638638Y-83832008D01*
X48625263Y-83803730D01*
X48614725Y-83774278D01*
X48607125Y-83743935D01*
X48602535Y-83712993D01*
X48601000Y-83681750D01*
X48601000Y-83044250D01*
X48602535Y-83013007D01*
X48607125Y-82982065D01*
X48614725Y-82951722D01*
X48625263Y-82922270D01*
X48638638Y-82893992D01*
X48654719Y-82867162D01*
X48673353Y-82842037D01*
X48694360Y-82818860D01*
X48717537Y-82797853D01*
X48742662Y-82779219D01*
X48769492Y-82763138D01*
X48797770Y-82749763D01*
X48827222Y-82739225D01*
X48857565Y-82731625D01*
X48888507Y-82727035D01*
X48919750Y-82725500D01*
X49632250Y-82725500D01*
X49663493Y-82727035D01*
X49663493Y-82727035D01*
G37*
D11*
X49276000Y-83363000D03*
D10*
G36*
X49663493Y-81152035D02*
X49694435Y-81156625D01*
X49724778Y-81164225D01*
X49754230Y-81174763D01*
X49782508Y-81188138D01*
X49809338Y-81204219D01*
X49834463Y-81222853D01*
X49857640Y-81243860D01*
X49878647Y-81267037D01*
X49897281Y-81292162D01*
X49913362Y-81318992D01*
X49926737Y-81347270D01*
X49937275Y-81376722D01*
X49944875Y-81407065D01*
X49949465Y-81438007D01*
X49951000Y-81469250D01*
X49951000Y-82106750D01*
X49949465Y-82137993D01*
X49944875Y-82168935D01*
X49937275Y-82199278D01*
X49926737Y-82228730D01*
X49913362Y-82257008D01*
X49897281Y-82283838D01*
X49878647Y-82308963D01*
X49857640Y-82332140D01*
X49834463Y-82353147D01*
X49809338Y-82371781D01*
X49782508Y-82387862D01*
X49754230Y-82401237D01*
X49724778Y-82411775D01*
X49694435Y-82419375D01*
X49663493Y-82423965D01*
X49632250Y-82425500D01*
X48919750Y-82425500D01*
X48888507Y-82423965D01*
X48857565Y-82419375D01*
X48827222Y-82411775D01*
X48797770Y-82401237D01*
X48769492Y-82387862D01*
X48742662Y-82371781D01*
X48717537Y-82353147D01*
X48694360Y-82332140D01*
X48673353Y-82308963D01*
X48654719Y-82283838D01*
X48638638Y-82257008D01*
X48625263Y-82228730D01*
X48614725Y-82199278D01*
X48607125Y-82168935D01*
X48602535Y-82137993D01*
X48601000Y-82106750D01*
X48601000Y-81469250D01*
X48602535Y-81438007D01*
X48607125Y-81407065D01*
X48614725Y-81376722D01*
X48625263Y-81347270D01*
X48638638Y-81318992D01*
X48654719Y-81292162D01*
X48673353Y-81267037D01*
X48694360Y-81243860D01*
X48717537Y-81222853D01*
X48742662Y-81204219D01*
X48769492Y-81188138D01*
X48797770Y-81174763D01*
X48827222Y-81164225D01*
X48857565Y-81156625D01*
X48888507Y-81152035D01*
X48919750Y-81150500D01*
X49632250Y-81150500D01*
X49663493Y-81152035D01*
X49663493Y-81152035D01*
G37*
D11*
X49276000Y-81788000D03*
G04 #@! TD*
D10*
G04 #@! TO.C,R3*
G36*
X66860692Y-72828561D02*
X66892151Y-72833227D01*
X66923000Y-72840954D01*
X66952944Y-72851669D01*
X66981694Y-72865266D01*
X67008972Y-72881616D01*
X67034517Y-72900561D01*
X67058081Y-72921919D01*
X67079439Y-72945483D01*
X67098384Y-72971028D01*
X67114734Y-72998306D01*
X67128331Y-73027056D01*
X67139046Y-73057000D01*
X67146773Y-73087849D01*
X67151439Y-73119308D01*
X67153000Y-73151073D01*
X67153000Y-74252927D01*
X67151439Y-74284692D01*
X67146773Y-74316151D01*
X67139046Y-74347000D01*
X67128331Y-74376944D01*
X67114734Y-74405694D01*
X67098384Y-74432972D01*
X67079439Y-74458517D01*
X67058081Y-74482081D01*
X67034517Y-74503439D01*
X67008972Y-74522384D01*
X66981694Y-74538734D01*
X66952944Y-74552331D01*
X66923000Y-74563046D01*
X66892151Y-74570773D01*
X66860692Y-74575439D01*
X66828927Y-74577000D01*
X63727073Y-74577000D01*
X63695308Y-74575439D01*
X63663849Y-74570773D01*
X63633000Y-74563046D01*
X63603056Y-74552331D01*
X63574306Y-74538734D01*
X63547028Y-74522384D01*
X63521483Y-74503439D01*
X63497919Y-74482081D01*
X63476561Y-74458517D01*
X63457616Y-74432972D01*
X63441266Y-74405694D01*
X63427669Y-74376944D01*
X63416954Y-74347000D01*
X63409227Y-74316151D01*
X63404561Y-74284692D01*
X63403000Y-74252927D01*
X63403000Y-73151073D01*
X63404561Y-73119308D01*
X63409227Y-73087849D01*
X63416954Y-73057000D01*
X63427669Y-73027056D01*
X63441266Y-72998306D01*
X63457616Y-72971028D01*
X63476561Y-72945483D01*
X63497919Y-72921919D01*
X63521483Y-72900561D01*
X63547028Y-72881616D01*
X63574306Y-72865266D01*
X63603056Y-72851669D01*
X63633000Y-72840954D01*
X63663849Y-72833227D01*
X63695308Y-72828561D01*
X63727073Y-72827000D01*
X66828927Y-72827000D01*
X66860692Y-72828561D01*
X66860692Y-72828561D01*
G37*
D26*
X65278000Y-73702000D03*
D10*
G36*
X66860692Y-78628561D02*
X66892151Y-78633227D01*
X66923000Y-78640954D01*
X66952944Y-78651669D01*
X66981694Y-78665266D01*
X67008972Y-78681616D01*
X67034517Y-78700561D01*
X67058081Y-78721919D01*
X67079439Y-78745483D01*
X67098384Y-78771028D01*
X67114734Y-78798306D01*
X67128331Y-78827056D01*
X67139046Y-78857000D01*
X67146773Y-78887849D01*
X67151439Y-78919308D01*
X67153000Y-78951073D01*
X67153000Y-80052927D01*
X67151439Y-80084692D01*
X67146773Y-80116151D01*
X67139046Y-80147000D01*
X67128331Y-80176944D01*
X67114734Y-80205694D01*
X67098384Y-80232972D01*
X67079439Y-80258517D01*
X67058081Y-80282081D01*
X67034517Y-80303439D01*
X67008972Y-80322384D01*
X66981694Y-80338734D01*
X66952944Y-80352331D01*
X66923000Y-80363046D01*
X66892151Y-80370773D01*
X66860692Y-80375439D01*
X66828927Y-80377000D01*
X63727073Y-80377000D01*
X63695308Y-80375439D01*
X63663849Y-80370773D01*
X63633000Y-80363046D01*
X63603056Y-80352331D01*
X63574306Y-80338734D01*
X63547028Y-80322384D01*
X63521483Y-80303439D01*
X63497919Y-80282081D01*
X63476561Y-80258517D01*
X63457616Y-80232972D01*
X63441266Y-80205694D01*
X63427669Y-80176944D01*
X63416954Y-80147000D01*
X63409227Y-80116151D01*
X63404561Y-80084692D01*
X63403000Y-80052927D01*
X63403000Y-78951073D01*
X63404561Y-78919308D01*
X63409227Y-78887849D01*
X63416954Y-78857000D01*
X63427669Y-78827056D01*
X63441266Y-78798306D01*
X63457616Y-78771028D01*
X63476561Y-78745483D01*
X63497919Y-78721919D01*
X63521483Y-78700561D01*
X63547028Y-78681616D01*
X63574306Y-78665266D01*
X63603056Y-78651669D01*
X63633000Y-78640954D01*
X63663849Y-78633227D01*
X63695308Y-78628561D01*
X63727073Y-78627000D01*
X66828927Y-78627000D01*
X66860692Y-78628561D01*
X66860692Y-78628561D01*
G37*
D26*
X65278000Y-79502000D03*
G04 #@! TD*
D10*
G04 #@! TO.C,R4*
G36*
X62796692Y-102504561D02*
X62828151Y-102509227D01*
X62859000Y-102516954D01*
X62888944Y-102527669D01*
X62917694Y-102541266D01*
X62944972Y-102557616D01*
X62970517Y-102576561D01*
X62994081Y-102597919D01*
X63015439Y-102621483D01*
X63034384Y-102647028D01*
X63050734Y-102674306D01*
X63064331Y-102703056D01*
X63075046Y-102733000D01*
X63082773Y-102763849D01*
X63087439Y-102795308D01*
X63089000Y-102827073D01*
X63089000Y-103928927D01*
X63087439Y-103960692D01*
X63082773Y-103992151D01*
X63075046Y-104023000D01*
X63064331Y-104052944D01*
X63050734Y-104081694D01*
X63034384Y-104108972D01*
X63015439Y-104134517D01*
X62994081Y-104158081D01*
X62970517Y-104179439D01*
X62944972Y-104198384D01*
X62917694Y-104214734D01*
X62888944Y-104228331D01*
X62859000Y-104239046D01*
X62828151Y-104246773D01*
X62796692Y-104251439D01*
X62764927Y-104253000D01*
X59663073Y-104253000D01*
X59631308Y-104251439D01*
X59599849Y-104246773D01*
X59569000Y-104239046D01*
X59539056Y-104228331D01*
X59510306Y-104214734D01*
X59483028Y-104198384D01*
X59457483Y-104179439D01*
X59433919Y-104158081D01*
X59412561Y-104134517D01*
X59393616Y-104108972D01*
X59377266Y-104081694D01*
X59363669Y-104052944D01*
X59352954Y-104023000D01*
X59345227Y-103992151D01*
X59340561Y-103960692D01*
X59339000Y-103928927D01*
X59339000Y-102827073D01*
X59340561Y-102795308D01*
X59345227Y-102763849D01*
X59352954Y-102733000D01*
X59363669Y-102703056D01*
X59377266Y-102674306D01*
X59393616Y-102647028D01*
X59412561Y-102621483D01*
X59433919Y-102597919D01*
X59457483Y-102576561D01*
X59483028Y-102557616D01*
X59510306Y-102541266D01*
X59539056Y-102527669D01*
X59569000Y-102516954D01*
X59599849Y-102509227D01*
X59631308Y-102504561D01*
X59663073Y-102503000D01*
X62764927Y-102503000D01*
X62796692Y-102504561D01*
X62796692Y-102504561D01*
G37*
D26*
X61214000Y-103378000D03*
D10*
G36*
X62796692Y-108304561D02*
X62828151Y-108309227D01*
X62859000Y-108316954D01*
X62888944Y-108327669D01*
X62917694Y-108341266D01*
X62944972Y-108357616D01*
X62970517Y-108376561D01*
X62994081Y-108397919D01*
X63015439Y-108421483D01*
X63034384Y-108447028D01*
X63050734Y-108474306D01*
X63064331Y-108503056D01*
X63075046Y-108533000D01*
X63082773Y-108563849D01*
X63087439Y-108595308D01*
X63089000Y-108627073D01*
X63089000Y-109728927D01*
X63087439Y-109760692D01*
X63082773Y-109792151D01*
X63075046Y-109823000D01*
X63064331Y-109852944D01*
X63050734Y-109881694D01*
X63034384Y-109908972D01*
X63015439Y-109934517D01*
X62994081Y-109958081D01*
X62970517Y-109979439D01*
X62944972Y-109998384D01*
X62917694Y-110014734D01*
X62888944Y-110028331D01*
X62859000Y-110039046D01*
X62828151Y-110046773D01*
X62796692Y-110051439D01*
X62764927Y-110053000D01*
X59663073Y-110053000D01*
X59631308Y-110051439D01*
X59599849Y-110046773D01*
X59569000Y-110039046D01*
X59539056Y-110028331D01*
X59510306Y-110014734D01*
X59483028Y-109998384D01*
X59457483Y-109979439D01*
X59433919Y-109958081D01*
X59412561Y-109934517D01*
X59393616Y-109908972D01*
X59377266Y-109881694D01*
X59363669Y-109852944D01*
X59352954Y-109823000D01*
X59345227Y-109792151D01*
X59340561Y-109760692D01*
X59339000Y-109728927D01*
X59339000Y-108627073D01*
X59340561Y-108595308D01*
X59345227Y-108563849D01*
X59352954Y-108533000D01*
X59363669Y-108503056D01*
X59377266Y-108474306D01*
X59393616Y-108447028D01*
X59412561Y-108421483D01*
X59433919Y-108397919D01*
X59457483Y-108376561D01*
X59483028Y-108357616D01*
X59510306Y-108341266D01*
X59539056Y-108327669D01*
X59569000Y-108316954D01*
X59599849Y-108309227D01*
X59631308Y-108304561D01*
X59663073Y-108303000D01*
X62764927Y-108303000D01*
X62796692Y-108304561D01*
X62796692Y-108304561D01*
G37*
D26*
X61214000Y-109178000D03*
G04 #@! TD*
D10*
G04 #@! TO.C,R5*
G36*
X62796692Y-72828561D02*
X62828151Y-72833227D01*
X62859000Y-72840954D01*
X62888944Y-72851669D01*
X62917694Y-72865266D01*
X62944972Y-72881616D01*
X62970517Y-72900561D01*
X62994081Y-72921919D01*
X63015439Y-72945483D01*
X63034384Y-72971028D01*
X63050734Y-72998306D01*
X63064331Y-73027056D01*
X63075046Y-73057000D01*
X63082773Y-73087849D01*
X63087439Y-73119308D01*
X63089000Y-73151073D01*
X63089000Y-74252927D01*
X63087439Y-74284692D01*
X63082773Y-74316151D01*
X63075046Y-74347000D01*
X63064331Y-74376944D01*
X63050734Y-74405694D01*
X63034384Y-74432972D01*
X63015439Y-74458517D01*
X62994081Y-74482081D01*
X62970517Y-74503439D01*
X62944972Y-74522384D01*
X62917694Y-74538734D01*
X62888944Y-74552331D01*
X62859000Y-74563046D01*
X62828151Y-74570773D01*
X62796692Y-74575439D01*
X62764927Y-74577000D01*
X59663073Y-74577000D01*
X59631308Y-74575439D01*
X59599849Y-74570773D01*
X59569000Y-74563046D01*
X59539056Y-74552331D01*
X59510306Y-74538734D01*
X59483028Y-74522384D01*
X59457483Y-74503439D01*
X59433919Y-74482081D01*
X59412561Y-74458517D01*
X59393616Y-74432972D01*
X59377266Y-74405694D01*
X59363669Y-74376944D01*
X59352954Y-74347000D01*
X59345227Y-74316151D01*
X59340561Y-74284692D01*
X59339000Y-74252927D01*
X59339000Y-73151073D01*
X59340561Y-73119308D01*
X59345227Y-73087849D01*
X59352954Y-73057000D01*
X59363669Y-73027056D01*
X59377266Y-72998306D01*
X59393616Y-72971028D01*
X59412561Y-72945483D01*
X59433919Y-72921919D01*
X59457483Y-72900561D01*
X59483028Y-72881616D01*
X59510306Y-72865266D01*
X59539056Y-72851669D01*
X59569000Y-72840954D01*
X59599849Y-72833227D01*
X59631308Y-72828561D01*
X59663073Y-72827000D01*
X62764927Y-72827000D01*
X62796692Y-72828561D01*
X62796692Y-72828561D01*
G37*
D26*
X61214000Y-73702000D03*
D10*
G36*
X62796692Y-78628561D02*
X62828151Y-78633227D01*
X62859000Y-78640954D01*
X62888944Y-78651669D01*
X62917694Y-78665266D01*
X62944972Y-78681616D01*
X62970517Y-78700561D01*
X62994081Y-78721919D01*
X63015439Y-78745483D01*
X63034384Y-78771028D01*
X63050734Y-78798306D01*
X63064331Y-78827056D01*
X63075046Y-78857000D01*
X63082773Y-78887849D01*
X63087439Y-78919308D01*
X63089000Y-78951073D01*
X63089000Y-80052927D01*
X63087439Y-80084692D01*
X63082773Y-80116151D01*
X63075046Y-80147000D01*
X63064331Y-80176944D01*
X63050734Y-80205694D01*
X63034384Y-80232972D01*
X63015439Y-80258517D01*
X62994081Y-80282081D01*
X62970517Y-80303439D01*
X62944972Y-80322384D01*
X62917694Y-80338734D01*
X62888944Y-80352331D01*
X62859000Y-80363046D01*
X62828151Y-80370773D01*
X62796692Y-80375439D01*
X62764927Y-80377000D01*
X59663073Y-80377000D01*
X59631308Y-80375439D01*
X59599849Y-80370773D01*
X59569000Y-80363046D01*
X59539056Y-80352331D01*
X59510306Y-80338734D01*
X59483028Y-80322384D01*
X59457483Y-80303439D01*
X59433919Y-80282081D01*
X59412561Y-80258517D01*
X59393616Y-80232972D01*
X59377266Y-80205694D01*
X59363669Y-80176944D01*
X59352954Y-80147000D01*
X59345227Y-80116151D01*
X59340561Y-80084692D01*
X59339000Y-80052927D01*
X59339000Y-78951073D01*
X59340561Y-78919308D01*
X59345227Y-78887849D01*
X59352954Y-78857000D01*
X59363669Y-78827056D01*
X59377266Y-78798306D01*
X59393616Y-78771028D01*
X59412561Y-78745483D01*
X59433919Y-78721919D01*
X59457483Y-78700561D01*
X59483028Y-78681616D01*
X59510306Y-78665266D01*
X59539056Y-78651669D01*
X59569000Y-78640954D01*
X59599849Y-78633227D01*
X59631308Y-78628561D01*
X59663073Y-78627000D01*
X62764927Y-78627000D01*
X62796692Y-78628561D01*
X62796692Y-78628561D01*
G37*
D26*
X61214000Y-79502000D03*
G04 #@! TD*
D10*
G04 #@! TO.C,R6*
G36*
X66860692Y-102504561D02*
X66892151Y-102509227D01*
X66923000Y-102516954D01*
X66952944Y-102527669D01*
X66981694Y-102541266D01*
X67008972Y-102557616D01*
X67034517Y-102576561D01*
X67058081Y-102597919D01*
X67079439Y-102621483D01*
X67098384Y-102647028D01*
X67114734Y-102674306D01*
X67128331Y-102703056D01*
X67139046Y-102733000D01*
X67146773Y-102763849D01*
X67151439Y-102795308D01*
X67153000Y-102827073D01*
X67153000Y-103928927D01*
X67151439Y-103960692D01*
X67146773Y-103992151D01*
X67139046Y-104023000D01*
X67128331Y-104052944D01*
X67114734Y-104081694D01*
X67098384Y-104108972D01*
X67079439Y-104134517D01*
X67058081Y-104158081D01*
X67034517Y-104179439D01*
X67008972Y-104198384D01*
X66981694Y-104214734D01*
X66952944Y-104228331D01*
X66923000Y-104239046D01*
X66892151Y-104246773D01*
X66860692Y-104251439D01*
X66828927Y-104253000D01*
X63727073Y-104253000D01*
X63695308Y-104251439D01*
X63663849Y-104246773D01*
X63633000Y-104239046D01*
X63603056Y-104228331D01*
X63574306Y-104214734D01*
X63547028Y-104198384D01*
X63521483Y-104179439D01*
X63497919Y-104158081D01*
X63476561Y-104134517D01*
X63457616Y-104108972D01*
X63441266Y-104081694D01*
X63427669Y-104052944D01*
X63416954Y-104023000D01*
X63409227Y-103992151D01*
X63404561Y-103960692D01*
X63403000Y-103928927D01*
X63403000Y-102827073D01*
X63404561Y-102795308D01*
X63409227Y-102763849D01*
X63416954Y-102733000D01*
X63427669Y-102703056D01*
X63441266Y-102674306D01*
X63457616Y-102647028D01*
X63476561Y-102621483D01*
X63497919Y-102597919D01*
X63521483Y-102576561D01*
X63547028Y-102557616D01*
X63574306Y-102541266D01*
X63603056Y-102527669D01*
X63633000Y-102516954D01*
X63663849Y-102509227D01*
X63695308Y-102504561D01*
X63727073Y-102503000D01*
X66828927Y-102503000D01*
X66860692Y-102504561D01*
X66860692Y-102504561D01*
G37*
D26*
X65278000Y-103378000D03*
D10*
G36*
X66860692Y-108304561D02*
X66892151Y-108309227D01*
X66923000Y-108316954D01*
X66952944Y-108327669D01*
X66981694Y-108341266D01*
X67008972Y-108357616D01*
X67034517Y-108376561D01*
X67058081Y-108397919D01*
X67079439Y-108421483D01*
X67098384Y-108447028D01*
X67114734Y-108474306D01*
X67128331Y-108503056D01*
X67139046Y-108533000D01*
X67146773Y-108563849D01*
X67151439Y-108595308D01*
X67153000Y-108627073D01*
X67153000Y-109728927D01*
X67151439Y-109760692D01*
X67146773Y-109792151D01*
X67139046Y-109823000D01*
X67128331Y-109852944D01*
X67114734Y-109881694D01*
X67098384Y-109908972D01*
X67079439Y-109934517D01*
X67058081Y-109958081D01*
X67034517Y-109979439D01*
X67008972Y-109998384D01*
X66981694Y-110014734D01*
X66952944Y-110028331D01*
X66923000Y-110039046D01*
X66892151Y-110046773D01*
X66860692Y-110051439D01*
X66828927Y-110053000D01*
X63727073Y-110053000D01*
X63695308Y-110051439D01*
X63663849Y-110046773D01*
X63633000Y-110039046D01*
X63603056Y-110028331D01*
X63574306Y-110014734D01*
X63547028Y-109998384D01*
X63521483Y-109979439D01*
X63497919Y-109958081D01*
X63476561Y-109934517D01*
X63457616Y-109908972D01*
X63441266Y-109881694D01*
X63427669Y-109852944D01*
X63416954Y-109823000D01*
X63409227Y-109792151D01*
X63404561Y-109760692D01*
X63403000Y-109728927D01*
X63403000Y-108627073D01*
X63404561Y-108595308D01*
X63409227Y-108563849D01*
X63416954Y-108533000D01*
X63427669Y-108503056D01*
X63441266Y-108474306D01*
X63457616Y-108447028D01*
X63476561Y-108421483D01*
X63497919Y-108397919D01*
X63521483Y-108376561D01*
X63547028Y-108357616D01*
X63574306Y-108341266D01*
X63603056Y-108327669D01*
X63633000Y-108316954D01*
X63663849Y-108309227D01*
X63695308Y-108304561D01*
X63727073Y-108303000D01*
X66828927Y-108303000D01*
X66860692Y-108304561D01*
X66860692Y-108304561D01*
G37*
D26*
X65278000Y-109178000D03*
G04 #@! TD*
D10*
G04 #@! TO.C,R7*
G36*
X89808993Y-77812535D02*
X89839935Y-77817125D01*
X89870278Y-77824725D01*
X89899730Y-77835263D01*
X89928008Y-77848638D01*
X89954838Y-77864719D01*
X89979963Y-77883353D01*
X90003140Y-77904360D01*
X90024147Y-77927537D01*
X90042781Y-77952662D01*
X90058862Y-77979492D01*
X90072237Y-78007770D01*
X90082775Y-78037222D01*
X90090375Y-78067565D01*
X90094965Y-78098507D01*
X90096500Y-78129750D01*
X90096500Y-78842250D01*
X90094965Y-78873493D01*
X90090375Y-78904435D01*
X90082775Y-78934778D01*
X90072237Y-78964230D01*
X90058862Y-78992508D01*
X90042781Y-79019338D01*
X90024147Y-79044463D01*
X90003140Y-79067640D01*
X89979963Y-79088647D01*
X89954838Y-79107281D01*
X89928008Y-79123362D01*
X89899730Y-79136737D01*
X89870278Y-79147275D01*
X89839935Y-79154875D01*
X89808993Y-79159465D01*
X89777750Y-79161000D01*
X89140250Y-79161000D01*
X89109007Y-79159465D01*
X89078065Y-79154875D01*
X89047722Y-79147275D01*
X89018270Y-79136737D01*
X88989992Y-79123362D01*
X88963162Y-79107281D01*
X88938037Y-79088647D01*
X88914860Y-79067640D01*
X88893853Y-79044463D01*
X88875219Y-79019338D01*
X88859138Y-78992508D01*
X88845763Y-78964230D01*
X88835225Y-78934778D01*
X88827625Y-78904435D01*
X88823035Y-78873493D01*
X88821500Y-78842250D01*
X88821500Y-78129750D01*
X88823035Y-78098507D01*
X88827625Y-78067565D01*
X88835225Y-78037222D01*
X88845763Y-78007770D01*
X88859138Y-77979492D01*
X88875219Y-77952662D01*
X88893853Y-77927537D01*
X88914860Y-77904360D01*
X88938037Y-77883353D01*
X88963162Y-77864719D01*
X88989992Y-77848638D01*
X89018270Y-77835263D01*
X89047722Y-77824725D01*
X89078065Y-77817125D01*
X89109007Y-77812535D01*
X89140250Y-77811000D01*
X89777750Y-77811000D01*
X89808993Y-77812535D01*
X89808993Y-77812535D01*
G37*
D11*
X89459000Y-78486000D03*
D10*
G36*
X88233993Y-77812535D02*
X88264935Y-77817125D01*
X88295278Y-77824725D01*
X88324730Y-77835263D01*
X88353008Y-77848638D01*
X88379838Y-77864719D01*
X88404963Y-77883353D01*
X88428140Y-77904360D01*
X88449147Y-77927537D01*
X88467781Y-77952662D01*
X88483862Y-77979492D01*
X88497237Y-78007770D01*
X88507775Y-78037222D01*
X88515375Y-78067565D01*
X88519965Y-78098507D01*
X88521500Y-78129750D01*
X88521500Y-78842250D01*
X88519965Y-78873493D01*
X88515375Y-78904435D01*
X88507775Y-78934778D01*
X88497237Y-78964230D01*
X88483862Y-78992508D01*
X88467781Y-79019338D01*
X88449147Y-79044463D01*
X88428140Y-79067640D01*
X88404963Y-79088647D01*
X88379838Y-79107281D01*
X88353008Y-79123362D01*
X88324730Y-79136737D01*
X88295278Y-79147275D01*
X88264935Y-79154875D01*
X88233993Y-79159465D01*
X88202750Y-79161000D01*
X87565250Y-79161000D01*
X87534007Y-79159465D01*
X87503065Y-79154875D01*
X87472722Y-79147275D01*
X87443270Y-79136737D01*
X87414992Y-79123362D01*
X87388162Y-79107281D01*
X87363037Y-79088647D01*
X87339860Y-79067640D01*
X87318853Y-79044463D01*
X87300219Y-79019338D01*
X87284138Y-78992508D01*
X87270763Y-78964230D01*
X87260225Y-78934778D01*
X87252625Y-78904435D01*
X87248035Y-78873493D01*
X87246500Y-78842250D01*
X87246500Y-78129750D01*
X87248035Y-78098507D01*
X87252625Y-78067565D01*
X87260225Y-78037222D01*
X87270763Y-78007770D01*
X87284138Y-77979492D01*
X87300219Y-77952662D01*
X87318853Y-77927537D01*
X87339860Y-77904360D01*
X87363037Y-77883353D01*
X87388162Y-77864719D01*
X87414992Y-77848638D01*
X87443270Y-77835263D01*
X87472722Y-77824725D01*
X87503065Y-77817125D01*
X87534007Y-77812535D01*
X87565250Y-77811000D01*
X88202750Y-77811000D01*
X88233993Y-77812535D01*
X88233993Y-77812535D01*
G37*
D11*
X87884000Y-78486000D03*
G04 #@! TD*
D10*
G04 #@! TO.C,R8*
G36*
X88233993Y-80352535D02*
X88264935Y-80357125D01*
X88295278Y-80364725D01*
X88324730Y-80375263D01*
X88353008Y-80388638D01*
X88379838Y-80404719D01*
X88404963Y-80423353D01*
X88428140Y-80444360D01*
X88449147Y-80467537D01*
X88467781Y-80492662D01*
X88483862Y-80519492D01*
X88497237Y-80547770D01*
X88507775Y-80577222D01*
X88515375Y-80607565D01*
X88519965Y-80638507D01*
X88521500Y-80669750D01*
X88521500Y-81382250D01*
X88519965Y-81413493D01*
X88515375Y-81444435D01*
X88507775Y-81474778D01*
X88497237Y-81504230D01*
X88483862Y-81532508D01*
X88467781Y-81559338D01*
X88449147Y-81584463D01*
X88428140Y-81607640D01*
X88404963Y-81628647D01*
X88379838Y-81647281D01*
X88353008Y-81663362D01*
X88324730Y-81676737D01*
X88295278Y-81687275D01*
X88264935Y-81694875D01*
X88233993Y-81699465D01*
X88202750Y-81701000D01*
X87565250Y-81701000D01*
X87534007Y-81699465D01*
X87503065Y-81694875D01*
X87472722Y-81687275D01*
X87443270Y-81676737D01*
X87414992Y-81663362D01*
X87388162Y-81647281D01*
X87363037Y-81628647D01*
X87339860Y-81607640D01*
X87318853Y-81584463D01*
X87300219Y-81559338D01*
X87284138Y-81532508D01*
X87270763Y-81504230D01*
X87260225Y-81474778D01*
X87252625Y-81444435D01*
X87248035Y-81413493D01*
X87246500Y-81382250D01*
X87246500Y-80669750D01*
X87248035Y-80638507D01*
X87252625Y-80607565D01*
X87260225Y-80577222D01*
X87270763Y-80547770D01*
X87284138Y-80519492D01*
X87300219Y-80492662D01*
X87318853Y-80467537D01*
X87339860Y-80444360D01*
X87363037Y-80423353D01*
X87388162Y-80404719D01*
X87414992Y-80388638D01*
X87443270Y-80375263D01*
X87472722Y-80364725D01*
X87503065Y-80357125D01*
X87534007Y-80352535D01*
X87565250Y-80351000D01*
X88202750Y-80351000D01*
X88233993Y-80352535D01*
X88233993Y-80352535D01*
G37*
D11*
X87884000Y-81026000D03*
D10*
G36*
X89808993Y-80352535D02*
X89839935Y-80357125D01*
X89870278Y-80364725D01*
X89899730Y-80375263D01*
X89928008Y-80388638D01*
X89954838Y-80404719D01*
X89979963Y-80423353D01*
X90003140Y-80444360D01*
X90024147Y-80467537D01*
X90042781Y-80492662D01*
X90058862Y-80519492D01*
X90072237Y-80547770D01*
X90082775Y-80577222D01*
X90090375Y-80607565D01*
X90094965Y-80638507D01*
X90096500Y-80669750D01*
X90096500Y-81382250D01*
X90094965Y-81413493D01*
X90090375Y-81444435D01*
X90082775Y-81474778D01*
X90072237Y-81504230D01*
X90058862Y-81532508D01*
X90042781Y-81559338D01*
X90024147Y-81584463D01*
X90003140Y-81607640D01*
X89979963Y-81628647D01*
X89954838Y-81647281D01*
X89928008Y-81663362D01*
X89899730Y-81676737D01*
X89870278Y-81687275D01*
X89839935Y-81694875D01*
X89808993Y-81699465D01*
X89777750Y-81701000D01*
X89140250Y-81701000D01*
X89109007Y-81699465D01*
X89078065Y-81694875D01*
X89047722Y-81687275D01*
X89018270Y-81676737D01*
X88989992Y-81663362D01*
X88963162Y-81647281D01*
X88938037Y-81628647D01*
X88914860Y-81607640D01*
X88893853Y-81584463D01*
X88875219Y-81559338D01*
X88859138Y-81532508D01*
X88845763Y-81504230D01*
X88835225Y-81474778D01*
X88827625Y-81444435D01*
X88823035Y-81413493D01*
X88821500Y-81382250D01*
X88821500Y-80669750D01*
X88823035Y-80638507D01*
X88827625Y-80607565D01*
X88835225Y-80577222D01*
X88845763Y-80547770D01*
X88859138Y-80519492D01*
X88875219Y-80492662D01*
X88893853Y-80467537D01*
X88914860Y-80444360D01*
X88938037Y-80423353D01*
X88963162Y-80404719D01*
X88989992Y-80388638D01*
X89018270Y-80375263D01*
X89047722Y-80364725D01*
X89078065Y-80357125D01*
X89109007Y-80352535D01*
X89140250Y-80351000D01*
X89777750Y-80351000D01*
X89808993Y-80352535D01*
X89808993Y-80352535D01*
G37*
D11*
X89459000Y-81026000D03*
G04 #@! TD*
D10*
G04 #@! TO.C,R9*
G36*
X104032993Y-82638535D02*
X104063935Y-82643125D01*
X104094278Y-82650725D01*
X104123730Y-82661263D01*
X104152008Y-82674638D01*
X104178838Y-82690719D01*
X104203963Y-82709353D01*
X104227140Y-82730360D01*
X104248147Y-82753537D01*
X104266781Y-82778662D01*
X104282862Y-82805492D01*
X104296237Y-82833770D01*
X104306775Y-82863222D01*
X104314375Y-82893565D01*
X104318965Y-82924507D01*
X104320500Y-82955750D01*
X104320500Y-83668250D01*
X104318965Y-83699493D01*
X104314375Y-83730435D01*
X104306775Y-83760778D01*
X104296237Y-83790230D01*
X104282862Y-83818508D01*
X104266781Y-83845338D01*
X104248147Y-83870463D01*
X104227140Y-83893640D01*
X104203963Y-83914647D01*
X104178838Y-83933281D01*
X104152008Y-83949362D01*
X104123730Y-83962737D01*
X104094278Y-83973275D01*
X104063935Y-83980875D01*
X104032993Y-83985465D01*
X104001750Y-83987000D01*
X103364250Y-83987000D01*
X103333007Y-83985465D01*
X103302065Y-83980875D01*
X103271722Y-83973275D01*
X103242270Y-83962737D01*
X103213992Y-83949362D01*
X103187162Y-83933281D01*
X103162037Y-83914647D01*
X103138860Y-83893640D01*
X103117853Y-83870463D01*
X103099219Y-83845338D01*
X103083138Y-83818508D01*
X103069763Y-83790230D01*
X103059225Y-83760778D01*
X103051625Y-83730435D01*
X103047035Y-83699493D01*
X103045500Y-83668250D01*
X103045500Y-82955750D01*
X103047035Y-82924507D01*
X103051625Y-82893565D01*
X103059225Y-82863222D01*
X103069763Y-82833770D01*
X103083138Y-82805492D01*
X103099219Y-82778662D01*
X103117853Y-82753537D01*
X103138860Y-82730360D01*
X103162037Y-82709353D01*
X103187162Y-82690719D01*
X103213992Y-82674638D01*
X103242270Y-82661263D01*
X103271722Y-82650725D01*
X103302065Y-82643125D01*
X103333007Y-82638535D01*
X103364250Y-82637000D01*
X104001750Y-82637000D01*
X104032993Y-82638535D01*
X104032993Y-82638535D01*
G37*
D11*
X103683000Y-83312000D03*
D10*
G36*
X102457993Y-82638535D02*
X102488935Y-82643125D01*
X102519278Y-82650725D01*
X102548730Y-82661263D01*
X102577008Y-82674638D01*
X102603838Y-82690719D01*
X102628963Y-82709353D01*
X102652140Y-82730360D01*
X102673147Y-82753537D01*
X102691781Y-82778662D01*
X102707862Y-82805492D01*
X102721237Y-82833770D01*
X102731775Y-82863222D01*
X102739375Y-82893565D01*
X102743965Y-82924507D01*
X102745500Y-82955750D01*
X102745500Y-83668250D01*
X102743965Y-83699493D01*
X102739375Y-83730435D01*
X102731775Y-83760778D01*
X102721237Y-83790230D01*
X102707862Y-83818508D01*
X102691781Y-83845338D01*
X102673147Y-83870463D01*
X102652140Y-83893640D01*
X102628963Y-83914647D01*
X102603838Y-83933281D01*
X102577008Y-83949362D01*
X102548730Y-83962737D01*
X102519278Y-83973275D01*
X102488935Y-83980875D01*
X102457993Y-83985465D01*
X102426750Y-83987000D01*
X101789250Y-83987000D01*
X101758007Y-83985465D01*
X101727065Y-83980875D01*
X101696722Y-83973275D01*
X101667270Y-83962737D01*
X101638992Y-83949362D01*
X101612162Y-83933281D01*
X101587037Y-83914647D01*
X101563860Y-83893640D01*
X101542853Y-83870463D01*
X101524219Y-83845338D01*
X101508138Y-83818508D01*
X101494763Y-83790230D01*
X101484225Y-83760778D01*
X101476625Y-83730435D01*
X101472035Y-83699493D01*
X101470500Y-83668250D01*
X101470500Y-82955750D01*
X101472035Y-82924507D01*
X101476625Y-82893565D01*
X101484225Y-82863222D01*
X101494763Y-82833770D01*
X101508138Y-82805492D01*
X101524219Y-82778662D01*
X101542853Y-82753537D01*
X101563860Y-82730360D01*
X101587037Y-82709353D01*
X101612162Y-82690719D01*
X101638992Y-82674638D01*
X101667270Y-82661263D01*
X101696722Y-82650725D01*
X101727065Y-82643125D01*
X101758007Y-82638535D01*
X101789250Y-82637000D01*
X102426750Y-82637000D01*
X102457993Y-82638535D01*
X102457993Y-82638535D01*
G37*
D11*
X102108000Y-83312000D03*
G04 #@! TD*
D10*
G04 #@! TO.C,R11*
G36*
X102457993Y-90766535D02*
X102488935Y-90771125D01*
X102519278Y-90778725D01*
X102548730Y-90789263D01*
X102577008Y-90802638D01*
X102603838Y-90818719D01*
X102628963Y-90837353D01*
X102652140Y-90858360D01*
X102673147Y-90881537D01*
X102691781Y-90906662D01*
X102707862Y-90933492D01*
X102721237Y-90961770D01*
X102731775Y-90991222D01*
X102739375Y-91021565D01*
X102743965Y-91052507D01*
X102745500Y-91083750D01*
X102745500Y-91796250D01*
X102743965Y-91827493D01*
X102739375Y-91858435D01*
X102731775Y-91888778D01*
X102721237Y-91918230D01*
X102707862Y-91946508D01*
X102691781Y-91973338D01*
X102673147Y-91998463D01*
X102652140Y-92021640D01*
X102628963Y-92042647D01*
X102603838Y-92061281D01*
X102577008Y-92077362D01*
X102548730Y-92090737D01*
X102519278Y-92101275D01*
X102488935Y-92108875D01*
X102457993Y-92113465D01*
X102426750Y-92115000D01*
X101789250Y-92115000D01*
X101758007Y-92113465D01*
X101727065Y-92108875D01*
X101696722Y-92101275D01*
X101667270Y-92090737D01*
X101638992Y-92077362D01*
X101612162Y-92061281D01*
X101587037Y-92042647D01*
X101563860Y-92021640D01*
X101542853Y-91998463D01*
X101524219Y-91973338D01*
X101508138Y-91946508D01*
X101494763Y-91918230D01*
X101484225Y-91888778D01*
X101476625Y-91858435D01*
X101472035Y-91827493D01*
X101470500Y-91796250D01*
X101470500Y-91083750D01*
X101472035Y-91052507D01*
X101476625Y-91021565D01*
X101484225Y-90991222D01*
X101494763Y-90961770D01*
X101508138Y-90933492D01*
X101524219Y-90906662D01*
X101542853Y-90881537D01*
X101563860Y-90858360D01*
X101587037Y-90837353D01*
X101612162Y-90818719D01*
X101638992Y-90802638D01*
X101667270Y-90789263D01*
X101696722Y-90778725D01*
X101727065Y-90771125D01*
X101758007Y-90766535D01*
X101789250Y-90765000D01*
X102426750Y-90765000D01*
X102457993Y-90766535D01*
X102457993Y-90766535D01*
G37*
D11*
X102108000Y-91440000D03*
D10*
G36*
X104032993Y-90766535D02*
X104063935Y-90771125D01*
X104094278Y-90778725D01*
X104123730Y-90789263D01*
X104152008Y-90802638D01*
X104178838Y-90818719D01*
X104203963Y-90837353D01*
X104227140Y-90858360D01*
X104248147Y-90881537D01*
X104266781Y-90906662D01*
X104282862Y-90933492D01*
X104296237Y-90961770D01*
X104306775Y-90991222D01*
X104314375Y-91021565D01*
X104318965Y-91052507D01*
X104320500Y-91083750D01*
X104320500Y-91796250D01*
X104318965Y-91827493D01*
X104314375Y-91858435D01*
X104306775Y-91888778D01*
X104296237Y-91918230D01*
X104282862Y-91946508D01*
X104266781Y-91973338D01*
X104248147Y-91998463D01*
X104227140Y-92021640D01*
X104203963Y-92042647D01*
X104178838Y-92061281D01*
X104152008Y-92077362D01*
X104123730Y-92090737D01*
X104094278Y-92101275D01*
X104063935Y-92108875D01*
X104032993Y-92113465D01*
X104001750Y-92115000D01*
X103364250Y-92115000D01*
X103333007Y-92113465D01*
X103302065Y-92108875D01*
X103271722Y-92101275D01*
X103242270Y-92090737D01*
X103213992Y-92077362D01*
X103187162Y-92061281D01*
X103162037Y-92042647D01*
X103138860Y-92021640D01*
X103117853Y-91998463D01*
X103099219Y-91973338D01*
X103083138Y-91946508D01*
X103069763Y-91918230D01*
X103059225Y-91888778D01*
X103051625Y-91858435D01*
X103047035Y-91827493D01*
X103045500Y-91796250D01*
X103045500Y-91083750D01*
X103047035Y-91052507D01*
X103051625Y-91021565D01*
X103059225Y-90991222D01*
X103069763Y-90961770D01*
X103083138Y-90933492D01*
X103099219Y-90906662D01*
X103117853Y-90881537D01*
X103138860Y-90858360D01*
X103162037Y-90837353D01*
X103187162Y-90818719D01*
X103213992Y-90802638D01*
X103242270Y-90789263D01*
X103271722Y-90778725D01*
X103302065Y-90771125D01*
X103333007Y-90766535D01*
X103364250Y-90765000D01*
X104001750Y-90765000D01*
X104032993Y-90766535D01*
X104032993Y-90766535D01*
G37*
D11*
X103683000Y-91440000D03*
G04 #@! TD*
D10*
G04 #@! TO.C,R12*
G36*
X112401493Y-76580035D02*
X112432435Y-76584625D01*
X112462778Y-76592225D01*
X112492230Y-76602763D01*
X112520508Y-76616138D01*
X112547338Y-76632219D01*
X112572463Y-76650853D01*
X112595640Y-76671860D01*
X112616647Y-76695037D01*
X112635281Y-76720162D01*
X112651362Y-76746992D01*
X112664737Y-76775270D01*
X112675275Y-76804722D01*
X112682875Y-76835065D01*
X112687465Y-76866007D01*
X112689000Y-76897250D01*
X112689000Y-77534750D01*
X112687465Y-77565993D01*
X112682875Y-77596935D01*
X112675275Y-77627278D01*
X112664737Y-77656730D01*
X112651362Y-77685008D01*
X112635281Y-77711838D01*
X112616647Y-77736963D01*
X112595640Y-77760140D01*
X112572463Y-77781147D01*
X112547338Y-77799781D01*
X112520508Y-77815862D01*
X112492230Y-77829237D01*
X112462778Y-77839775D01*
X112432435Y-77847375D01*
X112401493Y-77851965D01*
X112370250Y-77853500D01*
X111657750Y-77853500D01*
X111626507Y-77851965D01*
X111595565Y-77847375D01*
X111565222Y-77839775D01*
X111535770Y-77829237D01*
X111507492Y-77815862D01*
X111480662Y-77799781D01*
X111455537Y-77781147D01*
X111432360Y-77760140D01*
X111411353Y-77736963D01*
X111392719Y-77711838D01*
X111376638Y-77685008D01*
X111363263Y-77656730D01*
X111352725Y-77627278D01*
X111345125Y-77596935D01*
X111340535Y-77565993D01*
X111339000Y-77534750D01*
X111339000Y-76897250D01*
X111340535Y-76866007D01*
X111345125Y-76835065D01*
X111352725Y-76804722D01*
X111363263Y-76775270D01*
X111376638Y-76746992D01*
X111392719Y-76720162D01*
X111411353Y-76695037D01*
X111432360Y-76671860D01*
X111455537Y-76650853D01*
X111480662Y-76632219D01*
X111507492Y-76616138D01*
X111535770Y-76602763D01*
X111565222Y-76592225D01*
X111595565Y-76584625D01*
X111626507Y-76580035D01*
X111657750Y-76578500D01*
X112370250Y-76578500D01*
X112401493Y-76580035D01*
X112401493Y-76580035D01*
G37*
D11*
X112014000Y-77216000D03*
D10*
G36*
X112401493Y-75005035D02*
X112432435Y-75009625D01*
X112462778Y-75017225D01*
X112492230Y-75027763D01*
X112520508Y-75041138D01*
X112547338Y-75057219D01*
X112572463Y-75075853D01*
X112595640Y-75096860D01*
X112616647Y-75120037D01*
X112635281Y-75145162D01*
X112651362Y-75171992D01*
X112664737Y-75200270D01*
X112675275Y-75229722D01*
X112682875Y-75260065D01*
X112687465Y-75291007D01*
X112689000Y-75322250D01*
X112689000Y-75959750D01*
X112687465Y-75990993D01*
X112682875Y-76021935D01*
X112675275Y-76052278D01*
X112664737Y-76081730D01*
X112651362Y-76110008D01*
X112635281Y-76136838D01*
X112616647Y-76161963D01*
X112595640Y-76185140D01*
X112572463Y-76206147D01*
X112547338Y-76224781D01*
X112520508Y-76240862D01*
X112492230Y-76254237D01*
X112462778Y-76264775D01*
X112432435Y-76272375D01*
X112401493Y-76276965D01*
X112370250Y-76278500D01*
X111657750Y-76278500D01*
X111626507Y-76276965D01*
X111595565Y-76272375D01*
X111565222Y-76264775D01*
X111535770Y-76254237D01*
X111507492Y-76240862D01*
X111480662Y-76224781D01*
X111455537Y-76206147D01*
X111432360Y-76185140D01*
X111411353Y-76161963D01*
X111392719Y-76136838D01*
X111376638Y-76110008D01*
X111363263Y-76081730D01*
X111352725Y-76052278D01*
X111345125Y-76021935D01*
X111340535Y-75990993D01*
X111339000Y-75959750D01*
X111339000Y-75322250D01*
X111340535Y-75291007D01*
X111345125Y-75260065D01*
X111352725Y-75229722D01*
X111363263Y-75200270D01*
X111376638Y-75171992D01*
X111392719Y-75145162D01*
X111411353Y-75120037D01*
X111432360Y-75096860D01*
X111455537Y-75075853D01*
X111480662Y-75057219D01*
X111507492Y-75041138D01*
X111535770Y-75027763D01*
X111565222Y-75017225D01*
X111595565Y-75009625D01*
X111626507Y-75005035D01*
X111657750Y-75003500D01*
X112370250Y-75003500D01*
X112401493Y-75005035D01*
X112401493Y-75005035D01*
G37*
D11*
X112014000Y-75641000D03*
G04 #@! TD*
D10*
G04 #@! TO.C,R13*
G36*
X115957493Y-75056035D02*
X115988435Y-75060625D01*
X116018778Y-75068225D01*
X116048230Y-75078763D01*
X116076508Y-75092138D01*
X116103338Y-75108219D01*
X116128463Y-75126853D01*
X116151640Y-75147860D01*
X116172647Y-75171037D01*
X116191281Y-75196162D01*
X116207362Y-75222992D01*
X116220737Y-75251270D01*
X116231275Y-75280722D01*
X116238875Y-75311065D01*
X116243465Y-75342007D01*
X116245000Y-75373250D01*
X116245000Y-76010750D01*
X116243465Y-76041993D01*
X116238875Y-76072935D01*
X116231275Y-76103278D01*
X116220737Y-76132730D01*
X116207362Y-76161008D01*
X116191281Y-76187838D01*
X116172647Y-76212963D01*
X116151640Y-76236140D01*
X116128463Y-76257147D01*
X116103338Y-76275781D01*
X116076508Y-76291862D01*
X116048230Y-76305237D01*
X116018778Y-76315775D01*
X115988435Y-76323375D01*
X115957493Y-76327965D01*
X115926250Y-76329500D01*
X115213750Y-76329500D01*
X115182507Y-76327965D01*
X115151565Y-76323375D01*
X115121222Y-76315775D01*
X115091770Y-76305237D01*
X115063492Y-76291862D01*
X115036662Y-76275781D01*
X115011537Y-76257147D01*
X114988360Y-76236140D01*
X114967353Y-76212963D01*
X114948719Y-76187838D01*
X114932638Y-76161008D01*
X114919263Y-76132730D01*
X114908725Y-76103278D01*
X114901125Y-76072935D01*
X114896535Y-76041993D01*
X114895000Y-76010750D01*
X114895000Y-75373250D01*
X114896535Y-75342007D01*
X114901125Y-75311065D01*
X114908725Y-75280722D01*
X114919263Y-75251270D01*
X114932638Y-75222992D01*
X114948719Y-75196162D01*
X114967353Y-75171037D01*
X114988360Y-75147860D01*
X115011537Y-75126853D01*
X115036662Y-75108219D01*
X115063492Y-75092138D01*
X115091770Y-75078763D01*
X115121222Y-75068225D01*
X115151565Y-75060625D01*
X115182507Y-75056035D01*
X115213750Y-75054500D01*
X115926250Y-75054500D01*
X115957493Y-75056035D01*
X115957493Y-75056035D01*
G37*
D11*
X115570000Y-75692000D03*
D10*
G36*
X115957493Y-76631035D02*
X115988435Y-76635625D01*
X116018778Y-76643225D01*
X116048230Y-76653763D01*
X116076508Y-76667138D01*
X116103338Y-76683219D01*
X116128463Y-76701853D01*
X116151640Y-76722860D01*
X116172647Y-76746037D01*
X116191281Y-76771162D01*
X116207362Y-76797992D01*
X116220737Y-76826270D01*
X116231275Y-76855722D01*
X116238875Y-76886065D01*
X116243465Y-76917007D01*
X116245000Y-76948250D01*
X116245000Y-77585750D01*
X116243465Y-77616993D01*
X116238875Y-77647935D01*
X116231275Y-77678278D01*
X116220737Y-77707730D01*
X116207362Y-77736008D01*
X116191281Y-77762838D01*
X116172647Y-77787963D01*
X116151640Y-77811140D01*
X116128463Y-77832147D01*
X116103338Y-77850781D01*
X116076508Y-77866862D01*
X116048230Y-77880237D01*
X116018778Y-77890775D01*
X115988435Y-77898375D01*
X115957493Y-77902965D01*
X115926250Y-77904500D01*
X115213750Y-77904500D01*
X115182507Y-77902965D01*
X115151565Y-77898375D01*
X115121222Y-77890775D01*
X115091770Y-77880237D01*
X115063492Y-77866862D01*
X115036662Y-77850781D01*
X115011537Y-77832147D01*
X114988360Y-77811140D01*
X114967353Y-77787963D01*
X114948719Y-77762838D01*
X114932638Y-77736008D01*
X114919263Y-77707730D01*
X114908725Y-77678278D01*
X114901125Y-77647935D01*
X114896535Y-77616993D01*
X114895000Y-77585750D01*
X114895000Y-76948250D01*
X114896535Y-76917007D01*
X114901125Y-76886065D01*
X114908725Y-76855722D01*
X114919263Y-76826270D01*
X114932638Y-76797992D01*
X114948719Y-76771162D01*
X114967353Y-76746037D01*
X114988360Y-76722860D01*
X115011537Y-76701853D01*
X115036662Y-76683219D01*
X115063492Y-76667138D01*
X115091770Y-76653763D01*
X115121222Y-76643225D01*
X115151565Y-76635625D01*
X115182507Y-76631035D01*
X115213750Y-76629500D01*
X115926250Y-76629500D01*
X115957493Y-76631035D01*
X115957493Y-76631035D01*
G37*
D11*
X115570000Y-77267000D03*
G04 #@! TD*
D10*
G04 #@! TO.C,R14*
G36*
X97923493Y-106374235D02*
X97954435Y-106378825D01*
X97984778Y-106386425D01*
X98014230Y-106396963D01*
X98042508Y-106410338D01*
X98069338Y-106426419D01*
X98094463Y-106445053D01*
X98117640Y-106466060D01*
X98138647Y-106489237D01*
X98157281Y-106514362D01*
X98173362Y-106541192D01*
X98186737Y-106569470D01*
X98197275Y-106598922D01*
X98204875Y-106629265D01*
X98209465Y-106660207D01*
X98211000Y-106691450D01*
X98211000Y-107328950D01*
X98209465Y-107360193D01*
X98204875Y-107391135D01*
X98197275Y-107421478D01*
X98186737Y-107450930D01*
X98173362Y-107479208D01*
X98157281Y-107506038D01*
X98138647Y-107531163D01*
X98117640Y-107554340D01*
X98094463Y-107575347D01*
X98069338Y-107593981D01*
X98042508Y-107610062D01*
X98014230Y-107623437D01*
X97984778Y-107633975D01*
X97954435Y-107641575D01*
X97923493Y-107646165D01*
X97892250Y-107647700D01*
X97179750Y-107647700D01*
X97148507Y-107646165D01*
X97117565Y-107641575D01*
X97087222Y-107633975D01*
X97057770Y-107623437D01*
X97029492Y-107610062D01*
X97002662Y-107593981D01*
X96977537Y-107575347D01*
X96954360Y-107554340D01*
X96933353Y-107531163D01*
X96914719Y-107506038D01*
X96898638Y-107479208D01*
X96885263Y-107450930D01*
X96874725Y-107421478D01*
X96867125Y-107391135D01*
X96862535Y-107360193D01*
X96861000Y-107328950D01*
X96861000Y-106691450D01*
X96862535Y-106660207D01*
X96867125Y-106629265D01*
X96874725Y-106598922D01*
X96885263Y-106569470D01*
X96898638Y-106541192D01*
X96914719Y-106514362D01*
X96933353Y-106489237D01*
X96954360Y-106466060D01*
X96977537Y-106445053D01*
X97002662Y-106426419D01*
X97029492Y-106410338D01*
X97057770Y-106396963D01*
X97087222Y-106386425D01*
X97117565Y-106378825D01*
X97148507Y-106374235D01*
X97179750Y-106372700D01*
X97892250Y-106372700D01*
X97923493Y-106374235D01*
X97923493Y-106374235D01*
G37*
D11*
X97536000Y-107010200D03*
D10*
G36*
X97923493Y-104799235D02*
X97954435Y-104803825D01*
X97984778Y-104811425D01*
X98014230Y-104821963D01*
X98042508Y-104835338D01*
X98069338Y-104851419D01*
X98094463Y-104870053D01*
X98117640Y-104891060D01*
X98138647Y-104914237D01*
X98157281Y-104939362D01*
X98173362Y-104966192D01*
X98186737Y-104994470D01*
X98197275Y-105023922D01*
X98204875Y-105054265D01*
X98209465Y-105085207D01*
X98211000Y-105116450D01*
X98211000Y-105753950D01*
X98209465Y-105785193D01*
X98204875Y-105816135D01*
X98197275Y-105846478D01*
X98186737Y-105875930D01*
X98173362Y-105904208D01*
X98157281Y-105931038D01*
X98138647Y-105956163D01*
X98117640Y-105979340D01*
X98094463Y-106000347D01*
X98069338Y-106018981D01*
X98042508Y-106035062D01*
X98014230Y-106048437D01*
X97984778Y-106058975D01*
X97954435Y-106066575D01*
X97923493Y-106071165D01*
X97892250Y-106072700D01*
X97179750Y-106072700D01*
X97148507Y-106071165D01*
X97117565Y-106066575D01*
X97087222Y-106058975D01*
X97057770Y-106048437D01*
X97029492Y-106035062D01*
X97002662Y-106018981D01*
X96977537Y-106000347D01*
X96954360Y-105979340D01*
X96933353Y-105956163D01*
X96914719Y-105931038D01*
X96898638Y-105904208D01*
X96885263Y-105875930D01*
X96874725Y-105846478D01*
X96867125Y-105816135D01*
X96862535Y-105785193D01*
X96861000Y-105753950D01*
X96861000Y-105116450D01*
X96862535Y-105085207D01*
X96867125Y-105054265D01*
X96874725Y-105023922D01*
X96885263Y-104994470D01*
X96898638Y-104966192D01*
X96914719Y-104939362D01*
X96933353Y-104914237D01*
X96954360Y-104891060D01*
X96977537Y-104870053D01*
X97002662Y-104851419D01*
X97029492Y-104835338D01*
X97057770Y-104821963D01*
X97087222Y-104811425D01*
X97117565Y-104803825D01*
X97148507Y-104799235D01*
X97179750Y-104797700D01*
X97892250Y-104797700D01*
X97923493Y-104799235D01*
X97923493Y-104799235D01*
G37*
D11*
X97536000Y-105435200D03*
G04 #@! TD*
D10*
G04 #@! TO.C,R15*
G36*
X95891493Y-104799235D02*
X95922435Y-104803825D01*
X95952778Y-104811425D01*
X95982230Y-104821963D01*
X96010508Y-104835338D01*
X96037338Y-104851419D01*
X96062463Y-104870053D01*
X96085640Y-104891060D01*
X96106647Y-104914237D01*
X96125281Y-104939362D01*
X96141362Y-104966192D01*
X96154737Y-104994470D01*
X96165275Y-105023922D01*
X96172875Y-105054265D01*
X96177465Y-105085207D01*
X96179000Y-105116450D01*
X96179000Y-105753950D01*
X96177465Y-105785193D01*
X96172875Y-105816135D01*
X96165275Y-105846478D01*
X96154737Y-105875930D01*
X96141362Y-105904208D01*
X96125281Y-105931038D01*
X96106647Y-105956163D01*
X96085640Y-105979340D01*
X96062463Y-106000347D01*
X96037338Y-106018981D01*
X96010508Y-106035062D01*
X95982230Y-106048437D01*
X95952778Y-106058975D01*
X95922435Y-106066575D01*
X95891493Y-106071165D01*
X95860250Y-106072700D01*
X95147750Y-106072700D01*
X95116507Y-106071165D01*
X95085565Y-106066575D01*
X95055222Y-106058975D01*
X95025770Y-106048437D01*
X94997492Y-106035062D01*
X94970662Y-106018981D01*
X94945537Y-106000347D01*
X94922360Y-105979340D01*
X94901353Y-105956163D01*
X94882719Y-105931038D01*
X94866638Y-105904208D01*
X94853263Y-105875930D01*
X94842725Y-105846478D01*
X94835125Y-105816135D01*
X94830535Y-105785193D01*
X94829000Y-105753950D01*
X94829000Y-105116450D01*
X94830535Y-105085207D01*
X94835125Y-105054265D01*
X94842725Y-105023922D01*
X94853263Y-104994470D01*
X94866638Y-104966192D01*
X94882719Y-104939362D01*
X94901353Y-104914237D01*
X94922360Y-104891060D01*
X94945537Y-104870053D01*
X94970662Y-104851419D01*
X94997492Y-104835338D01*
X95025770Y-104821963D01*
X95055222Y-104811425D01*
X95085565Y-104803825D01*
X95116507Y-104799235D01*
X95147750Y-104797700D01*
X95860250Y-104797700D01*
X95891493Y-104799235D01*
X95891493Y-104799235D01*
G37*
D11*
X95504000Y-105435200D03*
D10*
G36*
X95891493Y-106374235D02*
X95922435Y-106378825D01*
X95952778Y-106386425D01*
X95982230Y-106396963D01*
X96010508Y-106410338D01*
X96037338Y-106426419D01*
X96062463Y-106445053D01*
X96085640Y-106466060D01*
X96106647Y-106489237D01*
X96125281Y-106514362D01*
X96141362Y-106541192D01*
X96154737Y-106569470D01*
X96165275Y-106598922D01*
X96172875Y-106629265D01*
X96177465Y-106660207D01*
X96179000Y-106691450D01*
X96179000Y-107328950D01*
X96177465Y-107360193D01*
X96172875Y-107391135D01*
X96165275Y-107421478D01*
X96154737Y-107450930D01*
X96141362Y-107479208D01*
X96125281Y-107506038D01*
X96106647Y-107531163D01*
X96085640Y-107554340D01*
X96062463Y-107575347D01*
X96037338Y-107593981D01*
X96010508Y-107610062D01*
X95982230Y-107623437D01*
X95952778Y-107633975D01*
X95922435Y-107641575D01*
X95891493Y-107646165D01*
X95860250Y-107647700D01*
X95147750Y-107647700D01*
X95116507Y-107646165D01*
X95085565Y-107641575D01*
X95055222Y-107633975D01*
X95025770Y-107623437D01*
X94997492Y-107610062D01*
X94970662Y-107593981D01*
X94945537Y-107575347D01*
X94922360Y-107554340D01*
X94901353Y-107531163D01*
X94882719Y-107506038D01*
X94866638Y-107479208D01*
X94853263Y-107450930D01*
X94842725Y-107421478D01*
X94835125Y-107391135D01*
X94830535Y-107360193D01*
X94829000Y-107328950D01*
X94829000Y-106691450D01*
X94830535Y-106660207D01*
X94835125Y-106629265D01*
X94842725Y-106598922D01*
X94853263Y-106569470D01*
X94866638Y-106541192D01*
X94882719Y-106514362D01*
X94901353Y-106489237D01*
X94922360Y-106466060D01*
X94945537Y-106445053D01*
X94970662Y-106426419D01*
X94997492Y-106410338D01*
X95025770Y-106396963D01*
X95055222Y-106386425D01*
X95085565Y-106378825D01*
X95116507Y-106374235D01*
X95147750Y-106372700D01*
X95860250Y-106372700D01*
X95891493Y-106374235D01*
X95891493Y-106374235D01*
G37*
D11*
X95504000Y-107010200D03*
G04 #@! TD*
D27*
G04 #@! TO.C,U1*
X122300000Y-83500000D03*
X120800000Y-83500000D03*
X119300000Y-83500000D03*
X117800000Y-83500000D03*
X116300000Y-83500000D03*
X114800000Y-83500000D03*
X113300000Y-83500000D03*
X111800000Y-83500000D03*
X110300000Y-83500000D03*
X110300000Y-101500000D03*
X111800000Y-101500000D03*
X113300000Y-101500000D03*
X114800000Y-101500000D03*
X116300000Y-101500000D03*
X117800000Y-101500000D03*
X119300000Y-101500000D03*
X120800000Y-101500000D03*
X122300000Y-101500000D03*
D28*
X115720000Y-93620000D03*
G04 #@! TD*
D29*
G04 #@! TO.C,U2*
X63166000Y-91440000D03*
D30*
X64616000Y-95705000D03*
X61876000Y-95705000D03*
X64616000Y-87175000D03*
X61876000Y-87175000D03*
D31*
X64656000Y-98240000D03*
X61836000Y-98240000D03*
X64656000Y-84640000D03*
X61836000Y-84640000D03*
D32*
X63556000Y-84440000D03*
X62936000Y-84440000D03*
X60736000Y-84440000D03*
X65756000Y-84440000D03*
X63556000Y-98440000D03*
X62936000Y-98440000D03*
X60736000Y-98440000D03*
X65756000Y-98440000D03*
D33*
X68746000Y-91230000D03*
X68746000Y-90830000D03*
X68746000Y-90430000D03*
X68746000Y-90030000D03*
X68746000Y-89630000D03*
X68746000Y-89230000D03*
X68746000Y-88790000D03*
X68746000Y-88190000D03*
X68746000Y-91650000D03*
X68746000Y-92050000D03*
X68746000Y-92450000D03*
X68746000Y-92850000D03*
X68746000Y-93250000D03*
X68746000Y-93650000D03*
X68746000Y-94090000D03*
X68746000Y-94690000D03*
X57746000Y-91040000D03*
X57746000Y-91440000D03*
X57746000Y-90640000D03*
X57746000Y-89920000D03*
X57746000Y-89520000D03*
X57746000Y-88790000D03*
X57746000Y-88190000D03*
X57746000Y-91840000D03*
X57746000Y-92560000D03*
X57746000Y-93290000D03*
X57746000Y-93690000D03*
X57746000Y-94090000D03*
X57746000Y-94690000D03*
D34*
X67336000Y-86185000D03*
X59156000Y-86185000D03*
X59156000Y-96695000D03*
X67336000Y-96695000D03*
D35*
X58946000Y-84400000D03*
X67546000Y-84400000D03*
X58946000Y-98480000D03*
X67546000Y-98480000D03*
D36*
X57726000Y-86125000D03*
X57726000Y-96755000D03*
X68766000Y-96755000D03*
X68766000Y-86125000D03*
G04 #@! TD*
D37*
G04 #@! TO.C,U3*
X88524000Y-103394000D03*
X88524000Y-103894000D03*
X88524000Y-104394000D03*
X88524000Y-104894000D03*
X90424000Y-104894000D03*
X90424000Y-104394000D03*
X90424000Y-103894000D03*
X90424000Y-103394000D03*
G04 #@! TD*
D38*
G04 #@! TO.C,U4*
X100838000Y-107950000D03*
X102108000Y-107950000D03*
X103378000Y-107950000D03*
X104648000Y-107950000D03*
X104648000Y-102550000D03*
X103378000Y-102550000D03*
X102108000Y-102550000D03*
X100838000Y-102550000D03*
G04 #@! TD*
D10*
G04 #@! TO.C,R0*
G36*
X88226071Y-99048623D02*
X88258781Y-99053475D01*
X88290857Y-99061509D01*
X88321991Y-99072649D01*
X88351884Y-99086787D01*
X88380247Y-99103787D01*
X88406807Y-99123485D01*
X88431308Y-99145692D01*
X88453515Y-99170193D01*
X88473213Y-99196753D01*
X88490213Y-99225116D01*
X88504351Y-99255009D01*
X88515491Y-99286143D01*
X88523525Y-99318219D01*
X88528377Y-99350929D01*
X88530000Y-99383956D01*
X88530000Y-100260044D01*
X88528377Y-100293071D01*
X88523525Y-100325781D01*
X88515491Y-100357857D01*
X88504351Y-100388991D01*
X88490213Y-100418884D01*
X88473213Y-100447247D01*
X88453515Y-100473807D01*
X88431308Y-100498308D01*
X88406807Y-100520515D01*
X88380247Y-100540213D01*
X88351884Y-100557213D01*
X88321991Y-100571351D01*
X88290857Y-100582491D01*
X88258781Y-100590525D01*
X88226071Y-100595377D01*
X88193044Y-100597000D01*
X87066956Y-100597000D01*
X87033929Y-100595377D01*
X87001219Y-100590525D01*
X86969143Y-100582491D01*
X86938009Y-100571351D01*
X86908116Y-100557213D01*
X86879753Y-100540213D01*
X86853193Y-100520515D01*
X86828692Y-100498308D01*
X86806485Y-100473807D01*
X86786787Y-100447247D01*
X86769787Y-100418884D01*
X86755649Y-100388991D01*
X86744509Y-100357857D01*
X86736475Y-100325781D01*
X86731623Y-100293071D01*
X86730000Y-100260044D01*
X86730000Y-99383956D01*
X86731623Y-99350929D01*
X86736475Y-99318219D01*
X86744509Y-99286143D01*
X86755649Y-99255009D01*
X86769787Y-99225116D01*
X86786787Y-99196753D01*
X86806485Y-99170193D01*
X86828692Y-99145692D01*
X86853193Y-99123485D01*
X86879753Y-99103787D01*
X86908116Y-99086787D01*
X86938009Y-99072649D01*
X86969143Y-99061509D01*
X87001219Y-99053475D01*
X87033929Y-99048623D01*
X87066956Y-99047000D01*
X88193044Y-99047000D01*
X88226071Y-99048623D01*
X88226071Y-99048623D01*
G37*
D39*
X87630000Y-99822000D03*
D10*
G36*
X88226071Y-96998623D02*
X88258781Y-97003475D01*
X88290857Y-97011509D01*
X88321991Y-97022649D01*
X88351884Y-97036787D01*
X88380247Y-97053787D01*
X88406807Y-97073485D01*
X88431308Y-97095692D01*
X88453515Y-97120193D01*
X88473213Y-97146753D01*
X88490213Y-97175116D01*
X88504351Y-97205009D01*
X88515491Y-97236143D01*
X88523525Y-97268219D01*
X88528377Y-97300929D01*
X88530000Y-97333956D01*
X88530000Y-98210044D01*
X88528377Y-98243071D01*
X88523525Y-98275781D01*
X88515491Y-98307857D01*
X88504351Y-98338991D01*
X88490213Y-98368884D01*
X88473213Y-98397247D01*
X88453515Y-98423807D01*
X88431308Y-98448308D01*
X88406807Y-98470515D01*
X88380247Y-98490213D01*
X88351884Y-98507213D01*
X88321991Y-98521351D01*
X88290857Y-98532491D01*
X88258781Y-98540525D01*
X88226071Y-98545377D01*
X88193044Y-98547000D01*
X87066956Y-98547000D01*
X87033929Y-98545377D01*
X87001219Y-98540525D01*
X86969143Y-98532491D01*
X86938009Y-98521351D01*
X86908116Y-98507213D01*
X86879753Y-98490213D01*
X86853193Y-98470515D01*
X86828692Y-98448308D01*
X86806485Y-98423807D01*
X86786787Y-98397247D01*
X86769787Y-98368884D01*
X86755649Y-98338991D01*
X86744509Y-98307857D01*
X86736475Y-98275781D01*
X86731623Y-98243071D01*
X86730000Y-98210044D01*
X86730000Y-97333956D01*
X86731623Y-97300929D01*
X86736475Y-97268219D01*
X86744509Y-97236143D01*
X86755649Y-97205009D01*
X86769787Y-97175116D01*
X86786787Y-97146753D01*
X86806485Y-97120193D01*
X86828692Y-97095692D01*
X86853193Y-97073485D01*
X86879753Y-97053787D01*
X86908116Y-97036787D01*
X86938009Y-97022649D01*
X86969143Y-97011509D01*
X87001219Y-97003475D01*
X87033929Y-96998623D01*
X87066956Y-96997000D01*
X88193044Y-96997000D01*
X88226071Y-96998623D01*
X88226071Y-96998623D01*
G37*
D39*
X87630000Y-97772000D03*
G04 #@! TD*
D12*
G04 #@! TO.C,REF\002A\002A*
X35000000Y-70000000D03*
G04 #@! TD*
M02*
