G04 #@! TF.GenerationSoftware,KiCad,Pcbnew,5.0.0-fee4fd1~65~ubuntu16.04.1*
G04 #@! TF.CreationDate,2018-07-29T13:14:09-07:00*
G04 #@! TF.ProjectId,wifistepper,77696669737465707065722E6B696361,rev?*
G04 #@! TF.SameCoordinates,Original*
G04 #@! TF.FileFunction,Paste,Top*
G04 #@! TF.FilePolarity,Positive*
%FSLAX46Y46*%
G04 Gerber Fmt 4.6, Leading zero omitted, Abs format (unit mm)*
G04 Created by KiCad (PCBNEW 5.0.0-fee4fd1~65~ubuntu16.04.1) date Sun Jul 29 13:14:09 2018*
%MOMM*%
%LPD*%
G01*
G04 APERTURE LIST*
%ADD10C,0.100000*%
%ADD11C,0.875000*%
%ADD12C,1.250000*%
%ADD13C,0.975000*%
%ADD14R,1.300000X4.900000*%
%ADD15R,0.900000X0.800000*%
%ADD16R,1.200000X0.900000*%
%ADD17R,1.500000X4.200000*%
%ADD18C,1.350000*%
%ADD19R,0.900000X1.700000*%
%ADD20R,4.300000X4.300000*%
%ADD21R,5.500000X4.680000*%
%ADD22R,2.300000X3.010000*%
%ADD23R,1.160000X1.200000*%
%ADD24R,0.200000X0.800000*%
%ADD25R,0.800000X0.200000*%
%ADD26R,2.140000X2.850000*%
%ADD27R,1.440000X0.720000*%
%ADD28R,0.740000X2.170000*%
%ADD29R,0.850000X0.300000*%
%ADD30R,0.600000X1.550000*%
%ADD31C,1.150000*%
G04 APERTURE END LIST*
D10*
G04 #@! TO.C,R10*
G36*
X103923191Y-87410053D02*
X103944426Y-87413203D01*
X103965250Y-87418419D01*
X103985462Y-87425651D01*
X104004868Y-87434830D01*
X104023281Y-87445866D01*
X104040524Y-87458654D01*
X104056430Y-87473070D01*
X104070846Y-87488976D01*
X104083634Y-87506219D01*
X104094670Y-87524632D01*
X104103849Y-87544038D01*
X104111081Y-87564250D01*
X104116297Y-87585074D01*
X104119447Y-87606309D01*
X104120500Y-87627750D01*
X104120500Y-88140250D01*
X104119447Y-88161691D01*
X104116297Y-88182926D01*
X104111081Y-88203750D01*
X104103849Y-88223962D01*
X104094670Y-88243368D01*
X104083634Y-88261781D01*
X104070846Y-88279024D01*
X104056430Y-88294930D01*
X104040524Y-88309346D01*
X104023281Y-88322134D01*
X104004868Y-88333170D01*
X103985462Y-88342349D01*
X103965250Y-88349581D01*
X103944426Y-88354797D01*
X103923191Y-88357947D01*
X103901750Y-88359000D01*
X103464250Y-88359000D01*
X103442809Y-88357947D01*
X103421574Y-88354797D01*
X103400750Y-88349581D01*
X103380538Y-88342349D01*
X103361132Y-88333170D01*
X103342719Y-88322134D01*
X103325476Y-88309346D01*
X103309570Y-88294930D01*
X103295154Y-88279024D01*
X103282366Y-88261781D01*
X103271330Y-88243368D01*
X103262151Y-88223962D01*
X103254919Y-88203750D01*
X103249703Y-88182926D01*
X103246553Y-88161691D01*
X103245500Y-88140250D01*
X103245500Y-87627750D01*
X103246553Y-87606309D01*
X103249703Y-87585074D01*
X103254919Y-87564250D01*
X103262151Y-87544038D01*
X103271330Y-87524632D01*
X103282366Y-87506219D01*
X103295154Y-87488976D01*
X103309570Y-87473070D01*
X103325476Y-87458654D01*
X103342719Y-87445866D01*
X103361132Y-87434830D01*
X103380538Y-87425651D01*
X103400750Y-87418419D01*
X103421574Y-87413203D01*
X103442809Y-87410053D01*
X103464250Y-87409000D01*
X103901750Y-87409000D01*
X103923191Y-87410053D01*
X103923191Y-87410053D01*
G37*
D11*
X103683000Y-87884000D03*
D10*
G36*
X102348191Y-87410053D02*
X102369426Y-87413203D01*
X102390250Y-87418419D01*
X102410462Y-87425651D01*
X102429868Y-87434830D01*
X102448281Y-87445866D01*
X102465524Y-87458654D01*
X102481430Y-87473070D01*
X102495846Y-87488976D01*
X102508634Y-87506219D01*
X102519670Y-87524632D01*
X102528849Y-87544038D01*
X102536081Y-87564250D01*
X102541297Y-87585074D01*
X102544447Y-87606309D01*
X102545500Y-87627750D01*
X102545500Y-88140250D01*
X102544447Y-88161691D01*
X102541297Y-88182926D01*
X102536081Y-88203750D01*
X102528849Y-88223962D01*
X102519670Y-88243368D01*
X102508634Y-88261781D01*
X102495846Y-88279024D01*
X102481430Y-88294930D01*
X102465524Y-88309346D01*
X102448281Y-88322134D01*
X102429868Y-88333170D01*
X102410462Y-88342349D01*
X102390250Y-88349581D01*
X102369426Y-88354797D01*
X102348191Y-88357947D01*
X102326750Y-88359000D01*
X101889250Y-88359000D01*
X101867809Y-88357947D01*
X101846574Y-88354797D01*
X101825750Y-88349581D01*
X101805538Y-88342349D01*
X101786132Y-88333170D01*
X101767719Y-88322134D01*
X101750476Y-88309346D01*
X101734570Y-88294930D01*
X101720154Y-88279024D01*
X101707366Y-88261781D01*
X101696330Y-88243368D01*
X101687151Y-88223962D01*
X101679919Y-88203750D01*
X101674703Y-88182926D01*
X101671553Y-88161691D01*
X101670500Y-88140250D01*
X101670500Y-87627750D01*
X101671553Y-87606309D01*
X101674703Y-87585074D01*
X101679919Y-87564250D01*
X101687151Y-87544038D01*
X101696330Y-87524632D01*
X101707366Y-87506219D01*
X101720154Y-87488976D01*
X101734570Y-87473070D01*
X101750476Y-87458654D01*
X101767719Y-87445866D01*
X101786132Y-87434830D01*
X101805538Y-87425651D01*
X101825750Y-87418419D01*
X101846574Y-87413203D01*
X101867809Y-87410053D01*
X101889250Y-87409000D01*
X102326750Y-87409000D01*
X102348191Y-87410053D01*
X102348191Y-87410053D01*
G37*
D11*
X102108000Y-87884000D03*
G04 #@! TD*
D10*
G04 #@! TO.C,C1*
G36*
X53485504Y-97678204D02*
X53509773Y-97681804D01*
X53533571Y-97687765D01*
X53556671Y-97696030D01*
X53578849Y-97706520D01*
X53599893Y-97719133D01*
X53619598Y-97733747D01*
X53637777Y-97750223D01*
X53654253Y-97768402D01*
X53668867Y-97788107D01*
X53681480Y-97809151D01*
X53691970Y-97831329D01*
X53700235Y-97854429D01*
X53706196Y-97878227D01*
X53709796Y-97902496D01*
X53711000Y-97927000D01*
X53711000Y-99177000D01*
X53709796Y-99201504D01*
X53706196Y-99225773D01*
X53700235Y-99249571D01*
X53691970Y-99272671D01*
X53681480Y-99294849D01*
X53668867Y-99315893D01*
X53654253Y-99335598D01*
X53637777Y-99353777D01*
X53619598Y-99370253D01*
X53599893Y-99384867D01*
X53578849Y-99397480D01*
X53556671Y-99407970D01*
X53533571Y-99416235D01*
X53509773Y-99422196D01*
X53485504Y-99425796D01*
X53461000Y-99427000D01*
X52711000Y-99427000D01*
X52686496Y-99425796D01*
X52662227Y-99422196D01*
X52638429Y-99416235D01*
X52615329Y-99407970D01*
X52593151Y-99397480D01*
X52572107Y-99384867D01*
X52552402Y-99370253D01*
X52534223Y-99353777D01*
X52517747Y-99335598D01*
X52503133Y-99315893D01*
X52490520Y-99294849D01*
X52480030Y-99272671D01*
X52471765Y-99249571D01*
X52465804Y-99225773D01*
X52462204Y-99201504D01*
X52461000Y-99177000D01*
X52461000Y-97927000D01*
X52462204Y-97902496D01*
X52465804Y-97878227D01*
X52471765Y-97854429D01*
X52480030Y-97831329D01*
X52490520Y-97809151D01*
X52503133Y-97788107D01*
X52517747Y-97768402D01*
X52534223Y-97750223D01*
X52552402Y-97733747D01*
X52572107Y-97719133D01*
X52593151Y-97706520D01*
X52615329Y-97696030D01*
X52638429Y-97687765D01*
X52662227Y-97681804D01*
X52686496Y-97678204D01*
X52711000Y-97677000D01*
X53461000Y-97677000D01*
X53485504Y-97678204D01*
X53485504Y-97678204D01*
G37*
D12*
X53086000Y-98552000D03*
D10*
G36*
X50685504Y-97678204D02*
X50709773Y-97681804D01*
X50733571Y-97687765D01*
X50756671Y-97696030D01*
X50778849Y-97706520D01*
X50799893Y-97719133D01*
X50819598Y-97733747D01*
X50837777Y-97750223D01*
X50854253Y-97768402D01*
X50868867Y-97788107D01*
X50881480Y-97809151D01*
X50891970Y-97831329D01*
X50900235Y-97854429D01*
X50906196Y-97878227D01*
X50909796Y-97902496D01*
X50911000Y-97927000D01*
X50911000Y-99177000D01*
X50909796Y-99201504D01*
X50906196Y-99225773D01*
X50900235Y-99249571D01*
X50891970Y-99272671D01*
X50881480Y-99294849D01*
X50868867Y-99315893D01*
X50854253Y-99335598D01*
X50837777Y-99353777D01*
X50819598Y-99370253D01*
X50799893Y-99384867D01*
X50778849Y-99397480D01*
X50756671Y-99407970D01*
X50733571Y-99416235D01*
X50709773Y-99422196D01*
X50685504Y-99425796D01*
X50661000Y-99427000D01*
X49911000Y-99427000D01*
X49886496Y-99425796D01*
X49862227Y-99422196D01*
X49838429Y-99416235D01*
X49815329Y-99407970D01*
X49793151Y-99397480D01*
X49772107Y-99384867D01*
X49752402Y-99370253D01*
X49734223Y-99353777D01*
X49717747Y-99335598D01*
X49703133Y-99315893D01*
X49690520Y-99294849D01*
X49680030Y-99272671D01*
X49671765Y-99249571D01*
X49665804Y-99225773D01*
X49662204Y-99201504D01*
X49661000Y-99177000D01*
X49661000Y-97927000D01*
X49662204Y-97902496D01*
X49665804Y-97878227D01*
X49671765Y-97854429D01*
X49680030Y-97831329D01*
X49690520Y-97809151D01*
X49703133Y-97788107D01*
X49717747Y-97768402D01*
X49734223Y-97750223D01*
X49752402Y-97733747D01*
X49772107Y-97719133D01*
X49793151Y-97706520D01*
X49815329Y-97696030D01*
X49838429Y-97687765D01*
X49862227Y-97681804D01*
X49886496Y-97678204D01*
X49911000Y-97677000D01*
X50661000Y-97677000D01*
X50685504Y-97678204D01*
X50685504Y-97678204D01*
G37*
D12*
X50286000Y-98552000D03*
G04 #@! TD*
D10*
G04 #@! TO.C,C2*
G36*
X53312142Y-89937674D02*
X53335803Y-89941184D01*
X53359007Y-89946996D01*
X53381529Y-89955054D01*
X53403153Y-89965282D01*
X53423670Y-89977579D01*
X53442883Y-89991829D01*
X53460607Y-90007893D01*
X53476671Y-90025617D01*
X53490921Y-90044830D01*
X53503218Y-90065347D01*
X53513446Y-90086971D01*
X53521504Y-90109493D01*
X53527316Y-90132697D01*
X53530826Y-90156358D01*
X53532000Y-90180250D01*
X53532000Y-90667750D01*
X53530826Y-90691642D01*
X53527316Y-90715303D01*
X53521504Y-90738507D01*
X53513446Y-90761029D01*
X53503218Y-90782653D01*
X53490921Y-90803170D01*
X53476671Y-90822383D01*
X53460607Y-90840107D01*
X53442883Y-90856171D01*
X53423670Y-90870421D01*
X53403153Y-90882718D01*
X53381529Y-90892946D01*
X53359007Y-90901004D01*
X53335803Y-90906816D01*
X53312142Y-90910326D01*
X53288250Y-90911500D01*
X52375750Y-90911500D01*
X52351858Y-90910326D01*
X52328197Y-90906816D01*
X52304993Y-90901004D01*
X52282471Y-90892946D01*
X52260847Y-90882718D01*
X52240330Y-90870421D01*
X52221117Y-90856171D01*
X52203393Y-90840107D01*
X52187329Y-90822383D01*
X52173079Y-90803170D01*
X52160782Y-90782653D01*
X52150554Y-90761029D01*
X52142496Y-90738507D01*
X52136684Y-90715303D01*
X52133174Y-90691642D01*
X52132000Y-90667750D01*
X52132000Y-90180250D01*
X52133174Y-90156358D01*
X52136684Y-90132697D01*
X52142496Y-90109493D01*
X52150554Y-90086971D01*
X52160782Y-90065347D01*
X52173079Y-90044830D01*
X52187329Y-90025617D01*
X52203393Y-90007893D01*
X52221117Y-89991829D01*
X52240330Y-89977579D01*
X52260847Y-89965282D01*
X52282471Y-89955054D01*
X52304993Y-89946996D01*
X52328197Y-89941184D01*
X52351858Y-89937674D01*
X52375750Y-89936500D01*
X53288250Y-89936500D01*
X53312142Y-89937674D01*
X53312142Y-89937674D01*
G37*
D13*
X52832000Y-90424000D03*
D10*
G36*
X53312142Y-91812674D02*
X53335803Y-91816184D01*
X53359007Y-91821996D01*
X53381529Y-91830054D01*
X53403153Y-91840282D01*
X53423670Y-91852579D01*
X53442883Y-91866829D01*
X53460607Y-91882893D01*
X53476671Y-91900617D01*
X53490921Y-91919830D01*
X53503218Y-91940347D01*
X53513446Y-91961971D01*
X53521504Y-91984493D01*
X53527316Y-92007697D01*
X53530826Y-92031358D01*
X53532000Y-92055250D01*
X53532000Y-92542750D01*
X53530826Y-92566642D01*
X53527316Y-92590303D01*
X53521504Y-92613507D01*
X53513446Y-92636029D01*
X53503218Y-92657653D01*
X53490921Y-92678170D01*
X53476671Y-92697383D01*
X53460607Y-92715107D01*
X53442883Y-92731171D01*
X53423670Y-92745421D01*
X53403153Y-92757718D01*
X53381529Y-92767946D01*
X53359007Y-92776004D01*
X53335803Y-92781816D01*
X53312142Y-92785326D01*
X53288250Y-92786500D01*
X52375750Y-92786500D01*
X52351858Y-92785326D01*
X52328197Y-92781816D01*
X52304993Y-92776004D01*
X52282471Y-92767946D01*
X52260847Y-92757718D01*
X52240330Y-92745421D01*
X52221117Y-92731171D01*
X52203393Y-92715107D01*
X52187329Y-92697383D01*
X52173079Y-92678170D01*
X52160782Y-92657653D01*
X52150554Y-92636029D01*
X52142496Y-92613507D01*
X52136684Y-92590303D01*
X52133174Y-92566642D01*
X52132000Y-92542750D01*
X52132000Y-92055250D01*
X52133174Y-92031358D01*
X52136684Y-92007697D01*
X52142496Y-91984493D01*
X52150554Y-91961971D01*
X52160782Y-91940347D01*
X52173079Y-91919830D01*
X52187329Y-91900617D01*
X52203393Y-91882893D01*
X52221117Y-91866829D01*
X52240330Y-91852579D01*
X52260847Y-91840282D01*
X52282471Y-91830054D01*
X52304993Y-91821996D01*
X52328197Y-91816184D01*
X52351858Y-91812674D01*
X52375750Y-91811500D01*
X53288250Y-91811500D01*
X53312142Y-91812674D01*
X53312142Y-91812674D01*
G37*
D13*
X52832000Y-92299000D03*
G04 #@! TD*
D10*
G04 #@! TO.C,C3*
G36*
X44676142Y-88413674D02*
X44699803Y-88417184D01*
X44723007Y-88422996D01*
X44745529Y-88431054D01*
X44767153Y-88441282D01*
X44787670Y-88453579D01*
X44806883Y-88467829D01*
X44824607Y-88483893D01*
X44840671Y-88501617D01*
X44854921Y-88520830D01*
X44867218Y-88541347D01*
X44877446Y-88562971D01*
X44885504Y-88585493D01*
X44891316Y-88608697D01*
X44894826Y-88632358D01*
X44896000Y-88656250D01*
X44896000Y-89143750D01*
X44894826Y-89167642D01*
X44891316Y-89191303D01*
X44885504Y-89214507D01*
X44877446Y-89237029D01*
X44867218Y-89258653D01*
X44854921Y-89279170D01*
X44840671Y-89298383D01*
X44824607Y-89316107D01*
X44806883Y-89332171D01*
X44787670Y-89346421D01*
X44767153Y-89358718D01*
X44745529Y-89368946D01*
X44723007Y-89377004D01*
X44699803Y-89382816D01*
X44676142Y-89386326D01*
X44652250Y-89387500D01*
X43739750Y-89387500D01*
X43715858Y-89386326D01*
X43692197Y-89382816D01*
X43668993Y-89377004D01*
X43646471Y-89368946D01*
X43624847Y-89358718D01*
X43604330Y-89346421D01*
X43585117Y-89332171D01*
X43567393Y-89316107D01*
X43551329Y-89298383D01*
X43537079Y-89279170D01*
X43524782Y-89258653D01*
X43514554Y-89237029D01*
X43506496Y-89214507D01*
X43500684Y-89191303D01*
X43497174Y-89167642D01*
X43496000Y-89143750D01*
X43496000Y-88656250D01*
X43497174Y-88632358D01*
X43500684Y-88608697D01*
X43506496Y-88585493D01*
X43514554Y-88562971D01*
X43524782Y-88541347D01*
X43537079Y-88520830D01*
X43551329Y-88501617D01*
X43567393Y-88483893D01*
X43585117Y-88467829D01*
X43604330Y-88453579D01*
X43624847Y-88441282D01*
X43646471Y-88431054D01*
X43668993Y-88422996D01*
X43692197Y-88417184D01*
X43715858Y-88413674D01*
X43739750Y-88412500D01*
X44652250Y-88412500D01*
X44676142Y-88413674D01*
X44676142Y-88413674D01*
G37*
D13*
X44196000Y-88900000D03*
D10*
G36*
X44676142Y-86538674D02*
X44699803Y-86542184D01*
X44723007Y-86547996D01*
X44745529Y-86556054D01*
X44767153Y-86566282D01*
X44787670Y-86578579D01*
X44806883Y-86592829D01*
X44824607Y-86608893D01*
X44840671Y-86626617D01*
X44854921Y-86645830D01*
X44867218Y-86666347D01*
X44877446Y-86687971D01*
X44885504Y-86710493D01*
X44891316Y-86733697D01*
X44894826Y-86757358D01*
X44896000Y-86781250D01*
X44896000Y-87268750D01*
X44894826Y-87292642D01*
X44891316Y-87316303D01*
X44885504Y-87339507D01*
X44877446Y-87362029D01*
X44867218Y-87383653D01*
X44854921Y-87404170D01*
X44840671Y-87423383D01*
X44824607Y-87441107D01*
X44806883Y-87457171D01*
X44787670Y-87471421D01*
X44767153Y-87483718D01*
X44745529Y-87493946D01*
X44723007Y-87502004D01*
X44699803Y-87507816D01*
X44676142Y-87511326D01*
X44652250Y-87512500D01*
X43739750Y-87512500D01*
X43715858Y-87511326D01*
X43692197Y-87507816D01*
X43668993Y-87502004D01*
X43646471Y-87493946D01*
X43624847Y-87483718D01*
X43604330Y-87471421D01*
X43585117Y-87457171D01*
X43567393Y-87441107D01*
X43551329Y-87423383D01*
X43537079Y-87404170D01*
X43524782Y-87383653D01*
X43514554Y-87362029D01*
X43506496Y-87339507D01*
X43500684Y-87316303D01*
X43497174Y-87292642D01*
X43496000Y-87268750D01*
X43496000Y-86781250D01*
X43497174Y-86757358D01*
X43500684Y-86733697D01*
X43506496Y-86710493D01*
X43514554Y-86687971D01*
X43524782Y-86666347D01*
X43537079Y-86645830D01*
X43551329Y-86626617D01*
X43567393Y-86608893D01*
X43585117Y-86592829D01*
X43604330Y-86578579D01*
X43624847Y-86566282D01*
X43646471Y-86556054D01*
X43668993Y-86547996D01*
X43692197Y-86542184D01*
X43715858Y-86538674D01*
X43739750Y-86537500D01*
X44652250Y-86537500D01*
X44676142Y-86538674D01*
X44676142Y-86538674D01*
G37*
D13*
X44196000Y-87025000D03*
G04 #@! TD*
D10*
G04 #@! TO.C,C4*
G36*
X53353642Y-95313174D02*
X53377303Y-95316684D01*
X53400507Y-95322496D01*
X53423029Y-95330554D01*
X53444653Y-95340782D01*
X53465170Y-95353079D01*
X53484383Y-95367329D01*
X53502107Y-95383393D01*
X53518171Y-95401117D01*
X53532421Y-95420330D01*
X53544718Y-95440847D01*
X53554946Y-95462471D01*
X53563004Y-95484993D01*
X53568816Y-95508197D01*
X53572326Y-95531858D01*
X53573500Y-95555750D01*
X53573500Y-96468250D01*
X53572326Y-96492142D01*
X53568816Y-96515803D01*
X53563004Y-96539007D01*
X53554946Y-96561529D01*
X53544718Y-96583153D01*
X53532421Y-96603670D01*
X53518171Y-96622883D01*
X53502107Y-96640607D01*
X53484383Y-96656671D01*
X53465170Y-96670921D01*
X53444653Y-96683218D01*
X53423029Y-96693446D01*
X53400507Y-96701504D01*
X53377303Y-96707316D01*
X53353642Y-96710826D01*
X53329750Y-96712000D01*
X52842250Y-96712000D01*
X52818358Y-96710826D01*
X52794697Y-96707316D01*
X52771493Y-96701504D01*
X52748971Y-96693446D01*
X52727347Y-96683218D01*
X52706830Y-96670921D01*
X52687617Y-96656671D01*
X52669893Y-96640607D01*
X52653829Y-96622883D01*
X52639579Y-96603670D01*
X52627282Y-96583153D01*
X52617054Y-96561529D01*
X52608996Y-96539007D01*
X52603184Y-96515803D01*
X52599674Y-96492142D01*
X52598500Y-96468250D01*
X52598500Y-95555750D01*
X52599674Y-95531858D01*
X52603184Y-95508197D01*
X52608996Y-95484993D01*
X52617054Y-95462471D01*
X52627282Y-95440847D01*
X52639579Y-95420330D01*
X52653829Y-95401117D01*
X52669893Y-95383393D01*
X52687617Y-95367329D01*
X52706830Y-95353079D01*
X52727347Y-95340782D01*
X52748971Y-95330554D01*
X52771493Y-95322496D01*
X52794697Y-95316684D01*
X52818358Y-95313174D01*
X52842250Y-95312000D01*
X53329750Y-95312000D01*
X53353642Y-95313174D01*
X53353642Y-95313174D01*
G37*
D13*
X53086000Y-96012000D03*
D10*
G36*
X51478642Y-95313174D02*
X51502303Y-95316684D01*
X51525507Y-95322496D01*
X51548029Y-95330554D01*
X51569653Y-95340782D01*
X51590170Y-95353079D01*
X51609383Y-95367329D01*
X51627107Y-95383393D01*
X51643171Y-95401117D01*
X51657421Y-95420330D01*
X51669718Y-95440847D01*
X51679946Y-95462471D01*
X51688004Y-95484993D01*
X51693816Y-95508197D01*
X51697326Y-95531858D01*
X51698500Y-95555750D01*
X51698500Y-96468250D01*
X51697326Y-96492142D01*
X51693816Y-96515803D01*
X51688004Y-96539007D01*
X51679946Y-96561529D01*
X51669718Y-96583153D01*
X51657421Y-96603670D01*
X51643171Y-96622883D01*
X51627107Y-96640607D01*
X51609383Y-96656671D01*
X51590170Y-96670921D01*
X51569653Y-96683218D01*
X51548029Y-96693446D01*
X51525507Y-96701504D01*
X51502303Y-96707316D01*
X51478642Y-96710826D01*
X51454750Y-96712000D01*
X50967250Y-96712000D01*
X50943358Y-96710826D01*
X50919697Y-96707316D01*
X50896493Y-96701504D01*
X50873971Y-96693446D01*
X50852347Y-96683218D01*
X50831830Y-96670921D01*
X50812617Y-96656671D01*
X50794893Y-96640607D01*
X50778829Y-96622883D01*
X50764579Y-96603670D01*
X50752282Y-96583153D01*
X50742054Y-96561529D01*
X50733996Y-96539007D01*
X50728184Y-96515803D01*
X50724674Y-96492142D01*
X50723500Y-96468250D01*
X50723500Y-95555750D01*
X50724674Y-95531858D01*
X50728184Y-95508197D01*
X50733996Y-95484993D01*
X50742054Y-95462471D01*
X50752282Y-95440847D01*
X50764579Y-95420330D01*
X50778829Y-95401117D01*
X50794893Y-95383393D01*
X50812617Y-95367329D01*
X50831830Y-95353079D01*
X50852347Y-95340782D01*
X50873971Y-95330554D01*
X50896493Y-95322496D01*
X50919697Y-95316684D01*
X50943358Y-95313174D01*
X50967250Y-95312000D01*
X51454750Y-95312000D01*
X51478642Y-95313174D01*
X51478642Y-95313174D01*
G37*
D13*
X51211000Y-96012000D03*
G04 #@! TD*
D10*
G04 #@! TO.C,C5*
G36*
X47775691Y-81351553D02*
X47796926Y-81354703D01*
X47817750Y-81359919D01*
X47837962Y-81367151D01*
X47857368Y-81376330D01*
X47875781Y-81387366D01*
X47893024Y-81400154D01*
X47908930Y-81414570D01*
X47923346Y-81430476D01*
X47936134Y-81447719D01*
X47947170Y-81466132D01*
X47956349Y-81485538D01*
X47963581Y-81505750D01*
X47968797Y-81526574D01*
X47971947Y-81547809D01*
X47973000Y-81569250D01*
X47973000Y-82006750D01*
X47971947Y-82028191D01*
X47968797Y-82049426D01*
X47963581Y-82070250D01*
X47956349Y-82090462D01*
X47947170Y-82109868D01*
X47936134Y-82128281D01*
X47923346Y-82145524D01*
X47908930Y-82161430D01*
X47893024Y-82175846D01*
X47875781Y-82188634D01*
X47857368Y-82199670D01*
X47837962Y-82208849D01*
X47817750Y-82216081D01*
X47796926Y-82221297D01*
X47775691Y-82224447D01*
X47754250Y-82225500D01*
X47241750Y-82225500D01*
X47220309Y-82224447D01*
X47199074Y-82221297D01*
X47178250Y-82216081D01*
X47158038Y-82208849D01*
X47138632Y-82199670D01*
X47120219Y-82188634D01*
X47102976Y-82175846D01*
X47087070Y-82161430D01*
X47072654Y-82145524D01*
X47059866Y-82128281D01*
X47048830Y-82109868D01*
X47039651Y-82090462D01*
X47032419Y-82070250D01*
X47027203Y-82049426D01*
X47024053Y-82028191D01*
X47023000Y-82006750D01*
X47023000Y-81569250D01*
X47024053Y-81547809D01*
X47027203Y-81526574D01*
X47032419Y-81505750D01*
X47039651Y-81485538D01*
X47048830Y-81466132D01*
X47059866Y-81447719D01*
X47072654Y-81430476D01*
X47087070Y-81414570D01*
X47102976Y-81400154D01*
X47120219Y-81387366D01*
X47138632Y-81376330D01*
X47158038Y-81367151D01*
X47178250Y-81359919D01*
X47199074Y-81354703D01*
X47220309Y-81351553D01*
X47241750Y-81350500D01*
X47754250Y-81350500D01*
X47775691Y-81351553D01*
X47775691Y-81351553D01*
G37*
D11*
X47498000Y-81788000D03*
D10*
G36*
X47775691Y-82926553D02*
X47796926Y-82929703D01*
X47817750Y-82934919D01*
X47837962Y-82942151D01*
X47857368Y-82951330D01*
X47875781Y-82962366D01*
X47893024Y-82975154D01*
X47908930Y-82989570D01*
X47923346Y-83005476D01*
X47936134Y-83022719D01*
X47947170Y-83041132D01*
X47956349Y-83060538D01*
X47963581Y-83080750D01*
X47968797Y-83101574D01*
X47971947Y-83122809D01*
X47973000Y-83144250D01*
X47973000Y-83581750D01*
X47971947Y-83603191D01*
X47968797Y-83624426D01*
X47963581Y-83645250D01*
X47956349Y-83665462D01*
X47947170Y-83684868D01*
X47936134Y-83703281D01*
X47923346Y-83720524D01*
X47908930Y-83736430D01*
X47893024Y-83750846D01*
X47875781Y-83763634D01*
X47857368Y-83774670D01*
X47837962Y-83783849D01*
X47817750Y-83791081D01*
X47796926Y-83796297D01*
X47775691Y-83799447D01*
X47754250Y-83800500D01*
X47241750Y-83800500D01*
X47220309Y-83799447D01*
X47199074Y-83796297D01*
X47178250Y-83791081D01*
X47158038Y-83783849D01*
X47138632Y-83774670D01*
X47120219Y-83763634D01*
X47102976Y-83750846D01*
X47087070Y-83736430D01*
X47072654Y-83720524D01*
X47059866Y-83703281D01*
X47048830Y-83684868D01*
X47039651Y-83665462D01*
X47032419Y-83645250D01*
X47027203Y-83624426D01*
X47024053Y-83603191D01*
X47023000Y-83581750D01*
X47023000Y-83144250D01*
X47024053Y-83122809D01*
X47027203Y-83101574D01*
X47032419Y-83080750D01*
X47039651Y-83060538D01*
X47048830Y-83041132D01*
X47059866Y-83022719D01*
X47072654Y-83005476D01*
X47087070Y-82989570D01*
X47102976Y-82975154D01*
X47120219Y-82962366D01*
X47138632Y-82951330D01*
X47158038Y-82942151D01*
X47178250Y-82934919D01*
X47199074Y-82929703D01*
X47220309Y-82926553D01*
X47241750Y-82925500D01*
X47754250Y-82925500D01*
X47775691Y-82926553D01*
X47775691Y-82926553D01*
G37*
D11*
X47498000Y-83363000D03*
G04 #@! TD*
D10*
G04 #@! TO.C,C6*
G36*
X74435642Y-97599174D02*
X74459303Y-97602684D01*
X74482507Y-97608496D01*
X74505029Y-97616554D01*
X74526653Y-97626782D01*
X74547170Y-97639079D01*
X74566383Y-97653329D01*
X74584107Y-97669393D01*
X74600171Y-97687117D01*
X74614421Y-97706330D01*
X74626718Y-97726847D01*
X74636946Y-97748471D01*
X74645004Y-97770993D01*
X74650816Y-97794197D01*
X74654326Y-97817858D01*
X74655500Y-97841750D01*
X74655500Y-98754250D01*
X74654326Y-98778142D01*
X74650816Y-98801803D01*
X74645004Y-98825007D01*
X74636946Y-98847529D01*
X74626718Y-98869153D01*
X74614421Y-98889670D01*
X74600171Y-98908883D01*
X74584107Y-98926607D01*
X74566383Y-98942671D01*
X74547170Y-98956921D01*
X74526653Y-98969218D01*
X74505029Y-98979446D01*
X74482507Y-98987504D01*
X74459303Y-98993316D01*
X74435642Y-98996826D01*
X74411750Y-98998000D01*
X73924250Y-98998000D01*
X73900358Y-98996826D01*
X73876697Y-98993316D01*
X73853493Y-98987504D01*
X73830971Y-98979446D01*
X73809347Y-98969218D01*
X73788830Y-98956921D01*
X73769617Y-98942671D01*
X73751893Y-98926607D01*
X73735829Y-98908883D01*
X73721579Y-98889670D01*
X73709282Y-98869153D01*
X73699054Y-98847529D01*
X73690996Y-98825007D01*
X73685184Y-98801803D01*
X73681674Y-98778142D01*
X73680500Y-98754250D01*
X73680500Y-97841750D01*
X73681674Y-97817858D01*
X73685184Y-97794197D01*
X73690996Y-97770993D01*
X73699054Y-97748471D01*
X73709282Y-97726847D01*
X73721579Y-97706330D01*
X73735829Y-97687117D01*
X73751893Y-97669393D01*
X73769617Y-97653329D01*
X73788830Y-97639079D01*
X73809347Y-97626782D01*
X73830971Y-97616554D01*
X73853493Y-97608496D01*
X73876697Y-97602684D01*
X73900358Y-97599174D01*
X73924250Y-97598000D01*
X74411750Y-97598000D01*
X74435642Y-97599174D01*
X74435642Y-97599174D01*
G37*
D13*
X74168000Y-98298000D03*
D10*
G36*
X76310642Y-97599174D02*
X76334303Y-97602684D01*
X76357507Y-97608496D01*
X76380029Y-97616554D01*
X76401653Y-97626782D01*
X76422170Y-97639079D01*
X76441383Y-97653329D01*
X76459107Y-97669393D01*
X76475171Y-97687117D01*
X76489421Y-97706330D01*
X76501718Y-97726847D01*
X76511946Y-97748471D01*
X76520004Y-97770993D01*
X76525816Y-97794197D01*
X76529326Y-97817858D01*
X76530500Y-97841750D01*
X76530500Y-98754250D01*
X76529326Y-98778142D01*
X76525816Y-98801803D01*
X76520004Y-98825007D01*
X76511946Y-98847529D01*
X76501718Y-98869153D01*
X76489421Y-98889670D01*
X76475171Y-98908883D01*
X76459107Y-98926607D01*
X76441383Y-98942671D01*
X76422170Y-98956921D01*
X76401653Y-98969218D01*
X76380029Y-98979446D01*
X76357507Y-98987504D01*
X76334303Y-98993316D01*
X76310642Y-98996826D01*
X76286750Y-98998000D01*
X75799250Y-98998000D01*
X75775358Y-98996826D01*
X75751697Y-98993316D01*
X75728493Y-98987504D01*
X75705971Y-98979446D01*
X75684347Y-98969218D01*
X75663830Y-98956921D01*
X75644617Y-98942671D01*
X75626893Y-98926607D01*
X75610829Y-98908883D01*
X75596579Y-98889670D01*
X75584282Y-98869153D01*
X75574054Y-98847529D01*
X75565996Y-98825007D01*
X75560184Y-98801803D01*
X75556674Y-98778142D01*
X75555500Y-98754250D01*
X75555500Y-97841750D01*
X75556674Y-97817858D01*
X75560184Y-97794197D01*
X75565996Y-97770993D01*
X75574054Y-97748471D01*
X75584282Y-97726847D01*
X75596579Y-97706330D01*
X75610829Y-97687117D01*
X75626893Y-97669393D01*
X75644617Y-97653329D01*
X75663830Y-97639079D01*
X75684347Y-97626782D01*
X75705971Y-97616554D01*
X75728493Y-97608496D01*
X75751697Y-97602684D01*
X75775358Y-97599174D01*
X75799250Y-97598000D01*
X76286750Y-97598000D01*
X76310642Y-97599174D01*
X76310642Y-97599174D01*
G37*
D13*
X76043000Y-98298000D03*
G04 #@! TD*
D10*
G04 #@! TO.C,C7*
G36*
X76340642Y-83883174D02*
X76364303Y-83886684D01*
X76387507Y-83892496D01*
X76410029Y-83900554D01*
X76431653Y-83910782D01*
X76452170Y-83923079D01*
X76471383Y-83937329D01*
X76489107Y-83953393D01*
X76505171Y-83971117D01*
X76519421Y-83990330D01*
X76531718Y-84010847D01*
X76541946Y-84032471D01*
X76550004Y-84054993D01*
X76555816Y-84078197D01*
X76559326Y-84101858D01*
X76560500Y-84125750D01*
X76560500Y-85038250D01*
X76559326Y-85062142D01*
X76555816Y-85085803D01*
X76550004Y-85109007D01*
X76541946Y-85131529D01*
X76531718Y-85153153D01*
X76519421Y-85173670D01*
X76505171Y-85192883D01*
X76489107Y-85210607D01*
X76471383Y-85226671D01*
X76452170Y-85240921D01*
X76431653Y-85253218D01*
X76410029Y-85263446D01*
X76387507Y-85271504D01*
X76364303Y-85277316D01*
X76340642Y-85280826D01*
X76316750Y-85282000D01*
X75829250Y-85282000D01*
X75805358Y-85280826D01*
X75781697Y-85277316D01*
X75758493Y-85271504D01*
X75735971Y-85263446D01*
X75714347Y-85253218D01*
X75693830Y-85240921D01*
X75674617Y-85226671D01*
X75656893Y-85210607D01*
X75640829Y-85192883D01*
X75626579Y-85173670D01*
X75614282Y-85153153D01*
X75604054Y-85131529D01*
X75595996Y-85109007D01*
X75590184Y-85085803D01*
X75586674Y-85062142D01*
X75585500Y-85038250D01*
X75585500Y-84125750D01*
X75586674Y-84101858D01*
X75590184Y-84078197D01*
X75595996Y-84054993D01*
X75604054Y-84032471D01*
X75614282Y-84010847D01*
X75626579Y-83990330D01*
X75640829Y-83971117D01*
X75656893Y-83953393D01*
X75674617Y-83937329D01*
X75693830Y-83923079D01*
X75714347Y-83910782D01*
X75735971Y-83900554D01*
X75758493Y-83892496D01*
X75781697Y-83886684D01*
X75805358Y-83883174D01*
X75829250Y-83882000D01*
X76316750Y-83882000D01*
X76340642Y-83883174D01*
X76340642Y-83883174D01*
G37*
D13*
X76073000Y-84582000D03*
D10*
G36*
X74465642Y-83883174D02*
X74489303Y-83886684D01*
X74512507Y-83892496D01*
X74535029Y-83900554D01*
X74556653Y-83910782D01*
X74577170Y-83923079D01*
X74596383Y-83937329D01*
X74614107Y-83953393D01*
X74630171Y-83971117D01*
X74644421Y-83990330D01*
X74656718Y-84010847D01*
X74666946Y-84032471D01*
X74675004Y-84054993D01*
X74680816Y-84078197D01*
X74684326Y-84101858D01*
X74685500Y-84125750D01*
X74685500Y-85038250D01*
X74684326Y-85062142D01*
X74680816Y-85085803D01*
X74675004Y-85109007D01*
X74666946Y-85131529D01*
X74656718Y-85153153D01*
X74644421Y-85173670D01*
X74630171Y-85192883D01*
X74614107Y-85210607D01*
X74596383Y-85226671D01*
X74577170Y-85240921D01*
X74556653Y-85253218D01*
X74535029Y-85263446D01*
X74512507Y-85271504D01*
X74489303Y-85277316D01*
X74465642Y-85280826D01*
X74441750Y-85282000D01*
X73954250Y-85282000D01*
X73930358Y-85280826D01*
X73906697Y-85277316D01*
X73883493Y-85271504D01*
X73860971Y-85263446D01*
X73839347Y-85253218D01*
X73818830Y-85240921D01*
X73799617Y-85226671D01*
X73781893Y-85210607D01*
X73765829Y-85192883D01*
X73751579Y-85173670D01*
X73739282Y-85153153D01*
X73729054Y-85131529D01*
X73720996Y-85109007D01*
X73715184Y-85085803D01*
X73711674Y-85062142D01*
X73710500Y-85038250D01*
X73710500Y-84125750D01*
X73711674Y-84101858D01*
X73715184Y-84078197D01*
X73720996Y-84054993D01*
X73729054Y-84032471D01*
X73739282Y-84010847D01*
X73751579Y-83990330D01*
X73765829Y-83971117D01*
X73781893Y-83953393D01*
X73799617Y-83937329D01*
X73818830Y-83923079D01*
X73839347Y-83910782D01*
X73860971Y-83900554D01*
X73883493Y-83892496D01*
X73906697Y-83886684D01*
X73930358Y-83883174D01*
X73954250Y-83882000D01*
X74441750Y-83882000D01*
X74465642Y-83883174D01*
X74465642Y-83883174D01*
G37*
D13*
X74198000Y-84582000D03*
G04 #@! TD*
D10*
G04 #@! TO.C,C8*
G36*
X57630142Y-76475674D02*
X57653803Y-76479184D01*
X57677007Y-76484996D01*
X57699529Y-76493054D01*
X57721153Y-76503282D01*
X57741670Y-76515579D01*
X57760883Y-76529829D01*
X57778607Y-76545893D01*
X57794671Y-76563617D01*
X57808921Y-76582830D01*
X57821218Y-76603347D01*
X57831446Y-76624971D01*
X57839504Y-76647493D01*
X57845316Y-76670697D01*
X57848826Y-76694358D01*
X57850000Y-76718250D01*
X57850000Y-77205750D01*
X57848826Y-77229642D01*
X57845316Y-77253303D01*
X57839504Y-77276507D01*
X57831446Y-77299029D01*
X57821218Y-77320653D01*
X57808921Y-77341170D01*
X57794671Y-77360383D01*
X57778607Y-77378107D01*
X57760883Y-77394171D01*
X57741670Y-77408421D01*
X57721153Y-77420718D01*
X57699529Y-77430946D01*
X57677007Y-77439004D01*
X57653803Y-77444816D01*
X57630142Y-77448326D01*
X57606250Y-77449500D01*
X56693750Y-77449500D01*
X56669858Y-77448326D01*
X56646197Y-77444816D01*
X56622993Y-77439004D01*
X56600471Y-77430946D01*
X56578847Y-77420718D01*
X56558330Y-77408421D01*
X56539117Y-77394171D01*
X56521393Y-77378107D01*
X56505329Y-77360383D01*
X56491079Y-77341170D01*
X56478782Y-77320653D01*
X56468554Y-77299029D01*
X56460496Y-77276507D01*
X56454684Y-77253303D01*
X56451174Y-77229642D01*
X56450000Y-77205750D01*
X56450000Y-76718250D01*
X56451174Y-76694358D01*
X56454684Y-76670697D01*
X56460496Y-76647493D01*
X56468554Y-76624971D01*
X56478782Y-76603347D01*
X56491079Y-76582830D01*
X56505329Y-76563617D01*
X56521393Y-76545893D01*
X56539117Y-76529829D01*
X56558330Y-76515579D01*
X56578847Y-76503282D01*
X56600471Y-76493054D01*
X56622993Y-76484996D01*
X56646197Y-76479184D01*
X56669858Y-76475674D01*
X56693750Y-76474500D01*
X57606250Y-76474500D01*
X57630142Y-76475674D01*
X57630142Y-76475674D01*
G37*
D13*
X57150000Y-76962000D03*
D10*
G36*
X57630142Y-74600674D02*
X57653803Y-74604184D01*
X57677007Y-74609996D01*
X57699529Y-74618054D01*
X57721153Y-74628282D01*
X57741670Y-74640579D01*
X57760883Y-74654829D01*
X57778607Y-74670893D01*
X57794671Y-74688617D01*
X57808921Y-74707830D01*
X57821218Y-74728347D01*
X57831446Y-74749971D01*
X57839504Y-74772493D01*
X57845316Y-74795697D01*
X57848826Y-74819358D01*
X57850000Y-74843250D01*
X57850000Y-75330750D01*
X57848826Y-75354642D01*
X57845316Y-75378303D01*
X57839504Y-75401507D01*
X57831446Y-75424029D01*
X57821218Y-75445653D01*
X57808921Y-75466170D01*
X57794671Y-75485383D01*
X57778607Y-75503107D01*
X57760883Y-75519171D01*
X57741670Y-75533421D01*
X57721153Y-75545718D01*
X57699529Y-75555946D01*
X57677007Y-75564004D01*
X57653803Y-75569816D01*
X57630142Y-75573326D01*
X57606250Y-75574500D01*
X56693750Y-75574500D01*
X56669858Y-75573326D01*
X56646197Y-75569816D01*
X56622993Y-75564004D01*
X56600471Y-75555946D01*
X56578847Y-75545718D01*
X56558330Y-75533421D01*
X56539117Y-75519171D01*
X56521393Y-75503107D01*
X56505329Y-75485383D01*
X56491079Y-75466170D01*
X56478782Y-75445653D01*
X56468554Y-75424029D01*
X56460496Y-75401507D01*
X56454684Y-75378303D01*
X56451174Y-75354642D01*
X56450000Y-75330750D01*
X56450000Y-74843250D01*
X56451174Y-74819358D01*
X56454684Y-74795697D01*
X56460496Y-74772493D01*
X56468554Y-74749971D01*
X56478782Y-74728347D01*
X56491079Y-74707830D01*
X56505329Y-74688617D01*
X56521393Y-74670893D01*
X56539117Y-74654829D01*
X56558330Y-74640579D01*
X56578847Y-74628282D01*
X56600471Y-74618054D01*
X56622993Y-74609996D01*
X56646197Y-74604184D01*
X56669858Y-74600674D01*
X56693750Y-74599500D01*
X57606250Y-74599500D01*
X57630142Y-74600674D01*
X57630142Y-74600674D01*
G37*
D13*
X57150000Y-75087000D03*
G04 #@! TD*
D10*
G04 #@! TO.C,C9*
G36*
X57630142Y-107463674D02*
X57653803Y-107467184D01*
X57677007Y-107472996D01*
X57699529Y-107481054D01*
X57721153Y-107491282D01*
X57741670Y-107503579D01*
X57760883Y-107517829D01*
X57778607Y-107533893D01*
X57794671Y-107551617D01*
X57808921Y-107570830D01*
X57821218Y-107591347D01*
X57831446Y-107612971D01*
X57839504Y-107635493D01*
X57845316Y-107658697D01*
X57848826Y-107682358D01*
X57850000Y-107706250D01*
X57850000Y-108193750D01*
X57848826Y-108217642D01*
X57845316Y-108241303D01*
X57839504Y-108264507D01*
X57831446Y-108287029D01*
X57821218Y-108308653D01*
X57808921Y-108329170D01*
X57794671Y-108348383D01*
X57778607Y-108366107D01*
X57760883Y-108382171D01*
X57741670Y-108396421D01*
X57721153Y-108408718D01*
X57699529Y-108418946D01*
X57677007Y-108427004D01*
X57653803Y-108432816D01*
X57630142Y-108436326D01*
X57606250Y-108437500D01*
X56693750Y-108437500D01*
X56669858Y-108436326D01*
X56646197Y-108432816D01*
X56622993Y-108427004D01*
X56600471Y-108418946D01*
X56578847Y-108408718D01*
X56558330Y-108396421D01*
X56539117Y-108382171D01*
X56521393Y-108366107D01*
X56505329Y-108348383D01*
X56491079Y-108329170D01*
X56478782Y-108308653D01*
X56468554Y-108287029D01*
X56460496Y-108264507D01*
X56454684Y-108241303D01*
X56451174Y-108217642D01*
X56450000Y-108193750D01*
X56450000Y-107706250D01*
X56451174Y-107682358D01*
X56454684Y-107658697D01*
X56460496Y-107635493D01*
X56468554Y-107612971D01*
X56478782Y-107591347D01*
X56491079Y-107570830D01*
X56505329Y-107551617D01*
X56521393Y-107533893D01*
X56539117Y-107517829D01*
X56558330Y-107503579D01*
X56578847Y-107491282D01*
X56600471Y-107481054D01*
X56622993Y-107472996D01*
X56646197Y-107467184D01*
X56669858Y-107463674D01*
X56693750Y-107462500D01*
X57606250Y-107462500D01*
X57630142Y-107463674D01*
X57630142Y-107463674D01*
G37*
D13*
X57150000Y-107950000D03*
D10*
G36*
X57630142Y-105588674D02*
X57653803Y-105592184D01*
X57677007Y-105597996D01*
X57699529Y-105606054D01*
X57721153Y-105616282D01*
X57741670Y-105628579D01*
X57760883Y-105642829D01*
X57778607Y-105658893D01*
X57794671Y-105676617D01*
X57808921Y-105695830D01*
X57821218Y-105716347D01*
X57831446Y-105737971D01*
X57839504Y-105760493D01*
X57845316Y-105783697D01*
X57848826Y-105807358D01*
X57850000Y-105831250D01*
X57850000Y-106318750D01*
X57848826Y-106342642D01*
X57845316Y-106366303D01*
X57839504Y-106389507D01*
X57831446Y-106412029D01*
X57821218Y-106433653D01*
X57808921Y-106454170D01*
X57794671Y-106473383D01*
X57778607Y-106491107D01*
X57760883Y-106507171D01*
X57741670Y-106521421D01*
X57721153Y-106533718D01*
X57699529Y-106543946D01*
X57677007Y-106552004D01*
X57653803Y-106557816D01*
X57630142Y-106561326D01*
X57606250Y-106562500D01*
X56693750Y-106562500D01*
X56669858Y-106561326D01*
X56646197Y-106557816D01*
X56622993Y-106552004D01*
X56600471Y-106543946D01*
X56578847Y-106533718D01*
X56558330Y-106521421D01*
X56539117Y-106507171D01*
X56521393Y-106491107D01*
X56505329Y-106473383D01*
X56491079Y-106454170D01*
X56478782Y-106433653D01*
X56468554Y-106412029D01*
X56460496Y-106389507D01*
X56454684Y-106366303D01*
X56451174Y-106342642D01*
X56450000Y-106318750D01*
X56450000Y-105831250D01*
X56451174Y-105807358D01*
X56454684Y-105783697D01*
X56460496Y-105760493D01*
X56468554Y-105737971D01*
X56478782Y-105716347D01*
X56491079Y-105695830D01*
X56505329Y-105676617D01*
X56521393Y-105658893D01*
X56539117Y-105642829D01*
X56558330Y-105628579D01*
X56578847Y-105616282D01*
X56600471Y-105606054D01*
X56622993Y-105597996D01*
X56646197Y-105592184D01*
X56669858Y-105588674D01*
X56693750Y-105587500D01*
X57606250Y-105587500D01*
X57630142Y-105588674D01*
X57630142Y-105588674D01*
G37*
D13*
X57150000Y-106075000D03*
G04 #@! TD*
D14*
G04 #@! TO.C,C10*
X77470000Y-105254000D03*
X77470000Y-114554000D03*
G04 #@! TD*
G04 #@! TO.C,C11*
X77470000Y-70612000D03*
X77470000Y-79912000D03*
G04 #@! TD*
D10*
G04 #@! TO.C,C12*
G36*
X53326191Y-93506053D02*
X53347426Y-93509203D01*
X53368250Y-93514419D01*
X53388462Y-93521651D01*
X53407868Y-93530830D01*
X53426281Y-93541866D01*
X53443524Y-93554654D01*
X53459430Y-93569070D01*
X53473846Y-93584976D01*
X53486634Y-93602219D01*
X53497670Y-93620632D01*
X53506849Y-93640038D01*
X53514081Y-93660250D01*
X53519297Y-93681074D01*
X53522447Y-93702309D01*
X53523500Y-93723750D01*
X53523500Y-94236250D01*
X53522447Y-94257691D01*
X53519297Y-94278926D01*
X53514081Y-94299750D01*
X53506849Y-94319962D01*
X53497670Y-94339368D01*
X53486634Y-94357781D01*
X53473846Y-94375024D01*
X53459430Y-94390930D01*
X53443524Y-94405346D01*
X53426281Y-94418134D01*
X53407868Y-94429170D01*
X53388462Y-94438349D01*
X53368250Y-94445581D01*
X53347426Y-94450797D01*
X53326191Y-94453947D01*
X53304750Y-94455000D01*
X52867250Y-94455000D01*
X52845809Y-94453947D01*
X52824574Y-94450797D01*
X52803750Y-94445581D01*
X52783538Y-94438349D01*
X52764132Y-94429170D01*
X52745719Y-94418134D01*
X52728476Y-94405346D01*
X52712570Y-94390930D01*
X52698154Y-94375024D01*
X52685366Y-94357781D01*
X52674330Y-94339368D01*
X52665151Y-94319962D01*
X52657919Y-94299750D01*
X52652703Y-94278926D01*
X52649553Y-94257691D01*
X52648500Y-94236250D01*
X52648500Y-93723750D01*
X52649553Y-93702309D01*
X52652703Y-93681074D01*
X52657919Y-93660250D01*
X52665151Y-93640038D01*
X52674330Y-93620632D01*
X52685366Y-93602219D01*
X52698154Y-93584976D01*
X52712570Y-93569070D01*
X52728476Y-93554654D01*
X52745719Y-93541866D01*
X52764132Y-93530830D01*
X52783538Y-93521651D01*
X52803750Y-93514419D01*
X52824574Y-93509203D01*
X52845809Y-93506053D01*
X52867250Y-93505000D01*
X53304750Y-93505000D01*
X53326191Y-93506053D01*
X53326191Y-93506053D01*
G37*
D11*
X53086000Y-93980000D03*
D10*
G36*
X51751191Y-93506053D02*
X51772426Y-93509203D01*
X51793250Y-93514419D01*
X51813462Y-93521651D01*
X51832868Y-93530830D01*
X51851281Y-93541866D01*
X51868524Y-93554654D01*
X51884430Y-93569070D01*
X51898846Y-93584976D01*
X51911634Y-93602219D01*
X51922670Y-93620632D01*
X51931849Y-93640038D01*
X51939081Y-93660250D01*
X51944297Y-93681074D01*
X51947447Y-93702309D01*
X51948500Y-93723750D01*
X51948500Y-94236250D01*
X51947447Y-94257691D01*
X51944297Y-94278926D01*
X51939081Y-94299750D01*
X51931849Y-94319962D01*
X51922670Y-94339368D01*
X51911634Y-94357781D01*
X51898846Y-94375024D01*
X51884430Y-94390930D01*
X51868524Y-94405346D01*
X51851281Y-94418134D01*
X51832868Y-94429170D01*
X51813462Y-94438349D01*
X51793250Y-94445581D01*
X51772426Y-94450797D01*
X51751191Y-94453947D01*
X51729750Y-94455000D01*
X51292250Y-94455000D01*
X51270809Y-94453947D01*
X51249574Y-94450797D01*
X51228750Y-94445581D01*
X51208538Y-94438349D01*
X51189132Y-94429170D01*
X51170719Y-94418134D01*
X51153476Y-94405346D01*
X51137570Y-94390930D01*
X51123154Y-94375024D01*
X51110366Y-94357781D01*
X51099330Y-94339368D01*
X51090151Y-94319962D01*
X51082919Y-94299750D01*
X51077703Y-94278926D01*
X51074553Y-94257691D01*
X51073500Y-94236250D01*
X51073500Y-93723750D01*
X51074553Y-93702309D01*
X51077703Y-93681074D01*
X51082919Y-93660250D01*
X51090151Y-93640038D01*
X51099330Y-93620632D01*
X51110366Y-93602219D01*
X51123154Y-93584976D01*
X51137570Y-93569070D01*
X51153476Y-93554654D01*
X51170719Y-93541866D01*
X51189132Y-93530830D01*
X51208538Y-93521651D01*
X51228750Y-93514419D01*
X51249574Y-93509203D01*
X51270809Y-93506053D01*
X51292250Y-93505000D01*
X51729750Y-93505000D01*
X51751191Y-93506053D01*
X51751191Y-93506053D01*
G37*
D11*
X51511000Y-93980000D03*
G04 #@! TD*
D10*
G04 #@! TO.C,C13*
G36*
X50645142Y-87605474D02*
X50668803Y-87608984D01*
X50692007Y-87614796D01*
X50714529Y-87622854D01*
X50736153Y-87633082D01*
X50756670Y-87645379D01*
X50775883Y-87659629D01*
X50793607Y-87675693D01*
X50809671Y-87693417D01*
X50823921Y-87712630D01*
X50836218Y-87733147D01*
X50846446Y-87754771D01*
X50854504Y-87777293D01*
X50860316Y-87800497D01*
X50863826Y-87824158D01*
X50865000Y-87848050D01*
X50865000Y-88335550D01*
X50863826Y-88359442D01*
X50860316Y-88383103D01*
X50854504Y-88406307D01*
X50846446Y-88428829D01*
X50836218Y-88450453D01*
X50823921Y-88470970D01*
X50809671Y-88490183D01*
X50793607Y-88507907D01*
X50775883Y-88523971D01*
X50756670Y-88538221D01*
X50736153Y-88550518D01*
X50714529Y-88560746D01*
X50692007Y-88568804D01*
X50668803Y-88574616D01*
X50645142Y-88578126D01*
X50621250Y-88579300D01*
X49708750Y-88579300D01*
X49684858Y-88578126D01*
X49661197Y-88574616D01*
X49637993Y-88568804D01*
X49615471Y-88560746D01*
X49593847Y-88550518D01*
X49573330Y-88538221D01*
X49554117Y-88523971D01*
X49536393Y-88507907D01*
X49520329Y-88490183D01*
X49506079Y-88470970D01*
X49493782Y-88450453D01*
X49483554Y-88428829D01*
X49475496Y-88406307D01*
X49469684Y-88383103D01*
X49466174Y-88359442D01*
X49465000Y-88335550D01*
X49465000Y-87848050D01*
X49466174Y-87824158D01*
X49469684Y-87800497D01*
X49475496Y-87777293D01*
X49483554Y-87754771D01*
X49493782Y-87733147D01*
X49506079Y-87712630D01*
X49520329Y-87693417D01*
X49536393Y-87675693D01*
X49554117Y-87659629D01*
X49573330Y-87645379D01*
X49593847Y-87633082D01*
X49615471Y-87622854D01*
X49637993Y-87614796D01*
X49661197Y-87608984D01*
X49684858Y-87605474D01*
X49708750Y-87604300D01*
X50621250Y-87604300D01*
X50645142Y-87605474D01*
X50645142Y-87605474D01*
G37*
D13*
X50165000Y-88091800D03*
D10*
G36*
X50645142Y-89480474D02*
X50668803Y-89483984D01*
X50692007Y-89489796D01*
X50714529Y-89497854D01*
X50736153Y-89508082D01*
X50756670Y-89520379D01*
X50775883Y-89534629D01*
X50793607Y-89550693D01*
X50809671Y-89568417D01*
X50823921Y-89587630D01*
X50836218Y-89608147D01*
X50846446Y-89629771D01*
X50854504Y-89652293D01*
X50860316Y-89675497D01*
X50863826Y-89699158D01*
X50865000Y-89723050D01*
X50865000Y-90210550D01*
X50863826Y-90234442D01*
X50860316Y-90258103D01*
X50854504Y-90281307D01*
X50846446Y-90303829D01*
X50836218Y-90325453D01*
X50823921Y-90345970D01*
X50809671Y-90365183D01*
X50793607Y-90382907D01*
X50775883Y-90398971D01*
X50756670Y-90413221D01*
X50736153Y-90425518D01*
X50714529Y-90435746D01*
X50692007Y-90443804D01*
X50668803Y-90449616D01*
X50645142Y-90453126D01*
X50621250Y-90454300D01*
X49708750Y-90454300D01*
X49684858Y-90453126D01*
X49661197Y-90449616D01*
X49637993Y-90443804D01*
X49615471Y-90435746D01*
X49593847Y-90425518D01*
X49573330Y-90413221D01*
X49554117Y-90398971D01*
X49536393Y-90382907D01*
X49520329Y-90365183D01*
X49506079Y-90345970D01*
X49493782Y-90325453D01*
X49483554Y-90303829D01*
X49475496Y-90281307D01*
X49469684Y-90258103D01*
X49466174Y-90234442D01*
X49465000Y-90210550D01*
X49465000Y-89723050D01*
X49466174Y-89699158D01*
X49469684Y-89675497D01*
X49475496Y-89652293D01*
X49483554Y-89629771D01*
X49493782Y-89608147D01*
X49506079Y-89587630D01*
X49520329Y-89568417D01*
X49536393Y-89550693D01*
X49554117Y-89534629D01*
X49573330Y-89520379D01*
X49593847Y-89508082D01*
X49615471Y-89497854D01*
X49637993Y-89489796D01*
X49661197Y-89483984D01*
X49684858Y-89480474D01*
X49708750Y-89479300D01*
X50621250Y-89479300D01*
X50645142Y-89480474D01*
X50645142Y-89480474D01*
G37*
D13*
X50165000Y-89966800D03*
G04 #@! TD*
D10*
G04 #@! TO.C,C14*
G36*
X74408191Y-86140053D02*
X74429426Y-86143203D01*
X74450250Y-86148419D01*
X74470462Y-86155651D01*
X74489868Y-86164830D01*
X74508281Y-86175866D01*
X74525524Y-86188654D01*
X74541430Y-86203070D01*
X74555846Y-86218976D01*
X74568634Y-86236219D01*
X74579670Y-86254632D01*
X74588849Y-86274038D01*
X74596081Y-86294250D01*
X74601297Y-86315074D01*
X74604447Y-86336309D01*
X74605500Y-86357750D01*
X74605500Y-86870250D01*
X74604447Y-86891691D01*
X74601297Y-86912926D01*
X74596081Y-86933750D01*
X74588849Y-86953962D01*
X74579670Y-86973368D01*
X74568634Y-86991781D01*
X74555846Y-87009024D01*
X74541430Y-87024930D01*
X74525524Y-87039346D01*
X74508281Y-87052134D01*
X74489868Y-87063170D01*
X74470462Y-87072349D01*
X74450250Y-87079581D01*
X74429426Y-87084797D01*
X74408191Y-87087947D01*
X74386750Y-87089000D01*
X73949250Y-87089000D01*
X73927809Y-87087947D01*
X73906574Y-87084797D01*
X73885750Y-87079581D01*
X73865538Y-87072349D01*
X73846132Y-87063170D01*
X73827719Y-87052134D01*
X73810476Y-87039346D01*
X73794570Y-87024930D01*
X73780154Y-87009024D01*
X73767366Y-86991781D01*
X73756330Y-86973368D01*
X73747151Y-86953962D01*
X73739919Y-86933750D01*
X73734703Y-86912926D01*
X73731553Y-86891691D01*
X73730500Y-86870250D01*
X73730500Y-86357750D01*
X73731553Y-86336309D01*
X73734703Y-86315074D01*
X73739919Y-86294250D01*
X73747151Y-86274038D01*
X73756330Y-86254632D01*
X73767366Y-86236219D01*
X73780154Y-86218976D01*
X73794570Y-86203070D01*
X73810476Y-86188654D01*
X73827719Y-86175866D01*
X73846132Y-86164830D01*
X73865538Y-86155651D01*
X73885750Y-86148419D01*
X73906574Y-86143203D01*
X73927809Y-86140053D01*
X73949250Y-86139000D01*
X74386750Y-86139000D01*
X74408191Y-86140053D01*
X74408191Y-86140053D01*
G37*
D11*
X74168000Y-86614000D03*
D10*
G36*
X75983191Y-86140053D02*
X76004426Y-86143203D01*
X76025250Y-86148419D01*
X76045462Y-86155651D01*
X76064868Y-86164830D01*
X76083281Y-86175866D01*
X76100524Y-86188654D01*
X76116430Y-86203070D01*
X76130846Y-86218976D01*
X76143634Y-86236219D01*
X76154670Y-86254632D01*
X76163849Y-86274038D01*
X76171081Y-86294250D01*
X76176297Y-86315074D01*
X76179447Y-86336309D01*
X76180500Y-86357750D01*
X76180500Y-86870250D01*
X76179447Y-86891691D01*
X76176297Y-86912926D01*
X76171081Y-86933750D01*
X76163849Y-86953962D01*
X76154670Y-86973368D01*
X76143634Y-86991781D01*
X76130846Y-87009024D01*
X76116430Y-87024930D01*
X76100524Y-87039346D01*
X76083281Y-87052134D01*
X76064868Y-87063170D01*
X76045462Y-87072349D01*
X76025250Y-87079581D01*
X76004426Y-87084797D01*
X75983191Y-87087947D01*
X75961750Y-87089000D01*
X75524250Y-87089000D01*
X75502809Y-87087947D01*
X75481574Y-87084797D01*
X75460750Y-87079581D01*
X75440538Y-87072349D01*
X75421132Y-87063170D01*
X75402719Y-87052134D01*
X75385476Y-87039346D01*
X75369570Y-87024930D01*
X75355154Y-87009024D01*
X75342366Y-86991781D01*
X75331330Y-86973368D01*
X75322151Y-86953962D01*
X75314919Y-86933750D01*
X75309703Y-86912926D01*
X75306553Y-86891691D01*
X75305500Y-86870250D01*
X75305500Y-86357750D01*
X75306553Y-86336309D01*
X75309703Y-86315074D01*
X75314919Y-86294250D01*
X75322151Y-86274038D01*
X75331330Y-86254632D01*
X75342366Y-86236219D01*
X75355154Y-86218976D01*
X75369570Y-86203070D01*
X75385476Y-86188654D01*
X75402719Y-86175866D01*
X75421132Y-86164830D01*
X75440538Y-86155651D01*
X75460750Y-86148419D01*
X75481574Y-86143203D01*
X75502809Y-86140053D01*
X75524250Y-86139000D01*
X75961750Y-86139000D01*
X75983191Y-86140053D01*
X75983191Y-86140053D01*
G37*
D11*
X75743000Y-86614000D03*
G04 #@! TD*
D10*
G04 #@! TO.C,C15*
G36*
X119098142Y-74854674D02*
X119121803Y-74858184D01*
X119145007Y-74863996D01*
X119167529Y-74872054D01*
X119189153Y-74882282D01*
X119209670Y-74894579D01*
X119228883Y-74908829D01*
X119246607Y-74924893D01*
X119262671Y-74942617D01*
X119276921Y-74961830D01*
X119289218Y-74982347D01*
X119299446Y-75003971D01*
X119307504Y-75026493D01*
X119313316Y-75049697D01*
X119316826Y-75073358D01*
X119318000Y-75097250D01*
X119318000Y-75584750D01*
X119316826Y-75608642D01*
X119313316Y-75632303D01*
X119307504Y-75655507D01*
X119299446Y-75678029D01*
X119289218Y-75699653D01*
X119276921Y-75720170D01*
X119262671Y-75739383D01*
X119246607Y-75757107D01*
X119228883Y-75773171D01*
X119209670Y-75787421D01*
X119189153Y-75799718D01*
X119167529Y-75809946D01*
X119145007Y-75818004D01*
X119121803Y-75823816D01*
X119098142Y-75827326D01*
X119074250Y-75828500D01*
X118161750Y-75828500D01*
X118137858Y-75827326D01*
X118114197Y-75823816D01*
X118090993Y-75818004D01*
X118068471Y-75809946D01*
X118046847Y-75799718D01*
X118026330Y-75787421D01*
X118007117Y-75773171D01*
X117989393Y-75757107D01*
X117973329Y-75739383D01*
X117959079Y-75720170D01*
X117946782Y-75699653D01*
X117936554Y-75678029D01*
X117928496Y-75655507D01*
X117922684Y-75632303D01*
X117919174Y-75608642D01*
X117918000Y-75584750D01*
X117918000Y-75097250D01*
X117919174Y-75073358D01*
X117922684Y-75049697D01*
X117928496Y-75026493D01*
X117936554Y-75003971D01*
X117946782Y-74982347D01*
X117959079Y-74961830D01*
X117973329Y-74942617D01*
X117989393Y-74924893D01*
X118007117Y-74908829D01*
X118026330Y-74894579D01*
X118046847Y-74882282D01*
X118068471Y-74872054D01*
X118090993Y-74863996D01*
X118114197Y-74858184D01*
X118137858Y-74854674D01*
X118161750Y-74853500D01*
X119074250Y-74853500D01*
X119098142Y-74854674D01*
X119098142Y-74854674D01*
G37*
D13*
X118618000Y-75341000D03*
D10*
G36*
X119098142Y-76729674D02*
X119121803Y-76733184D01*
X119145007Y-76738996D01*
X119167529Y-76747054D01*
X119189153Y-76757282D01*
X119209670Y-76769579D01*
X119228883Y-76783829D01*
X119246607Y-76799893D01*
X119262671Y-76817617D01*
X119276921Y-76836830D01*
X119289218Y-76857347D01*
X119299446Y-76878971D01*
X119307504Y-76901493D01*
X119313316Y-76924697D01*
X119316826Y-76948358D01*
X119318000Y-76972250D01*
X119318000Y-77459750D01*
X119316826Y-77483642D01*
X119313316Y-77507303D01*
X119307504Y-77530507D01*
X119299446Y-77553029D01*
X119289218Y-77574653D01*
X119276921Y-77595170D01*
X119262671Y-77614383D01*
X119246607Y-77632107D01*
X119228883Y-77648171D01*
X119209670Y-77662421D01*
X119189153Y-77674718D01*
X119167529Y-77684946D01*
X119145007Y-77693004D01*
X119121803Y-77698816D01*
X119098142Y-77702326D01*
X119074250Y-77703500D01*
X118161750Y-77703500D01*
X118137858Y-77702326D01*
X118114197Y-77698816D01*
X118090993Y-77693004D01*
X118068471Y-77684946D01*
X118046847Y-77674718D01*
X118026330Y-77662421D01*
X118007117Y-77648171D01*
X117989393Y-77632107D01*
X117973329Y-77614383D01*
X117959079Y-77595170D01*
X117946782Y-77574653D01*
X117936554Y-77553029D01*
X117928496Y-77530507D01*
X117922684Y-77507303D01*
X117919174Y-77483642D01*
X117918000Y-77459750D01*
X117918000Y-76972250D01*
X117919174Y-76948358D01*
X117922684Y-76924697D01*
X117928496Y-76901493D01*
X117936554Y-76878971D01*
X117946782Y-76857347D01*
X117959079Y-76836830D01*
X117973329Y-76817617D01*
X117989393Y-76799893D01*
X118007117Y-76783829D01*
X118026330Y-76769579D01*
X118046847Y-76757282D01*
X118068471Y-76747054D01*
X118090993Y-76738996D01*
X118114197Y-76733184D01*
X118137858Y-76729674D01*
X118161750Y-76728500D01*
X119074250Y-76728500D01*
X119098142Y-76729674D01*
X119098142Y-76729674D01*
G37*
D13*
X118618000Y-77216000D03*
G04 #@! TD*
D10*
G04 #@! TO.C,C16*
G36*
X120927691Y-76779553D02*
X120948926Y-76782703D01*
X120969750Y-76787919D01*
X120989962Y-76795151D01*
X121009368Y-76804330D01*
X121027781Y-76815366D01*
X121045024Y-76828154D01*
X121060930Y-76842570D01*
X121075346Y-76858476D01*
X121088134Y-76875719D01*
X121099170Y-76894132D01*
X121108349Y-76913538D01*
X121115581Y-76933750D01*
X121120797Y-76954574D01*
X121123947Y-76975809D01*
X121125000Y-76997250D01*
X121125000Y-77434750D01*
X121123947Y-77456191D01*
X121120797Y-77477426D01*
X121115581Y-77498250D01*
X121108349Y-77518462D01*
X121099170Y-77537868D01*
X121088134Y-77556281D01*
X121075346Y-77573524D01*
X121060930Y-77589430D01*
X121045024Y-77603846D01*
X121027781Y-77616634D01*
X121009368Y-77627670D01*
X120989962Y-77636849D01*
X120969750Y-77644081D01*
X120948926Y-77649297D01*
X120927691Y-77652447D01*
X120906250Y-77653500D01*
X120393750Y-77653500D01*
X120372309Y-77652447D01*
X120351074Y-77649297D01*
X120330250Y-77644081D01*
X120310038Y-77636849D01*
X120290632Y-77627670D01*
X120272219Y-77616634D01*
X120254976Y-77603846D01*
X120239070Y-77589430D01*
X120224654Y-77573524D01*
X120211866Y-77556281D01*
X120200830Y-77537868D01*
X120191651Y-77518462D01*
X120184419Y-77498250D01*
X120179203Y-77477426D01*
X120176053Y-77456191D01*
X120175000Y-77434750D01*
X120175000Y-76997250D01*
X120176053Y-76975809D01*
X120179203Y-76954574D01*
X120184419Y-76933750D01*
X120191651Y-76913538D01*
X120200830Y-76894132D01*
X120211866Y-76875719D01*
X120224654Y-76858476D01*
X120239070Y-76842570D01*
X120254976Y-76828154D01*
X120272219Y-76815366D01*
X120290632Y-76804330D01*
X120310038Y-76795151D01*
X120330250Y-76787919D01*
X120351074Y-76782703D01*
X120372309Y-76779553D01*
X120393750Y-76778500D01*
X120906250Y-76778500D01*
X120927691Y-76779553D01*
X120927691Y-76779553D01*
G37*
D11*
X120650000Y-77216000D03*
D10*
G36*
X120927691Y-75204553D02*
X120948926Y-75207703D01*
X120969750Y-75212919D01*
X120989962Y-75220151D01*
X121009368Y-75229330D01*
X121027781Y-75240366D01*
X121045024Y-75253154D01*
X121060930Y-75267570D01*
X121075346Y-75283476D01*
X121088134Y-75300719D01*
X121099170Y-75319132D01*
X121108349Y-75338538D01*
X121115581Y-75358750D01*
X121120797Y-75379574D01*
X121123947Y-75400809D01*
X121125000Y-75422250D01*
X121125000Y-75859750D01*
X121123947Y-75881191D01*
X121120797Y-75902426D01*
X121115581Y-75923250D01*
X121108349Y-75943462D01*
X121099170Y-75962868D01*
X121088134Y-75981281D01*
X121075346Y-75998524D01*
X121060930Y-76014430D01*
X121045024Y-76028846D01*
X121027781Y-76041634D01*
X121009368Y-76052670D01*
X120989962Y-76061849D01*
X120969750Y-76069081D01*
X120948926Y-76074297D01*
X120927691Y-76077447D01*
X120906250Y-76078500D01*
X120393750Y-76078500D01*
X120372309Y-76077447D01*
X120351074Y-76074297D01*
X120330250Y-76069081D01*
X120310038Y-76061849D01*
X120290632Y-76052670D01*
X120272219Y-76041634D01*
X120254976Y-76028846D01*
X120239070Y-76014430D01*
X120224654Y-75998524D01*
X120211866Y-75981281D01*
X120200830Y-75962868D01*
X120191651Y-75943462D01*
X120184419Y-75923250D01*
X120179203Y-75902426D01*
X120176053Y-75881191D01*
X120175000Y-75859750D01*
X120175000Y-75422250D01*
X120176053Y-75400809D01*
X120179203Y-75379574D01*
X120184419Y-75358750D01*
X120191651Y-75338538D01*
X120200830Y-75319132D01*
X120211866Y-75300719D01*
X120224654Y-75283476D01*
X120239070Y-75267570D01*
X120254976Y-75253154D01*
X120272219Y-75240366D01*
X120290632Y-75229330D01*
X120310038Y-75220151D01*
X120330250Y-75212919D01*
X120351074Y-75207703D01*
X120372309Y-75204553D01*
X120393750Y-75203500D01*
X120906250Y-75203500D01*
X120927691Y-75204553D01*
X120927691Y-75204553D01*
G37*
D11*
X120650000Y-75641000D03*
G04 #@! TD*
D10*
G04 #@! TO.C,C17*
G36*
X114069691Y-76805053D02*
X114090926Y-76808203D01*
X114111750Y-76813419D01*
X114131962Y-76820651D01*
X114151368Y-76829830D01*
X114169781Y-76840866D01*
X114187024Y-76853654D01*
X114202930Y-76868070D01*
X114217346Y-76883976D01*
X114230134Y-76901219D01*
X114241170Y-76919632D01*
X114250349Y-76939038D01*
X114257581Y-76959250D01*
X114262797Y-76980074D01*
X114265947Y-77001309D01*
X114267000Y-77022750D01*
X114267000Y-77460250D01*
X114265947Y-77481691D01*
X114262797Y-77502926D01*
X114257581Y-77523750D01*
X114250349Y-77543962D01*
X114241170Y-77563368D01*
X114230134Y-77581781D01*
X114217346Y-77599024D01*
X114202930Y-77614930D01*
X114187024Y-77629346D01*
X114169781Y-77642134D01*
X114151368Y-77653170D01*
X114131962Y-77662349D01*
X114111750Y-77669581D01*
X114090926Y-77674797D01*
X114069691Y-77677947D01*
X114048250Y-77679000D01*
X113535750Y-77679000D01*
X113514309Y-77677947D01*
X113493074Y-77674797D01*
X113472250Y-77669581D01*
X113452038Y-77662349D01*
X113432632Y-77653170D01*
X113414219Y-77642134D01*
X113396976Y-77629346D01*
X113381070Y-77614930D01*
X113366654Y-77599024D01*
X113353866Y-77581781D01*
X113342830Y-77563368D01*
X113333651Y-77543962D01*
X113326419Y-77523750D01*
X113321203Y-77502926D01*
X113318053Y-77481691D01*
X113317000Y-77460250D01*
X113317000Y-77022750D01*
X113318053Y-77001309D01*
X113321203Y-76980074D01*
X113326419Y-76959250D01*
X113333651Y-76939038D01*
X113342830Y-76919632D01*
X113353866Y-76901219D01*
X113366654Y-76883976D01*
X113381070Y-76868070D01*
X113396976Y-76853654D01*
X113414219Y-76840866D01*
X113432632Y-76829830D01*
X113452038Y-76820651D01*
X113472250Y-76813419D01*
X113493074Y-76808203D01*
X113514309Y-76805053D01*
X113535750Y-76804000D01*
X114048250Y-76804000D01*
X114069691Y-76805053D01*
X114069691Y-76805053D01*
G37*
D11*
X113792000Y-77241500D03*
D10*
G36*
X114069691Y-75230053D02*
X114090926Y-75233203D01*
X114111750Y-75238419D01*
X114131962Y-75245651D01*
X114151368Y-75254830D01*
X114169781Y-75265866D01*
X114187024Y-75278654D01*
X114202930Y-75293070D01*
X114217346Y-75308976D01*
X114230134Y-75326219D01*
X114241170Y-75344632D01*
X114250349Y-75364038D01*
X114257581Y-75384250D01*
X114262797Y-75405074D01*
X114265947Y-75426309D01*
X114267000Y-75447750D01*
X114267000Y-75885250D01*
X114265947Y-75906691D01*
X114262797Y-75927926D01*
X114257581Y-75948750D01*
X114250349Y-75968962D01*
X114241170Y-75988368D01*
X114230134Y-76006781D01*
X114217346Y-76024024D01*
X114202930Y-76039930D01*
X114187024Y-76054346D01*
X114169781Y-76067134D01*
X114151368Y-76078170D01*
X114131962Y-76087349D01*
X114111750Y-76094581D01*
X114090926Y-76099797D01*
X114069691Y-76102947D01*
X114048250Y-76104000D01*
X113535750Y-76104000D01*
X113514309Y-76102947D01*
X113493074Y-76099797D01*
X113472250Y-76094581D01*
X113452038Y-76087349D01*
X113432632Y-76078170D01*
X113414219Y-76067134D01*
X113396976Y-76054346D01*
X113381070Y-76039930D01*
X113366654Y-76024024D01*
X113353866Y-76006781D01*
X113342830Y-75988368D01*
X113333651Y-75968962D01*
X113326419Y-75948750D01*
X113321203Y-75927926D01*
X113318053Y-75906691D01*
X113317000Y-75885250D01*
X113317000Y-75447750D01*
X113318053Y-75426309D01*
X113321203Y-75405074D01*
X113326419Y-75384250D01*
X113333651Y-75364038D01*
X113342830Y-75344632D01*
X113353866Y-75326219D01*
X113366654Y-75308976D01*
X113381070Y-75293070D01*
X113396976Y-75278654D01*
X113414219Y-75265866D01*
X113432632Y-75254830D01*
X113452038Y-75245651D01*
X113472250Y-75238419D01*
X113493074Y-75233203D01*
X113514309Y-75230053D01*
X113535750Y-75229000D01*
X114048250Y-75229000D01*
X114069691Y-75230053D01*
X114069691Y-75230053D01*
G37*
D11*
X113792000Y-75666500D03*
G04 #@! TD*
D10*
G04 #@! TO.C,C18*
G36*
X83707504Y-99966204D02*
X83731773Y-99969804D01*
X83755571Y-99975765D01*
X83778671Y-99984030D01*
X83800849Y-99994520D01*
X83821893Y-100007133D01*
X83841598Y-100021747D01*
X83859777Y-100038223D01*
X83876253Y-100056402D01*
X83890867Y-100076107D01*
X83903480Y-100097151D01*
X83913970Y-100119329D01*
X83922235Y-100142429D01*
X83928196Y-100166227D01*
X83931796Y-100190496D01*
X83933000Y-100215000D01*
X83933000Y-100965000D01*
X83931796Y-100989504D01*
X83928196Y-101013773D01*
X83922235Y-101037571D01*
X83913970Y-101060671D01*
X83903480Y-101082849D01*
X83890867Y-101103893D01*
X83876253Y-101123598D01*
X83859777Y-101141777D01*
X83841598Y-101158253D01*
X83821893Y-101172867D01*
X83800849Y-101185480D01*
X83778671Y-101195970D01*
X83755571Y-101204235D01*
X83731773Y-101210196D01*
X83707504Y-101213796D01*
X83683000Y-101215000D01*
X82433000Y-101215000D01*
X82408496Y-101213796D01*
X82384227Y-101210196D01*
X82360429Y-101204235D01*
X82337329Y-101195970D01*
X82315151Y-101185480D01*
X82294107Y-101172867D01*
X82274402Y-101158253D01*
X82256223Y-101141777D01*
X82239747Y-101123598D01*
X82225133Y-101103893D01*
X82212520Y-101082849D01*
X82202030Y-101060671D01*
X82193765Y-101037571D01*
X82187804Y-101013773D01*
X82184204Y-100989504D01*
X82183000Y-100965000D01*
X82183000Y-100215000D01*
X82184204Y-100190496D01*
X82187804Y-100166227D01*
X82193765Y-100142429D01*
X82202030Y-100119329D01*
X82212520Y-100097151D01*
X82225133Y-100076107D01*
X82239747Y-100056402D01*
X82256223Y-100038223D01*
X82274402Y-100021747D01*
X82294107Y-100007133D01*
X82315151Y-99994520D01*
X82337329Y-99984030D01*
X82360429Y-99975765D01*
X82384227Y-99969804D01*
X82408496Y-99966204D01*
X82433000Y-99965000D01*
X83683000Y-99965000D01*
X83707504Y-99966204D01*
X83707504Y-99966204D01*
G37*
D12*
X83058000Y-100590000D03*
D10*
G36*
X83707504Y-97166204D02*
X83731773Y-97169804D01*
X83755571Y-97175765D01*
X83778671Y-97184030D01*
X83800849Y-97194520D01*
X83821893Y-97207133D01*
X83841598Y-97221747D01*
X83859777Y-97238223D01*
X83876253Y-97256402D01*
X83890867Y-97276107D01*
X83903480Y-97297151D01*
X83913970Y-97319329D01*
X83922235Y-97342429D01*
X83928196Y-97366227D01*
X83931796Y-97390496D01*
X83933000Y-97415000D01*
X83933000Y-98165000D01*
X83931796Y-98189504D01*
X83928196Y-98213773D01*
X83922235Y-98237571D01*
X83913970Y-98260671D01*
X83903480Y-98282849D01*
X83890867Y-98303893D01*
X83876253Y-98323598D01*
X83859777Y-98341777D01*
X83841598Y-98358253D01*
X83821893Y-98372867D01*
X83800849Y-98385480D01*
X83778671Y-98395970D01*
X83755571Y-98404235D01*
X83731773Y-98410196D01*
X83707504Y-98413796D01*
X83683000Y-98415000D01*
X82433000Y-98415000D01*
X82408496Y-98413796D01*
X82384227Y-98410196D01*
X82360429Y-98404235D01*
X82337329Y-98395970D01*
X82315151Y-98385480D01*
X82294107Y-98372867D01*
X82274402Y-98358253D01*
X82256223Y-98341777D01*
X82239747Y-98323598D01*
X82225133Y-98303893D01*
X82212520Y-98282849D01*
X82202030Y-98260671D01*
X82193765Y-98237571D01*
X82187804Y-98213773D01*
X82184204Y-98189504D01*
X82183000Y-98165000D01*
X82183000Y-97415000D01*
X82184204Y-97390496D01*
X82187804Y-97366227D01*
X82193765Y-97342429D01*
X82202030Y-97319329D01*
X82212520Y-97297151D01*
X82225133Y-97276107D01*
X82239747Y-97256402D01*
X82256223Y-97238223D01*
X82274402Y-97221747D01*
X82294107Y-97207133D01*
X82315151Y-97194520D01*
X82337329Y-97184030D01*
X82360429Y-97175765D01*
X82384227Y-97169804D01*
X82408496Y-97166204D01*
X82433000Y-97165000D01*
X83683000Y-97165000D01*
X83707504Y-97166204D01*
X83707504Y-97166204D01*
G37*
D12*
X83058000Y-97790000D03*
G04 #@! TD*
D10*
G04 #@! TO.C,C19*
G36*
X86129691Y-105481553D02*
X86150926Y-105484703D01*
X86171750Y-105489919D01*
X86191962Y-105497151D01*
X86211368Y-105506330D01*
X86229781Y-105517366D01*
X86247024Y-105530154D01*
X86262930Y-105544570D01*
X86277346Y-105560476D01*
X86290134Y-105577719D01*
X86301170Y-105596132D01*
X86310349Y-105615538D01*
X86317581Y-105635750D01*
X86322797Y-105656574D01*
X86325947Y-105677809D01*
X86327000Y-105699250D01*
X86327000Y-106136750D01*
X86325947Y-106158191D01*
X86322797Y-106179426D01*
X86317581Y-106200250D01*
X86310349Y-106220462D01*
X86301170Y-106239868D01*
X86290134Y-106258281D01*
X86277346Y-106275524D01*
X86262930Y-106291430D01*
X86247024Y-106305846D01*
X86229781Y-106318634D01*
X86211368Y-106329670D01*
X86191962Y-106338849D01*
X86171750Y-106346081D01*
X86150926Y-106351297D01*
X86129691Y-106354447D01*
X86108250Y-106355500D01*
X85595750Y-106355500D01*
X85574309Y-106354447D01*
X85553074Y-106351297D01*
X85532250Y-106346081D01*
X85512038Y-106338849D01*
X85492632Y-106329670D01*
X85474219Y-106318634D01*
X85456976Y-106305846D01*
X85441070Y-106291430D01*
X85426654Y-106275524D01*
X85413866Y-106258281D01*
X85402830Y-106239868D01*
X85393651Y-106220462D01*
X85386419Y-106200250D01*
X85381203Y-106179426D01*
X85378053Y-106158191D01*
X85377000Y-106136750D01*
X85377000Y-105699250D01*
X85378053Y-105677809D01*
X85381203Y-105656574D01*
X85386419Y-105635750D01*
X85393651Y-105615538D01*
X85402830Y-105596132D01*
X85413866Y-105577719D01*
X85426654Y-105560476D01*
X85441070Y-105544570D01*
X85456976Y-105530154D01*
X85474219Y-105517366D01*
X85492632Y-105506330D01*
X85512038Y-105497151D01*
X85532250Y-105489919D01*
X85553074Y-105484703D01*
X85574309Y-105481553D01*
X85595750Y-105480500D01*
X86108250Y-105480500D01*
X86129691Y-105481553D01*
X86129691Y-105481553D01*
G37*
D11*
X85852000Y-105918000D03*
D10*
G36*
X86129691Y-103906553D02*
X86150926Y-103909703D01*
X86171750Y-103914919D01*
X86191962Y-103922151D01*
X86211368Y-103931330D01*
X86229781Y-103942366D01*
X86247024Y-103955154D01*
X86262930Y-103969570D01*
X86277346Y-103985476D01*
X86290134Y-104002719D01*
X86301170Y-104021132D01*
X86310349Y-104040538D01*
X86317581Y-104060750D01*
X86322797Y-104081574D01*
X86325947Y-104102809D01*
X86327000Y-104124250D01*
X86327000Y-104561750D01*
X86325947Y-104583191D01*
X86322797Y-104604426D01*
X86317581Y-104625250D01*
X86310349Y-104645462D01*
X86301170Y-104664868D01*
X86290134Y-104683281D01*
X86277346Y-104700524D01*
X86262930Y-104716430D01*
X86247024Y-104730846D01*
X86229781Y-104743634D01*
X86211368Y-104754670D01*
X86191962Y-104763849D01*
X86171750Y-104771081D01*
X86150926Y-104776297D01*
X86129691Y-104779447D01*
X86108250Y-104780500D01*
X85595750Y-104780500D01*
X85574309Y-104779447D01*
X85553074Y-104776297D01*
X85532250Y-104771081D01*
X85512038Y-104763849D01*
X85492632Y-104754670D01*
X85474219Y-104743634D01*
X85456976Y-104730846D01*
X85441070Y-104716430D01*
X85426654Y-104700524D01*
X85413866Y-104683281D01*
X85402830Y-104664868D01*
X85393651Y-104645462D01*
X85386419Y-104625250D01*
X85381203Y-104604426D01*
X85378053Y-104583191D01*
X85377000Y-104561750D01*
X85377000Y-104124250D01*
X85378053Y-104102809D01*
X85381203Y-104081574D01*
X85386419Y-104060750D01*
X85393651Y-104040538D01*
X85402830Y-104021132D01*
X85413866Y-104002719D01*
X85426654Y-103985476D01*
X85441070Y-103969570D01*
X85456976Y-103955154D01*
X85474219Y-103942366D01*
X85492632Y-103931330D01*
X85512038Y-103922151D01*
X85532250Y-103914919D01*
X85553074Y-103909703D01*
X85574309Y-103906553D01*
X85595750Y-103905500D01*
X86108250Y-103905500D01*
X86129691Y-103906553D01*
X86129691Y-103906553D01*
G37*
D11*
X85852000Y-104343000D03*
G04 #@! TD*
D10*
G04 #@! TO.C,C20*
G36*
X93698142Y-106877174D02*
X93721803Y-106880684D01*
X93745007Y-106886496D01*
X93767529Y-106894554D01*
X93789153Y-106904782D01*
X93809670Y-106917079D01*
X93828883Y-106931329D01*
X93846607Y-106947393D01*
X93862671Y-106965117D01*
X93876921Y-106984330D01*
X93889218Y-107004847D01*
X93899446Y-107026471D01*
X93907504Y-107048993D01*
X93913316Y-107072197D01*
X93916826Y-107095858D01*
X93918000Y-107119750D01*
X93918000Y-107607250D01*
X93916826Y-107631142D01*
X93913316Y-107654803D01*
X93907504Y-107678007D01*
X93899446Y-107700529D01*
X93889218Y-107722153D01*
X93876921Y-107742670D01*
X93862671Y-107761883D01*
X93846607Y-107779607D01*
X93828883Y-107795671D01*
X93809670Y-107809921D01*
X93789153Y-107822218D01*
X93767529Y-107832446D01*
X93745007Y-107840504D01*
X93721803Y-107846316D01*
X93698142Y-107849826D01*
X93674250Y-107851000D01*
X92761750Y-107851000D01*
X92737858Y-107849826D01*
X92714197Y-107846316D01*
X92690993Y-107840504D01*
X92668471Y-107832446D01*
X92646847Y-107822218D01*
X92626330Y-107809921D01*
X92607117Y-107795671D01*
X92589393Y-107779607D01*
X92573329Y-107761883D01*
X92559079Y-107742670D01*
X92546782Y-107722153D01*
X92536554Y-107700529D01*
X92528496Y-107678007D01*
X92522684Y-107654803D01*
X92519174Y-107631142D01*
X92518000Y-107607250D01*
X92518000Y-107119750D01*
X92519174Y-107095858D01*
X92522684Y-107072197D01*
X92528496Y-107048993D01*
X92536554Y-107026471D01*
X92546782Y-107004847D01*
X92559079Y-106984330D01*
X92573329Y-106965117D01*
X92589393Y-106947393D01*
X92607117Y-106931329D01*
X92626330Y-106917079D01*
X92646847Y-106904782D01*
X92668471Y-106894554D01*
X92690993Y-106886496D01*
X92714197Y-106880684D01*
X92737858Y-106877174D01*
X92761750Y-106876000D01*
X93674250Y-106876000D01*
X93698142Y-106877174D01*
X93698142Y-106877174D01*
G37*
D13*
X93218000Y-107363500D03*
D10*
G36*
X93698142Y-105002174D02*
X93721803Y-105005684D01*
X93745007Y-105011496D01*
X93767529Y-105019554D01*
X93789153Y-105029782D01*
X93809670Y-105042079D01*
X93828883Y-105056329D01*
X93846607Y-105072393D01*
X93862671Y-105090117D01*
X93876921Y-105109330D01*
X93889218Y-105129847D01*
X93899446Y-105151471D01*
X93907504Y-105173993D01*
X93913316Y-105197197D01*
X93916826Y-105220858D01*
X93918000Y-105244750D01*
X93918000Y-105732250D01*
X93916826Y-105756142D01*
X93913316Y-105779803D01*
X93907504Y-105803007D01*
X93899446Y-105825529D01*
X93889218Y-105847153D01*
X93876921Y-105867670D01*
X93862671Y-105886883D01*
X93846607Y-105904607D01*
X93828883Y-105920671D01*
X93809670Y-105934921D01*
X93789153Y-105947218D01*
X93767529Y-105957446D01*
X93745007Y-105965504D01*
X93721803Y-105971316D01*
X93698142Y-105974826D01*
X93674250Y-105976000D01*
X92761750Y-105976000D01*
X92737858Y-105974826D01*
X92714197Y-105971316D01*
X92690993Y-105965504D01*
X92668471Y-105957446D01*
X92646847Y-105947218D01*
X92626330Y-105934921D01*
X92607117Y-105920671D01*
X92589393Y-105904607D01*
X92573329Y-105886883D01*
X92559079Y-105867670D01*
X92546782Y-105847153D01*
X92536554Y-105825529D01*
X92528496Y-105803007D01*
X92522684Y-105779803D01*
X92519174Y-105756142D01*
X92518000Y-105732250D01*
X92518000Y-105244750D01*
X92519174Y-105220858D01*
X92522684Y-105197197D01*
X92528496Y-105173993D01*
X92536554Y-105151471D01*
X92546782Y-105129847D01*
X92559079Y-105109330D01*
X92573329Y-105090117D01*
X92589393Y-105072393D01*
X92607117Y-105056329D01*
X92626330Y-105042079D01*
X92646847Y-105029782D01*
X92668471Y-105019554D01*
X92690993Y-105011496D01*
X92714197Y-105005684D01*
X92737858Y-105002174D01*
X92761750Y-105001000D01*
X93674250Y-105001000D01*
X93698142Y-105002174D01*
X93698142Y-105002174D01*
G37*
D13*
X93218000Y-105488500D03*
G04 #@! TD*
D10*
G04 #@! TO.C,C21*
G36*
X101115691Y-99639553D02*
X101136926Y-99642703D01*
X101157750Y-99647919D01*
X101177962Y-99655151D01*
X101197368Y-99664330D01*
X101215781Y-99675366D01*
X101233024Y-99688154D01*
X101248930Y-99702570D01*
X101263346Y-99718476D01*
X101276134Y-99735719D01*
X101287170Y-99754132D01*
X101296349Y-99773538D01*
X101303581Y-99793750D01*
X101308797Y-99814574D01*
X101311947Y-99835809D01*
X101313000Y-99857250D01*
X101313000Y-100294750D01*
X101311947Y-100316191D01*
X101308797Y-100337426D01*
X101303581Y-100358250D01*
X101296349Y-100378462D01*
X101287170Y-100397868D01*
X101276134Y-100416281D01*
X101263346Y-100433524D01*
X101248930Y-100449430D01*
X101233024Y-100463846D01*
X101215781Y-100476634D01*
X101197368Y-100487670D01*
X101177962Y-100496849D01*
X101157750Y-100504081D01*
X101136926Y-100509297D01*
X101115691Y-100512447D01*
X101094250Y-100513500D01*
X100581750Y-100513500D01*
X100560309Y-100512447D01*
X100539074Y-100509297D01*
X100518250Y-100504081D01*
X100498038Y-100496849D01*
X100478632Y-100487670D01*
X100460219Y-100476634D01*
X100442976Y-100463846D01*
X100427070Y-100449430D01*
X100412654Y-100433524D01*
X100399866Y-100416281D01*
X100388830Y-100397868D01*
X100379651Y-100378462D01*
X100372419Y-100358250D01*
X100367203Y-100337426D01*
X100364053Y-100316191D01*
X100363000Y-100294750D01*
X100363000Y-99857250D01*
X100364053Y-99835809D01*
X100367203Y-99814574D01*
X100372419Y-99793750D01*
X100379651Y-99773538D01*
X100388830Y-99754132D01*
X100399866Y-99735719D01*
X100412654Y-99718476D01*
X100427070Y-99702570D01*
X100442976Y-99688154D01*
X100460219Y-99675366D01*
X100478632Y-99664330D01*
X100498038Y-99655151D01*
X100518250Y-99647919D01*
X100539074Y-99642703D01*
X100560309Y-99639553D01*
X100581750Y-99638500D01*
X101094250Y-99638500D01*
X101115691Y-99639553D01*
X101115691Y-99639553D01*
G37*
D11*
X100838000Y-100076000D03*
D10*
G36*
X101115691Y-98064553D02*
X101136926Y-98067703D01*
X101157750Y-98072919D01*
X101177962Y-98080151D01*
X101197368Y-98089330D01*
X101215781Y-98100366D01*
X101233024Y-98113154D01*
X101248930Y-98127570D01*
X101263346Y-98143476D01*
X101276134Y-98160719D01*
X101287170Y-98179132D01*
X101296349Y-98198538D01*
X101303581Y-98218750D01*
X101308797Y-98239574D01*
X101311947Y-98260809D01*
X101313000Y-98282250D01*
X101313000Y-98719750D01*
X101311947Y-98741191D01*
X101308797Y-98762426D01*
X101303581Y-98783250D01*
X101296349Y-98803462D01*
X101287170Y-98822868D01*
X101276134Y-98841281D01*
X101263346Y-98858524D01*
X101248930Y-98874430D01*
X101233024Y-98888846D01*
X101215781Y-98901634D01*
X101197368Y-98912670D01*
X101177962Y-98921849D01*
X101157750Y-98929081D01*
X101136926Y-98934297D01*
X101115691Y-98937447D01*
X101094250Y-98938500D01*
X100581750Y-98938500D01*
X100560309Y-98937447D01*
X100539074Y-98934297D01*
X100518250Y-98929081D01*
X100498038Y-98921849D01*
X100478632Y-98912670D01*
X100460219Y-98901634D01*
X100442976Y-98888846D01*
X100427070Y-98874430D01*
X100412654Y-98858524D01*
X100399866Y-98841281D01*
X100388830Y-98822868D01*
X100379651Y-98803462D01*
X100372419Y-98783250D01*
X100367203Y-98762426D01*
X100364053Y-98741191D01*
X100363000Y-98719750D01*
X100363000Y-98282250D01*
X100364053Y-98260809D01*
X100367203Y-98239574D01*
X100372419Y-98218750D01*
X100379651Y-98198538D01*
X100388830Y-98179132D01*
X100399866Y-98160719D01*
X100412654Y-98143476D01*
X100427070Y-98127570D01*
X100442976Y-98113154D01*
X100460219Y-98100366D01*
X100478632Y-98089330D01*
X100498038Y-98080151D01*
X100518250Y-98072919D01*
X100539074Y-98067703D01*
X100560309Y-98064553D01*
X100581750Y-98063500D01*
X101094250Y-98063500D01*
X101115691Y-98064553D01*
X101115691Y-98064553D01*
G37*
D11*
X100838000Y-98501000D03*
G04 #@! TD*
D15*
G04 #@! TO.C,D1*
X46228000Y-87122000D03*
X46228000Y-89022000D03*
X48228000Y-88072000D03*
G04 #@! TD*
D16*
G04 #@! TO.C,D2*
X48768000Y-92710000D03*
X48768000Y-96010000D03*
G04 #@! TD*
D10*
G04 #@! TO.C,D3*
G36*
X100440642Y-90741174D02*
X100464303Y-90744684D01*
X100487507Y-90750496D01*
X100510029Y-90758554D01*
X100531653Y-90768782D01*
X100552170Y-90781079D01*
X100571383Y-90795329D01*
X100589107Y-90811393D01*
X100605171Y-90829117D01*
X100619421Y-90848330D01*
X100631718Y-90868847D01*
X100641946Y-90890471D01*
X100650004Y-90912993D01*
X100655816Y-90936197D01*
X100659326Y-90959858D01*
X100660500Y-90983750D01*
X100660500Y-91896250D01*
X100659326Y-91920142D01*
X100655816Y-91943803D01*
X100650004Y-91967007D01*
X100641946Y-91989529D01*
X100631718Y-92011153D01*
X100619421Y-92031670D01*
X100605171Y-92050883D01*
X100589107Y-92068607D01*
X100571383Y-92084671D01*
X100552170Y-92098921D01*
X100531653Y-92111218D01*
X100510029Y-92121446D01*
X100487507Y-92129504D01*
X100464303Y-92135316D01*
X100440642Y-92138826D01*
X100416750Y-92140000D01*
X99929250Y-92140000D01*
X99905358Y-92138826D01*
X99881697Y-92135316D01*
X99858493Y-92129504D01*
X99835971Y-92121446D01*
X99814347Y-92111218D01*
X99793830Y-92098921D01*
X99774617Y-92084671D01*
X99756893Y-92068607D01*
X99740829Y-92050883D01*
X99726579Y-92031670D01*
X99714282Y-92011153D01*
X99704054Y-91989529D01*
X99695996Y-91967007D01*
X99690184Y-91943803D01*
X99686674Y-91920142D01*
X99685500Y-91896250D01*
X99685500Y-90983750D01*
X99686674Y-90959858D01*
X99690184Y-90936197D01*
X99695996Y-90912993D01*
X99704054Y-90890471D01*
X99714282Y-90868847D01*
X99726579Y-90848330D01*
X99740829Y-90829117D01*
X99756893Y-90811393D01*
X99774617Y-90795329D01*
X99793830Y-90781079D01*
X99814347Y-90768782D01*
X99835971Y-90758554D01*
X99858493Y-90750496D01*
X99881697Y-90744684D01*
X99905358Y-90741174D01*
X99929250Y-90740000D01*
X100416750Y-90740000D01*
X100440642Y-90741174D01*
X100440642Y-90741174D01*
G37*
D13*
X100173000Y-91440000D03*
D10*
G36*
X98565642Y-90741174D02*
X98589303Y-90744684D01*
X98612507Y-90750496D01*
X98635029Y-90758554D01*
X98656653Y-90768782D01*
X98677170Y-90781079D01*
X98696383Y-90795329D01*
X98714107Y-90811393D01*
X98730171Y-90829117D01*
X98744421Y-90848330D01*
X98756718Y-90868847D01*
X98766946Y-90890471D01*
X98775004Y-90912993D01*
X98780816Y-90936197D01*
X98784326Y-90959858D01*
X98785500Y-90983750D01*
X98785500Y-91896250D01*
X98784326Y-91920142D01*
X98780816Y-91943803D01*
X98775004Y-91967007D01*
X98766946Y-91989529D01*
X98756718Y-92011153D01*
X98744421Y-92031670D01*
X98730171Y-92050883D01*
X98714107Y-92068607D01*
X98696383Y-92084671D01*
X98677170Y-92098921D01*
X98656653Y-92111218D01*
X98635029Y-92121446D01*
X98612507Y-92129504D01*
X98589303Y-92135316D01*
X98565642Y-92138826D01*
X98541750Y-92140000D01*
X98054250Y-92140000D01*
X98030358Y-92138826D01*
X98006697Y-92135316D01*
X97983493Y-92129504D01*
X97960971Y-92121446D01*
X97939347Y-92111218D01*
X97918830Y-92098921D01*
X97899617Y-92084671D01*
X97881893Y-92068607D01*
X97865829Y-92050883D01*
X97851579Y-92031670D01*
X97839282Y-92011153D01*
X97829054Y-91989529D01*
X97820996Y-91967007D01*
X97815184Y-91943803D01*
X97811674Y-91920142D01*
X97810500Y-91896250D01*
X97810500Y-90983750D01*
X97811674Y-90959858D01*
X97815184Y-90936197D01*
X97820996Y-90912993D01*
X97829054Y-90890471D01*
X97839282Y-90868847D01*
X97851579Y-90848330D01*
X97865829Y-90829117D01*
X97881893Y-90811393D01*
X97899617Y-90795329D01*
X97918830Y-90781079D01*
X97939347Y-90768782D01*
X97960971Y-90758554D01*
X97983493Y-90750496D01*
X98006697Y-90744684D01*
X98030358Y-90741174D01*
X98054250Y-90740000D01*
X98541750Y-90740000D01*
X98565642Y-90741174D01*
X98565642Y-90741174D01*
G37*
D13*
X98298000Y-91440000D03*
G04 #@! TD*
D10*
G04 #@! TO.C,D4*
G36*
X100440642Y-87185174D02*
X100464303Y-87188684D01*
X100487507Y-87194496D01*
X100510029Y-87202554D01*
X100531653Y-87212782D01*
X100552170Y-87225079D01*
X100571383Y-87239329D01*
X100589107Y-87255393D01*
X100605171Y-87273117D01*
X100619421Y-87292330D01*
X100631718Y-87312847D01*
X100641946Y-87334471D01*
X100650004Y-87356993D01*
X100655816Y-87380197D01*
X100659326Y-87403858D01*
X100660500Y-87427750D01*
X100660500Y-88340250D01*
X100659326Y-88364142D01*
X100655816Y-88387803D01*
X100650004Y-88411007D01*
X100641946Y-88433529D01*
X100631718Y-88455153D01*
X100619421Y-88475670D01*
X100605171Y-88494883D01*
X100589107Y-88512607D01*
X100571383Y-88528671D01*
X100552170Y-88542921D01*
X100531653Y-88555218D01*
X100510029Y-88565446D01*
X100487507Y-88573504D01*
X100464303Y-88579316D01*
X100440642Y-88582826D01*
X100416750Y-88584000D01*
X99929250Y-88584000D01*
X99905358Y-88582826D01*
X99881697Y-88579316D01*
X99858493Y-88573504D01*
X99835971Y-88565446D01*
X99814347Y-88555218D01*
X99793830Y-88542921D01*
X99774617Y-88528671D01*
X99756893Y-88512607D01*
X99740829Y-88494883D01*
X99726579Y-88475670D01*
X99714282Y-88455153D01*
X99704054Y-88433529D01*
X99695996Y-88411007D01*
X99690184Y-88387803D01*
X99686674Y-88364142D01*
X99685500Y-88340250D01*
X99685500Y-87427750D01*
X99686674Y-87403858D01*
X99690184Y-87380197D01*
X99695996Y-87356993D01*
X99704054Y-87334471D01*
X99714282Y-87312847D01*
X99726579Y-87292330D01*
X99740829Y-87273117D01*
X99756893Y-87255393D01*
X99774617Y-87239329D01*
X99793830Y-87225079D01*
X99814347Y-87212782D01*
X99835971Y-87202554D01*
X99858493Y-87194496D01*
X99881697Y-87188684D01*
X99905358Y-87185174D01*
X99929250Y-87184000D01*
X100416750Y-87184000D01*
X100440642Y-87185174D01*
X100440642Y-87185174D01*
G37*
D13*
X100173000Y-87884000D03*
D10*
G36*
X98565642Y-87185174D02*
X98589303Y-87188684D01*
X98612507Y-87194496D01*
X98635029Y-87202554D01*
X98656653Y-87212782D01*
X98677170Y-87225079D01*
X98696383Y-87239329D01*
X98714107Y-87255393D01*
X98730171Y-87273117D01*
X98744421Y-87292330D01*
X98756718Y-87312847D01*
X98766946Y-87334471D01*
X98775004Y-87356993D01*
X98780816Y-87380197D01*
X98784326Y-87403858D01*
X98785500Y-87427750D01*
X98785500Y-88340250D01*
X98784326Y-88364142D01*
X98780816Y-88387803D01*
X98775004Y-88411007D01*
X98766946Y-88433529D01*
X98756718Y-88455153D01*
X98744421Y-88475670D01*
X98730171Y-88494883D01*
X98714107Y-88512607D01*
X98696383Y-88528671D01*
X98677170Y-88542921D01*
X98656653Y-88555218D01*
X98635029Y-88565446D01*
X98612507Y-88573504D01*
X98589303Y-88579316D01*
X98565642Y-88582826D01*
X98541750Y-88584000D01*
X98054250Y-88584000D01*
X98030358Y-88582826D01*
X98006697Y-88579316D01*
X97983493Y-88573504D01*
X97960971Y-88565446D01*
X97939347Y-88555218D01*
X97918830Y-88542921D01*
X97899617Y-88528671D01*
X97881893Y-88512607D01*
X97865829Y-88494883D01*
X97851579Y-88475670D01*
X97839282Y-88455153D01*
X97829054Y-88433529D01*
X97820996Y-88411007D01*
X97815184Y-88387803D01*
X97811674Y-88364142D01*
X97810500Y-88340250D01*
X97810500Y-87427750D01*
X97811674Y-87403858D01*
X97815184Y-87380197D01*
X97820996Y-87356993D01*
X97829054Y-87334471D01*
X97839282Y-87312847D01*
X97851579Y-87292330D01*
X97865829Y-87273117D01*
X97881893Y-87255393D01*
X97899617Y-87239329D01*
X97918830Y-87225079D01*
X97939347Y-87212782D01*
X97960971Y-87202554D01*
X97983493Y-87194496D01*
X98006697Y-87188684D01*
X98030358Y-87185174D01*
X98054250Y-87184000D01*
X98541750Y-87184000D01*
X98565642Y-87185174D01*
X98565642Y-87185174D01*
G37*
D13*
X98298000Y-87884000D03*
G04 #@! TD*
D10*
G04 #@! TO.C,D5*
G36*
X98565642Y-82613174D02*
X98589303Y-82616684D01*
X98612507Y-82622496D01*
X98635029Y-82630554D01*
X98656653Y-82640782D01*
X98677170Y-82653079D01*
X98696383Y-82667329D01*
X98714107Y-82683393D01*
X98730171Y-82701117D01*
X98744421Y-82720330D01*
X98756718Y-82740847D01*
X98766946Y-82762471D01*
X98775004Y-82784993D01*
X98780816Y-82808197D01*
X98784326Y-82831858D01*
X98785500Y-82855750D01*
X98785500Y-83768250D01*
X98784326Y-83792142D01*
X98780816Y-83815803D01*
X98775004Y-83839007D01*
X98766946Y-83861529D01*
X98756718Y-83883153D01*
X98744421Y-83903670D01*
X98730171Y-83922883D01*
X98714107Y-83940607D01*
X98696383Y-83956671D01*
X98677170Y-83970921D01*
X98656653Y-83983218D01*
X98635029Y-83993446D01*
X98612507Y-84001504D01*
X98589303Y-84007316D01*
X98565642Y-84010826D01*
X98541750Y-84012000D01*
X98054250Y-84012000D01*
X98030358Y-84010826D01*
X98006697Y-84007316D01*
X97983493Y-84001504D01*
X97960971Y-83993446D01*
X97939347Y-83983218D01*
X97918830Y-83970921D01*
X97899617Y-83956671D01*
X97881893Y-83940607D01*
X97865829Y-83922883D01*
X97851579Y-83903670D01*
X97839282Y-83883153D01*
X97829054Y-83861529D01*
X97820996Y-83839007D01*
X97815184Y-83815803D01*
X97811674Y-83792142D01*
X97810500Y-83768250D01*
X97810500Y-82855750D01*
X97811674Y-82831858D01*
X97815184Y-82808197D01*
X97820996Y-82784993D01*
X97829054Y-82762471D01*
X97839282Y-82740847D01*
X97851579Y-82720330D01*
X97865829Y-82701117D01*
X97881893Y-82683393D01*
X97899617Y-82667329D01*
X97918830Y-82653079D01*
X97939347Y-82640782D01*
X97960971Y-82630554D01*
X97983493Y-82622496D01*
X98006697Y-82616684D01*
X98030358Y-82613174D01*
X98054250Y-82612000D01*
X98541750Y-82612000D01*
X98565642Y-82613174D01*
X98565642Y-82613174D01*
G37*
D13*
X98298000Y-83312000D03*
D10*
G36*
X100440642Y-82613174D02*
X100464303Y-82616684D01*
X100487507Y-82622496D01*
X100510029Y-82630554D01*
X100531653Y-82640782D01*
X100552170Y-82653079D01*
X100571383Y-82667329D01*
X100589107Y-82683393D01*
X100605171Y-82701117D01*
X100619421Y-82720330D01*
X100631718Y-82740847D01*
X100641946Y-82762471D01*
X100650004Y-82784993D01*
X100655816Y-82808197D01*
X100659326Y-82831858D01*
X100660500Y-82855750D01*
X100660500Y-83768250D01*
X100659326Y-83792142D01*
X100655816Y-83815803D01*
X100650004Y-83839007D01*
X100641946Y-83861529D01*
X100631718Y-83883153D01*
X100619421Y-83903670D01*
X100605171Y-83922883D01*
X100589107Y-83940607D01*
X100571383Y-83956671D01*
X100552170Y-83970921D01*
X100531653Y-83983218D01*
X100510029Y-83993446D01*
X100487507Y-84001504D01*
X100464303Y-84007316D01*
X100440642Y-84010826D01*
X100416750Y-84012000D01*
X99929250Y-84012000D01*
X99905358Y-84010826D01*
X99881697Y-84007316D01*
X99858493Y-84001504D01*
X99835971Y-83993446D01*
X99814347Y-83983218D01*
X99793830Y-83970921D01*
X99774617Y-83956671D01*
X99756893Y-83940607D01*
X99740829Y-83922883D01*
X99726579Y-83903670D01*
X99714282Y-83883153D01*
X99704054Y-83861529D01*
X99695996Y-83839007D01*
X99690184Y-83815803D01*
X99686674Y-83792142D01*
X99685500Y-83768250D01*
X99685500Y-82855750D01*
X99686674Y-82831858D01*
X99690184Y-82808197D01*
X99695996Y-82784993D01*
X99704054Y-82762471D01*
X99714282Y-82740847D01*
X99726579Y-82720330D01*
X99740829Y-82701117D01*
X99756893Y-82683393D01*
X99774617Y-82667329D01*
X99793830Y-82653079D01*
X99814347Y-82640782D01*
X99835971Y-82630554D01*
X99858493Y-82622496D01*
X99881697Y-82616684D01*
X99905358Y-82613174D01*
X99929250Y-82612000D01*
X100416750Y-82612000D01*
X100440642Y-82613174D01*
X100440642Y-82613174D01*
G37*
D13*
X100173000Y-83312000D03*
G04 #@! TD*
D17*
G04 #@! TO.C,L1*
X96266000Y-98298000D03*
X92666000Y-98298000D03*
G04 #@! TD*
D10*
G04 #@! TO.C,R1*
G36*
X51331691Y-81351553D02*
X51352926Y-81354703D01*
X51373750Y-81359919D01*
X51393962Y-81367151D01*
X51413368Y-81376330D01*
X51431781Y-81387366D01*
X51449024Y-81400154D01*
X51464930Y-81414570D01*
X51479346Y-81430476D01*
X51492134Y-81447719D01*
X51503170Y-81466132D01*
X51512349Y-81485538D01*
X51519581Y-81505750D01*
X51524797Y-81526574D01*
X51527947Y-81547809D01*
X51529000Y-81569250D01*
X51529000Y-82006750D01*
X51527947Y-82028191D01*
X51524797Y-82049426D01*
X51519581Y-82070250D01*
X51512349Y-82090462D01*
X51503170Y-82109868D01*
X51492134Y-82128281D01*
X51479346Y-82145524D01*
X51464930Y-82161430D01*
X51449024Y-82175846D01*
X51431781Y-82188634D01*
X51413368Y-82199670D01*
X51393962Y-82208849D01*
X51373750Y-82216081D01*
X51352926Y-82221297D01*
X51331691Y-82224447D01*
X51310250Y-82225500D01*
X50797750Y-82225500D01*
X50776309Y-82224447D01*
X50755074Y-82221297D01*
X50734250Y-82216081D01*
X50714038Y-82208849D01*
X50694632Y-82199670D01*
X50676219Y-82188634D01*
X50658976Y-82175846D01*
X50643070Y-82161430D01*
X50628654Y-82145524D01*
X50615866Y-82128281D01*
X50604830Y-82109868D01*
X50595651Y-82090462D01*
X50588419Y-82070250D01*
X50583203Y-82049426D01*
X50580053Y-82028191D01*
X50579000Y-82006750D01*
X50579000Y-81569250D01*
X50580053Y-81547809D01*
X50583203Y-81526574D01*
X50588419Y-81505750D01*
X50595651Y-81485538D01*
X50604830Y-81466132D01*
X50615866Y-81447719D01*
X50628654Y-81430476D01*
X50643070Y-81414570D01*
X50658976Y-81400154D01*
X50676219Y-81387366D01*
X50694632Y-81376330D01*
X50714038Y-81367151D01*
X50734250Y-81359919D01*
X50755074Y-81354703D01*
X50776309Y-81351553D01*
X50797750Y-81350500D01*
X51310250Y-81350500D01*
X51331691Y-81351553D01*
X51331691Y-81351553D01*
G37*
D11*
X51054000Y-81788000D03*
D10*
G36*
X51331691Y-82926553D02*
X51352926Y-82929703D01*
X51373750Y-82934919D01*
X51393962Y-82942151D01*
X51413368Y-82951330D01*
X51431781Y-82962366D01*
X51449024Y-82975154D01*
X51464930Y-82989570D01*
X51479346Y-83005476D01*
X51492134Y-83022719D01*
X51503170Y-83041132D01*
X51512349Y-83060538D01*
X51519581Y-83080750D01*
X51524797Y-83101574D01*
X51527947Y-83122809D01*
X51529000Y-83144250D01*
X51529000Y-83581750D01*
X51527947Y-83603191D01*
X51524797Y-83624426D01*
X51519581Y-83645250D01*
X51512349Y-83665462D01*
X51503170Y-83684868D01*
X51492134Y-83703281D01*
X51479346Y-83720524D01*
X51464930Y-83736430D01*
X51449024Y-83750846D01*
X51431781Y-83763634D01*
X51413368Y-83774670D01*
X51393962Y-83783849D01*
X51373750Y-83791081D01*
X51352926Y-83796297D01*
X51331691Y-83799447D01*
X51310250Y-83800500D01*
X50797750Y-83800500D01*
X50776309Y-83799447D01*
X50755074Y-83796297D01*
X50734250Y-83791081D01*
X50714038Y-83783849D01*
X50694632Y-83774670D01*
X50676219Y-83763634D01*
X50658976Y-83750846D01*
X50643070Y-83736430D01*
X50628654Y-83720524D01*
X50615866Y-83703281D01*
X50604830Y-83684868D01*
X50595651Y-83665462D01*
X50588419Y-83645250D01*
X50583203Y-83624426D01*
X50580053Y-83603191D01*
X50579000Y-83581750D01*
X50579000Y-83144250D01*
X50580053Y-83122809D01*
X50583203Y-83101574D01*
X50588419Y-83080750D01*
X50595651Y-83060538D01*
X50604830Y-83041132D01*
X50615866Y-83022719D01*
X50628654Y-83005476D01*
X50643070Y-82989570D01*
X50658976Y-82975154D01*
X50676219Y-82962366D01*
X50694632Y-82951330D01*
X50714038Y-82942151D01*
X50734250Y-82934919D01*
X50755074Y-82929703D01*
X50776309Y-82926553D01*
X50797750Y-82925500D01*
X51310250Y-82925500D01*
X51331691Y-82926553D01*
X51331691Y-82926553D01*
G37*
D11*
X51054000Y-83363000D03*
G04 #@! TD*
D10*
G04 #@! TO.C,R2*
G36*
X49553691Y-82926553D02*
X49574926Y-82929703D01*
X49595750Y-82934919D01*
X49615962Y-82942151D01*
X49635368Y-82951330D01*
X49653781Y-82962366D01*
X49671024Y-82975154D01*
X49686930Y-82989570D01*
X49701346Y-83005476D01*
X49714134Y-83022719D01*
X49725170Y-83041132D01*
X49734349Y-83060538D01*
X49741581Y-83080750D01*
X49746797Y-83101574D01*
X49749947Y-83122809D01*
X49751000Y-83144250D01*
X49751000Y-83581750D01*
X49749947Y-83603191D01*
X49746797Y-83624426D01*
X49741581Y-83645250D01*
X49734349Y-83665462D01*
X49725170Y-83684868D01*
X49714134Y-83703281D01*
X49701346Y-83720524D01*
X49686930Y-83736430D01*
X49671024Y-83750846D01*
X49653781Y-83763634D01*
X49635368Y-83774670D01*
X49615962Y-83783849D01*
X49595750Y-83791081D01*
X49574926Y-83796297D01*
X49553691Y-83799447D01*
X49532250Y-83800500D01*
X49019750Y-83800500D01*
X48998309Y-83799447D01*
X48977074Y-83796297D01*
X48956250Y-83791081D01*
X48936038Y-83783849D01*
X48916632Y-83774670D01*
X48898219Y-83763634D01*
X48880976Y-83750846D01*
X48865070Y-83736430D01*
X48850654Y-83720524D01*
X48837866Y-83703281D01*
X48826830Y-83684868D01*
X48817651Y-83665462D01*
X48810419Y-83645250D01*
X48805203Y-83624426D01*
X48802053Y-83603191D01*
X48801000Y-83581750D01*
X48801000Y-83144250D01*
X48802053Y-83122809D01*
X48805203Y-83101574D01*
X48810419Y-83080750D01*
X48817651Y-83060538D01*
X48826830Y-83041132D01*
X48837866Y-83022719D01*
X48850654Y-83005476D01*
X48865070Y-82989570D01*
X48880976Y-82975154D01*
X48898219Y-82962366D01*
X48916632Y-82951330D01*
X48936038Y-82942151D01*
X48956250Y-82934919D01*
X48977074Y-82929703D01*
X48998309Y-82926553D01*
X49019750Y-82925500D01*
X49532250Y-82925500D01*
X49553691Y-82926553D01*
X49553691Y-82926553D01*
G37*
D11*
X49276000Y-83363000D03*
D10*
G36*
X49553691Y-81351553D02*
X49574926Y-81354703D01*
X49595750Y-81359919D01*
X49615962Y-81367151D01*
X49635368Y-81376330D01*
X49653781Y-81387366D01*
X49671024Y-81400154D01*
X49686930Y-81414570D01*
X49701346Y-81430476D01*
X49714134Y-81447719D01*
X49725170Y-81466132D01*
X49734349Y-81485538D01*
X49741581Y-81505750D01*
X49746797Y-81526574D01*
X49749947Y-81547809D01*
X49751000Y-81569250D01*
X49751000Y-82006750D01*
X49749947Y-82028191D01*
X49746797Y-82049426D01*
X49741581Y-82070250D01*
X49734349Y-82090462D01*
X49725170Y-82109868D01*
X49714134Y-82128281D01*
X49701346Y-82145524D01*
X49686930Y-82161430D01*
X49671024Y-82175846D01*
X49653781Y-82188634D01*
X49635368Y-82199670D01*
X49615962Y-82208849D01*
X49595750Y-82216081D01*
X49574926Y-82221297D01*
X49553691Y-82224447D01*
X49532250Y-82225500D01*
X49019750Y-82225500D01*
X48998309Y-82224447D01*
X48977074Y-82221297D01*
X48956250Y-82216081D01*
X48936038Y-82208849D01*
X48916632Y-82199670D01*
X48898219Y-82188634D01*
X48880976Y-82175846D01*
X48865070Y-82161430D01*
X48850654Y-82145524D01*
X48837866Y-82128281D01*
X48826830Y-82109868D01*
X48817651Y-82090462D01*
X48810419Y-82070250D01*
X48805203Y-82049426D01*
X48802053Y-82028191D01*
X48801000Y-82006750D01*
X48801000Y-81569250D01*
X48802053Y-81547809D01*
X48805203Y-81526574D01*
X48810419Y-81505750D01*
X48817651Y-81485538D01*
X48826830Y-81466132D01*
X48837866Y-81447719D01*
X48850654Y-81430476D01*
X48865070Y-81414570D01*
X48880976Y-81400154D01*
X48898219Y-81387366D01*
X48916632Y-81376330D01*
X48936038Y-81367151D01*
X48956250Y-81359919D01*
X48977074Y-81354703D01*
X48998309Y-81351553D01*
X49019750Y-81350500D01*
X49532250Y-81350500D01*
X49553691Y-81351553D01*
X49553691Y-81351553D01*
G37*
D11*
X49276000Y-81788000D03*
G04 #@! TD*
D10*
G04 #@! TO.C,R3*
G36*
X66727505Y-73028204D02*
X66751773Y-73031804D01*
X66775572Y-73037765D01*
X66798671Y-73046030D01*
X66820850Y-73056520D01*
X66841893Y-73069132D01*
X66861599Y-73083747D01*
X66879777Y-73100223D01*
X66896253Y-73118401D01*
X66910868Y-73138107D01*
X66923480Y-73159150D01*
X66933970Y-73181329D01*
X66942235Y-73204428D01*
X66948196Y-73228227D01*
X66951796Y-73252495D01*
X66953000Y-73276999D01*
X66953000Y-74127001D01*
X66951796Y-74151505D01*
X66948196Y-74175773D01*
X66942235Y-74199572D01*
X66933970Y-74222671D01*
X66923480Y-74244850D01*
X66910868Y-74265893D01*
X66896253Y-74285599D01*
X66879777Y-74303777D01*
X66861599Y-74320253D01*
X66841893Y-74334868D01*
X66820850Y-74347480D01*
X66798671Y-74357970D01*
X66775572Y-74366235D01*
X66751773Y-74372196D01*
X66727505Y-74375796D01*
X66703001Y-74377000D01*
X63852999Y-74377000D01*
X63828495Y-74375796D01*
X63804227Y-74372196D01*
X63780428Y-74366235D01*
X63757329Y-74357970D01*
X63735150Y-74347480D01*
X63714107Y-74334868D01*
X63694401Y-74320253D01*
X63676223Y-74303777D01*
X63659747Y-74285599D01*
X63645132Y-74265893D01*
X63632520Y-74244850D01*
X63622030Y-74222671D01*
X63613765Y-74199572D01*
X63607804Y-74175773D01*
X63604204Y-74151505D01*
X63603000Y-74127001D01*
X63603000Y-73276999D01*
X63604204Y-73252495D01*
X63607804Y-73228227D01*
X63613765Y-73204428D01*
X63622030Y-73181329D01*
X63632520Y-73159150D01*
X63645132Y-73138107D01*
X63659747Y-73118401D01*
X63676223Y-73100223D01*
X63694401Y-73083747D01*
X63714107Y-73069132D01*
X63735150Y-73056520D01*
X63757329Y-73046030D01*
X63780428Y-73037765D01*
X63804227Y-73031804D01*
X63828495Y-73028204D01*
X63852999Y-73027000D01*
X66703001Y-73027000D01*
X66727505Y-73028204D01*
X66727505Y-73028204D01*
G37*
D18*
X65278000Y-73702000D03*
D10*
G36*
X66727505Y-78828204D02*
X66751773Y-78831804D01*
X66775572Y-78837765D01*
X66798671Y-78846030D01*
X66820850Y-78856520D01*
X66841893Y-78869132D01*
X66861599Y-78883747D01*
X66879777Y-78900223D01*
X66896253Y-78918401D01*
X66910868Y-78938107D01*
X66923480Y-78959150D01*
X66933970Y-78981329D01*
X66942235Y-79004428D01*
X66948196Y-79028227D01*
X66951796Y-79052495D01*
X66953000Y-79076999D01*
X66953000Y-79927001D01*
X66951796Y-79951505D01*
X66948196Y-79975773D01*
X66942235Y-79999572D01*
X66933970Y-80022671D01*
X66923480Y-80044850D01*
X66910868Y-80065893D01*
X66896253Y-80085599D01*
X66879777Y-80103777D01*
X66861599Y-80120253D01*
X66841893Y-80134868D01*
X66820850Y-80147480D01*
X66798671Y-80157970D01*
X66775572Y-80166235D01*
X66751773Y-80172196D01*
X66727505Y-80175796D01*
X66703001Y-80177000D01*
X63852999Y-80177000D01*
X63828495Y-80175796D01*
X63804227Y-80172196D01*
X63780428Y-80166235D01*
X63757329Y-80157970D01*
X63735150Y-80147480D01*
X63714107Y-80134868D01*
X63694401Y-80120253D01*
X63676223Y-80103777D01*
X63659747Y-80085599D01*
X63645132Y-80065893D01*
X63632520Y-80044850D01*
X63622030Y-80022671D01*
X63613765Y-79999572D01*
X63607804Y-79975773D01*
X63604204Y-79951505D01*
X63603000Y-79927001D01*
X63603000Y-79076999D01*
X63604204Y-79052495D01*
X63607804Y-79028227D01*
X63613765Y-79004428D01*
X63622030Y-78981329D01*
X63632520Y-78959150D01*
X63645132Y-78938107D01*
X63659747Y-78918401D01*
X63676223Y-78900223D01*
X63694401Y-78883747D01*
X63714107Y-78869132D01*
X63735150Y-78856520D01*
X63757329Y-78846030D01*
X63780428Y-78837765D01*
X63804227Y-78831804D01*
X63828495Y-78828204D01*
X63852999Y-78827000D01*
X66703001Y-78827000D01*
X66727505Y-78828204D01*
X66727505Y-78828204D01*
G37*
D18*
X65278000Y-79502000D03*
G04 #@! TD*
D10*
G04 #@! TO.C,R4*
G36*
X62663505Y-102704204D02*
X62687773Y-102707804D01*
X62711572Y-102713765D01*
X62734671Y-102722030D01*
X62756850Y-102732520D01*
X62777893Y-102745132D01*
X62797599Y-102759747D01*
X62815777Y-102776223D01*
X62832253Y-102794401D01*
X62846868Y-102814107D01*
X62859480Y-102835150D01*
X62869970Y-102857329D01*
X62878235Y-102880428D01*
X62884196Y-102904227D01*
X62887796Y-102928495D01*
X62889000Y-102952999D01*
X62889000Y-103803001D01*
X62887796Y-103827505D01*
X62884196Y-103851773D01*
X62878235Y-103875572D01*
X62869970Y-103898671D01*
X62859480Y-103920850D01*
X62846868Y-103941893D01*
X62832253Y-103961599D01*
X62815777Y-103979777D01*
X62797599Y-103996253D01*
X62777893Y-104010868D01*
X62756850Y-104023480D01*
X62734671Y-104033970D01*
X62711572Y-104042235D01*
X62687773Y-104048196D01*
X62663505Y-104051796D01*
X62639001Y-104053000D01*
X59788999Y-104053000D01*
X59764495Y-104051796D01*
X59740227Y-104048196D01*
X59716428Y-104042235D01*
X59693329Y-104033970D01*
X59671150Y-104023480D01*
X59650107Y-104010868D01*
X59630401Y-103996253D01*
X59612223Y-103979777D01*
X59595747Y-103961599D01*
X59581132Y-103941893D01*
X59568520Y-103920850D01*
X59558030Y-103898671D01*
X59549765Y-103875572D01*
X59543804Y-103851773D01*
X59540204Y-103827505D01*
X59539000Y-103803001D01*
X59539000Y-102952999D01*
X59540204Y-102928495D01*
X59543804Y-102904227D01*
X59549765Y-102880428D01*
X59558030Y-102857329D01*
X59568520Y-102835150D01*
X59581132Y-102814107D01*
X59595747Y-102794401D01*
X59612223Y-102776223D01*
X59630401Y-102759747D01*
X59650107Y-102745132D01*
X59671150Y-102732520D01*
X59693329Y-102722030D01*
X59716428Y-102713765D01*
X59740227Y-102707804D01*
X59764495Y-102704204D01*
X59788999Y-102703000D01*
X62639001Y-102703000D01*
X62663505Y-102704204D01*
X62663505Y-102704204D01*
G37*
D18*
X61214000Y-103378000D03*
D10*
G36*
X62663505Y-108504204D02*
X62687773Y-108507804D01*
X62711572Y-108513765D01*
X62734671Y-108522030D01*
X62756850Y-108532520D01*
X62777893Y-108545132D01*
X62797599Y-108559747D01*
X62815777Y-108576223D01*
X62832253Y-108594401D01*
X62846868Y-108614107D01*
X62859480Y-108635150D01*
X62869970Y-108657329D01*
X62878235Y-108680428D01*
X62884196Y-108704227D01*
X62887796Y-108728495D01*
X62889000Y-108752999D01*
X62889000Y-109603001D01*
X62887796Y-109627505D01*
X62884196Y-109651773D01*
X62878235Y-109675572D01*
X62869970Y-109698671D01*
X62859480Y-109720850D01*
X62846868Y-109741893D01*
X62832253Y-109761599D01*
X62815777Y-109779777D01*
X62797599Y-109796253D01*
X62777893Y-109810868D01*
X62756850Y-109823480D01*
X62734671Y-109833970D01*
X62711572Y-109842235D01*
X62687773Y-109848196D01*
X62663505Y-109851796D01*
X62639001Y-109853000D01*
X59788999Y-109853000D01*
X59764495Y-109851796D01*
X59740227Y-109848196D01*
X59716428Y-109842235D01*
X59693329Y-109833970D01*
X59671150Y-109823480D01*
X59650107Y-109810868D01*
X59630401Y-109796253D01*
X59612223Y-109779777D01*
X59595747Y-109761599D01*
X59581132Y-109741893D01*
X59568520Y-109720850D01*
X59558030Y-109698671D01*
X59549765Y-109675572D01*
X59543804Y-109651773D01*
X59540204Y-109627505D01*
X59539000Y-109603001D01*
X59539000Y-108752999D01*
X59540204Y-108728495D01*
X59543804Y-108704227D01*
X59549765Y-108680428D01*
X59558030Y-108657329D01*
X59568520Y-108635150D01*
X59581132Y-108614107D01*
X59595747Y-108594401D01*
X59612223Y-108576223D01*
X59630401Y-108559747D01*
X59650107Y-108545132D01*
X59671150Y-108532520D01*
X59693329Y-108522030D01*
X59716428Y-108513765D01*
X59740227Y-108507804D01*
X59764495Y-108504204D01*
X59788999Y-108503000D01*
X62639001Y-108503000D01*
X62663505Y-108504204D01*
X62663505Y-108504204D01*
G37*
D18*
X61214000Y-109178000D03*
G04 #@! TD*
D10*
G04 #@! TO.C,R5*
G36*
X62663505Y-73028204D02*
X62687773Y-73031804D01*
X62711572Y-73037765D01*
X62734671Y-73046030D01*
X62756850Y-73056520D01*
X62777893Y-73069132D01*
X62797599Y-73083747D01*
X62815777Y-73100223D01*
X62832253Y-73118401D01*
X62846868Y-73138107D01*
X62859480Y-73159150D01*
X62869970Y-73181329D01*
X62878235Y-73204428D01*
X62884196Y-73228227D01*
X62887796Y-73252495D01*
X62889000Y-73276999D01*
X62889000Y-74127001D01*
X62887796Y-74151505D01*
X62884196Y-74175773D01*
X62878235Y-74199572D01*
X62869970Y-74222671D01*
X62859480Y-74244850D01*
X62846868Y-74265893D01*
X62832253Y-74285599D01*
X62815777Y-74303777D01*
X62797599Y-74320253D01*
X62777893Y-74334868D01*
X62756850Y-74347480D01*
X62734671Y-74357970D01*
X62711572Y-74366235D01*
X62687773Y-74372196D01*
X62663505Y-74375796D01*
X62639001Y-74377000D01*
X59788999Y-74377000D01*
X59764495Y-74375796D01*
X59740227Y-74372196D01*
X59716428Y-74366235D01*
X59693329Y-74357970D01*
X59671150Y-74347480D01*
X59650107Y-74334868D01*
X59630401Y-74320253D01*
X59612223Y-74303777D01*
X59595747Y-74285599D01*
X59581132Y-74265893D01*
X59568520Y-74244850D01*
X59558030Y-74222671D01*
X59549765Y-74199572D01*
X59543804Y-74175773D01*
X59540204Y-74151505D01*
X59539000Y-74127001D01*
X59539000Y-73276999D01*
X59540204Y-73252495D01*
X59543804Y-73228227D01*
X59549765Y-73204428D01*
X59558030Y-73181329D01*
X59568520Y-73159150D01*
X59581132Y-73138107D01*
X59595747Y-73118401D01*
X59612223Y-73100223D01*
X59630401Y-73083747D01*
X59650107Y-73069132D01*
X59671150Y-73056520D01*
X59693329Y-73046030D01*
X59716428Y-73037765D01*
X59740227Y-73031804D01*
X59764495Y-73028204D01*
X59788999Y-73027000D01*
X62639001Y-73027000D01*
X62663505Y-73028204D01*
X62663505Y-73028204D01*
G37*
D18*
X61214000Y-73702000D03*
D10*
G36*
X62663505Y-78828204D02*
X62687773Y-78831804D01*
X62711572Y-78837765D01*
X62734671Y-78846030D01*
X62756850Y-78856520D01*
X62777893Y-78869132D01*
X62797599Y-78883747D01*
X62815777Y-78900223D01*
X62832253Y-78918401D01*
X62846868Y-78938107D01*
X62859480Y-78959150D01*
X62869970Y-78981329D01*
X62878235Y-79004428D01*
X62884196Y-79028227D01*
X62887796Y-79052495D01*
X62889000Y-79076999D01*
X62889000Y-79927001D01*
X62887796Y-79951505D01*
X62884196Y-79975773D01*
X62878235Y-79999572D01*
X62869970Y-80022671D01*
X62859480Y-80044850D01*
X62846868Y-80065893D01*
X62832253Y-80085599D01*
X62815777Y-80103777D01*
X62797599Y-80120253D01*
X62777893Y-80134868D01*
X62756850Y-80147480D01*
X62734671Y-80157970D01*
X62711572Y-80166235D01*
X62687773Y-80172196D01*
X62663505Y-80175796D01*
X62639001Y-80177000D01*
X59788999Y-80177000D01*
X59764495Y-80175796D01*
X59740227Y-80172196D01*
X59716428Y-80166235D01*
X59693329Y-80157970D01*
X59671150Y-80147480D01*
X59650107Y-80134868D01*
X59630401Y-80120253D01*
X59612223Y-80103777D01*
X59595747Y-80085599D01*
X59581132Y-80065893D01*
X59568520Y-80044850D01*
X59558030Y-80022671D01*
X59549765Y-79999572D01*
X59543804Y-79975773D01*
X59540204Y-79951505D01*
X59539000Y-79927001D01*
X59539000Y-79076999D01*
X59540204Y-79052495D01*
X59543804Y-79028227D01*
X59549765Y-79004428D01*
X59558030Y-78981329D01*
X59568520Y-78959150D01*
X59581132Y-78938107D01*
X59595747Y-78918401D01*
X59612223Y-78900223D01*
X59630401Y-78883747D01*
X59650107Y-78869132D01*
X59671150Y-78856520D01*
X59693329Y-78846030D01*
X59716428Y-78837765D01*
X59740227Y-78831804D01*
X59764495Y-78828204D01*
X59788999Y-78827000D01*
X62639001Y-78827000D01*
X62663505Y-78828204D01*
X62663505Y-78828204D01*
G37*
D18*
X61214000Y-79502000D03*
G04 #@! TD*
D10*
G04 #@! TO.C,R6*
G36*
X66727505Y-102704204D02*
X66751773Y-102707804D01*
X66775572Y-102713765D01*
X66798671Y-102722030D01*
X66820850Y-102732520D01*
X66841893Y-102745132D01*
X66861599Y-102759747D01*
X66879777Y-102776223D01*
X66896253Y-102794401D01*
X66910868Y-102814107D01*
X66923480Y-102835150D01*
X66933970Y-102857329D01*
X66942235Y-102880428D01*
X66948196Y-102904227D01*
X66951796Y-102928495D01*
X66953000Y-102952999D01*
X66953000Y-103803001D01*
X66951796Y-103827505D01*
X66948196Y-103851773D01*
X66942235Y-103875572D01*
X66933970Y-103898671D01*
X66923480Y-103920850D01*
X66910868Y-103941893D01*
X66896253Y-103961599D01*
X66879777Y-103979777D01*
X66861599Y-103996253D01*
X66841893Y-104010868D01*
X66820850Y-104023480D01*
X66798671Y-104033970D01*
X66775572Y-104042235D01*
X66751773Y-104048196D01*
X66727505Y-104051796D01*
X66703001Y-104053000D01*
X63852999Y-104053000D01*
X63828495Y-104051796D01*
X63804227Y-104048196D01*
X63780428Y-104042235D01*
X63757329Y-104033970D01*
X63735150Y-104023480D01*
X63714107Y-104010868D01*
X63694401Y-103996253D01*
X63676223Y-103979777D01*
X63659747Y-103961599D01*
X63645132Y-103941893D01*
X63632520Y-103920850D01*
X63622030Y-103898671D01*
X63613765Y-103875572D01*
X63607804Y-103851773D01*
X63604204Y-103827505D01*
X63603000Y-103803001D01*
X63603000Y-102952999D01*
X63604204Y-102928495D01*
X63607804Y-102904227D01*
X63613765Y-102880428D01*
X63622030Y-102857329D01*
X63632520Y-102835150D01*
X63645132Y-102814107D01*
X63659747Y-102794401D01*
X63676223Y-102776223D01*
X63694401Y-102759747D01*
X63714107Y-102745132D01*
X63735150Y-102732520D01*
X63757329Y-102722030D01*
X63780428Y-102713765D01*
X63804227Y-102707804D01*
X63828495Y-102704204D01*
X63852999Y-102703000D01*
X66703001Y-102703000D01*
X66727505Y-102704204D01*
X66727505Y-102704204D01*
G37*
D18*
X65278000Y-103378000D03*
D10*
G36*
X66727505Y-108504204D02*
X66751773Y-108507804D01*
X66775572Y-108513765D01*
X66798671Y-108522030D01*
X66820850Y-108532520D01*
X66841893Y-108545132D01*
X66861599Y-108559747D01*
X66879777Y-108576223D01*
X66896253Y-108594401D01*
X66910868Y-108614107D01*
X66923480Y-108635150D01*
X66933970Y-108657329D01*
X66942235Y-108680428D01*
X66948196Y-108704227D01*
X66951796Y-108728495D01*
X66953000Y-108752999D01*
X66953000Y-109603001D01*
X66951796Y-109627505D01*
X66948196Y-109651773D01*
X66942235Y-109675572D01*
X66933970Y-109698671D01*
X66923480Y-109720850D01*
X66910868Y-109741893D01*
X66896253Y-109761599D01*
X66879777Y-109779777D01*
X66861599Y-109796253D01*
X66841893Y-109810868D01*
X66820850Y-109823480D01*
X66798671Y-109833970D01*
X66775572Y-109842235D01*
X66751773Y-109848196D01*
X66727505Y-109851796D01*
X66703001Y-109853000D01*
X63852999Y-109853000D01*
X63828495Y-109851796D01*
X63804227Y-109848196D01*
X63780428Y-109842235D01*
X63757329Y-109833970D01*
X63735150Y-109823480D01*
X63714107Y-109810868D01*
X63694401Y-109796253D01*
X63676223Y-109779777D01*
X63659747Y-109761599D01*
X63645132Y-109741893D01*
X63632520Y-109720850D01*
X63622030Y-109698671D01*
X63613765Y-109675572D01*
X63607804Y-109651773D01*
X63604204Y-109627505D01*
X63603000Y-109603001D01*
X63603000Y-108752999D01*
X63604204Y-108728495D01*
X63607804Y-108704227D01*
X63613765Y-108680428D01*
X63622030Y-108657329D01*
X63632520Y-108635150D01*
X63645132Y-108614107D01*
X63659747Y-108594401D01*
X63676223Y-108576223D01*
X63694401Y-108559747D01*
X63714107Y-108545132D01*
X63735150Y-108532520D01*
X63757329Y-108522030D01*
X63780428Y-108513765D01*
X63804227Y-108507804D01*
X63828495Y-108504204D01*
X63852999Y-108503000D01*
X66703001Y-108503000D01*
X66727505Y-108504204D01*
X66727505Y-108504204D01*
G37*
D18*
X65278000Y-109178000D03*
G04 #@! TD*
D10*
G04 #@! TO.C,R7*
G36*
X89699191Y-78012053D02*
X89720426Y-78015203D01*
X89741250Y-78020419D01*
X89761462Y-78027651D01*
X89780868Y-78036830D01*
X89799281Y-78047866D01*
X89816524Y-78060654D01*
X89832430Y-78075070D01*
X89846846Y-78090976D01*
X89859634Y-78108219D01*
X89870670Y-78126632D01*
X89879849Y-78146038D01*
X89887081Y-78166250D01*
X89892297Y-78187074D01*
X89895447Y-78208309D01*
X89896500Y-78229750D01*
X89896500Y-78742250D01*
X89895447Y-78763691D01*
X89892297Y-78784926D01*
X89887081Y-78805750D01*
X89879849Y-78825962D01*
X89870670Y-78845368D01*
X89859634Y-78863781D01*
X89846846Y-78881024D01*
X89832430Y-78896930D01*
X89816524Y-78911346D01*
X89799281Y-78924134D01*
X89780868Y-78935170D01*
X89761462Y-78944349D01*
X89741250Y-78951581D01*
X89720426Y-78956797D01*
X89699191Y-78959947D01*
X89677750Y-78961000D01*
X89240250Y-78961000D01*
X89218809Y-78959947D01*
X89197574Y-78956797D01*
X89176750Y-78951581D01*
X89156538Y-78944349D01*
X89137132Y-78935170D01*
X89118719Y-78924134D01*
X89101476Y-78911346D01*
X89085570Y-78896930D01*
X89071154Y-78881024D01*
X89058366Y-78863781D01*
X89047330Y-78845368D01*
X89038151Y-78825962D01*
X89030919Y-78805750D01*
X89025703Y-78784926D01*
X89022553Y-78763691D01*
X89021500Y-78742250D01*
X89021500Y-78229750D01*
X89022553Y-78208309D01*
X89025703Y-78187074D01*
X89030919Y-78166250D01*
X89038151Y-78146038D01*
X89047330Y-78126632D01*
X89058366Y-78108219D01*
X89071154Y-78090976D01*
X89085570Y-78075070D01*
X89101476Y-78060654D01*
X89118719Y-78047866D01*
X89137132Y-78036830D01*
X89156538Y-78027651D01*
X89176750Y-78020419D01*
X89197574Y-78015203D01*
X89218809Y-78012053D01*
X89240250Y-78011000D01*
X89677750Y-78011000D01*
X89699191Y-78012053D01*
X89699191Y-78012053D01*
G37*
D11*
X89459000Y-78486000D03*
D10*
G36*
X88124191Y-78012053D02*
X88145426Y-78015203D01*
X88166250Y-78020419D01*
X88186462Y-78027651D01*
X88205868Y-78036830D01*
X88224281Y-78047866D01*
X88241524Y-78060654D01*
X88257430Y-78075070D01*
X88271846Y-78090976D01*
X88284634Y-78108219D01*
X88295670Y-78126632D01*
X88304849Y-78146038D01*
X88312081Y-78166250D01*
X88317297Y-78187074D01*
X88320447Y-78208309D01*
X88321500Y-78229750D01*
X88321500Y-78742250D01*
X88320447Y-78763691D01*
X88317297Y-78784926D01*
X88312081Y-78805750D01*
X88304849Y-78825962D01*
X88295670Y-78845368D01*
X88284634Y-78863781D01*
X88271846Y-78881024D01*
X88257430Y-78896930D01*
X88241524Y-78911346D01*
X88224281Y-78924134D01*
X88205868Y-78935170D01*
X88186462Y-78944349D01*
X88166250Y-78951581D01*
X88145426Y-78956797D01*
X88124191Y-78959947D01*
X88102750Y-78961000D01*
X87665250Y-78961000D01*
X87643809Y-78959947D01*
X87622574Y-78956797D01*
X87601750Y-78951581D01*
X87581538Y-78944349D01*
X87562132Y-78935170D01*
X87543719Y-78924134D01*
X87526476Y-78911346D01*
X87510570Y-78896930D01*
X87496154Y-78881024D01*
X87483366Y-78863781D01*
X87472330Y-78845368D01*
X87463151Y-78825962D01*
X87455919Y-78805750D01*
X87450703Y-78784926D01*
X87447553Y-78763691D01*
X87446500Y-78742250D01*
X87446500Y-78229750D01*
X87447553Y-78208309D01*
X87450703Y-78187074D01*
X87455919Y-78166250D01*
X87463151Y-78146038D01*
X87472330Y-78126632D01*
X87483366Y-78108219D01*
X87496154Y-78090976D01*
X87510570Y-78075070D01*
X87526476Y-78060654D01*
X87543719Y-78047866D01*
X87562132Y-78036830D01*
X87581538Y-78027651D01*
X87601750Y-78020419D01*
X87622574Y-78015203D01*
X87643809Y-78012053D01*
X87665250Y-78011000D01*
X88102750Y-78011000D01*
X88124191Y-78012053D01*
X88124191Y-78012053D01*
G37*
D11*
X87884000Y-78486000D03*
G04 #@! TD*
D10*
G04 #@! TO.C,R8*
G36*
X88124191Y-80552053D02*
X88145426Y-80555203D01*
X88166250Y-80560419D01*
X88186462Y-80567651D01*
X88205868Y-80576830D01*
X88224281Y-80587866D01*
X88241524Y-80600654D01*
X88257430Y-80615070D01*
X88271846Y-80630976D01*
X88284634Y-80648219D01*
X88295670Y-80666632D01*
X88304849Y-80686038D01*
X88312081Y-80706250D01*
X88317297Y-80727074D01*
X88320447Y-80748309D01*
X88321500Y-80769750D01*
X88321500Y-81282250D01*
X88320447Y-81303691D01*
X88317297Y-81324926D01*
X88312081Y-81345750D01*
X88304849Y-81365962D01*
X88295670Y-81385368D01*
X88284634Y-81403781D01*
X88271846Y-81421024D01*
X88257430Y-81436930D01*
X88241524Y-81451346D01*
X88224281Y-81464134D01*
X88205868Y-81475170D01*
X88186462Y-81484349D01*
X88166250Y-81491581D01*
X88145426Y-81496797D01*
X88124191Y-81499947D01*
X88102750Y-81501000D01*
X87665250Y-81501000D01*
X87643809Y-81499947D01*
X87622574Y-81496797D01*
X87601750Y-81491581D01*
X87581538Y-81484349D01*
X87562132Y-81475170D01*
X87543719Y-81464134D01*
X87526476Y-81451346D01*
X87510570Y-81436930D01*
X87496154Y-81421024D01*
X87483366Y-81403781D01*
X87472330Y-81385368D01*
X87463151Y-81365962D01*
X87455919Y-81345750D01*
X87450703Y-81324926D01*
X87447553Y-81303691D01*
X87446500Y-81282250D01*
X87446500Y-80769750D01*
X87447553Y-80748309D01*
X87450703Y-80727074D01*
X87455919Y-80706250D01*
X87463151Y-80686038D01*
X87472330Y-80666632D01*
X87483366Y-80648219D01*
X87496154Y-80630976D01*
X87510570Y-80615070D01*
X87526476Y-80600654D01*
X87543719Y-80587866D01*
X87562132Y-80576830D01*
X87581538Y-80567651D01*
X87601750Y-80560419D01*
X87622574Y-80555203D01*
X87643809Y-80552053D01*
X87665250Y-80551000D01*
X88102750Y-80551000D01*
X88124191Y-80552053D01*
X88124191Y-80552053D01*
G37*
D11*
X87884000Y-81026000D03*
D10*
G36*
X89699191Y-80552053D02*
X89720426Y-80555203D01*
X89741250Y-80560419D01*
X89761462Y-80567651D01*
X89780868Y-80576830D01*
X89799281Y-80587866D01*
X89816524Y-80600654D01*
X89832430Y-80615070D01*
X89846846Y-80630976D01*
X89859634Y-80648219D01*
X89870670Y-80666632D01*
X89879849Y-80686038D01*
X89887081Y-80706250D01*
X89892297Y-80727074D01*
X89895447Y-80748309D01*
X89896500Y-80769750D01*
X89896500Y-81282250D01*
X89895447Y-81303691D01*
X89892297Y-81324926D01*
X89887081Y-81345750D01*
X89879849Y-81365962D01*
X89870670Y-81385368D01*
X89859634Y-81403781D01*
X89846846Y-81421024D01*
X89832430Y-81436930D01*
X89816524Y-81451346D01*
X89799281Y-81464134D01*
X89780868Y-81475170D01*
X89761462Y-81484349D01*
X89741250Y-81491581D01*
X89720426Y-81496797D01*
X89699191Y-81499947D01*
X89677750Y-81501000D01*
X89240250Y-81501000D01*
X89218809Y-81499947D01*
X89197574Y-81496797D01*
X89176750Y-81491581D01*
X89156538Y-81484349D01*
X89137132Y-81475170D01*
X89118719Y-81464134D01*
X89101476Y-81451346D01*
X89085570Y-81436930D01*
X89071154Y-81421024D01*
X89058366Y-81403781D01*
X89047330Y-81385368D01*
X89038151Y-81365962D01*
X89030919Y-81345750D01*
X89025703Y-81324926D01*
X89022553Y-81303691D01*
X89021500Y-81282250D01*
X89021500Y-80769750D01*
X89022553Y-80748309D01*
X89025703Y-80727074D01*
X89030919Y-80706250D01*
X89038151Y-80686038D01*
X89047330Y-80666632D01*
X89058366Y-80648219D01*
X89071154Y-80630976D01*
X89085570Y-80615070D01*
X89101476Y-80600654D01*
X89118719Y-80587866D01*
X89137132Y-80576830D01*
X89156538Y-80567651D01*
X89176750Y-80560419D01*
X89197574Y-80555203D01*
X89218809Y-80552053D01*
X89240250Y-80551000D01*
X89677750Y-80551000D01*
X89699191Y-80552053D01*
X89699191Y-80552053D01*
G37*
D11*
X89459000Y-81026000D03*
G04 #@! TD*
D10*
G04 #@! TO.C,R9*
G36*
X103923191Y-82838053D02*
X103944426Y-82841203D01*
X103965250Y-82846419D01*
X103985462Y-82853651D01*
X104004868Y-82862830D01*
X104023281Y-82873866D01*
X104040524Y-82886654D01*
X104056430Y-82901070D01*
X104070846Y-82916976D01*
X104083634Y-82934219D01*
X104094670Y-82952632D01*
X104103849Y-82972038D01*
X104111081Y-82992250D01*
X104116297Y-83013074D01*
X104119447Y-83034309D01*
X104120500Y-83055750D01*
X104120500Y-83568250D01*
X104119447Y-83589691D01*
X104116297Y-83610926D01*
X104111081Y-83631750D01*
X104103849Y-83651962D01*
X104094670Y-83671368D01*
X104083634Y-83689781D01*
X104070846Y-83707024D01*
X104056430Y-83722930D01*
X104040524Y-83737346D01*
X104023281Y-83750134D01*
X104004868Y-83761170D01*
X103985462Y-83770349D01*
X103965250Y-83777581D01*
X103944426Y-83782797D01*
X103923191Y-83785947D01*
X103901750Y-83787000D01*
X103464250Y-83787000D01*
X103442809Y-83785947D01*
X103421574Y-83782797D01*
X103400750Y-83777581D01*
X103380538Y-83770349D01*
X103361132Y-83761170D01*
X103342719Y-83750134D01*
X103325476Y-83737346D01*
X103309570Y-83722930D01*
X103295154Y-83707024D01*
X103282366Y-83689781D01*
X103271330Y-83671368D01*
X103262151Y-83651962D01*
X103254919Y-83631750D01*
X103249703Y-83610926D01*
X103246553Y-83589691D01*
X103245500Y-83568250D01*
X103245500Y-83055750D01*
X103246553Y-83034309D01*
X103249703Y-83013074D01*
X103254919Y-82992250D01*
X103262151Y-82972038D01*
X103271330Y-82952632D01*
X103282366Y-82934219D01*
X103295154Y-82916976D01*
X103309570Y-82901070D01*
X103325476Y-82886654D01*
X103342719Y-82873866D01*
X103361132Y-82862830D01*
X103380538Y-82853651D01*
X103400750Y-82846419D01*
X103421574Y-82841203D01*
X103442809Y-82838053D01*
X103464250Y-82837000D01*
X103901750Y-82837000D01*
X103923191Y-82838053D01*
X103923191Y-82838053D01*
G37*
D11*
X103683000Y-83312000D03*
D10*
G36*
X102348191Y-82838053D02*
X102369426Y-82841203D01*
X102390250Y-82846419D01*
X102410462Y-82853651D01*
X102429868Y-82862830D01*
X102448281Y-82873866D01*
X102465524Y-82886654D01*
X102481430Y-82901070D01*
X102495846Y-82916976D01*
X102508634Y-82934219D01*
X102519670Y-82952632D01*
X102528849Y-82972038D01*
X102536081Y-82992250D01*
X102541297Y-83013074D01*
X102544447Y-83034309D01*
X102545500Y-83055750D01*
X102545500Y-83568250D01*
X102544447Y-83589691D01*
X102541297Y-83610926D01*
X102536081Y-83631750D01*
X102528849Y-83651962D01*
X102519670Y-83671368D01*
X102508634Y-83689781D01*
X102495846Y-83707024D01*
X102481430Y-83722930D01*
X102465524Y-83737346D01*
X102448281Y-83750134D01*
X102429868Y-83761170D01*
X102410462Y-83770349D01*
X102390250Y-83777581D01*
X102369426Y-83782797D01*
X102348191Y-83785947D01*
X102326750Y-83787000D01*
X101889250Y-83787000D01*
X101867809Y-83785947D01*
X101846574Y-83782797D01*
X101825750Y-83777581D01*
X101805538Y-83770349D01*
X101786132Y-83761170D01*
X101767719Y-83750134D01*
X101750476Y-83737346D01*
X101734570Y-83722930D01*
X101720154Y-83707024D01*
X101707366Y-83689781D01*
X101696330Y-83671368D01*
X101687151Y-83651962D01*
X101679919Y-83631750D01*
X101674703Y-83610926D01*
X101671553Y-83589691D01*
X101670500Y-83568250D01*
X101670500Y-83055750D01*
X101671553Y-83034309D01*
X101674703Y-83013074D01*
X101679919Y-82992250D01*
X101687151Y-82972038D01*
X101696330Y-82952632D01*
X101707366Y-82934219D01*
X101720154Y-82916976D01*
X101734570Y-82901070D01*
X101750476Y-82886654D01*
X101767719Y-82873866D01*
X101786132Y-82862830D01*
X101805538Y-82853651D01*
X101825750Y-82846419D01*
X101846574Y-82841203D01*
X101867809Y-82838053D01*
X101889250Y-82837000D01*
X102326750Y-82837000D01*
X102348191Y-82838053D01*
X102348191Y-82838053D01*
G37*
D11*
X102108000Y-83312000D03*
G04 #@! TD*
D10*
G04 #@! TO.C,R11*
G36*
X102348191Y-90966053D02*
X102369426Y-90969203D01*
X102390250Y-90974419D01*
X102410462Y-90981651D01*
X102429868Y-90990830D01*
X102448281Y-91001866D01*
X102465524Y-91014654D01*
X102481430Y-91029070D01*
X102495846Y-91044976D01*
X102508634Y-91062219D01*
X102519670Y-91080632D01*
X102528849Y-91100038D01*
X102536081Y-91120250D01*
X102541297Y-91141074D01*
X102544447Y-91162309D01*
X102545500Y-91183750D01*
X102545500Y-91696250D01*
X102544447Y-91717691D01*
X102541297Y-91738926D01*
X102536081Y-91759750D01*
X102528849Y-91779962D01*
X102519670Y-91799368D01*
X102508634Y-91817781D01*
X102495846Y-91835024D01*
X102481430Y-91850930D01*
X102465524Y-91865346D01*
X102448281Y-91878134D01*
X102429868Y-91889170D01*
X102410462Y-91898349D01*
X102390250Y-91905581D01*
X102369426Y-91910797D01*
X102348191Y-91913947D01*
X102326750Y-91915000D01*
X101889250Y-91915000D01*
X101867809Y-91913947D01*
X101846574Y-91910797D01*
X101825750Y-91905581D01*
X101805538Y-91898349D01*
X101786132Y-91889170D01*
X101767719Y-91878134D01*
X101750476Y-91865346D01*
X101734570Y-91850930D01*
X101720154Y-91835024D01*
X101707366Y-91817781D01*
X101696330Y-91799368D01*
X101687151Y-91779962D01*
X101679919Y-91759750D01*
X101674703Y-91738926D01*
X101671553Y-91717691D01*
X101670500Y-91696250D01*
X101670500Y-91183750D01*
X101671553Y-91162309D01*
X101674703Y-91141074D01*
X101679919Y-91120250D01*
X101687151Y-91100038D01*
X101696330Y-91080632D01*
X101707366Y-91062219D01*
X101720154Y-91044976D01*
X101734570Y-91029070D01*
X101750476Y-91014654D01*
X101767719Y-91001866D01*
X101786132Y-90990830D01*
X101805538Y-90981651D01*
X101825750Y-90974419D01*
X101846574Y-90969203D01*
X101867809Y-90966053D01*
X101889250Y-90965000D01*
X102326750Y-90965000D01*
X102348191Y-90966053D01*
X102348191Y-90966053D01*
G37*
D11*
X102108000Y-91440000D03*
D10*
G36*
X103923191Y-90966053D02*
X103944426Y-90969203D01*
X103965250Y-90974419D01*
X103985462Y-90981651D01*
X104004868Y-90990830D01*
X104023281Y-91001866D01*
X104040524Y-91014654D01*
X104056430Y-91029070D01*
X104070846Y-91044976D01*
X104083634Y-91062219D01*
X104094670Y-91080632D01*
X104103849Y-91100038D01*
X104111081Y-91120250D01*
X104116297Y-91141074D01*
X104119447Y-91162309D01*
X104120500Y-91183750D01*
X104120500Y-91696250D01*
X104119447Y-91717691D01*
X104116297Y-91738926D01*
X104111081Y-91759750D01*
X104103849Y-91779962D01*
X104094670Y-91799368D01*
X104083634Y-91817781D01*
X104070846Y-91835024D01*
X104056430Y-91850930D01*
X104040524Y-91865346D01*
X104023281Y-91878134D01*
X104004868Y-91889170D01*
X103985462Y-91898349D01*
X103965250Y-91905581D01*
X103944426Y-91910797D01*
X103923191Y-91913947D01*
X103901750Y-91915000D01*
X103464250Y-91915000D01*
X103442809Y-91913947D01*
X103421574Y-91910797D01*
X103400750Y-91905581D01*
X103380538Y-91898349D01*
X103361132Y-91889170D01*
X103342719Y-91878134D01*
X103325476Y-91865346D01*
X103309570Y-91850930D01*
X103295154Y-91835024D01*
X103282366Y-91817781D01*
X103271330Y-91799368D01*
X103262151Y-91779962D01*
X103254919Y-91759750D01*
X103249703Y-91738926D01*
X103246553Y-91717691D01*
X103245500Y-91696250D01*
X103245500Y-91183750D01*
X103246553Y-91162309D01*
X103249703Y-91141074D01*
X103254919Y-91120250D01*
X103262151Y-91100038D01*
X103271330Y-91080632D01*
X103282366Y-91062219D01*
X103295154Y-91044976D01*
X103309570Y-91029070D01*
X103325476Y-91014654D01*
X103342719Y-91001866D01*
X103361132Y-90990830D01*
X103380538Y-90981651D01*
X103400750Y-90974419D01*
X103421574Y-90969203D01*
X103442809Y-90966053D01*
X103464250Y-90965000D01*
X103901750Y-90965000D01*
X103923191Y-90966053D01*
X103923191Y-90966053D01*
G37*
D11*
X103683000Y-91440000D03*
G04 #@! TD*
D10*
G04 #@! TO.C,R12*
G36*
X112291691Y-76779553D02*
X112312926Y-76782703D01*
X112333750Y-76787919D01*
X112353962Y-76795151D01*
X112373368Y-76804330D01*
X112391781Y-76815366D01*
X112409024Y-76828154D01*
X112424930Y-76842570D01*
X112439346Y-76858476D01*
X112452134Y-76875719D01*
X112463170Y-76894132D01*
X112472349Y-76913538D01*
X112479581Y-76933750D01*
X112484797Y-76954574D01*
X112487947Y-76975809D01*
X112489000Y-76997250D01*
X112489000Y-77434750D01*
X112487947Y-77456191D01*
X112484797Y-77477426D01*
X112479581Y-77498250D01*
X112472349Y-77518462D01*
X112463170Y-77537868D01*
X112452134Y-77556281D01*
X112439346Y-77573524D01*
X112424930Y-77589430D01*
X112409024Y-77603846D01*
X112391781Y-77616634D01*
X112373368Y-77627670D01*
X112353962Y-77636849D01*
X112333750Y-77644081D01*
X112312926Y-77649297D01*
X112291691Y-77652447D01*
X112270250Y-77653500D01*
X111757750Y-77653500D01*
X111736309Y-77652447D01*
X111715074Y-77649297D01*
X111694250Y-77644081D01*
X111674038Y-77636849D01*
X111654632Y-77627670D01*
X111636219Y-77616634D01*
X111618976Y-77603846D01*
X111603070Y-77589430D01*
X111588654Y-77573524D01*
X111575866Y-77556281D01*
X111564830Y-77537868D01*
X111555651Y-77518462D01*
X111548419Y-77498250D01*
X111543203Y-77477426D01*
X111540053Y-77456191D01*
X111539000Y-77434750D01*
X111539000Y-76997250D01*
X111540053Y-76975809D01*
X111543203Y-76954574D01*
X111548419Y-76933750D01*
X111555651Y-76913538D01*
X111564830Y-76894132D01*
X111575866Y-76875719D01*
X111588654Y-76858476D01*
X111603070Y-76842570D01*
X111618976Y-76828154D01*
X111636219Y-76815366D01*
X111654632Y-76804330D01*
X111674038Y-76795151D01*
X111694250Y-76787919D01*
X111715074Y-76782703D01*
X111736309Y-76779553D01*
X111757750Y-76778500D01*
X112270250Y-76778500D01*
X112291691Y-76779553D01*
X112291691Y-76779553D01*
G37*
D11*
X112014000Y-77216000D03*
D10*
G36*
X112291691Y-75204553D02*
X112312926Y-75207703D01*
X112333750Y-75212919D01*
X112353962Y-75220151D01*
X112373368Y-75229330D01*
X112391781Y-75240366D01*
X112409024Y-75253154D01*
X112424930Y-75267570D01*
X112439346Y-75283476D01*
X112452134Y-75300719D01*
X112463170Y-75319132D01*
X112472349Y-75338538D01*
X112479581Y-75358750D01*
X112484797Y-75379574D01*
X112487947Y-75400809D01*
X112489000Y-75422250D01*
X112489000Y-75859750D01*
X112487947Y-75881191D01*
X112484797Y-75902426D01*
X112479581Y-75923250D01*
X112472349Y-75943462D01*
X112463170Y-75962868D01*
X112452134Y-75981281D01*
X112439346Y-75998524D01*
X112424930Y-76014430D01*
X112409024Y-76028846D01*
X112391781Y-76041634D01*
X112373368Y-76052670D01*
X112353962Y-76061849D01*
X112333750Y-76069081D01*
X112312926Y-76074297D01*
X112291691Y-76077447D01*
X112270250Y-76078500D01*
X111757750Y-76078500D01*
X111736309Y-76077447D01*
X111715074Y-76074297D01*
X111694250Y-76069081D01*
X111674038Y-76061849D01*
X111654632Y-76052670D01*
X111636219Y-76041634D01*
X111618976Y-76028846D01*
X111603070Y-76014430D01*
X111588654Y-75998524D01*
X111575866Y-75981281D01*
X111564830Y-75962868D01*
X111555651Y-75943462D01*
X111548419Y-75923250D01*
X111543203Y-75902426D01*
X111540053Y-75881191D01*
X111539000Y-75859750D01*
X111539000Y-75422250D01*
X111540053Y-75400809D01*
X111543203Y-75379574D01*
X111548419Y-75358750D01*
X111555651Y-75338538D01*
X111564830Y-75319132D01*
X111575866Y-75300719D01*
X111588654Y-75283476D01*
X111603070Y-75267570D01*
X111618976Y-75253154D01*
X111636219Y-75240366D01*
X111654632Y-75229330D01*
X111674038Y-75220151D01*
X111694250Y-75212919D01*
X111715074Y-75207703D01*
X111736309Y-75204553D01*
X111757750Y-75203500D01*
X112270250Y-75203500D01*
X112291691Y-75204553D01*
X112291691Y-75204553D01*
G37*
D11*
X112014000Y-75641000D03*
G04 #@! TD*
D10*
G04 #@! TO.C,R13*
G36*
X115847691Y-75255553D02*
X115868926Y-75258703D01*
X115889750Y-75263919D01*
X115909962Y-75271151D01*
X115929368Y-75280330D01*
X115947781Y-75291366D01*
X115965024Y-75304154D01*
X115980930Y-75318570D01*
X115995346Y-75334476D01*
X116008134Y-75351719D01*
X116019170Y-75370132D01*
X116028349Y-75389538D01*
X116035581Y-75409750D01*
X116040797Y-75430574D01*
X116043947Y-75451809D01*
X116045000Y-75473250D01*
X116045000Y-75910750D01*
X116043947Y-75932191D01*
X116040797Y-75953426D01*
X116035581Y-75974250D01*
X116028349Y-75994462D01*
X116019170Y-76013868D01*
X116008134Y-76032281D01*
X115995346Y-76049524D01*
X115980930Y-76065430D01*
X115965024Y-76079846D01*
X115947781Y-76092634D01*
X115929368Y-76103670D01*
X115909962Y-76112849D01*
X115889750Y-76120081D01*
X115868926Y-76125297D01*
X115847691Y-76128447D01*
X115826250Y-76129500D01*
X115313750Y-76129500D01*
X115292309Y-76128447D01*
X115271074Y-76125297D01*
X115250250Y-76120081D01*
X115230038Y-76112849D01*
X115210632Y-76103670D01*
X115192219Y-76092634D01*
X115174976Y-76079846D01*
X115159070Y-76065430D01*
X115144654Y-76049524D01*
X115131866Y-76032281D01*
X115120830Y-76013868D01*
X115111651Y-75994462D01*
X115104419Y-75974250D01*
X115099203Y-75953426D01*
X115096053Y-75932191D01*
X115095000Y-75910750D01*
X115095000Y-75473250D01*
X115096053Y-75451809D01*
X115099203Y-75430574D01*
X115104419Y-75409750D01*
X115111651Y-75389538D01*
X115120830Y-75370132D01*
X115131866Y-75351719D01*
X115144654Y-75334476D01*
X115159070Y-75318570D01*
X115174976Y-75304154D01*
X115192219Y-75291366D01*
X115210632Y-75280330D01*
X115230038Y-75271151D01*
X115250250Y-75263919D01*
X115271074Y-75258703D01*
X115292309Y-75255553D01*
X115313750Y-75254500D01*
X115826250Y-75254500D01*
X115847691Y-75255553D01*
X115847691Y-75255553D01*
G37*
D11*
X115570000Y-75692000D03*
D10*
G36*
X115847691Y-76830553D02*
X115868926Y-76833703D01*
X115889750Y-76838919D01*
X115909962Y-76846151D01*
X115929368Y-76855330D01*
X115947781Y-76866366D01*
X115965024Y-76879154D01*
X115980930Y-76893570D01*
X115995346Y-76909476D01*
X116008134Y-76926719D01*
X116019170Y-76945132D01*
X116028349Y-76964538D01*
X116035581Y-76984750D01*
X116040797Y-77005574D01*
X116043947Y-77026809D01*
X116045000Y-77048250D01*
X116045000Y-77485750D01*
X116043947Y-77507191D01*
X116040797Y-77528426D01*
X116035581Y-77549250D01*
X116028349Y-77569462D01*
X116019170Y-77588868D01*
X116008134Y-77607281D01*
X115995346Y-77624524D01*
X115980930Y-77640430D01*
X115965024Y-77654846D01*
X115947781Y-77667634D01*
X115929368Y-77678670D01*
X115909962Y-77687849D01*
X115889750Y-77695081D01*
X115868926Y-77700297D01*
X115847691Y-77703447D01*
X115826250Y-77704500D01*
X115313750Y-77704500D01*
X115292309Y-77703447D01*
X115271074Y-77700297D01*
X115250250Y-77695081D01*
X115230038Y-77687849D01*
X115210632Y-77678670D01*
X115192219Y-77667634D01*
X115174976Y-77654846D01*
X115159070Y-77640430D01*
X115144654Y-77624524D01*
X115131866Y-77607281D01*
X115120830Y-77588868D01*
X115111651Y-77569462D01*
X115104419Y-77549250D01*
X115099203Y-77528426D01*
X115096053Y-77507191D01*
X115095000Y-77485750D01*
X115095000Y-77048250D01*
X115096053Y-77026809D01*
X115099203Y-77005574D01*
X115104419Y-76984750D01*
X115111651Y-76964538D01*
X115120830Y-76945132D01*
X115131866Y-76926719D01*
X115144654Y-76909476D01*
X115159070Y-76893570D01*
X115174976Y-76879154D01*
X115192219Y-76866366D01*
X115210632Y-76855330D01*
X115230038Y-76846151D01*
X115250250Y-76838919D01*
X115271074Y-76833703D01*
X115292309Y-76830553D01*
X115313750Y-76829500D01*
X115826250Y-76829500D01*
X115847691Y-76830553D01*
X115847691Y-76830553D01*
G37*
D11*
X115570000Y-77267000D03*
G04 #@! TD*
D10*
G04 #@! TO.C,R14*
G36*
X97813691Y-106573753D02*
X97834926Y-106576903D01*
X97855750Y-106582119D01*
X97875962Y-106589351D01*
X97895368Y-106598530D01*
X97913781Y-106609566D01*
X97931024Y-106622354D01*
X97946930Y-106636770D01*
X97961346Y-106652676D01*
X97974134Y-106669919D01*
X97985170Y-106688332D01*
X97994349Y-106707738D01*
X98001581Y-106727950D01*
X98006797Y-106748774D01*
X98009947Y-106770009D01*
X98011000Y-106791450D01*
X98011000Y-107228950D01*
X98009947Y-107250391D01*
X98006797Y-107271626D01*
X98001581Y-107292450D01*
X97994349Y-107312662D01*
X97985170Y-107332068D01*
X97974134Y-107350481D01*
X97961346Y-107367724D01*
X97946930Y-107383630D01*
X97931024Y-107398046D01*
X97913781Y-107410834D01*
X97895368Y-107421870D01*
X97875962Y-107431049D01*
X97855750Y-107438281D01*
X97834926Y-107443497D01*
X97813691Y-107446647D01*
X97792250Y-107447700D01*
X97279750Y-107447700D01*
X97258309Y-107446647D01*
X97237074Y-107443497D01*
X97216250Y-107438281D01*
X97196038Y-107431049D01*
X97176632Y-107421870D01*
X97158219Y-107410834D01*
X97140976Y-107398046D01*
X97125070Y-107383630D01*
X97110654Y-107367724D01*
X97097866Y-107350481D01*
X97086830Y-107332068D01*
X97077651Y-107312662D01*
X97070419Y-107292450D01*
X97065203Y-107271626D01*
X97062053Y-107250391D01*
X97061000Y-107228950D01*
X97061000Y-106791450D01*
X97062053Y-106770009D01*
X97065203Y-106748774D01*
X97070419Y-106727950D01*
X97077651Y-106707738D01*
X97086830Y-106688332D01*
X97097866Y-106669919D01*
X97110654Y-106652676D01*
X97125070Y-106636770D01*
X97140976Y-106622354D01*
X97158219Y-106609566D01*
X97176632Y-106598530D01*
X97196038Y-106589351D01*
X97216250Y-106582119D01*
X97237074Y-106576903D01*
X97258309Y-106573753D01*
X97279750Y-106572700D01*
X97792250Y-106572700D01*
X97813691Y-106573753D01*
X97813691Y-106573753D01*
G37*
D11*
X97536000Y-107010200D03*
D10*
G36*
X97813691Y-104998753D02*
X97834926Y-105001903D01*
X97855750Y-105007119D01*
X97875962Y-105014351D01*
X97895368Y-105023530D01*
X97913781Y-105034566D01*
X97931024Y-105047354D01*
X97946930Y-105061770D01*
X97961346Y-105077676D01*
X97974134Y-105094919D01*
X97985170Y-105113332D01*
X97994349Y-105132738D01*
X98001581Y-105152950D01*
X98006797Y-105173774D01*
X98009947Y-105195009D01*
X98011000Y-105216450D01*
X98011000Y-105653950D01*
X98009947Y-105675391D01*
X98006797Y-105696626D01*
X98001581Y-105717450D01*
X97994349Y-105737662D01*
X97985170Y-105757068D01*
X97974134Y-105775481D01*
X97961346Y-105792724D01*
X97946930Y-105808630D01*
X97931024Y-105823046D01*
X97913781Y-105835834D01*
X97895368Y-105846870D01*
X97875962Y-105856049D01*
X97855750Y-105863281D01*
X97834926Y-105868497D01*
X97813691Y-105871647D01*
X97792250Y-105872700D01*
X97279750Y-105872700D01*
X97258309Y-105871647D01*
X97237074Y-105868497D01*
X97216250Y-105863281D01*
X97196038Y-105856049D01*
X97176632Y-105846870D01*
X97158219Y-105835834D01*
X97140976Y-105823046D01*
X97125070Y-105808630D01*
X97110654Y-105792724D01*
X97097866Y-105775481D01*
X97086830Y-105757068D01*
X97077651Y-105737662D01*
X97070419Y-105717450D01*
X97065203Y-105696626D01*
X97062053Y-105675391D01*
X97061000Y-105653950D01*
X97061000Y-105216450D01*
X97062053Y-105195009D01*
X97065203Y-105173774D01*
X97070419Y-105152950D01*
X97077651Y-105132738D01*
X97086830Y-105113332D01*
X97097866Y-105094919D01*
X97110654Y-105077676D01*
X97125070Y-105061770D01*
X97140976Y-105047354D01*
X97158219Y-105034566D01*
X97176632Y-105023530D01*
X97196038Y-105014351D01*
X97216250Y-105007119D01*
X97237074Y-105001903D01*
X97258309Y-104998753D01*
X97279750Y-104997700D01*
X97792250Y-104997700D01*
X97813691Y-104998753D01*
X97813691Y-104998753D01*
G37*
D11*
X97536000Y-105435200D03*
G04 #@! TD*
D10*
G04 #@! TO.C,R15*
G36*
X95781691Y-104998753D02*
X95802926Y-105001903D01*
X95823750Y-105007119D01*
X95843962Y-105014351D01*
X95863368Y-105023530D01*
X95881781Y-105034566D01*
X95899024Y-105047354D01*
X95914930Y-105061770D01*
X95929346Y-105077676D01*
X95942134Y-105094919D01*
X95953170Y-105113332D01*
X95962349Y-105132738D01*
X95969581Y-105152950D01*
X95974797Y-105173774D01*
X95977947Y-105195009D01*
X95979000Y-105216450D01*
X95979000Y-105653950D01*
X95977947Y-105675391D01*
X95974797Y-105696626D01*
X95969581Y-105717450D01*
X95962349Y-105737662D01*
X95953170Y-105757068D01*
X95942134Y-105775481D01*
X95929346Y-105792724D01*
X95914930Y-105808630D01*
X95899024Y-105823046D01*
X95881781Y-105835834D01*
X95863368Y-105846870D01*
X95843962Y-105856049D01*
X95823750Y-105863281D01*
X95802926Y-105868497D01*
X95781691Y-105871647D01*
X95760250Y-105872700D01*
X95247750Y-105872700D01*
X95226309Y-105871647D01*
X95205074Y-105868497D01*
X95184250Y-105863281D01*
X95164038Y-105856049D01*
X95144632Y-105846870D01*
X95126219Y-105835834D01*
X95108976Y-105823046D01*
X95093070Y-105808630D01*
X95078654Y-105792724D01*
X95065866Y-105775481D01*
X95054830Y-105757068D01*
X95045651Y-105737662D01*
X95038419Y-105717450D01*
X95033203Y-105696626D01*
X95030053Y-105675391D01*
X95029000Y-105653950D01*
X95029000Y-105216450D01*
X95030053Y-105195009D01*
X95033203Y-105173774D01*
X95038419Y-105152950D01*
X95045651Y-105132738D01*
X95054830Y-105113332D01*
X95065866Y-105094919D01*
X95078654Y-105077676D01*
X95093070Y-105061770D01*
X95108976Y-105047354D01*
X95126219Y-105034566D01*
X95144632Y-105023530D01*
X95164038Y-105014351D01*
X95184250Y-105007119D01*
X95205074Y-105001903D01*
X95226309Y-104998753D01*
X95247750Y-104997700D01*
X95760250Y-104997700D01*
X95781691Y-104998753D01*
X95781691Y-104998753D01*
G37*
D11*
X95504000Y-105435200D03*
D10*
G36*
X95781691Y-106573753D02*
X95802926Y-106576903D01*
X95823750Y-106582119D01*
X95843962Y-106589351D01*
X95863368Y-106598530D01*
X95881781Y-106609566D01*
X95899024Y-106622354D01*
X95914930Y-106636770D01*
X95929346Y-106652676D01*
X95942134Y-106669919D01*
X95953170Y-106688332D01*
X95962349Y-106707738D01*
X95969581Y-106727950D01*
X95974797Y-106748774D01*
X95977947Y-106770009D01*
X95979000Y-106791450D01*
X95979000Y-107228950D01*
X95977947Y-107250391D01*
X95974797Y-107271626D01*
X95969581Y-107292450D01*
X95962349Y-107312662D01*
X95953170Y-107332068D01*
X95942134Y-107350481D01*
X95929346Y-107367724D01*
X95914930Y-107383630D01*
X95899024Y-107398046D01*
X95881781Y-107410834D01*
X95863368Y-107421870D01*
X95843962Y-107431049D01*
X95823750Y-107438281D01*
X95802926Y-107443497D01*
X95781691Y-107446647D01*
X95760250Y-107447700D01*
X95247750Y-107447700D01*
X95226309Y-107446647D01*
X95205074Y-107443497D01*
X95184250Y-107438281D01*
X95164038Y-107431049D01*
X95144632Y-107421870D01*
X95126219Y-107410834D01*
X95108976Y-107398046D01*
X95093070Y-107383630D01*
X95078654Y-107367724D01*
X95065866Y-107350481D01*
X95054830Y-107332068D01*
X95045651Y-107312662D01*
X95038419Y-107292450D01*
X95033203Y-107271626D01*
X95030053Y-107250391D01*
X95029000Y-107228950D01*
X95029000Y-106791450D01*
X95030053Y-106770009D01*
X95033203Y-106748774D01*
X95038419Y-106727950D01*
X95045651Y-106707738D01*
X95054830Y-106688332D01*
X95065866Y-106669919D01*
X95078654Y-106652676D01*
X95093070Y-106636770D01*
X95108976Y-106622354D01*
X95126219Y-106609566D01*
X95144632Y-106598530D01*
X95164038Y-106589351D01*
X95184250Y-106582119D01*
X95205074Y-106576903D01*
X95226309Y-106573753D01*
X95247750Y-106572700D01*
X95760250Y-106572700D01*
X95781691Y-106573753D01*
X95781691Y-106573753D01*
G37*
D11*
X95504000Y-107010200D03*
G04 #@! TD*
D19*
G04 #@! TO.C,U1*
X122300000Y-83500000D03*
X120800000Y-83500000D03*
X119300000Y-83500000D03*
X117800000Y-83500000D03*
X116300000Y-83500000D03*
X114800000Y-83500000D03*
X113300000Y-83500000D03*
X111800000Y-83500000D03*
X110300000Y-83500000D03*
X110300000Y-101500000D03*
X111800000Y-101500000D03*
X113300000Y-101500000D03*
X114800000Y-101500000D03*
X116300000Y-101500000D03*
X117800000Y-101500000D03*
X119300000Y-101500000D03*
X120800000Y-101500000D03*
X122300000Y-101500000D03*
D20*
X115720000Y-93620000D03*
G04 #@! TD*
D21*
G04 #@! TO.C,U2*
X63166000Y-91440000D03*
D22*
X64616000Y-95705000D03*
X61876000Y-95705000D03*
X64616000Y-87175000D03*
X61876000Y-87175000D03*
D23*
X64656000Y-98240000D03*
X61836000Y-98240000D03*
X64656000Y-84640000D03*
X61836000Y-84640000D03*
D24*
X63556000Y-84440000D03*
X62936000Y-84440000D03*
X60736000Y-84440000D03*
X65756000Y-84440000D03*
X63556000Y-98440000D03*
X62936000Y-98440000D03*
X60736000Y-98440000D03*
X65756000Y-98440000D03*
D25*
X68746000Y-91230000D03*
X68746000Y-90830000D03*
X68746000Y-90430000D03*
X68746000Y-90030000D03*
X68746000Y-89630000D03*
X68746000Y-89230000D03*
X68746000Y-88790000D03*
X68746000Y-88190000D03*
X68746000Y-91650000D03*
X68746000Y-92050000D03*
X68746000Y-92450000D03*
X68746000Y-92850000D03*
X68746000Y-93250000D03*
X68746000Y-93650000D03*
X68746000Y-94090000D03*
X68746000Y-94690000D03*
X57746000Y-91040000D03*
X57746000Y-91440000D03*
X57746000Y-90640000D03*
X57746000Y-89920000D03*
X57746000Y-89520000D03*
X57746000Y-88790000D03*
X57746000Y-88190000D03*
X57746000Y-91840000D03*
X57746000Y-92560000D03*
X57746000Y-93290000D03*
X57746000Y-93690000D03*
X57746000Y-94090000D03*
X57746000Y-94690000D03*
D26*
X67336000Y-86185000D03*
X59156000Y-86185000D03*
X59156000Y-96695000D03*
X67336000Y-96695000D03*
D27*
X58946000Y-84400000D03*
X67546000Y-84400000D03*
X58946000Y-98480000D03*
X67546000Y-98480000D03*
D28*
X57726000Y-86125000D03*
X57726000Y-96755000D03*
X68766000Y-96755000D03*
X68766000Y-86125000D03*
G04 #@! TD*
D29*
G04 #@! TO.C,U3*
X88524000Y-103394000D03*
X88524000Y-103894000D03*
X88524000Y-104394000D03*
X88524000Y-104894000D03*
X90424000Y-104894000D03*
X90424000Y-104394000D03*
X90424000Y-103894000D03*
X90424000Y-103394000D03*
G04 #@! TD*
D30*
G04 #@! TO.C,U4*
X100838000Y-107950000D03*
X102108000Y-107950000D03*
X103378000Y-107950000D03*
X104648000Y-107950000D03*
X104648000Y-102550000D03*
X103378000Y-102550000D03*
X102108000Y-102550000D03*
X100838000Y-102550000D03*
G04 #@! TD*
D10*
G04 #@! TO.C,R0*
G36*
X88104505Y-99248204D02*
X88128773Y-99251804D01*
X88152572Y-99257765D01*
X88175671Y-99266030D01*
X88197850Y-99276520D01*
X88218893Y-99289132D01*
X88238599Y-99303747D01*
X88256777Y-99320223D01*
X88273253Y-99338401D01*
X88287868Y-99358107D01*
X88300480Y-99379150D01*
X88310970Y-99401329D01*
X88319235Y-99424428D01*
X88325196Y-99448227D01*
X88328796Y-99472495D01*
X88330000Y-99496999D01*
X88330000Y-100147001D01*
X88328796Y-100171505D01*
X88325196Y-100195773D01*
X88319235Y-100219572D01*
X88310970Y-100242671D01*
X88300480Y-100264850D01*
X88287868Y-100285893D01*
X88273253Y-100305599D01*
X88256777Y-100323777D01*
X88238599Y-100340253D01*
X88218893Y-100354868D01*
X88197850Y-100367480D01*
X88175671Y-100377970D01*
X88152572Y-100386235D01*
X88128773Y-100392196D01*
X88104505Y-100395796D01*
X88080001Y-100397000D01*
X87179999Y-100397000D01*
X87155495Y-100395796D01*
X87131227Y-100392196D01*
X87107428Y-100386235D01*
X87084329Y-100377970D01*
X87062150Y-100367480D01*
X87041107Y-100354868D01*
X87021401Y-100340253D01*
X87003223Y-100323777D01*
X86986747Y-100305599D01*
X86972132Y-100285893D01*
X86959520Y-100264850D01*
X86949030Y-100242671D01*
X86940765Y-100219572D01*
X86934804Y-100195773D01*
X86931204Y-100171505D01*
X86930000Y-100147001D01*
X86930000Y-99496999D01*
X86931204Y-99472495D01*
X86934804Y-99448227D01*
X86940765Y-99424428D01*
X86949030Y-99401329D01*
X86959520Y-99379150D01*
X86972132Y-99358107D01*
X86986747Y-99338401D01*
X87003223Y-99320223D01*
X87021401Y-99303747D01*
X87041107Y-99289132D01*
X87062150Y-99276520D01*
X87084329Y-99266030D01*
X87107428Y-99257765D01*
X87131227Y-99251804D01*
X87155495Y-99248204D01*
X87179999Y-99247000D01*
X88080001Y-99247000D01*
X88104505Y-99248204D01*
X88104505Y-99248204D01*
G37*
D31*
X87630000Y-99822000D03*
D10*
G36*
X88104505Y-97198204D02*
X88128773Y-97201804D01*
X88152572Y-97207765D01*
X88175671Y-97216030D01*
X88197850Y-97226520D01*
X88218893Y-97239132D01*
X88238599Y-97253747D01*
X88256777Y-97270223D01*
X88273253Y-97288401D01*
X88287868Y-97308107D01*
X88300480Y-97329150D01*
X88310970Y-97351329D01*
X88319235Y-97374428D01*
X88325196Y-97398227D01*
X88328796Y-97422495D01*
X88330000Y-97446999D01*
X88330000Y-98097001D01*
X88328796Y-98121505D01*
X88325196Y-98145773D01*
X88319235Y-98169572D01*
X88310970Y-98192671D01*
X88300480Y-98214850D01*
X88287868Y-98235893D01*
X88273253Y-98255599D01*
X88256777Y-98273777D01*
X88238599Y-98290253D01*
X88218893Y-98304868D01*
X88197850Y-98317480D01*
X88175671Y-98327970D01*
X88152572Y-98336235D01*
X88128773Y-98342196D01*
X88104505Y-98345796D01*
X88080001Y-98347000D01*
X87179999Y-98347000D01*
X87155495Y-98345796D01*
X87131227Y-98342196D01*
X87107428Y-98336235D01*
X87084329Y-98327970D01*
X87062150Y-98317480D01*
X87041107Y-98304868D01*
X87021401Y-98290253D01*
X87003223Y-98273777D01*
X86986747Y-98255599D01*
X86972132Y-98235893D01*
X86959520Y-98214850D01*
X86949030Y-98192671D01*
X86940765Y-98169572D01*
X86934804Y-98145773D01*
X86931204Y-98121505D01*
X86930000Y-98097001D01*
X86930000Y-97446999D01*
X86931204Y-97422495D01*
X86934804Y-97398227D01*
X86940765Y-97374428D01*
X86949030Y-97351329D01*
X86959520Y-97329150D01*
X86972132Y-97308107D01*
X86986747Y-97288401D01*
X87003223Y-97270223D01*
X87021401Y-97253747D01*
X87041107Y-97239132D01*
X87062150Y-97226520D01*
X87084329Y-97216030D01*
X87107428Y-97207765D01*
X87131227Y-97201804D01*
X87155495Y-97198204D01*
X87179999Y-97197000D01*
X88080001Y-97197000D01*
X88104505Y-97198204D01*
X88104505Y-97198204D01*
G37*
D31*
X87630000Y-97772000D03*
G04 #@! TD*
M02*
