G04 #@! TF.GenerationSoftware,KiCad,Pcbnew,5.0.0-fee4fd1~65~ubuntu16.04.1*
G04 #@! TF.CreationDate,2018-07-29T13:14:09-07:00*
G04 #@! TF.ProjectId,wifistepper,77696669737465707065722E6B696361,rev?*
G04 #@! TF.SameCoordinates,Original*
G04 #@! TF.FileFunction,Copper,L2,Bot,Signal*
G04 #@! TF.FilePolarity,Positive*
%FSLAX46Y46*%
G04 Gerber Fmt 4.6, Leading zero omitted, Abs format (unit mm)*
G04 Created by KiCad (PCBNEW 5.0.0-fee4fd1~65~ubuntu16.04.1) date Sun Jul 29 13:14:09 2018*
%MOMM*%
%LPD*%
G01*
G04 APERTURE LIST*
G04 #@! TA.AperFunction,ComponentPad*
%ADD10R,3.500000X3.500000*%
G04 #@! TD*
G04 #@! TA.AperFunction,Conductor*
%ADD11C,0.100000*%
G04 #@! TD*
G04 #@! TA.AperFunction,ComponentPad*
%ADD12C,3.000000*%
G04 #@! TD*
G04 #@! TA.AperFunction,ComponentPad*
%ADD13C,3.500000*%
G04 #@! TD*
G04 #@! TA.AperFunction,ComponentPad*
%ADD14R,2.750000X2.750000*%
G04 #@! TD*
G04 #@! TA.AperFunction,ComponentPad*
%ADD15C,2.750000*%
G04 #@! TD*
G04 #@! TA.AperFunction,ComponentPad*
%ADD16R,1.700000X1.700000*%
G04 #@! TD*
G04 #@! TA.AperFunction,ComponentPad*
%ADD17O,1.700000X1.700000*%
G04 #@! TD*
G04 #@! TA.AperFunction,ViaPad*
%ADD18C,0.800000*%
G04 #@! TD*
G04 #@! TA.AperFunction,Conductor*
%ADD19C,0.500000*%
G04 #@! TD*
G04 #@! TA.AperFunction,Conductor*
%ADD20C,1.000000*%
G04 #@! TD*
G04 #@! TA.AperFunction,Conductor*
%ADD21C,0.200000*%
G04 #@! TD*
G04 #@! TA.AperFunction,Conductor*
%ADD22C,0.250000*%
G04 #@! TD*
G04 APERTURE END LIST*
D10*
G04 #@! TO.P,J1,1*
G04 #@! TO.N,VIN*
X45400000Y-106200000D03*
D11*
G04 #@! TD*
G04 #@! TO.N,GND*
G04 #@! TO.C,J1*
G36*
X40223513Y-104453611D02*
X40296318Y-104464411D01*
X40367714Y-104482295D01*
X40437013Y-104507090D01*
X40503548Y-104538559D01*
X40566678Y-104576398D01*
X40625795Y-104620242D01*
X40680330Y-104669670D01*
X40729758Y-104724205D01*
X40773602Y-104783322D01*
X40811441Y-104846452D01*
X40842910Y-104912987D01*
X40867705Y-104982286D01*
X40885589Y-105053682D01*
X40896389Y-105126487D01*
X40900000Y-105200000D01*
X40900000Y-107200000D01*
X40896389Y-107273513D01*
X40885589Y-107346318D01*
X40867705Y-107417714D01*
X40842910Y-107487013D01*
X40811441Y-107553548D01*
X40773602Y-107616678D01*
X40729758Y-107675795D01*
X40680330Y-107730330D01*
X40625795Y-107779758D01*
X40566678Y-107823602D01*
X40503548Y-107861441D01*
X40437013Y-107892910D01*
X40367714Y-107917705D01*
X40296318Y-107935589D01*
X40223513Y-107946389D01*
X40150000Y-107950000D01*
X38650000Y-107950000D01*
X38576487Y-107946389D01*
X38503682Y-107935589D01*
X38432286Y-107917705D01*
X38362987Y-107892910D01*
X38296452Y-107861441D01*
X38233322Y-107823602D01*
X38174205Y-107779758D01*
X38119670Y-107730330D01*
X38070242Y-107675795D01*
X38026398Y-107616678D01*
X37988559Y-107553548D01*
X37957090Y-107487013D01*
X37932295Y-107417714D01*
X37914411Y-107346318D01*
X37903611Y-107273513D01*
X37900000Y-107200000D01*
X37900000Y-105200000D01*
X37903611Y-105126487D01*
X37914411Y-105053682D01*
X37932295Y-104982286D01*
X37957090Y-104912987D01*
X37988559Y-104846452D01*
X38026398Y-104783322D01*
X38070242Y-104724205D01*
X38119670Y-104669670D01*
X38174205Y-104620242D01*
X38233322Y-104576398D01*
X38296452Y-104538559D01*
X38362987Y-104507090D01*
X38432286Y-104482295D01*
X38503682Y-104464411D01*
X38576487Y-104453611D01*
X38650000Y-104450000D01*
X40150000Y-104450000D01*
X40223513Y-104453611D01*
X40223513Y-104453611D01*
G37*
D12*
G04 #@! TO.P,J1,2*
G04 #@! TO.N,GND*
X39400000Y-106200000D03*
D11*
G04 #@! TD*
G04 #@! TO.N,GND*
G04 #@! TO.C,J1*
G36*
X43360765Y-109154213D02*
X43445704Y-109166813D01*
X43528999Y-109187677D01*
X43609848Y-109216605D01*
X43687472Y-109253319D01*
X43761124Y-109297464D01*
X43830094Y-109348616D01*
X43893718Y-109406282D01*
X43951384Y-109469906D01*
X44002536Y-109538876D01*
X44046681Y-109612528D01*
X44083395Y-109690152D01*
X44112323Y-109771001D01*
X44133187Y-109854296D01*
X44145787Y-109939235D01*
X44150000Y-110025000D01*
X44150000Y-111775000D01*
X44145787Y-111860765D01*
X44133187Y-111945704D01*
X44112323Y-112028999D01*
X44083395Y-112109848D01*
X44046681Y-112187472D01*
X44002536Y-112261124D01*
X43951384Y-112330094D01*
X43893718Y-112393718D01*
X43830094Y-112451384D01*
X43761124Y-112502536D01*
X43687472Y-112546681D01*
X43609848Y-112583395D01*
X43528999Y-112612323D01*
X43445704Y-112633187D01*
X43360765Y-112645787D01*
X43275000Y-112650000D01*
X41525000Y-112650000D01*
X41439235Y-112645787D01*
X41354296Y-112633187D01*
X41271001Y-112612323D01*
X41190152Y-112583395D01*
X41112528Y-112546681D01*
X41038876Y-112502536D01*
X40969906Y-112451384D01*
X40906282Y-112393718D01*
X40848616Y-112330094D01*
X40797464Y-112261124D01*
X40753319Y-112187472D01*
X40716605Y-112109848D01*
X40687677Y-112028999D01*
X40666813Y-111945704D01*
X40654213Y-111860765D01*
X40650000Y-111775000D01*
X40650000Y-110025000D01*
X40654213Y-109939235D01*
X40666813Y-109854296D01*
X40687677Y-109771001D01*
X40716605Y-109690152D01*
X40753319Y-109612528D01*
X40797464Y-109538876D01*
X40848616Y-109469906D01*
X40906282Y-109406282D01*
X40969906Y-109348616D01*
X41038876Y-109297464D01*
X41112528Y-109253319D01*
X41190152Y-109216605D01*
X41271001Y-109187677D01*
X41354296Y-109166813D01*
X41439235Y-109154213D01*
X41525000Y-109150000D01*
X43275000Y-109150000D01*
X43360765Y-109154213D01*
X43360765Y-109154213D01*
G37*
D13*
G04 #@! TO.P,J1,3*
G04 #@! TO.N,GND*
X42400000Y-110900000D03*
G04 #@! TD*
D14*
G04 #@! TO.P,J2,1*
G04 #@! TO.N,OUTB2*
X35200000Y-97010000D03*
D15*
G04 #@! TO.P,J2,2*
G04 #@! TO.N,OUTB1*
X35200000Y-93200000D03*
G04 #@! TO.P,J2,3*
G04 #@! TO.N,OUTA1*
X35200000Y-89390000D03*
G04 #@! TO.P,J2,4*
G04 #@! TO.N,OUTA2*
X35200000Y-85580000D03*
G04 #@! TO.P,J2,5*
G04 #@! TO.N,GND*
X35200000Y-81770000D03*
G04 #@! TO.P,J2,6*
G04 #@! TO.N,VIN*
X35200000Y-77960000D03*
G04 #@! TD*
D16*
G04 #@! TO.P,J3,1*
G04 #@! TO.N,+3V3*
X89154000Y-69342000D03*
D17*
G04 #@! TO.P,J3,2*
G04 #@! TO.N,GND*
X91694000Y-69342000D03*
G04 #@! TO.P,J3,3*
G04 #@! TO.N,SM_SW*
X94234000Y-69342000D03*
G04 #@! TO.P,J3,4*
G04 #@! TO.N,SM_STCLK*
X96774000Y-69342000D03*
G04 #@! TO.P,J3,5*
G04 #@! TO.N,SM_FLAG*
X99314000Y-69342000D03*
G04 #@! TO.P,J3,6*
G04 #@! TO.N,SM_BUSY*
X101854000Y-69342000D03*
G04 #@! TD*
G04 #@! TO.P,J4,6*
G04 #@! TO.N,WIFI_ADC*
X101854000Y-115824000D03*
G04 #@! TO.P,J4,5*
G04 #@! TO.N,WIFI_RST*
X99314000Y-115824000D03*
G04 #@! TO.P,J4,4*
G04 #@! TO.N,AUTH_SDA*
X96774000Y-115824000D03*
G04 #@! TO.P,J4,3*
G04 #@! TO.N,AUTH_SCK*
X94234000Y-115824000D03*
G04 #@! TO.P,J4,2*
G04 #@! TO.N,GND*
X91694000Y-115824000D03*
D16*
G04 #@! TO.P,J4,1*
G04 #@! TO.N,+3V3*
X89154000Y-115824000D03*
G04 #@! TD*
G04 #@! TO.P,J5,1*
G04 #@! TO.N,PROG_RX*
X106680000Y-115824000D03*
D17*
G04 #@! TO.P,J5,2*
G04 #@! TO.N,PROG_TX*
X109220000Y-115824000D03*
G04 #@! TO.P,J5,3*
G04 #@! TO.N,PROG_BOOT*
X111760000Y-115824000D03*
G04 #@! TO.P,J5,4*
G04 #@! TO.N,GND*
X114300000Y-115824000D03*
G04 #@! TD*
D18*
G04 #@! TO.N,+3V3*
X89154000Y-76962000D03*
X49022000Y-101854000D03*
X49784000Y-102616000D03*
X52070000Y-109220000D03*
X52832000Y-109982000D03*
X91186002Y-89916000D03*
X89154000Y-87883998D03*
G04 #@! TO.N,GND*
X115570000Y-95250000D03*
X115570000Y-93726000D03*
X115570000Y-91948000D03*
X117348000Y-93472000D03*
X114046000Y-93726000D03*
X114046000Y-95250000D03*
X117348000Y-95250000D03*
X117348000Y-91948000D03*
X114046000Y-91948000D03*
X61976000Y-92456000D03*
X64262000Y-92456000D03*
X64262000Y-90424000D03*
X61976000Y-90424000D03*
X65278000Y-91440000D03*
X63246000Y-91440000D03*
X60960000Y-91440000D03*
X60960000Y-93218000D03*
X63246000Y-93218000D03*
X65278000Y-93218000D03*
X65278000Y-89662000D03*
X63246000Y-89662000D03*
X60960000Y-89662000D03*
X115570000Y-103632000D03*
X60198000Y-75184000D03*
X61214000Y-75184000D03*
X62230000Y-75184000D03*
X63246000Y-75184000D03*
X64262000Y-75184000D03*
X65278000Y-75184000D03*
X66294000Y-75184000D03*
X61214000Y-107696000D03*
X64262000Y-107696000D03*
X63246000Y-107696000D03*
X66294000Y-107696000D03*
X62230000Y-107696000D03*
X60198000Y-107696000D03*
X65278000Y-107696000D03*
X67310000Y-75184000D03*
X59182000Y-75184000D03*
X67310000Y-107696000D03*
X59182000Y-107696000D03*
X54356000Y-92202000D03*
X72644000Y-87122000D03*
X93218000Y-108712000D03*
X91442459Y-103632366D03*
X99822000Y-98552000D03*
X104394000Y-106426000D03*
X110744000Y-75692000D03*
X117094000Y-75184000D03*
X108966000Y-83566000D03*
X103632000Y-90170000D03*
X75692000Y-112522000D03*
X75692000Y-115824000D03*
X75692000Y-114300000D03*
X75692000Y-72644000D03*
X75692000Y-69088000D03*
X75692000Y-70866000D03*
X32512000Y-85598000D03*
X32512000Y-89154000D03*
X32512000Y-92964000D03*
X32512000Y-97028000D03*
X32512000Y-77978000D03*
X37084000Y-104394000D03*
X37211000Y-108077000D03*
X40513000Y-113538000D03*
X44323000Y-113538000D03*
X50800000Y-113538000D03*
X59182000Y-113792000D03*
X64516000Y-113538000D03*
X70612000Y-113538000D03*
X36068000Y-74676000D03*
X41656000Y-74676000D03*
X46228000Y-74676000D03*
X50800000Y-74676000D03*
X55372000Y-74676000D03*
X68072000Y-69850000D03*
X63246000Y-69850000D03*
X58420000Y-69850000D03*
X32766000Y-102616000D03*
X32766000Y-109982000D03*
X35814000Y-99822000D03*
X79756000Y-87503000D03*
X82169000Y-85598000D03*
X84201000Y-83439000D03*
X85725000Y-67945000D03*
X81280000Y-82677000D03*
X81534000Y-76454000D03*
X81534000Y-70612000D03*
X85344000Y-112522000D03*
X86868000Y-117348000D03*
X81280000Y-114300000D03*
X39370000Y-70866000D03*
X48260000Y-70866000D03*
X39116000Y-117094000D03*
X67310000Y-116332000D03*
X73152000Y-94488000D03*
X80264000Y-94488000D03*
X86868000Y-94361000D03*
X77597000Y-99314000D03*
X74549000Y-95885000D03*
X86360000Y-95758000D03*
X76454000Y-94488000D03*
X79756000Y-97028000D03*
X84074000Y-94869000D03*
X77343000Y-96520000D03*
X54102000Y-108458000D03*
X57150000Y-109474000D03*
X79756000Y-103378000D03*
X83820000Y-103124000D03*
X79756000Y-108204000D03*
X87122000Y-107696000D03*
X79756000Y-105918000D03*
X83820000Y-105918000D03*
X68834000Y-109220000D03*
X72898000Y-109474000D03*
X76454000Y-109474000D03*
X81788000Y-109220000D03*
X81788000Y-104648000D03*
X84074000Y-108204000D03*
X49784000Y-109982000D03*
X47244000Y-113284000D03*
X47498000Y-116078000D03*
X58420000Y-116332000D03*
X34544000Y-105918000D03*
X35433000Y-102870000D03*
X38608000Y-112014000D03*
X32766000Y-73914000D03*
X46228000Y-67818000D03*
X60960000Y-67818000D03*
X71120000Y-67818000D03*
X70104000Y-72644000D03*
X85090000Y-72136000D03*
X83312000Y-81534000D03*
X81153000Y-79502000D03*
X79502000Y-84582000D03*
X79248000Y-116840000D03*
X45974000Y-81026000D03*
G04 #@! TO.N,VIN*
X55118000Y-80010000D03*
X55880000Y-78740000D03*
X58420000Y-78740000D03*
X58166000Y-80010000D03*
X56642000Y-80010000D03*
X57150000Y-78740000D03*
X68580000Y-80772000D03*
X68834000Y-83058000D03*
X70104000Y-83058000D03*
X69342000Y-82042000D03*
X68072000Y-82042000D03*
X68580000Y-102108000D03*
X70104000Y-99822000D03*
X68834000Y-99822000D03*
X68072000Y-100838000D03*
X69342000Y-100838000D03*
X55118000Y-102870000D03*
X57912000Y-102870000D03*
X56642000Y-102870000D03*
X55626000Y-104140000D03*
X58166000Y-104140000D03*
X56896000Y-104140000D03*
X69850000Y-80772000D03*
X69850000Y-102108000D03*
X69088000Y-103378000D03*
X69342000Y-79756000D03*
G04 #@! TO.N,SM_RST*
X114808000Y-81788000D03*
X114046000Y-80264000D03*
X83693000Y-86741000D03*
X87979336Y-86741000D03*
G04 #@! TO.N,OUTA1*
X61722000Y-87122000D03*
X61214000Y-88138000D03*
X62484000Y-88138000D03*
X56642000Y-88011000D03*
X62484000Y-86106000D03*
X61214000Y-86106000D03*
X55626000Y-87757000D03*
G04 #@! TO.N,OUTA2*
X64770000Y-87122000D03*
X64008000Y-88138000D03*
X65278000Y-88138000D03*
X65278000Y-86106000D03*
X64008000Y-86106000D03*
X69856454Y-88089990D03*
G04 #@! TO.N,OUTB1*
X61722000Y-95758000D03*
X61214000Y-94742000D03*
X62484000Y-94742000D03*
X62484000Y-96774000D03*
X61214000Y-96774000D03*
X56642000Y-94869000D03*
X56007000Y-95504000D03*
G04 #@! TO.N,OUTB2*
X64770000Y-95758000D03*
X65278000Y-94742000D03*
X65278000Y-96774000D03*
X64008000Y-96774000D03*
X64008000Y-94742000D03*
X69856454Y-94790010D03*
G04 #@! TO.N,SM_FLAG*
X108712000Y-75183998D03*
X108712000Y-73406000D03*
G04 #@! TO.N,AUTH_SCK*
X108966000Y-100584000D03*
X106172000Y-101092000D03*
G04 #@! TO.N,AUTH_SDA*
X105664000Y-87376000D03*
X105679832Y-84851832D03*
G04 #@! TO.N,PROG_BOOT*
X106680000Y-84836000D03*
X106680000Y-87376000D03*
X105156000Y-112776000D03*
X104648000Y-114808000D03*
G04 #@! TO.N,Net-(R3-Pad2)*
X71628000Y-88392000D03*
X65405000Y-81788000D03*
G04 #@! TO.N,Net-(R4-Pad2)*
X71628000Y-94488000D03*
X65278000Y-101219000D03*
G04 #@! TO.N,SM_CS*
X109982000Y-99822000D03*
X106172000Y-99314000D03*
G04 #@! TD*
D19*
G04 #@! TO.N,+3V3*
X89154000Y-69342000D02*
X89154000Y-70692000D01*
X89154000Y-70692000D02*
X89154000Y-76962000D01*
D20*
X49784000Y-102616000D02*
X49022000Y-101854000D01*
X49784000Y-106934000D02*
X49784000Y-102616000D01*
X52070000Y-109220000D02*
X49784000Y-106934000D01*
X52070000Y-109220000D02*
X52832000Y-109982000D01*
D19*
X90786003Y-89516001D02*
X91186002Y-89916000D01*
X89154000Y-76962000D02*
X89154000Y-87883998D01*
X89154000Y-87883998D02*
X90786003Y-89516001D01*
D21*
G04 #@! TO.N,SM_RST*
X114808000Y-81026000D02*
X114046000Y-80264000D01*
X114808000Y-81788000D02*
X114808000Y-81026000D01*
X83693000Y-86741000D02*
X87979336Y-86741000D01*
D19*
G04 #@! TO.N,OUTA2*
X69808444Y-88138000D02*
X69856454Y-88089990D01*
X65278000Y-88138000D02*
X69808444Y-88138000D01*
G04 #@! TO.N,OUTB2*
X65278000Y-94742000D02*
X69808444Y-94742000D01*
X69808444Y-94742000D02*
X69856454Y-94790010D01*
D21*
G04 #@! TO.N,SM_FLAG*
X108712000Y-75183998D02*
X108712000Y-73406000D01*
G04 #@! TO.N,AUTH_SCK*
X108458000Y-101092000D02*
X108966000Y-100584000D01*
X106172000Y-101092000D02*
X108458000Y-101092000D01*
G04 #@! TO.N,AUTH_SDA*
X105664000Y-84867664D02*
X105679832Y-84851832D01*
X105664000Y-87376000D02*
X105664000Y-84867664D01*
G04 #@! TO.N,PROG_BOOT*
X106680000Y-84836000D02*
X106680000Y-87376000D01*
X104648000Y-113284000D02*
X104648000Y-114808000D01*
X105156000Y-112776000D02*
X104648000Y-113284000D01*
D19*
G04 #@! TO.N,Net-(R3-Pad2)*
X71628000Y-88011000D02*
X65405000Y-81788000D01*
X71628000Y-88392000D02*
X71628000Y-88011000D01*
G04 #@! TO.N,Net-(R4-Pad2)*
X71628000Y-94869000D02*
X65278000Y-101219000D01*
X71628000Y-94488000D02*
X71628000Y-94869000D01*
D21*
G04 #@! TO.N,SM_CS*
X106680000Y-99822000D02*
X106172000Y-99314000D01*
X109982000Y-99822000D02*
X106680000Y-99822000D01*
G04 #@! TD*
D22*
G04 #@! TO.N,OUTA1*
G36*
X62837750Y-85498250D02*
X62867000Y-85568865D01*
X62867000Y-88421135D01*
X62837750Y-88491750D01*
X62767135Y-88521000D01*
X60335468Y-88521000D01*
X60328933Y-88521171D01*
X60308054Y-88522264D01*
X60301539Y-88522776D01*
X37345878Y-90932486D01*
X37323928Y-90933025D01*
X35280478Y-90819500D01*
X35211978Y-90786854D01*
X35186130Y-90715509D01*
X35296014Y-88078295D01*
X35322290Y-88014351D01*
X35383471Y-87982158D01*
X53720240Y-85470272D01*
X53738886Y-85469000D01*
X62767135Y-85469000D01*
X62837750Y-85498250D01*
X62837750Y-85498250D01*
G37*
X62837750Y-85498250D02*
X62867000Y-85568865D01*
X62867000Y-88421135D01*
X62837750Y-88491750D01*
X62767135Y-88521000D01*
X60335468Y-88521000D01*
X60328933Y-88521171D01*
X60308054Y-88522264D01*
X60301539Y-88522776D01*
X37345878Y-90932486D01*
X37323928Y-90933025D01*
X35280478Y-90819500D01*
X35211978Y-90786854D01*
X35186130Y-90715509D01*
X35296014Y-88078295D01*
X35322290Y-88014351D01*
X35383471Y-87982158D01*
X53720240Y-85470272D01*
X53738886Y-85469000D01*
X62767135Y-85469000D01*
X62837750Y-85498250D01*
G04 #@! TO.N,OUTA2*
G36*
X63615831Y-81315830D02*
X70445706Y-87897346D01*
X70487000Y-87994485D01*
X70487000Y-88421135D01*
X70457750Y-88491750D01*
X70387135Y-88521000D01*
X63724865Y-88521000D01*
X63654250Y-88491750D01*
X63625000Y-88421135D01*
X63625000Y-85163000D01*
X63615485Y-85115164D01*
X63556906Y-84973743D01*
X63529809Y-84933190D01*
X63489257Y-84906094D01*
X63347836Y-84847515D01*
X63300000Y-84838000D01*
X53734122Y-84838000D01*
X53725941Y-84838268D01*
X53699810Y-84839982D01*
X53691659Y-84840785D01*
X37338731Y-86995823D01*
X37320783Y-86997000D01*
X35395030Y-86997000D01*
X35325655Y-86969107D01*
X35294899Y-86900956D01*
X35185255Y-84269509D01*
X35207936Y-84201495D01*
X35270091Y-84165750D01*
X53339150Y-81279719D01*
X53360819Y-81278000D01*
X63522055Y-81278000D01*
X63615831Y-81315830D01*
X63615831Y-81315830D01*
G37*
X63615831Y-81315830D02*
X70445706Y-87897346D01*
X70487000Y-87994485D01*
X70487000Y-88421135D01*
X70457750Y-88491750D01*
X70387135Y-88521000D01*
X63724865Y-88521000D01*
X63654250Y-88491750D01*
X63625000Y-88421135D01*
X63625000Y-85163000D01*
X63615485Y-85115164D01*
X63556906Y-84973743D01*
X63529809Y-84933190D01*
X63489257Y-84906094D01*
X63347836Y-84847515D01*
X63300000Y-84838000D01*
X53734122Y-84838000D01*
X53725941Y-84838268D01*
X53699810Y-84839982D01*
X53691659Y-84840785D01*
X37338731Y-86995823D01*
X37320783Y-86997000D01*
X35395030Y-86997000D01*
X35325655Y-86969107D01*
X35294899Y-86900956D01*
X35185255Y-84269509D01*
X35207936Y-84201495D01*
X35270091Y-84165750D01*
X53339150Y-81279719D01*
X53360819Y-81278000D01*
X63522055Y-81278000D01*
X63615831Y-81315830D01*
G04 #@! TO.N,OUTB1*
G36*
X37345932Y-91693745D02*
X60426247Y-94356858D01*
X60433400Y-94357476D01*
X60456325Y-94358794D01*
X60463500Y-94359000D01*
X62767135Y-94359000D01*
X62837750Y-94388250D01*
X62867000Y-94458865D01*
X62867000Y-97311135D01*
X62837750Y-97381750D01*
X62767135Y-97411000D01*
X53740072Y-97411000D01*
X53720204Y-97409556D01*
X37232916Y-94999875D01*
X37228906Y-94999228D01*
X35260670Y-94651893D01*
X35200687Y-94617254D01*
X35177000Y-94552166D01*
X35177000Y-91907161D01*
X35204446Y-91838210D01*
X35271764Y-91806984D01*
X37322564Y-91693050D01*
X37345932Y-91693745D01*
X37345932Y-91693745D01*
G37*
X37345932Y-91693745D02*
X60426247Y-94356858D01*
X60433400Y-94357476D01*
X60456325Y-94358794D01*
X60463500Y-94359000D01*
X62767135Y-94359000D01*
X62837750Y-94388250D01*
X62867000Y-94458865D01*
X62867000Y-97311135D01*
X62837750Y-97381750D01*
X62767135Y-97411000D01*
X53740072Y-97411000D01*
X53720204Y-97409556D01*
X37232916Y-94999875D01*
X37228906Y-94999228D01*
X35260670Y-94651893D01*
X35200687Y-94617254D01*
X35177000Y-94552166D01*
X35177000Y-91907161D01*
X35204446Y-91838210D01*
X35271764Y-91806984D01*
X37322564Y-91693050D01*
X37345932Y-91693745D01*
G04 #@! TO.N,OUTB2*
G36*
X70457750Y-94388250D02*
X70487000Y-94458865D01*
X70487000Y-94885565D01*
X70445737Y-94982675D01*
X63488812Y-101691139D01*
X63395005Y-101729000D01*
X52985192Y-101729000D01*
X52958039Y-101726289D01*
X37876595Y-98684653D01*
X37870493Y-98683276D01*
X36884203Y-98436703D01*
X36869158Y-98433907D01*
X36820651Y-98427936D01*
X36805379Y-98427000D01*
X34006865Y-98427000D01*
X33936250Y-98397750D01*
X33907000Y-98327135D01*
X33907000Y-95728865D01*
X33936250Y-95658250D01*
X34006865Y-95629000D01*
X36811345Y-95629000D01*
X36830786Y-95630382D01*
X53689251Y-98038734D01*
X53698069Y-98039676D01*
X53726354Y-98041686D01*
X53735214Y-98042000D01*
X63300000Y-98042000D01*
X63347836Y-98032485D01*
X63489257Y-97973906D01*
X63529810Y-97946809D01*
X63556906Y-97906257D01*
X63615485Y-97764836D01*
X63625000Y-97717000D01*
X63625000Y-94458865D01*
X63654250Y-94388250D01*
X63724865Y-94359000D01*
X70387135Y-94359000D01*
X70457750Y-94388250D01*
X70457750Y-94388250D01*
G37*
X70457750Y-94388250D02*
X70487000Y-94458865D01*
X70487000Y-94885565D01*
X70445737Y-94982675D01*
X63488812Y-101691139D01*
X63395005Y-101729000D01*
X52985192Y-101729000D01*
X52958039Y-101726289D01*
X37876595Y-98684653D01*
X37870493Y-98683276D01*
X36884203Y-98436703D01*
X36869158Y-98433907D01*
X36820651Y-98427936D01*
X36805379Y-98427000D01*
X34006865Y-98427000D01*
X33936250Y-98397750D01*
X33907000Y-98327135D01*
X33907000Y-95728865D01*
X33936250Y-95658250D01*
X34006865Y-95629000D01*
X36811345Y-95629000D01*
X36830786Y-95630382D01*
X53689251Y-98038734D01*
X53698069Y-98039676D01*
X53726354Y-98041686D01*
X53735214Y-98042000D01*
X63300000Y-98042000D01*
X63347836Y-98032485D01*
X63489257Y-97973906D01*
X63529810Y-97946809D01*
X63556906Y-97906257D01*
X63615485Y-97764836D01*
X63625000Y-97717000D01*
X63625000Y-94458865D01*
X63654250Y-94388250D01*
X63724865Y-94359000D01*
X70387135Y-94359000D01*
X70457750Y-94388250D01*
G04 #@! TO.N,GND*
G36*
X87759000Y-68182680D02*
X87715263Y-68248137D01*
X87666756Y-68492000D01*
X87666756Y-70192000D01*
X87715263Y-70435863D01*
X87759000Y-70501320D01*
X87759000Y-85722814D01*
X87398720Y-85872047D01*
X87254767Y-86016000D01*
X84417569Y-86016000D01*
X84273616Y-85872047D01*
X83896885Y-85716000D01*
X83489115Y-85716000D01*
X83112384Y-85872047D01*
X82824047Y-86160384D01*
X82668000Y-86537115D01*
X82668000Y-86944885D01*
X82824047Y-87321616D01*
X83112384Y-87609953D01*
X83489115Y-87766000D01*
X83896885Y-87766000D01*
X84273616Y-87609953D01*
X84417569Y-87466000D01*
X87254767Y-87466000D01*
X87398720Y-87609953D01*
X87759000Y-87759186D01*
X87759000Y-102809445D01*
X87764364Y-102845668D01*
X87797954Y-102956608D01*
X87813584Y-102989723D01*
X88228621Y-103612278D01*
X88273645Y-103653149D01*
X88440055Y-103742209D01*
X88499037Y-103757000D01*
X90087157Y-103757000D01*
X90134992Y-103747485D01*
X90276414Y-103688906D01*
X90316967Y-103661809D01*
X90707809Y-103270967D01*
X90734906Y-103230414D01*
X90793485Y-103088992D01*
X90803000Y-103041157D01*
X90803000Y-99110115D01*
X105147000Y-99110115D01*
X105147000Y-99517885D01*
X105303047Y-99894616D01*
X105591384Y-100182953D01*
X105639782Y-100203000D01*
X105591384Y-100223047D01*
X105303047Y-100511384D01*
X105147000Y-100888115D01*
X105147000Y-101295885D01*
X105303047Y-101672616D01*
X105591384Y-101960953D01*
X105968115Y-102117000D01*
X106375885Y-102117000D01*
X106752616Y-101960953D01*
X106896569Y-101817000D01*
X108386600Y-101817000D01*
X108458000Y-101831202D01*
X108529400Y-101817000D01*
X108529404Y-101817000D01*
X108740881Y-101774935D01*
X108980695Y-101614695D01*
X108984500Y-101609000D01*
X109169885Y-101609000D01*
X109546616Y-101452953D01*
X109834953Y-101164616D01*
X109966514Y-100847000D01*
X110185885Y-100847000D01*
X110562616Y-100690953D01*
X110850953Y-100402616D01*
X111007000Y-100025885D01*
X111007000Y-99618115D01*
X110850953Y-99241384D01*
X110562616Y-98953047D01*
X110185885Y-98797000D01*
X109778115Y-98797000D01*
X109401384Y-98953047D01*
X109257431Y-99097000D01*
X107191568Y-99097000D01*
X107040953Y-98733384D01*
X106752616Y-98445047D01*
X106375885Y-98289000D01*
X105968115Y-98289000D01*
X105591384Y-98445047D01*
X105303047Y-98733384D01*
X105147000Y-99110115D01*
X90803000Y-99110115D01*
X90803000Y-90866807D01*
X90982117Y-90941000D01*
X91389887Y-90941000D01*
X91766618Y-90784953D01*
X92054955Y-90496616D01*
X92211002Y-90119885D01*
X92211002Y-89712115D01*
X92054955Y-89335384D01*
X91766618Y-89047047D01*
X91404486Y-88897047D01*
X90803000Y-88295561D01*
X90803000Y-87172115D01*
X104639000Y-87172115D01*
X104639000Y-87579885D01*
X104795047Y-87956616D01*
X105083384Y-88244953D01*
X105460115Y-88401000D01*
X105867885Y-88401000D01*
X106172000Y-88275032D01*
X106476115Y-88401000D01*
X106883885Y-88401000D01*
X107260616Y-88244953D01*
X107548953Y-87956616D01*
X107705000Y-87579885D01*
X107705000Y-87172115D01*
X107548953Y-86795384D01*
X107405000Y-86651431D01*
X107405000Y-85560569D01*
X107548953Y-85416616D01*
X107705000Y-85039885D01*
X107705000Y-84632115D01*
X107548953Y-84255384D01*
X107260616Y-83967047D01*
X106883885Y-83811000D01*
X106476115Y-83811000D01*
X106160805Y-83941606D01*
X105883717Y-83826832D01*
X105475947Y-83826832D01*
X105099216Y-83982879D01*
X104810879Y-84271216D01*
X104654832Y-84647947D01*
X104654832Y-85055717D01*
X104810879Y-85432448D01*
X104939001Y-85560570D01*
X104939000Y-86651431D01*
X104795047Y-86795384D01*
X104639000Y-87172115D01*
X90803000Y-87172115D01*
X90803000Y-80060115D01*
X113021000Y-80060115D01*
X113021000Y-80467885D01*
X113177047Y-80844616D01*
X113465384Y-81132953D01*
X113842115Y-81289000D01*
X113905241Y-81289000D01*
X113783000Y-81584115D01*
X113783000Y-81991885D01*
X113939047Y-82368616D01*
X114227384Y-82656953D01*
X114604115Y-82813000D01*
X115011885Y-82813000D01*
X115388616Y-82656953D01*
X115676953Y-82368616D01*
X115833000Y-81991885D01*
X115833000Y-81584115D01*
X115676953Y-81207384D01*
X115538636Y-81069067D01*
X115547202Y-81026000D01*
X115533000Y-80954600D01*
X115533000Y-80954596D01*
X115490935Y-80743119D01*
X115330695Y-80503305D01*
X115270161Y-80462857D01*
X115071000Y-80263696D01*
X115071000Y-80060115D01*
X114914953Y-79683384D01*
X114626616Y-79395047D01*
X114249885Y-79239000D01*
X113842115Y-79239000D01*
X113465384Y-79395047D01*
X113177047Y-79683384D01*
X113021000Y-80060115D01*
X90803000Y-80060115D01*
X90803000Y-73202115D01*
X107687000Y-73202115D01*
X107687000Y-73609885D01*
X107843047Y-73986616D01*
X107987001Y-74130570D01*
X107987000Y-74459429D01*
X107843047Y-74603382D01*
X107687000Y-74980113D01*
X107687000Y-75387883D01*
X107843047Y-75764614D01*
X108131384Y-76052951D01*
X108508115Y-76208998D01*
X108915885Y-76208998D01*
X109292616Y-76052951D01*
X109580953Y-75764614D01*
X109737000Y-75387883D01*
X109737000Y-74980113D01*
X109580953Y-74603382D01*
X109437000Y-74459429D01*
X109437000Y-74130569D01*
X109580953Y-73986616D01*
X109737000Y-73609885D01*
X109737000Y-73202115D01*
X109580953Y-72825384D01*
X109292616Y-72537047D01*
X108915885Y-72381000D01*
X108508115Y-72381000D01*
X108131384Y-72537047D01*
X107843047Y-72825384D01*
X107687000Y-73202115D01*
X90803000Y-73202115D01*
X90803000Y-70503368D01*
X91053277Y-70670571D01*
X91269000Y-70590390D01*
X91269000Y-69767000D01*
X91049000Y-69767000D01*
X91049000Y-68917000D01*
X91269000Y-68917000D01*
X91269000Y-68093610D01*
X92119000Y-68093610D01*
X92119000Y-68917000D01*
X92339000Y-68917000D01*
X92339000Y-69767000D01*
X92119000Y-69767000D01*
X92119000Y-70590390D01*
X92334723Y-70670571D01*
X92676274Y-70442390D01*
X92951347Y-70077303D01*
X93170585Y-70405415D01*
X93658484Y-70731419D01*
X94088730Y-70817000D01*
X94379270Y-70817000D01*
X94809516Y-70731419D01*
X95297415Y-70405415D01*
X95504000Y-70096239D01*
X95710585Y-70405415D01*
X96198484Y-70731419D01*
X96628730Y-70817000D01*
X96919270Y-70817000D01*
X97349516Y-70731419D01*
X97837415Y-70405415D01*
X98044000Y-70096239D01*
X98250585Y-70405415D01*
X98738484Y-70731419D01*
X99168730Y-70817000D01*
X99459270Y-70817000D01*
X99889516Y-70731419D01*
X100377415Y-70405415D01*
X100584000Y-70096239D01*
X100790585Y-70405415D01*
X101278484Y-70731419D01*
X101708730Y-70817000D01*
X101999270Y-70817000D01*
X102429516Y-70731419D01*
X102917415Y-70405415D01*
X103243419Y-69917516D01*
X103315046Y-69557420D01*
X117775000Y-69557420D01*
X117775000Y-70442580D01*
X118113736Y-71260361D01*
X118739639Y-71886264D01*
X119557420Y-72225000D01*
X120442580Y-72225000D01*
X121260361Y-71886264D01*
X121886264Y-71260361D01*
X122225000Y-70442580D01*
X122225000Y-69557420D01*
X121886264Y-68739639D01*
X121260361Y-68113736D01*
X120442580Y-67775000D01*
X119557420Y-67775000D01*
X118739639Y-68113736D01*
X118113736Y-68739639D01*
X117775000Y-69557420D01*
X103315046Y-69557420D01*
X103357896Y-69342000D01*
X103243419Y-68766484D01*
X102917415Y-68278585D01*
X102429516Y-67952581D01*
X101999270Y-67867000D01*
X101708730Y-67867000D01*
X101278484Y-67952581D01*
X100790585Y-68278585D01*
X100584000Y-68587761D01*
X100377415Y-68278585D01*
X99889516Y-67952581D01*
X99459270Y-67867000D01*
X99168730Y-67867000D01*
X98738484Y-67952581D01*
X98250585Y-68278585D01*
X98044000Y-68587761D01*
X97837415Y-68278585D01*
X97349516Y-67952581D01*
X96919270Y-67867000D01*
X96628730Y-67867000D01*
X96198484Y-67952581D01*
X95710585Y-68278585D01*
X95504000Y-68587761D01*
X95297415Y-68278585D01*
X94809516Y-67952581D01*
X94379270Y-67867000D01*
X94088730Y-67867000D01*
X93658484Y-67952581D01*
X93170585Y-68278585D01*
X92951347Y-68606697D01*
X92676274Y-68241610D01*
X92334723Y-68013429D01*
X92119000Y-68093610D01*
X91269000Y-68093610D01*
X91053277Y-68013429D01*
X90803000Y-68180632D01*
X90803000Y-67200000D01*
X119962087Y-67200000D01*
X120600375Y-67269340D01*
X121172741Y-67461963D01*
X121690390Y-67772998D01*
X122129173Y-68187936D01*
X122468618Y-68687415D01*
X122692889Y-69248133D01*
X122796149Y-69871876D01*
X122800000Y-70009770D01*
X122800000Y-77599000D01*
X118700843Y-77599000D01*
X118653008Y-77608515D01*
X118511586Y-77667094D01*
X118471033Y-77694191D01*
X118080191Y-78085033D01*
X118053094Y-78125586D01*
X117994515Y-78267008D01*
X117985000Y-78314843D01*
X117985000Y-106851157D01*
X117994515Y-106898992D01*
X118053094Y-107040414D01*
X118080191Y-107080967D01*
X118471033Y-107471809D01*
X118511586Y-107498906D01*
X118653008Y-107557485D01*
X118700843Y-107567000D01*
X122800001Y-107567000D01*
X122800001Y-114962077D01*
X122730660Y-115600375D01*
X122538038Y-116172739D01*
X122227004Y-116690388D01*
X121812068Y-117129170D01*
X121312588Y-117468617D01*
X120751867Y-117692889D01*
X120128131Y-117796148D01*
X119990230Y-117800000D01*
X90824418Y-117800000D01*
X90803000Y-117748293D01*
X90803000Y-116985368D01*
X91053277Y-117152571D01*
X91269000Y-117072390D01*
X91269000Y-116249000D01*
X91049000Y-116249000D01*
X91049000Y-115399000D01*
X91269000Y-115399000D01*
X91269000Y-114575610D01*
X92119000Y-114575610D01*
X92119000Y-115399000D01*
X92339000Y-115399000D01*
X92339000Y-116249000D01*
X92119000Y-116249000D01*
X92119000Y-117072390D01*
X92334723Y-117152571D01*
X92676274Y-116924390D01*
X92951347Y-116559303D01*
X93170585Y-116887415D01*
X93658484Y-117213419D01*
X94088730Y-117299000D01*
X94379270Y-117299000D01*
X94809516Y-117213419D01*
X95297415Y-116887415D01*
X95504000Y-116578239D01*
X95710585Y-116887415D01*
X96198484Y-117213419D01*
X96628730Y-117299000D01*
X96919270Y-117299000D01*
X97349516Y-117213419D01*
X97837415Y-116887415D01*
X98044000Y-116578239D01*
X98250585Y-116887415D01*
X98738484Y-117213419D01*
X99168730Y-117299000D01*
X99459270Y-117299000D01*
X99889516Y-117213419D01*
X100377415Y-116887415D01*
X100584000Y-116578239D01*
X100790585Y-116887415D01*
X101278484Y-117213419D01*
X101708730Y-117299000D01*
X101999270Y-117299000D01*
X102429516Y-117213419D01*
X102917415Y-116887415D01*
X103243419Y-116399516D01*
X103357896Y-115824000D01*
X103243419Y-115248484D01*
X102917415Y-114760585D01*
X102683242Y-114604115D01*
X103623000Y-114604115D01*
X103623000Y-115011885D01*
X103779047Y-115388616D01*
X104067384Y-115676953D01*
X104444115Y-115833000D01*
X104851885Y-115833000D01*
X105192756Y-115691807D01*
X105192756Y-116674000D01*
X105241263Y-116917863D01*
X105379400Y-117124600D01*
X105586137Y-117262737D01*
X105830000Y-117311244D01*
X107530000Y-117311244D01*
X107773863Y-117262737D01*
X107980600Y-117124600D01*
X108118737Y-116917863D01*
X108132086Y-116850750D01*
X108156585Y-116887415D01*
X108644484Y-117213419D01*
X109074730Y-117299000D01*
X109365270Y-117299000D01*
X109795516Y-117213419D01*
X110283415Y-116887415D01*
X110490000Y-116578239D01*
X110696585Y-116887415D01*
X111184484Y-117213419D01*
X111614730Y-117299000D01*
X111905270Y-117299000D01*
X112335516Y-117213419D01*
X112823415Y-116887415D01*
X113042653Y-116559303D01*
X113317726Y-116924390D01*
X113659277Y-117152571D01*
X113875000Y-117072390D01*
X113875000Y-116249000D01*
X114725000Y-116249000D01*
X114725000Y-117072390D01*
X114940723Y-117152571D01*
X115282274Y-116924390D01*
X115628604Y-116464728D01*
X115556229Y-116249000D01*
X114725000Y-116249000D01*
X113875000Y-116249000D01*
X113655000Y-116249000D01*
X113655000Y-115399000D01*
X113875000Y-115399000D01*
X113875000Y-114575610D01*
X114725000Y-114575610D01*
X114725000Y-115399000D01*
X115556229Y-115399000D01*
X115628604Y-115183272D01*
X115282274Y-114723610D01*
X115033514Y-114557420D01*
X117775000Y-114557420D01*
X117775000Y-115442580D01*
X118113736Y-116260361D01*
X118739639Y-116886264D01*
X119557420Y-117225000D01*
X120442580Y-117225000D01*
X121260361Y-116886264D01*
X121886264Y-116260361D01*
X122225000Y-115442580D01*
X122225000Y-114557420D01*
X121886264Y-113739639D01*
X121260361Y-113113736D01*
X120442580Y-112775000D01*
X119557420Y-112775000D01*
X118739639Y-113113736D01*
X118113736Y-113739639D01*
X117775000Y-114557420D01*
X115033514Y-114557420D01*
X114940723Y-114495429D01*
X114725000Y-114575610D01*
X113875000Y-114575610D01*
X113659277Y-114495429D01*
X113317726Y-114723610D01*
X113042653Y-115088697D01*
X112823415Y-114760585D01*
X112335516Y-114434581D01*
X111905270Y-114349000D01*
X111614730Y-114349000D01*
X111184484Y-114434581D01*
X110696585Y-114760585D01*
X110490000Y-115069761D01*
X110283415Y-114760585D01*
X109795516Y-114434581D01*
X109365270Y-114349000D01*
X109074730Y-114349000D01*
X108644484Y-114434581D01*
X108156585Y-114760585D01*
X108132086Y-114797250D01*
X108118737Y-114730137D01*
X107980600Y-114523400D01*
X107773863Y-114385263D01*
X107530000Y-114336756D01*
X105830000Y-114336756D01*
X105586137Y-114385263D01*
X105583170Y-114387246D01*
X105516953Y-114227384D01*
X105373000Y-114083431D01*
X105373000Y-113795568D01*
X105736616Y-113644953D01*
X106024953Y-113356616D01*
X106181000Y-112979885D01*
X106181000Y-112572115D01*
X106024953Y-112195384D01*
X105736616Y-111907047D01*
X105359885Y-111751000D01*
X104952115Y-111751000D01*
X104575384Y-111907047D01*
X104287047Y-112195384D01*
X104131000Y-112572115D01*
X104131000Y-112757501D01*
X104125305Y-112761306D01*
X103965065Y-113001120D01*
X103923000Y-113212597D01*
X103923000Y-113212600D01*
X103908798Y-113284000D01*
X103923000Y-113355400D01*
X103923001Y-114083430D01*
X103779047Y-114227384D01*
X103623000Y-114604115D01*
X102683242Y-114604115D01*
X102429516Y-114434581D01*
X101999270Y-114349000D01*
X101708730Y-114349000D01*
X101278484Y-114434581D01*
X100790585Y-114760585D01*
X100584000Y-115069761D01*
X100377415Y-114760585D01*
X99889516Y-114434581D01*
X99459270Y-114349000D01*
X99168730Y-114349000D01*
X98738484Y-114434581D01*
X98250585Y-114760585D01*
X98044000Y-115069761D01*
X97837415Y-114760585D01*
X97349516Y-114434581D01*
X96919270Y-114349000D01*
X96628730Y-114349000D01*
X96198484Y-114434581D01*
X95710585Y-114760585D01*
X95504000Y-115069761D01*
X95297415Y-114760585D01*
X94809516Y-114434581D01*
X94379270Y-114349000D01*
X94088730Y-114349000D01*
X93658484Y-114434581D01*
X93170585Y-114760585D01*
X92951347Y-115088697D01*
X92676274Y-114723610D01*
X92334723Y-114495429D01*
X92119000Y-114575610D01*
X91269000Y-114575610D01*
X91053277Y-114495429D01*
X90803000Y-114662632D01*
X90803000Y-105216555D01*
X90797636Y-105180332D01*
X90764046Y-105069392D01*
X90748416Y-105036277D01*
X90333379Y-104413722D01*
X90288355Y-104372851D01*
X90121945Y-104283791D01*
X90062963Y-104269000D01*
X88499037Y-104269000D01*
X88440055Y-104283791D01*
X88273645Y-104372851D01*
X88228621Y-104413722D01*
X87813584Y-105036277D01*
X87797954Y-105069392D01*
X87764364Y-105180332D01*
X87759000Y-105216555D01*
X87759000Y-114664680D01*
X87715263Y-114730137D01*
X87666756Y-114974000D01*
X87666756Y-116674000D01*
X87715263Y-116917863D01*
X87759000Y-116983320D01*
X87759000Y-117748293D01*
X87737582Y-117800000D01*
X35037914Y-117800000D01*
X34399625Y-117730660D01*
X33827261Y-117538038D01*
X33309612Y-117227004D01*
X32870830Y-116812068D01*
X32531383Y-116312588D01*
X32307111Y-115751867D01*
X32203852Y-115128131D01*
X32200000Y-114990230D01*
X32200000Y-114557420D01*
X32775000Y-114557420D01*
X32775000Y-115442580D01*
X33113736Y-116260361D01*
X33739639Y-116886264D01*
X34557420Y-117225000D01*
X35442580Y-117225000D01*
X36260361Y-116886264D01*
X36886264Y-116260361D01*
X37225000Y-115442580D01*
X37225000Y-114557420D01*
X36886264Y-113739639D01*
X36260361Y-113113736D01*
X35442580Y-112775000D01*
X34557420Y-112775000D01*
X33739639Y-113113736D01*
X33113736Y-113739639D01*
X32775000Y-114557420D01*
X32200000Y-114557420D01*
X32200000Y-111681250D01*
X40025000Y-111681250D01*
X40025000Y-112774320D01*
X40120151Y-113004034D01*
X40295966Y-113179850D01*
X40525680Y-113275000D01*
X41618750Y-113275000D01*
X41775000Y-113118750D01*
X41775000Y-111525000D01*
X43025000Y-111525000D01*
X43025000Y-113118750D01*
X43181250Y-113275000D01*
X44274320Y-113275000D01*
X44504034Y-113179850D01*
X44679849Y-113004034D01*
X44775000Y-112774320D01*
X44775000Y-111681250D01*
X44618750Y-111525000D01*
X43025000Y-111525000D01*
X41775000Y-111525000D01*
X40181250Y-111525000D01*
X40025000Y-111681250D01*
X32200000Y-111681250D01*
X32200000Y-106981250D01*
X37275000Y-106981250D01*
X37275000Y-108074320D01*
X37370151Y-108304034D01*
X37545966Y-108479850D01*
X37775680Y-108575000D01*
X38618750Y-108575000D01*
X38775000Y-108418750D01*
X38775000Y-106825000D01*
X40025000Y-106825000D01*
X40025000Y-108418750D01*
X40181250Y-108575000D01*
X40404968Y-108575000D01*
X40295966Y-108620150D01*
X40120151Y-108795966D01*
X40025000Y-109025680D01*
X40025000Y-110118750D01*
X40181250Y-110275000D01*
X41775000Y-110275000D01*
X41775000Y-108681250D01*
X41618750Y-108525000D01*
X41145032Y-108525000D01*
X41254034Y-108479850D01*
X41429849Y-108304034D01*
X41525000Y-108074320D01*
X41525000Y-106981250D01*
X41368750Y-106825000D01*
X40025000Y-106825000D01*
X38775000Y-106825000D01*
X37431250Y-106825000D01*
X37275000Y-106981250D01*
X32200000Y-106981250D01*
X32200000Y-104325680D01*
X37275000Y-104325680D01*
X37275000Y-105418750D01*
X37431250Y-105575000D01*
X38775000Y-105575000D01*
X38775000Y-103981250D01*
X40025000Y-103981250D01*
X40025000Y-105575000D01*
X41368750Y-105575000D01*
X41525000Y-105418750D01*
X41525000Y-104450000D01*
X43012756Y-104450000D01*
X43012756Y-107950000D01*
X43061263Y-108193863D01*
X43199400Y-108400600D01*
X43385578Y-108525000D01*
X43181250Y-108525000D01*
X43025000Y-108681250D01*
X43025000Y-110275000D01*
X44618750Y-110275000D01*
X44775000Y-110118750D01*
X44775000Y-109025680D01*
X44679849Y-108795966D01*
X44504034Y-108620150D01*
X44424591Y-108587244D01*
X47150000Y-108587244D01*
X47393863Y-108538737D01*
X47600600Y-108400600D01*
X47738737Y-108193863D01*
X47787244Y-107950000D01*
X47787244Y-104450000D01*
X47738737Y-104206137D01*
X47600600Y-103999400D01*
X47393863Y-103861263D01*
X47150000Y-103812756D01*
X43650000Y-103812756D01*
X43406137Y-103861263D01*
X43199400Y-103999400D01*
X43061263Y-104206137D01*
X43012756Y-104450000D01*
X41525000Y-104450000D01*
X41525000Y-104325680D01*
X41429849Y-104095966D01*
X41254034Y-103920150D01*
X41024320Y-103825000D01*
X40181250Y-103825000D01*
X40025000Y-103981250D01*
X38775000Y-103981250D01*
X38618750Y-103825000D01*
X37775680Y-103825000D01*
X37545966Y-103920150D01*
X37370151Y-104095966D01*
X37275000Y-104325680D01*
X32200000Y-104325680D01*
X32200000Y-84707000D01*
X33149000Y-84707000D01*
X33149000Y-98860000D01*
X33158515Y-98907836D01*
X33217094Y-99049257D01*
X33244191Y-99089810D01*
X33284743Y-99116906D01*
X33426164Y-99175485D01*
X33474000Y-99185000D01*
X36549048Y-99185000D01*
X36576972Y-99187869D01*
X47936016Y-101547055D01*
X47874960Y-101854000D01*
X47962274Y-102292953D01*
X48148156Y-102571145D01*
X48659001Y-103081990D01*
X48659000Y-106823198D01*
X48636960Y-106934000D01*
X48659000Y-107044802D01*
X48724273Y-107372952D01*
X48972920Y-107745080D01*
X49066859Y-107807848D01*
X51352854Y-110093844D01*
X52114854Y-110855844D01*
X52393046Y-111041726D01*
X52832000Y-111129040D01*
X53270953Y-111041726D01*
X53643079Y-110793079D01*
X53891726Y-110420953D01*
X53979040Y-109982000D01*
X53891726Y-109543046D01*
X53705844Y-109264854D01*
X52943844Y-108502854D01*
X50909000Y-106468011D01*
X50909000Y-102726802D01*
X50931040Y-102616000D01*
X50909000Y-102505197D01*
X50843727Y-102177047D01*
X50823491Y-102146761D01*
X52939860Y-102586315D01*
X53031786Y-102655997D01*
X54697064Y-105867603D01*
X54743100Y-105916875D01*
X54920651Y-106024812D01*
X54985584Y-106043000D01*
X68991875Y-106043000D01*
X69046024Y-106030663D01*
X69202198Y-105955602D01*
X69245658Y-105921026D01*
X71173783Y-103510870D01*
X71194128Y-103474159D01*
X71237954Y-103349220D01*
X71245000Y-103307844D01*
X71245000Y-96489437D01*
X72185780Y-95548657D01*
X72258840Y-95499840D01*
X72452232Y-95210408D01*
X72476335Y-95089234D01*
X72496953Y-95068616D01*
X72653000Y-94691885D01*
X72653000Y-94284115D01*
X72496953Y-93907384D01*
X72208616Y-93619047D01*
X71831885Y-93463000D01*
X71424115Y-93463000D01*
X71047384Y-93619047D01*
X71030118Y-93636313D01*
X70967836Y-93610515D01*
X70920000Y-93601000D01*
X60469158Y-93601000D01*
X60451259Y-93599830D01*
X48091792Y-91976869D01*
X48029059Y-91943358D01*
X48004000Y-91876795D01*
X48004000Y-90753080D01*
X48029685Y-90685870D01*
X48093649Y-90652919D01*
X60451345Y-89279841D01*
X60466539Y-89279000D01*
X70920000Y-89279000D01*
X70967836Y-89269485D01*
X71030118Y-89243687D01*
X71047384Y-89260953D01*
X71424115Y-89417000D01*
X71831885Y-89417000D01*
X72208616Y-89260953D01*
X72496953Y-88972616D01*
X72653000Y-88595885D01*
X72653000Y-88188115D01*
X72496953Y-87811384D01*
X72476335Y-87790766D01*
X72452232Y-87669592D01*
X72258840Y-87380160D01*
X72185780Y-87331343D01*
X71245000Y-86390563D01*
X71245000Y-79843980D01*
X71234418Y-79793647D01*
X71169563Y-79646217D01*
X71139611Y-79604406D01*
X68213814Y-76922425D01*
X68174663Y-76898072D01*
X68039518Y-76845503D01*
X67994203Y-76837000D01*
X55720090Y-76837000D01*
X55666878Y-76848892D01*
X55512799Y-76921378D01*
X55469712Y-76954790D01*
X52544573Y-80489333D01*
X52461224Y-80536774D01*
X39749000Y-82528989D01*
X39749000Y-80645000D01*
X39739385Y-80596923D01*
X39712203Y-80556427D01*
X39671594Y-80529415D01*
X37512594Y-79640415D01*
X37465000Y-79631000D01*
X36357427Y-79631000D01*
X36895518Y-79092909D01*
X37200000Y-78357825D01*
X37200000Y-77562175D01*
X36895518Y-76827091D01*
X36332909Y-76264482D01*
X35597825Y-75960000D01*
X34802175Y-75960000D01*
X34067091Y-76264482D01*
X33504482Y-76827091D01*
X33200000Y-77562175D01*
X33200000Y-78357825D01*
X33504482Y-79092909D01*
X34042573Y-79631000D01*
X32200000Y-79631000D01*
X32200000Y-70037913D01*
X32252198Y-69557420D01*
X32775000Y-69557420D01*
X32775000Y-70442580D01*
X33113736Y-71260361D01*
X33739639Y-71886264D01*
X34557420Y-72225000D01*
X35442580Y-72225000D01*
X36260361Y-71886264D01*
X36886264Y-71260361D01*
X37225000Y-70442580D01*
X37225000Y-69557420D01*
X36886264Y-68739639D01*
X36260361Y-68113736D01*
X35442580Y-67775000D01*
X34557420Y-67775000D01*
X33739639Y-68113736D01*
X33113736Y-68739639D01*
X32775000Y-69557420D01*
X32252198Y-69557420D01*
X32269340Y-69399625D01*
X32461963Y-68827259D01*
X32772998Y-68309610D01*
X33187936Y-67870827D01*
X33687415Y-67531382D01*
X34248133Y-67307111D01*
X34871876Y-67203851D01*
X35009770Y-67200000D01*
X87759000Y-67200000D01*
X87759000Y-68182680D01*
X87759000Y-68182680D01*
G37*
X87759000Y-68182680D02*
X87715263Y-68248137D01*
X87666756Y-68492000D01*
X87666756Y-70192000D01*
X87715263Y-70435863D01*
X87759000Y-70501320D01*
X87759000Y-85722814D01*
X87398720Y-85872047D01*
X87254767Y-86016000D01*
X84417569Y-86016000D01*
X84273616Y-85872047D01*
X83896885Y-85716000D01*
X83489115Y-85716000D01*
X83112384Y-85872047D01*
X82824047Y-86160384D01*
X82668000Y-86537115D01*
X82668000Y-86944885D01*
X82824047Y-87321616D01*
X83112384Y-87609953D01*
X83489115Y-87766000D01*
X83896885Y-87766000D01*
X84273616Y-87609953D01*
X84417569Y-87466000D01*
X87254767Y-87466000D01*
X87398720Y-87609953D01*
X87759000Y-87759186D01*
X87759000Y-102809445D01*
X87764364Y-102845668D01*
X87797954Y-102956608D01*
X87813584Y-102989723D01*
X88228621Y-103612278D01*
X88273645Y-103653149D01*
X88440055Y-103742209D01*
X88499037Y-103757000D01*
X90087157Y-103757000D01*
X90134992Y-103747485D01*
X90276414Y-103688906D01*
X90316967Y-103661809D01*
X90707809Y-103270967D01*
X90734906Y-103230414D01*
X90793485Y-103088992D01*
X90803000Y-103041157D01*
X90803000Y-99110115D01*
X105147000Y-99110115D01*
X105147000Y-99517885D01*
X105303047Y-99894616D01*
X105591384Y-100182953D01*
X105639782Y-100203000D01*
X105591384Y-100223047D01*
X105303047Y-100511384D01*
X105147000Y-100888115D01*
X105147000Y-101295885D01*
X105303047Y-101672616D01*
X105591384Y-101960953D01*
X105968115Y-102117000D01*
X106375885Y-102117000D01*
X106752616Y-101960953D01*
X106896569Y-101817000D01*
X108386600Y-101817000D01*
X108458000Y-101831202D01*
X108529400Y-101817000D01*
X108529404Y-101817000D01*
X108740881Y-101774935D01*
X108980695Y-101614695D01*
X108984500Y-101609000D01*
X109169885Y-101609000D01*
X109546616Y-101452953D01*
X109834953Y-101164616D01*
X109966514Y-100847000D01*
X110185885Y-100847000D01*
X110562616Y-100690953D01*
X110850953Y-100402616D01*
X111007000Y-100025885D01*
X111007000Y-99618115D01*
X110850953Y-99241384D01*
X110562616Y-98953047D01*
X110185885Y-98797000D01*
X109778115Y-98797000D01*
X109401384Y-98953047D01*
X109257431Y-99097000D01*
X107191568Y-99097000D01*
X107040953Y-98733384D01*
X106752616Y-98445047D01*
X106375885Y-98289000D01*
X105968115Y-98289000D01*
X105591384Y-98445047D01*
X105303047Y-98733384D01*
X105147000Y-99110115D01*
X90803000Y-99110115D01*
X90803000Y-90866807D01*
X90982117Y-90941000D01*
X91389887Y-90941000D01*
X91766618Y-90784953D01*
X92054955Y-90496616D01*
X92211002Y-90119885D01*
X92211002Y-89712115D01*
X92054955Y-89335384D01*
X91766618Y-89047047D01*
X91404486Y-88897047D01*
X90803000Y-88295561D01*
X90803000Y-87172115D01*
X104639000Y-87172115D01*
X104639000Y-87579885D01*
X104795047Y-87956616D01*
X105083384Y-88244953D01*
X105460115Y-88401000D01*
X105867885Y-88401000D01*
X106172000Y-88275032D01*
X106476115Y-88401000D01*
X106883885Y-88401000D01*
X107260616Y-88244953D01*
X107548953Y-87956616D01*
X107705000Y-87579885D01*
X107705000Y-87172115D01*
X107548953Y-86795384D01*
X107405000Y-86651431D01*
X107405000Y-85560569D01*
X107548953Y-85416616D01*
X107705000Y-85039885D01*
X107705000Y-84632115D01*
X107548953Y-84255384D01*
X107260616Y-83967047D01*
X106883885Y-83811000D01*
X106476115Y-83811000D01*
X106160805Y-83941606D01*
X105883717Y-83826832D01*
X105475947Y-83826832D01*
X105099216Y-83982879D01*
X104810879Y-84271216D01*
X104654832Y-84647947D01*
X104654832Y-85055717D01*
X104810879Y-85432448D01*
X104939001Y-85560570D01*
X104939000Y-86651431D01*
X104795047Y-86795384D01*
X104639000Y-87172115D01*
X90803000Y-87172115D01*
X90803000Y-80060115D01*
X113021000Y-80060115D01*
X113021000Y-80467885D01*
X113177047Y-80844616D01*
X113465384Y-81132953D01*
X113842115Y-81289000D01*
X113905241Y-81289000D01*
X113783000Y-81584115D01*
X113783000Y-81991885D01*
X113939047Y-82368616D01*
X114227384Y-82656953D01*
X114604115Y-82813000D01*
X115011885Y-82813000D01*
X115388616Y-82656953D01*
X115676953Y-82368616D01*
X115833000Y-81991885D01*
X115833000Y-81584115D01*
X115676953Y-81207384D01*
X115538636Y-81069067D01*
X115547202Y-81026000D01*
X115533000Y-80954600D01*
X115533000Y-80954596D01*
X115490935Y-80743119D01*
X115330695Y-80503305D01*
X115270161Y-80462857D01*
X115071000Y-80263696D01*
X115071000Y-80060115D01*
X114914953Y-79683384D01*
X114626616Y-79395047D01*
X114249885Y-79239000D01*
X113842115Y-79239000D01*
X113465384Y-79395047D01*
X113177047Y-79683384D01*
X113021000Y-80060115D01*
X90803000Y-80060115D01*
X90803000Y-73202115D01*
X107687000Y-73202115D01*
X107687000Y-73609885D01*
X107843047Y-73986616D01*
X107987001Y-74130570D01*
X107987000Y-74459429D01*
X107843047Y-74603382D01*
X107687000Y-74980113D01*
X107687000Y-75387883D01*
X107843047Y-75764614D01*
X108131384Y-76052951D01*
X108508115Y-76208998D01*
X108915885Y-76208998D01*
X109292616Y-76052951D01*
X109580953Y-75764614D01*
X109737000Y-75387883D01*
X109737000Y-74980113D01*
X109580953Y-74603382D01*
X109437000Y-74459429D01*
X109437000Y-74130569D01*
X109580953Y-73986616D01*
X109737000Y-73609885D01*
X109737000Y-73202115D01*
X109580953Y-72825384D01*
X109292616Y-72537047D01*
X108915885Y-72381000D01*
X108508115Y-72381000D01*
X108131384Y-72537047D01*
X107843047Y-72825384D01*
X107687000Y-73202115D01*
X90803000Y-73202115D01*
X90803000Y-70503368D01*
X91053277Y-70670571D01*
X91269000Y-70590390D01*
X91269000Y-69767000D01*
X91049000Y-69767000D01*
X91049000Y-68917000D01*
X91269000Y-68917000D01*
X91269000Y-68093610D01*
X92119000Y-68093610D01*
X92119000Y-68917000D01*
X92339000Y-68917000D01*
X92339000Y-69767000D01*
X92119000Y-69767000D01*
X92119000Y-70590390D01*
X92334723Y-70670571D01*
X92676274Y-70442390D01*
X92951347Y-70077303D01*
X93170585Y-70405415D01*
X93658484Y-70731419D01*
X94088730Y-70817000D01*
X94379270Y-70817000D01*
X94809516Y-70731419D01*
X95297415Y-70405415D01*
X95504000Y-70096239D01*
X95710585Y-70405415D01*
X96198484Y-70731419D01*
X96628730Y-70817000D01*
X96919270Y-70817000D01*
X97349516Y-70731419D01*
X97837415Y-70405415D01*
X98044000Y-70096239D01*
X98250585Y-70405415D01*
X98738484Y-70731419D01*
X99168730Y-70817000D01*
X99459270Y-70817000D01*
X99889516Y-70731419D01*
X100377415Y-70405415D01*
X100584000Y-70096239D01*
X100790585Y-70405415D01*
X101278484Y-70731419D01*
X101708730Y-70817000D01*
X101999270Y-70817000D01*
X102429516Y-70731419D01*
X102917415Y-70405415D01*
X103243419Y-69917516D01*
X103315046Y-69557420D01*
X117775000Y-69557420D01*
X117775000Y-70442580D01*
X118113736Y-71260361D01*
X118739639Y-71886264D01*
X119557420Y-72225000D01*
X120442580Y-72225000D01*
X121260361Y-71886264D01*
X121886264Y-71260361D01*
X122225000Y-70442580D01*
X122225000Y-69557420D01*
X121886264Y-68739639D01*
X121260361Y-68113736D01*
X120442580Y-67775000D01*
X119557420Y-67775000D01*
X118739639Y-68113736D01*
X118113736Y-68739639D01*
X117775000Y-69557420D01*
X103315046Y-69557420D01*
X103357896Y-69342000D01*
X103243419Y-68766484D01*
X102917415Y-68278585D01*
X102429516Y-67952581D01*
X101999270Y-67867000D01*
X101708730Y-67867000D01*
X101278484Y-67952581D01*
X100790585Y-68278585D01*
X100584000Y-68587761D01*
X100377415Y-68278585D01*
X99889516Y-67952581D01*
X99459270Y-67867000D01*
X99168730Y-67867000D01*
X98738484Y-67952581D01*
X98250585Y-68278585D01*
X98044000Y-68587761D01*
X97837415Y-68278585D01*
X97349516Y-67952581D01*
X96919270Y-67867000D01*
X96628730Y-67867000D01*
X96198484Y-67952581D01*
X95710585Y-68278585D01*
X95504000Y-68587761D01*
X95297415Y-68278585D01*
X94809516Y-67952581D01*
X94379270Y-67867000D01*
X94088730Y-67867000D01*
X93658484Y-67952581D01*
X93170585Y-68278585D01*
X92951347Y-68606697D01*
X92676274Y-68241610D01*
X92334723Y-68013429D01*
X92119000Y-68093610D01*
X91269000Y-68093610D01*
X91053277Y-68013429D01*
X90803000Y-68180632D01*
X90803000Y-67200000D01*
X119962087Y-67200000D01*
X120600375Y-67269340D01*
X121172741Y-67461963D01*
X121690390Y-67772998D01*
X122129173Y-68187936D01*
X122468618Y-68687415D01*
X122692889Y-69248133D01*
X122796149Y-69871876D01*
X122800000Y-70009770D01*
X122800000Y-77599000D01*
X118700843Y-77599000D01*
X118653008Y-77608515D01*
X118511586Y-77667094D01*
X118471033Y-77694191D01*
X118080191Y-78085033D01*
X118053094Y-78125586D01*
X117994515Y-78267008D01*
X117985000Y-78314843D01*
X117985000Y-106851157D01*
X117994515Y-106898992D01*
X118053094Y-107040414D01*
X118080191Y-107080967D01*
X118471033Y-107471809D01*
X118511586Y-107498906D01*
X118653008Y-107557485D01*
X118700843Y-107567000D01*
X122800001Y-107567000D01*
X122800001Y-114962077D01*
X122730660Y-115600375D01*
X122538038Y-116172739D01*
X122227004Y-116690388D01*
X121812068Y-117129170D01*
X121312588Y-117468617D01*
X120751867Y-117692889D01*
X120128131Y-117796148D01*
X119990230Y-117800000D01*
X90824418Y-117800000D01*
X90803000Y-117748293D01*
X90803000Y-116985368D01*
X91053277Y-117152571D01*
X91269000Y-117072390D01*
X91269000Y-116249000D01*
X91049000Y-116249000D01*
X91049000Y-115399000D01*
X91269000Y-115399000D01*
X91269000Y-114575610D01*
X92119000Y-114575610D01*
X92119000Y-115399000D01*
X92339000Y-115399000D01*
X92339000Y-116249000D01*
X92119000Y-116249000D01*
X92119000Y-117072390D01*
X92334723Y-117152571D01*
X92676274Y-116924390D01*
X92951347Y-116559303D01*
X93170585Y-116887415D01*
X93658484Y-117213419D01*
X94088730Y-117299000D01*
X94379270Y-117299000D01*
X94809516Y-117213419D01*
X95297415Y-116887415D01*
X95504000Y-116578239D01*
X95710585Y-116887415D01*
X96198484Y-117213419D01*
X96628730Y-117299000D01*
X96919270Y-117299000D01*
X97349516Y-117213419D01*
X97837415Y-116887415D01*
X98044000Y-116578239D01*
X98250585Y-116887415D01*
X98738484Y-117213419D01*
X99168730Y-117299000D01*
X99459270Y-117299000D01*
X99889516Y-117213419D01*
X100377415Y-116887415D01*
X100584000Y-116578239D01*
X100790585Y-116887415D01*
X101278484Y-117213419D01*
X101708730Y-117299000D01*
X101999270Y-117299000D01*
X102429516Y-117213419D01*
X102917415Y-116887415D01*
X103243419Y-116399516D01*
X103357896Y-115824000D01*
X103243419Y-115248484D01*
X102917415Y-114760585D01*
X102683242Y-114604115D01*
X103623000Y-114604115D01*
X103623000Y-115011885D01*
X103779047Y-115388616D01*
X104067384Y-115676953D01*
X104444115Y-115833000D01*
X104851885Y-115833000D01*
X105192756Y-115691807D01*
X105192756Y-116674000D01*
X105241263Y-116917863D01*
X105379400Y-117124600D01*
X105586137Y-117262737D01*
X105830000Y-117311244D01*
X107530000Y-117311244D01*
X107773863Y-117262737D01*
X107980600Y-117124600D01*
X108118737Y-116917863D01*
X108132086Y-116850750D01*
X108156585Y-116887415D01*
X108644484Y-117213419D01*
X109074730Y-117299000D01*
X109365270Y-117299000D01*
X109795516Y-117213419D01*
X110283415Y-116887415D01*
X110490000Y-116578239D01*
X110696585Y-116887415D01*
X111184484Y-117213419D01*
X111614730Y-117299000D01*
X111905270Y-117299000D01*
X112335516Y-117213419D01*
X112823415Y-116887415D01*
X113042653Y-116559303D01*
X113317726Y-116924390D01*
X113659277Y-117152571D01*
X113875000Y-117072390D01*
X113875000Y-116249000D01*
X114725000Y-116249000D01*
X114725000Y-117072390D01*
X114940723Y-117152571D01*
X115282274Y-116924390D01*
X115628604Y-116464728D01*
X115556229Y-116249000D01*
X114725000Y-116249000D01*
X113875000Y-116249000D01*
X113655000Y-116249000D01*
X113655000Y-115399000D01*
X113875000Y-115399000D01*
X113875000Y-114575610D01*
X114725000Y-114575610D01*
X114725000Y-115399000D01*
X115556229Y-115399000D01*
X115628604Y-115183272D01*
X115282274Y-114723610D01*
X115033514Y-114557420D01*
X117775000Y-114557420D01*
X117775000Y-115442580D01*
X118113736Y-116260361D01*
X118739639Y-116886264D01*
X119557420Y-117225000D01*
X120442580Y-117225000D01*
X121260361Y-116886264D01*
X121886264Y-116260361D01*
X122225000Y-115442580D01*
X122225000Y-114557420D01*
X121886264Y-113739639D01*
X121260361Y-113113736D01*
X120442580Y-112775000D01*
X119557420Y-112775000D01*
X118739639Y-113113736D01*
X118113736Y-113739639D01*
X117775000Y-114557420D01*
X115033514Y-114557420D01*
X114940723Y-114495429D01*
X114725000Y-114575610D01*
X113875000Y-114575610D01*
X113659277Y-114495429D01*
X113317726Y-114723610D01*
X113042653Y-115088697D01*
X112823415Y-114760585D01*
X112335516Y-114434581D01*
X111905270Y-114349000D01*
X111614730Y-114349000D01*
X111184484Y-114434581D01*
X110696585Y-114760585D01*
X110490000Y-115069761D01*
X110283415Y-114760585D01*
X109795516Y-114434581D01*
X109365270Y-114349000D01*
X109074730Y-114349000D01*
X108644484Y-114434581D01*
X108156585Y-114760585D01*
X108132086Y-114797250D01*
X108118737Y-114730137D01*
X107980600Y-114523400D01*
X107773863Y-114385263D01*
X107530000Y-114336756D01*
X105830000Y-114336756D01*
X105586137Y-114385263D01*
X105583170Y-114387246D01*
X105516953Y-114227384D01*
X105373000Y-114083431D01*
X105373000Y-113795568D01*
X105736616Y-113644953D01*
X106024953Y-113356616D01*
X106181000Y-112979885D01*
X106181000Y-112572115D01*
X106024953Y-112195384D01*
X105736616Y-111907047D01*
X105359885Y-111751000D01*
X104952115Y-111751000D01*
X104575384Y-111907047D01*
X104287047Y-112195384D01*
X104131000Y-112572115D01*
X104131000Y-112757501D01*
X104125305Y-112761306D01*
X103965065Y-113001120D01*
X103923000Y-113212597D01*
X103923000Y-113212600D01*
X103908798Y-113284000D01*
X103923000Y-113355400D01*
X103923001Y-114083430D01*
X103779047Y-114227384D01*
X103623000Y-114604115D01*
X102683242Y-114604115D01*
X102429516Y-114434581D01*
X101999270Y-114349000D01*
X101708730Y-114349000D01*
X101278484Y-114434581D01*
X100790585Y-114760585D01*
X100584000Y-115069761D01*
X100377415Y-114760585D01*
X99889516Y-114434581D01*
X99459270Y-114349000D01*
X99168730Y-114349000D01*
X98738484Y-114434581D01*
X98250585Y-114760585D01*
X98044000Y-115069761D01*
X97837415Y-114760585D01*
X97349516Y-114434581D01*
X96919270Y-114349000D01*
X96628730Y-114349000D01*
X96198484Y-114434581D01*
X95710585Y-114760585D01*
X95504000Y-115069761D01*
X95297415Y-114760585D01*
X94809516Y-114434581D01*
X94379270Y-114349000D01*
X94088730Y-114349000D01*
X93658484Y-114434581D01*
X93170585Y-114760585D01*
X92951347Y-115088697D01*
X92676274Y-114723610D01*
X92334723Y-114495429D01*
X92119000Y-114575610D01*
X91269000Y-114575610D01*
X91053277Y-114495429D01*
X90803000Y-114662632D01*
X90803000Y-105216555D01*
X90797636Y-105180332D01*
X90764046Y-105069392D01*
X90748416Y-105036277D01*
X90333379Y-104413722D01*
X90288355Y-104372851D01*
X90121945Y-104283791D01*
X90062963Y-104269000D01*
X88499037Y-104269000D01*
X88440055Y-104283791D01*
X88273645Y-104372851D01*
X88228621Y-104413722D01*
X87813584Y-105036277D01*
X87797954Y-105069392D01*
X87764364Y-105180332D01*
X87759000Y-105216555D01*
X87759000Y-114664680D01*
X87715263Y-114730137D01*
X87666756Y-114974000D01*
X87666756Y-116674000D01*
X87715263Y-116917863D01*
X87759000Y-116983320D01*
X87759000Y-117748293D01*
X87737582Y-117800000D01*
X35037914Y-117800000D01*
X34399625Y-117730660D01*
X33827261Y-117538038D01*
X33309612Y-117227004D01*
X32870830Y-116812068D01*
X32531383Y-116312588D01*
X32307111Y-115751867D01*
X32203852Y-115128131D01*
X32200000Y-114990230D01*
X32200000Y-114557420D01*
X32775000Y-114557420D01*
X32775000Y-115442580D01*
X33113736Y-116260361D01*
X33739639Y-116886264D01*
X34557420Y-117225000D01*
X35442580Y-117225000D01*
X36260361Y-116886264D01*
X36886264Y-116260361D01*
X37225000Y-115442580D01*
X37225000Y-114557420D01*
X36886264Y-113739639D01*
X36260361Y-113113736D01*
X35442580Y-112775000D01*
X34557420Y-112775000D01*
X33739639Y-113113736D01*
X33113736Y-113739639D01*
X32775000Y-114557420D01*
X32200000Y-114557420D01*
X32200000Y-111681250D01*
X40025000Y-111681250D01*
X40025000Y-112774320D01*
X40120151Y-113004034D01*
X40295966Y-113179850D01*
X40525680Y-113275000D01*
X41618750Y-113275000D01*
X41775000Y-113118750D01*
X41775000Y-111525000D01*
X43025000Y-111525000D01*
X43025000Y-113118750D01*
X43181250Y-113275000D01*
X44274320Y-113275000D01*
X44504034Y-113179850D01*
X44679849Y-113004034D01*
X44775000Y-112774320D01*
X44775000Y-111681250D01*
X44618750Y-111525000D01*
X43025000Y-111525000D01*
X41775000Y-111525000D01*
X40181250Y-111525000D01*
X40025000Y-111681250D01*
X32200000Y-111681250D01*
X32200000Y-106981250D01*
X37275000Y-106981250D01*
X37275000Y-108074320D01*
X37370151Y-108304034D01*
X37545966Y-108479850D01*
X37775680Y-108575000D01*
X38618750Y-108575000D01*
X38775000Y-108418750D01*
X38775000Y-106825000D01*
X40025000Y-106825000D01*
X40025000Y-108418750D01*
X40181250Y-108575000D01*
X40404968Y-108575000D01*
X40295966Y-108620150D01*
X40120151Y-108795966D01*
X40025000Y-109025680D01*
X40025000Y-110118750D01*
X40181250Y-110275000D01*
X41775000Y-110275000D01*
X41775000Y-108681250D01*
X41618750Y-108525000D01*
X41145032Y-108525000D01*
X41254034Y-108479850D01*
X41429849Y-108304034D01*
X41525000Y-108074320D01*
X41525000Y-106981250D01*
X41368750Y-106825000D01*
X40025000Y-106825000D01*
X38775000Y-106825000D01*
X37431250Y-106825000D01*
X37275000Y-106981250D01*
X32200000Y-106981250D01*
X32200000Y-104325680D01*
X37275000Y-104325680D01*
X37275000Y-105418750D01*
X37431250Y-105575000D01*
X38775000Y-105575000D01*
X38775000Y-103981250D01*
X40025000Y-103981250D01*
X40025000Y-105575000D01*
X41368750Y-105575000D01*
X41525000Y-105418750D01*
X41525000Y-104450000D01*
X43012756Y-104450000D01*
X43012756Y-107950000D01*
X43061263Y-108193863D01*
X43199400Y-108400600D01*
X43385578Y-108525000D01*
X43181250Y-108525000D01*
X43025000Y-108681250D01*
X43025000Y-110275000D01*
X44618750Y-110275000D01*
X44775000Y-110118750D01*
X44775000Y-109025680D01*
X44679849Y-108795966D01*
X44504034Y-108620150D01*
X44424591Y-108587244D01*
X47150000Y-108587244D01*
X47393863Y-108538737D01*
X47600600Y-108400600D01*
X47738737Y-108193863D01*
X47787244Y-107950000D01*
X47787244Y-104450000D01*
X47738737Y-104206137D01*
X47600600Y-103999400D01*
X47393863Y-103861263D01*
X47150000Y-103812756D01*
X43650000Y-103812756D01*
X43406137Y-103861263D01*
X43199400Y-103999400D01*
X43061263Y-104206137D01*
X43012756Y-104450000D01*
X41525000Y-104450000D01*
X41525000Y-104325680D01*
X41429849Y-104095966D01*
X41254034Y-103920150D01*
X41024320Y-103825000D01*
X40181250Y-103825000D01*
X40025000Y-103981250D01*
X38775000Y-103981250D01*
X38618750Y-103825000D01*
X37775680Y-103825000D01*
X37545966Y-103920150D01*
X37370151Y-104095966D01*
X37275000Y-104325680D01*
X32200000Y-104325680D01*
X32200000Y-84707000D01*
X33149000Y-84707000D01*
X33149000Y-98860000D01*
X33158515Y-98907836D01*
X33217094Y-99049257D01*
X33244191Y-99089810D01*
X33284743Y-99116906D01*
X33426164Y-99175485D01*
X33474000Y-99185000D01*
X36549048Y-99185000D01*
X36576972Y-99187869D01*
X47936016Y-101547055D01*
X47874960Y-101854000D01*
X47962274Y-102292953D01*
X48148156Y-102571145D01*
X48659001Y-103081990D01*
X48659000Y-106823198D01*
X48636960Y-106934000D01*
X48659000Y-107044802D01*
X48724273Y-107372952D01*
X48972920Y-107745080D01*
X49066859Y-107807848D01*
X51352854Y-110093844D01*
X52114854Y-110855844D01*
X52393046Y-111041726D01*
X52832000Y-111129040D01*
X53270953Y-111041726D01*
X53643079Y-110793079D01*
X53891726Y-110420953D01*
X53979040Y-109982000D01*
X53891726Y-109543046D01*
X53705844Y-109264854D01*
X52943844Y-108502854D01*
X50909000Y-106468011D01*
X50909000Y-102726802D01*
X50931040Y-102616000D01*
X50909000Y-102505197D01*
X50843727Y-102177047D01*
X50823491Y-102146761D01*
X52939860Y-102586315D01*
X53031786Y-102655997D01*
X54697064Y-105867603D01*
X54743100Y-105916875D01*
X54920651Y-106024812D01*
X54985584Y-106043000D01*
X68991875Y-106043000D01*
X69046024Y-106030663D01*
X69202198Y-105955602D01*
X69245658Y-105921026D01*
X71173783Y-103510870D01*
X71194128Y-103474159D01*
X71237954Y-103349220D01*
X71245000Y-103307844D01*
X71245000Y-96489437D01*
X72185780Y-95548657D01*
X72258840Y-95499840D01*
X72452232Y-95210408D01*
X72476335Y-95089234D01*
X72496953Y-95068616D01*
X72653000Y-94691885D01*
X72653000Y-94284115D01*
X72496953Y-93907384D01*
X72208616Y-93619047D01*
X71831885Y-93463000D01*
X71424115Y-93463000D01*
X71047384Y-93619047D01*
X71030118Y-93636313D01*
X70967836Y-93610515D01*
X70920000Y-93601000D01*
X60469158Y-93601000D01*
X60451259Y-93599830D01*
X48091792Y-91976869D01*
X48029059Y-91943358D01*
X48004000Y-91876795D01*
X48004000Y-90753080D01*
X48029685Y-90685870D01*
X48093649Y-90652919D01*
X60451345Y-89279841D01*
X60466539Y-89279000D01*
X70920000Y-89279000D01*
X70967836Y-89269485D01*
X71030118Y-89243687D01*
X71047384Y-89260953D01*
X71424115Y-89417000D01*
X71831885Y-89417000D01*
X72208616Y-89260953D01*
X72496953Y-88972616D01*
X72653000Y-88595885D01*
X72653000Y-88188115D01*
X72496953Y-87811384D01*
X72476335Y-87790766D01*
X72452232Y-87669592D01*
X72258840Y-87380160D01*
X72185780Y-87331343D01*
X71245000Y-86390563D01*
X71245000Y-79843980D01*
X71234418Y-79793647D01*
X71169563Y-79646217D01*
X71139611Y-79604406D01*
X68213814Y-76922425D01*
X68174663Y-76898072D01*
X68039518Y-76845503D01*
X67994203Y-76837000D01*
X55720090Y-76837000D01*
X55666878Y-76848892D01*
X55512799Y-76921378D01*
X55469712Y-76954790D01*
X52544573Y-80489333D01*
X52461224Y-80536774D01*
X39749000Y-82528989D01*
X39749000Y-80645000D01*
X39739385Y-80596923D01*
X39712203Y-80556427D01*
X39671594Y-80529415D01*
X37512594Y-79640415D01*
X37465000Y-79631000D01*
X36357427Y-79631000D01*
X36895518Y-79092909D01*
X37200000Y-78357825D01*
X37200000Y-77562175D01*
X36895518Y-76827091D01*
X36332909Y-76264482D01*
X35597825Y-75960000D01*
X34802175Y-75960000D01*
X34067091Y-76264482D01*
X33504482Y-76827091D01*
X33200000Y-77562175D01*
X33200000Y-78357825D01*
X33504482Y-79092909D01*
X34042573Y-79631000D01*
X32200000Y-79631000D01*
X32200000Y-70037913D01*
X32252198Y-69557420D01*
X32775000Y-69557420D01*
X32775000Y-70442580D01*
X33113736Y-71260361D01*
X33739639Y-71886264D01*
X34557420Y-72225000D01*
X35442580Y-72225000D01*
X36260361Y-71886264D01*
X36886264Y-71260361D01*
X37225000Y-70442580D01*
X37225000Y-69557420D01*
X36886264Y-68739639D01*
X36260361Y-68113736D01*
X35442580Y-67775000D01*
X34557420Y-67775000D01*
X33739639Y-68113736D01*
X33113736Y-68739639D01*
X32775000Y-69557420D01*
X32252198Y-69557420D01*
X32269340Y-69399625D01*
X32461963Y-68827259D01*
X32772998Y-68309610D01*
X33187936Y-67870827D01*
X33687415Y-67531382D01*
X34248133Y-67307111D01*
X34871876Y-67203851D01*
X35009770Y-67200000D01*
X87759000Y-67200000D01*
X87759000Y-68182680D01*
G04 #@! TO.N,VIN*
G36*
X68062640Y-77883747D02*
X70442419Y-80025548D01*
X70487000Y-80125648D01*
X70487000Y-83595135D01*
X70457750Y-83665750D01*
X70387135Y-83695000D01*
X68433707Y-83695000D01*
X68338227Y-83655451D01*
X65424967Y-80742191D01*
X65384414Y-80715094D01*
X65242992Y-80656515D01*
X65195157Y-80647000D01*
X54326865Y-80647000D01*
X54256250Y-80617750D01*
X54227000Y-80547135D01*
X54227000Y-80099469D01*
X54255598Y-80016120D01*
X55900854Y-77900790D01*
X56006747Y-77849000D01*
X67972092Y-77849000D01*
X68062640Y-77883747D01*
X68062640Y-77883747D01*
G37*
X68062640Y-77883747D02*
X70442419Y-80025548D01*
X70487000Y-80125648D01*
X70487000Y-83595135D01*
X70457750Y-83665750D01*
X70387135Y-83695000D01*
X68433707Y-83695000D01*
X68338227Y-83655451D01*
X65424967Y-80742191D01*
X65384414Y-80715094D01*
X65242992Y-80656515D01*
X65195157Y-80647000D01*
X54326865Y-80647000D01*
X54256250Y-80617750D01*
X54227000Y-80547135D01*
X54227000Y-80099469D01*
X54255598Y-80016120D01*
X55900854Y-77900790D01*
X56006747Y-77849000D01*
X67972092Y-77849000D01*
X68062640Y-77883747D01*
G36*
X70457750Y-99214250D02*
X70487000Y-99284865D01*
X70487000Y-103034531D01*
X70458402Y-103117880D01*
X68813146Y-105233210D01*
X68707253Y-105285000D01*
X55545741Y-105285000D01*
X55423534Y-105202263D01*
X54490793Y-102870407D01*
X54481000Y-102819559D01*
X54481000Y-102332865D01*
X54510250Y-102262250D01*
X54580865Y-102233000D01*
X65195157Y-102233000D01*
X65242992Y-102223485D01*
X65384414Y-102164906D01*
X65424967Y-102137809D01*
X68338227Y-99224549D01*
X68433707Y-99185000D01*
X70387135Y-99185000D01*
X70457750Y-99214250D01*
X70457750Y-99214250D01*
G37*
X70457750Y-99214250D02*
X70487000Y-99284865D01*
X70487000Y-103034531D01*
X70458402Y-103117880D01*
X68813146Y-105233210D01*
X68707253Y-105285000D01*
X55545741Y-105285000D01*
X55423534Y-105202263D01*
X54490793Y-102870407D01*
X54481000Y-102819559D01*
X54481000Y-102332865D01*
X54510250Y-102262250D01*
X54580865Y-102233000D01*
X65195157Y-102233000D01*
X65242992Y-102223485D01*
X65384414Y-102164906D01*
X65424967Y-102137809D01*
X68338227Y-99224549D01*
X68433707Y-99185000D01*
X70387135Y-99185000D01*
X70457750Y-99214250D01*
G04 #@! TO.N,GND*
G36*
X34802175Y-79960000D02*
X35597825Y-79960000D01*
X35788548Y-79881000D01*
X37440271Y-79881000D01*
X39499000Y-80728712D01*
X39499000Y-82569038D01*
X35287813Y-83188330D01*
X35239750Y-83206000D01*
X34325314Y-83777522D01*
X34067091Y-83884482D01*
X33921945Y-84029628D01*
X33238150Y-84457000D01*
X32200000Y-84457000D01*
X32200000Y-79881000D01*
X34611452Y-79881000D01*
X34802175Y-79960000D01*
X34802175Y-79960000D01*
G37*
X34802175Y-79960000D02*
X35597825Y-79960000D01*
X35788548Y-79881000D01*
X37440271Y-79881000D01*
X39499000Y-80728712D01*
X39499000Y-82569038D01*
X35287813Y-83188330D01*
X35239750Y-83206000D01*
X34325314Y-83777522D01*
X34067091Y-83884482D01*
X33921945Y-84029628D01*
X33238150Y-84457000D01*
X32200000Y-84457000D01*
X32200000Y-79881000D01*
X34611452Y-79881000D01*
X34802175Y-79960000D01*
G04 #@! TD*
M02*
