G04 #@! TF.GenerationSoftware,KiCad,Pcbnew,5.0.0-fee4fd1~65~ubuntu16.04.1*
G04 #@! TF.CreationDate,2018-07-29T13:14:09-07:00*
G04 #@! TF.ProjectId,wifistepper,77696669737465707065722E6B696361,rev?*
G04 #@! TF.SameCoordinates,Original*
G04 #@! TF.FileFunction,Soldermask,Bot*
G04 #@! TF.FilePolarity,Negative*
%FSLAX46Y46*%
G04 Gerber Fmt 4.6, Leading zero omitted, Abs format (unit mm)*
G04 Created by KiCad (PCBNEW 5.0.0-fee4fd1~65~ubuntu16.04.1) date Sun Jul 29 13:14:09 2018*
%MOMM*%
%LPD*%
G01*
G04 APERTURE LIST*
%ADD10C,3.600000*%
%ADD11R,3.900000X3.900000*%
%ADD12C,0.100000*%
%ADD13C,3.400000*%
%ADD14C,3.900000*%
%ADD15R,3.150000X3.150000*%
%ADD16C,3.150000*%
%ADD17R,2.100000X2.100000*%
%ADD18O,2.100000X2.100000*%
G04 APERTURE END LIST*
D10*
G04 #@! TO.C,REF\002A\002A*
X120000000Y-70000000D03*
G04 #@! TD*
G04 #@! TO.C,REF\002A\002A*
X120000000Y-115000000D03*
G04 #@! TD*
G04 #@! TO.C,REF\002A\002A*
X35000000Y-115000000D03*
G04 #@! TD*
D11*
G04 #@! TO.C,J1*
X45400000Y-106200000D03*
D12*
G36*
X40333315Y-104254093D02*
X40415827Y-104266333D01*
X40496742Y-104286601D01*
X40575281Y-104314702D01*
X40650687Y-104350367D01*
X40722235Y-104393251D01*
X40789234Y-104442941D01*
X40851041Y-104498959D01*
X40907059Y-104560766D01*
X40956749Y-104627765D01*
X40999633Y-104699313D01*
X41035298Y-104774719D01*
X41063399Y-104853258D01*
X41083667Y-104934173D01*
X41095907Y-105016685D01*
X41100000Y-105100000D01*
X41100000Y-107300000D01*
X41095907Y-107383315D01*
X41083667Y-107465827D01*
X41063399Y-107546742D01*
X41035298Y-107625281D01*
X40999633Y-107700687D01*
X40956749Y-107772235D01*
X40907059Y-107839234D01*
X40851041Y-107901041D01*
X40789234Y-107957059D01*
X40722235Y-108006749D01*
X40650687Y-108049633D01*
X40575281Y-108085298D01*
X40496742Y-108113399D01*
X40415827Y-108133667D01*
X40333315Y-108145907D01*
X40250000Y-108150000D01*
X38550000Y-108150000D01*
X38466685Y-108145907D01*
X38384173Y-108133667D01*
X38303258Y-108113399D01*
X38224719Y-108085298D01*
X38149313Y-108049633D01*
X38077765Y-108006749D01*
X38010766Y-107957059D01*
X37948959Y-107901041D01*
X37892941Y-107839234D01*
X37843251Y-107772235D01*
X37800367Y-107700687D01*
X37764702Y-107625281D01*
X37736601Y-107546742D01*
X37716333Y-107465827D01*
X37704093Y-107383315D01*
X37700000Y-107300000D01*
X37700000Y-105100000D01*
X37704093Y-105016685D01*
X37716333Y-104934173D01*
X37736601Y-104853258D01*
X37764702Y-104774719D01*
X37800367Y-104699313D01*
X37843251Y-104627765D01*
X37892941Y-104560766D01*
X37948959Y-104498959D01*
X38010766Y-104442941D01*
X38077765Y-104393251D01*
X38149313Y-104350367D01*
X38224719Y-104314702D01*
X38303258Y-104286601D01*
X38384173Y-104266333D01*
X38466685Y-104254093D01*
X38550000Y-104250000D01*
X40250000Y-104250000D01*
X40333315Y-104254093D01*
X40333315Y-104254093D01*
G37*
D13*
X39400000Y-106200000D03*
D12*
G36*
X43470567Y-108954695D02*
X43565213Y-108968734D01*
X43658028Y-108991983D01*
X43748116Y-109024217D01*
X43834612Y-109065127D01*
X43916681Y-109114317D01*
X43993533Y-109171315D01*
X44064429Y-109235571D01*
X44128685Y-109306467D01*
X44185683Y-109383319D01*
X44234873Y-109465388D01*
X44275783Y-109551884D01*
X44308017Y-109641972D01*
X44331266Y-109734787D01*
X44345305Y-109829433D01*
X44350000Y-109925000D01*
X44350000Y-111875000D01*
X44345305Y-111970567D01*
X44331266Y-112065213D01*
X44308017Y-112158028D01*
X44275783Y-112248116D01*
X44234873Y-112334612D01*
X44185683Y-112416681D01*
X44128685Y-112493533D01*
X44064429Y-112564429D01*
X43993533Y-112628685D01*
X43916681Y-112685683D01*
X43834612Y-112734873D01*
X43748116Y-112775783D01*
X43658028Y-112808017D01*
X43565213Y-112831266D01*
X43470567Y-112845305D01*
X43375000Y-112850000D01*
X41425000Y-112850000D01*
X41329433Y-112845305D01*
X41234787Y-112831266D01*
X41141972Y-112808017D01*
X41051884Y-112775783D01*
X40965388Y-112734873D01*
X40883319Y-112685683D01*
X40806467Y-112628685D01*
X40735571Y-112564429D01*
X40671315Y-112493533D01*
X40614317Y-112416681D01*
X40565127Y-112334612D01*
X40524217Y-112248116D01*
X40491983Y-112158028D01*
X40468734Y-112065213D01*
X40454695Y-111970567D01*
X40450000Y-111875000D01*
X40450000Y-109925000D01*
X40454695Y-109829433D01*
X40468734Y-109734787D01*
X40491983Y-109641972D01*
X40524217Y-109551884D01*
X40565127Y-109465388D01*
X40614317Y-109383319D01*
X40671315Y-109306467D01*
X40735571Y-109235571D01*
X40806467Y-109171315D01*
X40883319Y-109114317D01*
X40965388Y-109065127D01*
X41051884Y-109024217D01*
X41141972Y-108991983D01*
X41234787Y-108968734D01*
X41329433Y-108954695D01*
X41425000Y-108950000D01*
X43375000Y-108950000D01*
X43470567Y-108954695D01*
X43470567Y-108954695D01*
G37*
D14*
X42400000Y-110900000D03*
G04 #@! TD*
D15*
G04 #@! TO.C,J2*
X35200000Y-97010000D03*
D16*
X35200000Y-93200000D03*
X35200000Y-89390000D03*
X35200000Y-85580000D03*
X35200000Y-81770000D03*
X35200000Y-77960000D03*
G04 #@! TD*
D17*
G04 #@! TO.C,J3*
X89154000Y-69342000D03*
D18*
X91694000Y-69342000D03*
X94234000Y-69342000D03*
X96774000Y-69342000D03*
X99314000Y-69342000D03*
X101854000Y-69342000D03*
G04 #@! TD*
G04 #@! TO.C,J4*
X101854000Y-115824000D03*
X99314000Y-115824000D03*
X96774000Y-115824000D03*
X94234000Y-115824000D03*
X91694000Y-115824000D03*
D17*
X89154000Y-115824000D03*
G04 #@! TD*
G04 #@! TO.C,J5*
X106680000Y-115824000D03*
D18*
X109220000Y-115824000D03*
X111760000Y-115824000D03*
X114300000Y-115824000D03*
G04 #@! TD*
D10*
G04 #@! TO.C,REF\002A\002A*
X35000000Y-70000000D03*
G04 #@! TD*
M02*
