G04 #@! TF.GenerationSoftware,KiCad,Pcbnew,5.0.0-fee4fd1~65~ubuntu16.04.1*
G04 #@! TF.CreationDate,2018-07-29T13:14:09-07:00*
G04 #@! TF.ProjectId,wifistepper,77696669737465707065722E6B696361,rev?*
G04 #@! TF.SameCoordinates,Original*
G04 #@! TF.FileFunction,Legend,Top*
G04 #@! TF.FilePolarity,Positive*
%FSLAX46Y46*%
G04 Gerber Fmt 4.6, Leading zero omitted, Abs format (unit mm)*
G04 Created by KiCad (PCBNEW 5.0.0-fee4fd1~65~ubuntu16.04.1) date Sun Jul 29 13:14:09 2018*
%MOMM*%
%LPD*%
G01*
G04 APERTURE LIST*
%ADD10C,0.200000*%
%ADD11C,0.350000*%
%ADD12C,0.400000*%
%ADD13C,0.250000*%
%ADD14C,0.150000*%
%ADD15C,0.120000*%
%ADD16C,0.050000*%
%ADD17C,0.100000*%
%ADD18C,0.010000*%
G04 APERTURE END LIST*
D10*
X86360000Y-100838000D02*
X86360000Y-96774000D01*
X88900000Y-100838000D02*
X86360000Y-100838000D01*
X88900000Y-96774000D02*
X88900000Y-100838000D01*
X86360000Y-96774000D02*
X88900000Y-96774000D01*
X42383714Y-115582000D02*
X42240857Y-115510571D01*
X42026571Y-115510571D01*
X41812285Y-115582000D01*
X41669428Y-115724857D01*
X41598000Y-115867714D01*
X41526571Y-116153428D01*
X41526571Y-116367714D01*
X41598000Y-116653428D01*
X41669428Y-116796285D01*
X41812285Y-116939142D01*
X42026571Y-117010571D01*
X42169428Y-117010571D01*
X42383714Y-116939142D01*
X42455142Y-116867714D01*
X42455142Y-116367714D01*
X42169428Y-116367714D01*
X43312285Y-117010571D02*
X43169428Y-116939142D01*
X43098000Y-116867714D01*
X43026571Y-116724857D01*
X43026571Y-116296285D01*
X43098000Y-116153428D01*
X43169428Y-116082000D01*
X43312285Y-116010571D01*
X43526571Y-116010571D01*
X43669428Y-116082000D01*
X43740857Y-116153428D01*
X43812285Y-116296285D01*
X43812285Y-116724857D01*
X43740857Y-116867714D01*
X43669428Y-116939142D01*
X43526571Y-117010571D01*
X43312285Y-117010571D01*
X44669428Y-117010571D02*
X44526571Y-116939142D01*
X44455142Y-116867714D01*
X44383714Y-116724857D01*
X44383714Y-116296285D01*
X44455142Y-116153428D01*
X44526571Y-116082000D01*
X44669428Y-116010571D01*
X44883714Y-116010571D01*
X45026571Y-116082000D01*
X45098000Y-116153428D01*
X45169428Y-116296285D01*
X45169428Y-116724857D01*
X45098000Y-116867714D01*
X45026571Y-116939142D01*
X44883714Y-117010571D01*
X44669428Y-117010571D01*
X46455142Y-117010571D02*
X46455142Y-115510571D01*
X46455142Y-116939142D02*
X46312285Y-117010571D01*
X46026571Y-117010571D01*
X45883714Y-116939142D01*
X45812285Y-116867714D01*
X45740857Y-116724857D01*
X45740857Y-116296285D01*
X45812285Y-116153428D01*
X45883714Y-116082000D01*
X46026571Y-116010571D01*
X46312285Y-116010571D01*
X46455142Y-116082000D01*
X49169428Y-117010571D02*
X48669428Y-116296285D01*
X48312285Y-117010571D02*
X48312285Y-115510571D01*
X48883714Y-115510571D01*
X49026571Y-115582000D01*
X49098000Y-115653428D01*
X49169428Y-115796285D01*
X49169428Y-116010571D01*
X49098000Y-116153428D01*
X49026571Y-116224857D01*
X48883714Y-116296285D01*
X48312285Y-116296285D01*
X50026571Y-117010571D02*
X49883714Y-116939142D01*
X49812285Y-116867714D01*
X49740857Y-116724857D01*
X49740857Y-116296285D01*
X49812285Y-116153428D01*
X49883714Y-116082000D01*
X50026571Y-116010571D01*
X50240857Y-116010571D01*
X50383714Y-116082000D01*
X50455142Y-116153428D01*
X50526571Y-116296285D01*
X50526571Y-116724857D01*
X50455142Y-116867714D01*
X50383714Y-116939142D01*
X50240857Y-117010571D01*
X50026571Y-117010571D01*
X51169428Y-117010571D02*
X51169428Y-115510571D01*
X51169428Y-116082000D02*
X51312285Y-116010571D01*
X51598000Y-116010571D01*
X51740857Y-116082000D01*
X51812285Y-116153428D01*
X51883714Y-116296285D01*
X51883714Y-116724857D01*
X51812285Y-116867714D01*
X51740857Y-116939142D01*
X51598000Y-117010571D01*
X51312285Y-117010571D01*
X51169428Y-116939142D01*
X52740857Y-117010571D02*
X52598000Y-116939142D01*
X52526571Y-116867714D01*
X52455142Y-116724857D01*
X52455142Y-116296285D01*
X52526571Y-116153428D01*
X52598000Y-116082000D01*
X52740857Y-116010571D01*
X52955142Y-116010571D01*
X53098000Y-116082000D01*
X53169428Y-116153428D01*
X53240857Y-116296285D01*
X53240857Y-116724857D01*
X53169428Y-116867714D01*
X53098000Y-116939142D01*
X52955142Y-117010571D01*
X52740857Y-117010571D01*
X53669428Y-116010571D02*
X54240857Y-116010571D01*
X53883714Y-115510571D02*
X53883714Y-116796285D01*
X53955142Y-116939142D01*
X54098000Y-117010571D01*
X54240857Y-117010571D01*
X54740857Y-117010571D02*
X54740857Y-116010571D01*
X54740857Y-115510571D02*
X54669428Y-115582000D01*
X54740857Y-115653428D01*
X54812285Y-115582000D01*
X54740857Y-115510571D01*
X54740857Y-115653428D01*
X56098000Y-116939142D02*
X55955142Y-117010571D01*
X55669428Y-117010571D01*
X55526571Y-116939142D01*
X55455142Y-116867714D01*
X55383714Y-116724857D01*
X55383714Y-116296285D01*
X55455142Y-116153428D01*
X55526571Y-116082000D01*
X55669428Y-116010571D01*
X55955142Y-116010571D01*
X56098000Y-116082000D01*
X56669428Y-116939142D02*
X56812285Y-117010571D01*
X57098000Y-117010571D01*
X57240857Y-116939142D01*
X57312285Y-116796285D01*
X57312285Y-116724857D01*
X57240857Y-116582000D01*
X57098000Y-116510571D01*
X56883714Y-116510571D01*
X56740857Y-116439142D01*
X56669428Y-116296285D01*
X56669428Y-116224857D01*
X56740857Y-116082000D01*
X56883714Y-116010571D01*
X57098000Y-116010571D01*
X57240857Y-116082000D01*
X59526571Y-117582000D02*
X59455142Y-117510571D01*
X59312285Y-117296285D01*
X59240857Y-117153428D01*
X59169428Y-116939142D01*
X59098000Y-116582000D01*
X59098000Y-116296285D01*
X59169428Y-115939142D01*
X59240857Y-115724857D01*
X59312285Y-115582000D01*
X59455142Y-115367714D01*
X59526571Y-115296285D01*
X60026571Y-115653428D02*
X60098000Y-115582000D01*
X60240857Y-115510571D01*
X60598000Y-115510571D01*
X60740857Y-115582000D01*
X60812285Y-115653428D01*
X60883714Y-115796285D01*
X60883714Y-115939142D01*
X60812285Y-116153428D01*
X59955142Y-117010571D01*
X60883714Y-117010571D01*
X61812285Y-115510571D02*
X61955142Y-115510571D01*
X62098000Y-115582000D01*
X62169428Y-115653428D01*
X62240857Y-115796285D01*
X62312285Y-116082000D01*
X62312285Y-116439142D01*
X62240857Y-116724857D01*
X62169428Y-116867714D01*
X62098000Y-116939142D01*
X61955142Y-117010571D01*
X61812285Y-117010571D01*
X61669428Y-116939142D01*
X61598000Y-116867714D01*
X61526571Y-116724857D01*
X61455142Y-116439142D01*
X61455142Y-116082000D01*
X61526571Y-115796285D01*
X61598000Y-115653428D01*
X61669428Y-115582000D01*
X61812285Y-115510571D01*
X63740857Y-117010571D02*
X62883714Y-117010571D01*
X63312285Y-117010571D02*
X63312285Y-115510571D01*
X63169428Y-115724857D01*
X63026571Y-115867714D01*
X62883714Y-115939142D01*
X64598000Y-116153428D02*
X64455142Y-116082000D01*
X64383714Y-116010571D01*
X64312285Y-115867714D01*
X64312285Y-115796285D01*
X64383714Y-115653428D01*
X64455142Y-115582000D01*
X64598000Y-115510571D01*
X64883714Y-115510571D01*
X65026571Y-115582000D01*
X65098000Y-115653428D01*
X65169428Y-115796285D01*
X65169428Y-115867714D01*
X65098000Y-116010571D01*
X65026571Y-116082000D01*
X64883714Y-116153428D01*
X64598000Y-116153428D01*
X64455142Y-116224857D01*
X64383714Y-116296285D01*
X64312285Y-116439142D01*
X64312285Y-116724857D01*
X64383714Y-116867714D01*
X64455142Y-116939142D01*
X64598000Y-117010571D01*
X64883714Y-117010571D01*
X65026571Y-116939142D01*
X65098000Y-116867714D01*
X65169428Y-116724857D01*
X65169428Y-116439142D01*
X65098000Y-116296285D01*
X65026571Y-116224857D01*
X64883714Y-116153428D01*
X65669428Y-117582000D02*
X65740857Y-117510571D01*
X65883714Y-117296285D01*
X65955142Y-117153428D01*
X66026571Y-116939142D01*
X66098000Y-116582000D01*
X66098000Y-116296285D01*
X66026571Y-115939142D01*
X65955142Y-115724857D01*
X65883714Y-115582000D01*
X65740857Y-115367714D01*
X65669428Y-115296285D01*
D11*
X89768785Y-92118571D02*
X89768785Y-90618571D01*
X90340214Y-90618571D01*
X90483071Y-90690000D01*
X90554500Y-90761428D01*
X90625928Y-90904285D01*
X90625928Y-91118571D01*
X90554500Y-91261428D01*
X90483071Y-91332857D01*
X90340214Y-91404285D01*
X89768785Y-91404285D01*
X91554500Y-90618571D02*
X91840214Y-90618571D01*
X91983071Y-90690000D01*
X92125928Y-90832857D01*
X92197357Y-91118571D01*
X92197357Y-91618571D01*
X92125928Y-91904285D01*
X91983071Y-92047142D01*
X91840214Y-92118571D01*
X91554500Y-92118571D01*
X91411642Y-92047142D01*
X91268785Y-91904285D01*
X91197357Y-91618571D01*
X91197357Y-91118571D01*
X91268785Y-90832857D01*
X91411642Y-90690000D01*
X91554500Y-90618571D01*
X92697357Y-90618571D02*
X93054500Y-92118571D01*
X93340214Y-91047142D01*
X93625928Y-92118571D01*
X93983071Y-90618571D01*
X94554500Y-91332857D02*
X95054500Y-91332857D01*
X95268785Y-92118571D02*
X94554500Y-92118571D01*
X94554500Y-90618571D01*
X95268785Y-90618571D01*
X96768785Y-92118571D02*
X96268785Y-91404285D01*
X95911642Y-92118571D02*
X95911642Y-90618571D01*
X96483071Y-90618571D01*
X96625928Y-90690000D01*
X96697357Y-90761428D01*
X96768785Y-90904285D01*
X96768785Y-91118571D01*
X96697357Y-91261428D01*
X96625928Y-91332857D01*
X96483071Y-91404285D01*
X95911642Y-91404285D01*
X92840214Y-87062571D02*
X93197357Y-88562571D01*
X93483071Y-87491142D01*
X93768785Y-88562571D01*
X94125928Y-87062571D01*
X94697357Y-88562571D02*
X94697357Y-87062571D01*
X95911642Y-87776857D02*
X95411642Y-87776857D01*
X95411642Y-88562571D02*
X95411642Y-87062571D01*
X96125928Y-87062571D01*
X96697357Y-88562571D02*
X96697357Y-87062571D01*
X92625928Y-83204857D02*
X92125928Y-83204857D01*
X92125928Y-83990571D02*
X92125928Y-82490571D01*
X92840214Y-82490571D01*
X94125928Y-83990571D02*
X93411642Y-83990571D01*
X93411642Y-82490571D01*
X94554500Y-83562000D02*
X95268785Y-83562000D01*
X94411642Y-83990571D02*
X94911642Y-82490571D01*
X95411642Y-83990571D01*
X96697357Y-82562000D02*
X96554500Y-82490571D01*
X96340214Y-82490571D01*
X96125928Y-82562000D01*
X95983071Y-82704857D01*
X95911642Y-82847714D01*
X95840214Y-83133428D01*
X95840214Y-83347714D01*
X95911642Y-83633428D01*
X95983071Y-83776285D01*
X96125928Y-83919142D01*
X96340214Y-83990571D01*
X96483071Y-83990571D01*
X96697357Y-83919142D01*
X96768785Y-83847714D01*
X96768785Y-83347714D01*
X96483071Y-83347714D01*
D12*
X39037761Y-68197761D02*
X39513952Y-70197761D01*
X39894904Y-68769190D01*
X40275857Y-70197761D01*
X40752047Y-68197761D01*
X41513952Y-70197761D02*
X41513952Y-68864428D01*
X41513952Y-68197761D02*
X41418714Y-68293000D01*
X41513952Y-68388238D01*
X41609190Y-68293000D01*
X41513952Y-68197761D01*
X41513952Y-68388238D01*
X43133000Y-69150142D02*
X42466333Y-69150142D01*
X42466333Y-70197761D02*
X42466333Y-68197761D01*
X43418714Y-68197761D01*
X44180619Y-70197761D02*
X44180619Y-68864428D01*
X44180619Y-68197761D02*
X44085380Y-68293000D01*
X44180619Y-68388238D01*
X44275857Y-68293000D01*
X44180619Y-68197761D01*
X44180619Y-68388238D01*
X46561571Y-70102523D02*
X46847285Y-70197761D01*
X47323476Y-70197761D01*
X47513952Y-70102523D01*
X47609190Y-70007285D01*
X47704428Y-69816809D01*
X47704428Y-69626333D01*
X47609190Y-69435857D01*
X47513952Y-69340619D01*
X47323476Y-69245380D01*
X46942523Y-69150142D01*
X46752047Y-69054904D01*
X46656809Y-68959666D01*
X46561571Y-68769190D01*
X46561571Y-68578714D01*
X46656809Y-68388238D01*
X46752047Y-68293000D01*
X46942523Y-68197761D01*
X47418714Y-68197761D01*
X47704428Y-68293000D01*
X48275857Y-68864428D02*
X49037761Y-68864428D01*
X48561571Y-68197761D02*
X48561571Y-69912047D01*
X48656809Y-70102523D01*
X48847285Y-70197761D01*
X49037761Y-70197761D01*
X50466333Y-70102523D02*
X50275857Y-70197761D01*
X49894904Y-70197761D01*
X49704428Y-70102523D01*
X49609190Y-69912047D01*
X49609190Y-69150142D01*
X49704428Y-68959666D01*
X49894904Y-68864428D01*
X50275857Y-68864428D01*
X50466333Y-68959666D01*
X50561571Y-69150142D01*
X50561571Y-69340619D01*
X49609190Y-69531095D01*
X51418714Y-68864428D02*
X51418714Y-70864428D01*
X51418714Y-68959666D02*
X51609190Y-68864428D01*
X51990142Y-68864428D01*
X52180619Y-68959666D01*
X52275857Y-69054904D01*
X52371095Y-69245380D01*
X52371095Y-69816809D01*
X52275857Y-70007285D01*
X52180619Y-70102523D01*
X51990142Y-70197761D01*
X51609190Y-70197761D01*
X51418714Y-70102523D01*
X53228238Y-68864428D02*
X53228238Y-70864428D01*
X53228238Y-68959666D02*
X53418714Y-68864428D01*
X53799666Y-68864428D01*
X53990142Y-68959666D01*
X54085380Y-69054904D01*
X54180619Y-69245380D01*
X54180619Y-69816809D01*
X54085380Y-70007285D01*
X53990142Y-70102523D01*
X53799666Y-70197761D01*
X53418714Y-70197761D01*
X53228238Y-70102523D01*
X55799666Y-70102523D02*
X55609190Y-70197761D01*
X55228238Y-70197761D01*
X55037761Y-70102523D01*
X54942523Y-69912047D01*
X54942523Y-69150142D01*
X55037761Y-68959666D01*
X55228238Y-68864428D01*
X55609190Y-68864428D01*
X55799666Y-68959666D01*
X55894904Y-69150142D01*
X55894904Y-69340619D01*
X54942523Y-69531095D01*
X56752047Y-70197761D02*
X56752047Y-68864428D01*
X56752047Y-69245380D02*
X56847285Y-69054904D01*
X56942523Y-68959666D01*
X57133000Y-68864428D01*
X57323476Y-68864428D01*
X38275857Y-71597761D02*
X38752047Y-73597761D01*
X39133000Y-72169190D01*
X39513952Y-73597761D01*
X39990142Y-71597761D01*
X40656809Y-73502523D02*
X40942523Y-73597761D01*
X41418714Y-73597761D01*
X41609190Y-73502523D01*
X41704428Y-73407285D01*
X41799666Y-73216809D01*
X41799666Y-73026333D01*
X41704428Y-72835857D01*
X41609190Y-72740619D01*
X41418714Y-72645380D01*
X41037761Y-72550142D01*
X40847285Y-72454904D01*
X40752047Y-72359666D01*
X40656809Y-72169190D01*
X40656809Y-71978714D01*
X40752047Y-71788238D01*
X40847285Y-71693000D01*
X41037761Y-71597761D01*
X41513952Y-71597761D01*
X41799666Y-71693000D01*
X42466333Y-71597761D02*
X43799666Y-73597761D01*
X43799666Y-71597761D02*
X42466333Y-73597761D01*
X45609190Y-73597761D02*
X44466333Y-73597761D01*
X45037761Y-73597761D02*
X45037761Y-71597761D01*
X44847285Y-71883476D01*
X44656809Y-72073952D01*
X44466333Y-72169190D01*
X46847285Y-71597761D02*
X47037761Y-71597761D01*
X47228238Y-71693000D01*
X47323476Y-71788238D01*
X47418714Y-71978714D01*
X47513952Y-72359666D01*
X47513952Y-72835857D01*
X47418714Y-73216809D01*
X47323476Y-73407285D01*
X47228238Y-73502523D01*
X47037761Y-73597761D01*
X46847285Y-73597761D01*
X46656809Y-73502523D01*
X46561571Y-73407285D01*
X46466333Y-73216809D01*
X46371095Y-72835857D01*
X46371095Y-72359666D01*
X46466333Y-71978714D01*
X46561571Y-71788238D01*
X46656809Y-71693000D01*
X46847285Y-71597761D01*
X48752047Y-71597761D02*
X48942523Y-71597761D01*
X49133000Y-71693000D01*
X49228238Y-71788238D01*
X49323476Y-71978714D01*
X49418714Y-72359666D01*
X49418714Y-72835857D01*
X49323476Y-73216809D01*
X49228238Y-73407285D01*
X49133000Y-73502523D01*
X48942523Y-73597761D01*
X48752047Y-73597761D01*
X48561571Y-73502523D01*
X48466333Y-73407285D01*
X48371095Y-73216809D01*
X48275857Y-72835857D01*
X48275857Y-72359666D01*
X48371095Y-71978714D01*
X48466333Y-71788238D01*
X48561571Y-71693000D01*
X48752047Y-71597761D01*
X52942523Y-73597761D02*
X52275857Y-72645380D01*
X51799666Y-73597761D02*
X51799666Y-71597761D01*
X52561571Y-71597761D01*
X52752047Y-71693000D01*
X52847285Y-71788238D01*
X52942523Y-71978714D01*
X52942523Y-72264428D01*
X52847285Y-72454904D01*
X52752047Y-72550142D01*
X52561571Y-72645380D01*
X51799666Y-72645380D01*
X54561571Y-73502523D02*
X54371095Y-73597761D01*
X53990142Y-73597761D01*
X53799666Y-73502523D01*
X53704428Y-73312047D01*
X53704428Y-72550142D01*
X53799666Y-72359666D01*
X53990142Y-72264428D01*
X54371095Y-72264428D01*
X54561571Y-72359666D01*
X54656809Y-72550142D01*
X54656809Y-72740619D01*
X53704428Y-72931095D01*
X55323476Y-72264428D02*
X55799666Y-73597761D01*
X56275857Y-72264428D01*
X56942523Y-73026333D02*
X57894904Y-73026333D01*
X56752047Y-73597761D02*
X57418714Y-71597761D01*
X58085380Y-73597761D01*
D13*
X39383261Y-77527619D02*
X39749928Y-78627619D01*
X40116595Y-77527619D01*
X40483261Y-78627619D02*
X40483261Y-77527619D01*
X41007071Y-78627619D02*
X41007071Y-77527619D01*
X41635642Y-78627619D01*
X41635642Y-77527619D01*
X40116595Y-81380000D02*
X40011833Y-81327619D01*
X39854690Y-81327619D01*
X39697547Y-81380000D01*
X39592785Y-81484761D01*
X39540404Y-81589523D01*
X39488023Y-81799047D01*
X39488023Y-81956190D01*
X39540404Y-82165714D01*
X39592785Y-82270476D01*
X39697547Y-82375238D01*
X39854690Y-82427619D01*
X39959452Y-82427619D01*
X40116595Y-82375238D01*
X40168976Y-82322857D01*
X40168976Y-81956190D01*
X39959452Y-81956190D01*
X40640404Y-82427619D02*
X40640404Y-81327619D01*
X41268976Y-82427619D01*
X41268976Y-81327619D01*
X41792785Y-82427619D02*
X41792785Y-81327619D01*
X42054690Y-81327619D01*
X42211833Y-81380000D01*
X42316595Y-81484761D01*
X42368976Y-81589523D01*
X42421357Y-81799047D01*
X42421357Y-81956190D01*
X42368976Y-82165714D01*
X42316595Y-82270476D01*
X42211833Y-82375238D01*
X42054690Y-82427619D01*
X41792785Y-82427619D01*
X39488023Y-85913333D02*
X40011833Y-85913333D01*
X39383261Y-86227619D02*
X39749928Y-85127619D01*
X40116595Y-86227619D01*
X40483261Y-85808571D02*
X41321357Y-85808571D01*
X39488023Y-89713333D02*
X40011833Y-89713333D01*
X39383261Y-90027619D02*
X39749928Y-88927619D01*
X40116595Y-90027619D01*
X40483261Y-89608571D02*
X41321357Y-89608571D01*
X40902309Y-90027619D02*
X40902309Y-89189523D01*
X39907071Y-93251428D02*
X40064214Y-93303809D01*
X40116595Y-93356190D01*
X40168976Y-93460952D01*
X40168976Y-93618095D01*
X40116595Y-93722857D01*
X40064214Y-93775238D01*
X39959452Y-93827619D01*
X39540404Y-93827619D01*
X39540404Y-92727619D01*
X39907071Y-92727619D01*
X40011833Y-92780000D01*
X40064214Y-92832380D01*
X40116595Y-92937142D01*
X40116595Y-93041904D01*
X40064214Y-93146666D01*
X40011833Y-93199047D01*
X39907071Y-93251428D01*
X39540404Y-93251428D01*
X40640404Y-93408571D02*
X41478500Y-93408571D01*
X41059452Y-93827619D02*
X41059452Y-92989523D01*
X39907071Y-97051428D02*
X40064214Y-97103809D01*
X40116595Y-97156190D01*
X40168976Y-97260952D01*
X40168976Y-97418095D01*
X40116595Y-97522857D01*
X40064214Y-97575238D01*
X39959452Y-97627619D01*
X39540404Y-97627619D01*
X39540404Y-96527619D01*
X39907071Y-96527619D01*
X40011833Y-96580000D01*
X40064214Y-96632380D01*
X40116595Y-96737142D01*
X40116595Y-96841904D01*
X40064214Y-96946666D01*
X40011833Y-96999047D01*
X39907071Y-97051428D01*
X39540404Y-97051428D01*
X40640404Y-97208571D02*
X41478500Y-97208571D01*
D14*
X107568571Y-112734214D02*
X106854285Y-113234214D01*
X107568571Y-113591357D02*
X106068571Y-113591357D01*
X106068571Y-113019928D01*
X106140000Y-112877071D01*
X106211428Y-112805642D01*
X106354285Y-112734214D01*
X106568571Y-112734214D01*
X106711428Y-112805642D01*
X106782857Y-112877071D01*
X106854285Y-113019928D01*
X106854285Y-113591357D01*
X106068571Y-112234214D02*
X107568571Y-111234214D01*
X106068571Y-111234214D02*
X107568571Y-112234214D01*
X107568571Y-110662785D02*
X106068571Y-110662785D01*
X106068571Y-110305642D01*
X106140000Y-110091357D01*
X106282857Y-109948500D01*
X106425714Y-109877071D01*
X106711428Y-109805642D01*
X106925714Y-109805642D01*
X107211428Y-109877071D01*
X107354285Y-109948500D01*
X107497142Y-110091357D01*
X107568571Y-110305642D01*
X107568571Y-110662785D01*
X108468571Y-113805642D02*
X108468571Y-112948500D01*
X109968571Y-113377071D02*
X108468571Y-113377071D01*
X108468571Y-112591357D02*
X109968571Y-111591357D01*
X108468571Y-111591357D02*
X109968571Y-112591357D01*
X109968571Y-111019928D02*
X108468571Y-111019928D01*
X108468571Y-110662785D01*
X108540000Y-110448500D01*
X108682857Y-110305642D01*
X108825714Y-110234214D01*
X109111428Y-110162785D01*
X109325714Y-110162785D01*
X109611428Y-110234214D01*
X109754285Y-110305642D01*
X109897142Y-110448500D01*
X109968571Y-110662785D01*
X109968571Y-111019928D01*
X112368571Y-113591357D02*
X110868571Y-113591357D01*
X110868571Y-112591357D02*
X110868571Y-112305642D01*
X110940000Y-112162785D01*
X111082857Y-112019928D01*
X111368571Y-111948500D01*
X111868571Y-111948500D01*
X112154285Y-112019928D01*
X112297142Y-112162785D01*
X112368571Y-112305642D01*
X112368571Y-112591357D01*
X112297142Y-112734214D01*
X112154285Y-112877071D01*
X111868571Y-112948500D01*
X111368571Y-112948500D01*
X111082857Y-112877071D01*
X110940000Y-112734214D01*
X110868571Y-112591357D01*
X110868571Y-111019928D02*
X110868571Y-110877071D01*
X110940000Y-110734214D01*
X111011428Y-110662785D01*
X111154285Y-110591357D01*
X111440000Y-110519928D01*
X111797142Y-110519928D01*
X112082857Y-110591357D01*
X112225714Y-110662785D01*
X112297142Y-110734214D01*
X112368571Y-110877071D01*
X112368571Y-111019928D01*
X112297142Y-111162785D01*
X112225714Y-111234214D01*
X112082857Y-111305642D01*
X111797142Y-111377071D01*
X111440000Y-111377071D01*
X111154285Y-111305642D01*
X111011428Y-111234214D01*
X110940000Y-111162785D01*
X110868571Y-111019928D01*
X113340000Y-112805642D02*
X113268571Y-112948500D01*
X113268571Y-113162785D01*
X113340000Y-113377071D01*
X113482857Y-113519928D01*
X113625714Y-113591357D01*
X113911428Y-113662785D01*
X114125714Y-113662785D01*
X114411428Y-113591357D01*
X114554285Y-113519928D01*
X114697142Y-113377071D01*
X114768571Y-113162785D01*
X114768571Y-113019928D01*
X114697142Y-112805642D01*
X114625714Y-112734214D01*
X114125714Y-112734214D01*
X114125714Y-113019928D01*
X114768571Y-112091357D02*
X113268571Y-112091357D01*
X114768571Y-111234214D01*
X113268571Y-111234214D01*
X114768571Y-110519928D02*
X113268571Y-110519928D01*
X113268571Y-110162785D01*
X113340000Y-109948500D01*
X113482857Y-109805642D01*
X113625714Y-109734214D01*
X113911428Y-109662785D01*
X114125714Y-109662785D01*
X114411428Y-109734214D01*
X114554285Y-109805642D01*
X114697142Y-109948500D01*
X114768571Y-110162785D01*
X114768571Y-110519928D01*
D10*
X88557571Y-75178571D02*
X88557571Y-74250000D01*
X89129000Y-74750000D01*
X89129000Y-74535714D01*
X89200428Y-74392857D01*
X89271857Y-74321428D01*
X89414714Y-74250000D01*
X89771857Y-74250000D01*
X89914714Y-74321428D01*
X89986142Y-74392857D01*
X90057571Y-74535714D01*
X90057571Y-74964285D01*
X89986142Y-75107142D01*
X89914714Y-75178571D01*
X88557571Y-73821428D02*
X90057571Y-73321428D01*
X88557571Y-72821428D01*
X88557571Y-72464285D02*
X88557571Y-71535714D01*
X89129000Y-72035714D01*
X89129000Y-71821428D01*
X89200428Y-71678571D01*
X89271857Y-71607142D01*
X89414714Y-71535714D01*
X89771857Y-71535714D01*
X89914714Y-71607142D01*
X89986142Y-71678571D01*
X90057571Y-71821428D01*
X90057571Y-72250000D01*
X89986142Y-72392857D01*
X89914714Y-72464285D01*
X91079000Y-74678571D02*
X91007571Y-74821428D01*
X91007571Y-75035714D01*
X91079000Y-75250000D01*
X91221857Y-75392857D01*
X91364714Y-75464285D01*
X91650428Y-75535714D01*
X91864714Y-75535714D01*
X92150428Y-75464285D01*
X92293285Y-75392857D01*
X92436142Y-75250000D01*
X92507571Y-75035714D01*
X92507571Y-74892857D01*
X92436142Y-74678571D01*
X92364714Y-74607142D01*
X91864714Y-74607142D01*
X91864714Y-74892857D01*
X92507571Y-73964285D02*
X91007571Y-73964285D01*
X92507571Y-73107142D01*
X91007571Y-73107142D01*
X92507571Y-72392857D02*
X91007571Y-72392857D01*
X91007571Y-72035714D01*
X91079000Y-71821428D01*
X91221857Y-71678571D01*
X91364714Y-71607142D01*
X91650428Y-71535714D01*
X91864714Y-71535714D01*
X92150428Y-71607142D01*
X92293285Y-71678571D01*
X92436142Y-71821428D01*
X92507571Y-72035714D01*
X92507571Y-72392857D01*
X94171857Y-75678571D02*
X94171857Y-76178571D01*
X94957571Y-76178571D02*
X93457571Y-76178571D01*
X93457571Y-75464285D01*
X94957571Y-74178571D02*
X94957571Y-74892857D01*
X93457571Y-74892857D01*
X94529000Y-73750000D02*
X94529000Y-73035714D01*
X94957571Y-73892857D02*
X93457571Y-73392857D01*
X94957571Y-72892857D01*
X93529000Y-71607142D02*
X93457571Y-71750000D01*
X93457571Y-71964285D01*
X93529000Y-72178571D01*
X93671857Y-72321428D01*
X93814714Y-72392857D01*
X94100428Y-72464285D01*
X94314714Y-72464285D01*
X94600428Y-72392857D01*
X94743285Y-72321428D01*
X94886142Y-72178571D01*
X94957571Y-71964285D01*
X94957571Y-71821428D01*
X94886142Y-71607142D01*
X94814714Y-71535714D01*
X94314714Y-71535714D01*
X94314714Y-71821428D01*
X96621857Y-76178571D02*
X96693285Y-75964285D01*
X96764714Y-75892857D01*
X96907571Y-75821428D01*
X97121857Y-75821428D01*
X97264714Y-75892857D01*
X97336142Y-75964285D01*
X97407571Y-76107142D01*
X97407571Y-76678571D01*
X95907571Y-76678571D01*
X95907571Y-76178571D01*
X95979000Y-76035714D01*
X96050428Y-75964285D01*
X96193285Y-75892857D01*
X96336142Y-75892857D01*
X96479000Y-75964285D01*
X96550428Y-76035714D01*
X96621857Y-76178571D01*
X96621857Y-76678571D01*
X95907571Y-75178571D02*
X97121857Y-75178571D01*
X97264714Y-75107142D01*
X97336142Y-75035714D01*
X97407571Y-74892857D01*
X97407571Y-74607142D01*
X97336142Y-74464285D01*
X97264714Y-74392857D01*
X97121857Y-74321428D01*
X95907571Y-74321428D01*
X97336142Y-73678571D02*
X97407571Y-73464285D01*
X97407571Y-73107142D01*
X97336142Y-72964285D01*
X97264714Y-72892857D01*
X97121857Y-72821428D01*
X96979000Y-72821428D01*
X96836142Y-72892857D01*
X96764714Y-72964285D01*
X96693285Y-73107142D01*
X96621857Y-73392857D01*
X96550428Y-73535714D01*
X96479000Y-73607142D01*
X96336142Y-73678571D01*
X96193285Y-73678571D01*
X96050428Y-73607142D01*
X95979000Y-73535714D01*
X95907571Y-73392857D01*
X95907571Y-73035714D01*
X95979000Y-72821428D01*
X96693285Y-71892857D02*
X97407571Y-71892857D01*
X95907571Y-72392857D02*
X96693285Y-71892857D01*
X95907571Y-71392857D01*
X99786142Y-74107142D02*
X99857571Y-73892857D01*
X99857571Y-73535714D01*
X99786142Y-73392857D01*
X99714714Y-73321428D01*
X99571857Y-73250000D01*
X99429000Y-73250000D01*
X99286142Y-73321428D01*
X99214714Y-73392857D01*
X99143285Y-73535714D01*
X99071857Y-73821428D01*
X99000428Y-73964285D01*
X98929000Y-74035714D01*
X98786142Y-74107142D01*
X98643285Y-74107142D01*
X98500428Y-74035714D01*
X98429000Y-73964285D01*
X98357571Y-73821428D01*
X98357571Y-73464285D01*
X98429000Y-73250000D01*
X98357571Y-72750000D02*
X99857571Y-72392857D01*
X98786142Y-72107142D01*
X99857571Y-71821428D01*
X98357571Y-71464285D01*
X102236142Y-76392857D02*
X102307571Y-76178571D01*
X102307571Y-75821428D01*
X102236142Y-75678571D01*
X102164714Y-75607142D01*
X102021857Y-75535714D01*
X101879000Y-75535714D01*
X101736142Y-75607142D01*
X101664714Y-75678571D01*
X101593285Y-75821428D01*
X101521857Y-76107142D01*
X101450428Y-76250000D01*
X101379000Y-76321428D01*
X101236142Y-76392857D01*
X101093285Y-76392857D01*
X100950428Y-76321428D01*
X100879000Y-76250000D01*
X100807571Y-76107142D01*
X100807571Y-75750000D01*
X100879000Y-75535714D01*
X100807571Y-75107142D02*
X100807571Y-74250000D01*
X102307571Y-74678571D02*
X100807571Y-74678571D01*
X101521857Y-73750000D02*
X101521857Y-73250000D01*
X102307571Y-73035714D02*
X102307571Y-73750000D01*
X100807571Y-73750000D01*
X100807571Y-73035714D01*
X102307571Y-72392857D02*
X100807571Y-72392857D01*
X100807571Y-71821428D01*
X100879000Y-71678571D01*
X100950428Y-71607142D01*
X101093285Y-71535714D01*
X101307571Y-71535714D01*
X101450428Y-71607142D01*
X101521857Y-71678571D01*
X101593285Y-71821428D01*
X101593285Y-72392857D01*
X88811571Y-113701714D02*
X88811571Y-112773142D01*
X89383000Y-113273142D01*
X89383000Y-113058857D01*
X89454428Y-112916000D01*
X89525857Y-112844571D01*
X89668714Y-112773142D01*
X90025857Y-112773142D01*
X90168714Y-112844571D01*
X90240142Y-112916000D01*
X90311571Y-113058857D01*
X90311571Y-113487428D01*
X90240142Y-113630285D01*
X90168714Y-113701714D01*
X88811571Y-112344571D02*
X90311571Y-111844571D01*
X88811571Y-111344571D01*
X88811571Y-110987428D02*
X88811571Y-110058857D01*
X89383000Y-110558857D01*
X89383000Y-110344571D01*
X89454428Y-110201714D01*
X89525857Y-110130285D01*
X89668714Y-110058857D01*
X90025857Y-110058857D01*
X90168714Y-110130285D01*
X90240142Y-110201714D01*
X90311571Y-110344571D01*
X90311571Y-110773142D01*
X90240142Y-110916000D01*
X90168714Y-110987428D01*
X91333000Y-112773142D02*
X91261571Y-112916000D01*
X91261571Y-113130285D01*
X91333000Y-113344571D01*
X91475857Y-113487428D01*
X91618714Y-113558857D01*
X91904428Y-113630285D01*
X92118714Y-113630285D01*
X92404428Y-113558857D01*
X92547285Y-113487428D01*
X92690142Y-113344571D01*
X92761571Y-113130285D01*
X92761571Y-112987428D01*
X92690142Y-112773142D01*
X92618714Y-112701714D01*
X92118714Y-112701714D01*
X92118714Y-112987428D01*
X92761571Y-112058857D02*
X91261571Y-112058857D01*
X92761571Y-111201714D01*
X91261571Y-111201714D01*
X92761571Y-110487428D02*
X91261571Y-110487428D01*
X91261571Y-110130285D01*
X91333000Y-109916000D01*
X91475857Y-109773142D01*
X91618714Y-109701714D01*
X91904428Y-109630285D01*
X92118714Y-109630285D01*
X92404428Y-109701714D01*
X92547285Y-109773142D01*
X92690142Y-109916000D01*
X92761571Y-110130285D01*
X92761571Y-110487428D01*
X95140142Y-113630285D02*
X95211571Y-113416000D01*
X95211571Y-113058857D01*
X95140142Y-112916000D01*
X95068714Y-112844571D01*
X94925857Y-112773142D01*
X94783000Y-112773142D01*
X94640142Y-112844571D01*
X94568714Y-112916000D01*
X94497285Y-113058857D01*
X94425857Y-113344571D01*
X94354428Y-113487428D01*
X94283000Y-113558857D01*
X94140142Y-113630285D01*
X93997285Y-113630285D01*
X93854428Y-113558857D01*
X93783000Y-113487428D01*
X93711571Y-113344571D01*
X93711571Y-112987428D01*
X93783000Y-112773142D01*
X95068714Y-111273142D02*
X95140142Y-111344571D01*
X95211571Y-111558857D01*
X95211571Y-111701714D01*
X95140142Y-111916000D01*
X94997285Y-112058857D01*
X94854428Y-112130285D01*
X94568714Y-112201714D01*
X94354428Y-112201714D01*
X94068714Y-112130285D01*
X93925857Y-112058857D01*
X93783000Y-111916000D01*
X93711571Y-111701714D01*
X93711571Y-111558857D01*
X93783000Y-111344571D01*
X93854428Y-111273142D01*
X95211571Y-110630285D02*
X93711571Y-110630285D01*
X95211571Y-109773142D02*
X94354428Y-110416000D01*
X93711571Y-109773142D02*
X94568714Y-110630285D01*
X97590142Y-113630285D02*
X97661571Y-113416000D01*
X97661571Y-113058857D01*
X97590142Y-112916000D01*
X97518714Y-112844571D01*
X97375857Y-112773142D01*
X97233000Y-112773142D01*
X97090142Y-112844571D01*
X97018714Y-112916000D01*
X96947285Y-113058857D01*
X96875857Y-113344571D01*
X96804428Y-113487428D01*
X96733000Y-113558857D01*
X96590142Y-113630285D01*
X96447285Y-113630285D01*
X96304428Y-113558857D01*
X96233000Y-113487428D01*
X96161571Y-113344571D01*
X96161571Y-112987428D01*
X96233000Y-112773142D01*
X97661571Y-112130285D02*
X96161571Y-112130285D01*
X96161571Y-111773142D01*
X96233000Y-111558857D01*
X96375857Y-111416000D01*
X96518714Y-111344571D01*
X96804428Y-111273142D01*
X97018714Y-111273142D01*
X97304428Y-111344571D01*
X97447285Y-111416000D01*
X97590142Y-111558857D01*
X97661571Y-111773142D01*
X97661571Y-112130285D01*
X97233000Y-110701714D02*
X97233000Y-109987428D01*
X97661571Y-110844571D02*
X96161571Y-110344571D01*
X97661571Y-109844571D01*
X100111571Y-112701714D02*
X99397285Y-113201714D01*
X100111571Y-113558857D02*
X98611571Y-113558857D01*
X98611571Y-112987428D01*
X98683000Y-112844571D01*
X98754428Y-112773142D01*
X98897285Y-112701714D01*
X99111571Y-112701714D01*
X99254428Y-112773142D01*
X99325857Y-112844571D01*
X99397285Y-112987428D01*
X99397285Y-113558857D01*
X100040142Y-112130285D02*
X100111571Y-111916000D01*
X100111571Y-111558857D01*
X100040142Y-111416000D01*
X99968714Y-111344571D01*
X99825857Y-111273142D01*
X99683000Y-111273142D01*
X99540142Y-111344571D01*
X99468714Y-111416000D01*
X99397285Y-111558857D01*
X99325857Y-111844571D01*
X99254428Y-111987428D01*
X99183000Y-112058857D01*
X99040142Y-112130285D01*
X98897285Y-112130285D01*
X98754428Y-112058857D01*
X98683000Y-111987428D01*
X98611571Y-111844571D01*
X98611571Y-111487428D01*
X98683000Y-111273142D01*
X98611571Y-110844571D02*
X98611571Y-109987428D01*
X100111571Y-110416000D02*
X98611571Y-110416000D01*
X102133000Y-113630285D02*
X102133000Y-112916000D01*
X102561571Y-113773142D02*
X101061571Y-113273142D01*
X102561571Y-112773142D01*
X102561571Y-112273142D02*
X101061571Y-112273142D01*
X101061571Y-111916000D01*
X101133000Y-111701714D01*
X101275857Y-111558857D01*
X101418714Y-111487428D01*
X101704428Y-111416000D01*
X101918714Y-111416000D01*
X102204428Y-111487428D01*
X102347285Y-111558857D01*
X102490142Y-111701714D01*
X102561571Y-111916000D01*
X102561571Y-112273142D01*
X102418714Y-109916000D02*
X102490142Y-109987428D01*
X102561571Y-110201714D01*
X102561571Y-110344571D01*
X102490142Y-110558857D01*
X102347285Y-110701714D01*
X102204428Y-110773142D01*
X101918714Y-110844571D01*
X101704428Y-110844571D01*
X101418714Y-110773142D01*
X101275857Y-110701714D01*
X101133000Y-110558857D01*
X101061571Y-110344571D01*
X101061571Y-110201714D01*
X101133000Y-109987428D01*
X101204428Y-109916000D01*
D15*
G04 #@! TO.C,R10*
X102732721Y-88394000D02*
X103058279Y-88394000D01*
X102732721Y-87374000D02*
X103058279Y-87374000D01*
G04 #@! TO.C,C1*
X52288064Y-99462000D02*
X51083936Y-99462000D01*
X52288064Y-97642000D02*
X51083936Y-97642000D01*
G04 #@! TO.C,C2*
X53542000Y-91102922D02*
X53542000Y-91620078D01*
X52122000Y-91102922D02*
X52122000Y-91620078D01*
G04 #@! TO.C,C3*
X43486000Y-88221078D02*
X43486000Y-87703922D01*
X44906000Y-88221078D02*
X44906000Y-87703922D01*
G04 #@! TO.C,C4*
X52407078Y-96722000D02*
X51889922Y-96722000D01*
X52407078Y-95302000D02*
X51889922Y-95302000D01*
G04 #@! TO.C,C5*
X48008000Y-82738279D02*
X48008000Y-82412721D01*
X46988000Y-82738279D02*
X46988000Y-82412721D01*
G04 #@! TO.C,C6*
X74846922Y-97588000D02*
X75364078Y-97588000D01*
X74846922Y-99008000D02*
X75364078Y-99008000D01*
G04 #@! TO.C,C7*
X74876922Y-85292000D02*
X75394078Y-85292000D01*
X74876922Y-83872000D02*
X75394078Y-83872000D01*
G04 #@! TO.C,C8*
X56440000Y-76283078D02*
X56440000Y-75765922D01*
X57860000Y-76283078D02*
X57860000Y-75765922D01*
G04 #@! TO.C,C9*
X56440000Y-106753922D02*
X56440000Y-107271078D01*
X57860000Y-106753922D02*
X57860000Y-107271078D01*
D16*
G04 #@! TO.C,C10*
X84220000Y-116654000D02*
X70720000Y-116654000D01*
X70720000Y-116654000D02*
X70720000Y-105904000D01*
X73470000Y-103154000D02*
X81470000Y-103154000D01*
X84220000Y-105904000D02*
X84220000Y-116654000D01*
X84220000Y-105904000D02*
X81470000Y-103154000D01*
X73470000Y-103154000D02*
X70720000Y-105904000D01*
G04 #@! TO.C,C11*
X81470000Y-82012000D02*
X84220000Y-79262000D01*
X70720000Y-79262000D02*
X73470000Y-82012000D01*
X70720000Y-79262000D02*
X70720000Y-68512000D01*
X81470000Y-82012000D02*
X73470000Y-82012000D01*
X84220000Y-68512000D02*
X84220000Y-79262000D01*
X70720000Y-68512000D02*
X84220000Y-68512000D01*
D15*
G04 #@! TO.C,C12*
X52461279Y-94490000D02*
X52135721Y-94490000D01*
X52461279Y-93470000D02*
X52135721Y-93470000D01*
G04 #@! TO.C,C13*
X50875000Y-89287878D02*
X50875000Y-88770722D01*
X49455000Y-89287878D02*
X49455000Y-88770722D01*
G04 #@! TO.C,C14*
X74792721Y-86104000D02*
X75118279Y-86104000D01*
X74792721Y-87124000D02*
X75118279Y-87124000D01*
G04 #@! TO.C,C15*
X119328000Y-76537078D02*
X119328000Y-76019922D01*
X117908000Y-76537078D02*
X117908000Y-76019922D01*
G04 #@! TO.C,C16*
X120140000Y-76591279D02*
X120140000Y-76265721D01*
X121160000Y-76591279D02*
X121160000Y-76265721D01*
G04 #@! TO.C,C17*
X113282000Y-76616779D02*
X113282000Y-76291221D01*
X114302000Y-76616779D02*
X114302000Y-76291221D01*
G04 #@! TO.C,C18*
X82148000Y-98587936D02*
X82148000Y-99792064D01*
X83968000Y-98587936D02*
X83968000Y-99792064D01*
G04 #@! TO.C,C19*
X85342000Y-104967721D02*
X85342000Y-105293279D01*
X86362000Y-104967721D02*
X86362000Y-105293279D01*
G04 #@! TO.C,C20*
X92508000Y-106167422D02*
X92508000Y-106684578D01*
X93928000Y-106167422D02*
X93928000Y-106684578D01*
G04 #@! TO.C,C21*
X100328000Y-99125721D02*
X100328000Y-99451279D01*
X101348000Y-99125721D02*
X101348000Y-99451279D01*
G04 #@! TO.C,D1*
X47988000Y-89652000D02*
X47988000Y-88722000D01*
X47988000Y-86492000D02*
X47988000Y-87422000D01*
X47988000Y-86492000D02*
X45828000Y-86492000D01*
X47988000Y-89652000D02*
X46528000Y-89652000D01*
G04 #@! TO.C,D2*
X49768000Y-92110000D02*
X47768000Y-92110000D01*
X47768000Y-92110000D02*
X47768000Y-96010000D01*
X49768000Y-92110000D02*
X49768000Y-96010000D01*
G04 #@! TO.C,D3*
X98235500Y-92400000D02*
X100920500Y-92400000D01*
X100920500Y-92400000D02*
X100920500Y-90480000D01*
X100920500Y-90480000D02*
X98235500Y-90480000D01*
G04 #@! TO.C,D4*
X98235500Y-88844000D02*
X100920500Y-88844000D01*
X100920500Y-88844000D02*
X100920500Y-86924000D01*
X100920500Y-86924000D02*
X98235500Y-86924000D01*
G04 #@! TO.C,D5*
X100920500Y-82352000D02*
X98235500Y-82352000D01*
X100920500Y-84272000D02*
X100920500Y-82352000D01*
X98235500Y-84272000D02*
X100920500Y-84272000D01*
G04 #@! TO.C,J1*
X46500000Y-102450000D02*
X46500000Y-101400000D01*
X45450000Y-101400000D02*
X46500000Y-101400000D01*
X40400000Y-110800000D02*
X31600000Y-110800000D01*
X31600000Y-110800000D02*
X31600000Y-101600000D01*
X46300000Y-108100000D02*
X46300000Y-110800000D01*
X46300000Y-110800000D02*
X44400000Y-110800000D01*
X31600000Y-101600000D02*
X46300000Y-101600000D01*
X46300000Y-101600000D02*
X46300000Y-104200000D01*
D16*
G04 #@! TO.C,J2*
X31500000Y-98910000D02*
X38800000Y-98910000D01*
X38800000Y-98910000D02*
X38800000Y-76060000D01*
X38800000Y-76060000D02*
X31500000Y-76060000D01*
X31500000Y-76060000D02*
X31500000Y-98910000D01*
X38200000Y-98910000D02*
X38200000Y-76060000D01*
D15*
G04 #@! TO.C,J3*
X103184000Y-70672000D02*
X103184000Y-68012000D01*
X90424000Y-70672000D02*
X103184000Y-70672000D01*
X90424000Y-68012000D02*
X103184000Y-68012000D01*
X90424000Y-70672000D02*
X90424000Y-68012000D01*
X89154000Y-70672000D02*
X87824000Y-70672000D01*
X87824000Y-70672000D02*
X87824000Y-69342000D01*
G04 #@! TO.C,J4*
X87824000Y-117154000D02*
X87824000Y-115824000D01*
X89154000Y-117154000D02*
X87824000Y-117154000D01*
X90424000Y-117154000D02*
X90424000Y-114494000D01*
X90424000Y-114494000D02*
X103184000Y-114494000D01*
X90424000Y-117154000D02*
X103184000Y-117154000D01*
X103184000Y-117154000D02*
X103184000Y-114494000D01*
G04 #@! TO.C,J5*
X115630000Y-117154000D02*
X115630000Y-114494000D01*
X107950000Y-117154000D02*
X115630000Y-117154000D01*
X107950000Y-114494000D02*
X115630000Y-114494000D01*
X107950000Y-117154000D02*
X107950000Y-114494000D01*
X106680000Y-117154000D02*
X105350000Y-117154000D01*
X105350000Y-117154000D02*
X105350000Y-115824000D01*
G04 #@! TO.C,L1*
X97016000Y-100848000D02*
X91916000Y-100848000D01*
X97016000Y-95748000D02*
X91916000Y-95748000D01*
G04 #@! TO.C,R1*
X51564000Y-82412721D02*
X51564000Y-82738279D01*
X50544000Y-82412721D02*
X50544000Y-82738279D01*
G04 #@! TO.C,R2*
X48766000Y-82738279D02*
X48766000Y-82412721D01*
X49786000Y-82738279D02*
X49786000Y-82412721D01*
G04 #@! TO.C,R3*
X66988000Y-74549936D02*
X66988000Y-78654064D01*
X63568000Y-74549936D02*
X63568000Y-78654064D01*
G04 #@! TO.C,R4*
X62924000Y-108330064D02*
X62924000Y-104225936D01*
X59504000Y-108330064D02*
X59504000Y-104225936D01*
G04 #@! TO.C,R5*
X62924000Y-74549936D02*
X62924000Y-78654064D01*
X59504000Y-74549936D02*
X59504000Y-78654064D01*
G04 #@! TO.C,R6*
X66988000Y-108330064D02*
X66988000Y-104225936D01*
X63568000Y-108330064D02*
X63568000Y-104225936D01*
G04 #@! TO.C,R7*
X88834279Y-78996000D02*
X88508721Y-78996000D01*
X88834279Y-77976000D02*
X88508721Y-77976000D01*
G04 #@! TO.C,R8*
X88834279Y-80516000D02*
X88508721Y-80516000D01*
X88834279Y-81536000D02*
X88508721Y-81536000D01*
G04 #@! TO.C,R9*
X102732721Y-83822000D02*
X103058279Y-83822000D01*
X102732721Y-82802000D02*
X103058279Y-82802000D01*
G04 #@! TO.C,R11*
X102732721Y-90930000D02*
X103058279Y-90930000D01*
X102732721Y-91950000D02*
X103058279Y-91950000D01*
G04 #@! TO.C,R12*
X111504000Y-76591279D02*
X111504000Y-76265721D01*
X112524000Y-76591279D02*
X112524000Y-76265721D01*
G04 #@! TO.C,R13*
X116080000Y-76642279D02*
X116080000Y-76316721D01*
X115060000Y-76642279D02*
X115060000Y-76316721D01*
G04 #@! TO.C,R14*
X97026000Y-106059921D02*
X97026000Y-106385479D01*
X98046000Y-106059921D02*
X98046000Y-106385479D01*
G04 #@! TO.C,R15*
X96014000Y-106059921D02*
X96014000Y-106385479D01*
X94994000Y-106059921D02*
X94994000Y-106385479D01*
D14*
G04 #@! TO.C,U1*
X109400000Y-83500000D02*
X123400000Y-83500000D01*
X123400000Y-83500000D02*
X123400000Y-101500000D01*
X123400000Y-101500000D02*
X109400000Y-101500000D01*
X109400000Y-101500000D02*
X109400000Y-83500000D01*
D16*
G04 #@! TO.C,U2*
X68746000Y-98440000D02*
X57746000Y-98440000D01*
X57746000Y-98440000D02*
X57746000Y-84440000D01*
X57746000Y-84440000D02*
X68746000Y-84440000D01*
X68746000Y-84440000D02*
X68746000Y-98440000D01*
D17*
X69496000Y-98940000D02*
G75*
G03X69496000Y-98940000I-250000J0D01*
G01*
D15*
G04 #@! TO.C,U3*
X88824000Y-105294000D02*
X90124000Y-105294000D01*
X88224000Y-102994000D02*
X90124000Y-102994000D01*
D14*
G04 #@! TO.C,U4*
X100168000Y-107325000D02*
X100218000Y-107325000D01*
X100168000Y-103175000D02*
X100313000Y-103175000D01*
X105318000Y-103175000D02*
X105173000Y-103175000D01*
X105318000Y-107325000D02*
X105173000Y-107325000D01*
X100168000Y-107325000D02*
X100168000Y-103175000D01*
X105318000Y-107325000D02*
X105318000Y-103175000D01*
X100218000Y-107325000D02*
X100218000Y-108725000D01*
D15*
G04 #@! TO.C,R0*
X86920000Y-99058252D02*
X86920000Y-98535748D01*
X88340000Y-99058252D02*
X88340000Y-98535748D01*
D18*
G04 #@! TO.C,REF\002A\002A*
G36*
X53006814Y-109228931D02*
X53090635Y-109673555D01*
X53399920Y-109801053D01*
X53709206Y-109928551D01*
X54080246Y-109676246D01*
X54184157Y-109605996D01*
X54278087Y-109543272D01*
X54357652Y-109490938D01*
X54418470Y-109451857D01*
X54456157Y-109428893D01*
X54466421Y-109423942D01*
X54484910Y-109436676D01*
X54524420Y-109471882D01*
X54580522Y-109525062D01*
X54648787Y-109591718D01*
X54724786Y-109667354D01*
X54804092Y-109747472D01*
X54882275Y-109827574D01*
X54954907Y-109903164D01*
X55017559Y-109969745D01*
X55065803Y-110022818D01*
X55095210Y-110057887D01*
X55102241Y-110069623D01*
X55092123Y-110091260D01*
X55063759Y-110138662D01*
X55020129Y-110207193D01*
X54964218Y-110292215D01*
X54899006Y-110389093D01*
X54861219Y-110444350D01*
X54792343Y-110545248D01*
X54731140Y-110636299D01*
X54680578Y-110712970D01*
X54643628Y-110770728D01*
X54623258Y-110805043D01*
X54620197Y-110812254D01*
X54627136Y-110832748D01*
X54646051Y-110880513D01*
X54674087Y-110948832D01*
X54708391Y-111030989D01*
X54746109Y-111120270D01*
X54784387Y-111209958D01*
X54820370Y-111293338D01*
X54851206Y-111363694D01*
X54874039Y-111414310D01*
X54886017Y-111438471D01*
X54886724Y-111439422D01*
X54905531Y-111444036D01*
X54955618Y-111454328D01*
X55031793Y-111469287D01*
X55128865Y-111487901D01*
X55241643Y-111509159D01*
X55307442Y-111521418D01*
X55427950Y-111544362D01*
X55536797Y-111566195D01*
X55628476Y-111585722D01*
X55697481Y-111601748D01*
X55738304Y-111613079D01*
X55746511Y-111616674D01*
X55754548Y-111641006D01*
X55761033Y-111695959D01*
X55765970Y-111775108D01*
X55769364Y-111872026D01*
X55771218Y-111980287D01*
X55771538Y-112093465D01*
X55770327Y-112205135D01*
X55767590Y-112308868D01*
X55763331Y-112398241D01*
X55757555Y-112466826D01*
X55750267Y-112508197D01*
X55745895Y-112516810D01*
X55719764Y-112527133D01*
X55664393Y-112541892D01*
X55587107Y-112559352D01*
X55495230Y-112577780D01*
X55463158Y-112583741D01*
X55308524Y-112612066D01*
X55186375Y-112634876D01*
X55092673Y-112653080D01*
X55023384Y-112667583D01*
X54974471Y-112679292D01*
X54941897Y-112689115D01*
X54921628Y-112697956D01*
X54909626Y-112706724D01*
X54907947Y-112708457D01*
X54891184Y-112736371D01*
X54865614Y-112790695D01*
X54833788Y-112864777D01*
X54798260Y-112951965D01*
X54761583Y-113045608D01*
X54726311Y-113139052D01*
X54694996Y-113225647D01*
X54670193Y-113298740D01*
X54654454Y-113351678D01*
X54650332Y-113377811D01*
X54650676Y-113378726D01*
X54664641Y-113400086D01*
X54696322Y-113447084D01*
X54742391Y-113514827D01*
X54799518Y-113598423D01*
X54864373Y-113692982D01*
X54882843Y-113719854D01*
X54948699Y-113817275D01*
X55006650Y-113906163D01*
X55053538Y-113981412D01*
X55086207Y-114037920D01*
X55101500Y-114070581D01*
X55102241Y-114074593D01*
X55089392Y-114095684D01*
X55053888Y-114137464D01*
X55000293Y-114195445D01*
X54933171Y-114265135D01*
X54857087Y-114342045D01*
X54776604Y-114421683D01*
X54696287Y-114499561D01*
X54620699Y-114571186D01*
X54554405Y-114632070D01*
X54501969Y-114677721D01*
X54467955Y-114703650D01*
X54458545Y-114707883D01*
X54436643Y-114697912D01*
X54391800Y-114671020D01*
X54331321Y-114631736D01*
X54284789Y-114600117D01*
X54200475Y-114542098D01*
X54100626Y-114473784D01*
X54000473Y-114405579D01*
X53946627Y-114369075D01*
X53764371Y-114245800D01*
X53611381Y-114328520D01*
X53541682Y-114364759D01*
X53482414Y-114392926D01*
X53442311Y-114408991D01*
X53432103Y-114411226D01*
X53419829Y-114394722D01*
X53395613Y-114348082D01*
X53361263Y-114275609D01*
X53318588Y-114181606D01*
X53269394Y-114070374D01*
X53215490Y-113946215D01*
X53158684Y-113813432D01*
X53100782Y-113676327D01*
X53043593Y-113539202D01*
X52988924Y-113406358D01*
X52938584Y-113282098D01*
X52894380Y-113170725D01*
X52858119Y-113076539D01*
X52831609Y-113003844D01*
X52816658Y-112956941D01*
X52814254Y-112940833D01*
X52833311Y-112920286D01*
X52875036Y-112886933D01*
X52930706Y-112847702D01*
X52935378Y-112844599D01*
X53079264Y-112729423D01*
X53195283Y-112595053D01*
X53282430Y-112445784D01*
X53339699Y-112285913D01*
X53366086Y-112119737D01*
X53360585Y-111951552D01*
X53322190Y-111785655D01*
X53249895Y-111626342D01*
X53228626Y-111591487D01*
X53117996Y-111450737D01*
X52987302Y-111337714D01*
X52841064Y-111253003D01*
X52683808Y-111197194D01*
X52520057Y-111170874D01*
X52354333Y-111174630D01*
X52191162Y-111209050D01*
X52035065Y-111274723D01*
X51890567Y-111372235D01*
X51845869Y-111411813D01*
X51732112Y-111535703D01*
X51649218Y-111666124D01*
X51592356Y-111812315D01*
X51560687Y-111957088D01*
X51552869Y-112119860D01*
X51578938Y-112283440D01*
X51636245Y-112442298D01*
X51722144Y-112590906D01*
X51833986Y-112723735D01*
X51969123Y-112835256D01*
X51986883Y-112847011D01*
X52043150Y-112885508D01*
X52085923Y-112918863D01*
X52106372Y-112940160D01*
X52106669Y-112940833D01*
X52102279Y-112963871D01*
X52084876Y-113016157D01*
X52056268Y-113093390D01*
X52018265Y-113191268D01*
X51972674Y-113305491D01*
X51921303Y-113431758D01*
X51865962Y-113565767D01*
X51808458Y-113703218D01*
X51750601Y-113839808D01*
X51694198Y-113971237D01*
X51641058Y-114093205D01*
X51592990Y-114201409D01*
X51551801Y-114291549D01*
X51519301Y-114359323D01*
X51497297Y-114400430D01*
X51488436Y-114411226D01*
X51461360Y-114402819D01*
X51410697Y-114380272D01*
X51345183Y-114347613D01*
X51309159Y-114328520D01*
X51156168Y-114245800D01*
X50973912Y-114369075D01*
X50880875Y-114432228D01*
X50779015Y-114501727D01*
X50683562Y-114567165D01*
X50635750Y-114600117D01*
X50568505Y-114645273D01*
X50511564Y-114681057D01*
X50472354Y-114702938D01*
X50459619Y-114707563D01*
X50441083Y-114695085D01*
X50400059Y-114660252D01*
X50340525Y-114606678D01*
X50266458Y-114537983D01*
X50181835Y-114457781D01*
X50128315Y-114406286D01*
X50034681Y-114314286D01*
X49953759Y-114231999D01*
X49888823Y-114162945D01*
X49843142Y-114110644D01*
X49819989Y-114078616D01*
X49817768Y-114072116D01*
X49828076Y-114047394D01*
X49856561Y-113997405D01*
X49900063Y-113927212D01*
X49955423Y-113841875D01*
X50019480Y-113746456D01*
X50037697Y-113719854D01*
X50104073Y-113623167D01*
X50163622Y-113536117D01*
X50213016Y-113463595D01*
X50248925Y-113410493D01*
X50268019Y-113381703D01*
X50269864Y-113378726D01*
X50267105Y-113355782D01*
X50252462Y-113305336D01*
X50228487Y-113234041D01*
X50197734Y-113148547D01*
X50162756Y-113055507D01*
X50126107Y-112961574D01*
X50090339Y-112873399D01*
X50058006Y-112797634D01*
X50031662Y-112740931D01*
X50013858Y-112709943D01*
X50012593Y-112708457D01*
X50001706Y-112699601D01*
X49983318Y-112690843D01*
X49953394Y-112681277D01*
X49907897Y-112669996D01*
X49842791Y-112656093D01*
X49754039Y-112638663D01*
X49637607Y-112616798D01*
X49489458Y-112589591D01*
X49457382Y-112583741D01*
X49362314Y-112565374D01*
X49279435Y-112547405D01*
X49216070Y-112531569D01*
X49179542Y-112519600D01*
X49174644Y-112516810D01*
X49166573Y-112492072D01*
X49160013Y-112436790D01*
X49154967Y-112357389D01*
X49151441Y-112260296D01*
X49149439Y-112151938D01*
X49148964Y-112038740D01*
X49150023Y-111927128D01*
X49152618Y-111823529D01*
X49156754Y-111734368D01*
X49162437Y-111666072D01*
X49169669Y-111625066D01*
X49174029Y-111616674D01*
X49198302Y-111608208D01*
X49253574Y-111594435D01*
X49334338Y-111576550D01*
X49435088Y-111555748D01*
X49550317Y-111533223D01*
X49613098Y-111521418D01*
X49732213Y-111499151D01*
X49838435Y-111478979D01*
X49926573Y-111461915D01*
X49991434Y-111448969D01*
X50027826Y-111441155D01*
X50033816Y-111439422D01*
X50043939Y-111419890D01*
X50065338Y-111372843D01*
X50095161Y-111305003D01*
X50130555Y-111223091D01*
X50168668Y-111133828D01*
X50206647Y-111043935D01*
X50241640Y-110960135D01*
X50270794Y-110889147D01*
X50291257Y-110837694D01*
X50300177Y-110812497D01*
X50300343Y-110811396D01*
X50290231Y-110791519D01*
X50261883Y-110745777D01*
X50218277Y-110678717D01*
X50162394Y-110594884D01*
X50097213Y-110498826D01*
X50059321Y-110443650D01*
X49990275Y-110342481D01*
X49928950Y-110250630D01*
X49878337Y-110172744D01*
X49841429Y-110113469D01*
X49821218Y-110077451D01*
X49818299Y-110069377D01*
X49830847Y-110050584D01*
X49865537Y-110010457D01*
X49917937Y-109953493D01*
X49983616Y-109884185D01*
X50058144Y-109807031D01*
X50137087Y-109726525D01*
X50216017Y-109647163D01*
X50290500Y-109573440D01*
X50356106Y-109509852D01*
X50408404Y-109460894D01*
X50442961Y-109431061D01*
X50454522Y-109423942D01*
X50473346Y-109433953D01*
X50518369Y-109462078D01*
X50585213Y-109505454D01*
X50669501Y-109561218D01*
X50766856Y-109626506D01*
X50840293Y-109676246D01*
X51211333Y-109928551D01*
X51829905Y-109673555D01*
X51913725Y-109228931D01*
X51997546Y-108784307D01*
X52922994Y-108784307D01*
X53006814Y-109228931D01*
X53006814Y-109228931D01*
G37*
X53006814Y-109228931D02*
X53090635Y-109673555D01*
X53399920Y-109801053D01*
X53709206Y-109928551D01*
X54080246Y-109676246D01*
X54184157Y-109605996D01*
X54278087Y-109543272D01*
X54357652Y-109490938D01*
X54418470Y-109451857D01*
X54456157Y-109428893D01*
X54466421Y-109423942D01*
X54484910Y-109436676D01*
X54524420Y-109471882D01*
X54580522Y-109525062D01*
X54648787Y-109591718D01*
X54724786Y-109667354D01*
X54804092Y-109747472D01*
X54882275Y-109827574D01*
X54954907Y-109903164D01*
X55017559Y-109969745D01*
X55065803Y-110022818D01*
X55095210Y-110057887D01*
X55102241Y-110069623D01*
X55092123Y-110091260D01*
X55063759Y-110138662D01*
X55020129Y-110207193D01*
X54964218Y-110292215D01*
X54899006Y-110389093D01*
X54861219Y-110444350D01*
X54792343Y-110545248D01*
X54731140Y-110636299D01*
X54680578Y-110712970D01*
X54643628Y-110770728D01*
X54623258Y-110805043D01*
X54620197Y-110812254D01*
X54627136Y-110832748D01*
X54646051Y-110880513D01*
X54674087Y-110948832D01*
X54708391Y-111030989D01*
X54746109Y-111120270D01*
X54784387Y-111209958D01*
X54820370Y-111293338D01*
X54851206Y-111363694D01*
X54874039Y-111414310D01*
X54886017Y-111438471D01*
X54886724Y-111439422D01*
X54905531Y-111444036D01*
X54955618Y-111454328D01*
X55031793Y-111469287D01*
X55128865Y-111487901D01*
X55241643Y-111509159D01*
X55307442Y-111521418D01*
X55427950Y-111544362D01*
X55536797Y-111566195D01*
X55628476Y-111585722D01*
X55697481Y-111601748D01*
X55738304Y-111613079D01*
X55746511Y-111616674D01*
X55754548Y-111641006D01*
X55761033Y-111695959D01*
X55765970Y-111775108D01*
X55769364Y-111872026D01*
X55771218Y-111980287D01*
X55771538Y-112093465D01*
X55770327Y-112205135D01*
X55767590Y-112308868D01*
X55763331Y-112398241D01*
X55757555Y-112466826D01*
X55750267Y-112508197D01*
X55745895Y-112516810D01*
X55719764Y-112527133D01*
X55664393Y-112541892D01*
X55587107Y-112559352D01*
X55495230Y-112577780D01*
X55463158Y-112583741D01*
X55308524Y-112612066D01*
X55186375Y-112634876D01*
X55092673Y-112653080D01*
X55023384Y-112667583D01*
X54974471Y-112679292D01*
X54941897Y-112689115D01*
X54921628Y-112697956D01*
X54909626Y-112706724D01*
X54907947Y-112708457D01*
X54891184Y-112736371D01*
X54865614Y-112790695D01*
X54833788Y-112864777D01*
X54798260Y-112951965D01*
X54761583Y-113045608D01*
X54726311Y-113139052D01*
X54694996Y-113225647D01*
X54670193Y-113298740D01*
X54654454Y-113351678D01*
X54650332Y-113377811D01*
X54650676Y-113378726D01*
X54664641Y-113400086D01*
X54696322Y-113447084D01*
X54742391Y-113514827D01*
X54799518Y-113598423D01*
X54864373Y-113692982D01*
X54882843Y-113719854D01*
X54948699Y-113817275D01*
X55006650Y-113906163D01*
X55053538Y-113981412D01*
X55086207Y-114037920D01*
X55101500Y-114070581D01*
X55102241Y-114074593D01*
X55089392Y-114095684D01*
X55053888Y-114137464D01*
X55000293Y-114195445D01*
X54933171Y-114265135D01*
X54857087Y-114342045D01*
X54776604Y-114421683D01*
X54696287Y-114499561D01*
X54620699Y-114571186D01*
X54554405Y-114632070D01*
X54501969Y-114677721D01*
X54467955Y-114703650D01*
X54458545Y-114707883D01*
X54436643Y-114697912D01*
X54391800Y-114671020D01*
X54331321Y-114631736D01*
X54284789Y-114600117D01*
X54200475Y-114542098D01*
X54100626Y-114473784D01*
X54000473Y-114405579D01*
X53946627Y-114369075D01*
X53764371Y-114245800D01*
X53611381Y-114328520D01*
X53541682Y-114364759D01*
X53482414Y-114392926D01*
X53442311Y-114408991D01*
X53432103Y-114411226D01*
X53419829Y-114394722D01*
X53395613Y-114348082D01*
X53361263Y-114275609D01*
X53318588Y-114181606D01*
X53269394Y-114070374D01*
X53215490Y-113946215D01*
X53158684Y-113813432D01*
X53100782Y-113676327D01*
X53043593Y-113539202D01*
X52988924Y-113406358D01*
X52938584Y-113282098D01*
X52894380Y-113170725D01*
X52858119Y-113076539D01*
X52831609Y-113003844D01*
X52816658Y-112956941D01*
X52814254Y-112940833D01*
X52833311Y-112920286D01*
X52875036Y-112886933D01*
X52930706Y-112847702D01*
X52935378Y-112844599D01*
X53079264Y-112729423D01*
X53195283Y-112595053D01*
X53282430Y-112445784D01*
X53339699Y-112285913D01*
X53366086Y-112119737D01*
X53360585Y-111951552D01*
X53322190Y-111785655D01*
X53249895Y-111626342D01*
X53228626Y-111591487D01*
X53117996Y-111450737D01*
X52987302Y-111337714D01*
X52841064Y-111253003D01*
X52683808Y-111197194D01*
X52520057Y-111170874D01*
X52354333Y-111174630D01*
X52191162Y-111209050D01*
X52035065Y-111274723D01*
X51890567Y-111372235D01*
X51845869Y-111411813D01*
X51732112Y-111535703D01*
X51649218Y-111666124D01*
X51592356Y-111812315D01*
X51560687Y-111957088D01*
X51552869Y-112119860D01*
X51578938Y-112283440D01*
X51636245Y-112442298D01*
X51722144Y-112590906D01*
X51833986Y-112723735D01*
X51969123Y-112835256D01*
X51986883Y-112847011D01*
X52043150Y-112885508D01*
X52085923Y-112918863D01*
X52106372Y-112940160D01*
X52106669Y-112940833D01*
X52102279Y-112963871D01*
X52084876Y-113016157D01*
X52056268Y-113093390D01*
X52018265Y-113191268D01*
X51972674Y-113305491D01*
X51921303Y-113431758D01*
X51865962Y-113565767D01*
X51808458Y-113703218D01*
X51750601Y-113839808D01*
X51694198Y-113971237D01*
X51641058Y-114093205D01*
X51592990Y-114201409D01*
X51551801Y-114291549D01*
X51519301Y-114359323D01*
X51497297Y-114400430D01*
X51488436Y-114411226D01*
X51461360Y-114402819D01*
X51410697Y-114380272D01*
X51345183Y-114347613D01*
X51309159Y-114328520D01*
X51156168Y-114245800D01*
X50973912Y-114369075D01*
X50880875Y-114432228D01*
X50779015Y-114501727D01*
X50683562Y-114567165D01*
X50635750Y-114600117D01*
X50568505Y-114645273D01*
X50511564Y-114681057D01*
X50472354Y-114702938D01*
X50459619Y-114707563D01*
X50441083Y-114695085D01*
X50400059Y-114660252D01*
X50340525Y-114606678D01*
X50266458Y-114537983D01*
X50181835Y-114457781D01*
X50128315Y-114406286D01*
X50034681Y-114314286D01*
X49953759Y-114231999D01*
X49888823Y-114162945D01*
X49843142Y-114110644D01*
X49819989Y-114078616D01*
X49817768Y-114072116D01*
X49828076Y-114047394D01*
X49856561Y-113997405D01*
X49900063Y-113927212D01*
X49955423Y-113841875D01*
X50019480Y-113746456D01*
X50037697Y-113719854D01*
X50104073Y-113623167D01*
X50163622Y-113536117D01*
X50213016Y-113463595D01*
X50248925Y-113410493D01*
X50268019Y-113381703D01*
X50269864Y-113378726D01*
X50267105Y-113355782D01*
X50252462Y-113305336D01*
X50228487Y-113234041D01*
X50197734Y-113148547D01*
X50162756Y-113055507D01*
X50126107Y-112961574D01*
X50090339Y-112873399D01*
X50058006Y-112797634D01*
X50031662Y-112740931D01*
X50013858Y-112709943D01*
X50012593Y-112708457D01*
X50001706Y-112699601D01*
X49983318Y-112690843D01*
X49953394Y-112681277D01*
X49907897Y-112669996D01*
X49842791Y-112656093D01*
X49754039Y-112638663D01*
X49637607Y-112616798D01*
X49489458Y-112589591D01*
X49457382Y-112583741D01*
X49362314Y-112565374D01*
X49279435Y-112547405D01*
X49216070Y-112531569D01*
X49179542Y-112519600D01*
X49174644Y-112516810D01*
X49166573Y-112492072D01*
X49160013Y-112436790D01*
X49154967Y-112357389D01*
X49151441Y-112260296D01*
X49149439Y-112151938D01*
X49148964Y-112038740D01*
X49150023Y-111927128D01*
X49152618Y-111823529D01*
X49156754Y-111734368D01*
X49162437Y-111666072D01*
X49169669Y-111625066D01*
X49174029Y-111616674D01*
X49198302Y-111608208D01*
X49253574Y-111594435D01*
X49334338Y-111576550D01*
X49435088Y-111555748D01*
X49550317Y-111533223D01*
X49613098Y-111521418D01*
X49732213Y-111499151D01*
X49838435Y-111478979D01*
X49926573Y-111461915D01*
X49991434Y-111448969D01*
X50027826Y-111441155D01*
X50033816Y-111439422D01*
X50043939Y-111419890D01*
X50065338Y-111372843D01*
X50095161Y-111305003D01*
X50130555Y-111223091D01*
X50168668Y-111133828D01*
X50206647Y-111043935D01*
X50241640Y-110960135D01*
X50270794Y-110889147D01*
X50291257Y-110837694D01*
X50300177Y-110812497D01*
X50300343Y-110811396D01*
X50290231Y-110791519D01*
X50261883Y-110745777D01*
X50218277Y-110678717D01*
X50162394Y-110594884D01*
X50097213Y-110498826D01*
X50059321Y-110443650D01*
X49990275Y-110342481D01*
X49928950Y-110250630D01*
X49878337Y-110172744D01*
X49841429Y-110113469D01*
X49821218Y-110077451D01*
X49818299Y-110069377D01*
X49830847Y-110050584D01*
X49865537Y-110010457D01*
X49917937Y-109953493D01*
X49983616Y-109884185D01*
X50058144Y-109807031D01*
X50137087Y-109726525D01*
X50216017Y-109647163D01*
X50290500Y-109573440D01*
X50356106Y-109509852D01*
X50408404Y-109460894D01*
X50442961Y-109431061D01*
X50454522Y-109423942D01*
X50473346Y-109433953D01*
X50518369Y-109462078D01*
X50585213Y-109505454D01*
X50669501Y-109561218D01*
X50766856Y-109626506D01*
X50840293Y-109676246D01*
X51211333Y-109928551D01*
X51829905Y-109673555D01*
X51913725Y-109228931D01*
X51997546Y-108784307D01*
X52922994Y-108784307D01*
X53006814Y-109228931D01*
G04 #@! TO.C,R10*
D14*
X105275142Y-88336380D02*
X104941809Y-87860190D01*
X104703714Y-88336380D02*
X104703714Y-87336380D01*
X105084666Y-87336380D01*
X105179904Y-87384000D01*
X105227523Y-87431619D01*
X105275142Y-87526857D01*
X105275142Y-87669714D01*
X105227523Y-87764952D01*
X105179904Y-87812571D01*
X105084666Y-87860190D01*
X104703714Y-87860190D01*
X106227523Y-88336380D02*
X105656095Y-88336380D01*
X105941809Y-88336380D02*
X105941809Y-87336380D01*
X105846571Y-87479238D01*
X105751333Y-87574476D01*
X105656095Y-87622095D01*
X106846571Y-87336380D02*
X106941809Y-87336380D01*
X107037047Y-87384000D01*
X107084666Y-87431619D01*
X107132285Y-87526857D01*
X107179904Y-87717333D01*
X107179904Y-87955428D01*
X107132285Y-88145904D01*
X107084666Y-88241142D01*
X107037047Y-88288761D01*
X106941809Y-88336380D01*
X106846571Y-88336380D01*
X106751333Y-88288761D01*
X106703714Y-88241142D01*
X106656095Y-88145904D01*
X106608476Y-87955428D01*
X106608476Y-87717333D01*
X106656095Y-87526857D01*
X106703714Y-87431619D01*
X106751333Y-87384000D01*
X106846571Y-87336380D01*
G04 #@! TO.C,C1*
X54951333Y-98909142D02*
X54903714Y-98956761D01*
X54760857Y-99004380D01*
X54665619Y-99004380D01*
X54522761Y-98956761D01*
X54427523Y-98861523D01*
X54379904Y-98766285D01*
X54332285Y-98575809D01*
X54332285Y-98432952D01*
X54379904Y-98242476D01*
X54427523Y-98147238D01*
X54522761Y-98052000D01*
X54665619Y-98004380D01*
X54760857Y-98004380D01*
X54903714Y-98052000D01*
X54951333Y-98099619D01*
X55903714Y-99004380D02*
X55332285Y-99004380D01*
X55618000Y-99004380D02*
X55618000Y-98004380D01*
X55522761Y-98147238D01*
X55427523Y-98242476D01*
X55332285Y-98290095D01*
G04 #@! TO.C,C2*
X54967142Y-91606666D02*
X55014761Y-91654285D01*
X55062380Y-91797142D01*
X55062380Y-91892380D01*
X55014761Y-92035238D01*
X54919523Y-92130476D01*
X54824285Y-92178095D01*
X54633809Y-92225714D01*
X54490952Y-92225714D01*
X54300476Y-92178095D01*
X54205238Y-92130476D01*
X54110000Y-92035238D01*
X54062380Y-91892380D01*
X54062380Y-91797142D01*
X54110000Y-91654285D01*
X54157619Y-91606666D01*
X54157619Y-91225714D02*
X54110000Y-91178095D01*
X54062380Y-91082857D01*
X54062380Y-90844761D01*
X54110000Y-90749523D01*
X54157619Y-90701904D01*
X54252857Y-90654285D01*
X54348095Y-90654285D01*
X54490952Y-90701904D01*
X55062380Y-91273333D01*
X55062380Y-90654285D01*
G04 #@! TO.C,C3*
X44553142Y-85256666D02*
X44600761Y-85304285D01*
X44648380Y-85447142D01*
X44648380Y-85542380D01*
X44600761Y-85685238D01*
X44505523Y-85780476D01*
X44410285Y-85828095D01*
X44219809Y-85875714D01*
X44076952Y-85875714D01*
X43886476Y-85828095D01*
X43791238Y-85780476D01*
X43696000Y-85685238D01*
X43648380Y-85542380D01*
X43648380Y-85447142D01*
X43696000Y-85304285D01*
X43743619Y-85256666D01*
X43648380Y-84923333D02*
X43648380Y-84304285D01*
X44029333Y-84637619D01*
X44029333Y-84494761D01*
X44076952Y-84399523D01*
X44124571Y-84351904D01*
X44219809Y-84304285D01*
X44457904Y-84304285D01*
X44553142Y-84351904D01*
X44600761Y-84399523D01*
X44648380Y-84494761D01*
X44648380Y-84780476D01*
X44600761Y-84875714D01*
X44553142Y-84923333D01*
G04 #@! TO.C,C4*
X54697333Y-96369142D02*
X54649714Y-96416761D01*
X54506857Y-96464380D01*
X54411619Y-96464380D01*
X54268761Y-96416761D01*
X54173523Y-96321523D01*
X54125904Y-96226285D01*
X54078285Y-96035809D01*
X54078285Y-95892952D01*
X54125904Y-95702476D01*
X54173523Y-95607238D01*
X54268761Y-95512000D01*
X54411619Y-95464380D01*
X54506857Y-95464380D01*
X54649714Y-95512000D01*
X54697333Y-95559619D01*
X55554476Y-95797714D02*
X55554476Y-96464380D01*
X55316380Y-95416761D02*
X55078285Y-96131047D01*
X55697333Y-96131047D01*
G04 #@! TO.C,C5*
X47855142Y-80176666D02*
X47902761Y-80224285D01*
X47950380Y-80367142D01*
X47950380Y-80462380D01*
X47902761Y-80605238D01*
X47807523Y-80700476D01*
X47712285Y-80748095D01*
X47521809Y-80795714D01*
X47378952Y-80795714D01*
X47188476Y-80748095D01*
X47093238Y-80700476D01*
X46998000Y-80605238D01*
X46950380Y-80462380D01*
X46950380Y-80367142D01*
X46998000Y-80224285D01*
X47045619Y-80176666D01*
X46950380Y-79271904D02*
X46950380Y-79748095D01*
X47426571Y-79795714D01*
X47378952Y-79748095D01*
X47331333Y-79652857D01*
X47331333Y-79414761D01*
X47378952Y-79319523D01*
X47426571Y-79271904D01*
X47521809Y-79224285D01*
X47759904Y-79224285D01*
X47855142Y-79271904D01*
X47902761Y-79319523D01*
X47950380Y-79414761D01*
X47950380Y-79652857D01*
X47902761Y-79748095D01*
X47855142Y-79795714D01*
G04 #@! TO.C,C6*
X77811333Y-98655142D02*
X77763714Y-98702761D01*
X77620857Y-98750380D01*
X77525619Y-98750380D01*
X77382761Y-98702761D01*
X77287523Y-98607523D01*
X77239904Y-98512285D01*
X77192285Y-98321809D01*
X77192285Y-98178952D01*
X77239904Y-97988476D01*
X77287523Y-97893238D01*
X77382761Y-97798000D01*
X77525619Y-97750380D01*
X77620857Y-97750380D01*
X77763714Y-97798000D01*
X77811333Y-97845619D01*
X78668476Y-97750380D02*
X78478000Y-97750380D01*
X78382761Y-97798000D01*
X78335142Y-97845619D01*
X78239904Y-97988476D01*
X78192285Y-98178952D01*
X78192285Y-98559904D01*
X78239904Y-98655142D01*
X78287523Y-98702761D01*
X78382761Y-98750380D01*
X78573238Y-98750380D01*
X78668476Y-98702761D01*
X78716095Y-98655142D01*
X78763714Y-98559904D01*
X78763714Y-98321809D01*
X78716095Y-98226571D01*
X78668476Y-98178952D01*
X78573238Y-98131333D01*
X78382761Y-98131333D01*
X78287523Y-98178952D01*
X78239904Y-98226571D01*
X78192285Y-98321809D01*
G04 #@! TO.C,C7*
X77684333Y-84939142D02*
X77636714Y-84986761D01*
X77493857Y-85034380D01*
X77398619Y-85034380D01*
X77255761Y-84986761D01*
X77160523Y-84891523D01*
X77112904Y-84796285D01*
X77065285Y-84605809D01*
X77065285Y-84462952D01*
X77112904Y-84272476D01*
X77160523Y-84177238D01*
X77255761Y-84082000D01*
X77398619Y-84034380D01*
X77493857Y-84034380D01*
X77636714Y-84082000D01*
X77684333Y-84129619D01*
X78017666Y-84034380D02*
X78684333Y-84034380D01*
X78255761Y-85034380D01*
G04 #@! TO.C,C8*
X55729142Y-76112666D02*
X55776761Y-76160285D01*
X55824380Y-76303142D01*
X55824380Y-76398380D01*
X55776761Y-76541238D01*
X55681523Y-76636476D01*
X55586285Y-76684095D01*
X55395809Y-76731714D01*
X55252952Y-76731714D01*
X55062476Y-76684095D01*
X54967238Y-76636476D01*
X54872000Y-76541238D01*
X54824380Y-76398380D01*
X54824380Y-76303142D01*
X54872000Y-76160285D01*
X54919619Y-76112666D01*
X55252952Y-75541238D02*
X55205333Y-75636476D01*
X55157714Y-75684095D01*
X55062476Y-75731714D01*
X55014857Y-75731714D01*
X54919619Y-75684095D01*
X54872000Y-75636476D01*
X54824380Y-75541238D01*
X54824380Y-75350761D01*
X54872000Y-75255523D01*
X54919619Y-75207904D01*
X55014857Y-75160285D01*
X55062476Y-75160285D01*
X55157714Y-75207904D01*
X55205333Y-75255523D01*
X55252952Y-75350761D01*
X55252952Y-75541238D01*
X55300571Y-75636476D01*
X55348190Y-75684095D01*
X55443428Y-75731714D01*
X55633904Y-75731714D01*
X55729142Y-75684095D01*
X55776761Y-75636476D01*
X55824380Y-75541238D01*
X55824380Y-75350761D01*
X55776761Y-75255523D01*
X55729142Y-75207904D01*
X55633904Y-75160285D01*
X55443428Y-75160285D01*
X55348190Y-75207904D01*
X55300571Y-75255523D01*
X55252952Y-75350761D01*
G04 #@! TO.C,C9*
X55729142Y-107100666D02*
X55776761Y-107148285D01*
X55824380Y-107291142D01*
X55824380Y-107386380D01*
X55776761Y-107529238D01*
X55681523Y-107624476D01*
X55586285Y-107672095D01*
X55395809Y-107719714D01*
X55252952Y-107719714D01*
X55062476Y-107672095D01*
X54967238Y-107624476D01*
X54872000Y-107529238D01*
X54824380Y-107386380D01*
X54824380Y-107291142D01*
X54872000Y-107148285D01*
X54919619Y-107100666D01*
X55824380Y-106624476D02*
X55824380Y-106434000D01*
X55776761Y-106338761D01*
X55729142Y-106291142D01*
X55586285Y-106195904D01*
X55395809Y-106148285D01*
X55014857Y-106148285D01*
X54919619Y-106195904D01*
X54872000Y-106243523D01*
X54824380Y-106338761D01*
X54824380Y-106529238D01*
X54872000Y-106624476D01*
X54919619Y-106672095D01*
X55014857Y-106719714D01*
X55252952Y-106719714D01*
X55348190Y-106672095D01*
X55395809Y-106624476D01*
X55443428Y-106529238D01*
X55443428Y-106338761D01*
X55395809Y-106243523D01*
X55348190Y-106195904D01*
X55252952Y-106148285D01*
G04 #@! TO.C,C10*
X79367142Y-102719142D02*
X79319523Y-102766761D01*
X79176666Y-102814380D01*
X79081428Y-102814380D01*
X78938571Y-102766761D01*
X78843333Y-102671523D01*
X78795714Y-102576285D01*
X78748095Y-102385809D01*
X78748095Y-102242952D01*
X78795714Y-102052476D01*
X78843333Y-101957238D01*
X78938571Y-101862000D01*
X79081428Y-101814380D01*
X79176666Y-101814380D01*
X79319523Y-101862000D01*
X79367142Y-101909619D01*
X80319523Y-102814380D02*
X79748095Y-102814380D01*
X80033809Y-102814380D02*
X80033809Y-101814380D01*
X79938571Y-101957238D01*
X79843333Y-102052476D01*
X79748095Y-102100095D01*
X80938571Y-101814380D02*
X81033809Y-101814380D01*
X81129047Y-101862000D01*
X81176666Y-101909619D01*
X81224285Y-102004857D01*
X81271904Y-102195333D01*
X81271904Y-102433428D01*
X81224285Y-102623904D01*
X81176666Y-102719142D01*
X81129047Y-102766761D01*
X81033809Y-102814380D01*
X80938571Y-102814380D01*
X80843333Y-102766761D01*
X80795714Y-102719142D01*
X80748095Y-102623904D01*
X80700476Y-102433428D01*
X80700476Y-102195333D01*
X80748095Y-102004857D01*
X80795714Y-101909619D01*
X80843333Y-101862000D01*
X80938571Y-101814380D01*
G04 #@! TO.C,C11*
X85447142Y-75826857D02*
X85494761Y-75874476D01*
X85542380Y-76017333D01*
X85542380Y-76112571D01*
X85494761Y-76255428D01*
X85399523Y-76350666D01*
X85304285Y-76398285D01*
X85113809Y-76445904D01*
X84970952Y-76445904D01*
X84780476Y-76398285D01*
X84685238Y-76350666D01*
X84590000Y-76255428D01*
X84542380Y-76112571D01*
X84542380Y-76017333D01*
X84590000Y-75874476D01*
X84637619Y-75826857D01*
X85542380Y-74874476D02*
X85542380Y-75445904D01*
X85542380Y-75160190D02*
X84542380Y-75160190D01*
X84685238Y-75255428D01*
X84780476Y-75350666D01*
X84828095Y-75445904D01*
X85542380Y-73922095D02*
X85542380Y-74493523D01*
X85542380Y-74207809D02*
X84542380Y-74207809D01*
X84685238Y-74303047D01*
X84780476Y-74398285D01*
X84828095Y-74493523D01*
G04 #@! TO.C,C12*
X54729142Y-94337142D02*
X54681523Y-94384761D01*
X54538666Y-94432380D01*
X54443428Y-94432380D01*
X54300571Y-94384761D01*
X54205333Y-94289523D01*
X54157714Y-94194285D01*
X54110095Y-94003809D01*
X54110095Y-93860952D01*
X54157714Y-93670476D01*
X54205333Y-93575238D01*
X54300571Y-93480000D01*
X54443428Y-93432380D01*
X54538666Y-93432380D01*
X54681523Y-93480000D01*
X54729142Y-93527619D01*
X55681523Y-94432380D02*
X55110095Y-94432380D01*
X55395809Y-94432380D02*
X55395809Y-93432380D01*
X55300571Y-93575238D01*
X55205333Y-93670476D01*
X55110095Y-93718095D01*
X56062476Y-93527619D02*
X56110095Y-93480000D01*
X56205333Y-93432380D01*
X56443428Y-93432380D01*
X56538666Y-93480000D01*
X56586285Y-93527619D01*
X56633904Y-93622857D01*
X56633904Y-93718095D01*
X56586285Y-93860952D01*
X56014857Y-94432380D01*
X56633904Y-94432380D01*
G04 #@! TO.C,C13*
X49522142Y-87100442D02*
X49474523Y-87148061D01*
X49331666Y-87195680D01*
X49236428Y-87195680D01*
X49093571Y-87148061D01*
X48998333Y-87052823D01*
X48950714Y-86957585D01*
X48903095Y-86767109D01*
X48903095Y-86624252D01*
X48950714Y-86433776D01*
X48998333Y-86338538D01*
X49093571Y-86243300D01*
X49236428Y-86195680D01*
X49331666Y-86195680D01*
X49474523Y-86243300D01*
X49522142Y-86290919D01*
X50474523Y-87195680D02*
X49903095Y-87195680D01*
X50188809Y-87195680D02*
X50188809Y-86195680D01*
X50093571Y-86338538D01*
X49998333Y-86433776D01*
X49903095Y-86481395D01*
X50807857Y-86195680D02*
X51426904Y-86195680D01*
X51093571Y-86576633D01*
X51236428Y-86576633D01*
X51331666Y-86624252D01*
X51379285Y-86671871D01*
X51426904Y-86767109D01*
X51426904Y-87005204D01*
X51379285Y-87100442D01*
X51331666Y-87148061D01*
X51236428Y-87195680D01*
X50950714Y-87195680D01*
X50855476Y-87148061D01*
X50807857Y-87100442D01*
G04 #@! TO.C,C14*
X77335142Y-86971142D02*
X77287523Y-87018761D01*
X77144666Y-87066380D01*
X77049428Y-87066380D01*
X76906571Y-87018761D01*
X76811333Y-86923523D01*
X76763714Y-86828285D01*
X76716095Y-86637809D01*
X76716095Y-86494952D01*
X76763714Y-86304476D01*
X76811333Y-86209238D01*
X76906571Y-86114000D01*
X77049428Y-86066380D01*
X77144666Y-86066380D01*
X77287523Y-86114000D01*
X77335142Y-86161619D01*
X78287523Y-87066380D02*
X77716095Y-87066380D01*
X78001809Y-87066380D02*
X78001809Y-86066380D01*
X77906571Y-86209238D01*
X77811333Y-86304476D01*
X77716095Y-86352095D01*
X79144666Y-86399714D02*
X79144666Y-87066380D01*
X78906571Y-86018761D02*
X78668476Y-86733047D01*
X79287523Y-86733047D01*
G04 #@! TO.C,C15*
X118975142Y-80144857D02*
X119022761Y-80192476D01*
X119070380Y-80335333D01*
X119070380Y-80430571D01*
X119022761Y-80573428D01*
X118927523Y-80668666D01*
X118832285Y-80716285D01*
X118641809Y-80763904D01*
X118498952Y-80763904D01*
X118308476Y-80716285D01*
X118213238Y-80668666D01*
X118118000Y-80573428D01*
X118070380Y-80430571D01*
X118070380Y-80335333D01*
X118118000Y-80192476D01*
X118165619Y-80144857D01*
X119070380Y-79192476D02*
X119070380Y-79763904D01*
X119070380Y-79478190D02*
X118070380Y-79478190D01*
X118213238Y-79573428D01*
X118308476Y-79668666D01*
X118356095Y-79763904D01*
X118070380Y-78287714D02*
X118070380Y-78763904D01*
X118546571Y-78811523D01*
X118498952Y-78763904D01*
X118451333Y-78668666D01*
X118451333Y-78430571D01*
X118498952Y-78335333D01*
X118546571Y-78287714D01*
X118641809Y-78240095D01*
X118879904Y-78240095D01*
X118975142Y-78287714D01*
X119022761Y-78335333D01*
X119070380Y-78430571D01*
X119070380Y-78668666D01*
X119022761Y-78763904D01*
X118975142Y-78811523D01*
G04 #@! TO.C,C16*
X121007142Y-80144857D02*
X121054761Y-80192476D01*
X121102380Y-80335333D01*
X121102380Y-80430571D01*
X121054761Y-80573428D01*
X120959523Y-80668666D01*
X120864285Y-80716285D01*
X120673809Y-80763904D01*
X120530952Y-80763904D01*
X120340476Y-80716285D01*
X120245238Y-80668666D01*
X120150000Y-80573428D01*
X120102380Y-80430571D01*
X120102380Y-80335333D01*
X120150000Y-80192476D01*
X120197619Y-80144857D01*
X121102380Y-79192476D02*
X121102380Y-79763904D01*
X121102380Y-79478190D02*
X120102380Y-79478190D01*
X120245238Y-79573428D01*
X120340476Y-79668666D01*
X120388095Y-79763904D01*
X120102380Y-78335333D02*
X120102380Y-78525809D01*
X120150000Y-78621047D01*
X120197619Y-78668666D01*
X120340476Y-78763904D01*
X120530952Y-78811523D01*
X120911904Y-78811523D01*
X121007142Y-78763904D01*
X121054761Y-78716285D01*
X121102380Y-78621047D01*
X121102380Y-78430571D01*
X121054761Y-78335333D01*
X121007142Y-78287714D01*
X120911904Y-78240095D01*
X120673809Y-78240095D01*
X120578571Y-78287714D01*
X120530952Y-78335333D01*
X120483333Y-78430571D01*
X120483333Y-78621047D01*
X120530952Y-78716285D01*
X120578571Y-78763904D01*
X120673809Y-78811523D01*
G04 #@! TO.C,C17*
X114149142Y-80144857D02*
X114196761Y-80192476D01*
X114244380Y-80335333D01*
X114244380Y-80430571D01*
X114196761Y-80573428D01*
X114101523Y-80668666D01*
X114006285Y-80716285D01*
X113815809Y-80763904D01*
X113672952Y-80763904D01*
X113482476Y-80716285D01*
X113387238Y-80668666D01*
X113292000Y-80573428D01*
X113244380Y-80430571D01*
X113244380Y-80335333D01*
X113292000Y-80192476D01*
X113339619Y-80144857D01*
X114244380Y-79192476D02*
X114244380Y-79763904D01*
X114244380Y-79478190D02*
X113244380Y-79478190D01*
X113387238Y-79573428D01*
X113482476Y-79668666D01*
X113530095Y-79763904D01*
X113244380Y-78859142D02*
X113244380Y-78192476D01*
X114244380Y-78621047D01*
G04 #@! TO.C,C18*
X83415142Y-95892857D02*
X83462761Y-95940476D01*
X83510380Y-96083333D01*
X83510380Y-96178571D01*
X83462761Y-96321428D01*
X83367523Y-96416666D01*
X83272285Y-96464285D01*
X83081809Y-96511904D01*
X82938952Y-96511904D01*
X82748476Y-96464285D01*
X82653238Y-96416666D01*
X82558000Y-96321428D01*
X82510380Y-96178571D01*
X82510380Y-96083333D01*
X82558000Y-95940476D01*
X82605619Y-95892857D01*
X83510380Y-94940476D02*
X83510380Y-95511904D01*
X83510380Y-95226190D02*
X82510380Y-95226190D01*
X82653238Y-95321428D01*
X82748476Y-95416666D01*
X82796095Y-95511904D01*
X82938952Y-94369047D02*
X82891333Y-94464285D01*
X82843714Y-94511904D01*
X82748476Y-94559523D01*
X82700857Y-94559523D01*
X82605619Y-94511904D01*
X82558000Y-94464285D01*
X82510380Y-94369047D01*
X82510380Y-94178571D01*
X82558000Y-94083333D01*
X82605619Y-94035714D01*
X82700857Y-93988095D01*
X82748476Y-93988095D01*
X82843714Y-94035714D01*
X82891333Y-94083333D01*
X82938952Y-94178571D01*
X82938952Y-94369047D01*
X82986571Y-94464285D01*
X83034190Y-94511904D01*
X83129428Y-94559523D01*
X83319904Y-94559523D01*
X83415142Y-94511904D01*
X83462761Y-94464285D01*
X83510380Y-94369047D01*
X83510380Y-94178571D01*
X83462761Y-94083333D01*
X83415142Y-94035714D01*
X83319904Y-93988095D01*
X83129428Y-93988095D01*
X83034190Y-94035714D01*
X82986571Y-94083333D01*
X82938952Y-94178571D01*
G04 #@! TO.C,C19*
X86209142Y-108795857D02*
X86256761Y-108843476D01*
X86304380Y-108986333D01*
X86304380Y-109081571D01*
X86256761Y-109224428D01*
X86161523Y-109319666D01*
X86066285Y-109367285D01*
X85875809Y-109414904D01*
X85732952Y-109414904D01*
X85542476Y-109367285D01*
X85447238Y-109319666D01*
X85352000Y-109224428D01*
X85304380Y-109081571D01*
X85304380Y-108986333D01*
X85352000Y-108843476D01*
X85399619Y-108795857D01*
X86304380Y-107843476D02*
X86304380Y-108414904D01*
X86304380Y-108129190D02*
X85304380Y-108129190D01*
X85447238Y-108224428D01*
X85542476Y-108319666D01*
X85590095Y-108414904D01*
X86304380Y-107367285D02*
X86304380Y-107176809D01*
X86256761Y-107081571D01*
X86209142Y-107033952D01*
X86066285Y-106938714D01*
X85875809Y-106891095D01*
X85494857Y-106891095D01*
X85399619Y-106938714D01*
X85352000Y-106986333D01*
X85304380Y-107081571D01*
X85304380Y-107272047D01*
X85352000Y-107367285D01*
X85399619Y-107414904D01*
X85494857Y-107462523D01*
X85732952Y-107462523D01*
X85828190Y-107414904D01*
X85875809Y-107367285D01*
X85923428Y-107272047D01*
X85923428Y-107081571D01*
X85875809Y-106986333D01*
X85828190Y-106938714D01*
X85732952Y-106891095D01*
G04 #@! TO.C,C20*
X93575142Y-103766857D02*
X93622761Y-103814476D01*
X93670380Y-103957333D01*
X93670380Y-104052571D01*
X93622761Y-104195428D01*
X93527523Y-104290666D01*
X93432285Y-104338285D01*
X93241809Y-104385904D01*
X93098952Y-104385904D01*
X92908476Y-104338285D01*
X92813238Y-104290666D01*
X92718000Y-104195428D01*
X92670380Y-104052571D01*
X92670380Y-103957333D01*
X92718000Y-103814476D01*
X92765619Y-103766857D01*
X92765619Y-103385904D02*
X92718000Y-103338285D01*
X92670380Y-103243047D01*
X92670380Y-103004952D01*
X92718000Y-102909714D01*
X92765619Y-102862095D01*
X92860857Y-102814476D01*
X92956095Y-102814476D01*
X93098952Y-102862095D01*
X93670380Y-103433523D01*
X93670380Y-102814476D01*
X92670380Y-102195428D02*
X92670380Y-102100190D01*
X92718000Y-102004952D01*
X92765619Y-101957333D01*
X92860857Y-101909714D01*
X93051333Y-101862095D01*
X93289428Y-101862095D01*
X93479904Y-101909714D01*
X93575142Y-101957333D01*
X93622761Y-102004952D01*
X93670380Y-102100190D01*
X93670380Y-102195428D01*
X93622761Y-102290666D01*
X93575142Y-102338285D01*
X93479904Y-102385904D01*
X93289428Y-102433523D01*
X93051333Y-102433523D01*
X92860857Y-102385904D01*
X92765619Y-102338285D01*
X92718000Y-102290666D01*
X92670380Y-102195428D01*
G04 #@! TO.C,C21*
X101195142Y-96908857D02*
X101242761Y-96956476D01*
X101290380Y-97099333D01*
X101290380Y-97194571D01*
X101242761Y-97337428D01*
X101147523Y-97432666D01*
X101052285Y-97480285D01*
X100861809Y-97527904D01*
X100718952Y-97527904D01*
X100528476Y-97480285D01*
X100433238Y-97432666D01*
X100338000Y-97337428D01*
X100290380Y-97194571D01*
X100290380Y-97099333D01*
X100338000Y-96956476D01*
X100385619Y-96908857D01*
X100385619Y-96527904D02*
X100338000Y-96480285D01*
X100290380Y-96385047D01*
X100290380Y-96146952D01*
X100338000Y-96051714D01*
X100385619Y-96004095D01*
X100480857Y-95956476D01*
X100576095Y-95956476D01*
X100718952Y-96004095D01*
X101290380Y-96575523D01*
X101290380Y-95956476D01*
X101290380Y-95004095D02*
X101290380Y-95575523D01*
X101290380Y-95289809D02*
X100290380Y-95289809D01*
X100433238Y-95385047D01*
X100528476Y-95480285D01*
X100576095Y-95575523D01*
G04 #@! TO.C,D1*
X46505904Y-86050380D02*
X46505904Y-85050380D01*
X46744000Y-85050380D01*
X46886857Y-85098000D01*
X46982095Y-85193238D01*
X47029714Y-85288476D01*
X47077333Y-85478952D01*
X47077333Y-85621809D01*
X47029714Y-85812285D01*
X46982095Y-85907523D01*
X46886857Y-86002761D01*
X46744000Y-86050380D01*
X46505904Y-86050380D01*
X48029714Y-86050380D02*
X47458285Y-86050380D01*
X47744000Y-86050380D02*
X47744000Y-85050380D01*
X47648761Y-85193238D01*
X47553523Y-85288476D01*
X47458285Y-85336095D01*
G04 #@! TO.C,D2*
X47442380Y-94972095D02*
X46442380Y-94972095D01*
X46442380Y-94734000D01*
X46490000Y-94591142D01*
X46585238Y-94495904D01*
X46680476Y-94448285D01*
X46870952Y-94400666D01*
X47013809Y-94400666D01*
X47204285Y-94448285D01*
X47299523Y-94495904D01*
X47394761Y-94591142D01*
X47442380Y-94734000D01*
X47442380Y-94972095D01*
X46537619Y-94019714D02*
X46490000Y-93972095D01*
X46442380Y-93876857D01*
X46442380Y-93638761D01*
X46490000Y-93543523D01*
X46537619Y-93495904D01*
X46632857Y-93448285D01*
X46728095Y-93448285D01*
X46870952Y-93495904D01*
X47442380Y-94067333D01*
X47442380Y-93448285D01*
G04 #@! TO.C,D3*
X98575904Y-93670380D02*
X98575904Y-92670380D01*
X98814000Y-92670380D01*
X98956857Y-92718000D01*
X99052095Y-92813238D01*
X99099714Y-92908476D01*
X99147333Y-93098952D01*
X99147333Y-93241809D01*
X99099714Y-93432285D01*
X99052095Y-93527523D01*
X98956857Y-93622761D01*
X98814000Y-93670380D01*
X98575904Y-93670380D01*
X99480666Y-92670380D02*
X100099714Y-92670380D01*
X99766380Y-93051333D01*
X99909238Y-93051333D01*
X100004476Y-93098952D01*
X100052095Y-93146571D01*
X100099714Y-93241809D01*
X100099714Y-93479904D01*
X100052095Y-93575142D01*
X100004476Y-93622761D01*
X99909238Y-93670380D01*
X99623523Y-93670380D01*
X99528285Y-93622761D01*
X99480666Y-93575142D01*
G04 #@! TO.C,D4*
X98497404Y-86558380D02*
X98497404Y-85558380D01*
X98735500Y-85558380D01*
X98878357Y-85606000D01*
X98973595Y-85701238D01*
X99021214Y-85796476D01*
X99068833Y-85986952D01*
X99068833Y-86129809D01*
X99021214Y-86320285D01*
X98973595Y-86415523D01*
X98878357Y-86510761D01*
X98735500Y-86558380D01*
X98497404Y-86558380D01*
X99925976Y-85891714D02*
X99925976Y-86558380D01*
X99687880Y-85510761D02*
X99449785Y-86225047D01*
X100068833Y-86225047D01*
G04 #@! TO.C,D5*
X98575904Y-81986380D02*
X98575904Y-80986380D01*
X98814000Y-80986380D01*
X98956857Y-81034000D01*
X99052095Y-81129238D01*
X99099714Y-81224476D01*
X99147333Y-81414952D01*
X99147333Y-81557809D01*
X99099714Y-81748285D01*
X99052095Y-81843523D01*
X98956857Y-81938761D01*
X98814000Y-81986380D01*
X98575904Y-81986380D01*
X100052095Y-80986380D02*
X99575904Y-80986380D01*
X99528285Y-81462571D01*
X99575904Y-81414952D01*
X99671142Y-81367333D01*
X99909238Y-81367333D01*
X100004476Y-81414952D01*
X100052095Y-81462571D01*
X100099714Y-81557809D01*
X100099714Y-81795904D01*
X100052095Y-81891142D01*
X100004476Y-81938761D01*
X99909238Y-81986380D01*
X99671142Y-81986380D01*
X99575904Y-81938761D01*
X99528285Y-81891142D01*
G04 #@! TO.C,L1*
X94233333Y-95448380D02*
X93757142Y-95448380D01*
X93757142Y-94448380D01*
X95090476Y-95448380D02*
X94519047Y-95448380D01*
X94804761Y-95448380D02*
X94804761Y-94448380D01*
X94709523Y-94591238D01*
X94614285Y-94686476D01*
X94519047Y-94734095D01*
G04 #@! TO.C,R1*
X51506380Y-80176666D02*
X51030190Y-80510000D01*
X51506380Y-80748095D02*
X50506380Y-80748095D01*
X50506380Y-80367142D01*
X50554000Y-80271904D01*
X50601619Y-80224285D01*
X50696857Y-80176666D01*
X50839714Y-80176666D01*
X50934952Y-80224285D01*
X50982571Y-80271904D01*
X51030190Y-80367142D01*
X51030190Y-80748095D01*
X51506380Y-79224285D02*
X51506380Y-79795714D01*
X51506380Y-79510000D02*
X50506380Y-79510000D01*
X50649238Y-79605238D01*
X50744476Y-79700476D01*
X50792095Y-79795714D01*
G04 #@! TO.C,R2*
X49728380Y-80176666D02*
X49252190Y-80510000D01*
X49728380Y-80748095D02*
X48728380Y-80748095D01*
X48728380Y-80367142D01*
X48776000Y-80271904D01*
X48823619Y-80224285D01*
X48918857Y-80176666D01*
X49061714Y-80176666D01*
X49156952Y-80224285D01*
X49204571Y-80271904D01*
X49252190Y-80367142D01*
X49252190Y-80748095D01*
X48823619Y-79795714D02*
X48776000Y-79748095D01*
X48728380Y-79652857D01*
X48728380Y-79414761D01*
X48776000Y-79319523D01*
X48823619Y-79271904D01*
X48918857Y-79224285D01*
X49014095Y-79224285D01*
X49156952Y-79271904D01*
X49728380Y-79843333D01*
X49728380Y-79224285D01*
G04 #@! TO.C,R3*
X65730380Y-71794666D02*
X65254190Y-72128000D01*
X65730380Y-72366095D02*
X64730380Y-72366095D01*
X64730380Y-71985142D01*
X64778000Y-71889904D01*
X64825619Y-71842285D01*
X64920857Y-71794666D01*
X65063714Y-71794666D01*
X65158952Y-71842285D01*
X65206571Y-71889904D01*
X65254190Y-71985142D01*
X65254190Y-72366095D01*
X64730380Y-71461333D02*
X64730380Y-70842285D01*
X65111333Y-71175619D01*
X65111333Y-71032761D01*
X65158952Y-70937523D01*
X65206571Y-70889904D01*
X65301809Y-70842285D01*
X65539904Y-70842285D01*
X65635142Y-70889904D01*
X65682761Y-70937523D01*
X65730380Y-71032761D01*
X65730380Y-71318476D01*
X65682761Y-71413714D01*
X65635142Y-71461333D01*
G04 #@! TO.C,R4*
X61666380Y-111418666D02*
X61190190Y-111752000D01*
X61666380Y-111990095D02*
X60666380Y-111990095D01*
X60666380Y-111609142D01*
X60714000Y-111513904D01*
X60761619Y-111466285D01*
X60856857Y-111418666D01*
X60999714Y-111418666D01*
X61094952Y-111466285D01*
X61142571Y-111513904D01*
X61190190Y-111609142D01*
X61190190Y-111990095D01*
X60999714Y-110561523D02*
X61666380Y-110561523D01*
X60618761Y-110799619D02*
X61333047Y-111037714D01*
X61333047Y-110418666D01*
G04 #@! TO.C,R5*
X61666380Y-71794666D02*
X61190190Y-72128000D01*
X61666380Y-72366095D02*
X60666380Y-72366095D01*
X60666380Y-71985142D01*
X60714000Y-71889904D01*
X60761619Y-71842285D01*
X60856857Y-71794666D01*
X60999714Y-71794666D01*
X61094952Y-71842285D01*
X61142571Y-71889904D01*
X61190190Y-71985142D01*
X61190190Y-72366095D01*
X60666380Y-70889904D02*
X60666380Y-71366095D01*
X61142571Y-71413714D01*
X61094952Y-71366095D01*
X61047333Y-71270857D01*
X61047333Y-71032761D01*
X61094952Y-70937523D01*
X61142571Y-70889904D01*
X61237809Y-70842285D01*
X61475904Y-70842285D01*
X61571142Y-70889904D01*
X61618761Y-70937523D01*
X61666380Y-71032761D01*
X61666380Y-71270857D01*
X61618761Y-71366095D01*
X61571142Y-71413714D01*
G04 #@! TO.C,R6*
X65730380Y-111418666D02*
X65254190Y-111752000D01*
X65730380Y-111990095D02*
X64730380Y-111990095D01*
X64730380Y-111609142D01*
X64778000Y-111513904D01*
X64825619Y-111466285D01*
X64920857Y-111418666D01*
X65063714Y-111418666D01*
X65158952Y-111466285D01*
X65206571Y-111513904D01*
X65254190Y-111609142D01*
X65254190Y-111990095D01*
X64730380Y-110561523D02*
X64730380Y-110752000D01*
X64778000Y-110847238D01*
X64825619Y-110894857D01*
X64968476Y-110990095D01*
X65158952Y-111037714D01*
X65539904Y-111037714D01*
X65635142Y-110990095D01*
X65682761Y-110942476D01*
X65730380Y-110847238D01*
X65730380Y-110656761D01*
X65682761Y-110561523D01*
X65635142Y-110513904D01*
X65539904Y-110466285D01*
X65301809Y-110466285D01*
X65206571Y-110513904D01*
X65158952Y-110561523D01*
X65111333Y-110656761D01*
X65111333Y-110847238D01*
X65158952Y-110942476D01*
X65206571Y-110990095D01*
X65301809Y-111037714D01*
G04 #@! TO.C,R7*
X91019333Y-78938380D02*
X90686000Y-78462190D01*
X90447904Y-78938380D02*
X90447904Y-77938380D01*
X90828857Y-77938380D01*
X90924095Y-77986000D01*
X90971714Y-78033619D01*
X91019333Y-78128857D01*
X91019333Y-78271714D01*
X90971714Y-78366952D01*
X90924095Y-78414571D01*
X90828857Y-78462190D01*
X90447904Y-78462190D01*
X91352666Y-77938380D02*
X92019333Y-77938380D01*
X91590761Y-78938380D01*
G04 #@! TO.C,R8*
X91019333Y-81478380D02*
X90686000Y-81002190D01*
X90447904Y-81478380D02*
X90447904Y-80478380D01*
X90828857Y-80478380D01*
X90924095Y-80526000D01*
X90971714Y-80573619D01*
X91019333Y-80668857D01*
X91019333Y-80811714D01*
X90971714Y-80906952D01*
X90924095Y-80954571D01*
X90828857Y-81002190D01*
X90447904Y-81002190D01*
X91590761Y-80906952D02*
X91495523Y-80859333D01*
X91447904Y-80811714D01*
X91400285Y-80716476D01*
X91400285Y-80668857D01*
X91447904Y-80573619D01*
X91495523Y-80526000D01*
X91590761Y-80478380D01*
X91781238Y-80478380D01*
X91876476Y-80526000D01*
X91924095Y-80573619D01*
X91971714Y-80668857D01*
X91971714Y-80716476D01*
X91924095Y-80811714D01*
X91876476Y-80859333D01*
X91781238Y-80906952D01*
X91590761Y-80906952D01*
X91495523Y-80954571D01*
X91447904Y-81002190D01*
X91400285Y-81097428D01*
X91400285Y-81287904D01*
X91447904Y-81383142D01*
X91495523Y-81430761D01*
X91590761Y-81478380D01*
X91781238Y-81478380D01*
X91876476Y-81430761D01*
X91924095Y-81383142D01*
X91971714Y-81287904D01*
X91971714Y-81097428D01*
X91924095Y-81002190D01*
X91876476Y-80954571D01*
X91781238Y-80906952D01*
G04 #@! TO.C,R9*
X105243333Y-83764380D02*
X104910000Y-83288190D01*
X104671904Y-83764380D02*
X104671904Y-82764380D01*
X105052857Y-82764380D01*
X105148095Y-82812000D01*
X105195714Y-82859619D01*
X105243333Y-82954857D01*
X105243333Y-83097714D01*
X105195714Y-83192952D01*
X105148095Y-83240571D01*
X105052857Y-83288190D01*
X104671904Y-83288190D01*
X105719523Y-83764380D02*
X105910000Y-83764380D01*
X106005238Y-83716761D01*
X106052857Y-83669142D01*
X106148095Y-83526285D01*
X106195714Y-83335809D01*
X106195714Y-82954857D01*
X106148095Y-82859619D01*
X106100476Y-82812000D01*
X106005238Y-82764380D01*
X105814761Y-82764380D01*
X105719523Y-82812000D01*
X105671904Y-82859619D01*
X105624285Y-82954857D01*
X105624285Y-83192952D01*
X105671904Y-83288190D01*
X105719523Y-83335809D01*
X105814761Y-83383428D01*
X106005238Y-83383428D01*
X106100476Y-83335809D01*
X106148095Y-83288190D01*
X106195714Y-83192952D01*
G04 #@! TO.C,R11*
X105275142Y-91892380D02*
X104941809Y-91416190D01*
X104703714Y-91892380D02*
X104703714Y-90892380D01*
X105084666Y-90892380D01*
X105179904Y-90940000D01*
X105227523Y-90987619D01*
X105275142Y-91082857D01*
X105275142Y-91225714D01*
X105227523Y-91320952D01*
X105179904Y-91368571D01*
X105084666Y-91416190D01*
X104703714Y-91416190D01*
X106227523Y-91892380D02*
X105656095Y-91892380D01*
X105941809Y-91892380D02*
X105941809Y-90892380D01*
X105846571Y-91035238D01*
X105751333Y-91130476D01*
X105656095Y-91178095D01*
X107179904Y-91892380D02*
X106608476Y-91892380D01*
X106894190Y-91892380D02*
X106894190Y-90892380D01*
X106798952Y-91035238D01*
X106703714Y-91130476D01*
X106608476Y-91178095D01*
G04 #@! TO.C,R12*
X112466380Y-80144857D02*
X111990190Y-80478190D01*
X112466380Y-80716285D02*
X111466380Y-80716285D01*
X111466380Y-80335333D01*
X111514000Y-80240095D01*
X111561619Y-80192476D01*
X111656857Y-80144857D01*
X111799714Y-80144857D01*
X111894952Y-80192476D01*
X111942571Y-80240095D01*
X111990190Y-80335333D01*
X111990190Y-80716285D01*
X112466380Y-79192476D02*
X112466380Y-79763904D01*
X112466380Y-79478190D02*
X111466380Y-79478190D01*
X111609238Y-79573428D01*
X111704476Y-79668666D01*
X111752095Y-79763904D01*
X111561619Y-78811523D02*
X111514000Y-78763904D01*
X111466380Y-78668666D01*
X111466380Y-78430571D01*
X111514000Y-78335333D01*
X111561619Y-78287714D01*
X111656857Y-78240095D01*
X111752095Y-78240095D01*
X111894952Y-78287714D01*
X112466380Y-78859142D01*
X112466380Y-78240095D01*
G04 #@! TO.C,R13*
X116022380Y-80144857D02*
X115546190Y-80478190D01*
X116022380Y-80716285D02*
X115022380Y-80716285D01*
X115022380Y-80335333D01*
X115070000Y-80240095D01*
X115117619Y-80192476D01*
X115212857Y-80144857D01*
X115355714Y-80144857D01*
X115450952Y-80192476D01*
X115498571Y-80240095D01*
X115546190Y-80335333D01*
X115546190Y-80716285D01*
X116022380Y-79192476D02*
X116022380Y-79763904D01*
X116022380Y-79478190D02*
X115022380Y-79478190D01*
X115165238Y-79573428D01*
X115260476Y-79668666D01*
X115308095Y-79763904D01*
X115022380Y-78859142D02*
X115022380Y-78240095D01*
X115403333Y-78573428D01*
X115403333Y-78430571D01*
X115450952Y-78335333D01*
X115498571Y-78287714D01*
X115593809Y-78240095D01*
X115831904Y-78240095D01*
X115927142Y-78287714D01*
X115974761Y-78335333D01*
X116022380Y-78430571D01*
X116022380Y-78716285D01*
X115974761Y-78811523D01*
X115927142Y-78859142D01*
G04 #@! TO.C,R14*
X97988380Y-103843057D02*
X97512190Y-104176390D01*
X97988380Y-104414485D02*
X96988380Y-104414485D01*
X96988380Y-104033533D01*
X97036000Y-103938295D01*
X97083619Y-103890676D01*
X97178857Y-103843057D01*
X97321714Y-103843057D01*
X97416952Y-103890676D01*
X97464571Y-103938295D01*
X97512190Y-104033533D01*
X97512190Y-104414485D01*
X97988380Y-102890676D02*
X97988380Y-103462104D01*
X97988380Y-103176390D02*
X96988380Y-103176390D01*
X97131238Y-103271628D01*
X97226476Y-103366866D01*
X97274095Y-103462104D01*
X97321714Y-102033533D02*
X97988380Y-102033533D01*
X96940761Y-102271628D02*
X97655047Y-102509723D01*
X97655047Y-101890676D01*
G04 #@! TO.C,R15*
X95956380Y-103843057D02*
X95480190Y-104176390D01*
X95956380Y-104414485D02*
X94956380Y-104414485D01*
X94956380Y-104033533D01*
X95004000Y-103938295D01*
X95051619Y-103890676D01*
X95146857Y-103843057D01*
X95289714Y-103843057D01*
X95384952Y-103890676D01*
X95432571Y-103938295D01*
X95480190Y-104033533D01*
X95480190Y-104414485D01*
X95956380Y-102890676D02*
X95956380Y-103462104D01*
X95956380Y-103176390D02*
X94956380Y-103176390D01*
X95099238Y-103271628D01*
X95194476Y-103366866D01*
X95242095Y-103462104D01*
X94956380Y-101985914D02*
X94956380Y-102462104D01*
X95432571Y-102509723D01*
X95384952Y-102462104D01*
X95337333Y-102366866D01*
X95337333Y-102128771D01*
X95384952Y-102033533D01*
X95432571Y-101985914D01*
X95527809Y-101938295D01*
X95765904Y-101938295D01*
X95861142Y-101985914D01*
X95908761Y-102033533D01*
X95956380Y-102128771D01*
X95956380Y-102366866D01*
X95908761Y-102462104D01*
X95861142Y-102509723D01*
G04 #@! TO.C,U1*
X107852380Y-93261904D02*
X108661904Y-93261904D01*
X108757142Y-93214285D01*
X108804761Y-93166666D01*
X108852380Y-93071428D01*
X108852380Y-92880952D01*
X108804761Y-92785714D01*
X108757142Y-92738095D01*
X108661904Y-92690476D01*
X107852380Y-92690476D01*
X108852380Y-91690476D02*
X108852380Y-92261904D01*
X108852380Y-91976190D02*
X107852380Y-91976190D01*
X107995238Y-92071428D01*
X108090476Y-92166666D01*
X108138095Y-92261904D01*
G04 #@! TO.C,U2*
X62484095Y-82510380D02*
X62484095Y-83319904D01*
X62531714Y-83415142D01*
X62579333Y-83462761D01*
X62674571Y-83510380D01*
X62865047Y-83510380D01*
X62960285Y-83462761D01*
X63007904Y-83415142D01*
X63055523Y-83319904D01*
X63055523Y-82510380D01*
X63484095Y-82605619D02*
X63531714Y-82558000D01*
X63626952Y-82510380D01*
X63865047Y-82510380D01*
X63960285Y-82558000D01*
X64007904Y-82605619D01*
X64055523Y-82700857D01*
X64055523Y-82796095D01*
X64007904Y-82938952D01*
X63436476Y-83510380D01*
X64055523Y-83510380D01*
G04 #@! TO.C,U3*
X88712095Y-101521380D02*
X88712095Y-102330904D01*
X88759714Y-102426142D01*
X88807333Y-102473761D01*
X88902571Y-102521380D01*
X89093047Y-102521380D01*
X89188285Y-102473761D01*
X89235904Y-102426142D01*
X89283523Y-102330904D01*
X89283523Y-101521380D01*
X89664476Y-101521380D02*
X90283523Y-101521380D01*
X89950190Y-101902333D01*
X90093047Y-101902333D01*
X90188285Y-101949952D01*
X90235904Y-101997571D01*
X90283523Y-102092809D01*
X90283523Y-102330904D01*
X90235904Y-102426142D01*
X90188285Y-102473761D01*
X90093047Y-102521380D01*
X89807333Y-102521380D01*
X89712095Y-102473761D01*
X89664476Y-102426142D01*
G04 #@! TO.C,U4*
X101854095Y-100224380D02*
X101854095Y-101033904D01*
X101901714Y-101129142D01*
X101949333Y-101176761D01*
X102044571Y-101224380D01*
X102235047Y-101224380D01*
X102330285Y-101176761D01*
X102377904Y-101129142D01*
X102425523Y-101033904D01*
X102425523Y-100224380D01*
X103330285Y-100557714D02*
X103330285Y-101224380D01*
X103092190Y-100176761D02*
X102854095Y-100891047D01*
X103473142Y-100891047D01*
G04 #@! TO.C,R0*
X88082380Y-95915666D02*
X87606190Y-96249000D01*
X88082380Y-96487095D02*
X87082380Y-96487095D01*
X87082380Y-96106142D01*
X87130000Y-96010904D01*
X87177619Y-95963285D01*
X87272857Y-95915666D01*
X87415714Y-95915666D01*
X87510952Y-95963285D01*
X87558571Y-96010904D01*
X87606190Y-96106142D01*
X87606190Y-96487095D01*
X87082380Y-95296619D02*
X87082380Y-95201380D01*
X87130000Y-95106142D01*
X87177619Y-95058523D01*
X87272857Y-95010904D01*
X87463333Y-94963285D01*
X87701428Y-94963285D01*
X87891904Y-95010904D01*
X87987142Y-95058523D01*
X88034761Y-95106142D01*
X88082380Y-95201380D01*
X88082380Y-95296619D01*
X88034761Y-95391857D01*
X87987142Y-95439476D01*
X87891904Y-95487095D01*
X87701428Y-95534714D01*
X87463333Y-95534714D01*
X87272857Y-95487095D01*
X87177619Y-95439476D01*
X87130000Y-95391857D01*
X87082380Y-95296619D01*
G04 #@! TD*
M02*
