<?xml version="1.0" encoding="UTF-8" standalone="no"?>
<svg
   xmlns:dc="http://purl.org/dc/elements/1.1/"
   xmlns:cc="http://creativecommons.org/ns#"
   xmlns:rdf="http://www.w3.org/1999/02/22-rdf-syntax-ns#"
   xmlns:svg="http://www.w3.org/2000/svg"
   xmlns="http://www.w3.org/2000/svg"
   version="1.1"
   id="svg5401"
   viewBox="0 0 24.000001 24.000001"
   height="24"
   width="24">
  <defs
     id="defs5403" />
  <metadata
     id="metadata5406">
    <rdf:RDF>
      <cc:Work
         rdf:about="">
        <dc:format>image/svg+xml</dc:format>
        <dc:type
           rdf:resource="http://purl.org/dc/dcmitype/StillImage" />
        <dc:title></dc:title>
      </cc:Work>
    </rdf:RDF>
  </metadata>
  <g
     transform="translate(0,-146.07875)"
     id="layer6">
    <g
       transform="matrix(0.53877499,0,0,0.53877499,-33.097566,105.64854)"
       id="text5953"
       style="font-style:normal;font-weight:normal;font-size:86.4123764px;line-height:125%;font-family:sans-serif;letter-spacing:0px;word-spacing:0px;display:inline;fill:#000000;fill-opacity:1;stroke:none;stroke-width:2.19588733;stroke-linecap:butt;stroke-linejoin:miter;stroke-opacity:1">
      <path
         id="path6001"
         d="m 96.019633,78.519995 c 0,0 0,3.217602 0,3.217602 -1.361715,0.95202 -2.626169,1.632897 -3.793355,2.042631 -1.154219,0.409732 -2.360313,0.614597 -3.618283,0.614597 -1.426561,0 -3.086562,-0.355502 -4.979999,-1.066507 -0.142656,-0.0482 -0.246406,-0.08436 -0.311249,-0.108458 -0.09079,-0.03615 -0.233439,-0.08436 -0.427969,-0.144612 -2.010156,-0.747157 -3.624765,-1.120735 -4.843829,-1.120735 -1.14125,0 -2.269531,0.234992 -3.384843,0.704979 -1.115313,0.457934 -2.308438,1.187014 -3.579376,2.187239 0,0 0,-3.217596 0,-3.217596 1.36172,-0.952024 2.619688,-1.632901 3.773907,-2.042633 1.167187,-0.42178 2.379766,-0.632671 3.637734,-0.632671 1.426563,0 3.093048,0.361527 4.999454,1.084582 0.129687,0.0482 0.226952,0.08436 0.291797,0.108458 0.103749,0.03615 0.246405,0.08436 0.427968,0.144612 2.010156,0.747158 3.624766,1.120736 4.843829,1.120736 1.115312,0 2.217655,-0.228967 3.307031,-0.6869 1.102344,-0.457938 2.321406,-1.193046 3.657183,-2.205324 0,0 0,0 0,0" />
    </g>
  </g>
  <g
     transform="translate(0,-146.07875)"
     id="layer1"
     style="display:inline">
    <g
       transform="matrix(0.1544192,0,0,0.1544192,-1.3083207,145.10543)"
       id="text5949"
       style="font-style:normal;font-weight:normal;font-size:81.9588089px;line-height:125%;font-family:sans-serif;letter-spacing:0px;word-spacing:0px;fill:#000000;fill-opacity:1;stroke:none;stroke-width:2.19769311;stroke-linecap:butt;stroke-linejoin:miter;stroke-opacity:1">
      <path
         id="path6007"
         d="m 87.346925,73.434988 c 0,0 -17.814021,44.007842 -17.814021,44.007842 0,0 35.693056,0 35.693056,0 0,0 -17.879035,-44.007842 -17.879035,-44.007842 0,0 0,0 0,0 M 79.935252,61.648233 c 0,0 14.88836,0 14.88836,0 0,0 36.993348,88.430287 36.993348,88.430287 0,0 -13.65308,0 -13.65308,0 0,0 -8.842,-22.68505 -8.842,-22.68505 0,0 -43.754869,0 -43.754869,0 0,0 -8.841996,22.68505 -8.841996,22.68505 0,0 -13.848124,0 -13.848124,0 0,0 37.058361,-88.430287 37.058361,-88.430287 0,0 0,0 0,0" />
    </g>
  </g>
  <g
     transform="translate(0,-146.07875)"
     id="layer5"
     style="display:inline">
    <g
       transform="matrix(0.1544192,0,0,0.1544192,-1.3083207,145.10543)"
       id="text5949-4"
       style="font-style:normal;font-weight:normal;font-size:81.9588089px;line-height:125%;font-family:sans-serif;letter-spacing:0px;word-spacing:0px;fill:#000000;fill-opacity:1;stroke:none;stroke-width:2.19769311;stroke-linecap:butt;stroke-linejoin:miter;stroke-opacity:1">
      <path
         id="path6004"
         d="m 79.935252,150.07848 c 0,0 -37.058361,-88.430287 -37.058361,-88.430287 0,0 13.718094,0 13.718094,0 0,0 30.75194,74.452027 30.75194,74.452027 0,0 30.816955,-74.452027 30.816955,-74.452027 0,0 13.65308,0 13.65308,0 0,0 -36.993348,88.430287 -36.993348,88.430287 0,0 -14.88836,0 -14.88836,0 0,0 0,0 0,0" />
    </g>
  </g>
</svg>
