M48
;DRILL file {KiCad 5.0.2-bee76a0~70~ubuntu16.04.1} date Tue 05 Feb 2019 05:23:47 PM PST
;FORMAT={-:-/ absolute / inch / decimal}
FMAT,2
INCH,TZ
T1C0.0157
T2C0.0394
T3C0.0472
T4C0.0512
%
G90
G05
T1
X1.3775Y-3.3375
X1.3775Y-3.535
X1.38Y-3.73
X1.3825Y-2.8825
X1.39Y-2.67
X1.395Y-3.985
X1.395Y-4.095
X1.395Y-4.21
X1.395Y-4.335
X1.395Y-4.425
X1.455Y-2.735
X1.475Y-4.04
X1.475Y-4.15
X1.475Y-4.265
X1.475Y-4.39
X1.535Y-2.675
X1.55Y-3.985
X1.55Y-4.095
X1.55Y-4.21
X1.55Y-4.335
X1.5825Y-2.9575
X1.585Y-2.75
X1.6Y-2.605
X1.6025Y-3.0975
X1.61Y-4.405
X1.625Y-4.545
X1.635Y-2.83
X1.635Y-3.01
X1.64Y-4.28
X1.65Y-2.54
X1.65Y-2.67
X1.68Y-4.48
X1.6875Y-3.0525
X1.7Y-2.75
X1.7Y-3.985
X1.705Y-2.605
X1.7075Y-2.955
X1.73Y-4.545
X1.74Y-2.83
X1.76Y-2.54
X1.76Y-2.67
X1.76Y-3.0875
X1.7675Y-2.995
X1.7825Y-3.995
X1.785Y-4.48
X1.81Y-2.745
X1.8125Y-4.0575
X1.814Y-3.535
X1.815Y-2.605
X1.8375Y-3.0375
X1.84Y-4.545
X1.8425Y-2.9425
X1.86Y-2.825
X1.86Y-4.005
X1.865Y-2.54
X1.8675Y-4.28
X1.87Y-2.675
X1.87Y-4.4
X1.886Y-3.535
X1.895Y-4.48
X1.8975Y-4.06
X1.9125Y-2.98
X1.92Y-2.605
X1.92Y-2.745
X1.92Y-3.0525
X1.92Y-3.985
X1.945Y-4.545
X1.955Y-2.82
X1.97Y-2.675
X1.975Y-2.54
X1.98Y-2.935
X2.Y-4.48
X2.005Y-3.0175
X2.0275Y-4.02
X2.03Y-2.605
X2.03Y-2.745
X2.03Y-4.3375
X2.04Y-4.19
X2.0425Y-4.1175
X2.055Y-4.545
X2.06Y-2.9725
X2.075Y-2.675
X2.0775Y-3.0425
X2.0775Y-4.0625
X2.08Y-2.54
X2.11Y-4.48
X2.135Y-2.605
X2.135Y-4.035
X2.15Y-3.5775
X2.1525Y-3.0325
X2.16Y-4.545
X2.1775Y-3.3875
X2.19Y-2.54
X2.19Y-3.555
X2.1925Y-3.7225
X2.215Y-4.48
X2.225Y-3.69
X2.225Y-3.4031
X2.245Y-2.605
X2.27Y-4.545
X2.2725Y-4.2825
X2.285Y-2.785
X2.295Y-2.54
X2.2975Y-4.2525
X2.3125Y-2.815
X2.325Y-4.2825
X2.325Y-4.48
X2.3375Y-2.785
X2.35Y-2.605
X2.35Y-4.2525
X2.365Y-2.815
X2.375Y-4.545
X2.3775Y-4.2825
X2.39Y-2.785
X2.4Y-3.4725
X2.4Y-3.535
X2.4Y-3.595
X2.4025Y-4.2525
X2.405Y-2.54
X2.415Y-3.33
X2.415Y-3.405
X2.415Y-3.665
X2.415Y-3.74
X2.4175Y-2.815
X2.43Y-4.2825
X2.43Y-4.48
X2.435Y-3.365
X2.435Y-3.705
X2.44Y-3.505
X2.44Y-3.57
X2.4425Y-2.785
X2.455Y-4.2525
X2.46Y-2.605
X2.46Y-3.33
X2.46Y-3.405
X2.46Y-3.665
X2.46Y-3.74
X2.47Y-2.815
X2.4825Y-4.2825
X2.485Y-4.545
X2.49Y-3.4725
X2.49Y-3.535
X2.49Y-3.595
X2.495Y-2.785
X2.5075Y-4.2525
X2.51Y-2.54
X2.52Y-3.33
X2.52Y-3.405
X2.52Y-3.665
X2.52Y-3.74
X2.5225Y-2.815
X2.535Y-3.505
X2.535Y-3.57
X2.535Y-4.2825
X2.54Y-4.48
X2.545Y-3.365
X2.545Y-3.705
X2.5475Y-2.785
X2.56Y-4.2525
X2.565Y-2.605
X2.565Y-3.33
X2.565Y-3.405
X2.565Y-3.665
X2.565Y-3.74
X2.575Y-2.815
X2.575Y-3.1075
X2.575Y-3.4725
X2.575Y-3.535
X2.575Y-3.5925
X2.575Y-3.97
X2.5875Y-4.2825
X2.59Y-4.545
X2.6Y-2.785
X2.6025Y-3.9425
X2.605Y-3.1375
X2.6125Y-4.2525
X2.62Y-2.54
X2.6275Y-2.815
X2.64Y-4.2825
X2.645Y-4.48
X2.6525Y-2.785
X2.665Y-4.2525
X2.675Y-2.605
X2.68Y-2.815
X2.6925Y-4.2825
X2.6975Y-3.1475
X2.7Y-4.545
X2.705Y-2.785
X2.705Y-3.92
X2.725Y-2.54
X2.73Y-3.975
X2.7375Y-3.09
X2.75Y-3.3775
X2.75Y-3.69
X2.755Y-4.48
X2.765Y-3.8625
X2.7675Y-3.1675
X2.7675Y-4.055
X2.77Y-3.025
X2.77Y-3.4125
X2.77Y-3.655
X2.77Y-4.1725
X2.78Y-2.605
X2.7875Y-2.8425
X2.7875Y-2.9275
X2.7875Y-3.925
X2.79Y-3.995
X2.79Y-4.1125
X2.795Y-4.23
X2.7975Y-3.2275
X2.805Y-4.545
X2.8075Y-3.1075
X2.8125Y-3.4125
X2.8125Y-3.655
X2.8275Y-3.805
X2.835Y-2.54
X2.835Y-3.04
X2.8375Y-3.275
X2.8375Y-3.86
X2.8425Y-2.8575
X2.8425Y-4.0525
X2.845Y-3.1675
X2.85Y-4.26
X2.855Y-3.98
X2.86Y-4.48
X2.8625Y-3.915
X2.865Y-2.71
X2.8675Y-2.8
X2.885Y-3.0975
X2.885Y-3.225
X2.89Y-2.605
X2.89Y-4.0825
X2.91Y-3.0275
X2.91Y-4.0225
X2.91Y-4.545
X2.9125Y-4.26
X2.915Y-4.405
X2.9175Y-3.1625
X2.9175Y-3.9375
X2.9225Y-2.845
X2.94Y-2.54
X2.94Y-2.675
X2.96Y-4.475
X2.995Y-2.605
X3.005Y-3.95
X3.005Y-4.07
X3.005Y-4.28
X3.02Y-3.215
X3.02Y-4.525
X3.025Y-2.695
X3.025Y-3.015
X3.025Y-3.11
X3.025Y-4.405
X3.04Y-2.775
X3.04Y-4.01
X3.0525Y-3.5025
X3.0625Y-4.2425
X3.075Y-2.84
X3.0775Y-3.95
X3.08Y-4.0725
X3.08Y-4.3375
X3.085Y-3.055
X3.085Y-3.16
X3.095Y-2.6825
X3.0975Y-3.745
X3.1025Y-4.45
X3.115Y-4.01
X3.1225Y-4.3375
X3.125Y-2.785
X3.125Y-4.2775
X3.135Y-2.995
X3.145Y-2.885
X3.145Y-3.105
X3.15Y-2.6175
X3.15Y-4.0725
X3.1525Y-3.95
X3.1775Y-4.23
X3.185Y-4.51
X3.1875Y-4.385
X3.1925Y-4.1425
X3.2Y-3.1575
X3.2025Y-3.045
X3.205Y-2.7425
X3.205Y-2.8275
X3.205Y-2.94
X3.205Y-4.2975
X3.215Y-3.7375
X3.2215Y-3.4345
X3.222Y-3.5282
X3.2425Y-4.4475
X3.255Y-2.6625
X3.255Y-3.1975
X3.265Y-3.0875
X3.2675Y-2.99
X3.2925Y-3.6575
X3.3025Y-4.515
X3.315Y-3.75
X3.3225Y-4.0075
X3.325Y-3.125
X3.335Y-3.025
X3.3375Y-3.535
X3.34Y-4.2
X3.35Y-4.4425
X3.355Y-4.375
X3.3575Y-3.605
X3.36Y-2.745
X3.3675Y-3.695
X3.38Y-4.2
X3.41Y-3.7525
X3.42Y-4.2
X3.4225Y-3.4575
X3.4225Y-3.5375
X3.4225Y-3.6425
X3.43Y-3.135
X3.44Y-4.11
X3.4575Y-4.375
X3.4625Y-3.824
X3.4625Y-3.9025
X3.4625Y-3.99
X3.485Y-2.7425
X3.49Y-2.9825
X3.4925Y-3.5875
X3.4975Y-3.3875
X3.4979Y-3.1703
X3.5Y-3.5025
X3.535Y-3.7925
X3.54Y-3.3175
X3.5425Y-3.1075
X3.5475Y-4.21
X3.58Y-3.1675
X3.58Y-3.2825
X3.61Y-3.1325
X3.61Y-3.3125
X3.6125Y-3.725
X3.625Y-2.88
X3.6701Y-3.675
X3.695Y-4.21
X3.7075Y-3.6925
X3.7125Y-3.8825
X3.7375Y-3.7224
X3.755Y-2.7175
X3.775Y-3.155
X3.775Y-3.2225
X3.775Y-3.285
X3.8025Y-2.885
X3.8025Y-3.595
X3.815Y-3.9925
X3.8229Y-3.6593
X3.8325Y-2.6525
X3.8325Y-2.715
X3.8325Y-4.4975
X3.84Y-3.155
X3.84Y-3.22
X3.84Y-3.285
X3.86Y-3.6725
X3.89Y-3.7025
X3.8975Y-2.885
X3.905Y-3.155
X3.905Y-3.22
X3.905Y-3.285
X3.95Y-2.7625
X3.9625Y-3.75
X3.9975Y-2.47
X4.01Y-2.565
X4.05Y-3.6025
X4.055Y-4.3775
X4.0575Y-4.5025
X4.065Y-2.515
X4.0825Y-2.6
X4.1075Y-4.6025
X4.1175Y-4.4275
X4.12Y-3.8175
X4.1225Y-3.9225
X4.1225Y-4.0275
X4.1275Y-2.4675
X4.1325Y-3.7425
X4.14Y-2.6775
X4.1625Y-4.3525
X4.24Y-2.7
X4.255Y-4.3675
X4.3325Y-4.1925
X4.3325Y-4.2925
X4.3325Y-4.3925
X4.335Y-3.6725
X4.335Y-4.0725
X4.3375Y-2.68
X4.3375Y-3.77
X4.3375Y-3.8625
X4.3375Y-3.9775
T2
X3.1Y-4.6
X3.2Y-4.6
X3.3Y-4.6
X3.4Y-4.6
X3.5Y-4.6
X3.6Y-4.6
X3.7Y-4.6
X3.8Y-4.6
X3.9Y-4.6
X4.Y-4.6
X3.1Y-3.655
X3.2Y-3.655
X3.1Y-2.485
X3.2Y-2.485
X3.3Y-2.485
X3.4Y-2.485
X3.5Y-2.485
X3.6Y-2.485
X3.7Y-2.485
X3.8Y-2.485
X3.9Y-2.485
T3
X2.895Y-4.155
X3.0919Y-4.155
X2.9025Y-2.9275
X3.0994Y-2.9275
T4
X1.49Y-2.845
X1.49Y-3.0419
X1.49Y-3.2387
X1.49Y-3.4356
X1.49Y-3.6324
X1.49Y-3.8293
T2
X1.6375Y-4.1306G85X1.6375Y-4.2094
G05
X1.7162Y-4.355G85X1.795Y-4.355
G05
X1.8737Y-4.1306G85X1.8737Y-4.2094
G05
T0
M30
