G04 #@! TF.GenerationSoftware,KiCad,Pcbnew,5.0.2-bee76a0~70~ubuntu16.04.1*
G04 #@! TF.CreationDate,2019-02-06T16:20:36-08:00*
G04 #@! TF.ProjectId,wifistepper,77696669-7374-4657-9070-65722e6b6963,rev?*
G04 #@! TF.SameCoordinates,Original*
G04 #@! TF.FileFunction,Legend,Bot*
G04 #@! TF.FilePolarity,Positive*
%FSLAX46Y46*%
G04 Gerber Fmt 4.6, Leading zero omitted, Abs format (unit mm)*
G04 Created by KiCad (PCBNEW 5.0.2-bee76a0~70~ubuntu16.04.1) date Wed 06 Feb 2019 04:20:36 PM PST*
%MOMM*%
%LPD*%
G01*
G04 APERTURE LIST*
%ADD10C,0.200000*%
%ADD11C,0.225000*%
%ADD12C,0.010000*%
G04 APERTURE END LIST*
D10*
X75124571Y-91194142D02*
X76624571Y-91694142D01*
X75124571Y-92194142D01*
X76624571Y-92694142D02*
X75124571Y-92694142D01*
X76624571Y-93408428D02*
X75124571Y-93408428D01*
X76624571Y-94265571D01*
X75124571Y-94265571D01*
X83387500Y-91694142D02*
X83316071Y-91551285D01*
X83316071Y-91337000D01*
X83387500Y-91122714D01*
X83530357Y-90979857D01*
X83673214Y-90908428D01*
X83958928Y-90837000D01*
X84173214Y-90837000D01*
X84458928Y-90908428D01*
X84601785Y-90979857D01*
X84744642Y-91122714D01*
X84816071Y-91337000D01*
X84816071Y-91479857D01*
X84744642Y-91694142D01*
X84673214Y-91765571D01*
X84173214Y-91765571D01*
X84173214Y-91479857D01*
X84816071Y-92408428D02*
X83316071Y-92408428D01*
X84816071Y-93265571D01*
X83316071Y-93265571D01*
X84816071Y-93979857D02*
X83316071Y-93979857D01*
X83316071Y-94337000D01*
X83387500Y-94551285D01*
X83530357Y-94694142D01*
X83673214Y-94765571D01*
X83958928Y-94837000D01*
X84173214Y-94837000D01*
X84458928Y-94765571D01*
X84601785Y-94694142D01*
X84744642Y-94551285D01*
X84816071Y-94337000D01*
X84816071Y-93979857D01*
X78085690Y-111193928D02*
X78085690Y-112122500D01*
X78676166Y-111622500D01*
X78676166Y-111836785D01*
X78749976Y-111979642D01*
X78823785Y-112051071D01*
X78971404Y-112122500D01*
X79340452Y-112122500D01*
X79488071Y-112051071D01*
X79561880Y-111979642D01*
X79635690Y-111836785D01*
X79635690Y-111408214D01*
X79561880Y-111265357D01*
X79488071Y-111193928D01*
X78085690Y-112551071D02*
X79635690Y-113051071D01*
X78085690Y-113551071D01*
X78085690Y-113908214D02*
X78085690Y-114836785D01*
X78676166Y-114336785D01*
X78676166Y-114551071D01*
X78749976Y-114693928D01*
X78823785Y-114765357D01*
X78971404Y-114836785D01*
X79340452Y-114836785D01*
X79488071Y-114765357D01*
X79561880Y-114693928D01*
X79635690Y-114551071D01*
X79635690Y-114122500D01*
X79561880Y-113979642D01*
X79488071Y-113908214D01*
X80684500Y-111693928D02*
X80610690Y-111551071D01*
X80610690Y-111336785D01*
X80684500Y-111122500D01*
X80832119Y-110979642D01*
X80979738Y-110908214D01*
X81274976Y-110836785D01*
X81496404Y-110836785D01*
X81791642Y-110908214D01*
X81939261Y-110979642D01*
X82086880Y-111122500D01*
X82160690Y-111336785D01*
X82160690Y-111479642D01*
X82086880Y-111693928D01*
X82013071Y-111765357D01*
X81496404Y-111765357D01*
X81496404Y-111479642D01*
X82160690Y-112408214D02*
X80610690Y-112408214D01*
X82160690Y-113265357D01*
X80610690Y-113265357D01*
X82160690Y-113979642D02*
X80610690Y-113979642D01*
X80610690Y-114336785D01*
X80684500Y-114551071D01*
X80832119Y-114693928D01*
X80979738Y-114765357D01*
X81274976Y-114836785D01*
X81496404Y-114836785D01*
X81791642Y-114765357D01*
X81939261Y-114693928D01*
X82086880Y-114551071D01*
X82160690Y-114336785D01*
X82160690Y-113979642D01*
X84611880Y-111193928D02*
X84685690Y-111408214D01*
X84685690Y-111765357D01*
X84611880Y-111908214D01*
X84538071Y-111979642D01*
X84390452Y-112051071D01*
X84242833Y-112051071D01*
X84095214Y-111979642D01*
X84021404Y-111908214D01*
X83947595Y-111765357D01*
X83873785Y-111479642D01*
X83799976Y-111336785D01*
X83726166Y-111265357D01*
X83578547Y-111193928D01*
X83430928Y-111193928D01*
X83283309Y-111265357D01*
X83209500Y-111336785D01*
X83135690Y-111479642D01*
X83135690Y-111836785D01*
X83209500Y-112051071D01*
X84685690Y-112693928D02*
X83135690Y-112693928D01*
X83135690Y-113051071D01*
X83209500Y-113265357D01*
X83357119Y-113408214D01*
X83504738Y-113479642D01*
X83799976Y-113551071D01*
X84021404Y-113551071D01*
X84316642Y-113479642D01*
X84464261Y-113408214D01*
X84611880Y-113265357D01*
X84685690Y-113051071D01*
X84685690Y-112693928D01*
X84242833Y-114122500D02*
X84242833Y-114836785D01*
X84685690Y-113979642D02*
X83135690Y-114479642D01*
X84685690Y-114979642D01*
X87136880Y-110979642D02*
X87210690Y-111193928D01*
X87210690Y-111551071D01*
X87136880Y-111693928D01*
X87063071Y-111765357D01*
X86915452Y-111836785D01*
X86767833Y-111836785D01*
X86620214Y-111765357D01*
X86546404Y-111693928D01*
X86472595Y-111551071D01*
X86398785Y-111265357D01*
X86324976Y-111122500D01*
X86251166Y-111051071D01*
X86103547Y-110979642D01*
X85955928Y-110979642D01*
X85808309Y-111051071D01*
X85734500Y-111122500D01*
X85660690Y-111265357D01*
X85660690Y-111622500D01*
X85734500Y-111836785D01*
X87063071Y-113336785D02*
X87136880Y-113265357D01*
X87210690Y-113051071D01*
X87210690Y-112908214D01*
X87136880Y-112693928D01*
X86989261Y-112551071D01*
X86841642Y-112479642D01*
X86546404Y-112408214D01*
X86324976Y-112408214D01*
X86029738Y-112479642D01*
X85882119Y-112551071D01*
X85734500Y-112693928D01*
X85660690Y-112908214D01*
X85660690Y-113051071D01*
X85734500Y-113265357D01*
X85808309Y-113336785D01*
X87210690Y-113979642D02*
X85660690Y-113979642D01*
X87210690Y-114836785D02*
X86324976Y-114193928D01*
X85660690Y-114836785D02*
X86546404Y-113979642D01*
X89735690Y-112265357D02*
X88997595Y-111765357D01*
X89735690Y-111408214D02*
X88185690Y-111408214D01*
X88185690Y-111979642D01*
X88259500Y-112122500D01*
X88333309Y-112193928D01*
X88480928Y-112265357D01*
X88702357Y-112265357D01*
X88849976Y-112193928D01*
X88923785Y-112122500D01*
X88997595Y-111979642D01*
X88997595Y-111408214D01*
X89661880Y-112836785D02*
X89735690Y-113051071D01*
X89735690Y-113408214D01*
X89661880Y-113551071D01*
X89588071Y-113622500D01*
X89440452Y-113693928D01*
X89292833Y-113693928D01*
X89145214Y-113622500D01*
X89071404Y-113551071D01*
X88997595Y-113408214D01*
X88923785Y-113122500D01*
X88849976Y-112979642D01*
X88776166Y-112908214D01*
X88628547Y-112836785D01*
X88480928Y-112836785D01*
X88333309Y-112908214D01*
X88259500Y-112979642D01*
X88185690Y-113122500D01*
X88185690Y-113479642D01*
X88259500Y-113693928D01*
X88185690Y-114122500D02*
X88185690Y-114979642D01*
X89735690Y-114551071D02*
X88185690Y-114551071D01*
X91817833Y-111122500D02*
X91817833Y-111836785D01*
X92260690Y-110979642D02*
X90710690Y-111479642D01*
X92260690Y-111979642D01*
X92260690Y-112479642D02*
X90710690Y-112479642D01*
X90710690Y-112836785D01*
X90784500Y-113051071D01*
X90932119Y-113193928D01*
X91079738Y-113265357D01*
X91374976Y-113336785D01*
X91596404Y-113336785D01*
X91891642Y-113265357D01*
X92039261Y-113193928D01*
X92186880Y-113051071D01*
X92260690Y-112836785D01*
X92260690Y-112479642D01*
X92113071Y-114836785D02*
X92186880Y-114765357D01*
X92260690Y-114551071D01*
X92260690Y-114408214D01*
X92186880Y-114193928D01*
X92039261Y-114051071D01*
X91891642Y-113979642D01*
X91596404Y-113908214D01*
X91374976Y-113908214D01*
X91079738Y-113979642D01*
X90932119Y-114051071D01*
X90784500Y-114193928D01*
X90710690Y-114408214D01*
X90710690Y-114551071D01*
X90784500Y-114765357D01*
X90858309Y-114836785D01*
X93309500Y-110979642D02*
X93235690Y-110836785D01*
X93235690Y-110622500D01*
X93309500Y-110408214D01*
X93457119Y-110265357D01*
X93604738Y-110193928D01*
X93899976Y-110122500D01*
X94121404Y-110122500D01*
X94416642Y-110193928D01*
X94564261Y-110265357D01*
X94711880Y-110408214D01*
X94785690Y-110622500D01*
X94785690Y-110765357D01*
X94711880Y-110979642D01*
X94638071Y-111051071D01*
X94121404Y-111051071D01*
X94121404Y-110765357D01*
X94785690Y-111693928D02*
X93235690Y-111693928D01*
X93235690Y-112265357D01*
X93309500Y-112408214D01*
X93383309Y-112479642D01*
X93530928Y-112551071D01*
X93752357Y-112551071D01*
X93899976Y-112479642D01*
X93973785Y-112408214D01*
X94047595Y-112265357D01*
X94047595Y-111693928D01*
X94785690Y-113193928D02*
X93235690Y-113193928D01*
X93235690Y-114193928D02*
X93235690Y-114479642D01*
X93309500Y-114622500D01*
X93457119Y-114765357D01*
X93752357Y-114836785D01*
X94269023Y-114836785D01*
X94564261Y-114765357D01*
X94711880Y-114622500D01*
X94785690Y-114479642D01*
X94785690Y-114193928D01*
X94711880Y-114051071D01*
X94564261Y-113908214D01*
X94269023Y-113836785D01*
X93752357Y-113836785D01*
X93457119Y-113908214D01*
X93309500Y-114051071D01*
X93235690Y-114193928D01*
X96498785Y-110193928D02*
X96572595Y-110408214D01*
X96646404Y-110479642D01*
X96794023Y-110551071D01*
X97015452Y-110551071D01*
X97163071Y-110479642D01*
X97236880Y-110408214D01*
X97310690Y-110265357D01*
X97310690Y-109693928D01*
X95760690Y-109693928D01*
X95760690Y-110193928D01*
X95834500Y-110336785D01*
X95908309Y-110408214D01*
X96055928Y-110479642D01*
X96203547Y-110479642D01*
X96351166Y-110408214D01*
X96424976Y-110336785D01*
X96498785Y-110193928D01*
X96498785Y-109693928D01*
X95760690Y-111479642D02*
X95760690Y-111765357D01*
X95834500Y-111908214D01*
X95982119Y-112051071D01*
X96277357Y-112122500D01*
X96794023Y-112122500D01*
X97089261Y-112051071D01*
X97236880Y-111908214D01*
X97310690Y-111765357D01*
X97310690Y-111479642D01*
X97236880Y-111336785D01*
X97089261Y-111193928D01*
X96794023Y-111122500D01*
X96277357Y-111122500D01*
X95982119Y-111193928D01*
X95834500Y-111336785D01*
X95760690Y-111479642D01*
X95760690Y-113051071D02*
X95760690Y-113336785D01*
X95834500Y-113479642D01*
X95982119Y-113622500D01*
X96277357Y-113693928D01*
X96794023Y-113693928D01*
X97089261Y-113622500D01*
X97236880Y-113479642D01*
X97310690Y-113336785D01*
X97310690Y-113051071D01*
X97236880Y-112908214D01*
X97089261Y-112765357D01*
X96794023Y-112693928D01*
X96277357Y-112693928D01*
X95982119Y-112765357D01*
X95834500Y-112908214D01*
X95760690Y-113051071D01*
X95760690Y-114122500D02*
X95760690Y-114979642D01*
X97310690Y-114551071D02*
X95760690Y-114551071D01*
X99835690Y-113408214D02*
X99097595Y-112908214D01*
X99835690Y-112551071D02*
X98285690Y-112551071D01*
X98285690Y-113122500D01*
X98359500Y-113265357D01*
X98433309Y-113336785D01*
X98580928Y-113408214D01*
X98802357Y-113408214D01*
X98949976Y-113336785D01*
X99023785Y-113265357D01*
X99097595Y-113122500D01*
X99097595Y-112551071D01*
X98285690Y-113908214D02*
X99835690Y-114908214D01*
X98285690Y-114908214D02*
X99835690Y-113908214D01*
X100810690Y-112693928D02*
X100810690Y-113551071D01*
X102360690Y-113122500D02*
X100810690Y-113122500D01*
X100810690Y-113908214D02*
X102360690Y-114908214D01*
X100810690Y-114908214D02*
X102360690Y-113908214D01*
X78078190Y-64987285D02*
X78078190Y-65915857D01*
X78668666Y-65415857D01*
X78668666Y-65630142D01*
X78742476Y-65773000D01*
X78816285Y-65844428D01*
X78963904Y-65915857D01*
X79332952Y-65915857D01*
X79480571Y-65844428D01*
X79554380Y-65773000D01*
X79628190Y-65630142D01*
X79628190Y-65201571D01*
X79554380Y-65058714D01*
X79480571Y-64987285D01*
X78078190Y-66344428D02*
X79628190Y-66844428D01*
X78078190Y-67344428D01*
X78078190Y-67701571D02*
X78078190Y-68630142D01*
X78668666Y-68130142D01*
X78668666Y-68344428D01*
X78742476Y-68487285D01*
X78816285Y-68558714D01*
X78963904Y-68630142D01*
X79332952Y-68630142D01*
X79480571Y-68558714D01*
X79554380Y-68487285D01*
X79628190Y-68344428D01*
X79628190Y-67915857D01*
X79554380Y-67773000D01*
X79480571Y-67701571D01*
X80677000Y-65915857D02*
X80603190Y-65773000D01*
X80603190Y-65558714D01*
X80677000Y-65344428D01*
X80824619Y-65201571D01*
X80972238Y-65130142D01*
X81267476Y-65058714D01*
X81488904Y-65058714D01*
X81784142Y-65130142D01*
X81931761Y-65201571D01*
X82079380Y-65344428D01*
X82153190Y-65558714D01*
X82153190Y-65701571D01*
X82079380Y-65915857D01*
X82005571Y-65987285D01*
X81488904Y-65987285D01*
X81488904Y-65701571D01*
X82153190Y-66630142D02*
X80603190Y-66630142D01*
X82153190Y-67487285D01*
X80603190Y-67487285D01*
X82153190Y-68201571D02*
X80603190Y-68201571D01*
X80603190Y-68558714D01*
X80677000Y-68773000D01*
X80824619Y-68915857D01*
X80972238Y-68987285D01*
X81267476Y-69058714D01*
X81488904Y-69058714D01*
X81784142Y-68987285D01*
X81931761Y-68915857D01*
X82079380Y-68773000D01*
X82153190Y-68558714D01*
X82153190Y-68201571D01*
X84604380Y-65058714D02*
X84678190Y-65273000D01*
X84678190Y-65630142D01*
X84604380Y-65773000D01*
X84530571Y-65844428D01*
X84382952Y-65915857D01*
X84235333Y-65915857D01*
X84087714Y-65844428D01*
X84013904Y-65773000D01*
X83940095Y-65630142D01*
X83866285Y-65344428D01*
X83792476Y-65201571D01*
X83718666Y-65130142D01*
X83571047Y-65058714D01*
X83423428Y-65058714D01*
X83275809Y-65130142D01*
X83202000Y-65201571D01*
X83128190Y-65344428D01*
X83128190Y-65701571D01*
X83202000Y-65915857D01*
X83128190Y-66415857D02*
X84678190Y-66773000D01*
X83571047Y-67058714D01*
X84678190Y-67344428D01*
X83128190Y-67701571D01*
X87129380Y-65058714D02*
X87203190Y-65273000D01*
X87203190Y-65630142D01*
X87129380Y-65773000D01*
X87055571Y-65844428D01*
X86907952Y-65915857D01*
X86760333Y-65915857D01*
X86612714Y-65844428D01*
X86538904Y-65773000D01*
X86465095Y-65630142D01*
X86391285Y-65344428D01*
X86317476Y-65201571D01*
X86243666Y-65130142D01*
X86096047Y-65058714D01*
X85948428Y-65058714D01*
X85800809Y-65130142D01*
X85727000Y-65201571D01*
X85653190Y-65344428D01*
X85653190Y-65701571D01*
X85727000Y-65915857D01*
X85653190Y-66344428D02*
X85653190Y-67201571D01*
X87203190Y-66773000D02*
X85653190Y-66773000D01*
X86391285Y-67701571D02*
X86391285Y-68201571D01*
X87203190Y-68415857D02*
X87203190Y-67701571D01*
X85653190Y-67701571D01*
X85653190Y-68415857D01*
X87203190Y-69058714D02*
X85653190Y-69058714D01*
X85653190Y-69630142D01*
X85727000Y-69773000D01*
X85800809Y-69844428D01*
X85948428Y-69915857D01*
X86169857Y-69915857D01*
X86317476Y-69844428D01*
X86391285Y-69773000D01*
X86465095Y-69630142D01*
X86465095Y-69058714D01*
X88916285Y-65630142D02*
X88916285Y-65130142D01*
X89728190Y-65130142D02*
X88178190Y-65130142D01*
X88178190Y-65844428D01*
X89728190Y-67130142D02*
X89728190Y-66415857D01*
X88178190Y-66415857D01*
X89285333Y-67558714D02*
X89285333Y-68273000D01*
X89728190Y-67415857D02*
X88178190Y-67915857D01*
X89728190Y-68415857D01*
X88252000Y-69701571D02*
X88178190Y-69558714D01*
X88178190Y-69344428D01*
X88252000Y-69130142D01*
X88399619Y-68987285D01*
X88547238Y-68915857D01*
X88842476Y-68844428D01*
X89063904Y-68844428D01*
X89359142Y-68915857D01*
X89506761Y-68987285D01*
X89654380Y-69130142D01*
X89728190Y-69344428D01*
X89728190Y-69487285D01*
X89654380Y-69701571D01*
X89580571Y-69773000D01*
X89063904Y-69773000D01*
X89063904Y-69487285D01*
X91441285Y-65630142D02*
X91515095Y-65844428D01*
X91588904Y-65915857D01*
X91736523Y-65987285D01*
X91957952Y-65987285D01*
X92105571Y-65915857D01*
X92179380Y-65844428D01*
X92253190Y-65701571D01*
X92253190Y-65130142D01*
X90703190Y-65130142D01*
X90703190Y-65630142D01*
X90777000Y-65773000D01*
X90850809Y-65844428D01*
X90998428Y-65915857D01*
X91146047Y-65915857D01*
X91293666Y-65844428D01*
X91367476Y-65773000D01*
X91441285Y-65630142D01*
X91441285Y-65130142D01*
X90703190Y-66630142D02*
X91957952Y-66630142D01*
X92105571Y-66701571D01*
X92179380Y-66773000D01*
X92253190Y-66915857D01*
X92253190Y-67201571D01*
X92179380Y-67344428D01*
X92105571Y-67415857D01*
X91957952Y-67487285D01*
X90703190Y-67487285D01*
X92179380Y-68130142D02*
X92253190Y-68344428D01*
X92253190Y-68701571D01*
X92179380Y-68844428D01*
X92105571Y-68915857D01*
X91957952Y-68987285D01*
X91810333Y-68987285D01*
X91662714Y-68915857D01*
X91588904Y-68844428D01*
X91515095Y-68701571D01*
X91441285Y-68415857D01*
X91367476Y-68273000D01*
X91293666Y-68201571D01*
X91146047Y-68130142D01*
X90998428Y-68130142D01*
X90850809Y-68201571D01*
X90777000Y-68273000D01*
X90703190Y-68415857D01*
X90703190Y-68773000D01*
X90777000Y-68987285D01*
X91515095Y-69915857D02*
X92253190Y-69915857D01*
X90703190Y-69415857D02*
X91515095Y-69915857D01*
X90703190Y-70415857D01*
X94630571Y-65987285D02*
X94704380Y-65915857D01*
X94778190Y-65701571D01*
X94778190Y-65558714D01*
X94704380Y-65344428D01*
X94556761Y-65201571D01*
X94409142Y-65130142D01*
X94113904Y-65058714D01*
X93892476Y-65058714D01*
X93597238Y-65130142D01*
X93449619Y-65201571D01*
X93302000Y-65344428D01*
X93228190Y-65558714D01*
X93228190Y-65701571D01*
X93302000Y-65915857D01*
X93375809Y-65987285D01*
X94778190Y-67344428D02*
X94778190Y-66630142D01*
X93228190Y-66630142D01*
X94778190Y-67844428D02*
X93228190Y-67844428D01*
X94778190Y-68701571D02*
X93892476Y-68058714D01*
X93228190Y-68701571D02*
X94113904Y-67844428D01*
X97303190Y-65130142D02*
X95753190Y-65130142D01*
X96860333Y-65630142D01*
X95753190Y-66130142D01*
X97303190Y-66130142D01*
X95753190Y-67130142D02*
X95753190Y-67415857D01*
X95827000Y-67558714D01*
X95974619Y-67701571D01*
X96269857Y-67773000D01*
X96786523Y-67773000D01*
X97081761Y-67701571D01*
X97229380Y-67558714D01*
X97303190Y-67415857D01*
X97303190Y-67130142D01*
X97229380Y-66987285D01*
X97081761Y-66844428D01*
X96786523Y-66773000D01*
X96269857Y-66773000D01*
X95974619Y-66844428D01*
X95827000Y-66987285D01*
X95753190Y-67130142D01*
X97229380Y-68344428D02*
X97303190Y-68558714D01*
X97303190Y-68915857D01*
X97229380Y-69058714D01*
X97155571Y-69130142D01*
X97007952Y-69201571D01*
X96860333Y-69201571D01*
X96712714Y-69130142D01*
X96638904Y-69058714D01*
X96565095Y-68915857D01*
X96491285Y-68630142D01*
X96417476Y-68487285D01*
X96343666Y-68415857D01*
X96196047Y-68344428D01*
X96048428Y-68344428D01*
X95900809Y-68415857D01*
X95827000Y-68487285D01*
X95753190Y-68630142D01*
X95753190Y-68987285D01*
X95827000Y-69201571D01*
X97303190Y-69844428D02*
X95753190Y-69844428D01*
X99828190Y-65130142D02*
X98278190Y-65130142D01*
X99385333Y-65630142D01*
X98278190Y-66130142D01*
X99828190Y-66130142D01*
X99828190Y-66844428D02*
X98278190Y-66844428D01*
X99754380Y-67487285D02*
X99828190Y-67701571D01*
X99828190Y-68058714D01*
X99754380Y-68201571D01*
X99680571Y-68273000D01*
X99532952Y-68344428D01*
X99385333Y-68344428D01*
X99237714Y-68273000D01*
X99163904Y-68201571D01*
X99090095Y-68058714D01*
X99016285Y-67773000D01*
X98942476Y-67630142D01*
X98868666Y-67558714D01*
X98721047Y-67487285D01*
X98573428Y-67487285D01*
X98425809Y-67558714D01*
X98352000Y-67630142D01*
X98278190Y-67773000D01*
X98278190Y-68130142D01*
X98352000Y-68344428D01*
X98278190Y-69273000D02*
X98278190Y-69558714D01*
X98352000Y-69701571D01*
X98499619Y-69844428D01*
X98794857Y-69915857D01*
X99311523Y-69915857D01*
X99606761Y-69844428D01*
X99754380Y-69701571D01*
X99828190Y-69558714D01*
X99828190Y-69273000D01*
X99754380Y-69130142D01*
X99606761Y-68987285D01*
X99311523Y-68915857D01*
X98794857Y-68915857D01*
X98499619Y-68987285D01*
X98352000Y-69130142D01*
X98278190Y-69273000D01*
D11*
X73859071Y-108455952D02*
X73680500Y-108515476D01*
X73382880Y-108515476D01*
X73263833Y-108455952D01*
X73204309Y-108396428D01*
X73144785Y-108277380D01*
X73144785Y-108158333D01*
X73204309Y-108039285D01*
X73263833Y-107979761D01*
X73382880Y-107920238D01*
X73620976Y-107860714D01*
X73740023Y-107801190D01*
X73799547Y-107741666D01*
X73859071Y-107622619D01*
X73859071Y-107503571D01*
X73799547Y-107384523D01*
X73740023Y-107325000D01*
X73620976Y-107265476D01*
X73323357Y-107265476D01*
X73144785Y-107325000D01*
X72609071Y-108515476D02*
X72609071Y-107265476D01*
X72073357Y-108515476D02*
X72073357Y-107860714D01*
X72132880Y-107741666D01*
X72251928Y-107682142D01*
X72430500Y-107682142D01*
X72549547Y-107741666D01*
X72609071Y-107801190D01*
X71299547Y-108515476D02*
X71418595Y-108455952D01*
X71478119Y-108396428D01*
X71537642Y-108277380D01*
X71537642Y-107920238D01*
X71478119Y-107801190D01*
X71418595Y-107741666D01*
X71299547Y-107682142D01*
X71120976Y-107682142D01*
X71001928Y-107741666D01*
X70942404Y-107801190D01*
X70882880Y-107920238D01*
X70882880Y-108277380D01*
X70942404Y-108396428D01*
X71001928Y-108455952D01*
X71120976Y-108515476D01*
X71299547Y-108515476D01*
X70347166Y-108515476D02*
X70347166Y-107682142D01*
X70347166Y-107920238D02*
X70287642Y-107801190D01*
X70228119Y-107741666D01*
X70109071Y-107682142D01*
X69990023Y-107682142D01*
X69751928Y-107682142D02*
X69275738Y-107682142D01*
X69573357Y-107265476D02*
X69573357Y-108336904D01*
X69513833Y-108455952D01*
X69394785Y-108515476D01*
X69275738Y-108515476D01*
X68085261Y-107682142D02*
X67609071Y-107682142D01*
X67906690Y-108515476D02*
X67906690Y-107444047D01*
X67847166Y-107325000D01*
X67728119Y-107265476D01*
X67609071Y-107265476D01*
X67013833Y-108515476D02*
X67132880Y-108455952D01*
X67192404Y-108396428D01*
X67251928Y-108277380D01*
X67251928Y-107920238D01*
X67192404Y-107801190D01*
X67132880Y-107741666D01*
X67013833Y-107682142D01*
X66835261Y-107682142D01*
X66716214Y-107741666D01*
X66656690Y-107801190D01*
X66597166Y-107920238D01*
X66597166Y-108277380D01*
X66656690Y-108396428D01*
X66716214Y-108455952D01*
X66835261Y-108515476D01*
X67013833Y-108515476D01*
X66061452Y-108515476D02*
X66061452Y-107682142D01*
X66061452Y-107920238D02*
X66001928Y-107801190D01*
X65942404Y-107741666D01*
X65823357Y-107682142D01*
X65704309Y-107682142D01*
X64513833Y-107265476D02*
X64097166Y-108515476D01*
X63680500Y-107265476D01*
X63085261Y-108515476D02*
X63204309Y-108455952D01*
X63263833Y-108396428D01*
X63323357Y-108277380D01*
X63323357Y-107920238D01*
X63263833Y-107801190D01*
X63204309Y-107741666D01*
X63085261Y-107682142D01*
X62906690Y-107682142D01*
X62787642Y-107741666D01*
X62728119Y-107801190D01*
X62668595Y-107920238D01*
X62668595Y-108277380D01*
X62728119Y-108396428D01*
X62787642Y-108455952D01*
X62906690Y-108515476D01*
X63085261Y-108515476D01*
X61954309Y-108515476D02*
X62073357Y-108455952D01*
X62132880Y-108336904D01*
X62132880Y-107265476D01*
X61656690Y-107682142D02*
X61180500Y-107682142D01*
X61478119Y-107265476D02*
X61478119Y-108336904D01*
X61418595Y-108455952D01*
X61299547Y-108515476D01*
X61180500Y-108515476D01*
X60228119Y-108515476D02*
X60228119Y-107860714D01*
X60287642Y-107741666D01*
X60406690Y-107682142D01*
X60644785Y-107682142D01*
X60763833Y-107741666D01*
X60228119Y-108455952D02*
X60347166Y-108515476D01*
X60644785Y-108515476D01*
X60763833Y-108455952D01*
X60823357Y-108336904D01*
X60823357Y-108217857D01*
X60763833Y-108098809D01*
X60644785Y-108039285D01*
X60347166Y-108039285D01*
X60228119Y-107979761D01*
X59097166Y-107682142D02*
X59097166Y-108694047D01*
X59156690Y-108813095D01*
X59216214Y-108872619D01*
X59335261Y-108932142D01*
X59513833Y-108932142D01*
X59632880Y-108872619D01*
X59097166Y-108455952D02*
X59216214Y-108515476D01*
X59454309Y-108515476D01*
X59573357Y-108455952D01*
X59632880Y-108396428D01*
X59692404Y-108277380D01*
X59692404Y-107920238D01*
X59632880Y-107801190D01*
X59573357Y-107741666D01*
X59454309Y-107682142D01*
X59216214Y-107682142D01*
X59097166Y-107741666D01*
X58025738Y-108455952D02*
X58144785Y-108515476D01*
X58382880Y-108515476D01*
X58501928Y-108455952D01*
X58561452Y-108336904D01*
X58561452Y-107860714D01*
X58501928Y-107741666D01*
X58382880Y-107682142D01*
X58144785Y-107682142D01*
X58025738Y-107741666D01*
X57966214Y-107860714D01*
X57966214Y-107979761D01*
X58561452Y-108098809D01*
X56478119Y-108515476D02*
X56478119Y-107265476D01*
X56061452Y-108158333D01*
X55644785Y-107265476D01*
X55644785Y-108515476D01*
X54870976Y-108515476D02*
X54990023Y-108455952D01*
X55049547Y-108396428D01*
X55109071Y-108277380D01*
X55109071Y-107920238D01*
X55049547Y-107801190D01*
X54990023Y-107741666D01*
X54870976Y-107682142D01*
X54692404Y-107682142D01*
X54573357Y-107741666D01*
X54513833Y-107801190D01*
X54454309Y-107920238D01*
X54454309Y-108277380D01*
X54513833Y-108396428D01*
X54573357Y-108455952D01*
X54692404Y-108515476D01*
X54870976Y-108515476D01*
X53382880Y-108515476D02*
X53382880Y-107265476D01*
X53382880Y-108455952D02*
X53501928Y-108515476D01*
X53740023Y-108515476D01*
X53859071Y-108455952D01*
X53918595Y-108396428D01*
X53978119Y-108277380D01*
X53978119Y-107920238D01*
X53918595Y-107801190D01*
X53859071Y-107741666D01*
X53740023Y-107682142D01*
X53501928Y-107682142D01*
X53382880Y-107741666D01*
X52311452Y-108455952D02*
X52430500Y-108515476D01*
X52668595Y-108515476D01*
X52787642Y-108455952D01*
X52847166Y-108336904D01*
X52847166Y-107860714D01*
X52787642Y-107741666D01*
X52668595Y-107682142D01*
X52430500Y-107682142D01*
X52311452Y-107741666D01*
X52251928Y-107860714D01*
X52251928Y-107979761D01*
X52847166Y-108098809D01*
X74176571Y-66101452D02*
X73998000Y-66160976D01*
X73700380Y-66160976D01*
X73581333Y-66101452D01*
X73521809Y-66041928D01*
X73462285Y-65922880D01*
X73462285Y-65803833D01*
X73521809Y-65684785D01*
X73581333Y-65625261D01*
X73700380Y-65565738D01*
X73938476Y-65506214D01*
X74057523Y-65446690D01*
X74117047Y-65387166D01*
X74176571Y-65268119D01*
X74176571Y-65149071D01*
X74117047Y-65030023D01*
X74057523Y-64970500D01*
X73938476Y-64910976D01*
X73640857Y-64910976D01*
X73462285Y-64970500D01*
X72926571Y-66160976D02*
X72926571Y-64910976D01*
X72390857Y-66160976D02*
X72390857Y-65506214D01*
X72450380Y-65387166D01*
X72569428Y-65327642D01*
X72748000Y-65327642D01*
X72867047Y-65387166D01*
X72926571Y-65446690D01*
X71617047Y-66160976D02*
X71736095Y-66101452D01*
X71795619Y-66041928D01*
X71855142Y-65922880D01*
X71855142Y-65565738D01*
X71795619Y-65446690D01*
X71736095Y-65387166D01*
X71617047Y-65327642D01*
X71438476Y-65327642D01*
X71319428Y-65387166D01*
X71259904Y-65446690D01*
X71200380Y-65565738D01*
X71200380Y-65922880D01*
X71259904Y-66041928D01*
X71319428Y-66101452D01*
X71438476Y-66160976D01*
X71617047Y-66160976D01*
X70664666Y-66160976D02*
X70664666Y-65327642D01*
X70664666Y-65565738D02*
X70605142Y-65446690D01*
X70545619Y-65387166D01*
X70426571Y-65327642D01*
X70307523Y-65327642D01*
X70069428Y-65327642D02*
X69593238Y-65327642D01*
X69890857Y-64910976D02*
X69890857Y-65982404D01*
X69831333Y-66101452D01*
X69712285Y-66160976D01*
X69593238Y-66160976D01*
X68402761Y-65327642D02*
X67926571Y-65327642D01*
X68224190Y-66160976D02*
X68224190Y-65089547D01*
X68164666Y-64970500D01*
X68045619Y-64910976D01*
X67926571Y-64910976D01*
X67331333Y-66160976D02*
X67450380Y-66101452D01*
X67509904Y-66041928D01*
X67569428Y-65922880D01*
X67569428Y-65565738D01*
X67509904Y-65446690D01*
X67450380Y-65387166D01*
X67331333Y-65327642D01*
X67152761Y-65327642D01*
X67033714Y-65387166D01*
X66974190Y-65446690D01*
X66914666Y-65565738D01*
X66914666Y-65922880D01*
X66974190Y-66041928D01*
X67033714Y-66101452D01*
X67152761Y-66160976D01*
X67331333Y-66160976D01*
X66378952Y-66160976D02*
X66378952Y-65327642D01*
X66378952Y-65565738D02*
X66319428Y-65446690D01*
X66259904Y-65387166D01*
X66140857Y-65327642D01*
X66021809Y-65327642D01*
X64831333Y-64910976D02*
X64414666Y-66160976D01*
X63998000Y-64910976D01*
X63402761Y-66160976D02*
X63521809Y-66101452D01*
X63581333Y-66041928D01*
X63640857Y-65922880D01*
X63640857Y-65565738D01*
X63581333Y-65446690D01*
X63521809Y-65387166D01*
X63402761Y-65327642D01*
X63224190Y-65327642D01*
X63105142Y-65387166D01*
X63045619Y-65446690D01*
X62986095Y-65565738D01*
X62986095Y-65922880D01*
X63045619Y-66041928D01*
X63105142Y-66101452D01*
X63224190Y-66160976D01*
X63402761Y-66160976D01*
X62271809Y-66160976D02*
X62390857Y-66101452D01*
X62450380Y-65982404D01*
X62450380Y-64910976D01*
X61974190Y-65327642D02*
X61498000Y-65327642D01*
X61795619Y-64910976D02*
X61795619Y-65982404D01*
X61736095Y-66101452D01*
X61617047Y-66160976D01*
X61498000Y-66160976D01*
X60545619Y-66160976D02*
X60545619Y-65506214D01*
X60605142Y-65387166D01*
X60724190Y-65327642D01*
X60962285Y-65327642D01*
X61081333Y-65387166D01*
X60545619Y-66101452D02*
X60664666Y-66160976D01*
X60962285Y-66160976D01*
X61081333Y-66101452D01*
X61140857Y-65982404D01*
X61140857Y-65863357D01*
X61081333Y-65744309D01*
X60962285Y-65684785D01*
X60664666Y-65684785D01*
X60545619Y-65625261D01*
X59414666Y-65327642D02*
X59414666Y-66339547D01*
X59474190Y-66458595D01*
X59533714Y-66518119D01*
X59652761Y-66577642D01*
X59831333Y-66577642D01*
X59950380Y-66518119D01*
X59414666Y-66101452D02*
X59533714Y-66160976D01*
X59771809Y-66160976D01*
X59890857Y-66101452D01*
X59950380Y-66041928D01*
X60009904Y-65922880D01*
X60009904Y-65565738D01*
X59950380Y-65446690D01*
X59890857Y-65387166D01*
X59771809Y-65327642D01*
X59533714Y-65327642D01*
X59414666Y-65387166D01*
X58343238Y-66101452D02*
X58462285Y-66160976D01*
X58700380Y-66160976D01*
X58819428Y-66101452D01*
X58878952Y-65982404D01*
X58878952Y-65506214D01*
X58819428Y-65387166D01*
X58700380Y-65327642D01*
X58462285Y-65327642D01*
X58343238Y-65387166D01*
X58283714Y-65506214D01*
X58283714Y-65625261D01*
X58878952Y-65744309D01*
X56795619Y-66160976D02*
X56795619Y-64910976D01*
X56378952Y-65803833D01*
X55962285Y-64910976D01*
X55962285Y-66160976D01*
X55188476Y-66160976D02*
X55307523Y-66101452D01*
X55367047Y-66041928D01*
X55426571Y-65922880D01*
X55426571Y-65565738D01*
X55367047Y-65446690D01*
X55307523Y-65387166D01*
X55188476Y-65327642D01*
X55009904Y-65327642D01*
X54890857Y-65387166D01*
X54831333Y-65446690D01*
X54771809Y-65565738D01*
X54771809Y-65922880D01*
X54831333Y-66041928D01*
X54890857Y-66101452D01*
X55009904Y-66160976D01*
X55188476Y-66160976D01*
X53700380Y-66160976D02*
X53700380Y-64910976D01*
X53700380Y-66101452D02*
X53819428Y-66160976D01*
X54057523Y-66160976D01*
X54176571Y-66101452D01*
X54236095Y-66041928D01*
X54295619Y-65922880D01*
X54295619Y-65565738D01*
X54236095Y-65446690D01*
X54176571Y-65387166D01*
X54057523Y-65327642D01*
X53819428Y-65327642D01*
X53700380Y-65387166D01*
X52628952Y-66101452D02*
X52748000Y-66160976D01*
X52986095Y-66160976D01*
X53105142Y-66101452D01*
X53164666Y-65982404D01*
X53164666Y-65506214D01*
X53105142Y-65387166D01*
X52986095Y-65327642D01*
X52748000Y-65327642D01*
X52628952Y-65387166D01*
X52569428Y-65506214D01*
X52569428Y-65625261D01*
X53164666Y-65744309D01*
D10*
X71628000Y-112522000D02*
X54610000Y-112522000D01*
X54610000Y-109220000D02*
X71628000Y-109220000D01*
X71628000Y-109220000D02*
X71628000Y-112522000D01*
X54610000Y-112522000D02*
X54610000Y-109220000D01*
X54864000Y-70358000D02*
X54864000Y-67056000D01*
X71882000Y-70358000D02*
X54864000Y-70358000D01*
X71882000Y-67056000D02*
X71882000Y-70358000D01*
X54864000Y-67056000D02*
X71882000Y-67056000D01*
X69376285Y-115201000D02*
X69519142Y-115129571D01*
X69733428Y-115129571D01*
X69947714Y-115201000D01*
X70090571Y-115343857D01*
X70162000Y-115486714D01*
X70233428Y-115772428D01*
X70233428Y-115986714D01*
X70162000Y-116272428D01*
X70090571Y-116415285D01*
X69947714Y-116558142D01*
X69733428Y-116629571D01*
X69590571Y-116629571D01*
X69376285Y-116558142D01*
X69304857Y-116486714D01*
X69304857Y-115986714D01*
X69590571Y-115986714D01*
X68447714Y-116629571D02*
X68590571Y-116558142D01*
X68662000Y-116486714D01*
X68733428Y-116343857D01*
X68733428Y-115915285D01*
X68662000Y-115772428D01*
X68590571Y-115701000D01*
X68447714Y-115629571D01*
X68233428Y-115629571D01*
X68090571Y-115701000D01*
X68019142Y-115772428D01*
X67947714Y-115915285D01*
X67947714Y-116343857D01*
X68019142Y-116486714D01*
X68090571Y-116558142D01*
X68233428Y-116629571D01*
X68447714Y-116629571D01*
X67090571Y-116629571D02*
X67233428Y-116558142D01*
X67304857Y-116486714D01*
X67376285Y-116343857D01*
X67376285Y-115915285D01*
X67304857Y-115772428D01*
X67233428Y-115701000D01*
X67090571Y-115629571D01*
X66876285Y-115629571D01*
X66733428Y-115701000D01*
X66662000Y-115772428D01*
X66590571Y-115915285D01*
X66590571Y-116343857D01*
X66662000Y-116486714D01*
X66733428Y-116558142D01*
X66876285Y-116629571D01*
X67090571Y-116629571D01*
X65304857Y-116629571D02*
X65304857Y-115129571D01*
X65304857Y-116558142D02*
X65447714Y-116629571D01*
X65733428Y-116629571D01*
X65876285Y-116558142D01*
X65947714Y-116486714D01*
X66019142Y-116343857D01*
X66019142Y-115915285D01*
X65947714Y-115772428D01*
X65876285Y-115701000D01*
X65733428Y-115629571D01*
X65447714Y-115629571D01*
X65304857Y-115701000D01*
X62590571Y-116629571D02*
X63090571Y-115915285D01*
X63447714Y-116629571D02*
X63447714Y-115129571D01*
X62876285Y-115129571D01*
X62733428Y-115201000D01*
X62662000Y-115272428D01*
X62590571Y-115415285D01*
X62590571Y-115629571D01*
X62662000Y-115772428D01*
X62733428Y-115843857D01*
X62876285Y-115915285D01*
X63447714Y-115915285D01*
X61733428Y-116629571D02*
X61876285Y-116558142D01*
X61947714Y-116486714D01*
X62019142Y-116343857D01*
X62019142Y-115915285D01*
X61947714Y-115772428D01*
X61876285Y-115701000D01*
X61733428Y-115629571D01*
X61519142Y-115629571D01*
X61376285Y-115701000D01*
X61304857Y-115772428D01*
X61233428Y-115915285D01*
X61233428Y-116343857D01*
X61304857Y-116486714D01*
X61376285Y-116558142D01*
X61519142Y-116629571D01*
X61733428Y-116629571D01*
X60590571Y-116629571D02*
X60590571Y-115129571D01*
X60590571Y-115701000D02*
X60447714Y-115629571D01*
X60162000Y-115629571D01*
X60019142Y-115701000D01*
X59947714Y-115772428D01*
X59876285Y-115915285D01*
X59876285Y-116343857D01*
X59947714Y-116486714D01*
X60019142Y-116558142D01*
X60162000Y-116629571D01*
X60447714Y-116629571D01*
X60590571Y-116558142D01*
X59019142Y-116629571D02*
X59162000Y-116558142D01*
X59233428Y-116486714D01*
X59304857Y-116343857D01*
X59304857Y-115915285D01*
X59233428Y-115772428D01*
X59162000Y-115701000D01*
X59019142Y-115629571D01*
X58804857Y-115629571D01*
X58662000Y-115701000D01*
X58590571Y-115772428D01*
X58519142Y-115915285D01*
X58519142Y-116343857D01*
X58590571Y-116486714D01*
X58662000Y-116558142D01*
X58804857Y-116629571D01*
X59019142Y-116629571D01*
X58090571Y-115629571D02*
X57519142Y-115629571D01*
X57876285Y-115129571D02*
X57876285Y-116415285D01*
X57804857Y-116558142D01*
X57662000Y-116629571D01*
X57519142Y-116629571D01*
X57019142Y-116629571D02*
X57019142Y-115629571D01*
X57019142Y-115129571D02*
X57090571Y-115201000D01*
X57019142Y-115272428D01*
X56947714Y-115201000D01*
X57019142Y-115129571D01*
X57019142Y-115272428D01*
X55662000Y-116558142D02*
X55804857Y-116629571D01*
X56090571Y-116629571D01*
X56233428Y-116558142D01*
X56304857Y-116486714D01*
X56376285Y-116343857D01*
X56376285Y-115915285D01*
X56304857Y-115772428D01*
X56233428Y-115701000D01*
X56090571Y-115629571D01*
X55804857Y-115629571D01*
X55662000Y-115701000D01*
X55090571Y-116558142D02*
X54947714Y-116629571D01*
X54662000Y-116629571D01*
X54519142Y-116558142D01*
X54447714Y-116415285D01*
X54447714Y-116343857D01*
X54519142Y-116201000D01*
X54662000Y-116129571D01*
X54876285Y-116129571D01*
X55019142Y-116058142D01*
X55090571Y-115915285D01*
X55090571Y-115843857D01*
X55019142Y-115701000D01*
X54876285Y-115629571D01*
X54662000Y-115629571D01*
X54519142Y-115701000D01*
X52233428Y-117201000D02*
X52304857Y-117129571D01*
X52447714Y-116915285D01*
X52519142Y-116772428D01*
X52590571Y-116558142D01*
X52662000Y-116201000D01*
X52662000Y-115915285D01*
X52590571Y-115558142D01*
X52519142Y-115343857D01*
X52447714Y-115201000D01*
X52304857Y-114986714D01*
X52233428Y-114915285D01*
X51733428Y-115272428D02*
X51662000Y-115201000D01*
X51519142Y-115129571D01*
X51162000Y-115129571D01*
X51019142Y-115201000D01*
X50947714Y-115272428D01*
X50876285Y-115415285D01*
X50876285Y-115558142D01*
X50947714Y-115772428D01*
X51804857Y-116629571D01*
X50876285Y-116629571D01*
X49947714Y-115129571D02*
X49804857Y-115129571D01*
X49662000Y-115201000D01*
X49590571Y-115272428D01*
X49519142Y-115415285D01*
X49447714Y-115701000D01*
X49447714Y-116058142D01*
X49519142Y-116343857D01*
X49590571Y-116486714D01*
X49662000Y-116558142D01*
X49804857Y-116629571D01*
X49947714Y-116629571D01*
X50090571Y-116558142D01*
X50162000Y-116486714D01*
X50233428Y-116343857D01*
X50304857Y-116058142D01*
X50304857Y-115701000D01*
X50233428Y-115415285D01*
X50162000Y-115272428D01*
X50090571Y-115201000D01*
X49947714Y-115129571D01*
X48019142Y-116629571D02*
X48876285Y-116629571D01*
X48447714Y-116629571D02*
X48447714Y-115129571D01*
X48590571Y-115343857D01*
X48733428Y-115486714D01*
X48876285Y-115558142D01*
X47304857Y-116629571D02*
X47019142Y-116629571D01*
X46876285Y-116558142D01*
X46804857Y-116486714D01*
X46662000Y-116272428D01*
X46590571Y-115986714D01*
X46590571Y-115415285D01*
X46662000Y-115272428D01*
X46733428Y-115201000D01*
X46876285Y-115129571D01*
X47162000Y-115129571D01*
X47304857Y-115201000D01*
X47376285Y-115272428D01*
X47447714Y-115415285D01*
X47447714Y-115772428D01*
X47376285Y-115915285D01*
X47304857Y-115986714D01*
X47162000Y-116058142D01*
X46876285Y-116058142D01*
X46733428Y-115986714D01*
X46662000Y-115915285D01*
X46590571Y-115772428D01*
X46090571Y-117201000D02*
X46019142Y-117129571D01*
X45876285Y-116915285D01*
X45804857Y-116772428D01*
X45733428Y-116558142D01*
X45662000Y-116201000D01*
X45662000Y-115915285D01*
X45733428Y-115558142D01*
X45804857Y-115343857D01*
X45876285Y-115201000D01*
X46019142Y-114986714D01*
X46090571Y-114915285D01*
D12*
G04 #@! TO.C,REF\002A\002A*
G36*
X46505090Y-63536348D02*
X46426546Y-63536778D01*
X46369702Y-63537942D01*
X46330895Y-63540207D01*
X46306462Y-63543940D01*
X46292738Y-63549506D01*
X46286060Y-63557273D01*
X46282764Y-63567605D01*
X46282444Y-63568943D01*
X46277438Y-63593079D01*
X46268171Y-63640701D01*
X46255608Y-63706741D01*
X46240713Y-63786128D01*
X46224449Y-63873796D01*
X46223881Y-63876875D01*
X46207590Y-63962789D01*
X46192348Y-64038696D01*
X46179139Y-64100045D01*
X46168946Y-64142282D01*
X46162752Y-64160855D01*
X46162457Y-64161184D01*
X46144212Y-64170253D01*
X46106595Y-64185367D01*
X46057729Y-64203262D01*
X46057457Y-64203358D01*
X45995907Y-64226493D01*
X45923343Y-64255965D01*
X45854943Y-64285597D01*
X45851706Y-64287062D01*
X45740298Y-64337626D01*
X45493601Y-64169160D01*
X45417923Y-64117803D01*
X45349369Y-64071889D01*
X45291912Y-64034030D01*
X45249524Y-64006837D01*
X45226175Y-63992921D01*
X45223958Y-63991889D01*
X45206990Y-63996484D01*
X45175299Y-64018655D01*
X45127648Y-64059447D01*
X45062802Y-64119905D01*
X44996603Y-64184227D01*
X44932786Y-64247612D01*
X44875671Y-64305451D01*
X44828695Y-64354175D01*
X44795297Y-64390210D01*
X44778915Y-64409984D01*
X44778306Y-64411002D01*
X44776495Y-64424572D01*
X44783317Y-64446733D01*
X44800460Y-64480478D01*
X44829607Y-64528800D01*
X44872445Y-64594692D01*
X44929552Y-64679517D01*
X44980234Y-64754177D01*
X45025539Y-64821140D01*
X45062850Y-64876516D01*
X45089548Y-64916420D01*
X45103015Y-64936962D01*
X45103863Y-64938356D01*
X45102219Y-64958038D01*
X45089755Y-64996293D01*
X45068952Y-65045889D01*
X45061538Y-65061728D01*
X45029186Y-65132290D01*
X44994672Y-65212353D01*
X44966635Y-65281629D01*
X44946432Y-65333045D01*
X44930385Y-65372119D01*
X44921112Y-65392541D01*
X44919959Y-65394114D01*
X44902904Y-65396721D01*
X44862702Y-65403863D01*
X44804698Y-65414523D01*
X44734237Y-65427685D01*
X44656665Y-65442333D01*
X44577328Y-65457449D01*
X44501569Y-65472018D01*
X44434736Y-65485022D01*
X44382172Y-65495445D01*
X44349224Y-65502270D01*
X44341143Y-65504199D01*
X44332795Y-65508962D01*
X44326494Y-65519718D01*
X44321955Y-65540098D01*
X44318896Y-65573734D01*
X44317033Y-65624255D01*
X44316082Y-65695292D01*
X44315760Y-65790476D01*
X44315743Y-65829492D01*
X44315743Y-66146799D01*
X44391943Y-66161839D01*
X44434337Y-66169995D01*
X44497600Y-66181899D01*
X44574038Y-66196116D01*
X44655957Y-66211210D01*
X44678600Y-66215355D01*
X44754194Y-66230053D01*
X44820047Y-66244505D01*
X44870634Y-66257375D01*
X44900426Y-66267322D01*
X44905388Y-66270287D01*
X44917574Y-66291283D01*
X44935047Y-66331967D01*
X44954423Y-66384322D01*
X44958266Y-66395600D01*
X44983661Y-66465523D01*
X45015183Y-66544418D01*
X45046031Y-66615266D01*
X45046183Y-66615595D01*
X45097553Y-66726733D01*
X44928601Y-66975253D01*
X44759648Y-67223772D01*
X44976571Y-67441058D01*
X45042181Y-67505726D01*
X45102021Y-67562733D01*
X45152733Y-67609033D01*
X45190954Y-67641584D01*
X45213325Y-67657343D01*
X45216534Y-67658343D01*
X45235374Y-67650469D01*
X45273820Y-67628578D01*
X45327670Y-67595267D01*
X45392724Y-67553131D01*
X45463060Y-67505943D01*
X45534445Y-67457810D01*
X45598092Y-67415928D01*
X45649959Y-67382871D01*
X45686005Y-67361218D01*
X45702133Y-67353543D01*
X45721811Y-67360037D01*
X45759125Y-67377150D01*
X45806379Y-67401326D01*
X45811388Y-67404013D01*
X45875023Y-67435927D01*
X45918659Y-67451579D01*
X45945798Y-67451745D01*
X45959943Y-67437204D01*
X45960025Y-67437000D01*
X45967095Y-67419779D01*
X45983958Y-67378899D01*
X46009305Y-67317525D01*
X46041829Y-67238819D01*
X46080222Y-67145947D01*
X46123178Y-67042072D01*
X46164778Y-66941502D01*
X46210496Y-66830516D01*
X46252474Y-66727703D01*
X46289452Y-66636215D01*
X46320173Y-66559201D01*
X46343378Y-66499815D01*
X46357810Y-66461209D01*
X46362257Y-66446800D01*
X46351104Y-66430272D01*
X46321931Y-66403930D01*
X46283029Y-66374887D01*
X46172243Y-66283039D01*
X46085649Y-66177759D01*
X46024284Y-66061266D01*
X45989185Y-65935776D01*
X45981392Y-65803507D01*
X45987057Y-65742457D01*
X46017922Y-65615795D01*
X46071080Y-65503941D01*
X46143233Y-65408001D01*
X46231083Y-65329076D01*
X46331335Y-65268270D01*
X46440690Y-65226687D01*
X46555853Y-65205428D01*
X46673525Y-65205599D01*
X46790410Y-65228301D01*
X46903211Y-65274638D01*
X47008631Y-65345713D01*
X47052632Y-65385911D01*
X47137021Y-65489129D01*
X47195778Y-65601925D01*
X47229296Y-65721010D01*
X47237965Y-65843095D01*
X47222177Y-65964893D01*
X47182322Y-66083116D01*
X47118793Y-66194475D01*
X47031979Y-66295684D01*
X46934971Y-66374887D01*
X46894563Y-66405162D01*
X46866018Y-66431219D01*
X46855743Y-66446825D01*
X46861123Y-66463843D01*
X46876425Y-66504500D01*
X46900388Y-66565642D01*
X46931756Y-66644119D01*
X46969268Y-66736780D01*
X47011667Y-66840472D01*
X47053337Y-66941526D01*
X47099310Y-67052607D01*
X47141893Y-67155541D01*
X47179779Y-67247165D01*
X47211660Y-67324316D01*
X47236229Y-67383831D01*
X47252180Y-67422544D01*
X47258090Y-67437000D01*
X47272052Y-67451685D01*
X47299060Y-67451642D01*
X47342587Y-67436099D01*
X47406110Y-67404284D01*
X47406612Y-67404013D01*
X47454440Y-67379323D01*
X47493103Y-67361338D01*
X47514905Y-67353614D01*
X47515867Y-67353543D01*
X47532279Y-67361378D01*
X47568513Y-67383165D01*
X47620526Y-67416328D01*
X47684275Y-67458291D01*
X47754940Y-67505943D01*
X47826884Y-67554191D01*
X47891726Y-67596151D01*
X47945265Y-67629227D01*
X47983303Y-67650821D01*
X48001467Y-67658343D01*
X48018192Y-67648457D01*
X48051820Y-67620826D01*
X48098990Y-67578495D01*
X48156342Y-67524505D01*
X48220516Y-67461899D01*
X48241503Y-67440983D01*
X48458501Y-67223623D01*
X48293332Y-66981220D01*
X48243136Y-66906781D01*
X48199081Y-66839972D01*
X48163638Y-66784665D01*
X48139281Y-66744729D01*
X48128478Y-66724036D01*
X48128162Y-66722563D01*
X48133857Y-66703058D01*
X48149174Y-66663822D01*
X48171463Y-66611430D01*
X48187107Y-66576355D01*
X48216359Y-66509201D01*
X48243906Y-66441358D01*
X48265263Y-66384034D01*
X48271065Y-66366572D01*
X48287548Y-66319938D01*
X48303660Y-66283905D01*
X48312510Y-66270287D01*
X48332040Y-66261952D01*
X48374666Y-66250137D01*
X48434855Y-66236181D01*
X48507078Y-66221422D01*
X48539400Y-66215355D01*
X48621478Y-66200273D01*
X48700205Y-66185669D01*
X48767891Y-66172980D01*
X48816840Y-66163642D01*
X48826057Y-66161839D01*
X48902257Y-66146799D01*
X48902257Y-65829492D01*
X48902086Y-65725154D01*
X48901384Y-65646213D01*
X48899866Y-65589038D01*
X48897251Y-65549999D01*
X48893254Y-65525465D01*
X48887591Y-65511805D01*
X48879980Y-65505389D01*
X48876857Y-65504199D01*
X48858022Y-65499980D01*
X48816412Y-65491562D01*
X48757370Y-65479961D01*
X48686243Y-65466195D01*
X48608375Y-65451280D01*
X48529113Y-65436232D01*
X48453802Y-65422069D01*
X48387787Y-65409806D01*
X48336413Y-65400461D01*
X48305025Y-65395050D01*
X48298041Y-65394114D01*
X48291715Y-65381596D01*
X48277710Y-65348246D01*
X48258645Y-65300377D01*
X48251366Y-65281629D01*
X48222004Y-65209195D01*
X48187429Y-65129170D01*
X48156463Y-65061728D01*
X48133677Y-65010159D01*
X48118518Y-64967785D01*
X48113458Y-64941834D01*
X48114264Y-64938356D01*
X48124959Y-64921936D01*
X48149380Y-64885417D01*
X48184905Y-64832687D01*
X48228913Y-64767635D01*
X48278783Y-64694151D01*
X48288644Y-64679645D01*
X48346508Y-64593704D01*
X48389044Y-64528261D01*
X48417946Y-64480304D01*
X48434910Y-64446820D01*
X48441633Y-64424795D01*
X48439810Y-64411217D01*
X48439764Y-64411131D01*
X48425414Y-64393297D01*
X48393677Y-64358817D01*
X48347990Y-64311268D01*
X48291796Y-64254222D01*
X48228532Y-64191255D01*
X48221398Y-64184227D01*
X48141670Y-64107020D01*
X48080143Y-64050330D01*
X48035579Y-64013110D01*
X48006743Y-63994315D01*
X47994042Y-63991889D01*
X47975506Y-64002471D01*
X47937039Y-64026916D01*
X47882614Y-64062612D01*
X47816202Y-64106947D01*
X47741775Y-64157311D01*
X47724399Y-64169160D01*
X47477703Y-64337626D01*
X47366294Y-64287062D01*
X47298543Y-64257595D01*
X47225817Y-64227959D01*
X47163297Y-64204330D01*
X47160543Y-64203358D01*
X47111640Y-64185457D01*
X47073943Y-64170320D01*
X47055575Y-64161210D01*
X47055544Y-64161184D01*
X47049715Y-64144717D01*
X47039808Y-64104219D01*
X47026805Y-64044242D01*
X47011691Y-63969340D01*
X46995448Y-63884064D01*
X46994119Y-63876875D01*
X46977825Y-63789014D01*
X46962867Y-63709260D01*
X46950209Y-63642681D01*
X46940814Y-63594347D01*
X46935646Y-63569325D01*
X46935556Y-63568943D01*
X46932411Y-63558299D01*
X46926296Y-63550262D01*
X46913547Y-63544467D01*
X46890500Y-63540547D01*
X46853491Y-63538135D01*
X46798856Y-63536865D01*
X46722933Y-63536371D01*
X46622056Y-63536286D01*
X46609000Y-63536286D01*
X46505090Y-63536348D01*
X46505090Y-63536348D01*
G37*
X46505090Y-63536348D02*
X46426546Y-63536778D01*
X46369702Y-63537942D01*
X46330895Y-63540207D01*
X46306462Y-63543940D01*
X46292738Y-63549506D01*
X46286060Y-63557273D01*
X46282764Y-63567605D01*
X46282444Y-63568943D01*
X46277438Y-63593079D01*
X46268171Y-63640701D01*
X46255608Y-63706741D01*
X46240713Y-63786128D01*
X46224449Y-63873796D01*
X46223881Y-63876875D01*
X46207590Y-63962789D01*
X46192348Y-64038696D01*
X46179139Y-64100045D01*
X46168946Y-64142282D01*
X46162752Y-64160855D01*
X46162457Y-64161184D01*
X46144212Y-64170253D01*
X46106595Y-64185367D01*
X46057729Y-64203262D01*
X46057457Y-64203358D01*
X45995907Y-64226493D01*
X45923343Y-64255965D01*
X45854943Y-64285597D01*
X45851706Y-64287062D01*
X45740298Y-64337626D01*
X45493601Y-64169160D01*
X45417923Y-64117803D01*
X45349369Y-64071889D01*
X45291912Y-64034030D01*
X45249524Y-64006837D01*
X45226175Y-63992921D01*
X45223958Y-63991889D01*
X45206990Y-63996484D01*
X45175299Y-64018655D01*
X45127648Y-64059447D01*
X45062802Y-64119905D01*
X44996603Y-64184227D01*
X44932786Y-64247612D01*
X44875671Y-64305451D01*
X44828695Y-64354175D01*
X44795297Y-64390210D01*
X44778915Y-64409984D01*
X44778306Y-64411002D01*
X44776495Y-64424572D01*
X44783317Y-64446733D01*
X44800460Y-64480478D01*
X44829607Y-64528800D01*
X44872445Y-64594692D01*
X44929552Y-64679517D01*
X44980234Y-64754177D01*
X45025539Y-64821140D01*
X45062850Y-64876516D01*
X45089548Y-64916420D01*
X45103015Y-64936962D01*
X45103863Y-64938356D01*
X45102219Y-64958038D01*
X45089755Y-64996293D01*
X45068952Y-65045889D01*
X45061538Y-65061728D01*
X45029186Y-65132290D01*
X44994672Y-65212353D01*
X44966635Y-65281629D01*
X44946432Y-65333045D01*
X44930385Y-65372119D01*
X44921112Y-65392541D01*
X44919959Y-65394114D01*
X44902904Y-65396721D01*
X44862702Y-65403863D01*
X44804698Y-65414523D01*
X44734237Y-65427685D01*
X44656665Y-65442333D01*
X44577328Y-65457449D01*
X44501569Y-65472018D01*
X44434736Y-65485022D01*
X44382172Y-65495445D01*
X44349224Y-65502270D01*
X44341143Y-65504199D01*
X44332795Y-65508962D01*
X44326494Y-65519718D01*
X44321955Y-65540098D01*
X44318896Y-65573734D01*
X44317033Y-65624255D01*
X44316082Y-65695292D01*
X44315760Y-65790476D01*
X44315743Y-65829492D01*
X44315743Y-66146799D01*
X44391943Y-66161839D01*
X44434337Y-66169995D01*
X44497600Y-66181899D01*
X44574038Y-66196116D01*
X44655957Y-66211210D01*
X44678600Y-66215355D01*
X44754194Y-66230053D01*
X44820047Y-66244505D01*
X44870634Y-66257375D01*
X44900426Y-66267322D01*
X44905388Y-66270287D01*
X44917574Y-66291283D01*
X44935047Y-66331967D01*
X44954423Y-66384322D01*
X44958266Y-66395600D01*
X44983661Y-66465523D01*
X45015183Y-66544418D01*
X45046031Y-66615266D01*
X45046183Y-66615595D01*
X45097553Y-66726733D01*
X44928601Y-66975253D01*
X44759648Y-67223772D01*
X44976571Y-67441058D01*
X45042181Y-67505726D01*
X45102021Y-67562733D01*
X45152733Y-67609033D01*
X45190954Y-67641584D01*
X45213325Y-67657343D01*
X45216534Y-67658343D01*
X45235374Y-67650469D01*
X45273820Y-67628578D01*
X45327670Y-67595267D01*
X45392724Y-67553131D01*
X45463060Y-67505943D01*
X45534445Y-67457810D01*
X45598092Y-67415928D01*
X45649959Y-67382871D01*
X45686005Y-67361218D01*
X45702133Y-67353543D01*
X45721811Y-67360037D01*
X45759125Y-67377150D01*
X45806379Y-67401326D01*
X45811388Y-67404013D01*
X45875023Y-67435927D01*
X45918659Y-67451579D01*
X45945798Y-67451745D01*
X45959943Y-67437204D01*
X45960025Y-67437000D01*
X45967095Y-67419779D01*
X45983958Y-67378899D01*
X46009305Y-67317525D01*
X46041829Y-67238819D01*
X46080222Y-67145947D01*
X46123178Y-67042072D01*
X46164778Y-66941502D01*
X46210496Y-66830516D01*
X46252474Y-66727703D01*
X46289452Y-66636215D01*
X46320173Y-66559201D01*
X46343378Y-66499815D01*
X46357810Y-66461209D01*
X46362257Y-66446800D01*
X46351104Y-66430272D01*
X46321931Y-66403930D01*
X46283029Y-66374887D01*
X46172243Y-66283039D01*
X46085649Y-66177759D01*
X46024284Y-66061266D01*
X45989185Y-65935776D01*
X45981392Y-65803507D01*
X45987057Y-65742457D01*
X46017922Y-65615795D01*
X46071080Y-65503941D01*
X46143233Y-65408001D01*
X46231083Y-65329076D01*
X46331335Y-65268270D01*
X46440690Y-65226687D01*
X46555853Y-65205428D01*
X46673525Y-65205599D01*
X46790410Y-65228301D01*
X46903211Y-65274638D01*
X47008631Y-65345713D01*
X47052632Y-65385911D01*
X47137021Y-65489129D01*
X47195778Y-65601925D01*
X47229296Y-65721010D01*
X47237965Y-65843095D01*
X47222177Y-65964893D01*
X47182322Y-66083116D01*
X47118793Y-66194475D01*
X47031979Y-66295684D01*
X46934971Y-66374887D01*
X46894563Y-66405162D01*
X46866018Y-66431219D01*
X46855743Y-66446825D01*
X46861123Y-66463843D01*
X46876425Y-66504500D01*
X46900388Y-66565642D01*
X46931756Y-66644119D01*
X46969268Y-66736780D01*
X47011667Y-66840472D01*
X47053337Y-66941526D01*
X47099310Y-67052607D01*
X47141893Y-67155541D01*
X47179779Y-67247165D01*
X47211660Y-67324316D01*
X47236229Y-67383831D01*
X47252180Y-67422544D01*
X47258090Y-67437000D01*
X47272052Y-67451685D01*
X47299060Y-67451642D01*
X47342587Y-67436099D01*
X47406110Y-67404284D01*
X47406612Y-67404013D01*
X47454440Y-67379323D01*
X47493103Y-67361338D01*
X47514905Y-67353614D01*
X47515867Y-67353543D01*
X47532279Y-67361378D01*
X47568513Y-67383165D01*
X47620526Y-67416328D01*
X47684275Y-67458291D01*
X47754940Y-67505943D01*
X47826884Y-67554191D01*
X47891726Y-67596151D01*
X47945265Y-67629227D01*
X47983303Y-67650821D01*
X48001467Y-67658343D01*
X48018192Y-67648457D01*
X48051820Y-67620826D01*
X48098990Y-67578495D01*
X48156342Y-67524505D01*
X48220516Y-67461899D01*
X48241503Y-67440983D01*
X48458501Y-67223623D01*
X48293332Y-66981220D01*
X48243136Y-66906781D01*
X48199081Y-66839972D01*
X48163638Y-66784665D01*
X48139281Y-66744729D01*
X48128478Y-66724036D01*
X48128162Y-66722563D01*
X48133857Y-66703058D01*
X48149174Y-66663822D01*
X48171463Y-66611430D01*
X48187107Y-66576355D01*
X48216359Y-66509201D01*
X48243906Y-66441358D01*
X48265263Y-66384034D01*
X48271065Y-66366572D01*
X48287548Y-66319938D01*
X48303660Y-66283905D01*
X48312510Y-66270287D01*
X48332040Y-66261952D01*
X48374666Y-66250137D01*
X48434855Y-66236181D01*
X48507078Y-66221422D01*
X48539400Y-66215355D01*
X48621478Y-66200273D01*
X48700205Y-66185669D01*
X48767891Y-66172980D01*
X48816840Y-66163642D01*
X48826057Y-66161839D01*
X48902257Y-66146799D01*
X48902257Y-65829492D01*
X48902086Y-65725154D01*
X48901384Y-65646213D01*
X48899866Y-65589038D01*
X48897251Y-65549999D01*
X48893254Y-65525465D01*
X48887591Y-65511805D01*
X48879980Y-65505389D01*
X48876857Y-65504199D01*
X48858022Y-65499980D01*
X48816412Y-65491562D01*
X48757370Y-65479961D01*
X48686243Y-65466195D01*
X48608375Y-65451280D01*
X48529113Y-65436232D01*
X48453802Y-65422069D01*
X48387787Y-65409806D01*
X48336413Y-65400461D01*
X48305025Y-65395050D01*
X48298041Y-65394114D01*
X48291715Y-65381596D01*
X48277710Y-65348246D01*
X48258645Y-65300377D01*
X48251366Y-65281629D01*
X48222004Y-65209195D01*
X48187429Y-65129170D01*
X48156463Y-65061728D01*
X48133677Y-65010159D01*
X48118518Y-64967785D01*
X48113458Y-64941834D01*
X48114264Y-64938356D01*
X48124959Y-64921936D01*
X48149380Y-64885417D01*
X48184905Y-64832687D01*
X48228913Y-64767635D01*
X48278783Y-64694151D01*
X48288644Y-64679645D01*
X48346508Y-64593704D01*
X48389044Y-64528261D01*
X48417946Y-64480304D01*
X48434910Y-64446820D01*
X48441633Y-64424795D01*
X48439810Y-64411217D01*
X48439764Y-64411131D01*
X48425414Y-64393297D01*
X48393677Y-64358817D01*
X48347990Y-64311268D01*
X48291796Y-64254222D01*
X48228532Y-64191255D01*
X48221398Y-64184227D01*
X48141670Y-64107020D01*
X48080143Y-64050330D01*
X48035579Y-64013110D01*
X48006743Y-63994315D01*
X47994042Y-63991889D01*
X47975506Y-64002471D01*
X47937039Y-64026916D01*
X47882614Y-64062612D01*
X47816202Y-64106947D01*
X47741775Y-64157311D01*
X47724399Y-64169160D01*
X47477703Y-64337626D01*
X47366294Y-64287062D01*
X47298543Y-64257595D01*
X47225817Y-64227959D01*
X47163297Y-64204330D01*
X47160543Y-64203358D01*
X47111640Y-64185457D01*
X47073943Y-64170320D01*
X47055575Y-64161210D01*
X47055544Y-64161184D01*
X47049715Y-64144717D01*
X47039808Y-64104219D01*
X47026805Y-64044242D01*
X47011691Y-63969340D01*
X46995448Y-63884064D01*
X46994119Y-63876875D01*
X46977825Y-63789014D01*
X46962867Y-63709260D01*
X46950209Y-63642681D01*
X46940814Y-63594347D01*
X46935646Y-63569325D01*
X46935556Y-63568943D01*
X46932411Y-63558299D01*
X46926296Y-63550262D01*
X46913547Y-63544467D01*
X46890500Y-63540547D01*
X46853491Y-63538135D01*
X46798856Y-63536865D01*
X46722933Y-63536371D01*
X46622056Y-63536286D01*
X46609000Y-63536286D01*
X46505090Y-63536348D01*
G36*
X43455405Y-68260966D02*
X43397979Y-68298497D01*
X43370281Y-68332096D01*
X43348338Y-68393064D01*
X43346595Y-68441308D01*
X43350543Y-68505816D01*
X43499314Y-68570934D01*
X43571651Y-68604202D01*
X43618916Y-68630964D01*
X43643493Y-68654144D01*
X43647763Y-68676667D01*
X43634111Y-68701455D01*
X43619057Y-68717886D01*
X43575254Y-68744235D01*
X43527611Y-68746081D01*
X43483855Y-68725546D01*
X43451711Y-68684752D01*
X43445962Y-68670347D01*
X43418424Y-68625356D01*
X43386742Y-68606182D01*
X43343286Y-68589779D01*
X43343286Y-68651966D01*
X43347128Y-68694283D01*
X43362177Y-68729969D01*
X43393720Y-68770943D01*
X43398408Y-68776267D01*
X43433494Y-68812720D01*
X43463653Y-68832283D01*
X43501385Y-68841283D01*
X43532665Y-68844230D01*
X43588615Y-68844965D01*
X43628445Y-68835660D01*
X43653292Y-68821846D01*
X43692344Y-68791467D01*
X43719375Y-68758613D01*
X43736483Y-68717294D01*
X43745762Y-68661521D01*
X43749307Y-68585305D01*
X43749590Y-68546622D01*
X43748628Y-68500247D01*
X43660993Y-68500247D01*
X43659977Y-68525126D01*
X43657444Y-68529200D01*
X43640726Y-68523665D01*
X43604751Y-68509017D01*
X43556669Y-68488190D01*
X43546614Y-68483714D01*
X43485848Y-68452814D01*
X43452368Y-68425657D01*
X43445010Y-68400220D01*
X43462609Y-68374481D01*
X43477144Y-68363109D01*
X43529590Y-68340364D01*
X43578678Y-68344122D01*
X43619773Y-68371884D01*
X43648242Y-68421152D01*
X43657369Y-68460257D01*
X43660993Y-68500247D01*
X43748628Y-68500247D01*
X43747715Y-68456249D01*
X43740804Y-68389384D01*
X43727116Y-68340695D01*
X43704904Y-68304849D01*
X43672426Y-68276513D01*
X43658267Y-68267355D01*
X43593947Y-68243507D01*
X43523527Y-68242006D01*
X43455405Y-68260966D01*
X43455405Y-68260966D01*
G37*
X43455405Y-68260966D02*
X43397979Y-68298497D01*
X43370281Y-68332096D01*
X43348338Y-68393064D01*
X43346595Y-68441308D01*
X43350543Y-68505816D01*
X43499314Y-68570934D01*
X43571651Y-68604202D01*
X43618916Y-68630964D01*
X43643493Y-68654144D01*
X43647763Y-68676667D01*
X43634111Y-68701455D01*
X43619057Y-68717886D01*
X43575254Y-68744235D01*
X43527611Y-68746081D01*
X43483855Y-68725546D01*
X43451711Y-68684752D01*
X43445962Y-68670347D01*
X43418424Y-68625356D01*
X43386742Y-68606182D01*
X43343286Y-68589779D01*
X43343286Y-68651966D01*
X43347128Y-68694283D01*
X43362177Y-68729969D01*
X43393720Y-68770943D01*
X43398408Y-68776267D01*
X43433494Y-68812720D01*
X43463653Y-68832283D01*
X43501385Y-68841283D01*
X43532665Y-68844230D01*
X43588615Y-68844965D01*
X43628445Y-68835660D01*
X43653292Y-68821846D01*
X43692344Y-68791467D01*
X43719375Y-68758613D01*
X43736483Y-68717294D01*
X43745762Y-68661521D01*
X43749307Y-68585305D01*
X43749590Y-68546622D01*
X43748628Y-68500247D01*
X43660993Y-68500247D01*
X43659977Y-68525126D01*
X43657444Y-68529200D01*
X43640726Y-68523665D01*
X43604751Y-68509017D01*
X43556669Y-68488190D01*
X43546614Y-68483714D01*
X43485848Y-68452814D01*
X43452368Y-68425657D01*
X43445010Y-68400220D01*
X43462609Y-68374481D01*
X43477144Y-68363109D01*
X43529590Y-68340364D01*
X43578678Y-68344122D01*
X43619773Y-68371884D01*
X43648242Y-68421152D01*
X43657369Y-68460257D01*
X43660993Y-68500247D01*
X43748628Y-68500247D01*
X43747715Y-68456249D01*
X43740804Y-68389384D01*
X43727116Y-68340695D01*
X43704904Y-68304849D01*
X43672426Y-68276513D01*
X43658267Y-68267355D01*
X43593947Y-68243507D01*
X43523527Y-68242006D01*
X43455405Y-68260966D01*
G36*
X43956400Y-68252752D02*
X43939052Y-68260334D01*
X43897644Y-68293128D01*
X43862235Y-68340547D01*
X43840336Y-68391151D01*
X43836771Y-68416098D01*
X43848721Y-68450927D01*
X43874933Y-68469357D01*
X43903036Y-68480516D01*
X43915905Y-68482572D01*
X43922171Y-68467649D01*
X43934544Y-68435175D01*
X43939972Y-68420502D01*
X43970410Y-68369744D01*
X44014480Y-68344427D01*
X44070990Y-68345206D01*
X44075175Y-68346203D01*
X44105345Y-68360507D01*
X44127524Y-68388393D01*
X44142673Y-68433287D01*
X44151750Y-68498615D01*
X44155714Y-68587804D01*
X44156086Y-68635261D01*
X44156270Y-68710071D01*
X44157478Y-68761069D01*
X44160691Y-68793471D01*
X44166891Y-68812495D01*
X44177060Y-68823356D01*
X44192181Y-68831272D01*
X44193054Y-68831670D01*
X44222172Y-68843981D01*
X44236597Y-68848514D01*
X44238814Y-68834809D01*
X44240711Y-68796925D01*
X44242153Y-68739715D01*
X44243002Y-68668027D01*
X44243171Y-68615565D01*
X44242308Y-68514047D01*
X44238930Y-68437032D01*
X44231858Y-68380023D01*
X44219912Y-68338526D01*
X44201910Y-68308043D01*
X44176673Y-68284080D01*
X44151753Y-68267355D01*
X44091829Y-68245097D01*
X44022089Y-68240076D01*
X43956400Y-68252752D01*
X43956400Y-68252752D01*
G37*
X43956400Y-68252752D02*
X43939052Y-68260334D01*
X43897644Y-68293128D01*
X43862235Y-68340547D01*
X43840336Y-68391151D01*
X43836771Y-68416098D01*
X43848721Y-68450927D01*
X43874933Y-68469357D01*
X43903036Y-68480516D01*
X43915905Y-68482572D01*
X43922171Y-68467649D01*
X43934544Y-68435175D01*
X43939972Y-68420502D01*
X43970410Y-68369744D01*
X44014480Y-68344427D01*
X44070990Y-68345206D01*
X44075175Y-68346203D01*
X44105345Y-68360507D01*
X44127524Y-68388393D01*
X44142673Y-68433287D01*
X44151750Y-68498615D01*
X44155714Y-68587804D01*
X44156086Y-68635261D01*
X44156270Y-68710071D01*
X44157478Y-68761069D01*
X44160691Y-68793471D01*
X44166891Y-68812495D01*
X44177060Y-68823356D01*
X44192181Y-68831272D01*
X44193054Y-68831670D01*
X44222172Y-68843981D01*
X44236597Y-68848514D01*
X44238814Y-68834809D01*
X44240711Y-68796925D01*
X44242153Y-68739715D01*
X44243002Y-68668027D01*
X44243171Y-68615565D01*
X44242308Y-68514047D01*
X44238930Y-68437032D01*
X44231858Y-68380023D01*
X44219912Y-68338526D01*
X44201910Y-68308043D01*
X44176673Y-68284080D01*
X44151753Y-68267355D01*
X44091829Y-68245097D01*
X44022089Y-68240076D01*
X43956400Y-68252752D01*
G36*
X44464124Y-68250335D02*
X44422333Y-68269344D01*
X44389531Y-68292378D01*
X44365497Y-68318133D01*
X44348903Y-68351358D01*
X44338423Y-68396800D01*
X44332729Y-68459207D01*
X44330493Y-68543327D01*
X44330257Y-68598721D01*
X44330257Y-68814826D01*
X44367226Y-68831670D01*
X44396344Y-68843981D01*
X44410769Y-68848514D01*
X44413528Y-68835025D01*
X44415718Y-68798653D01*
X44417058Y-68745542D01*
X44417343Y-68703372D01*
X44418566Y-68642447D01*
X44421864Y-68594115D01*
X44426679Y-68564518D01*
X44430504Y-68558229D01*
X44456217Y-68564652D01*
X44496582Y-68581125D01*
X44543321Y-68603458D01*
X44588155Y-68627457D01*
X44622807Y-68648930D01*
X44638998Y-68663685D01*
X44639062Y-68663845D01*
X44637670Y-68691152D01*
X44625182Y-68717219D01*
X44603257Y-68738392D01*
X44571257Y-68745474D01*
X44543908Y-68744649D01*
X44505174Y-68744042D01*
X44484842Y-68753116D01*
X44472631Y-68777092D01*
X44471091Y-68781613D01*
X44465797Y-68815806D01*
X44479953Y-68836568D01*
X44516852Y-68846462D01*
X44556711Y-68848292D01*
X44628438Y-68834727D01*
X44665568Y-68815355D01*
X44711424Y-68769845D01*
X44735744Y-68713983D01*
X44737927Y-68654957D01*
X44717371Y-68599953D01*
X44686451Y-68565486D01*
X44655580Y-68546189D01*
X44607058Y-68521759D01*
X44550515Y-68496985D01*
X44541090Y-68493199D01*
X44478981Y-68465791D01*
X44443178Y-68441634D01*
X44431663Y-68417619D01*
X44442420Y-68390635D01*
X44460886Y-68369543D01*
X44504531Y-68343572D01*
X44552554Y-68341624D01*
X44596594Y-68361637D01*
X44628291Y-68401551D01*
X44632451Y-68411848D01*
X44656673Y-68449724D01*
X44692035Y-68477842D01*
X44736657Y-68500917D01*
X44736657Y-68435485D01*
X44734031Y-68395506D01*
X44722770Y-68363997D01*
X44697801Y-68330378D01*
X44673831Y-68304484D01*
X44636559Y-68267817D01*
X44607599Y-68248121D01*
X44576495Y-68240220D01*
X44541287Y-68238914D01*
X44464124Y-68250335D01*
X44464124Y-68250335D01*
G37*
X44464124Y-68250335D02*
X44422333Y-68269344D01*
X44389531Y-68292378D01*
X44365497Y-68318133D01*
X44348903Y-68351358D01*
X44338423Y-68396800D01*
X44332729Y-68459207D01*
X44330493Y-68543327D01*
X44330257Y-68598721D01*
X44330257Y-68814826D01*
X44367226Y-68831670D01*
X44396344Y-68843981D01*
X44410769Y-68848514D01*
X44413528Y-68835025D01*
X44415718Y-68798653D01*
X44417058Y-68745542D01*
X44417343Y-68703372D01*
X44418566Y-68642447D01*
X44421864Y-68594115D01*
X44426679Y-68564518D01*
X44430504Y-68558229D01*
X44456217Y-68564652D01*
X44496582Y-68581125D01*
X44543321Y-68603458D01*
X44588155Y-68627457D01*
X44622807Y-68648930D01*
X44638998Y-68663685D01*
X44639062Y-68663845D01*
X44637670Y-68691152D01*
X44625182Y-68717219D01*
X44603257Y-68738392D01*
X44571257Y-68745474D01*
X44543908Y-68744649D01*
X44505174Y-68744042D01*
X44484842Y-68753116D01*
X44472631Y-68777092D01*
X44471091Y-68781613D01*
X44465797Y-68815806D01*
X44479953Y-68836568D01*
X44516852Y-68846462D01*
X44556711Y-68848292D01*
X44628438Y-68834727D01*
X44665568Y-68815355D01*
X44711424Y-68769845D01*
X44735744Y-68713983D01*
X44737927Y-68654957D01*
X44717371Y-68599953D01*
X44686451Y-68565486D01*
X44655580Y-68546189D01*
X44607058Y-68521759D01*
X44550515Y-68496985D01*
X44541090Y-68493199D01*
X44478981Y-68465791D01*
X44443178Y-68441634D01*
X44431663Y-68417619D01*
X44442420Y-68390635D01*
X44460886Y-68369543D01*
X44504531Y-68343572D01*
X44552554Y-68341624D01*
X44596594Y-68361637D01*
X44628291Y-68401551D01*
X44632451Y-68411848D01*
X44656673Y-68449724D01*
X44692035Y-68477842D01*
X44736657Y-68500917D01*
X44736657Y-68435485D01*
X44734031Y-68395506D01*
X44722770Y-68363997D01*
X44697801Y-68330378D01*
X44673831Y-68304484D01*
X44636559Y-68267817D01*
X44607599Y-68248121D01*
X44576495Y-68240220D01*
X44541287Y-68238914D01*
X44464124Y-68250335D01*
G36*
X44829167Y-68252663D02*
X44826952Y-68290850D01*
X44825216Y-68348886D01*
X44824101Y-68422180D01*
X44823743Y-68499055D01*
X44823743Y-68759196D01*
X44869674Y-68805127D01*
X44901325Y-68833429D01*
X44929110Y-68844893D01*
X44967085Y-68844168D01*
X44982160Y-68842321D01*
X45029274Y-68836948D01*
X45068244Y-68833869D01*
X45077743Y-68833585D01*
X45109767Y-68835445D01*
X45155568Y-68840114D01*
X45173326Y-68842321D01*
X45216943Y-68845735D01*
X45246255Y-68838320D01*
X45275320Y-68815427D01*
X45285812Y-68805127D01*
X45331743Y-68759196D01*
X45331743Y-68272602D01*
X45294774Y-68255758D01*
X45262941Y-68243282D01*
X45244317Y-68238914D01*
X45239542Y-68252718D01*
X45235079Y-68291286D01*
X45231225Y-68350356D01*
X45228278Y-68425663D01*
X45226857Y-68489286D01*
X45222886Y-68739657D01*
X45188241Y-68744556D01*
X45156732Y-68741131D01*
X45141292Y-68730041D01*
X45136977Y-68709308D01*
X45133292Y-68665145D01*
X45130531Y-68603146D01*
X45128988Y-68528909D01*
X45128765Y-68490706D01*
X45128543Y-68270783D01*
X45082834Y-68254849D01*
X45050482Y-68244015D01*
X45032885Y-68238962D01*
X45032377Y-68238914D01*
X45030612Y-68252648D01*
X45028671Y-68290730D01*
X45026718Y-68348482D01*
X45024916Y-68421227D01*
X45023657Y-68489286D01*
X45019686Y-68739657D01*
X44932600Y-68739657D01*
X44928604Y-68511240D01*
X44924608Y-68282822D01*
X44882153Y-68260868D01*
X44850808Y-68245793D01*
X44832256Y-68238951D01*
X44831721Y-68238914D01*
X44829167Y-68252663D01*
X44829167Y-68252663D01*
G37*
X44829167Y-68252663D02*
X44826952Y-68290850D01*
X44825216Y-68348886D01*
X44824101Y-68422180D01*
X44823743Y-68499055D01*
X44823743Y-68759196D01*
X44869674Y-68805127D01*
X44901325Y-68833429D01*
X44929110Y-68844893D01*
X44967085Y-68844168D01*
X44982160Y-68842321D01*
X45029274Y-68836948D01*
X45068244Y-68833869D01*
X45077743Y-68833585D01*
X45109767Y-68835445D01*
X45155568Y-68840114D01*
X45173326Y-68842321D01*
X45216943Y-68845735D01*
X45246255Y-68838320D01*
X45275320Y-68815427D01*
X45285812Y-68805127D01*
X45331743Y-68759196D01*
X45331743Y-68272602D01*
X45294774Y-68255758D01*
X45262941Y-68243282D01*
X45244317Y-68238914D01*
X45239542Y-68252718D01*
X45235079Y-68291286D01*
X45231225Y-68350356D01*
X45228278Y-68425663D01*
X45226857Y-68489286D01*
X45222886Y-68739657D01*
X45188241Y-68744556D01*
X45156732Y-68741131D01*
X45141292Y-68730041D01*
X45136977Y-68709308D01*
X45133292Y-68665145D01*
X45130531Y-68603146D01*
X45128988Y-68528909D01*
X45128765Y-68490706D01*
X45128543Y-68270783D01*
X45082834Y-68254849D01*
X45050482Y-68244015D01*
X45032885Y-68238962D01*
X45032377Y-68238914D01*
X45030612Y-68252648D01*
X45028671Y-68290730D01*
X45026718Y-68348482D01*
X45024916Y-68421227D01*
X45023657Y-68489286D01*
X45019686Y-68739657D01*
X44932600Y-68739657D01*
X44928604Y-68511240D01*
X44924608Y-68282822D01*
X44882153Y-68260868D01*
X44850808Y-68245793D01*
X44832256Y-68238951D01*
X44831721Y-68238914D01*
X44829167Y-68252663D01*
G36*
X45418883Y-68359358D02*
X45419067Y-68467837D01*
X45419781Y-68551287D01*
X45421325Y-68613704D01*
X45423999Y-68659085D01*
X45428106Y-68691429D01*
X45433945Y-68714733D01*
X45441818Y-68732995D01*
X45447779Y-68743418D01*
X45497145Y-68799945D01*
X45559736Y-68835377D01*
X45628987Y-68848090D01*
X45698332Y-68836463D01*
X45739625Y-68815568D01*
X45782975Y-68779422D01*
X45812519Y-68735276D01*
X45830345Y-68677462D01*
X45838537Y-68600313D01*
X45839698Y-68543714D01*
X45839542Y-68539647D01*
X45738143Y-68539647D01*
X45737524Y-68604550D01*
X45734686Y-68647514D01*
X45728160Y-68675622D01*
X45716477Y-68695953D01*
X45702517Y-68711288D01*
X45655635Y-68740890D01*
X45605299Y-68743419D01*
X45557724Y-68718705D01*
X45554021Y-68715356D01*
X45538217Y-68697935D01*
X45528307Y-68677209D01*
X45522942Y-68646362D01*
X45520772Y-68598577D01*
X45520429Y-68545748D01*
X45521173Y-68479381D01*
X45524252Y-68435106D01*
X45530939Y-68406009D01*
X45542504Y-68385173D01*
X45551987Y-68374107D01*
X45596040Y-68346198D01*
X45646776Y-68342843D01*
X45695204Y-68364159D01*
X45704550Y-68372073D01*
X45720460Y-68389647D01*
X45730390Y-68410587D01*
X45735722Y-68441782D01*
X45737837Y-68490122D01*
X45738143Y-68539647D01*
X45839542Y-68539647D01*
X45836190Y-68452568D01*
X45824274Y-68384086D01*
X45801865Y-68332600D01*
X45766876Y-68292443D01*
X45739625Y-68271861D01*
X45690093Y-68249625D01*
X45632684Y-68239304D01*
X45579318Y-68242067D01*
X45549457Y-68253212D01*
X45537739Y-68256383D01*
X45529963Y-68244557D01*
X45524535Y-68212866D01*
X45520429Y-68164593D01*
X45515933Y-68110829D01*
X45509687Y-68078482D01*
X45498324Y-68059985D01*
X45478472Y-68047770D01*
X45466000Y-68042362D01*
X45418829Y-68022601D01*
X45418883Y-68359358D01*
X45418883Y-68359358D01*
G37*
X45418883Y-68359358D02*
X45419067Y-68467837D01*
X45419781Y-68551287D01*
X45421325Y-68613704D01*
X45423999Y-68659085D01*
X45428106Y-68691429D01*
X45433945Y-68714733D01*
X45441818Y-68732995D01*
X45447779Y-68743418D01*
X45497145Y-68799945D01*
X45559736Y-68835377D01*
X45628987Y-68848090D01*
X45698332Y-68836463D01*
X45739625Y-68815568D01*
X45782975Y-68779422D01*
X45812519Y-68735276D01*
X45830345Y-68677462D01*
X45838537Y-68600313D01*
X45839698Y-68543714D01*
X45839542Y-68539647D01*
X45738143Y-68539647D01*
X45737524Y-68604550D01*
X45734686Y-68647514D01*
X45728160Y-68675622D01*
X45716477Y-68695953D01*
X45702517Y-68711288D01*
X45655635Y-68740890D01*
X45605299Y-68743419D01*
X45557724Y-68718705D01*
X45554021Y-68715356D01*
X45538217Y-68697935D01*
X45528307Y-68677209D01*
X45522942Y-68646362D01*
X45520772Y-68598577D01*
X45520429Y-68545748D01*
X45521173Y-68479381D01*
X45524252Y-68435106D01*
X45530939Y-68406009D01*
X45542504Y-68385173D01*
X45551987Y-68374107D01*
X45596040Y-68346198D01*
X45646776Y-68342843D01*
X45695204Y-68364159D01*
X45704550Y-68372073D01*
X45720460Y-68389647D01*
X45730390Y-68410587D01*
X45735722Y-68441782D01*
X45737837Y-68490122D01*
X45738143Y-68539647D01*
X45839542Y-68539647D01*
X45836190Y-68452568D01*
X45824274Y-68384086D01*
X45801865Y-68332600D01*
X45766876Y-68292443D01*
X45739625Y-68271861D01*
X45690093Y-68249625D01*
X45632684Y-68239304D01*
X45579318Y-68242067D01*
X45549457Y-68253212D01*
X45537739Y-68256383D01*
X45529963Y-68244557D01*
X45524535Y-68212866D01*
X45520429Y-68164593D01*
X45515933Y-68110829D01*
X45509687Y-68078482D01*
X45498324Y-68059985D01*
X45478472Y-68047770D01*
X45466000Y-68042362D01*
X45418829Y-68022601D01*
X45418883Y-68359358D01*
G36*
X46079074Y-68243755D02*
X46013142Y-68268084D01*
X45959727Y-68311117D01*
X45938836Y-68341409D01*
X45916061Y-68396994D01*
X45916534Y-68437186D01*
X45940438Y-68464217D01*
X45949283Y-68468813D01*
X45987470Y-68483144D01*
X46006972Y-68479472D01*
X46013578Y-68455407D01*
X46013914Y-68442114D01*
X46026008Y-68393210D01*
X46057529Y-68358999D01*
X46101341Y-68342476D01*
X46150305Y-68346634D01*
X46190106Y-68368227D01*
X46203550Y-68380544D01*
X46213079Y-68395487D01*
X46219515Y-68418075D01*
X46223683Y-68453328D01*
X46226403Y-68506266D01*
X46228498Y-68581907D01*
X46229040Y-68605857D01*
X46231019Y-68687790D01*
X46233269Y-68745455D01*
X46236643Y-68783608D01*
X46241994Y-68807004D01*
X46250176Y-68820398D01*
X46262041Y-68828545D01*
X46269638Y-68832144D01*
X46301898Y-68844452D01*
X46320889Y-68848514D01*
X46327164Y-68834948D01*
X46330994Y-68793934D01*
X46332400Y-68724999D01*
X46331402Y-68627669D01*
X46331092Y-68612657D01*
X46328899Y-68523859D01*
X46326307Y-68459019D01*
X46322618Y-68413067D01*
X46317136Y-68380935D01*
X46309165Y-68357553D01*
X46298007Y-68337852D01*
X46292170Y-68329410D01*
X46258704Y-68292057D01*
X46221273Y-68263003D01*
X46216691Y-68260467D01*
X46149574Y-68240443D01*
X46079074Y-68243755D01*
X46079074Y-68243755D01*
G37*
X46079074Y-68243755D02*
X46013142Y-68268084D01*
X45959727Y-68311117D01*
X45938836Y-68341409D01*
X45916061Y-68396994D01*
X45916534Y-68437186D01*
X45940438Y-68464217D01*
X45949283Y-68468813D01*
X45987470Y-68483144D01*
X46006972Y-68479472D01*
X46013578Y-68455407D01*
X46013914Y-68442114D01*
X46026008Y-68393210D01*
X46057529Y-68358999D01*
X46101341Y-68342476D01*
X46150305Y-68346634D01*
X46190106Y-68368227D01*
X46203550Y-68380544D01*
X46213079Y-68395487D01*
X46219515Y-68418075D01*
X46223683Y-68453328D01*
X46226403Y-68506266D01*
X46228498Y-68581907D01*
X46229040Y-68605857D01*
X46231019Y-68687790D01*
X46233269Y-68745455D01*
X46236643Y-68783608D01*
X46241994Y-68807004D01*
X46250176Y-68820398D01*
X46262041Y-68828545D01*
X46269638Y-68832144D01*
X46301898Y-68844452D01*
X46320889Y-68848514D01*
X46327164Y-68834948D01*
X46330994Y-68793934D01*
X46332400Y-68724999D01*
X46331402Y-68627669D01*
X46331092Y-68612657D01*
X46328899Y-68523859D01*
X46326307Y-68459019D01*
X46322618Y-68413067D01*
X46317136Y-68380935D01*
X46309165Y-68357553D01*
X46298007Y-68337852D01*
X46292170Y-68329410D01*
X46258704Y-68292057D01*
X46221273Y-68263003D01*
X46216691Y-68260467D01*
X46149574Y-68240443D01*
X46079074Y-68243755D01*
G36*
X46569256Y-68244968D02*
X46512384Y-68266087D01*
X46511733Y-68266493D01*
X46476560Y-68292380D01*
X46450593Y-68322633D01*
X46432330Y-68362058D01*
X46420268Y-68415462D01*
X46412904Y-68487651D01*
X46408736Y-68583432D01*
X46408371Y-68597078D01*
X46403124Y-68802842D01*
X46447284Y-68825678D01*
X46479237Y-68841110D01*
X46498530Y-68848423D01*
X46499422Y-68848514D01*
X46502761Y-68835022D01*
X46505413Y-68798626D01*
X46507044Y-68745452D01*
X46507400Y-68702393D01*
X46507408Y-68632641D01*
X46510597Y-68588837D01*
X46521712Y-68567944D01*
X46545499Y-68566925D01*
X46586704Y-68582741D01*
X46648914Y-68611815D01*
X46694659Y-68635963D01*
X46718187Y-68656913D01*
X46725104Y-68679747D01*
X46725114Y-68680877D01*
X46713701Y-68720212D01*
X46679908Y-68741462D01*
X46628191Y-68744539D01*
X46590939Y-68744006D01*
X46571297Y-68754735D01*
X46559048Y-68780505D01*
X46551998Y-68813337D01*
X46562158Y-68831966D01*
X46565983Y-68834632D01*
X46601999Y-68845340D01*
X46652434Y-68846856D01*
X46704374Y-68839759D01*
X46741178Y-68826788D01*
X46792062Y-68783585D01*
X46820986Y-68723446D01*
X46826714Y-68676462D01*
X46822343Y-68634082D01*
X46806525Y-68599488D01*
X46775203Y-68568763D01*
X46724322Y-68537990D01*
X46649824Y-68503252D01*
X46645286Y-68501288D01*
X46578179Y-68470287D01*
X46536768Y-68444862D01*
X46519019Y-68422014D01*
X46522893Y-68398745D01*
X46546357Y-68372056D01*
X46553373Y-68365914D01*
X46600370Y-68342100D01*
X46649067Y-68343103D01*
X46691478Y-68366451D01*
X46719616Y-68409675D01*
X46722231Y-68418160D01*
X46747692Y-68459308D01*
X46779999Y-68479128D01*
X46826714Y-68498770D01*
X46826714Y-68447950D01*
X46812504Y-68374082D01*
X46770325Y-68306327D01*
X46748376Y-68283661D01*
X46698483Y-68254569D01*
X46635033Y-68241400D01*
X46569256Y-68244968D01*
X46569256Y-68244968D01*
G37*
X46569256Y-68244968D02*
X46512384Y-68266087D01*
X46511733Y-68266493D01*
X46476560Y-68292380D01*
X46450593Y-68322633D01*
X46432330Y-68362058D01*
X46420268Y-68415462D01*
X46412904Y-68487651D01*
X46408736Y-68583432D01*
X46408371Y-68597078D01*
X46403124Y-68802842D01*
X46447284Y-68825678D01*
X46479237Y-68841110D01*
X46498530Y-68848423D01*
X46499422Y-68848514D01*
X46502761Y-68835022D01*
X46505413Y-68798626D01*
X46507044Y-68745452D01*
X46507400Y-68702393D01*
X46507408Y-68632641D01*
X46510597Y-68588837D01*
X46521712Y-68567944D01*
X46545499Y-68566925D01*
X46586704Y-68582741D01*
X46648914Y-68611815D01*
X46694659Y-68635963D01*
X46718187Y-68656913D01*
X46725104Y-68679747D01*
X46725114Y-68680877D01*
X46713701Y-68720212D01*
X46679908Y-68741462D01*
X46628191Y-68744539D01*
X46590939Y-68744006D01*
X46571297Y-68754735D01*
X46559048Y-68780505D01*
X46551998Y-68813337D01*
X46562158Y-68831966D01*
X46565983Y-68834632D01*
X46601999Y-68845340D01*
X46652434Y-68846856D01*
X46704374Y-68839759D01*
X46741178Y-68826788D01*
X46792062Y-68783585D01*
X46820986Y-68723446D01*
X46826714Y-68676462D01*
X46822343Y-68634082D01*
X46806525Y-68599488D01*
X46775203Y-68568763D01*
X46724322Y-68537990D01*
X46649824Y-68503252D01*
X46645286Y-68501288D01*
X46578179Y-68470287D01*
X46536768Y-68444862D01*
X46519019Y-68422014D01*
X46522893Y-68398745D01*
X46546357Y-68372056D01*
X46553373Y-68365914D01*
X46600370Y-68342100D01*
X46649067Y-68343103D01*
X46691478Y-68366451D01*
X46719616Y-68409675D01*
X46722231Y-68418160D01*
X46747692Y-68459308D01*
X46779999Y-68479128D01*
X46826714Y-68498770D01*
X46826714Y-68447950D01*
X46812504Y-68374082D01*
X46770325Y-68306327D01*
X46748376Y-68283661D01*
X46698483Y-68254569D01*
X46635033Y-68241400D01*
X46569256Y-68244968D01*
G36*
X47233114Y-68145289D02*
X47228861Y-68204613D01*
X47223975Y-68239572D01*
X47217205Y-68254820D01*
X47207298Y-68255015D01*
X47204086Y-68253195D01*
X47161356Y-68240015D01*
X47105773Y-68240785D01*
X47049263Y-68254333D01*
X47013918Y-68271861D01*
X46977679Y-68299861D01*
X46951187Y-68331549D01*
X46933001Y-68371813D01*
X46921678Y-68425543D01*
X46915778Y-68497626D01*
X46913857Y-68592951D01*
X46913823Y-68611237D01*
X46913800Y-68816646D01*
X46959509Y-68832580D01*
X46991973Y-68843420D01*
X47009785Y-68848468D01*
X47010309Y-68848514D01*
X47012063Y-68834828D01*
X47013556Y-68797076D01*
X47014674Y-68740224D01*
X47015303Y-68669234D01*
X47015400Y-68626073D01*
X47015602Y-68540973D01*
X47016642Y-68479981D01*
X47019169Y-68438177D01*
X47023836Y-68410642D01*
X47031293Y-68392456D01*
X47042189Y-68378698D01*
X47048993Y-68372073D01*
X47095728Y-68345375D01*
X47146728Y-68343375D01*
X47192999Y-68365955D01*
X47201556Y-68374107D01*
X47214107Y-68389436D01*
X47222812Y-68407618D01*
X47228369Y-68433909D01*
X47231474Y-68473562D01*
X47232824Y-68531832D01*
X47233114Y-68612173D01*
X47233114Y-68816646D01*
X47278823Y-68832580D01*
X47311287Y-68843420D01*
X47329099Y-68848468D01*
X47329623Y-68848514D01*
X47330963Y-68834623D01*
X47332172Y-68795439D01*
X47333199Y-68734700D01*
X47333998Y-68656141D01*
X47334519Y-68563498D01*
X47334714Y-68460509D01*
X47334714Y-68063342D01*
X47287543Y-68043444D01*
X47240371Y-68023547D01*
X47233114Y-68145289D01*
X47233114Y-68145289D01*
G37*
X47233114Y-68145289D02*
X47228861Y-68204613D01*
X47223975Y-68239572D01*
X47217205Y-68254820D01*
X47207298Y-68255015D01*
X47204086Y-68253195D01*
X47161356Y-68240015D01*
X47105773Y-68240785D01*
X47049263Y-68254333D01*
X47013918Y-68271861D01*
X46977679Y-68299861D01*
X46951187Y-68331549D01*
X46933001Y-68371813D01*
X46921678Y-68425543D01*
X46915778Y-68497626D01*
X46913857Y-68592951D01*
X46913823Y-68611237D01*
X46913800Y-68816646D01*
X46959509Y-68832580D01*
X46991973Y-68843420D01*
X47009785Y-68848468D01*
X47010309Y-68848514D01*
X47012063Y-68834828D01*
X47013556Y-68797076D01*
X47014674Y-68740224D01*
X47015303Y-68669234D01*
X47015400Y-68626073D01*
X47015602Y-68540973D01*
X47016642Y-68479981D01*
X47019169Y-68438177D01*
X47023836Y-68410642D01*
X47031293Y-68392456D01*
X47042189Y-68378698D01*
X47048993Y-68372073D01*
X47095728Y-68345375D01*
X47146728Y-68343375D01*
X47192999Y-68365955D01*
X47201556Y-68374107D01*
X47214107Y-68389436D01*
X47222812Y-68407618D01*
X47228369Y-68433909D01*
X47231474Y-68473562D01*
X47232824Y-68531832D01*
X47233114Y-68612173D01*
X47233114Y-68816646D01*
X47278823Y-68832580D01*
X47311287Y-68843420D01*
X47329099Y-68848468D01*
X47329623Y-68848514D01*
X47330963Y-68834623D01*
X47332172Y-68795439D01*
X47333199Y-68734700D01*
X47333998Y-68656141D01*
X47334519Y-68563498D01*
X47334714Y-68460509D01*
X47334714Y-68063342D01*
X47287543Y-68043444D01*
X47240371Y-68023547D01*
X47233114Y-68145289D01*
G36*
X48440697Y-68225239D02*
X48383473Y-68263735D01*
X48339251Y-68319335D01*
X48312833Y-68390086D01*
X48307490Y-68442162D01*
X48308097Y-68463893D01*
X48313178Y-68480531D01*
X48327145Y-68495437D01*
X48354411Y-68511973D01*
X48399388Y-68533498D01*
X48466489Y-68563374D01*
X48466829Y-68563524D01*
X48528593Y-68591813D01*
X48579241Y-68616933D01*
X48613596Y-68636179D01*
X48626482Y-68646848D01*
X48626486Y-68646934D01*
X48615128Y-68670166D01*
X48588569Y-68695774D01*
X48558077Y-68714221D01*
X48542630Y-68717886D01*
X48500485Y-68705212D01*
X48464192Y-68673471D01*
X48446483Y-68638572D01*
X48429448Y-68612845D01*
X48396078Y-68583546D01*
X48356851Y-68558235D01*
X48322244Y-68544471D01*
X48315007Y-68543714D01*
X48306861Y-68556160D01*
X48306370Y-68587972D01*
X48312357Y-68630866D01*
X48323643Y-68676558D01*
X48339050Y-68716761D01*
X48339829Y-68718322D01*
X48386196Y-68783062D01*
X48446289Y-68827097D01*
X48514535Y-68848711D01*
X48585362Y-68846185D01*
X48653196Y-68817804D01*
X48656212Y-68815808D01*
X48709573Y-68767448D01*
X48744660Y-68704352D01*
X48764078Y-68621387D01*
X48766684Y-68598078D01*
X48771299Y-68488055D01*
X48765767Y-68436748D01*
X48626486Y-68436748D01*
X48624676Y-68468753D01*
X48614778Y-68478093D01*
X48590102Y-68471105D01*
X48551205Y-68454587D01*
X48507725Y-68433881D01*
X48506644Y-68433333D01*
X48469791Y-68413949D01*
X48455000Y-68401013D01*
X48458647Y-68387451D01*
X48474005Y-68369632D01*
X48513077Y-68343845D01*
X48555154Y-68341950D01*
X48592897Y-68360717D01*
X48618966Y-68396915D01*
X48626486Y-68436748D01*
X48765767Y-68436748D01*
X48761806Y-68400027D01*
X48737450Y-68330212D01*
X48703544Y-68281302D01*
X48642347Y-68231878D01*
X48574937Y-68207359D01*
X48506120Y-68205797D01*
X48440697Y-68225239D01*
X48440697Y-68225239D01*
G37*
X48440697Y-68225239D02*
X48383473Y-68263735D01*
X48339251Y-68319335D01*
X48312833Y-68390086D01*
X48307490Y-68442162D01*
X48308097Y-68463893D01*
X48313178Y-68480531D01*
X48327145Y-68495437D01*
X48354411Y-68511973D01*
X48399388Y-68533498D01*
X48466489Y-68563374D01*
X48466829Y-68563524D01*
X48528593Y-68591813D01*
X48579241Y-68616933D01*
X48613596Y-68636179D01*
X48626482Y-68646848D01*
X48626486Y-68646934D01*
X48615128Y-68670166D01*
X48588569Y-68695774D01*
X48558077Y-68714221D01*
X48542630Y-68717886D01*
X48500485Y-68705212D01*
X48464192Y-68673471D01*
X48446483Y-68638572D01*
X48429448Y-68612845D01*
X48396078Y-68583546D01*
X48356851Y-68558235D01*
X48322244Y-68544471D01*
X48315007Y-68543714D01*
X48306861Y-68556160D01*
X48306370Y-68587972D01*
X48312357Y-68630866D01*
X48323643Y-68676558D01*
X48339050Y-68716761D01*
X48339829Y-68718322D01*
X48386196Y-68783062D01*
X48446289Y-68827097D01*
X48514535Y-68848711D01*
X48585362Y-68846185D01*
X48653196Y-68817804D01*
X48656212Y-68815808D01*
X48709573Y-68767448D01*
X48744660Y-68704352D01*
X48764078Y-68621387D01*
X48766684Y-68598078D01*
X48771299Y-68488055D01*
X48765767Y-68436748D01*
X48626486Y-68436748D01*
X48624676Y-68468753D01*
X48614778Y-68478093D01*
X48590102Y-68471105D01*
X48551205Y-68454587D01*
X48507725Y-68433881D01*
X48506644Y-68433333D01*
X48469791Y-68413949D01*
X48455000Y-68401013D01*
X48458647Y-68387451D01*
X48474005Y-68369632D01*
X48513077Y-68343845D01*
X48555154Y-68341950D01*
X48592897Y-68360717D01*
X48618966Y-68396915D01*
X48626486Y-68436748D01*
X48765767Y-68436748D01*
X48761806Y-68400027D01*
X48737450Y-68330212D01*
X48703544Y-68281302D01*
X48642347Y-68231878D01*
X48574937Y-68207359D01*
X48506120Y-68205797D01*
X48440697Y-68225239D01*
G36*
X49567885Y-68215962D02*
X49499855Y-68251733D01*
X49449649Y-68309301D01*
X49431815Y-68346312D01*
X49417937Y-68401882D01*
X49410833Y-68472096D01*
X49410160Y-68548727D01*
X49415573Y-68623552D01*
X49426730Y-68688342D01*
X49443286Y-68734873D01*
X49448374Y-68742887D01*
X49508645Y-68802707D01*
X49580231Y-68838535D01*
X49657908Y-68849020D01*
X49736452Y-68832810D01*
X49758311Y-68823092D01*
X49800878Y-68793143D01*
X49838237Y-68753433D01*
X49841768Y-68748397D01*
X49856119Y-68724124D01*
X49865606Y-68698178D01*
X49871210Y-68664022D01*
X49873914Y-68615119D01*
X49874701Y-68544935D01*
X49874714Y-68529200D01*
X49874678Y-68524192D01*
X49729571Y-68524192D01*
X49728727Y-68590430D01*
X49725404Y-68634386D01*
X49718417Y-68662779D01*
X49706584Y-68682325D01*
X49700543Y-68688857D01*
X49665814Y-68713680D01*
X49632097Y-68712548D01*
X49598005Y-68691016D01*
X49577671Y-68668029D01*
X49565629Y-68634478D01*
X49558866Y-68581569D01*
X49558402Y-68575399D01*
X49557248Y-68479513D01*
X49569312Y-68408299D01*
X49594430Y-68362194D01*
X49632440Y-68341635D01*
X49646008Y-68340514D01*
X49681636Y-68346152D01*
X49706006Y-68365686D01*
X49720907Y-68403042D01*
X49728125Y-68462150D01*
X49729571Y-68524192D01*
X49874678Y-68524192D01*
X49874174Y-68454413D01*
X49871904Y-68402159D01*
X49866932Y-68365949D01*
X49858287Y-68339299D01*
X49844995Y-68315722D01*
X49842057Y-68311338D01*
X49792687Y-68252249D01*
X49738891Y-68217947D01*
X49673398Y-68204331D01*
X49651158Y-68203665D01*
X49567885Y-68215962D01*
X49567885Y-68215962D01*
G37*
X49567885Y-68215962D02*
X49499855Y-68251733D01*
X49449649Y-68309301D01*
X49431815Y-68346312D01*
X49417937Y-68401882D01*
X49410833Y-68472096D01*
X49410160Y-68548727D01*
X49415573Y-68623552D01*
X49426730Y-68688342D01*
X49443286Y-68734873D01*
X49448374Y-68742887D01*
X49508645Y-68802707D01*
X49580231Y-68838535D01*
X49657908Y-68849020D01*
X49736452Y-68832810D01*
X49758311Y-68823092D01*
X49800878Y-68793143D01*
X49838237Y-68753433D01*
X49841768Y-68748397D01*
X49856119Y-68724124D01*
X49865606Y-68698178D01*
X49871210Y-68664022D01*
X49873914Y-68615119D01*
X49874701Y-68544935D01*
X49874714Y-68529200D01*
X49874678Y-68524192D01*
X49729571Y-68524192D01*
X49728727Y-68590430D01*
X49725404Y-68634386D01*
X49718417Y-68662779D01*
X49706584Y-68682325D01*
X49700543Y-68688857D01*
X49665814Y-68713680D01*
X49632097Y-68712548D01*
X49598005Y-68691016D01*
X49577671Y-68668029D01*
X49565629Y-68634478D01*
X49558866Y-68581569D01*
X49558402Y-68575399D01*
X49557248Y-68479513D01*
X49569312Y-68408299D01*
X49594430Y-68362194D01*
X49632440Y-68341635D01*
X49646008Y-68340514D01*
X49681636Y-68346152D01*
X49706006Y-68365686D01*
X49720907Y-68403042D01*
X49728125Y-68462150D01*
X49729571Y-68524192D01*
X49874678Y-68524192D01*
X49874174Y-68454413D01*
X49871904Y-68402159D01*
X49866932Y-68365949D01*
X49858287Y-68339299D01*
X49844995Y-68315722D01*
X49842057Y-68311338D01*
X49792687Y-68252249D01*
X49738891Y-68217947D01*
X49673398Y-68204331D01*
X49651158Y-68203665D01*
X49567885Y-68215962D01*
G36*
X47892907Y-68221780D02*
X47846328Y-68248723D01*
X47813943Y-68275466D01*
X47790258Y-68303484D01*
X47773941Y-68337748D01*
X47763661Y-68383227D01*
X47758086Y-68444892D01*
X47755884Y-68527711D01*
X47755629Y-68587246D01*
X47755629Y-68806391D01*
X47817314Y-68834044D01*
X47879000Y-68861697D01*
X47886257Y-68621670D01*
X47889256Y-68532028D01*
X47892402Y-68466962D01*
X47896299Y-68422026D01*
X47901553Y-68392770D01*
X47908769Y-68374748D01*
X47918550Y-68363511D01*
X47921688Y-68361079D01*
X47969239Y-68342083D01*
X48017303Y-68349600D01*
X48045914Y-68369543D01*
X48057553Y-68383675D01*
X48065609Y-68402220D01*
X48070729Y-68430334D01*
X48073559Y-68473173D01*
X48074744Y-68535895D01*
X48074943Y-68601261D01*
X48074982Y-68683268D01*
X48076386Y-68741316D01*
X48081086Y-68780465D01*
X48091013Y-68805780D01*
X48108097Y-68822323D01*
X48134268Y-68835156D01*
X48169225Y-68848491D01*
X48207404Y-68863007D01*
X48202859Y-68605389D01*
X48201029Y-68512519D01*
X48198888Y-68443889D01*
X48195819Y-68394711D01*
X48191206Y-68360198D01*
X48184432Y-68335562D01*
X48174881Y-68316016D01*
X48163366Y-68298770D01*
X48107810Y-68243680D01*
X48040020Y-68211822D01*
X47966287Y-68204191D01*
X47892907Y-68221780D01*
X47892907Y-68221780D01*
G37*
X47892907Y-68221780D02*
X47846328Y-68248723D01*
X47813943Y-68275466D01*
X47790258Y-68303484D01*
X47773941Y-68337748D01*
X47763661Y-68383227D01*
X47758086Y-68444892D01*
X47755884Y-68527711D01*
X47755629Y-68587246D01*
X47755629Y-68806391D01*
X47817314Y-68834044D01*
X47879000Y-68861697D01*
X47886257Y-68621670D01*
X47889256Y-68532028D01*
X47892402Y-68466962D01*
X47896299Y-68422026D01*
X47901553Y-68392770D01*
X47908769Y-68374748D01*
X47918550Y-68363511D01*
X47921688Y-68361079D01*
X47969239Y-68342083D01*
X48017303Y-68349600D01*
X48045914Y-68369543D01*
X48057553Y-68383675D01*
X48065609Y-68402220D01*
X48070729Y-68430334D01*
X48073559Y-68473173D01*
X48074744Y-68535895D01*
X48074943Y-68601261D01*
X48074982Y-68683268D01*
X48076386Y-68741316D01*
X48081086Y-68780465D01*
X48091013Y-68805780D01*
X48108097Y-68822323D01*
X48134268Y-68835156D01*
X48169225Y-68848491D01*
X48207404Y-68863007D01*
X48202859Y-68605389D01*
X48201029Y-68512519D01*
X48198888Y-68443889D01*
X48195819Y-68394711D01*
X48191206Y-68360198D01*
X48184432Y-68335562D01*
X48174881Y-68316016D01*
X48163366Y-68298770D01*
X48107810Y-68243680D01*
X48040020Y-68211822D01*
X47966287Y-68204191D01*
X47892907Y-68221780D01*
G36*
X49009256Y-68213918D02*
X48953799Y-68241568D01*
X48904852Y-68292480D01*
X48891371Y-68311338D01*
X48876686Y-68336015D01*
X48867158Y-68362816D01*
X48861707Y-68398587D01*
X48859253Y-68450169D01*
X48858714Y-68518267D01*
X48861148Y-68611588D01*
X48869606Y-68681657D01*
X48885826Y-68733931D01*
X48911546Y-68773869D01*
X48948503Y-68806929D01*
X48951218Y-68808886D01*
X48987640Y-68828908D01*
X49031498Y-68838815D01*
X49087276Y-68841257D01*
X49177952Y-68841257D01*
X49177990Y-68929283D01*
X49178834Y-68978308D01*
X49183976Y-69007065D01*
X49197413Y-69024311D01*
X49223142Y-69038808D01*
X49229321Y-69041769D01*
X49258236Y-69055648D01*
X49280624Y-69064414D01*
X49297271Y-69065171D01*
X49308964Y-69055023D01*
X49316490Y-69031073D01*
X49320634Y-68990426D01*
X49322185Y-68930186D01*
X49321929Y-68847455D01*
X49320651Y-68739339D01*
X49320252Y-68707000D01*
X49318815Y-68595524D01*
X49317528Y-68522603D01*
X49178029Y-68522603D01*
X49177245Y-68584499D01*
X49173760Y-68624997D01*
X49165876Y-68651708D01*
X49151895Y-68672244D01*
X49142403Y-68682260D01*
X49103596Y-68711567D01*
X49069237Y-68713952D01*
X49033784Y-68689750D01*
X49032886Y-68688857D01*
X49018461Y-68670153D01*
X49009687Y-68644732D01*
X49005261Y-68605584D01*
X49003882Y-68545697D01*
X49003857Y-68532430D01*
X49007188Y-68449901D01*
X49018031Y-68392691D01*
X49037660Y-68357766D01*
X49067350Y-68342094D01*
X49084509Y-68340514D01*
X49125234Y-68347926D01*
X49153168Y-68372330D01*
X49169983Y-68416980D01*
X49177350Y-68485130D01*
X49178029Y-68522603D01*
X49317528Y-68522603D01*
X49317292Y-68509245D01*
X49315323Y-68444333D01*
X49312550Y-68396958D01*
X49308612Y-68363290D01*
X49303151Y-68339498D01*
X49295808Y-68321753D01*
X49286223Y-68306224D01*
X49282113Y-68300381D01*
X49227595Y-68245185D01*
X49158664Y-68213890D01*
X49078928Y-68205165D01*
X49009256Y-68213918D01*
X49009256Y-68213918D01*
G37*
X49009256Y-68213918D02*
X48953799Y-68241568D01*
X48904852Y-68292480D01*
X48891371Y-68311338D01*
X48876686Y-68336015D01*
X48867158Y-68362816D01*
X48861707Y-68398587D01*
X48859253Y-68450169D01*
X48858714Y-68518267D01*
X48861148Y-68611588D01*
X48869606Y-68681657D01*
X48885826Y-68733931D01*
X48911546Y-68773869D01*
X48948503Y-68806929D01*
X48951218Y-68808886D01*
X48987640Y-68828908D01*
X49031498Y-68838815D01*
X49087276Y-68841257D01*
X49177952Y-68841257D01*
X49177990Y-68929283D01*
X49178834Y-68978308D01*
X49183976Y-69007065D01*
X49197413Y-69024311D01*
X49223142Y-69038808D01*
X49229321Y-69041769D01*
X49258236Y-69055648D01*
X49280624Y-69064414D01*
X49297271Y-69065171D01*
X49308964Y-69055023D01*
X49316490Y-69031073D01*
X49320634Y-68990426D01*
X49322185Y-68930186D01*
X49321929Y-68847455D01*
X49320651Y-68739339D01*
X49320252Y-68707000D01*
X49318815Y-68595524D01*
X49317528Y-68522603D01*
X49178029Y-68522603D01*
X49177245Y-68584499D01*
X49173760Y-68624997D01*
X49165876Y-68651708D01*
X49151895Y-68672244D01*
X49142403Y-68682260D01*
X49103596Y-68711567D01*
X49069237Y-68713952D01*
X49033784Y-68689750D01*
X49032886Y-68688857D01*
X49018461Y-68670153D01*
X49009687Y-68644732D01*
X49005261Y-68605584D01*
X49003882Y-68545697D01*
X49003857Y-68532430D01*
X49007188Y-68449901D01*
X49018031Y-68392691D01*
X49037660Y-68357766D01*
X49067350Y-68342094D01*
X49084509Y-68340514D01*
X49125234Y-68347926D01*
X49153168Y-68372330D01*
X49169983Y-68416980D01*
X49177350Y-68485130D01*
X49178029Y-68522603D01*
X49317528Y-68522603D01*
X49317292Y-68509245D01*
X49315323Y-68444333D01*
X49312550Y-68396958D01*
X49308612Y-68363290D01*
X49303151Y-68339498D01*
X49295808Y-68321753D01*
X49286223Y-68306224D01*
X49282113Y-68300381D01*
X49227595Y-68245185D01*
X49158664Y-68213890D01*
X49078928Y-68205165D01*
X49009256Y-68213918D01*
G04 #@! TD*
M02*
