G04 #@! TF.GenerationSoftware,KiCad,Pcbnew,5.0.2-bee76a0~70~ubuntu16.04.1*
G04 #@! TF.CreationDate,2019-02-07T12:57:22-08:00*
G04 #@! TF.ProjectId,wifistepper,77696669-7374-4657-9070-65722e6b6963,rev?*
G04 #@! TF.SameCoordinates,Original*
G04 #@! TF.FileFunction,Copper,L3,Inr*
G04 #@! TF.FilePolarity,Positive*
%FSLAX46Y46*%
G04 Gerber Fmt 4.6, Leading zero omitted, Abs format (unit mm)*
G04 Created by KiCad (PCBNEW 5.0.2-bee76a0~70~ubuntu16.04.1) date Thu 07 Feb 2019 12:57:22 PM PST*
%MOMM*%
%LPD*%
G01*
G04 APERTURE LIST*
G04 #@! TA.AperFunction,ViaPad*
%ADD10R,3.500000X3.500000*%
G04 #@! TD*
G04 #@! TA.AperFunction,Conductor*
%ADD11C,0.100000*%
G04 #@! TD*
G04 #@! TA.AperFunction,ViaPad*
%ADD12C,3.000000*%
G04 #@! TD*
G04 #@! TA.AperFunction,ViaPad*
%ADD13C,3.500000*%
G04 #@! TD*
G04 #@! TA.AperFunction,ViaPad*
%ADD14R,2.600000X2.600000*%
G04 #@! TD*
G04 #@! TA.AperFunction,ViaPad*
%ADD15C,2.600000*%
G04 #@! TD*
G04 #@! TA.AperFunction,ViaPad*
%ADD16R,1.700000X1.700000*%
G04 #@! TD*
G04 #@! TA.AperFunction,ViaPad*
%ADD17O,1.700000X1.700000*%
G04 #@! TD*
G04 #@! TA.AperFunction,ViaPad*
%ADD18C,2.400000*%
G04 #@! TD*
G04 #@! TA.AperFunction,ViaPad*
%ADD19R,2.400000X2.400000*%
G04 #@! TD*
G04 #@! TA.AperFunction,ViaPad*
%ADD20C,0.800000*%
G04 #@! TD*
G04 #@! TA.AperFunction,Conductor*
%ADD21C,0.250000*%
G04 #@! TD*
G04 APERTURE END LIST*
D10*
G04 #@! TO.N,VIN*
G04 #@! TO.C,J1*
X47592500Y-105918000D03*
D11*
G04 #@! TO.N,GND*
G36*
X42416013Y-104171611D02*
X42488818Y-104182411D01*
X42560214Y-104200295D01*
X42629513Y-104225090D01*
X42696048Y-104256559D01*
X42759178Y-104294398D01*
X42818295Y-104338242D01*
X42872830Y-104387670D01*
X42922258Y-104442205D01*
X42966102Y-104501322D01*
X43003941Y-104564452D01*
X43035410Y-104630987D01*
X43060205Y-104700286D01*
X43078089Y-104771682D01*
X43088889Y-104844487D01*
X43092500Y-104918000D01*
X43092500Y-106918000D01*
X43088889Y-106991513D01*
X43078089Y-107064318D01*
X43060205Y-107135714D01*
X43035410Y-107205013D01*
X43003941Y-107271548D01*
X42966102Y-107334678D01*
X42922258Y-107393795D01*
X42872830Y-107448330D01*
X42818295Y-107497758D01*
X42759178Y-107541602D01*
X42696048Y-107579441D01*
X42629513Y-107610910D01*
X42560214Y-107635705D01*
X42488818Y-107653589D01*
X42416013Y-107664389D01*
X42342500Y-107668000D01*
X40842500Y-107668000D01*
X40768987Y-107664389D01*
X40696182Y-107653589D01*
X40624786Y-107635705D01*
X40555487Y-107610910D01*
X40488952Y-107579441D01*
X40425822Y-107541602D01*
X40366705Y-107497758D01*
X40312170Y-107448330D01*
X40262742Y-107393795D01*
X40218898Y-107334678D01*
X40181059Y-107271548D01*
X40149590Y-107205013D01*
X40124795Y-107135714D01*
X40106911Y-107064318D01*
X40096111Y-106991513D01*
X40092500Y-106918000D01*
X40092500Y-104918000D01*
X40096111Y-104844487D01*
X40106911Y-104771682D01*
X40124795Y-104700286D01*
X40149590Y-104630987D01*
X40181059Y-104564452D01*
X40218898Y-104501322D01*
X40262742Y-104442205D01*
X40312170Y-104387670D01*
X40366705Y-104338242D01*
X40425822Y-104294398D01*
X40488952Y-104256559D01*
X40555487Y-104225090D01*
X40624786Y-104200295D01*
X40696182Y-104182411D01*
X40768987Y-104171611D01*
X40842500Y-104168000D01*
X42342500Y-104168000D01*
X42416013Y-104171611D01*
X42416013Y-104171611D01*
G37*
D12*
X41592500Y-105918000D03*
D11*
G04 #@! TO.N,N/C*
G36*
X45553265Y-108872213D02*
X45638204Y-108884813D01*
X45721499Y-108905677D01*
X45802348Y-108934605D01*
X45879972Y-108971319D01*
X45953624Y-109015464D01*
X46022594Y-109066616D01*
X46086218Y-109124282D01*
X46143884Y-109187906D01*
X46195036Y-109256876D01*
X46239181Y-109330528D01*
X46275895Y-109408152D01*
X46304823Y-109489001D01*
X46325687Y-109572296D01*
X46338287Y-109657235D01*
X46342500Y-109743000D01*
X46342500Y-111493000D01*
X46338287Y-111578765D01*
X46325687Y-111663704D01*
X46304823Y-111746999D01*
X46275895Y-111827848D01*
X46239181Y-111905472D01*
X46195036Y-111979124D01*
X46143884Y-112048094D01*
X46086218Y-112111718D01*
X46022594Y-112169384D01*
X45953624Y-112220536D01*
X45879972Y-112264681D01*
X45802348Y-112301395D01*
X45721499Y-112330323D01*
X45638204Y-112351187D01*
X45553265Y-112363787D01*
X45467500Y-112368000D01*
X43717500Y-112368000D01*
X43631735Y-112363787D01*
X43546796Y-112351187D01*
X43463501Y-112330323D01*
X43382652Y-112301395D01*
X43305028Y-112264681D01*
X43231376Y-112220536D01*
X43162406Y-112169384D01*
X43098782Y-112111718D01*
X43041116Y-112048094D01*
X42989964Y-111979124D01*
X42945819Y-111905472D01*
X42909105Y-111827848D01*
X42880177Y-111746999D01*
X42859313Y-111663704D01*
X42846713Y-111578765D01*
X42842500Y-111493000D01*
X42842500Y-109743000D01*
X42846713Y-109657235D01*
X42859313Y-109572296D01*
X42880177Y-109489001D01*
X42909105Y-109408152D01*
X42945819Y-109330528D01*
X42989964Y-109256876D01*
X43041116Y-109187906D01*
X43098782Y-109124282D01*
X43162406Y-109066616D01*
X43231376Y-109015464D01*
X43305028Y-108971319D01*
X43382652Y-108934605D01*
X43463501Y-108905677D01*
X43546796Y-108884813D01*
X43631735Y-108872213D01*
X43717500Y-108868000D01*
X45467500Y-108868000D01*
X45553265Y-108872213D01*
X45553265Y-108872213D01*
G37*
D13*
X44592500Y-110618000D03*
G04 #@! TD*
D14*
G04 #@! TO.N,OUTB2*
G04 #@! TO.C,J2*
X37846000Y-97263000D03*
D15*
G04 #@! TO.N,OUTB1*
X37846000Y-92263000D03*
G04 #@! TO.N,OUTA1*
X37846000Y-87263000D03*
G04 #@! TO.N,OUTA2*
X37846000Y-82263000D03*
G04 #@! TO.N,VIN*
X37846000Y-77263000D03*
G04 #@! TO.N,GND*
X37846000Y-72263000D03*
G04 #@! TD*
D16*
G04 #@! TO.N,VIN*
G04 #@! TO.C,J5*
X78740000Y-92837000D03*
D17*
G04 #@! TO.N,GND*
X81280000Y-92837000D03*
G04 #@! TD*
D16*
G04 #@! TO.N,+3V3*
G04 #@! TO.C,J4*
X78740000Y-116840000D03*
D17*
G04 #@! TO.N,GND*
X81280000Y-116840000D03*
G04 #@! TO.N,Net-(J4-Pad3)*
X83820000Y-116840000D03*
G04 #@! TO.N,Net-(J4-Pad4)*
X86360000Y-116840000D03*
G04 #@! TO.N,Net-(J4-Pad5)*
X88900000Y-116840000D03*
G04 #@! TO.N,Net-(J4-Pad6)*
X91440000Y-116840000D03*
G04 #@! TO.N,Net-(J4-Pad7)*
X93980000Y-116840000D03*
G04 #@! TO.N,Net-(J4-Pad8)*
X96520000Y-116840000D03*
G04 #@! TO.N,Net-(J4-Pad9)*
X99060000Y-116840000D03*
G04 #@! TO.N,Net-(J4-Pad10)*
X101600000Y-116840000D03*
G04 #@! TD*
D16*
G04 #@! TO.N,+3V3*
G04 #@! TO.C,J3*
X78740000Y-63119000D03*
D17*
G04 #@! TO.N,GND*
X81280000Y-63119000D03*
G04 #@! TO.N,Net-(J3-Pad3)*
X83820000Y-63119000D03*
G04 #@! TO.N,Net-(J3-Pad4)*
X86360000Y-63119000D03*
G04 #@! TO.N,Net-(J3-Pad5)*
X88900000Y-63119000D03*
G04 #@! TO.N,Net-(J3-Pad6)*
X91440000Y-63119000D03*
G04 #@! TO.N,Net-(J3-Pad7)*
X93980000Y-63119000D03*
G04 #@! TO.N,Net-(J3-Pad8)*
X96520000Y-63119000D03*
G04 #@! TO.N,Net-(J3-Pad9)*
X99060000Y-63119000D03*
G04 #@! TD*
D18*
G04 #@! TO.N,GND*
G04 #@! TO.C,C10*
X78533000Y-105537000D03*
D19*
G04 #@! TO.N,VIN*
X73533000Y-105537000D03*
G04 #@! TD*
G04 #@! TO.N,VIN*
G04 #@! TO.C,C11*
X73723500Y-74358500D03*
D18*
G04 #@! TO.N,GND*
X78723500Y-74358500D03*
G04 #@! TD*
D20*
G04 #@! TO.N,+3V3*
X84836000Y-106680000D03*
X85852000Y-106680000D03*
X86868000Y-106680000D03*
X104648000Y-96964500D03*
X104711500Y-99631500D03*
X104711500Y-102298500D03*
X103695500Y-66040000D03*
X85217000Y-111125000D03*
X89789000Y-96329500D03*
X93853000Y-106934000D03*
X97345500Y-68961000D03*
X81826418Y-87236618D03*
X90297000Y-111125000D03*
X79311500Y-89408000D03*
X49276000Y-101092000D03*
X78422500Y-110363000D03*
G04 #@! TO.N,GND*
X65405000Y-91249500D03*
X99187000Y-81788000D03*
X97536000Y-81788000D03*
X97536000Y-83439000D03*
X97536000Y-80137000D03*
X95885000Y-81851500D03*
X99187000Y-83439000D03*
X99187000Y-80137000D03*
X95885000Y-80137000D03*
X95885000Y-83439000D03*
X61976000Y-90678000D03*
X64389000Y-90678000D03*
X64389000Y-89027000D03*
X61976000Y-89027000D03*
X63246000Y-89789000D03*
X65405000Y-89789000D03*
X60960000Y-89789000D03*
X63246000Y-91313000D03*
X63246000Y-88201500D03*
X60960000Y-91313000D03*
X65405000Y-88201500D03*
X60960000Y-88201500D03*
X84391500Y-101790500D03*
X87947500Y-97129600D03*
X70358000Y-86677500D03*
X70358000Y-92837000D03*
X87376000Y-104394000D03*
X87947500Y-99123500D03*
X87947500Y-101346000D03*
X86614000Y-95313500D03*
X84201000Y-95250000D03*
X81534000Y-106362500D03*
X44704000Y-64516000D03*
X52832000Y-64516000D03*
X55626000Y-64516000D03*
X50165000Y-64516000D03*
X63754000Y-64516000D03*
X58293000Y-64516000D03*
X41910000Y-64516000D03*
X66548000Y-64516000D03*
X72009000Y-64516000D03*
X47371000Y-64516000D03*
X61087000Y-64516000D03*
X74676000Y-64516000D03*
X69215000Y-64516000D03*
X54229000Y-66167000D03*
X62484000Y-66167000D03*
X70612000Y-66167000D03*
X40640000Y-66167000D03*
X46101000Y-66167000D03*
X43307000Y-66167000D03*
X59690000Y-66167000D03*
X65151000Y-66167000D03*
X73406000Y-66167000D03*
X67945000Y-66167000D03*
X48768000Y-66167000D03*
X57023000Y-66167000D03*
X51562000Y-66167000D03*
X61722000Y-113792000D03*
X72644000Y-113792000D03*
X69977000Y-113792000D03*
X45339000Y-113792000D03*
X48133000Y-113792000D03*
X67183000Y-113792000D03*
X42672000Y-113792000D03*
X50800000Y-113792000D03*
X56261000Y-113792000D03*
X53594000Y-113792000D03*
X64516000Y-113792000D03*
X59055000Y-113792000D03*
X68580000Y-115443000D03*
X63119000Y-115443000D03*
X71247000Y-115443000D03*
X49403000Y-115443000D03*
X65786000Y-115443000D03*
X60325000Y-115443000D03*
X54864000Y-115443000D03*
X57658000Y-115443000D03*
X46736000Y-115443000D03*
X41275000Y-115443000D03*
X43942000Y-115443000D03*
X52197000Y-115443000D03*
X74930000Y-113665000D03*
X73914000Y-115443000D03*
X76517500Y-112077500D03*
X73088500Y-111950500D03*
X76581000Y-114998500D03*
X35433000Y-101219000D03*
X35433000Y-104013000D03*
X35433000Y-106934000D03*
X35433000Y-110109000D03*
X38227000Y-107442000D03*
X38227000Y-105473500D03*
X38163500Y-101917500D03*
X37465000Y-111506000D03*
X39370000Y-110109000D03*
X40894000Y-111887000D03*
X35433000Y-112395000D03*
X47498000Y-111760000D03*
X41910000Y-67818000D03*
X44704000Y-67818000D03*
X38989000Y-67945000D03*
X47498000Y-67945000D03*
X44577000Y-70612000D03*
X42227500Y-70548500D03*
X43243500Y-71755000D03*
X35306000Y-67818000D03*
X50038000Y-67945000D03*
X52705000Y-67945000D03*
X50101500Y-69532500D03*
X47879000Y-72136000D03*
X74676000Y-67691000D03*
X72771000Y-68580000D03*
X76708000Y-66103500D03*
X102870000Y-91503500D03*
X104965500Y-95059500D03*
X90106500Y-106934000D03*
X97345500Y-67373500D03*
X92075000Y-73152000D03*
X94297500Y-98615500D03*
X96900998Y-101409500D03*
X96583500Y-91313000D03*
X101536500Y-62738000D03*
X104457500Y-62674500D03*
X109982000Y-68072000D03*
X105473500Y-68008500D03*
X104330500Y-116903500D03*
X104394000Y-111125000D03*
X110045500Y-112014000D03*
X86931500Y-87820500D03*
X84772500Y-89789000D03*
X88709500Y-91122500D03*
X85280500Y-91567000D03*
X86931500Y-89852500D03*
X86931500Y-92519500D03*
X88900000Y-88963500D03*
X88836500Y-86042500D03*
X85534500Y-93853000D03*
X83629500Y-92900500D03*
X81470500Y-95059500D03*
X78613000Y-95313500D03*
X81597500Y-71564500D03*
X81534000Y-68643500D03*
X81978500Y-74612500D03*
X81915000Y-77343000D03*
X83883500Y-67246500D03*
X82232500Y-80137000D03*
X102235000Y-64897000D03*
X110109000Y-93281500D03*
X110109000Y-103441500D03*
X101092000Y-110998000D03*
X101155500Y-114363500D03*
X106489500Y-109728000D03*
X110172500Y-98107500D03*
X110172500Y-95758000D03*
X110172500Y-101028500D03*
X110045500Y-106489500D03*
X110045500Y-109029500D03*
X107696000Y-111252000D03*
X81724500Y-109156500D03*
X80899000Y-114554000D03*
X82359500Y-112966500D03*
X85090000Y-112839500D03*
X83883500Y-114681000D03*
X88847444Y-76446704D03*
X83883500Y-70104000D03*
X81534000Y-65976500D03*
X83566000Y-72199500D03*
X84836000Y-79946500D03*
X82232500Y-82613500D03*
X77978000Y-89027000D03*
X39306500Y-101092000D03*
X41402000Y-102933500D03*
X39751000Y-102679500D03*
X41021000Y-71564500D03*
X42037000Y-72961500D03*
X81216500Y-99949000D03*
X81407000Y-103314500D03*
X49911000Y-111760000D03*
X80899000Y-111442500D03*
X74422000Y-69850000D03*
X72707500Y-71310500D03*
X74676000Y-108331000D03*
X76073000Y-109474000D03*
X78676500Y-113220500D03*
X78613000Y-69977000D03*
X78613000Y-67056000D03*
X48260000Y-101282500D03*
X76708000Y-71247000D03*
X76708000Y-68643500D03*
X44767500Y-72517000D03*
X46037500Y-71628000D03*
X40195500Y-73025000D03*
X39624000Y-70612000D03*
X39243000Y-106489500D03*
X39243000Y-104521000D03*
X35242500Y-73152000D03*
X35242500Y-70358000D03*
X38227000Y-103632000D03*
X47244000Y-70485000D03*
X46418500Y-89789000D03*
X104203500Y-113347500D03*
X102425500Y-112458500D03*
G04 #@! TO.N,VIN*
X51498500Y-102108000D03*
X54229000Y-102489000D03*
X68834000Y-100330000D03*
X69977000Y-102616000D03*
X73342500Y-99314000D03*
X71755000Y-100901500D03*
X73660000Y-102171500D03*
X73977500Y-79883000D03*
X70675500Y-80899000D03*
X70358000Y-76835000D03*
X68834000Y-79248000D03*
X70866000Y-104711500D03*
X71120000Y-74549000D03*
X47180500Y-74485500D03*
X43370500Y-75057000D03*
X40195500Y-75120500D03*
X40703500Y-78676500D03*
X44323000Y-78168500D03*
X42037000Y-76962000D03*
X52514500Y-75184000D03*
X45593000Y-76009500D03*
X48768000Y-75819000D03*
X51435000Y-76962000D03*
X54038500Y-76962000D03*
X71818500Y-78676500D03*
X73787000Y-77343000D03*
X72263000Y-82359500D03*
X71882000Y-97409000D03*
X70294500Y-98806000D03*
X43180000Y-101219000D03*
X45656500Y-101473000D03*
X47053500Y-102298500D03*
X45720000Y-103251000D03*
X48323500Y-103251000D03*
X47434500Y-108712000D03*
X49022000Y-77660500D03*
X51879500Y-106553000D03*
X52959000Y-102997000D03*
X50419000Y-105029000D03*
X49593500Y-108712000D03*
X50482500Y-107061000D03*
X51943000Y-108267500D03*
X36322000Y-75247500D03*
X36068000Y-79121000D03*
G04 #@! TO.N,SM_RST*
X89934736Y-79457228D03*
X87122000Y-79502000D03*
G04 #@! TO.N,Net-(D5-Pad1)*
X100647500Y-95250000D03*
X91757500Y-94615000D03*
G04 #@! TO.N,OUTA1*
X61849000Y-85471000D03*
X62484000Y-86487000D03*
X61341000Y-86487000D03*
X62484000Y-84582000D03*
X61341000Y-84582000D03*
X55308500Y-86042500D03*
X56515001Y-86438990D03*
G04 #@! TO.N,OUTA2*
X64643000Y-85471000D03*
X65151000Y-86487000D03*
X64008000Y-86487000D03*
X65151000Y-84582000D03*
X64008000Y-84582000D03*
X69850000Y-85788500D03*
G04 #@! TO.N,OUTB1*
X61849000Y-94107000D03*
X62484000Y-93091000D03*
X61341000Y-93091000D03*
X62484000Y-94996000D03*
X61341000Y-94996000D03*
X56515000Y-93726000D03*
X55689500Y-94551500D03*
G04 #@! TO.N,OUTB2*
X64643000Y-94107000D03*
X65151000Y-94996000D03*
X64008000Y-94996000D03*
X65151000Y-93091000D03*
X64008000Y-93091000D03*
X69850000Y-93726000D03*
G04 #@! TO.N,SM_FLAG*
X89916000Y-84264500D03*
X88447445Y-80925295D03*
G04 #@! TO.N,WIFI_RST*
X94170500Y-93789500D03*
X98043998Y-93281500D03*
G04 #@! TO.N,WIFI_ADC*
X98806000Y-94043500D03*
X94932500Y-94549990D03*
G04 #@! TO.N,AUTH_SCK*
X97102247Y-92945160D03*
X93219510Y-93345000D03*
G04 #@! TO.N,AUTH_SDA*
X90932000Y-83375500D03*
X90932000Y-80517998D03*
G04 #@! TO.N,PROG_BOOT*
X91694000Y-84137500D03*
X91694000Y-79629000D03*
G04 #@! TO.N,SM_CLK*
X100330000Y-70167500D03*
X95377000Y-69024500D03*
G04 #@! TO.N,SM_SO*
X98996500Y-73279000D03*
X96583500Y-73279000D03*
G04 #@! TO.N,Net-(JP1-Pad1)*
X58039000Y-70739000D03*
X59372500Y-70739000D03*
X60706000Y-70739000D03*
X62039500Y-70739000D03*
X63373000Y-70739000D03*
X64706500Y-70739000D03*
X66040000Y-70739000D03*
X67373500Y-70739000D03*
X68707000Y-70739000D03*
X58737500Y-71501000D03*
X60071000Y-71501000D03*
X61404500Y-71501000D03*
X62738000Y-71501000D03*
X64071500Y-71501000D03*
X65405000Y-71501000D03*
X66738500Y-71501000D03*
X68072000Y-71501000D03*
X71437500Y-86677500D03*
X66167000Y-79692500D03*
X65405000Y-78930500D03*
X57340500Y-71501000D03*
X56642000Y-70739000D03*
X55943500Y-71501000D03*
G04 #@! TO.N,Net-(JP2-Pad1)*
X55626000Y-108013500D03*
X61023500Y-108013500D03*
X59690000Y-108013500D03*
X58356500Y-108013500D03*
X68389500Y-108775500D03*
X67056000Y-108775500D03*
X65722500Y-108775500D03*
X64389000Y-108775500D03*
X63055500Y-108775500D03*
X61722000Y-108775500D03*
X60388500Y-108775500D03*
X59055000Y-108775500D03*
X57721500Y-108775500D03*
X67691000Y-108013500D03*
X66357500Y-108013500D03*
X65024000Y-108013500D03*
X63690500Y-108013500D03*
X62357000Y-108013500D03*
X71437500Y-92837000D03*
X66103500Y-100139500D03*
X65405000Y-100838000D03*
X57023000Y-108013500D03*
X56324500Y-108775500D03*
G04 #@! TO.N,Net-(J4-Pad7)*
X96710502Y-113792000D03*
G04 #@! TD*
D21*
G04 #@! TO.N,OUTA2*
G36*
X64010586Y-77516267D02*
X64933727Y-78376467D01*
X64790374Y-78519820D01*
X64680000Y-78786288D01*
X64680000Y-79074712D01*
X64790374Y-79341180D01*
X64994320Y-79545126D01*
X65260788Y-79655500D01*
X65442000Y-79655500D01*
X65442000Y-79836712D01*
X65552374Y-80103180D01*
X65756320Y-80307126D01*
X66022788Y-80417500D01*
X66311212Y-80417500D01*
X66577680Y-80307126D01*
X66578746Y-80306060D01*
X71209202Y-84911885D01*
X71249000Y-85007605D01*
X71249000Y-85970845D01*
X71026820Y-86062874D01*
X70897750Y-86191944D01*
X70768680Y-86062874D01*
X70502212Y-85952500D01*
X70213788Y-85952500D01*
X69947320Y-86062874D01*
X69743374Y-86266820D01*
X69633000Y-86533288D01*
X69633000Y-86821712D01*
X69705606Y-86997000D01*
X63597865Y-86997000D01*
X63527250Y-86967750D01*
X63498000Y-86897135D01*
X63498000Y-83925206D01*
X63483628Y-83867012D01*
X63396934Y-83702204D01*
X63357122Y-83657393D01*
X61472556Y-82361754D01*
X61432567Y-82343620D01*
X61298515Y-82309507D01*
X61254722Y-82306320D01*
X40640598Y-84456259D01*
X40626356Y-84457000D01*
X35530865Y-84457000D01*
X35460250Y-84427750D01*
X35431000Y-84357135D01*
X35431000Y-80298365D01*
X35460250Y-80227750D01*
X35530865Y-80198500D01*
X40628355Y-80198500D01*
X40635624Y-80198288D01*
X40658835Y-80196936D01*
X40666073Y-80196303D01*
X63903304Y-77481084D01*
X64010586Y-77516267D01*
X64010586Y-77516267D01*
G37*
X64010586Y-77516267D02*
X64933727Y-78376467D01*
X64790374Y-78519820D01*
X64680000Y-78786288D01*
X64680000Y-79074712D01*
X64790374Y-79341180D01*
X64994320Y-79545126D01*
X65260788Y-79655500D01*
X65442000Y-79655500D01*
X65442000Y-79836712D01*
X65552374Y-80103180D01*
X65756320Y-80307126D01*
X66022788Y-80417500D01*
X66311212Y-80417500D01*
X66577680Y-80307126D01*
X66578746Y-80306060D01*
X71209202Y-84911885D01*
X71249000Y-85007605D01*
X71249000Y-85970845D01*
X71026820Y-86062874D01*
X70897750Y-86191944D01*
X70768680Y-86062874D01*
X70502212Y-85952500D01*
X70213788Y-85952500D01*
X69947320Y-86062874D01*
X69743374Y-86266820D01*
X69633000Y-86533288D01*
X69633000Y-86821712D01*
X69705606Y-86997000D01*
X63597865Y-86997000D01*
X63527250Y-86967750D01*
X63498000Y-86897135D01*
X63498000Y-83925206D01*
X63483628Y-83867012D01*
X63396934Y-83702204D01*
X63357122Y-83657393D01*
X61472556Y-82361754D01*
X61432567Y-82343620D01*
X61298515Y-82309507D01*
X61254722Y-82306320D01*
X40640598Y-84456259D01*
X40626356Y-84457000D01*
X35530865Y-84457000D01*
X35460250Y-84427750D01*
X35431000Y-84357135D01*
X35431000Y-80298365D01*
X35460250Y-80227750D01*
X35530865Y-80198500D01*
X40628355Y-80198500D01*
X40635624Y-80198288D01*
X40658835Y-80196936D01*
X40666073Y-80196303D01*
X63903304Y-77481084D01*
X64010586Y-77516267D01*
G04 #@! TO.N,OUTA1*
G36*
X61286187Y-82898336D02*
X62936208Y-84036281D01*
X62994000Y-84146342D01*
X62994000Y-86897135D01*
X62964750Y-86967750D01*
X62894135Y-86997000D01*
X60591096Y-86997000D01*
X60583549Y-86997228D01*
X60559445Y-86998686D01*
X60551927Y-86999369D01*
X40704190Y-89408998D01*
X40687626Y-89410000D01*
X35530865Y-89410000D01*
X35460250Y-89380750D01*
X35431000Y-89310135D01*
X35431000Y-85187865D01*
X35460250Y-85117250D01*
X35530865Y-85088000D01*
X40692729Y-85088000D01*
X40699452Y-85087819D01*
X40720932Y-85086662D01*
X40727634Y-85086120D01*
X61194723Y-82875169D01*
X61286187Y-82898336D01*
X61286187Y-82898336D01*
G37*
X61286187Y-82898336D02*
X62936208Y-84036281D01*
X62994000Y-84146342D01*
X62994000Y-86897135D01*
X62964750Y-86967750D01*
X62894135Y-86997000D01*
X60591096Y-86997000D01*
X60583549Y-86997228D01*
X60559445Y-86998686D01*
X60551927Y-86999369D01*
X40704190Y-89408998D01*
X40687626Y-89410000D01*
X35530865Y-89410000D01*
X35460250Y-89380750D01*
X35431000Y-89310135D01*
X35431000Y-85187865D01*
X35460250Y-85117250D01*
X35530865Y-85088000D01*
X40692729Y-85088000D01*
X40699452Y-85087819D01*
X40720932Y-85086662D01*
X40727634Y-85086120D01*
X61194723Y-82875169D01*
X61286187Y-82898336D01*
G04 #@! TO.N,OUTB1*
G36*
X40640713Y-90105601D02*
X60550618Y-92641895D01*
X60558502Y-92642646D01*
X60583776Y-92644249D01*
X60591688Y-92644500D01*
X62894135Y-92644500D01*
X62964750Y-92673750D01*
X62994000Y-92744365D01*
X62994000Y-95437992D01*
X62940394Y-95545205D01*
X61348726Y-96738956D01*
X61252350Y-96765136D01*
X40665338Y-94428573D01*
X40658302Y-94427976D01*
X40635748Y-94426700D01*
X40628687Y-94426500D01*
X35530865Y-94426500D01*
X35460250Y-94397250D01*
X35431000Y-94326635D01*
X35431000Y-90204365D01*
X35460250Y-90133750D01*
X35530865Y-90104500D01*
X40623357Y-90104500D01*
X40640713Y-90105601D01*
X40640713Y-90105601D01*
G37*
X40640713Y-90105601D02*
X60550618Y-92641895D01*
X60558502Y-92642646D01*
X60583776Y-92644249D01*
X60591688Y-92644500D01*
X62894135Y-92644500D01*
X62964750Y-92673750D01*
X62994000Y-92744365D01*
X62994000Y-95437992D01*
X62940394Y-95545205D01*
X61348726Y-96738956D01*
X61252350Y-96765136D01*
X40665338Y-94428573D01*
X40658302Y-94427976D01*
X40635748Y-94426700D01*
X40628687Y-94426500D01*
X35530865Y-94426500D01*
X35460250Y-94397250D01*
X35431000Y-94326635D01*
X35431000Y-90204365D01*
X35460250Y-90133750D01*
X35530865Y-90104500D01*
X40623357Y-90104500D01*
X40640713Y-90105601D01*
G04 #@! TO.N,OUTB2*
G36*
X69633000Y-92692788D02*
X69633000Y-92981212D01*
X69743374Y-93247680D01*
X69947320Y-93451626D01*
X70213788Y-93562000D01*
X70502212Y-93562000D01*
X70768680Y-93451626D01*
X70897750Y-93322556D01*
X71026820Y-93451626D01*
X71293288Y-93562000D01*
X71312500Y-93562000D01*
X71312500Y-94760100D01*
X71272204Y-94856300D01*
X66521398Y-99532092D01*
X66514180Y-99524874D01*
X66247712Y-99414500D01*
X65959288Y-99414500D01*
X65692820Y-99524874D01*
X65488874Y-99728820D01*
X65378500Y-99995288D01*
X65378500Y-100113000D01*
X65260788Y-100113000D01*
X64994320Y-100223374D01*
X64790374Y-100427320D01*
X64680000Y-100693788D01*
X64680000Y-100982212D01*
X64790374Y-101248680D01*
X64942578Y-101400884D01*
X64009921Y-102312344D01*
X63899531Y-102349552D01*
X49806787Y-100597481D01*
X49686680Y-100477374D01*
X49420212Y-100367000D01*
X49131788Y-100367000D01*
X48865320Y-100477374D01*
X48862598Y-100480096D01*
X40540712Y-99445483D01*
X40533016Y-99444767D01*
X40508341Y-99443239D01*
X40500615Y-99443000D01*
X35530865Y-99443000D01*
X35460250Y-99413750D01*
X35431000Y-99343135D01*
X35431000Y-95157365D01*
X35460250Y-95086750D01*
X35530865Y-95057500D01*
X40625955Y-95057500D01*
X40640614Y-95058285D01*
X61249328Y-97270877D01*
X61295806Y-97267120D01*
X61437156Y-97228262D01*
X61479022Y-97207733D01*
X63368000Y-95791000D01*
X63404803Y-95746902D01*
X63484803Y-95586902D01*
X63498000Y-95531000D01*
X63498000Y-92680865D01*
X63527250Y-92610250D01*
X63597865Y-92581000D01*
X69679304Y-92581000D01*
X69633000Y-92692788D01*
X69633000Y-92692788D01*
G37*
X69633000Y-92692788D02*
X69633000Y-92981212D01*
X69743374Y-93247680D01*
X69947320Y-93451626D01*
X70213788Y-93562000D01*
X70502212Y-93562000D01*
X70768680Y-93451626D01*
X70897750Y-93322556D01*
X71026820Y-93451626D01*
X71293288Y-93562000D01*
X71312500Y-93562000D01*
X71312500Y-94760100D01*
X71272204Y-94856300D01*
X66521398Y-99532092D01*
X66514180Y-99524874D01*
X66247712Y-99414500D01*
X65959288Y-99414500D01*
X65692820Y-99524874D01*
X65488874Y-99728820D01*
X65378500Y-99995288D01*
X65378500Y-100113000D01*
X65260788Y-100113000D01*
X64994320Y-100223374D01*
X64790374Y-100427320D01*
X64680000Y-100693788D01*
X64680000Y-100982212D01*
X64790374Y-101248680D01*
X64942578Y-101400884D01*
X64009921Y-102312344D01*
X63899531Y-102349552D01*
X49806787Y-100597481D01*
X49686680Y-100477374D01*
X49420212Y-100367000D01*
X49131788Y-100367000D01*
X48865320Y-100477374D01*
X48862598Y-100480096D01*
X40540712Y-99445483D01*
X40533016Y-99444767D01*
X40508341Y-99443239D01*
X40500615Y-99443000D01*
X35530865Y-99443000D01*
X35460250Y-99413750D01*
X35431000Y-99343135D01*
X35431000Y-95157365D01*
X35460250Y-95086750D01*
X35530865Y-95057500D01*
X40625955Y-95057500D01*
X40640614Y-95058285D01*
X61249328Y-97270877D01*
X61295806Y-97267120D01*
X61437156Y-97228262D01*
X61479022Y-97207733D01*
X63368000Y-95791000D01*
X63404803Y-95746902D01*
X63484803Y-95586902D01*
X63498000Y-95531000D01*
X63498000Y-92680865D01*
X63527250Y-92610250D01*
X63597865Y-92581000D01*
X69679304Y-92581000D01*
X69633000Y-92692788D01*
G04 #@! TO.N,+3V3*
G36*
X80288681Y-62127681D02*
X79984779Y-62582502D01*
X79878063Y-63119000D01*
X79984779Y-63655498D01*
X80288681Y-64110319D01*
X80743502Y-64414221D01*
X81144578Y-64494000D01*
X81415422Y-64494000D01*
X81816498Y-64414221D01*
X82271319Y-64110319D01*
X82550000Y-63693244D01*
X82828681Y-64110319D01*
X83283502Y-64414221D01*
X83684578Y-64494000D01*
X83955422Y-64494000D01*
X84356498Y-64414221D01*
X84811319Y-64110319D01*
X85090000Y-63693244D01*
X85368681Y-64110319D01*
X85823502Y-64414221D01*
X86224578Y-64494000D01*
X86495422Y-64494000D01*
X86896498Y-64414221D01*
X87351319Y-64110319D01*
X87630000Y-63693244D01*
X87908681Y-64110319D01*
X88363502Y-64414221D01*
X88764578Y-64494000D01*
X89035422Y-64494000D01*
X89436498Y-64414221D01*
X89891319Y-64110319D01*
X90170000Y-63693244D01*
X90448681Y-64110319D01*
X90903502Y-64414221D01*
X91304578Y-64494000D01*
X91575422Y-64494000D01*
X91976498Y-64414221D01*
X92431319Y-64110319D01*
X92710000Y-63693244D01*
X92988681Y-64110319D01*
X93443502Y-64414221D01*
X93844578Y-64494000D01*
X94115422Y-64494000D01*
X94516498Y-64414221D01*
X94971319Y-64110319D01*
X95250000Y-63693244D01*
X95528681Y-64110319D01*
X95983502Y-64414221D01*
X96384578Y-64494000D01*
X96655422Y-64494000D01*
X97056498Y-64414221D01*
X97511319Y-64110319D01*
X97790000Y-63693244D01*
X98068681Y-64110319D01*
X98523502Y-64414221D01*
X98924578Y-64494000D01*
X99195422Y-64494000D01*
X99596498Y-64414221D01*
X100051319Y-64110319D01*
X100355221Y-63655498D01*
X100461937Y-63119000D01*
X100355221Y-62582502D01*
X100051319Y-62127681D01*
X99771931Y-61941000D01*
X101043486Y-61941000D01*
X101012529Y-61953823D01*
X100752323Y-62214029D01*
X100611500Y-62554006D01*
X100611500Y-62921994D01*
X100752323Y-63261971D01*
X101012529Y-63522177D01*
X101352506Y-63663000D01*
X101720494Y-63663000D01*
X102060471Y-63522177D01*
X102320677Y-63261971D01*
X102461500Y-62921994D01*
X102461500Y-62554006D01*
X102320677Y-62214029D01*
X102060471Y-61953823D01*
X102029514Y-61941000D01*
X103882852Y-61941000D01*
X103673323Y-62150529D01*
X103532500Y-62490506D01*
X103532500Y-62858494D01*
X103673323Y-63198471D01*
X103933529Y-63458677D01*
X104273506Y-63599500D01*
X104641494Y-63599500D01*
X104981471Y-63458677D01*
X105241677Y-63198471D01*
X105382500Y-62858494D01*
X105382500Y-62490506D01*
X105241677Y-62150529D01*
X105032148Y-61941000D01*
X109225473Y-61941000D01*
X110779000Y-63494528D01*
X110779000Y-67578987D01*
X110766177Y-67548029D01*
X110505971Y-67287823D01*
X110165994Y-67147000D01*
X109798006Y-67147000D01*
X109458029Y-67287823D01*
X109197823Y-67548029D01*
X109057000Y-67888006D01*
X109057000Y-68255994D01*
X109197823Y-68595971D01*
X109458029Y-68856177D01*
X109798006Y-68997000D01*
X110165994Y-68997000D01*
X110505971Y-68856177D01*
X110766177Y-68595971D01*
X110779000Y-68565013D01*
X110779000Y-69090000D01*
X104159343Y-69090000D01*
X104111508Y-69099515D01*
X103970086Y-69158094D01*
X103929533Y-69185191D01*
X103475191Y-69639533D01*
X103448094Y-69680086D01*
X103389515Y-69821508D01*
X103380000Y-69869343D01*
X103380000Y-90713536D01*
X103053994Y-90578500D01*
X102686006Y-90578500D01*
X102346029Y-90719323D01*
X102085823Y-90979529D01*
X101945000Y-91319506D01*
X101945000Y-91687494D01*
X102085823Y-92027471D01*
X102346029Y-92287677D01*
X102686006Y-92428500D01*
X103053994Y-92428500D01*
X103393971Y-92287677D01*
X103654177Y-92027471D01*
X103693576Y-91932352D01*
X103866033Y-92104809D01*
X103906586Y-92131906D01*
X104048008Y-92190485D01*
X104095843Y-92200000D01*
X110779001Y-92200000D01*
X110779001Y-92643353D01*
X110632971Y-92497323D01*
X110292994Y-92356500D01*
X109925006Y-92356500D01*
X109585029Y-92497323D01*
X109324823Y-92757529D01*
X109184000Y-93097506D01*
X109184000Y-93465494D01*
X109324823Y-93805471D01*
X109585029Y-94065677D01*
X109925006Y-94206500D01*
X110292994Y-94206500D01*
X110632971Y-94065677D01*
X110779001Y-93919647D01*
X110779001Y-95056353D01*
X110696471Y-94973823D01*
X110356494Y-94833000D01*
X109988506Y-94833000D01*
X109648529Y-94973823D01*
X109388323Y-95234029D01*
X109247500Y-95574006D01*
X109247500Y-95941994D01*
X109388323Y-96281971D01*
X109648529Y-96542177D01*
X109988506Y-96683000D01*
X110356494Y-96683000D01*
X110696471Y-96542177D01*
X110779001Y-96459647D01*
X110779001Y-97405853D01*
X110696471Y-97323323D01*
X110356494Y-97182500D01*
X109988506Y-97182500D01*
X109648529Y-97323323D01*
X109388323Y-97583529D01*
X109247500Y-97923506D01*
X109247500Y-98291494D01*
X109388323Y-98631471D01*
X109648529Y-98891677D01*
X109988506Y-99032500D01*
X110356494Y-99032500D01*
X110696471Y-98891677D01*
X110779001Y-98809147D01*
X110779001Y-100326853D01*
X110696471Y-100244323D01*
X110356494Y-100103500D01*
X109988506Y-100103500D01*
X109648529Y-100244323D01*
X109388323Y-100504529D01*
X109247500Y-100844506D01*
X109247500Y-101212494D01*
X109388323Y-101552471D01*
X109648529Y-101812677D01*
X109988506Y-101953500D01*
X110356494Y-101953500D01*
X110696471Y-101812677D01*
X110779001Y-101730147D01*
X110779001Y-102803353D01*
X110632971Y-102657323D01*
X110292994Y-102516500D01*
X109925006Y-102516500D01*
X109585029Y-102657323D01*
X109324823Y-102917529D01*
X109184000Y-103257506D01*
X109184000Y-103625494D01*
X109324823Y-103965471D01*
X109585029Y-104225677D01*
X109925006Y-104366500D01*
X110292994Y-104366500D01*
X110632971Y-104225677D01*
X110779001Y-104079647D01*
X110779001Y-105914853D01*
X110569471Y-105705323D01*
X110229494Y-105564500D01*
X109861506Y-105564500D01*
X109521529Y-105705323D01*
X109261323Y-105965529D01*
X109120500Y-106305506D01*
X109120500Y-106673494D01*
X109261323Y-107013471D01*
X109521529Y-107273677D01*
X109861506Y-107414500D01*
X110229494Y-107414500D01*
X110569471Y-107273677D01*
X110779001Y-107064147D01*
X110779001Y-108454853D01*
X110569471Y-108245323D01*
X110229494Y-108104500D01*
X109861506Y-108104500D01*
X109521529Y-108245323D01*
X109261323Y-108505529D01*
X109120500Y-108845506D01*
X109120500Y-109213494D01*
X109261323Y-109553471D01*
X109521529Y-109813677D01*
X109861506Y-109954500D01*
X110229494Y-109954500D01*
X110569471Y-109813677D01*
X110779001Y-109604147D01*
X110779001Y-111439353D01*
X110569471Y-111229823D01*
X110229494Y-111089000D01*
X109861506Y-111089000D01*
X109521529Y-111229823D01*
X109261323Y-111490029D01*
X109120500Y-111830006D01*
X109120500Y-112197994D01*
X109261323Y-112537971D01*
X109521529Y-112798177D01*
X109861506Y-112939000D01*
X110229494Y-112939000D01*
X110569471Y-112798177D01*
X110779001Y-112588647D01*
X110779001Y-116464471D01*
X109225473Y-118018000D01*
X102311931Y-118018000D01*
X102591319Y-117831319D01*
X102895221Y-117376498D01*
X103001937Y-116840000D01*
X102977970Y-116719506D01*
X103405500Y-116719506D01*
X103405500Y-117087494D01*
X103546323Y-117427471D01*
X103806529Y-117687677D01*
X104146506Y-117828500D01*
X104514494Y-117828500D01*
X104854471Y-117687677D01*
X105114677Y-117427471D01*
X105255500Y-117087494D01*
X105255500Y-116719506D01*
X105114677Y-116379529D01*
X104854471Y-116119323D01*
X104514494Y-115978500D01*
X104146506Y-115978500D01*
X103806529Y-116119323D01*
X103546323Y-116379529D01*
X103405500Y-116719506D01*
X102977970Y-116719506D01*
X102895221Y-116303502D01*
X102591319Y-115848681D01*
X102136498Y-115544779D01*
X101735422Y-115465000D01*
X101464578Y-115465000D01*
X101063502Y-115544779D01*
X100608681Y-115848681D01*
X100330000Y-116265756D01*
X100051319Y-115848681D01*
X99596498Y-115544779D01*
X99195422Y-115465000D01*
X98924578Y-115465000D01*
X98523502Y-115544779D01*
X98068681Y-115848681D01*
X97790000Y-116265756D01*
X97511319Y-115848681D01*
X97056498Y-115544779D01*
X96655422Y-115465000D01*
X96384578Y-115465000D01*
X95983502Y-115544779D01*
X95528681Y-115848681D01*
X95250000Y-116265756D01*
X94971319Y-115848681D01*
X94516498Y-115544779D01*
X94115422Y-115465000D01*
X93844578Y-115465000D01*
X93443502Y-115544779D01*
X92988681Y-115848681D01*
X92710000Y-116265756D01*
X92431319Y-115848681D01*
X91976498Y-115544779D01*
X91575422Y-115465000D01*
X91304578Y-115465000D01*
X90903502Y-115544779D01*
X90448681Y-115848681D01*
X90170000Y-116265756D01*
X89891319Y-115848681D01*
X89436498Y-115544779D01*
X89035422Y-115465000D01*
X88764578Y-115465000D01*
X88363502Y-115544779D01*
X87908681Y-115848681D01*
X87630000Y-116265756D01*
X87351319Y-115848681D01*
X86896498Y-115544779D01*
X86495422Y-115465000D01*
X86224578Y-115465000D01*
X85823502Y-115544779D01*
X85368681Y-115848681D01*
X85090000Y-116265756D01*
X84811319Y-115848681D01*
X84356498Y-115544779D01*
X84261104Y-115525804D01*
X84407471Y-115465177D01*
X84667677Y-115204971D01*
X84808500Y-114864994D01*
X84808500Y-114497006D01*
X84667677Y-114157029D01*
X84407471Y-113896823D01*
X84067494Y-113756000D01*
X83699506Y-113756000D01*
X83359529Y-113896823D01*
X83099323Y-114157029D01*
X82958500Y-114497006D01*
X82958500Y-114864994D01*
X83099323Y-115204971D01*
X83359529Y-115465177D01*
X83464694Y-115508738D01*
X83283502Y-115544779D01*
X82828681Y-115848681D01*
X82550000Y-116265756D01*
X82271319Y-115848681D01*
X81816498Y-115544779D01*
X81415422Y-115465000D01*
X81144578Y-115465000D01*
X81091123Y-115475633D01*
X81422971Y-115338177D01*
X81683177Y-115077971D01*
X81824000Y-114737994D01*
X81824000Y-114370006D01*
X81683177Y-114030029D01*
X81422971Y-113769823D01*
X81082994Y-113629000D01*
X80715006Y-113629000D01*
X80375029Y-113769823D01*
X80114823Y-114030029D01*
X79974000Y-114370006D01*
X79974000Y-114737994D01*
X80114823Y-115077971D01*
X80375029Y-115338177D01*
X80715006Y-115479000D01*
X81074195Y-115479000D01*
X80743502Y-115544779D01*
X80288681Y-115848681D01*
X79984779Y-116303502D01*
X79878063Y-116840000D01*
X79984779Y-117376498D01*
X80288681Y-117831319D01*
X80568069Y-118018000D01*
X77531500Y-118018000D01*
X77531500Y-113036506D01*
X77751500Y-113036506D01*
X77751500Y-113404494D01*
X77892323Y-113744471D01*
X78152529Y-114004677D01*
X78492506Y-114145500D01*
X78860494Y-114145500D01*
X79200471Y-114004677D01*
X79460677Y-113744471D01*
X79601500Y-113404494D01*
X79601500Y-113036506D01*
X79496290Y-112782506D01*
X81434500Y-112782506D01*
X81434500Y-113150494D01*
X81575323Y-113490471D01*
X81835529Y-113750677D01*
X82175506Y-113891500D01*
X82543494Y-113891500D01*
X82883471Y-113750677D01*
X83143677Y-113490471D01*
X83284500Y-113150494D01*
X83284500Y-112782506D01*
X83231895Y-112655506D01*
X84165000Y-112655506D01*
X84165000Y-113023494D01*
X84305823Y-113363471D01*
X84566029Y-113623677D01*
X84906006Y-113764500D01*
X85273994Y-113764500D01*
X85613971Y-113623677D01*
X85629642Y-113608006D01*
X95785502Y-113608006D01*
X95785502Y-113975994D01*
X95926325Y-114315971D01*
X96186531Y-114576177D01*
X96526508Y-114717000D01*
X96894496Y-114717000D01*
X97234473Y-114576177D01*
X97494679Y-114315971D01*
X97551204Y-114179506D01*
X100230500Y-114179506D01*
X100230500Y-114547494D01*
X100371323Y-114887471D01*
X100631529Y-115147677D01*
X100971506Y-115288500D01*
X101339494Y-115288500D01*
X101679471Y-115147677D01*
X101939677Y-114887471D01*
X102068149Y-114577311D01*
X105619500Y-114577311D01*
X105619500Y-115422689D01*
X105943012Y-116203716D01*
X106540784Y-116801488D01*
X107321811Y-117125000D01*
X108167189Y-117125000D01*
X108948216Y-116801488D01*
X109545988Y-116203716D01*
X109869500Y-115422689D01*
X109869500Y-114577311D01*
X109545988Y-113796284D01*
X108948216Y-113198512D01*
X108167189Y-112875000D01*
X107321811Y-112875000D01*
X106540784Y-113198512D01*
X105943012Y-113796284D01*
X105619500Y-114577311D01*
X102068149Y-114577311D01*
X102080500Y-114547494D01*
X102080500Y-114179506D01*
X101939677Y-113839529D01*
X101679471Y-113579323D01*
X101339494Y-113438500D01*
X100971506Y-113438500D01*
X100631529Y-113579323D01*
X100371323Y-113839529D01*
X100230500Y-114179506D01*
X97551204Y-114179506D01*
X97635502Y-113975994D01*
X97635502Y-113608006D01*
X97494679Y-113268029D01*
X97234473Y-113007823D01*
X96894496Y-112867000D01*
X96526508Y-112867000D01*
X96186531Y-113007823D01*
X95926325Y-113268029D01*
X95785502Y-113608006D01*
X85629642Y-113608006D01*
X85874177Y-113363471D01*
X86015000Y-113023494D01*
X86015000Y-112655506D01*
X85874177Y-112315529D01*
X85833154Y-112274506D01*
X101500500Y-112274506D01*
X101500500Y-112642494D01*
X101641323Y-112982471D01*
X101901529Y-113242677D01*
X102241506Y-113383500D01*
X102609494Y-113383500D01*
X102949471Y-113242677D01*
X103028642Y-113163506D01*
X103278500Y-113163506D01*
X103278500Y-113531494D01*
X103419323Y-113871471D01*
X103679529Y-114131677D01*
X104019506Y-114272500D01*
X104387494Y-114272500D01*
X104727471Y-114131677D01*
X104987677Y-113871471D01*
X105128500Y-113531494D01*
X105128500Y-113163506D01*
X104987677Y-112823529D01*
X104727471Y-112563323D01*
X104387494Y-112422500D01*
X104019506Y-112422500D01*
X103679529Y-112563323D01*
X103419323Y-112823529D01*
X103278500Y-113163506D01*
X103028642Y-113163506D01*
X103209677Y-112982471D01*
X103350500Y-112642494D01*
X103350500Y-112274506D01*
X103209677Y-111934529D01*
X102949471Y-111674323D01*
X102609494Y-111533500D01*
X102241506Y-111533500D01*
X101901529Y-111674323D01*
X101641323Y-111934529D01*
X101500500Y-112274506D01*
X85833154Y-112274506D01*
X85613971Y-112055323D01*
X85273994Y-111914500D01*
X84906006Y-111914500D01*
X84566029Y-112055323D01*
X84305823Y-112315529D01*
X84165000Y-112655506D01*
X83231895Y-112655506D01*
X83143677Y-112442529D01*
X82883471Y-112182323D01*
X82543494Y-112041500D01*
X82175506Y-112041500D01*
X81835529Y-112182323D01*
X81575323Y-112442529D01*
X81434500Y-112782506D01*
X79496290Y-112782506D01*
X79460677Y-112696529D01*
X79200471Y-112436323D01*
X78860494Y-112295500D01*
X78492506Y-112295500D01*
X78152529Y-112436323D01*
X77892323Y-112696529D01*
X77751500Y-113036506D01*
X77531500Y-113036506D01*
X77531500Y-111258506D01*
X79974000Y-111258506D01*
X79974000Y-111626494D01*
X80114823Y-111966471D01*
X80375029Y-112226677D01*
X80715006Y-112367500D01*
X81082994Y-112367500D01*
X81422971Y-112226677D01*
X81683177Y-111966471D01*
X81824000Y-111626494D01*
X81824000Y-111258506D01*
X81683177Y-110918529D01*
X81578654Y-110814006D01*
X100167000Y-110814006D01*
X100167000Y-111181994D01*
X100307823Y-111521971D01*
X100568029Y-111782177D01*
X100908006Y-111923000D01*
X101275994Y-111923000D01*
X101615971Y-111782177D01*
X101876177Y-111521971D01*
X102017000Y-111181994D01*
X102017000Y-110941006D01*
X103469000Y-110941006D01*
X103469000Y-111308994D01*
X103609823Y-111648971D01*
X103870029Y-111909177D01*
X104210006Y-112050000D01*
X104577994Y-112050000D01*
X104917971Y-111909177D01*
X105178177Y-111648971D01*
X105319000Y-111308994D01*
X105319000Y-111068006D01*
X106771000Y-111068006D01*
X106771000Y-111435994D01*
X106911823Y-111775971D01*
X107172029Y-112036177D01*
X107512006Y-112177000D01*
X107879994Y-112177000D01*
X108219971Y-112036177D01*
X108480177Y-111775971D01*
X108621000Y-111435994D01*
X108621000Y-111068006D01*
X108480177Y-110728029D01*
X108219971Y-110467823D01*
X107879994Y-110327000D01*
X107512006Y-110327000D01*
X107172029Y-110467823D01*
X106911823Y-110728029D01*
X106771000Y-111068006D01*
X105319000Y-111068006D01*
X105319000Y-110941006D01*
X105178177Y-110601029D01*
X104917971Y-110340823D01*
X104577994Y-110200000D01*
X104210006Y-110200000D01*
X103870029Y-110340823D01*
X103609823Y-110601029D01*
X103469000Y-110941006D01*
X102017000Y-110941006D01*
X102017000Y-110814006D01*
X101876177Y-110474029D01*
X101615971Y-110213823D01*
X101275994Y-110073000D01*
X100908006Y-110073000D01*
X100568029Y-110213823D01*
X100307823Y-110474029D01*
X100167000Y-110814006D01*
X81578654Y-110814006D01*
X81422971Y-110658323D01*
X81082994Y-110517500D01*
X80715006Y-110517500D01*
X80375029Y-110658323D01*
X80114823Y-110918529D01*
X79974000Y-111258506D01*
X77531500Y-111258506D01*
X77531500Y-109581707D01*
X77571049Y-109486227D01*
X78084770Y-108972506D01*
X80799500Y-108972506D01*
X80799500Y-109340494D01*
X80940323Y-109680471D01*
X81200529Y-109940677D01*
X81540506Y-110081500D01*
X81908494Y-110081500D01*
X82248471Y-109940677D01*
X82508677Y-109680471D01*
X82565202Y-109544006D01*
X105564500Y-109544006D01*
X105564500Y-109911994D01*
X105705323Y-110251971D01*
X105965529Y-110512177D01*
X106305506Y-110653000D01*
X106673494Y-110653000D01*
X107013471Y-110512177D01*
X107273677Y-110251971D01*
X107414500Y-109911994D01*
X107414500Y-109544006D01*
X107273677Y-109204029D01*
X107013471Y-108943823D01*
X106673494Y-108803000D01*
X106305506Y-108803000D01*
X105965529Y-108943823D01*
X105705323Y-109204029D01*
X105564500Y-109544006D01*
X82565202Y-109544006D01*
X82649500Y-109340494D01*
X82649500Y-108972506D01*
X82508677Y-108632529D01*
X82248471Y-108372323D01*
X81908494Y-108231500D01*
X81540506Y-108231500D01*
X81200529Y-108372323D01*
X80940323Y-108632529D01*
X80799500Y-108972506D01*
X78084770Y-108972506D01*
X80609000Y-106448276D01*
X80609000Y-106546494D01*
X80749823Y-106886471D01*
X81010029Y-107146677D01*
X81350006Y-107287500D01*
X81717994Y-107287500D01*
X82057971Y-107146677D01*
X82318177Y-106886471D01*
X82374702Y-106750006D01*
X89181500Y-106750006D01*
X89181500Y-107117994D01*
X89322323Y-107457971D01*
X89582529Y-107718177D01*
X89922506Y-107859000D01*
X90290494Y-107859000D01*
X90630471Y-107718177D01*
X90890677Y-107457971D01*
X91031500Y-107117994D01*
X91031500Y-106750006D01*
X90890677Y-106410029D01*
X90630471Y-106149823D01*
X90290494Y-106009000D01*
X89922506Y-106009000D01*
X89582529Y-106149823D01*
X89322323Y-106410029D01*
X89181500Y-106750006D01*
X82374702Y-106750006D01*
X82459000Y-106546494D01*
X82459000Y-106178506D01*
X82318177Y-105838529D01*
X82057971Y-105578323D01*
X81717994Y-105437500D01*
X81619776Y-105437500D01*
X82847270Y-104210006D01*
X86451000Y-104210006D01*
X86451000Y-104577994D01*
X86591823Y-104917971D01*
X86852029Y-105178177D01*
X87192006Y-105319000D01*
X87559994Y-105319000D01*
X87899971Y-105178177D01*
X88160177Y-104917971D01*
X88301000Y-104577994D01*
X88301000Y-104210006D01*
X88160177Y-103870029D01*
X87899971Y-103609823D01*
X87559994Y-103469000D01*
X87192006Y-103469000D01*
X86852029Y-103609823D01*
X86591823Y-103870029D01*
X86451000Y-104210006D01*
X82847270Y-104210006D01*
X83087809Y-103969467D01*
X83114906Y-103928914D01*
X83173485Y-103787492D01*
X83183000Y-103739657D01*
X83183000Y-101606506D01*
X83466500Y-101606506D01*
X83466500Y-101974494D01*
X83607323Y-102314471D01*
X83867529Y-102574677D01*
X84207506Y-102715500D01*
X84575494Y-102715500D01*
X84915471Y-102574677D01*
X85175677Y-102314471D01*
X85316500Y-101974494D01*
X85316500Y-101606506D01*
X85175677Y-101266529D01*
X85071154Y-101162006D01*
X87022500Y-101162006D01*
X87022500Y-101529994D01*
X87163323Y-101869971D01*
X87423529Y-102130177D01*
X87763506Y-102271000D01*
X88131494Y-102271000D01*
X88471471Y-102130177D01*
X88731677Y-101869971D01*
X88872500Y-101529994D01*
X88872500Y-101225506D01*
X95975998Y-101225506D01*
X95975998Y-101593494D01*
X96116821Y-101933471D01*
X96377027Y-102193677D01*
X96717004Y-102334500D01*
X97084992Y-102334500D01*
X97424969Y-102193677D01*
X97685175Y-101933471D01*
X97825998Y-101593494D01*
X97825998Y-101225506D01*
X97685175Y-100885529D01*
X97424969Y-100625323D01*
X97084992Y-100484500D01*
X96717004Y-100484500D01*
X96377027Y-100625323D01*
X96116821Y-100885529D01*
X95975998Y-101225506D01*
X88872500Y-101225506D01*
X88872500Y-101162006D01*
X88731677Y-100822029D01*
X88471471Y-100561823D01*
X88131494Y-100421000D01*
X87763506Y-100421000D01*
X87423529Y-100561823D01*
X87163323Y-100822029D01*
X87022500Y-101162006D01*
X85071154Y-101162006D01*
X84915471Y-101006323D01*
X84575494Y-100865500D01*
X84207506Y-100865500D01*
X83867529Y-101006323D01*
X83607323Y-101266529D01*
X83466500Y-101606506D01*
X83183000Y-101606506D01*
X83183000Y-98939506D01*
X87022500Y-98939506D01*
X87022500Y-99307494D01*
X87163323Y-99647471D01*
X87423529Y-99907677D01*
X87763506Y-100048500D01*
X88131494Y-100048500D01*
X88471471Y-99907677D01*
X88731677Y-99647471D01*
X88872500Y-99307494D01*
X88872500Y-98939506D01*
X88731677Y-98599529D01*
X88563654Y-98431506D01*
X93372500Y-98431506D01*
X93372500Y-98799494D01*
X93513323Y-99139471D01*
X93773529Y-99399677D01*
X94113506Y-99540500D01*
X94481494Y-99540500D01*
X94821471Y-99399677D01*
X95081677Y-99139471D01*
X95222500Y-98799494D01*
X95222500Y-98431506D01*
X95081677Y-98091529D01*
X94821471Y-97831323D01*
X94481494Y-97690500D01*
X94113506Y-97690500D01*
X93773529Y-97831323D01*
X93513323Y-98091529D01*
X93372500Y-98431506D01*
X88563654Y-98431506D01*
X88471471Y-98339323D01*
X88131494Y-98198500D01*
X87763506Y-98198500D01*
X87423529Y-98339323D01*
X87163323Y-98599529D01*
X87022500Y-98939506D01*
X83183000Y-98939506D01*
X83183000Y-96945606D01*
X87022500Y-96945606D01*
X87022500Y-97313594D01*
X87163323Y-97653571D01*
X87423529Y-97913777D01*
X87763506Y-98054600D01*
X88131494Y-98054600D01*
X88471471Y-97913777D01*
X88731677Y-97653571D01*
X88872500Y-97313594D01*
X88872500Y-96945606D01*
X88731677Y-96605629D01*
X88471471Y-96345423D01*
X88131494Y-96204600D01*
X87763506Y-96204600D01*
X87423529Y-96345423D01*
X87163323Y-96605629D01*
X87022500Y-96945606D01*
X83183000Y-96945606D01*
X83183000Y-95066006D01*
X83276000Y-95066006D01*
X83276000Y-95433994D01*
X83416823Y-95773971D01*
X83677029Y-96034177D01*
X84017006Y-96175000D01*
X84384994Y-96175000D01*
X84724971Y-96034177D01*
X84985177Y-95773971D01*
X85126000Y-95433994D01*
X85126000Y-95066006D01*
X84985177Y-94726029D01*
X84724971Y-94465823D01*
X84384994Y-94325000D01*
X84017006Y-94325000D01*
X83677029Y-94465823D01*
X83416823Y-94726029D01*
X83276000Y-95066006D01*
X83183000Y-95066006D01*
X83183000Y-93716767D01*
X83445506Y-93825500D01*
X83813494Y-93825500D01*
X84153471Y-93684677D01*
X84169142Y-93669006D01*
X84609500Y-93669006D01*
X84609500Y-94036994D01*
X84750323Y-94376971D01*
X85010529Y-94637177D01*
X85350506Y-94778000D01*
X85718494Y-94778000D01*
X85928226Y-94691126D01*
X85829823Y-94789529D01*
X85689000Y-95129506D01*
X85689000Y-95497494D01*
X85829823Y-95837471D01*
X86090029Y-96097677D01*
X86430006Y-96238500D01*
X86797994Y-96238500D01*
X87137971Y-96097677D01*
X87398177Y-95837471D01*
X87539000Y-95497494D01*
X87539000Y-95129506D01*
X87398177Y-94789529D01*
X87137971Y-94529323D01*
X86900613Y-94431006D01*
X90832500Y-94431006D01*
X90832500Y-94798994D01*
X90973323Y-95138971D01*
X91233529Y-95399177D01*
X91573506Y-95540000D01*
X91941494Y-95540000D01*
X92281471Y-95399177D01*
X92541677Y-95138971D01*
X92682500Y-94798994D01*
X92682500Y-94431006D01*
X92541677Y-94091029D01*
X92281471Y-93830823D01*
X91941494Y-93690000D01*
X91573506Y-93690000D01*
X91233529Y-93830823D01*
X90973323Y-94091029D01*
X90832500Y-94431006D01*
X86900613Y-94431006D01*
X86797994Y-94388500D01*
X86430006Y-94388500D01*
X86220274Y-94475374D01*
X86318677Y-94376971D01*
X86459500Y-94036994D01*
X86459500Y-93669006D01*
X86318677Y-93329029D01*
X86058471Y-93068823D01*
X85718494Y-92928000D01*
X85350506Y-92928000D01*
X85010529Y-93068823D01*
X84750323Y-93329029D01*
X84609500Y-93669006D01*
X84169142Y-93669006D01*
X84413677Y-93424471D01*
X84554500Y-93084494D01*
X84554500Y-92716506D01*
X84413677Y-92376529D01*
X84153471Y-92116323D01*
X83813494Y-91975500D01*
X83445506Y-91975500D01*
X83183000Y-92084233D01*
X83183000Y-91259000D01*
X83173485Y-91211164D01*
X83114906Y-91069743D01*
X83087809Y-91029190D01*
X83047257Y-91002094D01*
X82905836Y-90943515D01*
X82858000Y-90934000D01*
X78901365Y-90934000D01*
X78830750Y-90904750D01*
X78801500Y-90834135D01*
X78801500Y-89605006D01*
X83847500Y-89605006D01*
X83847500Y-89972994D01*
X83988323Y-90312971D01*
X84248529Y-90573177D01*
X84588506Y-90714000D01*
X84922683Y-90714000D01*
X84756529Y-90782823D01*
X84496323Y-91043029D01*
X84355500Y-91383006D01*
X84355500Y-91750994D01*
X84496323Y-92090971D01*
X84756529Y-92351177D01*
X85096506Y-92492000D01*
X85464494Y-92492000D01*
X85804471Y-92351177D01*
X85820142Y-92335506D01*
X86006500Y-92335506D01*
X86006500Y-92703494D01*
X86147323Y-93043471D01*
X86407529Y-93303677D01*
X86747506Y-93444500D01*
X87115494Y-93444500D01*
X87455471Y-93303677D01*
X87598142Y-93161006D01*
X92294510Y-93161006D01*
X92294510Y-93528994D01*
X92435333Y-93868971D01*
X92695539Y-94129177D01*
X93035516Y-94270000D01*
X93368317Y-94270000D01*
X93386323Y-94313471D01*
X93646529Y-94573677D01*
X93986506Y-94714500D01*
X94007500Y-94714500D01*
X94007500Y-94733984D01*
X94148323Y-95073961D01*
X94408529Y-95334167D01*
X94748506Y-95474990D01*
X95116494Y-95474990D01*
X95456471Y-95334167D01*
X95716677Y-95073961D01*
X95719972Y-95066006D01*
X99722500Y-95066006D01*
X99722500Y-95433994D01*
X99863323Y-95773971D01*
X100123529Y-96034177D01*
X100463506Y-96175000D01*
X100831494Y-96175000D01*
X101171471Y-96034177D01*
X101431677Y-95773971D01*
X101572500Y-95433994D01*
X101572500Y-95066006D01*
X101493593Y-94875506D01*
X104040500Y-94875506D01*
X104040500Y-95243494D01*
X104181323Y-95583471D01*
X104441529Y-95843677D01*
X104781506Y-95984500D01*
X105149494Y-95984500D01*
X105489471Y-95843677D01*
X105749677Y-95583471D01*
X105890500Y-95243494D01*
X105890500Y-94875506D01*
X105749677Y-94535529D01*
X105489471Y-94275323D01*
X105149494Y-94134500D01*
X104781506Y-94134500D01*
X104441529Y-94275323D01*
X104181323Y-94535529D01*
X104040500Y-94875506D01*
X101493593Y-94875506D01*
X101431677Y-94726029D01*
X101171471Y-94465823D01*
X100831494Y-94325000D01*
X100463506Y-94325000D01*
X100123529Y-94465823D01*
X99863323Y-94726029D01*
X99722500Y-95066006D01*
X95719972Y-95066006D01*
X95857500Y-94733984D01*
X95857500Y-94365996D01*
X95716677Y-94026019D01*
X95456471Y-93765813D01*
X95116494Y-93624990D01*
X95095500Y-93624990D01*
X95095500Y-93605506D01*
X94954677Y-93265529D01*
X94694471Y-93005323D01*
X94354494Y-92864500D01*
X94021693Y-92864500D01*
X94003687Y-92821029D01*
X93743481Y-92560823D01*
X93403504Y-92420000D01*
X93035516Y-92420000D01*
X92695539Y-92560823D01*
X92435333Y-92821029D01*
X92294510Y-93161006D01*
X87598142Y-93161006D01*
X87715677Y-93043471D01*
X87856500Y-92703494D01*
X87856500Y-92335506D01*
X87715677Y-91995529D01*
X87455471Y-91735323D01*
X87115494Y-91594500D01*
X86747506Y-91594500D01*
X86407529Y-91735323D01*
X86147323Y-91995529D01*
X86006500Y-92335506D01*
X85820142Y-92335506D01*
X86064677Y-92090971D01*
X86205500Y-91750994D01*
X86205500Y-91383006D01*
X86064677Y-91043029D01*
X85960154Y-90938506D01*
X87784500Y-90938506D01*
X87784500Y-91306494D01*
X87925323Y-91646471D01*
X88185529Y-91906677D01*
X88525506Y-92047500D01*
X88893494Y-92047500D01*
X89233471Y-91906677D01*
X89493677Y-91646471D01*
X89634500Y-91306494D01*
X89634500Y-91129006D01*
X95658500Y-91129006D01*
X95658500Y-91496994D01*
X95799323Y-91836971D01*
X96059529Y-92097177D01*
X96399506Y-92238000D01*
X96501259Y-92238000D01*
X96318070Y-92421189D01*
X96177247Y-92761166D01*
X96177247Y-93129154D01*
X96318070Y-93469131D01*
X96578276Y-93729337D01*
X96918253Y-93870160D01*
X97286241Y-93870160D01*
X97313301Y-93858951D01*
X97520027Y-94065677D01*
X97860004Y-94206500D01*
X97881000Y-94206500D01*
X97881000Y-94227494D01*
X98021823Y-94567471D01*
X98282029Y-94827677D01*
X98622006Y-94968500D01*
X98989994Y-94968500D01*
X99329971Y-94827677D01*
X99590177Y-94567471D01*
X99731000Y-94227494D01*
X99731000Y-93859506D01*
X99590177Y-93519529D01*
X99329971Y-93259323D01*
X98989994Y-93118500D01*
X98968998Y-93118500D01*
X98968998Y-93097506D01*
X98828175Y-92757529D01*
X98567969Y-92497323D01*
X98227992Y-92356500D01*
X97860004Y-92356500D01*
X97832944Y-92367709D01*
X97626218Y-92160983D01*
X97286241Y-92020160D01*
X97184488Y-92020160D01*
X97367677Y-91836971D01*
X97508500Y-91496994D01*
X97508500Y-91129006D01*
X97367677Y-90789029D01*
X97107471Y-90528823D01*
X96767494Y-90388000D01*
X96399506Y-90388000D01*
X96059529Y-90528823D01*
X95799323Y-90789029D01*
X95658500Y-91129006D01*
X89634500Y-91129006D01*
X89634500Y-90938506D01*
X89493677Y-90598529D01*
X89233471Y-90338323D01*
X88893494Y-90197500D01*
X88525506Y-90197500D01*
X88185529Y-90338323D01*
X87925323Y-90598529D01*
X87784500Y-90938506D01*
X85960154Y-90938506D01*
X85804471Y-90782823D01*
X85464494Y-90642000D01*
X85130317Y-90642000D01*
X85296471Y-90573177D01*
X85556677Y-90312971D01*
X85697500Y-89972994D01*
X85697500Y-89668506D01*
X86006500Y-89668506D01*
X86006500Y-90036494D01*
X86147323Y-90376471D01*
X86407529Y-90636677D01*
X86747506Y-90777500D01*
X87115494Y-90777500D01*
X87455471Y-90636677D01*
X87715677Y-90376471D01*
X87856500Y-90036494D01*
X87856500Y-89668506D01*
X87715677Y-89328529D01*
X87455471Y-89068323D01*
X87115494Y-88927500D01*
X86747506Y-88927500D01*
X86407529Y-89068323D01*
X86147323Y-89328529D01*
X86006500Y-89668506D01*
X85697500Y-89668506D01*
X85697500Y-89605006D01*
X85556677Y-89265029D01*
X85296471Y-89004823D01*
X84956494Y-88864000D01*
X84588506Y-88864000D01*
X84248529Y-89004823D01*
X83988323Y-89265029D01*
X83847500Y-89605006D01*
X78801500Y-89605006D01*
X78801500Y-89456037D01*
X78903000Y-89210994D01*
X78903000Y-88843006D01*
X78876698Y-88779506D01*
X87975000Y-88779506D01*
X87975000Y-89147494D01*
X88115823Y-89487471D01*
X88376029Y-89747677D01*
X88716006Y-89888500D01*
X89083994Y-89888500D01*
X89423971Y-89747677D01*
X89684177Y-89487471D01*
X89825000Y-89147494D01*
X89825000Y-88779506D01*
X89684177Y-88439529D01*
X89423971Y-88179323D01*
X89083994Y-88038500D01*
X88716006Y-88038500D01*
X88376029Y-88179323D01*
X88115823Y-88439529D01*
X87975000Y-88779506D01*
X78876698Y-88779506D01*
X78801500Y-88597963D01*
X78801500Y-87636506D01*
X86006500Y-87636506D01*
X86006500Y-88004494D01*
X86147323Y-88344471D01*
X86407529Y-88604677D01*
X86747506Y-88745500D01*
X87115494Y-88745500D01*
X87455471Y-88604677D01*
X87715677Y-88344471D01*
X87856500Y-88004494D01*
X87856500Y-87636506D01*
X87715677Y-87296529D01*
X87455471Y-87036323D01*
X87115494Y-86895500D01*
X86747506Y-86895500D01*
X86407529Y-87036323D01*
X86147323Y-87296529D01*
X86006500Y-87636506D01*
X78801500Y-87636506D01*
X78801500Y-85858506D01*
X87911500Y-85858506D01*
X87911500Y-86226494D01*
X88052323Y-86566471D01*
X88312529Y-86826677D01*
X88652506Y-86967500D01*
X89020494Y-86967500D01*
X89360471Y-86826677D01*
X89620677Y-86566471D01*
X89761500Y-86226494D01*
X89761500Y-85858506D01*
X89620677Y-85518529D01*
X89360471Y-85258323D01*
X89020494Y-85117500D01*
X88652506Y-85117500D01*
X88312529Y-85258323D01*
X88052323Y-85518529D01*
X87911500Y-85858506D01*
X78801500Y-85858506D01*
X78801500Y-84080506D01*
X88991000Y-84080506D01*
X88991000Y-84448494D01*
X89131823Y-84788471D01*
X89392029Y-85048677D01*
X89732006Y-85189500D01*
X90099994Y-85189500D01*
X90439971Y-85048677D01*
X90700177Y-84788471D01*
X90831303Y-84471906D01*
X90909823Y-84661471D01*
X91170029Y-84921677D01*
X91510006Y-85062500D01*
X91877994Y-85062500D01*
X92217971Y-84921677D01*
X92478177Y-84661471D01*
X92619000Y-84321494D01*
X92619000Y-83953506D01*
X92478177Y-83613529D01*
X92217971Y-83353323D01*
X91877994Y-83212500D01*
X91857000Y-83212500D01*
X91857000Y-83191506D01*
X91716177Y-82851529D01*
X91455971Y-82591323D01*
X91115994Y-82450500D01*
X90748006Y-82450500D01*
X90408029Y-82591323D01*
X90147823Y-82851529D01*
X90007000Y-83191506D01*
X90007000Y-83339500D01*
X89732006Y-83339500D01*
X89392029Y-83480323D01*
X89131823Y-83740529D01*
X88991000Y-84080506D01*
X78801500Y-84080506D01*
X78801500Y-82429506D01*
X81307500Y-82429506D01*
X81307500Y-82797494D01*
X81448323Y-83137471D01*
X81708529Y-83397677D01*
X82048506Y-83538500D01*
X82416494Y-83538500D01*
X82756471Y-83397677D01*
X83016677Y-83137471D01*
X83157500Y-82797494D01*
X83157500Y-82429506D01*
X83016677Y-82089529D01*
X82756471Y-81829323D01*
X82416494Y-81688500D01*
X82048506Y-81688500D01*
X81708529Y-81829323D01*
X81448323Y-82089529D01*
X81307500Y-82429506D01*
X78801500Y-82429506D01*
X78801500Y-81832207D01*
X78841049Y-81736727D01*
X80624770Y-79953006D01*
X81307500Y-79953006D01*
X81307500Y-80320994D01*
X81448323Y-80660971D01*
X81708529Y-80921177D01*
X82048506Y-81062000D01*
X82416494Y-81062000D01*
X82756471Y-80921177D01*
X83016677Y-80660971D01*
X83157500Y-80320994D01*
X83157500Y-79953006D01*
X83078593Y-79762506D01*
X83911000Y-79762506D01*
X83911000Y-80130494D01*
X84051823Y-80470471D01*
X84312029Y-80730677D01*
X84652006Y-80871500D01*
X85019994Y-80871500D01*
X85334322Y-80741301D01*
X87522445Y-80741301D01*
X87522445Y-81109289D01*
X87663268Y-81449266D01*
X87923474Y-81709472D01*
X88263451Y-81850295D01*
X88631439Y-81850295D01*
X88971416Y-81709472D01*
X89231622Y-81449266D01*
X89372445Y-81109289D01*
X89372445Y-80741301D01*
X89231622Y-80401324D01*
X88971416Y-80141118D01*
X88631439Y-80000295D01*
X88263451Y-80000295D01*
X87923474Y-80141118D01*
X87663268Y-80401324D01*
X87522445Y-80741301D01*
X85334322Y-80741301D01*
X85359971Y-80730677D01*
X85620177Y-80470471D01*
X85761000Y-80130494D01*
X85761000Y-79762506D01*
X85620177Y-79422529D01*
X85515654Y-79318006D01*
X86197000Y-79318006D01*
X86197000Y-79685994D01*
X86337823Y-80025971D01*
X86598029Y-80286177D01*
X86938006Y-80427000D01*
X87305994Y-80427000D01*
X87645971Y-80286177D01*
X87906177Y-80025971D01*
X88047000Y-79685994D01*
X88047000Y-79318006D01*
X88028455Y-79273234D01*
X89009736Y-79273234D01*
X89009736Y-79641222D01*
X89150559Y-79981199D01*
X89410765Y-80241405D01*
X89750742Y-80382228D01*
X90007000Y-80382228D01*
X90007000Y-80701992D01*
X90147823Y-81041969D01*
X90408029Y-81302175D01*
X90748006Y-81442998D01*
X91115994Y-81442998D01*
X91455971Y-81302175D01*
X91716177Y-81041969D01*
X91857000Y-80701992D01*
X91857000Y-80554000D01*
X91877994Y-80554000D01*
X92217971Y-80413177D01*
X92478177Y-80152971D01*
X92561005Y-79953006D01*
X94960000Y-79953006D01*
X94960000Y-80320994D01*
X95100823Y-80660971D01*
X95361029Y-80921177D01*
X95537443Y-80994250D01*
X95361029Y-81067323D01*
X95100823Y-81327529D01*
X94960000Y-81667506D01*
X94960000Y-82035494D01*
X95100823Y-82375471D01*
X95361029Y-82635677D01*
X95384140Y-82645250D01*
X95361029Y-82654823D01*
X95100823Y-82915029D01*
X94960000Y-83255006D01*
X94960000Y-83622994D01*
X95100823Y-83962971D01*
X95361029Y-84223177D01*
X95701006Y-84364000D01*
X96068994Y-84364000D01*
X96408971Y-84223177D01*
X96669177Y-83962971D01*
X96710500Y-83863208D01*
X96751823Y-83962971D01*
X97012029Y-84223177D01*
X97352006Y-84364000D01*
X97719994Y-84364000D01*
X98059971Y-84223177D01*
X98320177Y-83962971D01*
X98361500Y-83863208D01*
X98402823Y-83962971D01*
X98663029Y-84223177D01*
X99003006Y-84364000D01*
X99370994Y-84364000D01*
X99710971Y-84223177D01*
X99971177Y-83962971D01*
X100112000Y-83622994D01*
X100112000Y-83255006D01*
X99971177Y-82915029D01*
X99710971Y-82654823D01*
X99611208Y-82613500D01*
X99710971Y-82572177D01*
X99971177Y-82311971D01*
X100112000Y-81971994D01*
X100112000Y-81604006D01*
X99971177Y-81264029D01*
X99710971Y-81003823D01*
X99611208Y-80962500D01*
X99710971Y-80921177D01*
X99971177Y-80660971D01*
X100112000Y-80320994D01*
X100112000Y-79953006D01*
X99971177Y-79613029D01*
X99710971Y-79352823D01*
X99370994Y-79212000D01*
X99003006Y-79212000D01*
X98663029Y-79352823D01*
X98402823Y-79613029D01*
X98361500Y-79712792D01*
X98320177Y-79613029D01*
X98059971Y-79352823D01*
X97719994Y-79212000D01*
X97352006Y-79212000D01*
X97012029Y-79352823D01*
X96751823Y-79613029D01*
X96710500Y-79712792D01*
X96669177Y-79613029D01*
X96408971Y-79352823D01*
X96068994Y-79212000D01*
X95701006Y-79212000D01*
X95361029Y-79352823D01*
X95100823Y-79613029D01*
X94960000Y-79953006D01*
X92561005Y-79953006D01*
X92619000Y-79812994D01*
X92619000Y-79445006D01*
X92478177Y-79105029D01*
X92217971Y-78844823D01*
X91877994Y-78704000D01*
X91510006Y-78704000D01*
X91170029Y-78844823D01*
X90909823Y-79105029D01*
X90849943Y-79249592D01*
X90718913Y-78933257D01*
X90458707Y-78673051D01*
X90118730Y-78532228D01*
X89750742Y-78532228D01*
X89410765Y-78673051D01*
X89150559Y-78933257D01*
X89009736Y-79273234D01*
X88028455Y-79273234D01*
X87906177Y-78978029D01*
X87645971Y-78717823D01*
X87305994Y-78577000D01*
X86938006Y-78577000D01*
X86598029Y-78717823D01*
X86337823Y-78978029D01*
X86197000Y-79318006D01*
X85515654Y-79318006D01*
X85359971Y-79162323D01*
X85019994Y-79021500D01*
X84652006Y-79021500D01*
X84312029Y-79162323D01*
X84051823Y-79422529D01*
X83911000Y-79762506D01*
X83078593Y-79762506D01*
X83016677Y-79613029D01*
X82756471Y-79352823D01*
X82416494Y-79212000D01*
X82048506Y-79212000D01*
X81708529Y-79352823D01*
X81448323Y-79613029D01*
X81307500Y-79953006D01*
X80624770Y-79953006D01*
X80801809Y-79775967D01*
X80828906Y-79735414D01*
X80887485Y-79593992D01*
X80897000Y-79546157D01*
X80897000Y-77159006D01*
X80990000Y-77159006D01*
X80990000Y-77526994D01*
X81130823Y-77866971D01*
X81391029Y-78127177D01*
X81731006Y-78268000D01*
X82098994Y-78268000D01*
X82438971Y-78127177D01*
X82699177Y-77866971D01*
X82840000Y-77526994D01*
X82840000Y-77159006D01*
X82699177Y-76819029D01*
X82438971Y-76558823D01*
X82098994Y-76418000D01*
X81731006Y-76418000D01*
X81391029Y-76558823D01*
X81130823Y-76819029D01*
X80990000Y-77159006D01*
X80897000Y-77159006D01*
X80897000Y-76262710D01*
X87922444Y-76262710D01*
X87922444Y-76630698D01*
X88063267Y-76970675D01*
X88323473Y-77230881D01*
X88663450Y-77371704D01*
X89031438Y-77371704D01*
X89371415Y-77230881D01*
X89631621Y-76970675D01*
X89772444Y-76630698D01*
X89772444Y-76262710D01*
X89631621Y-75922733D01*
X89371415Y-75662527D01*
X89031438Y-75521704D01*
X88663450Y-75521704D01*
X88323473Y-75662527D01*
X88063267Y-75922733D01*
X87922444Y-76262710D01*
X80897000Y-76262710D01*
X80897000Y-74428506D01*
X81053500Y-74428506D01*
X81053500Y-74796494D01*
X81194323Y-75136471D01*
X81454529Y-75396677D01*
X81794506Y-75537500D01*
X82162494Y-75537500D01*
X82502471Y-75396677D01*
X82762677Y-75136471D01*
X82903500Y-74796494D01*
X82903500Y-74428506D01*
X82762677Y-74088529D01*
X82502471Y-73828323D01*
X82162494Y-73687500D01*
X81794506Y-73687500D01*
X81454529Y-73828323D01*
X81194323Y-74088529D01*
X81053500Y-74428506D01*
X80897000Y-74428506D01*
X80897000Y-73742843D01*
X80887485Y-73695008D01*
X80828906Y-73553586D01*
X80801809Y-73513033D01*
X79331467Y-72042691D01*
X79290914Y-72015594D01*
X79149492Y-71957015D01*
X79101657Y-71947500D01*
X77631365Y-71947500D01*
X77560750Y-71918250D01*
X77531500Y-71847635D01*
X77531500Y-71676037D01*
X77633000Y-71430994D01*
X77633000Y-71380506D01*
X80672500Y-71380506D01*
X80672500Y-71748494D01*
X80813323Y-72088471D01*
X81073529Y-72348677D01*
X81413506Y-72489500D01*
X81781494Y-72489500D01*
X82121471Y-72348677D01*
X82381677Y-72088471D01*
X82411900Y-72015506D01*
X82641000Y-72015506D01*
X82641000Y-72383494D01*
X82781823Y-72723471D01*
X83042029Y-72983677D01*
X83382006Y-73124500D01*
X83749994Y-73124500D01*
X84089971Y-72983677D01*
X84105642Y-72968006D01*
X91150000Y-72968006D01*
X91150000Y-73335994D01*
X91290823Y-73675971D01*
X91551029Y-73936177D01*
X91891006Y-74077000D01*
X92258994Y-74077000D01*
X92598971Y-73936177D01*
X92859177Y-73675971D01*
X93000000Y-73335994D01*
X93000000Y-73095006D01*
X95658500Y-73095006D01*
X95658500Y-73462994D01*
X95799323Y-73802971D01*
X96059529Y-74063177D01*
X96399506Y-74204000D01*
X96767494Y-74204000D01*
X97107471Y-74063177D01*
X97367677Y-73802971D01*
X97508500Y-73462994D01*
X97508500Y-73095006D01*
X98071500Y-73095006D01*
X98071500Y-73462994D01*
X98212323Y-73802971D01*
X98472529Y-74063177D01*
X98812506Y-74204000D01*
X99180494Y-74204000D01*
X99520471Y-74063177D01*
X99780677Y-73802971D01*
X99921500Y-73462994D01*
X99921500Y-73095006D01*
X99780677Y-72755029D01*
X99520471Y-72494823D01*
X99180494Y-72354000D01*
X98812506Y-72354000D01*
X98472529Y-72494823D01*
X98212323Y-72755029D01*
X98071500Y-73095006D01*
X97508500Y-73095006D01*
X97367677Y-72755029D01*
X97107471Y-72494823D01*
X96767494Y-72354000D01*
X96399506Y-72354000D01*
X96059529Y-72494823D01*
X95799323Y-72755029D01*
X95658500Y-73095006D01*
X93000000Y-73095006D01*
X93000000Y-72968006D01*
X92859177Y-72628029D01*
X92598971Y-72367823D01*
X92258994Y-72227000D01*
X91891006Y-72227000D01*
X91551029Y-72367823D01*
X91290823Y-72628029D01*
X91150000Y-72968006D01*
X84105642Y-72968006D01*
X84350177Y-72723471D01*
X84491000Y-72383494D01*
X84491000Y-72015506D01*
X84350177Y-71675529D01*
X84089971Y-71415323D01*
X83749994Y-71274500D01*
X83382006Y-71274500D01*
X83042029Y-71415323D01*
X82781823Y-71675529D01*
X82641000Y-72015506D01*
X82411900Y-72015506D01*
X82522500Y-71748494D01*
X82522500Y-71380506D01*
X82381677Y-71040529D01*
X82121471Y-70780323D01*
X81781494Y-70639500D01*
X81413506Y-70639500D01*
X81073529Y-70780323D01*
X80813323Y-71040529D01*
X80672500Y-71380506D01*
X77633000Y-71380506D01*
X77633000Y-71063006D01*
X77531500Y-70817963D01*
X77531500Y-69793006D01*
X77688000Y-69793006D01*
X77688000Y-70160994D01*
X77828823Y-70500971D01*
X78089029Y-70761177D01*
X78429006Y-70902000D01*
X78796994Y-70902000D01*
X79136971Y-70761177D01*
X79397177Y-70500971D01*
X79538000Y-70160994D01*
X79538000Y-69920006D01*
X82958500Y-69920006D01*
X82958500Y-70287994D01*
X83099323Y-70627971D01*
X83359529Y-70888177D01*
X83699506Y-71029000D01*
X84067494Y-71029000D01*
X84407471Y-70888177D01*
X84667677Y-70627971D01*
X84808500Y-70287994D01*
X84808500Y-69983506D01*
X99405000Y-69983506D01*
X99405000Y-70351494D01*
X99545823Y-70691471D01*
X99806029Y-70951677D01*
X100146006Y-71092500D01*
X100513994Y-71092500D01*
X100853971Y-70951677D01*
X101114177Y-70691471D01*
X101255000Y-70351494D01*
X101255000Y-69983506D01*
X101114177Y-69643529D01*
X100853971Y-69383323D01*
X100513994Y-69242500D01*
X100146006Y-69242500D01*
X99806029Y-69383323D01*
X99545823Y-69643529D01*
X99405000Y-69983506D01*
X84808500Y-69983506D01*
X84808500Y-69920006D01*
X84667677Y-69580029D01*
X84407471Y-69319823D01*
X84067494Y-69179000D01*
X83699506Y-69179000D01*
X83359529Y-69319823D01*
X83099323Y-69580029D01*
X82958500Y-69920006D01*
X79538000Y-69920006D01*
X79538000Y-69793006D01*
X79397177Y-69453029D01*
X79136971Y-69192823D01*
X78796994Y-69052000D01*
X78429006Y-69052000D01*
X78089029Y-69192823D01*
X77828823Y-69453029D01*
X77688000Y-69793006D01*
X77531500Y-69793006D01*
X77531500Y-69072537D01*
X77633000Y-68827494D01*
X77633000Y-68459506D01*
X80609000Y-68459506D01*
X80609000Y-68827494D01*
X80749823Y-69167471D01*
X81010029Y-69427677D01*
X81350006Y-69568500D01*
X81717994Y-69568500D01*
X82057971Y-69427677D01*
X82318177Y-69167471D01*
X82453610Y-68840506D01*
X94452000Y-68840506D01*
X94452000Y-69208494D01*
X94592823Y-69548471D01*
X94853029Y-69808677D01*
X95193006Y-69949500D01*
X95560994Y-69949500D01*
X95900971Y-69808677D01*
X96161177Y-69548471D01*
X96302000Y-69208494D01*
X96302000Y-68840506D01*
X96161177Y-68500529D01*
X95900971Y-68240323D01*
X95560994Y-68099500D01*
X95193006Y-68099500D01*
X94853029Y-68240323D01*
X94592823Y-68500529D01*
X94452000Y-68840506D01*
X82453610Y-68840506D01*
X82459000Y-68827494D01*
X82459000Y-68459506D01*
X82318177Y-68119529D01*
X82057971Y-67859323D01*
X81717994Y-67718500D01*
X81350006Y-67718500D01*
X81010029Y-67859323D01*
X80749823Y-68119529D01*
X80609000Y-68459506D01*
X77633000Y-68459506D01*
X77531500Y-68214463D01*
X77531500Y-66872006D01*
X77688000Y-66872006D01*
X77688000Y-67239994D01*
X77828823Y-67579971D01*
X78089029Y-67840177D01*
X78429006Y-67981000D01*
X78796994Y-67981000D01*
X79136971Y-67840177D01*
X79397177Y-67579971D01*
X79538000Y-67239994D01*
X79538000Y-67062506D01*
X82958500Y-67062506D01*
X82958500Y-67430494D01*
X83099323Y-67770471D01*
X83359529Y-68030677D01*
X83699506Y-68171500D01*
X84067494Y-68171500D01*
X84407471Y-68030677D01*
X84667677Y-67770471D01*
X84808500Y-67430494D01*
X84808500Y-67189506D01*
X96420500Y-67189506D01*
X96420500Y-67557494D01*
X96561323Y-67897471D01*
X96821529Y-68157677D01*
X97161506Y-68298500D01*
X97529494Y-68298500D01*
X97869471Y-68157677D01*
X98129677Y-67897471D01*
X98159900Y-67824506D01*
X104548500Y-67824506D01*
X104548500Y-68192494D01*
X104689323Y-68532471D01*
X104949529Y-68792677D01*
X105289506Y-68933500D01*
X105657494Y-68933500D01*
X105997471Y-68792677D01*
X106257677Y-68532471D01*
X106398500Y-68192494D01*
X106398500Y-67824506D01*
X106257677Y-67484529D01*
X105997471Y-67224323D01*
X105657494Y-67083500D01*
X105289506Y-67083500D01*
X104949529Y-67224323D01*
X104689323Y-67484529D01*
X104548500Y-67824506D01*
X98159900Y-67824506D01*
X98270500Y-67557494D01*
X98270500Y-67189506D01*
X98129677Y-66849529D01*
X97869471Y-66589323D01*
X97529494Y-66448500D01*
X97161506Y-66448500D01*
X96821529Y-66589323D01*
X96561323Y-66849529D01*
X96420500Y-67189506D01*
X84808500Y-67189506D01*
X84808500Y-67062506D01*
X84667677Y-66722529D01*
X84407471Y-66462323D01*
X84067494Y-66321500D01*
X83699506Y-66321500D01*
X83359529Y-66462323D01*
X83099323Y-66722529D01*
X82958500Y-67062506D01*
X79538000Y-67062506D01*
X79538000Y-66872006D01*
X79397177Y-66532029D01*
X79136971Y-66271823D01*
X78796994Y-66131000D01*
X78429006Y-66131000D01*
X78089029Y-66271823D01*
X77828823Y-66532029D01*
X77688000Y-66872006D01*
X77531500Y-66872006D01*
X77531500Y-66532537D01*
X77633000Y-66287494D01*
X77633000Y-65919506D01*
X77580395Y-65792506D01*
X80609000Y-65792506D01*
X80609000Y-66160494D01*
X80749823Y-66500471D01*
X81010029Y-66760677D01*
X81350006Y-66901500D01*
X81717994Y-66901500D01*
X82057971Y-66760677D01*
X82318177Y-66500471D01*
X82459000Y-66160494D01*
X82459000Y-65792506D01*
X82318177Y-65452529D01*
X82057971Y-65192323D01*
X81717994Y-65051500D01*
X81350006Y-65051500D01*
X81010029Y-65192323D01*
X80749823Y-65452529D01*
X80609000Y-65792506D01*
X77580395Y-65792506D01*
X77531500Y-65674463D01*
X77531500Y-64713006D01*
X101310000Y-64713006D01*
X101310000Y-65080994D01*
X101450823Y-65420971D01*
X101711029Y-65681177D01*
X102051006Y-65822000D01*
X102418994Y-65822000D01*
X102758971Y-65681177D01*
X103019177Y-65420971D01*
X103160000Y-65080994D01*
X103160000Y-64713006D01*
X103103794Y-64577311D01*
X105619500Y-64577311D01*
X105619500Y-65422689D01*
X105943012Y-66203716D01*
X106540784Y-66801488D01*
X107321811Y-67125000D01*
X108167189Y-67125000D01*
X108948216Y-66801488D01*
X109545988Y-66203716D01*
X109869500Y-65422689D01*
X109869500Y-64577311D01*
X109545988Y-63796284D01*
X108948216Y-63198512D01*
X108167189Y-62875000D01*
X107321811Y-62875000D01*
X106540784Y-63198512D01*
X105943012Y-63796284D01*
X105619500Y-64577311D01*
X103103794Y-64577311D01*
X103019177Y-64373029D01*
X102758971Y-64112823D01*
X102418994Y-63972000D01*
X102051006Y-63972000D01*
X101711029Y-64112823D01*
X101450823Y-64373029D01*
X101310000Y-64713006D01*
X77531500Y-64713006D01*
X77531500Y-61941000D01*
X80568069Y-61941000D01*
X80288681Y-62127681D01*
X80288681Y-62127681D01*
G37*
X80288681Y-62127681D02*
X79984779Y-62582502D01*
X79878063Y-63119000D01*
X79984779Y-63655498D01*
X80288681Y-64110319D01*
X80743502Y-64414221D01*
X81144578Y-64494000D01*
X81415422Y-64494000D01*
X81816498Y-64414221D01*
X82271319Y-64110319D01*
X82550000Y-63693244D01*
X82828681Y-64110319D01*
X83283502Y-64414221D01*
X83684578Y-64494000D01*
X83955422Y-64494000D01*
X84356498Y-64414221D01*
X84811319Y-64110319D01*
X85090000Y-63693244D01*
X85368681Y-64110319D01*
X85823502Y-64414221D01*
X86224578Y-64494000D01*
X86495422Y-64494000D01*
X86896498Y-64414221D01*
X87351319Y-64110319D01*
X87630000Y-63693244D01*
X87908681Y-64110319D01*
X88363502Y-64414221D01*
X88764578Y-64494000D01*
X89035422Y-64494000D01*
X89436498Y-64414221D01*
X89891319Y-64110319D01*
X90170000Y-63693244D01*
X90448681Y-64110319D01*
X90903502Y-64414221D01*
X91304578Y-64494000D01*
X91575422Y-64494000D01*
X91976498Y-64414221D01*
X92431319Y-64110319D01*
X92710000Y-63693244D01*
X92988681Y-64110319D01*
X93443502Y-64414221D01*
X93844578Y-64494000D01*
X94115422Y-64494000D01*
X94516498Y-64414221D01*
X94971319Y-64110319D01*
X95250000Y-63693244D01*
X95528681Y-64110319D01*
X95983502Y-64414221D01*
X96384578Y-64494000D01*
X96655422Y-64494000D01*
X97056498Y-64414221D01*
X97511319Y-64110319D01*
X97790000Y-63693244D01*
X98068681Y-64110319D01*
X98523502Y-64414221D01*
X98924578Y-64494000D01*
X99195422Y-64494000D01*
X99596498Y-64414221D01*
X100051319Y-64110319D01*
X100355221Y-63655498D01*
X100461937Y-63119000D01*
X100355221Y-62582502D01*
X100051319Y-62127681D01*
X99771931Y-61941000D01*
X101043486Y-61941000D01*
X101012529Y-61953823D01*
X100752323Y-62214029D01*
X100611500Y-62554006D01*
X100611500Y-62921994D01*
X100752323Y-63261971D01*
X101012529Y-63522177D01*
X101352506Y-63663000D01*
X101720494Y-63663000D01*
X102060471Y-63522177D01*
X102320677Y-63261971D01*
X102461500Y-62921994D01*
X102461500Y-62554006D01*
X102320677Y-62214029D01*
X102060471Y-61953823D01*
X102029514Y-61941000D01*
X103882852Y-61941000D01*
X103673323Y-62150529D01*
X103532500Y-62490506D01*
X103532500Y-62858494D01*
X103673323Y-63198471D01*
X103933529Y-63458677D01*
X104273506Y-63599500D01*
X104641494Y-63599500D01*
X104981471Y-63458677D01*
X105241677Y-63198471D01*
X105382500Y-62858494D01*
X105382500Y-62490506D01*
X105241677Y-62150529D01*
X105032148Y-61941000D01*
X109225473Y-61941000D01*
X110779000Y-63494528D01*
X110779000Y-67578987D01*
X110766177Y-67548029D01*
X110505971Y-67287823D01*
X110165994Y-67147000D01*
X109798006Y-67147000D01*
X109458029Y-67287823D01*
X109197823Y-67548029D01*
X109057000Y-67888006D01*
X109057000Y-68255994D01*
X109197823Y-68595971D01*
X109458029Y-68856177D01*
X109798006Y-68997000D01*
X110165994Y-68997000D01*
X110505971Y-68856177D01*
X110766177Y-68595971D01*
X110779000Y-68565013D01*
X110779000Y-69090000D01*
X104159343Y-69090000D01*
X104111508Y-69099515D01*
X103970086Y-69158094D01*
X103929533Y-69185191D01*
X103475191Y-69639533D01*
X103448094Y-69680086D01*
X103389515Y-69821508D01*
X103380000Y-69869343D01*
X103380000Y-90713536D01*
X103053994Y-90578500D01*
X102686006Y-90578500D01*
X102346029Y-90719323D01*
X102085823Y-90979529D01*
X101945000Y-91319506D01*
X101945000Y-91687494D01*
X102085823Y-92027471D01*
X102346029Y-92287677D01*
X102686006Y-92428500D01*
X103053994Y-92428500D01*
X103393971Y-92287677D01*
X103654177Y-92027471D01*
X103693576Y-91932352D01*
X103866033Y-92104809D01*
X103906586Y-92131906D01*
X104048008Y-92190485D01*
X104095843Y-92200000D01*
X110779001Y-92200000D01*
X110779001Y-92643353D01*
X110632971Y-92497323D01*
X110292994Y-92356500D01*
X109925006Y-92356500D01*
X109585029Y-92497323D01*
X109324823Y-92757529D01*
X109184000Y-93097506D01*
X109184000Y-93465494D01*
X109324823Y-93805471D01*
X109585029Y-94065677D01*
X109925006Y-94206500D01*
X110292994Y-94206500D01*
X110632971Y-94065677D01*
X110779001Y-93919647D01*
X110779001Y-95056353D01*
X110696471Y-94973823D01*
X110356494Y-94833000D01*
X109988506Y-94833000D01*
X109648529Y-94973823D01*
X109388323Y-95234029D01*
X109247500Y-95574006D01*
X109247500Y-95941994D01*
X109388323Y-96281971D01*
X109648529Y-96542177D01*
X109988506Y-96683000D01*
X110356494Y-96683000D01*
X110696471Y-96542177D01*
X110779001Y-96459647D01*
X110779001Y-97405853D01*
X110696471Y-97323323D01*
X110356494Y-97182500D01*
X109988506Y-97182500D01*
X109648529Y-97323323D01*
X109388323Y-97583529D01*
X109247500Y-97923506D01*
X109247500Y-98291494D01*
X109388323Y-98631471D01*
X109648529Y-98891677D01*
X109988506Y-99032500D01*
X110356494Y-99032500D01*
X110696471Y-98891677D01*
X110779001Y-98809147D01*
X110779001Y-100326853D01*
X110696471Y-100244323D01*
X110356494Y-100103500D01*
X109988506Y-100103500D01*
X109648529Y-100244323D01*
X109388323Y-100504529D01*
X109247500Y-100844506D01*
X109247500Y-101212494D01*
X109388323Y-101552471D01*
X109648529Y-101812677D01*
X109988506Y-101953500D01*
X110356494Y-101953500D01*
X110696471Y-101812677D01*
X110779001Y-101730147D01*
X110779001Y-102803353D01*
X110632971Y-102657323D01*
X110292994Y-102516500D01*
X109925006Y-102516500D01*
X109585029Y-102657323D01*
X109324823Y-102917529D01*
X109184000Y-103257506D01*
X109184000Y-103625494D01*
X109324823Y-103965471D01*
X109585029Y-104225677D01*
X109925006Y-104366500D01*
X110292994Y-104366500D01*
X110632971Y-104225677D01*
X110779001Y-104079647D01*
X110779001Y-105914853D01*
X110569471Y-105705323D01*
X110229494Y-105564500D01*
X109861506Y-105564500D01*
X109521529Y-105705323D01*
X109261323Y-105965529D01*
X109120500Y-106305506D01*
X109120500Y-106673494D01*
X109261323Y-107013471D01*
X109521529Y-107273677D01*
X109861506Y-107414500D01*
X110229494Y-107414500D01*
X110569471Y-107273677D01*
X110779001Y-107064147D01*
X110779001Y-108454853D01*
X110569471Y-108245323D01*
X110229494Y-108104500D01*
X109861506Y-108104500D01*
X109521529Y-108245323D01*
X109261323Y-108505529D01*
X109120500Y-108845506D01*
X109120500Y-109213494D01*
X109261323Y-109553471D01*
X109521529Y-109813677D01*
X109861506Y-109954500D01*
X110229494Y-109954500D01*
X110569471Y-109813677D01*
X110779001Y-109604147D01*
X110779001Y-111439353D01*
X110569471Y-111229823D01*
X110229494Y-111089000D01*
X109861506Y-111089000D01*
X109521529Y-111229823D01*
X109261323Y-111490029D01*
X109120500Y-111830006D01*
X109120500Y-112197994D01*
X109261323Y-112537971D01*
X109521529Y-112798177D01*
X109861506Y-112939000D01*
X110229494Y-112939000D01*
X110569471Y-112798177D01*
X110779001Y-112588647D01*
X110779001Y-116464471D01*
X109225473Y-118018000D01*
X102311931Y-118018000D01*
X102591319Y-117831319D01*
X102895221Y-117376498D01*
X103001937Y-116840000D01*
X102977970Y-116719506D01*
X103405500Y-116719506D01*
X103405500Y-117087494D01*
X103546323Y-117427471D01*
X103806529Y-117687677D01*
X104146506Y-117828500D01*
X104514494Y-117828500D01*
X104854471Y-117687677D01*
X105114677Y-117427471D01*
X105255500Y-117087494D01*
X105255500Y-116719506D01*
X105114677Y-116379529D01*
X104854471Y-116119323D01*
X104514494Y-115978500D01*
X104146506Y-115978500D01*
X103806529Y-116119323D01*
X103546323Y-116379529D01*
X103405500Y-116719506D01*
X102977970Y-116719506D01*
X102895221Y-116303502D01*
X102591319Y-115848681D01*
X102136498Y-115544779D01*
X101735422Y-115465000D01*
X101464578Y-115465000D01*
X101063502Y-115544779D01*
X100608681Y-115848681D01*
X100330000Y-116265756D01*
X100051319Y-115848681D01*
X99596498Y-115544779D01*
X99195422Y-115465000D01*
X98924578Y-115465000D01*
X98523502Y-115544779D01*
X98068681Y-115848681D01*
X97790000Y-116265756D01*
X97511319Y-115848681D01*
X97056498Y-115544779D01*
X96655422Y-115465000D01*
X96384578Y-115465000D01*
X95983502Y-115544779D01*
X95528681Y-115848681D01*
X95250000Y-116265756D01*
X94971319Y-115848681D01*
X94516498Y-115544779D01*
X94115422Y-115465000D01*
X93844578Y-115465000D01*
X93443502Y-115544779D01*
X92988681Y-115848681D01*
X92710000Y-116265756D01*
X92431319Y-115848681D01*
X91976498Y-115544779D01*
X91575422Y-115465000D01*
X91304578Y-115465000D01*
X90903502Y-115544779D01*
X90448681Y-115848681D01*
X90170000Y-116265756D01*
X89891319Y-115848681D01*
X89436498Y-115544779D01*
X89035422Y-115465000D01*
X88764578Y-115465000D01*
X88363502Y-115544779D01*
X87908681Y-115848681D01*
X87630000Y-116265756D01*
X87351319Y-115848681D01*
X86896498Y-115544779D01*
X86495422Y-115465000D01*
X86224578Y-115465000D01*
X85823502Y-115544779D01*
X85368681Y-115848681D01*
X85090000Y-116265756D01*
X84811319Y-115848681D01*
X84356498Y-115544779D01*
X84261104Y-115525804D01*
X84407471Y-115465177D01*
X84667677Y-115204971D01*
X84808500Y-114864994D01*
X84808500Y-114497006D01*
X84667677Y-114157029D01*
X84407471Y-113896823D01*
X84067494Y-113756000D01*
X83699506Y-113756000D01*
X83359529Y-113896823D01*
X83099323Y-114157029D01*
X82958500Y-114497006D01*
X82958500Y-114864994D01*
X83099323Y-115204971D01*
X83359529Y-115465177D01*
X83464694Y-115508738D01*
X83283502Y-115544779D01*
X82828681Y-115848681D01*
X82550000Y-116265756D01*
X82271319Y-115848681D01*
X81816498Y-115544779D01*
X81415422Y-115465000D01*
X81144578Y-115465000D01*
X81091123Y-115475633D01*
X81422971Y-115338177D01*
X81683177Y-115077971D01*
X81824000Y-114737994D01*
X81824000Y-114370006D01*
X81683177Y-114030029D01*
X81422971Y-113769823D01*
X81082994Y-113629000D01*
X80715006Y-113629000D01*
X80375029Y-113769823D01*
X80114823Y-114030029D01*
X79974000Y-114370006D01*
X79974000Y-114737994D01*
X80114823Y-115077971D01*
X80375029Y-115338177D01*
X80715006Y-115479000D01*
X81074195Y-115479000D01*
X80743502Y-115544779D01*
X80288681Y-115848681D01*
X79984779Y-116303502D01*
X79878063Y-116840000D01*
X79984779Y-117376498D01*
X80288681Y-117831319D01*
X80568069Y-118018000D01*
X77531500Y-118018000D01*
X77531500Y-113036506D01*
X77751500Y-113036506D01*
X77751500Y-113404494D01*
X77892323Y-113744471D01*
X78152529Y-114004677D01*
X78492506Y-114145500D01*
X78860494Y-114145500D01*
X79200471Y-114004677D01*
X79460677Y-113744471D01*
X79601500Y-113404494D01*
X79601500Y-113036506D01*
X79496290Y-112782506D01*
X81434500Y-112782506D01*
X81434500Y-113150494D01*
X81575323Y-113490471D01*
X81835529Y-113750677D01*
X82175506Y-113891500D01*
X82543494Y-113891500D01*
X82883471Y-113750677D01*
X83143677Y-113490471D01*
X83284500Y-113150494D01*
X83284500Y-112782506D01*
X83231895Y-112655506D01*
X84165000Y-112655506D01*
X84165000Y-113023494D01*
X84305823Y-113363471D01*
X84566029Y-113623677D01*
X84906006Y-113764500D01*
X85273994Y-113764500D01*
X85613971Y-113623677D01*
X85629642Y-113608006D01*
X95785502Y-113608006D01*
X95785502Y-113975994D01*
X95926325Y-114315971D01*
X96186531Y-114576177D01*
X96526508Y-114717000D01*
X96894496Y-114717000D01*
X97234473Y-114576177D01*
X97494679Y-114315971D01*
X97551204Y-114179506D01*
X100230500Y-114179506D01*
X100230500Y-114547494D01*
X100371323Y-114887471D01*
X100631529Y-115147677D01*
X100971506Y-115288500D01*
X101339494Y-115288500D01*
X101679471Y-115147677D01*
X101939677Y-114887471D01*
X102068149Y-114577311D01*
X105619500Y-114577311D01*
X105619500Y-115422689D01*
X105943012Y-116203716D01*
X106540784Y-116801488D01*
X107321811Y-117125000D01*
X108167189Y-117125000D01*
X108948216Y-116801488D01*
X109545988Y-116203716D01*
X109869500Y-115422689D01*
X109869500Y-114577311D01*
X109545988Y-113796284D01*
X108948216Y-113198512D01*
X108167189Y-112875000D01*
X107321811Y-112875000D01*
X106540784Y-113198512D01*
X105943012Y-113796284D01*
X105619500Y-114577311D01*
X102068149Y-114577311D01*
X102080500Y-114547494D01*
X102080500Y-114179506D01*
X101939677Y-113839529D01*
X101679471Y-113579323D01*
X101339494Y-113438500D01*
X100971506Y-113438500D01*
X100631529Y-113579323D01*
X100371323Y-113839529D01*
X100230500Y-114179506D01*
X97551204Y-114179506D01*
X97635502Y-113975994D01*
X97635502Y-113608006D01*
X97494679Y-113268029D01*
X97234473Y-113007823D01*
X96894496Y-112867000D01*
X96526508Y-112867000D01*
X96186531Y-113007823D01*
X95926325Y-113268029D01*
X95785502Y-113608006D01*
X85629642Y-113608006D01*
X85874177Y-113363471D01*
X86015000Y-113023494D01*
X86015000Y-112655506D01*
X85874177Y-112315529D01*
X85833154Y-112274506D01*
X101500500Y-112274506D01*
X101500500Y-112642494D01*
X101641323Y-112982471D01*
X101901529Y-113242677D01*
X102241506Y-113383500D01*
X102609494Y-113383500D01*
X102949471Y-113242677D01*
X103028642Y-113163506D01*
X103278500Y-113163506D01*
X103278500Y-113531494D01*
X103419323Y-113871471D01*
X103679529Y-114131677D01*
X104019506Y-114272500D01*
X104387494Y-114272500D01*
X104727471Y-114131677D01*
X104987677Y-113871471D01*
X105128500Y-113531494D01*
X105128500Y-113163506D01*
X104987677Y-112823529D01*
X104727471Y-112563323D01*
X104387494Y-112422500D01*
X104019506Y-112422500D01*
X103679529Y-112563323D01*
X103419323Y-112823529D01*
X103278500Y-113163506D01*
X103028642Y-113163506D01*
X103209677Y-112982471D01*
X103350500Y-112642494D01*
X103350500Y-112274506D01*
X103209677Y-111934529D01*
X102949471Y-111674323D01*
X102609494Y-111533500D01*
X102241506Y-111533500D01*
X101901529Y-111674323D01*
X101641323Y-111934529D01*
X101500500Y-112274506D01*
X85833154Y-112274506D01*
X85613971Y-112055323D01*
X85273994Y-111914500D01*
X84906006Y-111914500D01*
X84566029Y-112055323D01*
X84305823Y-112315529D01*
X84165000Y-112655506D01*
X83231895Y-112655506D01*
X83143677Y-112442529D01*
X82883471Y-112182323D01*
X82543494Y-112041500D01*
X82175506Y-112041500D01*
X81835529Y-112182323D01*
X81575323Y-112442529D01*
X81434500Y-112782506D01*
X79496290Y-112782506D01*
X79460677Y-112696529D01*
X79200471Y-112436323D01*
X78860494Y-112295500D01*
X78492506Y-112295500D01*
X78152529Y-112436323D01*
X77892323Y-112696529D01*
X77751500Y-113036506D01*
X77531500Y-113036506D01*
X77531500Y-111258506D01*
X79974000Y-111258506D01*
X79974000Y-111626494D01*
X80114823Y-111966471D01*
X80375029Y-112226677D01*
X80715006Y-112367500D01*
X81082994Y-112367500D01*
X81422971Y-112226677D01*
X81683177Y-111966471D01*
X81824000Y-111626494D01*
X81824000Y-111258506D01*
X81683177Y-110918529D01*
X81578654Y-110814006D01*
X100167000Y-110814006D01*
X100167000Y-111181994D01*
X100307823Y-111521971D01*
X100568029Y-111782177D01*
X100908006Y-111923000D01*
X101275994Y-111923000D01*
X101615971Y-111782177D01*
X101876177Y-111521971D01*
X102017000Y-111181994D01*
X102017000Y-110941006D01*
X103469000Y-110941006D01*
X103469000Y-111308994D01*
X103609823Y-111648971D01*
X103870029Y-111909177D01*
X104210006Y-112050000D01*
X104577994Y-112050000D01*
X104917971Y-111909177D01*
X105178177Y-111648971D01*
X105319000Y-111308994D01*
X105319000Y-111068006D01*
X106771000Y-111068006D01*
X106771000Y-111435994D01*
X106911823Y-111775971D01*
X107172029Y-112036177D01*
X107512006Y-112177000D01*
X107879994Y-112177000D01*
X108219971Y-112036177D01*
X108480177Y-111775971D01*
X108621000Y-111435994D01*
X108621000Y-111068006D01*
X108480177Y-110728029D01*
X108219971Y-110467823D01*
X107879994Y-110327000D01*
X107512006Y-110327000D01*
X107172029Y-110467823D01*
X106911823Y-110728029D01*
X106771000Y-111068006D01*
X105319000Y-111068006D01*
X105319000Y-110941006D01*
X105178177Y-110601029D01*
X104917971Y-110340823D01*
X104577994Y-110200000D01*
X104210006Y-110200000D01*
X103870029Y-110340823D01*
X103609823Y-110601029D01*
X103469000Y-110941006D01*
X102017000Y-110941006D01*
X102017000Y-110814006D01*
X101876177Y-110474029D01*
X101615971Y-110213823D01*
X101275994Y-110073000D01*
X100908006Y-110073000D01*
X100568029Y-110213823D01*
X100307823Y-110474029D01*
X100167000Y-110814006D01*
X81578654Y-110814006D01*
X81422971Y-110658323D01*
X81082994Y-110517500D01*
X80715006Y-110517500D01*
X80375029Y-110658323D01*
X80114823Y-110918529D01*
X79974000Y-111258506D01*
X77531500Y-111258506D01*
X77531500Y-109581707D01*
X77571049Y-109486227D01*
X78084770Y-108972506D01*
X80799500Y-108972506D01*
X80799500Y-109340494D01*
X80940323Y-109680471D01*
X81200529Y-109940677D01*
X81540506Y-110081500D01*
X81908494Y-110081500D01*
X82248471Y-109940677D01*
X82508677Y-109680471D01*
X82565202Y-109544006D01*
X105564500Y-109544006D01*
X105564500Y-109911994D01*
X105705323Y-110251971D01*
X105965529Y-110512177D01*
X106305506Y-110653000D01*
X106673494Y-110653000D01*
X107013471Y-110512177D01*
X107273677Y-110251971D01*
X107414500Y-109911994D01*
X107414500Y-109544006D01*
X107273677Y-109204029D01*
X107013471Y-108943823D01*
X106673494Y-108803000D01*
X106305506Y-108803000D01*
X105965529Y-108943823D01*
X105705323Y-109204029D01*
X105564500Y-109544006D01*
X82565202Y-109544006D01*
X82649500Y-109340494D01*
X82649500Y-108972506D01*
X82508677Y-108632529D01*
X82248471Y-108372323D01*
X81908494Y-108231500D01*
X81540506Y-108231500D01*
X81200529Y-108372323D01*
X80940323Y-108632529D01*
X80799500Y-108972506D01*
X78084770Y-108972506D01*
X80609000Y-106448276D01*
X80609000Y-106546494D01*
X80749823Y-106886471D01*
X81010029Y-107146677D01*
X81350006Y-107287500D01*
X81717994Y-107287500D01*
X82057971Y-107146677D01*
X82318177Y-106886471D01*
X82374702Y-106750006D01*
X89181500Y-106750006D01*
X89181500Y-107117994D01*
X89322323Y-107457971D01*
X89582529Y-107718177D01*
X89922506Y-107859000D01*
X90290494Y-107859000D01*
X90630471Y-107718177D01*
X90890677Y-107457971D01*
X91031500Y-107117994D01*
X91031500Y-106750006D01*
X90890677Y-106410029D01*
X90630471Y-106149823D01*
X90290494Y-106009000D01*
X89922506Y-106009000D01*
X89582529Y-106149823D01*
X89322323Y-106410029D01*
X89181500Y-106750006D01*
X82374702Y-106750006D01*
X82459000Y-106546494D01*
X82459000Y-106178506D01*
X82318177Y-105838529D01*
X82057971Y-105578323D01*
X81717994Y-105437500D01*
X81619776Y-105437500D01*
X82847270Y-104210006D01*
X86451000Y-104210006D01*
X86451000Y-104577994D01*
X86591823Y-104917971D01*
X86852029Y-105178177D01*
X87192006Y-105319000D01*
X87559994Y-105319000D01*
X87899971Y-105178177D01*
X88160177Y-104917971D01*
X88301000Y-104577994D01*
X88301000Y-104210006D01*
X88160177Y-103870029D01*
X87899971Y-103609823D01*
X87559994Y-103469000D01*
X87192006Y-103469000D01*
X86852029Y-103609823D01*
X86591823Y-103870029D01*
X86451000Y-104210006D01*
X82847270Y-104210006D01*
X83087809Y-103969467D01*
X83114906Y-103928914D01*
X83173485Y-103787492D01*
X83183000Y-103739657D01*
X83183000Y-101606506D01*
X83466500Y-101606506D01*
X83466500Y-101974494D01*
X83607323Y-102314471D01*
X83867529Y-102574677D01*
X84207506Y-102715500D01*
X84575494Y-102715500D01*
X84915471Y-102574677D01*
X85175677Y-102314471D01*
X85316500Y-101974494D01*
X85316500Y-101606506D01*
X85175677Y-101266529D01*
X85071154Y-101162006D01*
X87022500Y-101162006D01*
X87022500Y-101529994D01*
X87163323Y-101869971D01*
X87423529Y-102130177D01*
X87763506Y-102271000D01*
X88131494Y-102271000D01*
X88471471Y-102130177D01*
X88731677Y-101869971D01*
X88872500Y-101529994D01*
X88872500Y-101225506D01*
X95975998Y-101225506D01*
X95975998Y-101593494D01*
X96116821Y-101933471D01*
X96377027Y-102193677D01*
X96717004Y-102334500D01*
X97084992Y-102334500D01*
X97424969Y-102193677D01*
X97685175Y-101933471D01*
X97825998Y-101593494D01*
X97825998Y-101225506D01*
X97685175Y-100885529D01*
X97424969Y-100625323D01*
X97084992Y-100484500D01*
X96717004Y-100484500D01*
X96377027Y-100625323D01*
X96116821Y-100885529D01*
X95975998Y-101225506D01*
X88872500Y-101225506D01*
X88872500Y-101162006D01*
X88731677Y-100822029D01*
X88471471Y-100561823D01*
X88131494Y-100421000D01*
X87763506Y-100421000D01*
X87423529Y-100561823D01*
X87163323Y-100822029D01*
X87022500Y-101162006D01*
X85071154Y-101162006D01*
X84915471Y-101006323D01*
X84575494Y-100865500D01*
X84207506Y-100865500D01*
X83867529Y-101006323D01*
X83607323Y-101266529D01*
X83466500Y-101606506D01*
X83183000Y-101606506D01*
X83183000Y-98939506D01*
X87022500Y-98939506D01*
X87022500Y-99307494D01*
X87163323Y-99647471D01*
X87423529Y-99907677D01*
X87763506Y-100048500D01*
X88131494Y-100048500D01*
X88471471Y-99907677D01*
X88731677Y-99647471D01*
X88872500Y-99307494D01*
X88872500Y-98939506D01*
X88731677Y-98599529D01*
X88563654Y-98431506D01*
X93372500Y-98431506D01*
X93372500Y-98799494D01*
X93513323Y-99139471D01*
X93773529Y-99399677D01*
X94113506Y-99540500D01*
X94481494Y-99540500D01*
X94821471Y-99399677D01*
X95081677Y-99139471D01*
X95222500Y-98799494D01*
X95222500Y-98431506D01*
X95081677Y-98091529D01*
X94821471Y-97831323D01*
X94481494Y-97690500D01*
X94113506Y-97690500D01*
X93773529Y-97831323D01*
X93513323Y-98091529D01*
X93372500Y-98431506D01*
X88563654Y-98431506D01*
X88471471Y-98339323D01*
X88131494Y-98198500D01*
X87763506Y-98198500D01*
X87423529Y-98339323D01*
X87163323Y-98599529D01*
X87022500Y-98939506D01*
X83183000Y-98939506D01*
X83183000Y-96945606D01*
X87022500Y-96945606D01*
X87022500Y-97313594D01*
X87163323Y-97653571D01*
X87423529Y-97913777D01*
X87763506Y-98054600D01*
X88131494Y-98054600D01*
X88471471Y-97913777D01*
X88731677Y-97653571D01*
X88872500Y-97313594D01*
X88872500Y-96945606D01*
X88731677Y-96605629D01*
X88471471Y-96345423D01*
X88131494Y-96204600D01*
X87763506Y-96204600D01*
X87423529Y-96345423D01*
X87163323Y-96605629D01*
X87022500Y-96945606D01*
X83183000Y-96945606D01*
X83183000Y-95066006D01*
X83276000Y-95066006D01*
X83276000Y-95433994D01*
X83416823Y-95773971D01*
X83677029Y-96034177D01*
X84017006Y-96175000D01*
X84384994Y-96175000D01*
X84724971Y-96034177D01*
X84985177Y-95773971D01*
X85126000Y-95433994D01*
X85126000Y-95066006D01*
X84985177Y-94726029D01*
X84724971Y-94465823D01*
X84384994Y-94325000D01*
X84017006Y-94325000D01*
X83677029Y-94465823D01*
X83416823Y-94726029D01*
X83276000Y-95066006D01*
X83183000Y-95066006D01*
X83183000Y-93716767D01*
X83445506Y-93825500D01*
X83813494Y-93825500D01*
X84153471Y-93684677D01*
X84169142Y-93669006D01*
X84609500Y-93669006D01*
X84609500Y-94036994D01*
X84750323Y-94376971D01*
X85010529Y-94637177D01*
X85350506Y-94778000D01*
X85718494Y-94778000D01*
X85928226Y-94691126D01*
X85829823Y-94789529D01*
X85689000Y-95129506D01*
X85689000Y-95497494D01*
X85829823Y-95837471D01*
X86090029Y-96097677D01*
X86430006Y-96238500D01*
X86797994Y-96238500D01*
X87137971Y-96097677D01*
X87398177Y-95837471D01*
X87539000Y-95497494D01*
X87539000Y-95129506D01*
X87398177Y-94789529D01*
X87137971Y-94529323D01*
X86900613Y-94431006D01*
X90832500Y-94431006D01*
X90832500Y-94798994D01*
X90973323Y-95138971D01*
X91233529Y-95399177D01*
X91573506Y-95540000D01*
X91941494Y-95540000D01*
X92281471Y-95399177D01*
X92541677Y-95138971D01*
X92682500Y-94798994D01*
X92682500Y-94431006D01*
X92541677Y-94091029D01*
X92281471Y-93830823D01*
X91941494Y-93690000D01*
X91573506Y-93690000D01*
X91233529Y-93830823D01*
X90973323Y-94091029D01*
X90832500Y-94431006D01*
X86900613Y-94431006D01*
X86797994Y-94388500D01*
X86430006Y-94388500D01*
X86220274Y-94475374D01*
X86318677Y-94376971D01*
X86459500Y-94036994D01*
X86459500Y-93669006D01*
X86318677Y-93329029D01*
X86058471Y-93068823D01*
X85718494Y-92928000D01*
X85350506Y-92928000D01*
X85010529Y-93068823D01*
X84750323Y-93329029D01*
X84609500Y-93669006D01*
X84169142Y-93669006D01*
X84413677Y-93424471D01*
X84554500Y-93084494D01*
X84554500Y-92716506D01*
X84413677Y-92376529D01*
X84153471Y-92116323D01*
X83813494Y-91975500D01*
X83445506Y-91975500D01*
X83183000Y-92084233D01*
X83183000Y-91259000D01*
X83173485Y-91211164D01*
X83114906Y-91069743D01*
X83087809Y-91029190D01*
X83047257Y-91002094D01*
X82905836Y-90943515D01*
X82858000Y-90934000D01*
X78901365Y-90934000D01*
X78830750Y-90904750D01*
X78801500Y-90834135D01*
X78801500Y-89605006D01*
X83847500Y-89605006D01*
X83847500Y-89972994D01*
X83988323Y-90312971D01*
X84248529Y-90573177D01*
X84588506Y-90714000D01*
X84922683Y-90714000D01*
X84756529Y-90782823D01*
X84496323Y-91043029D01*
X84355500Y-91383006D01*
X84355500Y-91750994D01*
X84496323Y-92090971D01*
X84756529Y-92351177D01*
X85096506Y-92492000D01*
X85464494Y-92492000D01*
X85804471Y-92351177D01*
X85820142Y-92335506D01*
X86006500Y-92335506D01*
X86006500Y-92703494D01*
X86147323Y-93043471D01*
X86407529Y-93303677D01*
X86747506Y-93444500D01*
X87115494Y-93444500D01*
X87455471Y-93303677D01*
X87598142Y-93161006D01*
X92294510Y-93161006D01*
X92294510Y-93528994D01*
X92435333Y-93868971D01*
X92695539Y-94129177D01*
X93035516Y-94270000D01*
X93368317Y-94270000D01*
X93386323Y-94313471D01*
X93646529Y-94573677D01*
X93986506Y-94714500D01*
X94007500Y-94714500D01*
X94007500Y-94733984D01*
X94148323Y-95073961D01*
X94408529Y-95334167D01*
X94748506Y-95474990D01*
X95116494Y-95474990D01*
X95456471Y-95334167D01*
X95716677Y-95073961D01*
X95719972Y-95066006D01*
X99722500Y-95066006D01*
X99722500Y-95433994D01*
X99863323Y-95773971D01*
X100123529Y-96034177D01*
X100463506Y-96175000D01*
X100831494Y-96175000D01*
X101171471Y-96034177D01*
X101431677Y-95773971D01*
X101572500Y-95433994D01*
X101572500Y-95066006D01*
X101493593Y-94875506D01*
X104040500Y-94875506D01*
X104040500Y-95243494D01*
X104181323Y-95583471D01*
X104441529Y-95843677D01*
X104781506Y-95984500D01*
X105149494Y-95984500D01*
X105489471Y-95843677D01*
X105749677Y-95583471D01*
X105890500Y-95243494D01*
X105890500Y-94875506D01*
X105749677Y-94535529D01*
X105489471Y-94275323D01*
X105149494Y-94134500D01*
X104781506Y-94134500D01*
X104441529Y-94275323D01*
X104181323Y-94535529D01*
X104040500Y-94875506D01*
X101493593Y-94875506D01*
X101431677Y-94726029D01*
X101171471Y-94465823D01*
X100831494Y-94325000D01*
X100463506Y-94325000D01*
X100123529Y-94465823D01*
X99863323Y-94726029D01*
X99722500Y-95066006D01*
X95719972Y-95066006D01*
X95857500Y-94733984D01*
X95857500Y-94365996D01*
X95716677Y-94026019D01*
X95456471Y-93765813D01*
X95116494Y-93624990D01*
X95095500Y-93624990D01*
X95095500Y-93605506D01*
X94954677Y-93265529D01*
X94694471Y-93005323D01*
X94354494Y-92864500D01*
X94021693Y-92864500D01*
X94003687Y-92821029D01*
X93743481Y-92560823D01*
X93403504Y-92420000D01*
X93035516Y-92420000D01*
X92695539Y-92560823D01*
X92435333Y-92821029D01*
X92294510Y-93161006D01*
X87598142Y-93161006D01*
X87715677Y-93043471D01*
X87856500Y-92703494D01*
X87856500Y-92335506D01*
X87715677Y-91995529D01*
X87455471Y-91735323D01*
X87115494Y-91594500D01*
X86747506Y-91594500D01*
X86407529Y-91735323D01*
X86147323Y-91995529D01*
X86006500Y-92335506D01*
X85820142Y-92335506D01*
X86064677Y-92090971D01*
X86205500Y-91750994D01*
X86205500Y-91383006D01*
X86064677Y-91043029D01*
X85960154Y-90938506D01*
X87784500Y-90938506D01*
X87784500Y-91306494D01*
X87925323Y-91646471D01*
X88185529Y-91906677D01*
X88525506Y-92047500D01*
X88893494Y-92047500D01*
X89233471Y-91906677D01*
X89493677Y-91646471D01*
X89634500Y-91306494D01*
X89634500Y-91129006D01*
X95658500Y-91129006D01*
X95658500Y-91496994D01*
X95799323Y-91836971D01*
X96059529Y-92097177D01*
X96399506Y-92238000D01*
X96501259Y-92238000D01*
X96318070Y-92421189D01*
X96177247Y-92761166D01*
X96177247Y-93129154D01*
X96318070Y-93469131D01*
X96578276Y-93729337D01*
X96918253Y-93870160D01*
X97286241Y-93870160D01*
X97313301Y-93858951D01*
X97520027Y-94065677D01*
X97860004Y-94206500D01*
X97881000Y-94206500D01*
X97881000Y-94227494D01*
X98021823Y-94567471D01*
X98282029Y-94827677D01*
X98622006Y-94968500D01*
X98989994Y-94968500D01*
X99329971Y-94827677D01*
X99590177Y-94567471D01*
X99731000Y-94227494D01*
X99731000Y-93859506D01*
X99590177Y-93519529D01*
X99329971Y-93259323D01*
X98989994Y-93118500D01*
X98968998Y-93118500D01*
X98968998Y-93097506D01*
X98828175Y-92757529D01*
X98567969Y-92497323D01*
X98227992Y-92356500D01*
X97860004Y-92356500D01*
X97832944Y-92367709D01*
X97626218Y-92160983D01*
X97286241Y-92020160D01*
X97184488Y-92020160D01*
X97367677Y-91836971D01*
X97508500Y-91496994D01*
X97508500Y-91129006D01*
X97367677Y-90789029D01*
X97107471Y-90528823D01*
X96767494Y-90388000D01*
X96399506Y-90388000D01*
X96059529Y-90528823D01*
X95799323Y-90789029D01*
X95658500Y-91129006D01*
X89634500Y-91129006D01*
X89634500Y-90938506D01*
X89493677Y-90598529D01*
X89233471Y-90338323D01*
X88893494Y-90197500D01*
X88525506Y-90197500D01*
X88185529Y-90338323D01*
X87925323Y-90598529D01*
X87784500Y-90938506D01*
X85960154Y-90938506D01*
X85804471Y-90782823D01*
X85464494Y-90642000D01*
X85130317Y-90642000D01*
X85296471Y-90573177D01*
X85556677Y-90312971D01*
X85697500Y-89972994D01*
X85697500Y-89668506D01*
X86006500Y-89668506D01*
X86006500Y-90036494D01*
X86147323Y-90376471D01*
X86407529Y-90636677D01*
X86747506Y-90777500D01*
X87115494Y-90777500D01*
X87455471Y-90636677D01*
X87715677Y-90376471D01*
X87856500Y-90036494D01*
X87856500Y-89668506D01*
X87715677Y-89328529D01*
X87455471Y-89068323D01*
X87115494Y-88927500D01*
X86747506Y-88927500D01*
X86407529Y-89068323D01*
X86147323Y-89328529D01*
X86006500Y-89668506D01*
X85697500Y-89668506D01*
X85697500Y-89605006D01*
X85556677Y-89265029D01*
X85296471Y-89004823D01*
X84956494Y-88864000D01*
X84588506Y-88864000D01*
X84248529Y-89004823D01*
X83988323Y-89265029D01*
X83847500Y-89605006D01*
X78801500Y-89605006D01*
X78801500Y-89456037D01*
X78903000Y-89210994D01*
X78903000Y-88843006D01*
X78876698Y-88779506D01*
X87975000Y-88779506D01*
X87975000Y-89147494D01*
X88115823Y-89487471D01*
X88376029Y-89747677D01*
X88716006Y-89888500D01*
X89083994Y-89888500D01*
X89423971Y-89747677D01*
X89684177Y-89487471D01*
X89825000Y-89147494D01*
X89825000Y-88779506D01*
X89684177Y-88439529D01*
X89423971Y-88179323D01*
X89083994Y-88038500D01*
X88716006Y-88038500D01*
X88376029Y-88179323D01*
X88115823Y-88439529D01*
X87975000Y-88779506D01*
X78876698Y-88779506D01*
X78801500Y-88597963D01*
X78801500Y-87636506D01*
X86006500Y-87636506D01*
X86006500Y-88004494D01*
X86147323Y-88344471D01*
X86407529Y-88604677D01*
X86747506Y-88745500D01*
X87115494Y-88745500D01*
X87455471Y-88604677D01*
X87715677Y-88344471D01*
X87856500Y-88004494D01*
X87856500Y-87636506D01*
X87715677Y-87296529D01*
X87455471Y-87036323D01*
X87115494Y-86895500D01*
X86747506Y-86895500D01*
X86407529Y-87036323D01*
X86147323Y-87296529D01*
X86006500Y-87636506D01*
X78801500Y-87636506D01*
X78801500Y-85858506D01*
X87911500Y-85858506D01*
X87911500Y-86226494D01*
X88052323Y-86566471D01*
X88312529Y-86826677D01*
X88652506Y-86967500D01*
X89020494Y-86967500D01*
X89360471Y-86826677D01*
X89620677Y-86566471D01*
X89761500Y-86226494D01*
X89761500Y-85858506D01*
X89620677Y-85518529D01*
X89360471Y-85258323D01*
X89020494Y-85117500D01*
X88652506Y-85117500D01*
X88312529Y-85258323D01*
X88052323Y-85518529D01*
X87911500Y-85858506D01*
X78801500Y-85858506D01*
X78801500Y-84080506D01*
X88991000Y-84080506D01*
X88991000Y-84448494D01*
X89131823Y-84788471D01*
X89392029Y-85048677D01*
X89732006Y-85189500D01*
X90099994Y-85189500D01*
X90439971Y-85048677D01*
X90700177Y-84788471D01*
X90831303Y-84471906D01*
X90909823Y-84661471D01*
X91170029Y-84921677D01*
X91510006Y-85062500D01*
X91877994Y-85062500D01*
X92217971Y-84921677D01*
X92478177Y-84661471D01*
X92619000Y-84321494D01*
X92619000Y-83953506D01*
X92478177Y-83613529D01*
X92217971Y-83353323D01*
X91877994Y-83212500D01*
X91857000Y-83212500D01*
X91857000Y-83191506D01*
X91716177Y-82851529D01*
X91455971Y-82591323D01*
X91115994Y-82450500D01*
X90748006Y-82450500D01*
X90408029Y-82591323D01*
X90147823Y-82851529D01*
X90007000Y-83191506D01*
X90007000Y-83339500D01*
X89732006Y-83339500D01*
X89392029Y-83480323D01*
X89131823Y-83740529D01*
X88991000Y-84080506D01*
X78801500Y-84080506D01*
X78801500Y-82429506D01*
X81307500Y-82429506D01*
X81307500Y-82797494D01*
X81448323Y-83137471D01*
X81708529Y-83397677D01*
X82048506Y-83538500D01*
X82416494Y-83538500D01*
X82756471Y-83397677D01*
X83016677Y-83137471D01*
X83157500Y-82797494D01*
X83157500Y-82429506D01*
X83016677Y-82089529D01*
X82756471Y-81829323D01*
X82416494Y-81688500D01*
X82048506Y-81688500D01*
X81708529Y-81829323D01*
X81448323Y-82089529D01*
X81307500Y-82429506D01*
X78801500Y-82429506D01*
X78801500Y-81832207D01*
X78841049Y-81736727D01*
X80624770Y-79953006D01*
X81307500Y-79953006D01*
X81307500Y-80320994D01*
X81448323Y-80660971D01*
X81708529Y-80921177D01*
X82048506Y-81062000D01*
X82416494Y-81062000D01*
X82756471Y-80921177D01*
X83016677Y-80660971D01*
X83157500Y-80320994D01*
X83157500Y-79953006D01*
X83078593Y-79762506D01*
X83911000Y-79762506D01*
X83911000Y-80130494D01*
X84051823Y-80470471D01*
X84312029Y-80730677D01*
X84652006Y-80871500D01*
X85019994Y-80871500D01*
X85334322Y-80741301D01*
X87522445Y-80741301D01*
X87522445Y-81109289D01*
X87663268Y-81449266D01*
X87923474Y-81709472D01*
X88263451Y-81850295D01*
X88631439Y-81850295D01*
X88971416Y-81709472D01*
X89231622Y-81449266D01*
X89372445Y-81109289D01*
X89372445Y-80741301D01*
X89231622Y-80401324D01*
X88971416Y-80141118D01*
X88631439Y-80000295D01*
X88263451Y-80000295D01*
X87923474Y-80141118D01*
X87663268Y-80401324D01*
X87522445Y-80741301D01*
X85334322Y-80741301D01*
X85359971Y-80730677D01*
X85620177Y-80470471D01*
X85761000Y-80130494D01*
X85761000Y-79762506D01*
X85620177Y-79422529D01*
X85515654Y-79318006D01*
X86197000Y-79318006D01*
X86197000Y-79685994D01*
X86337823Y-80025971D01*
X86598029Y-80286177D01*
X86938006Y-80427000D01*
X87305994Y-80427000D01*
X87645971Y-80286177D01*
X87906177Y-80025971D01*
X88047000Y-79685994D01*
X88047000Y-79318006D01*
X88028455Y-79273234D01*
X89009736Y-79273234D01*
X89009736Y-79641222D01*
X89150559Y-79981199D01*
X89410765Y-80241405D01*
X89750742Y-80382228D01*
X90007000Y-80382228D01*
X90007000Y-80701992D01*
X90147823Y-81041969D01*
X90408029Y-81302175D01*
X90748006Y-81442998D01*
X91115994Y-81442998D01*
X91455971Y-81302175D01*
X91716177Y-81041969D01*
X91857000Y-80701992D01*
X91857000Y-80554000D01*
X91877994Y-80554000D01*
X92217971Y-80413177D01*
X92478177Y-80152971D01*
X92561005Y-79953006D01*
X94960000Y-79953006D01*
X94960000Y-80320994D01*
X95100823Y-80660971D01*
X95361029Y-80921177D01*
X95537443Y-80994250D01*
X95361029Y-81067323D01*
X95100823Y-81327529D01*
X94960000Y-81667506D01*
X94960000Y-82035494D01*
X95100823Y-82375471D01*
X95361029Y-82635677D01*
X95384140Y-82645250D01*
X95361029Y-82654823D01*
X95100823Y-82915029D01*
X94960000Y-83255006D01*
X94960000Y-83622994D01*
X95100823Y-83962971D01*
X95361029Y-84223177D01*
X95701006Y-84364000D01*
X96068994Y-84364000D01*
X96408971Y-84223177D01*
X96669177Y-83962971D01*
X96710500Y-83863208D01*
X96751823Y-83962971D01*
X97012029Y-84223177D01*
X97352006Y-84364000D01*
X97719994Y-84364000D01*
X98059971Y-84223177D01*
X98320177Y-83962971D01*
X98361500Y-83863208D01*
X98402823Y-83962971D01*
X98663029Y-84223177D01*
X99003006Y-84364000D01*
X99370994Y-84364000D01*
X99710971Y-84223177D01*
X99971177Y-83962971D01*
X100112000Y-83622994D01*
X100112000Y-83255006D01*
X99971177Y-82915029D01*
X99710971Y-82654823D01*
X99611208Y-82613500D01*
X99710971Y-82572177D01*
X99971177Y-82311971D01*
X100112000Y-81971994D01*
X100112000Y-81604006D01*
X99971177Y-81264029D01*
X99710971Y-81003823D01*
X99611208Y-80962500D01*
X99710971Y-80921177D01*
X99971177Y-80660971D01*
X100112000Y-80320994D01*
X100112000Y-79953006D01*
X99971177Y-79613029D01*
X99710971Y-79352823D01*
X99370994Y-79212000D01*
X99003006Y-79212000D01*
X98663029Y-79352823D01*
X98402823Y-79613029D01*
X98361500Y-79712792D01*
X98320177Y-79613029D01*
X98059971Y-79352823D01*
X97719994Y-79212000D01*
X97352006Y-79212000D01*
X97012029Y-79352823D01*
X96751823Y-79613029D01*
X96710500Y-79712792D01*
X96669177Y-79613029D01*
X96408971Y-79352823D01*
X96068994Y-79212000D01*
X95701006Y-79212000D01*
X95361029Y-79352823D01*
X95100823Y-79613029D01*
X94960000Y-79953006D01*
X92561005Y-79953006D01*
X92619000Y-79812994D01*
X92619000Y-79445006D01*
X92478177Y-79105029D01*
X92217971Y-78844823D01*
X91877994Y-78704000D01*
X91510006Y-78704000D01*
X91170029Y-78844823D01*
X90909823Y-79105029D01*
X90849943Y-79249592D01*
X90718913Y-78933257D01*
X90458707Y-78673051D01*
X90118730Y-78532228D01*
X89750742Y-78532228D01*
X89410765Y-78673051D01*
X89150559Y-78933257D01*
X89009736Y-79273234D01*
X88028455Y-79273234D01*
X87906177Y-78978029D01*
X87645971Y-78717823D01*
X87305994Y-78577000D01*
X86938006Y-78577000D01*
X86598029Y-78717823D01*
X86337823Y-78978029D01*
X86197000Y-79318006D01*
X85515654Y-79318006D01*
X85359971Y-79162323D01*
X85019994Y-79021500D01*
X84652006Y-79021500D01*
X84312029Y-79162323D01*
X84051823Y-79422529D01*
X83911000Y-79762506D01*
X83078593Y-79762506D01*
X83016677Y-79613029D01*
X82756471Y-79352823D01*
X82416494Y-79212000D01*
X82048506Y-79212000D01*
X81708529Y-79352823D01*
X81448323Y-79613029D01*
X81307500Y-79953006D01*
X80624770Y-79953006D01*
X80801809Y-79775967D01*
X80828906Y-79735414D01*
X80887485Y-79593992D01*
X80897000Y-79546157D01*
X80897000Y-77159006D01*
X80990000Y-77159006D01*
X80990000Y-77526994D01*
X81130823Y-77866971D01*
X81391029Y-78127177D01*
X81731006Y-78268000D01*
X82098994Y-78268000D01*
X82438971Y-78127177D01*
X82699177Y-77866971D01*
X82840000Y-77526994D01*
X82840000Y-77159006D01*
X82699177Y-76819029D01*
X82438971Y-76558823D01*
X82098994Y-76418000D01*
X81731006Y-76418000D01*
X81391029Y-76558823D01*
X81130823Y-76819029D01*
X80990000Y-77159006D01*
X80897000Y-77159006D01*
X80897000Y-76262710D01*
X87922444Y-76262710D01*
X87922444Y-76630698D01*
X88063267Y-76970675D01*
X88323473Y-77230881D01*
X88663450Y-77371704D01*
X89031438Y-77371704D01*
X89371415Y-77230881D01*
X89631621Y-76970675D01*
X89772444Y-76630698D01*
X89772444Y-76262710D01*
X89631621Y-75922733D01*
X89371415Y-75662527D01*
X89031438Y-75521704D01*
X88663450Y-75521704D01*
X88323473Y-75662527D01*
X88063267Y-75922733D01*
X87922444Y-76262710D01*
X80897000Y-76262710D01*
X80897000Y-74428506D01*
X81053500Y-74428506D01*
X81053500Y-74796494D01*
X81194323Y-75136471D01*
X81454529Y-75396677D01*
X81794506Y-75537500D01*
X82162494Y-75537500D01*
X82502471Y-75396677D01*
X82762677Y-75136471D01*
X82903500Y-74796494D01*
X82903500Y-74428506D01*
X82762677Y-74088529D01*
X82502471Y-73828323D01*
X82162494Y-73687500D01*
X81794506Y-73687500D01*
X81454529Y-73828323D01*
X81194323Y-74088529D01*
X81053500Y-74428506D01*
X80897000Y-74428506D01*
X80897000Y-73742843D01*
X80887485Y-73695008D01*
X80828906Y-73553586D01*
X80801809Y-73513033D01*
X79331467Y-72042691D01*
X79290914Y-72015594D01*
X79149492Y-71957015D01*
X79101657Y-71947500D01*
X77631365Y-71947500D01*
X77560750Y-71918250D01*
X77531500Y-71847635D01*
X77531500Y-71676037D01*
X77633000Y-71430994D01*
X77633000Y-71380506D01*
X80672500Y-71380506D01*
X80672500Y-71748494D01*
X80813323Y-72088471D01*
X81073529Y-72348677D01*
X81413506Y-72489500D01*
X81781494Y-72489500D01*
X82121471Y-72348677D01*
X82381677Y-72088471D01*
X82411900Y-72015506D01*
X82641000Y-72015506D01*
X82641000Y-72383494D01*
X82781823Y-72723471D01*
X83042029Y-72983677D01*
X83382006Y-73124500D01*
X83749994Y-73124500D01*
X84089971Y-72983677D01*
X84105642Y-72968006D01*
X91150000Y-72968006D01*
X91150000Y-73335994D01*
X91290823Y-73675971D01*
X91551029Y-73936177D01*
X91891006Y-74077000D01*
X92258994Y-74077000D01*
X92598971Y-73936177D01*
X92859177Y-73675971D01*
X93000000Y-73335994D01*
X93000000Y-73095006D01*
X95658500Y-73095006D01*
X95658500Y-73462994D01*
X95799323Y-73802971D01*
X96059529Y-74063177D01*
X96399506Y-74204000D01*
X96767494Y-74204000D01*
X97107471Y-74063177D01*
X97367677Y-73802971D01*
X97508500Y-73462994D01*
X97508500Y-73095006D01*
X98071500Y-73095006D01*
X98071500Y-73462994D01*
X98212323Y-73802971D01*
X98472529Y-74063177D01*
X98812506Y-74204000D01*
X99180494Y-74204000D01*
X99520471Y-74063177D01*
X99780677Y-73802971D01*
X99921500Y-73462994D01*
X99921500Y-73095006D01*
X99780677Y-72755029D01*
X99520471Y-72494823D01*
X99180494Y-72354000D01*
X98812506Y-72354000D01*
X98472529Y-72494823D01*
X98212323Y-72755029D01*
X98071500Y-73095006D01*
X97508500Y-73095006D01*
X97367677Y-72755029D01*
X97107471Y-72494823D01*
X96767494Y-72354000D01*
X96399506Y-72354000D01*
X96059529Y-72494823D01*
X95799323Y-72755029D01*
X95658500Y-73095006D01*
X93000000Y-73095006D01*
X93000000Y-72968006D01*
X92859177Y-72628029D01*
X92598971Y-72367823D01*
X92258994Y-72227000D01*
X91891006Y-72227000D01*
X91551029Y-72367823D01*
X91290823Y-72628029D01*
X91150000Y-72968006D01*
X84105642Y-72968006D01*
X84350177Y-72723471D01*
X84491000Y-72383494D01*
X84491000Y-72015506D01*
X84350177Y-71675529D01*
X84089971Y-71415323D01*
X83749994Y-71274500D01*
X83382006Y-71274500D01*
X83042029Y-71415323D01*
X82781823Y-71675529D01*
X82641000Y-72015506D01*
X82411900Y-72015506D01*
X82522500Y-71748494D01*
X82522500Y-71380506D01*
X82381677Y-71040529D01*
X82121471Y-70780323D01*
X81781494Y-70639500D01*
X81413506Y-70639500D01*
X81073529Y-70780323D01*
X80813323Y-71040529D01*
X80672500Y-71380506D01*
X77633000Y-71380506D01*
X77633000Y-71063006D01*
X77531500Y-70817963D01*
X77531500Y-69793006D01*
X77688000Y-69793006D01*
X77688000Y-70160994D01*
X77828823Y-70500971D01*
X78089029Y-70761177D01*
X78429006Y-70902000D01*
X78796994Y-70902000D01*
X79136971Y-70761177D01*
X79397177Y-70500971D01*
X79538000Y-70160994D01*
X79538000Y-69920006D01*
X82958500Y-69920006D01*
X82958500Y-70287994D01*
X83099323Y-70627971D01*
X83359529Y-70888177D01*
X83699506Y-71029000D01*
X84067494Y-71029000D01*
X84407471Y-70888177D01*
X84667677Y-70627971D01*
X84808500Y-70287994D01*
X84808500Y-69983506D01*
X99405000Y-69983506D01*
X99405000Y-70351494D01*
X99545823Y-70691471D01*
X99806029Y-70951677D01*
X100146006Y-71092500D01*
X100513994Y-71092500D01*
X100853971Y-70951677D01*
X101114177Y-70691471D01*
X101255000Y-70351494D01*
X101255000Y-69983506D01*
X101114177Y-69643529D01*
X100853971Y-69383323D01*
X100513994Y-69242500D01*
X100146006Y-69242500D01*
X99806029Y-69383323D01*
X99545823Y-69643529D01*
X99405000Y-69983506D01*
X84808500Y-69983506D01*
X84808500Y-69920006D01*
X84667677Y-69580029D01*
X84407471Y-69319823D01*
X84067494Y-69179000D01*
X83699506Y-69179000D01*
X83359529Y-69319823D01*
X83099323Y-69580029D01*
X82958500Y-69920006D01*
X79538000Y-69920006D01*
X79538000Y-69793006D01*
X79397177Y-69453029D01*
X79136971Y-69192823D01*
X78796994Y-69052000D01*
X78429006Y-69052000D01*
X78089029Y-69192823D01*
X77828823Y-69453029D01*
X77688000Y-69793006D01*
X77531500Y-69793006D01*
X77531500Y-69072537D01*
X77633000Y-68827494D01*
X77633000Y-68459506D01*
X80609000Y-68459506D01*
X80609000Y-68827494D01*
X80749823Y-69167471D01*
X81010029Y-69427677D01*
X81350006Y-69568500D01*
X81717994Y-69568500D01*
X82057971Y-69427677D01*
X82318177Y-69167471D01*
X82453610Y-68840506D01*
X94452000Y-68840506D01*
X94452000Y-69208494D01*
X94592823Y-69548471D01*
X94853029Y-69808677D01*
X95193006Y-69949500D01*
X95560994Y-69949500D01*
X95900971Y-69808677D01*
X96161177Y-69548471D01*
X96302000Y-69208494D01*
X96302000Y-68840506D01*
X96161177Y-68500529D01*
X95900971Y-68240323D01*
X95560994Y-68099500D01*
X95193006Y-68099500D01*
X94853029Y-68240323D01*
X94592823Y-68500529D01*
X94452000Y-68840506D01*
X82453610Y-68840506D01*
X82459000Y-68827494D01*
X82459000Y-68459506D01*
X82318177Y-68119529D01*
X82057971Y-67859323D01*
X81717994Y-67718500D01*
X81350006Y-67718500D01*
X81010029Y-67859323D01*
X80749823Y-68119529D01*
X80609000Y-68459506D01*
X77633000Y-68459506D01*
X77531500Y-68214463D01*
X77531500Y-66872006D01*
X77688000Y-66872006D01*
X77688000Y-67239994D01*
X77828823Y-67579971D01*
X78089029Y-67840177D01*
X78429006Y-67981000D01*
X78796994Y-67981000D01*
X79136971Y-67840177D01*
X79397177Y-67579971D01*
X79538000Y-67239994D01*
X79538000Y-67062506D01*
X82958500Y-67062506D01*
X82958500Y-67430494D01*
X83099323Y-67770471D01*
X83359529Y-68030677D01*
X83699506Y-68171500D01*
X84067494Y-68171500D01*
X84407471Y-68030677D01*
X84667677Y-67770471D01*
X84808500Y-67430494D01*
X84808500Y-67189506D01*
X96420500Y-67189506D01*
X96420500Y-67557494D01*
X96561323Y-67897471D01*
X96821529Y-68157677D01*
X97161506Y-68298500D01*
X97529494Y-68298500D01*
X97869471Y-68157677D01*
X98129677Y-67897471D01*
X98159900Y-67824506D01*
X104548500Y-67824506D01*
X104548500Y-68192494D01*
X104689323Y-68532471D01*
X104949529Y-68792677D01*
X105289506Y-68933500D01*
X105657494Y-68933500D01*
X105997471Y-68792677D01*
X106257677Y-68532471D01*
X106398500Y-68192494D01*
X106398500Y-67824506D01*
X106257677Y-67484529D01*
X105997471Y-67224323D01*
X105657494Y-67083500D01*
X105289506Y-67083500D01*
X104949529Y-67224323D01*
X104689323Y-67484529D01*
X104548500Y-67824506D01*
X98159900Y-67824506D01*
X98270500Y-67557494D01*
X98270500Y-67189506D01*
X98129677Y-66849529D01*
X97869471Y-66589323D01*
X97529494Y-66448500D01*
X97161506Y-66448500D01*
X96821529Y-66589323D01*
X96561323Y-66849529D01*
X96420500Y-67189506D01*
X84808500Y-67189506D01*
X84808500Y-67062506D01*
X84667677Y-66722529D01*
X84407471Y-66462323D01*
X84067494Y-66321500D01*
X83699506Y-66321500D01*
X83359529Y-66462323D01*
X83099323Y-66722529D01*
X82958500Y-67062506D01*
X79538000Y-67062506D01*
X79538000Y-66872006D01*
X79397177Y-66532029D01*
X79136971Y-66271823D01*
X78796994Y-66131000D01*
X78429006Y-66131000D01*
X78089029Y-66271823D01*
X77828823Y-66532029D01*
X77688000Y-66872006D01*
X77531500Y-66872006D01*
X77531500Y-66532537D01*
X77633000Y-66287494D01*
X77633000Y-65919506D01*
X77580395Y-65792506D01*
X80609000Y-65792506D01*
X80609000Y-66160494D01*
X80749823Y-66500471D01*
X81010029Y-66760677D01*
X81350006Y-66901500D01*
X81717994Y-66901500D01*
X82057971Y-66760677D01*
X82318177Y-66500471D01*
X82459000Y-66160494D01*
X82459000Y-65792506D01*
X82318177Y-65452529D01*
X82057971Y-65192323D01*
X81717994Y-65051500D01*
X81350006Y-65051500D01*
X81010029Y-65192323D01*
X80749823Y-65452529D01*
X80609000Y-65792506D01*
X77580395Y-65792506D01*
X77531500Y-65674463D01*
X77531500Y-64713006D01*
X101310000Y-64713006D01*
X101310000Y-65080994D01*
X101450823Y-65420971D01*
X101711029Y-65681177D01*
X102051006Y-65822000D01*
X102418994Y-65822000D01*
X102758971Y-65681177D01*
X103019177Y-65420971D01*
X103160000Y-65080994D01*
X103160000Y-64713006D01*
X103103794Y-64577311D01*
X105619500Y-64577311D01*
X105619500Y-65422689D01*
X105943012Y-66203716D01*
X106540784Y-66801488D01*
X107321811Y-67125000D01*
X108167189Y-67125000D01*
X108948216Y-66801488D01*
X109545988Y-66203716D01*
X109869500Y-65422689D01*
X109869500Y-64577311D01*
X109545988Y-63796284D01*
X108948216Y-63198512D01*
X108167189Y-62875000D01*
X107321811Y-62875000D01*
X106540784Y-63198512D01*
X105943012Y-63796284D01*
X105619500Y-64577311D01*
X103103794Y-64577311D01*
X103019177Y-64373029D01*
X102758971Y-64112823D01*
X102418994Y-63972000D01*
X102051006Y-63972000D01*
X101711029Y-64112823D01*
X101450823Y-64373029D01*
X101310000Y-64713006D01*
X77531500Y-64713006D01*
X77531500Y-61941000D01*
X80568069Y-61941000D01*
X80288681Y-62127681D01*
G04 #@! TO.N,VIN*
G36*
X74995500Y-81352148D02*
X71947513Y-84156296D01*
X64195634Y-76681518D01*
X64154595Y-76655164D01*
X64093989Y-76647389D01*
X40796904Y-79440500D01*
X35431000Y-79440500D01*
X35431000Y-74483500D01*
X41312369Y-74483500D01*
X41330278Y-74482210D01*
X53602998Y-72705500D01*
X74995500Y-72705500D01*
X74995500Y-81352148D01*
X74995500Y-81352148D01*
G37*
X74995500Y-81352148D02*
X71947513Y-84156296D01*
X64195634Y-76681518D01*
X64154595Y-76655164D01*
X64093989Y-76647389D01*
X40796904Y-79440500D01*
X35431000Y-79440500D01*
X35431000Y-74483500D01*
X41312369Y-74483500D01*
X41330278Y-74482210D01*
X53602998Y-72705500D01*
X74995500Y-72705500D01*
X74995500Y-81352148D01*
G36*
X71889122Y-95681446D02*
X74763483Y-98438486D01*
X74805000Y-98535836D01*
X74805000Y-103712000D01*
X74289250Y-103712000D01*
X74133000Y-103868250D01*
X74133000Y-104937000D01*
X74178000Y-104937000D01*
X74178000Y-106137000D01*
X74133000Y-106137000D01*
X74133000Y-106182000D01*
X72933000Y-106182000D01*
X72933000Y-106137000D01*
X71864250Y-106137000D01*
X71708000Y-106293250D01*
X71708000Y-106861320D01*
X71738934Y-106936000D01*
X54556000Y-106936000D01*
X54508164Y-106945515D01*
X54366743Y-107004094D01*
X54326190Y-107031191D01*
X54299094Y-107071743D01*
X54240515Y-107213164D01*
X54231000Y-107261000D01*
X54231000Y-109376135D01*
X54201750Y-109446750D01*
X54131135Y-109476000D01*
X46671736Y-109476000D01*
X46629136Y-109261835D01*
X46356578Y-108853922D01*
X45948665Y-108581364D01*
X45467500Y-108485654D01*
X44956000Y-108485654D01*
X44956000Y-106699250D01*
X45217500Y-106699250D01*
X45217500Y-107792320D01*
X45312651Y-108022034D01*
X45488466Y-108197850D01*
X45718180Y-108293000D01*
X46811250Y-108293000D01*
X46967500Y-108136750D01*
X46967500Y-106543000D01*
X48217500Y-106543000D01*
X48217500Y-108136750D01*
X48373750Y-108293000D01*
X49466820Y-108293000D01*
X49696534Y-108197850D01*
X49872349Y-108022034D01*
X49967500Y-107792320D01*
X49967500Y-106699250D01*
X49811250Y-106543000D01*
X48217500Y-106543000D01*
X46967500Y-106543000D01*
X45373750Y-106543000D01*
X45217500Y-106699250D01*
X44956000Y-106699250D01*
X44956000Y-104043680D01*
X45217500Y-104043680D01*
X45217500Y-105136750D01*
X45373750Y-105293000D01*
X46967500Y-105293000D01*
X46967500Y-103699250D01*
X48217500Y-103699250D01*
X48217500Y-105293000D01*
X49811250Y-105293000D01*
X49967500Y-105136750D01*
X49967500Y-104212680D01*
X71708000Y-104212680D01*
X71708000Y-104780750D01*
X71864250Y-104937000D01*
X72933000Y-104937000D01*
X72933000Y-103868250D01*
X72776750Y-103712000D01*
X72208680Y-103712000D01*
X71978966Y-103807150D01*
X71803151Y-103982966D01*
X71708000Y-104212680D01*
X49967500Y-104212680D01*
X49967500Y-104043680D01*
X49872349Y-103813966D01*
X49696534Y-103638150D01*
X49466820Y-103543000D01*
X48373750Y-103543000D01*
X48217500Y-103699250D01*
X46967500Y-103699250D01*
X46811250Y-103543000D01*
X45718180Y-103543000D01*
X45488466Y-103638150D01*
X45312651Y-103813966D01*
X45217500Y-104043680D01*
X44956000Y-104043680D01*
X44956000Y-104037799D01*
X44945351Y-103987313D01*
X44880102Y-103839522D01*
X44849970Y-103797639D01*
X41081325Y-100361522D01*
X41049080Y-100287461D01*
X41070611Y-100240658D01*
X41147829Y-100216952D01*
X47535342Y-101006806D01*
X47485000Y-101128343D01*
X47485000Y-101436657D01*
X47602987Y-101721502D01*
X47820998Y-101939513D01*
X48105843Y-102057500D01*
X48414157Y-102057500D01*
X48699002Y-101939513D01*
X48874124Y-101764391D01*
X49121843Y-101867000D01*
X49430157Y-101867000D01*
X49715002Y-101749013D01*
X49933013Y-101531002D01*
X50022738Y-101314387D01*
X64024283Y-103045761D01*
X64079526Y-103040166D01*
X64243706Y-102984863D01*
X64291075Y-102955894D01*
X65748557Y-101534548D01*
X65844002Y-101495013D01*
X66062013Y-101277002D01*
X66095466Y-101196240D01*
X66477928Y-100823261D01*
X66542502Y-100796513D01*
X66760513Y-100578502D01*
X66781931Y-100526795D01*
X71749877Y-95682021D01*
X71819382Y-95653573D01*
X71889122Y-95681446D01*
X71889122Y-95681446D01*
G37*
X71889122Y-95681446D02*
X74763483Y-98438486D01*
X74805000Y-98535836D01*
X74805000Y-103712000D01*
X74289250Y-103712000D01*
X74133000Y-103868250D01*
X74133000Y-104937000D01*
X74178000Y-104937000D01*
X74178000Y-106137000D01*
X74133000Y-106137000D01*
X74133000Y-106182000D01*
X72933000Y-106182000D01*
X72933000Y-106137000D01*
X71864250Y-106137000D01*
X71708000Y-106293250D01*
X71708000Y-106861320D01*
X71738934Y-106936000D01*
X54556000Y-106936000D01*
X54508164Y-106945515D01*
X54366743Y-107004094D01*
X54326190Y-107031191D01*
X54299094Y-107071743D01*
X54240515Y-107213164D01*
X54231000Y-107261000D01*
X54231000Y-109376135D01*
X54201750Y-109446750D01*
X54131135Y-109476000D01*
X46671736Y-109476000D01*
X46629136Y-109261835D01*
X46356578Y-108853922D01*
X45948665Y-108581364D01*
X45467500Y-108485654D01*
X44956000Y-108485654D01*
X44956000Y-106699250D01*
X45217500Y-106699250D01*
X45217500Y-107792320D01*
X45312651Y-108022034D01*
X45488466Y-108197850D01*
X45718180Y-108293000D01*
X46811250Y-108293000D01*
X46967500Y-108136750D01*
X46967500Y-106543000D01*
X48217500Y-106543000D01*
X48217500Y-108136750D01*
X48373750Y-108293000D01*
X49466820Y-108293000D01*
X49696534Y-108197850D01*
X49872349Y-108022034D01*
X49967500Y-107792320D01*
X49967500Y-106699250D01*
X49811250Y-106543000D01*
X48217500Y-106543000D01*
X46967500Y-106543000D01*
X45373750Y-106543000D01*
X45217500Y-106699250D01*
X44956000Y-106699250D01*
X44956000Y-104043680D01*
X45217500Y-104043680D01*
X45217500Y-105136750D01*
X45373750Y-105293000D01*
X46967500Y-105293000D01*
X46967500Y-103699250D01*
X48217500Y-103699250D01*
X48217500Y-105293000D01*
X49811250Y-105293000D01*
X49967500Y-105136750D01*
X49967500Y-104212680D01*
X71708000Y-104212680D01*
X71708000Y-104780750D01*
X71864250Y-104937000D01*
X72933000Y-104937000D01*
X72933000Y-103868250D01*
X72776750Y-103712000D01*
X72208680Y-103712000D01*
X71978966Y-103807150D01*
X71803151Y-103982966D01*
X71708000Y-104212680D01*
X49967500Y-104212680D01*
X49967500Y-104043680D01*
X49872349Y-103813966D01*
X49696534Y-103638150D01*
X49466820Y-103543000D01*
X48373750Y-103543000D01*
X48217500Y-103699250D01*
X46967500Y-103699250D01*
X46811250Y-103543000D01*
X45718180Y-103543000D01*
X45488466Y-103638150D01*
X45312651Y-103813966D01*
X45217500Y-104043680D01*
X44956000Y-104043680D01*
X44956000Y-104037799D01*
X44945351Y-103987313D01*
X44880102Y-103839522D01*
X44849970Y-103797639D01*
X41081325Y-100361522D01*
X41049080Y-100287461D01*
X41070611Y-100240658D01*
X41147829Y-100216952D01*
X47535342Y-101006806D01*
X47485000Y-101128343D01*
X47485000Y-101436657D01*
X47602987Y-101721502D01*
X47820998Y-101939513D01*
X48105843Y-102057500D01*
X48414157Y-102057500D01*
X48699002Y-101939513D01*
X48874124Y-101764391D01*
X49121843Y-101867000D01*
X49430157Y-101867000D01*
X49715002Y-101749013D01*
X49933013Y-101531002D01*
X50022738Y-101314387D01*
X64024283Y-103045761D01*
X64079526Y-103040166D01*
X64243706Y-102984863D01*
X64291075Y-102955894D01*
X65748557Y-101534548D01*
X65844002Y-101495013D01*
X66062013Y-101277002D01*
X66095466Y-101196240D01*
X66477928Y-100823261D01*
X66542502Y-100796513D01*
X66760513Y-100578502D01*
X66781931Y-100526795D01*
X71749877Y-95682021D01*
X71819382Y-95653573D01*
X71889122Y-95681446D01*
G04 #@! TO.N,GND*
G36*
X67790750Y-87847750D02*
X67820000Y-87918365D01*
X67820000Y-91659635D01*
X67790750Y-91730250D01*
X67720135Y-91759500D01*
X60341205Y-91759500D01*
X60324296Y-91758456D01*
X46187471Y-90006992D01*
X46124287Y-89973683D01*
X46099000Y-89906883D01*
X46099000Y-89671222D01*
X46124305Y-89604404D01*
X46187522Y-89571110D01*
X60387800Y-87819534D01*
X60404626Y-87818500D01*
X67720135Y-87818500D01*
X67790750Y-87847750D01*
X67790750Y-87847750D01*
G37*
X67790750Y-87847750D02*
X67820000Y-87918365D01*
X67820000Y-91659635D01*
X67790750Y-91730250D01*
X67720135Y-91759500D01*
X60341205Y-91759500D01*
X60324296Y-91758456D01*
X46187471Y-90006992D01*
X46124287Y-89973683D01*
X46099000Y-89906883D01*
X46099000Y-89671222D01*
X46124305Y-89604404D01*
X46187522Y-89571110D01*
X60387800Y-87819534D01*
X60404626Y-87818500D01*
X67720135Y-87818500D01*
X67790750Y-87847750D01*
G36*
X43375090Y-103608557D02*
X43216820Y-103543000D01*
X42498750Y-103543000D01*
X42342500Y-103699250D01*
X42342500Y-105043000D01*
X43561250Y-105043000D01*
X43717500Y-104886750D01*
X43717500Y-104043680D01*
X43641190Y-103859451D01*
X44198000Y-104384444D01*
X44198000Y-108230756D01*
X43717500Y-108230756D01*
X43203486Y-108333000D01*
X42672000Y-108333000D01*
X42624165Y-108342515D01*
X42583612Y-108369612D01*
X41948612Y-109004612D01*
X41921515Y-109045165D01*
X41912000Y-109093000D01*
X41912000Y-112458500D01*
X41921515Y-112506335D01*
X41948612Y-112546888D01*
X42583612Y-113181888D01*
X42624165Y-113208985D01*
X42672000Y-113218500D01*
X46482000Y-113218500D01*
X46529835Y-113208985D01*
X46570388Y-113181888D01*
X47168776Y-112583500D01*
X71628000Y-112583500D01*
X71675835Y-112573985D01*
X71716388Y-112546888D01*
X71743485Y-112506335D01*
X71753000Y-112458500D01*
X71753000Y-111504000D01*
X75567000Y-111504000D01*
X75567000Y-117918000D01*
X35976949Y-117918000D01*
X34482000Y-116423052D01*
X34482000Y-114557420D01*
X35188000Y-114557420D01*
X35188000Y-115442580D01*
X35526736Y-116260361D01*
X36152639Y-116886264D01*
X36970420Y-117225000D01*
X37855580Y-117225000D01*
X38673361Y-116886264D01*
X39299264Y-116260361D01*
X39638000Y-115442580D01*
X39638000Y-114557420D01*
X39299264Y-113739639D01*
X38673361Y-113113736D01*
X37855580Y-112775000D01*
X36970420Y-112775000D01*
X36152639Y-113113736D01*
X35526736Y-113739639D01*
X35188000Y-114557420D01*
X34482000Y-114557420D01*
X34482000Y-106949250D01*
X39467500Y-106949250D01*
X39467500Y-107792320D01*
X39562651Y-108022034D01*
X39738466Y-108197850D01*
X39968180Y-108293000D01*
X40686250Y-108293000D01*
X40842500Y-108136750D01*
X40842500Y-106793000D01*
X42342500Y-106793000D01*
X42342500Y-108136750D01*
X42498750Y-108293000D01*
X43216820Y-108293000D01*
X43446534Y-108197850D01*
X43622349Y-108022034D01*
X43717500Y-107792320D01*
X43717500Y-106949250D01*
X43561250Y-106793000D01*
X42342500Y-106793000D01*
X40842500Y-106793000D01*
X39623750Y-106793000D01*
X39467500Y-106949250D01*
X34482000Y-106949250D01*
X34482000Y-104043680D01*
X39467500Y-104043680D01*
X39467500Y-104886750D01*
X39623750Y-105043000D01*
X40842500Y-105043000D01*
X40842500Y-103699250D01*
X40686250Y-103543000D01*
X39968180Y-103543000D01*
X39738466Y-103638150D01*
X39562651Y-103813966D01*
X39467500Y-104043680D01*
X34482000Y-104043680D01*
X34482000Y-100264500D01*
X39828363Y-100264500D01*
X43375090Y-103608557D01*
X43375090Y-103608557D01*
G37*
X43375090Y-103608557D02*
X43216820Y-103543000D01*
X42498750Y-103543000D01*
X42342500Y-103699250D01*
X42342500Y-105043000D01*
X43561250Y-105043000D01*
X43717500Y-104886750D01*
X43717500Y-104043680D01*
X43641190Y-103859451D01*
X44198000Y-104384444D01*
X44198000Y-108230756D01*
X43717500Y-108230756D01*
X43203486Y-108333000D01*
X42672000Y-108333000D01*
X42624165Y-108342515D01*
X42583612Y-108369612D01*
X41948612Y-109004612D01*
X41921515Y-109045165D01*
X41912000Y-109093000D01*
X41912000Y-112458500D01*
X41921515Y-112506335D01*
X41948612Y-112546888D01*
X42583612Y-113181888D01*
X42624165Y-113208985D01*
X42672000Y-113218500D01*
X46482000Y-113218500D01*
X46529835Y-113208985D01*
X46570388Y-113181888D01*
X47168776Y-112583500D01*
X71628000Y-112583500D01*
X71675835Y-112573985D01*
X71716388Y-112546888D01*
X71743485Y-112506335D01*
X71753000Y-112458500D01*
X71753000Y-111504000D01*
X75567000Y-111504000D01*
X75567000Y-117918000D01*
X35976949Y-117918000D01*
X34482000Y-116423052D01*
X34482000Y-114557420D01*
X35188000Y-114557420D01*
X35188000Y-115442580D01*
X35526736Y-116260361D01*
X36152639Y-116886264D01*
X36970420Y-117225000D01*
X37855580Y-117225000D01*
X38673361Y-116886264D01*
X39299264Y-116260361D01*
X39638000Y-115442580D01*
X39638000Y-114557420D01*
X39299264Y-113739639D01*
X38673361Y-113113736D01*
X37855580Y-112775000D01*
X36970420Y-112775000D01*
X36152639Y-113113736D01*
X35526736Y-113739639D01*
X35188000Y-114557420D01*
X34482000Y-114557420D01*
X34482000Y-106949250D01*
X39467500Y-106949250D01*
X39467500Y-107792320D01*
X39562651Y-108022034D01*
X39738466Y-108197850D01*
X39968180Y-108293000D01*
X40686250Y-108293000D01*
X40842500Y-108136750D01*
X40842500Y-106793000D01*
X42342500Y-106793000D01*
X42342500Y-108136750D01*
X42498750Y-108293000D01*
X43216820Y-108293000D01*
X43446534Y-108197850D01*
X43622349Y-108022034D01*
X43717500Y-107792320D01*
X43717500Y-106949250D01*
X43561250Y-106793000D01*
X42342500Y-106793000D01*
X40842500Y-106793000D01*
X39623750Y-106793000D01*
X39467500Y-106949250D01*
X34482000Y-106949250D01*
X34482000Y-104043680D01*
X39467500Y-104043680D01*
X39467500Y-104886750D01*
X39623750Y-105043000D01*
X40842500Y-105043000D01*
X40842500Y-103699250D01*
X40686250Y-103543000D01*
X39968180Y-103543000D01*
X39738466Y-103638150D01*
X39562651Y-103813966D01*
X39467500Y-104043680D01*
X34482000Y-104043680D01*
X34482000Y-100264500D01*
X39828363Y-100264500D01*
X43375090Y-103608557D01*
G36*
X75757500Y-71947500D02*
X72134000Y-71947500D01*
X72134000Y-67183000D01*
X72124485Y-67135165D01*
X72097388Y-67094612D01*
X72056835Y-67067515D01*
X72009000Y-67058000D01*
X54800500Y-67058000D01*
X54752665Y-67067515D01*
X54712112Y-67094612D01*
X54685015Y-67135165D01*
X54675500Y-67183000D01*
X54675500Y-70369724D01*
X53090283Y-71954941D01*
X41202244Y-73725500D01*
X38389261Y-73725500D01*
X37846000Y-73182239D01*
X37302739Y-73725500D01*
X34482000Y-73725500D01*
X34482000Y-72462710D01*
X35893475Y-72462710D01*
X35965676Y-72825692D01*
X36194573Y-72995188D01*
X36926761Y-72263000D01*
X38765239Y-72263000D01*
X39497427Y-72995188D01*
X39726324Y-72825692D01*
X39798525Y-72063290D01*
X39726324Y-71700308D01*
X39497427Y-71530812D01*
X38765239Y-72263000D01*
X36926761Y-72263000D01*
X36194573Y-71530812D01*
X35965676Y-71700308D01*
X35893475Y-72462710D01*
X34482000Y-72462710D01*
X34482000Y-70611573D01*
X37113812Y-70611573D01*
X37846000Y-71343761D01*
X38578188Y-70611573D01*
X38408692Y-70382676D01*
X37646290Y-70310475D01*
X37283308Y-70382676D01*
X37113812Y-70611573D01*
X34482000Y-70611573D01*
X34482000Y-64557420D01*
X35188000Y-64557420D01*
X35188000Y-65442580D01*
X35526736Y-66260361D01*
X36152639Y-66886264D01*
X36970420Y-67225000D01*
X37855580Y-67225000D01*
X38673361Y-66886264D01*
X39299264Y-66260361D01*
X39638000Y-65442580D01*
X39638000Y-64557420D01*
X39299264Y-63739639D01*
X38673361Y-63113736D01*
X37855580Y-62775000D01*
X36970420Y-62775000D01*
X36152639Y-63113736D01*
X35526736Y-63739639D01*
X35188000Y-64557420D01*
X34482000Y-64557420D01*
X34482000Y-63535948D01*
X35976949Y-62041000D01*
X75757500Y-62041000D01*
X75757500Y-71947500D01*
X75757500Y-71947500D01*
G37*
X75757500Y-71947500D02*
X72134000Y-71947500D01*
X72134000Y-67183000D01*
X72124485Y-67135165D01*
X72097388Y-67094612D01*
X72056835Y-67067515D01*
X72009000Y-67058000D01*
X54800500Y-67058000D01*
X54752665Y-67067515D01*
X54712112Y-67094612D01*
X54685015Y-67135165D01*
X54675500Y-67183000D01*
X54675500Y-70369724D01*
X53090283Y-71954941D01*
X41202244Y-73725500D01*
X38389261Y-73725500D01*
X37846000Y-73182239D01*
X37302739Y-73725500D01*
X34482000Y-73725500D01*
X34482000Y-72462710D01*
X35893475Y-72462710D01*
X35965676Y-72825692D01*
X36194573Y-72995188D01*
X36926761Y-72263000D01*
X38765239Y-72263000D01*
X39497427Y-72995188D01*
X39726324Y-72825692D01*
X39798525Y-72063290D01*
X39726324Y-71700308D01*
X39497427Y-71530812D01*
X38765239Y-72263000D01*
X36926761Y-72263000D01*
X36194573Y-71530812D01*
X35965676Y-71700308D01*
X35893475Y-72462710D01*
X34482000Y-72462710D01*
X34482000Y-70611573D01*
X37113812Y-70611573D01*
X37846000Y-71343761D01*
X38578188Y-70611573D01*
X38408692Y-70382676D01*
X37646290Y-70310475D01*
X37283308Y-70382676D01*
X37113812Y-70611573D01*
X34482000Y-70611573D01*
X34482000Y-64557420D01*
X35188000Y-64557420D01*
X35188000Y-65442580D01*
X35526736Y-66260361D01*
X36152639Y-66886264D01*
X36970420Y-67225000D01*
X37855580Y-67225000D01*
X38673361Y-66886264D01*
X39299264Y-66260361D01*
X39638000Y-65442580D01*
X39638000Y-64557420D01*
X39299264Y-63739639D01*
X38673361Y-63113736D01*
X37855580Y-62775000D01*
X36970420Y-62775000D01*
X36152639Y-63113736D01*
X35526736Y-63739639D01*
X35188000Y-64557420D01*
X34482000Y-64557420D01*
X34482000Y-63535948D01*
X35976949Y-62041000D01*
X75757500Y-62041000D01*
X75757500Y-71947500D01*
G04 #@! TD*
M02*
