G04 #@! TF.GenerationSoftware,KiCad,Pcbnew,5.0.2-bee76a0~70~ubuntu16.04.1*
G04 #@! TF.CreationDate,2019-03-19T22:13:39-07:00*
G04 #@! TF.ProjectId,wifistepper,77696669-7374-4657-9070-65722e6b6963,rev?*
G04 #@! TF.SameCoordinates,Original*
G04 #@! TF.FileFunction,Copper,L2,Inr*
G04 #@! TF.FilePolarity,Positive*
%FSLAX46Y46*%
G04 Gerber Fmt 4.6, Leading zero omitted, Abs format (unit mm)*
G04 Created by KiCad (PCBNEW 5.0.2-bee76a0~70~ubuntu16.04.1) date Tue 19 Mar 2019 10:13:39 PM PDT*
%MOMM*%
%LPD*%
G01*
G04 APERTURE LIST*
G04 #@! TA.AperFunction,ViaPad*
%ADD10R,3.500000X3.500000*%
G04 #@! TD*
G04 #@! TA.AperFunction,Conductor*
%ADD11C,0.100000*%
G04 #@! TD*
G04 #@! TA.AperFunction,ViaPad*
%ADD12C,3.000000*%
G04 #@! TD*
G04 #@! TA.AperFunction,ViaPad*
%ADD13C,3.500000*%
G04 #@! TD*
G04 #@! TA.AperFunction,ViaPad*
%ADD14R,2.600000X2.600000*%
G04 #@! TD*
G04 #@! TA.AperFunction,ViaPad*
%ADD15C,2.600000*%
G04 #@! TD*
G04 #@! TA.AperFunction,ViaPad*
%ADD16R,1.700000X1.700000*%
G04 #@! TD*
G04 #@! TA.AperFunction,ViaPad*
%ADD17O,1.700000X1.700000*%
G04 #@! TD*
G04 #@! TA.AperFunction,ViaPad*
%ADD18C,2.400000*%
G04 #@! TD*
G04 #@! TA.AperFunction,ViaPad*
%ADD19R,2.400000X2.400000*%
G04 #@! TD*
G04 #@! TA.AperFunction,ViaPad*
%ADD20C,0.800000*%
G04 #@! TD*
G04 #@! TA.AperFunction,Conductor*
%ADD21C,0.500000*%
G04 #@! TD*
G04 #@! TA.AperFunction,Conductor*
%ADD22C,0.250000*%
G04 #@! TD*
G04 APERTURE END LIST*
D10*
G04 #@! TO.N,VIN*
G04 #@! TO.C,J1*
X47592500Y-105918000D03*
D11*
G04 #@! TO.N,GND*
G36*
X42416013Y-104171611D02*
X42488818Y-104182411D01*
X42560214Y-104200295D01*
X42629513Y-104225090D01*
X42696048Y-104256559D01*
X42759178Y-104294398D01*
X42818295Y-104338242D01*
X42872830Y-104387670D01*
X42922258Y-104442205D01*
X42966102Y-104501322D01*
X43003941Y-104564452D01*
X43035410Y-104630987D01*
X43060205Y-104700286D01*
X43078089Y-104771682D01*
X43088889Y-104844487D01*
X43092500Y-104918000D01*
X43092500Y-106918000D01*
X43088889Y-106991513D01*
X43078089Y-107064318D01*
X43060205Y-107135714D01*
X43035410Y-107205013D01*
X43003941Y-107271548D01*
X42966102Y-107334678D01*
X42922258Y-107393795D01*
X42872830Y-107448330D01*
X42818295Y-107497758D01*
X42759178Y-107541602D01*
X42696048Y-107579441D01*
X42629513Y-107610910D01*
X42560214Y-107635705D01*
X42488818Y-107653589D01*
X42416013Y-107664389D01*
X42342500Y-107668000D01*
X40842500Y-107668000D01*
X40768987Y-107664389D01*
X40696182Y-107653589D01*
X40624786Y-107635705D01*
X40555487Y-107610910D01*
X40488952Y-107579441D01*
X40425822Y-107541602D01*
X40366705Y-107497758D01*
X40312170Y-107448330D01*
X40262742Y-107393795D01*
X40218898Y-107334678D01*
X40181059Y-107271548D01*
X40149590Y-107205013D01*
X40124795Y-107135714D01*
X40106911Y-107064318D01*
X40096111Y-106991513D01*
X40092500Y-106918000D01*
X40092500Y-104918000D01*
X40096111Y-104844487D01*
X40106911Y-104771682D01*
X40124795Y-104700286D01*
X40149590Y-104630987D01*
X40181059Y-104564452D01*
X40218898Y-104501322D01*
X40262742Y-104442205D01*
X40312170Y-104387670D01*
X40366705Y-104338242D01*
X40425822Y-104294398D01*
X40488952Y-104256559D01*
X40555487Y-104225090D01*
X40624786Y-104200295D01*
X40696182Y-104182411D01*
X40768987Y-104171611D01*
X40842500Y-104168000D01*
X42342500Y-104168000D01*
X42416013Y-104171611D01*
X42416013Y-104171611D01*
G37*
D12*
X41592500Y-105918000D03*
D11*
G04 #@! TO.N,N/C*
G36*
X45553265Y-108872213D02*
X45638204Y-108884813D01*
X45721499Y-108905677D01*
X45802348Y-108934605D01*
X45879972Y-108971319D01*
X45953624Y-109015464D01*
X46022594Y-109066616D01*
X46086218Y-109124282D01*
X46143884Y-109187906D01*
X46195036Y-109256876D01*
X46239181Y-109330528D01*
X46275895Y-109408152D01*
X46304823Y-109489001D01*
X46325687Y-109572296D01*
X46338287Y-109657235D01*
X46342500Y-109743000D01*
X46342500Y-111493000D01*
X46338287Y-111578765D01*
X46325687Y-111663704D01*
X46304823Y-111746999D01*
X46275895Y-111827848D01*
X46239181Y-111905472D01*
X46195036Y-111979124D01*
X46143884Y-112048094D01*
X46086218Y-112111718D01*
X46022594Y-112169384D01*
X45953624Y-112220536D01*
X45879972Y-112264681D01*
X45802348Y-112301395D01*
X45721499Y-112330323D01*
X45638204Y-112351187D01*
X45553265Y-112363787D01*
X45467500Y-112368000D01*
X43717500Y-112368000D01*
X43631735Y-112363787D01*
X43546796Y-112351187D01*
X43463501Y-112330323D01*
X43382652Y-112301395D01*
X43305028Y-112264681D01*
X43231376Y-112220536D01*
X43162406Y-112169384D01*
X43098782Y-112111718D01*
X43041116Y-112048094D01*
X42989964Y-111979124D01*
X42945819Y-111905472D01*
X42909105Y-111827848D01*
X42880177Y-111746999D01*
X42859313Y-111663704D01*
X42846713Y-111578765D01*
X42842500Y-111493000D01*
X42842500Y-109743000D01*
X42846713Y-109657235D01*
X42859313Y-109572296D01*
X42880177Y-109489001D01*
X42909105Y-109408152D01*
X42945819Y-109330528D01*
X42989964Y-109256876D01*
X43041116Y-109187906D01*
X43098782Y-109124282D01*
X43162406Y-109066616D01*
X43231376Y-109015464D01*
X43305028Y-108971319D01*
X43382652Y-108934605D01*
X43463501Y-108905677D01*
X43546796Y-108884813D01*
X43631735Y-108872213D01*
X43717500Y-108868000D01*
X45467500Y-108868000D01*
X45553265Y-108872213D01*
X45553265Y-108872213D01*
G37*
D13*
X44592500Y-110618000D03*
G04 #@! TD*
D14*
G04 #@! TO.N,OUTB2*
G04 #@! TO.C,J2*
X37846000Y-97263000D03*
D15*
G04 #@! TO.N,OUTB1*
X37846000Y-92263000D03*
G04 #@! TO.N,OUTA1*
X37846000Y-87263000D03*
G04 #@! TO.N,OUTA2*
X37846000Y-82263000D03*
G04 #@! TO.N,VIN*
X37846000Y-77263000D03*
G04 #@! TO.N,GND*
X37846000Y-72263000D03*
G04 #@! TD*
D16*
G04 #@! TO.N,VIN*
G04 #@! TO.C,J5*
X78740000Y-92837000D03*
D17*
G04 #@! TO.N,GND*
X81280000Y-92837000D03*
G04 #@! TD*
D16*
G04 #@! TO.N,+3V3*
G04 #@! TO.C,J4*
X78740000Y-116840000D03*
D17*
G04 #@! TO.N,GND*
X81280000Y-116840000D03*
G04 #@! TO.N,Net-(J4-Pad3)*
X83820000Y-116840000D03*
G04 #@! TO.N,Net-(J4-Pad4)*
X86360000Y-116840000D03*
G04 #@! TO.N,Net-(J4-Pad5)*
X88900000Y-116840000D03*
G04 #@! TO.N,Net-(J4-Pad6)*
X91440000Y-116840000D03*
G04 #@! TO.N,Net-(J4-Pad7)*
X93980000Y-116840000D03*
G04 #@! TO.N,Net-(J4-Pad8)*
X96520000Y-116840000D03*
G04 #@! TO.N,Net-(J4-Pad9)*
X99060000Y-116840000D03*
G04 #@! TO.N,Net-(J4-Pad10)*
X101600000Y-116840000D03*
G04 #@! TD*
D18*
G04 #@! TO.N,GND*
G04 #@! TO.C,C10*
X78533000Y-105537000D03*
D19*
G04 #@! TO.N,VIN*
X73533000Y-105537000D03*
G04 #@! TD*
G04 #@! TO.N,VIN*
G04 #@! TO.C,C11*
X73723500Y-74358500D03*
D18*
G04 #@! TO.N,GND*
X78723500Y-74358500D03*
G04 #@! TD*
D16*
G04 #@! TO.N,+3V3*
G04 #@! TO.C,J3*
X78740000Y-63119000D03*
D17*
G04 #@! TO.N,GND*
X81280000Y-63119000D03*
G04 #@! TO.N,Net-(J3-Pad3)*
X83820000Y-63119000D03*
G04 #@! TO.N,Net-(J3-Pad4)*
X86360000Y-63119000D03*
G04 #@! TO.N,Net-(J3-Pad5)*
X88900000Y-63119000D03*
G04 #@! TO.N,Net-(J3-Pad6)*
X91440000Y-63119000D03*
G04 #@! TO.N,Net-(J3-Pad7)*
X93980000Y-63119000D03*
G04 #@! TO.N,Net-(J3-Pad8)*
X96520000Y-63119000D03*
G04 #@! TO.N,Net-(J3-Pad9)*
X99060000Y-63119000D03*
G04 #@! TO.N,Net-(J3-Pad10)*
X101600000Y-63119000D03*
G04 #@! TD*
D20*
G04 #@! TO.N,+3V3*
X84836000Y-106680000D03*
X85852000Y-106680000D03*
X86868000Y-106680000D03*
X104648000Y-96964500D03*
X104711500Y-99631500D03*
X104711500Y-102298500D03*
X85217000Y-111125000D03*
X89789000Y-96329500D03*
X93853000Y-106934000D03*
X81826418Y-87236618D03*
X90297000Y-111125000D03*
X79311500Y-89408000D03*
X78422500Y-110363000D03*
X96012000Y-69088000D03*
X103568500Y-66357500D03*
X49022000Y-101092000D03*
G04 #@! TO.N,GND*
X100393500Y-68326000D03*
X65405000Y-91249500D03*
X99187000Y-81788000D03*
X97536000Y-81788000D03*
X97536000Y-83439000D03*
X97536000Y-80137000D03*
X95885000Y-81851500D03*
X99187000Y-83439000D03*
X99187000Y-80137000D03*
X95885000Y-80137000D03*
X95885000Y-83439000D03*
X61976000Y-90678000D03*
X64389000Y-90678000D03*
X64389000Y-89027000D03*
X61976000Y-89027000D03*
X63246000Y-89789000D03*
X65405000Y-89789000D03*
X60960000Y-89789000D03*
X63246000Y-91313000D03*
X63246000Y-88201500D03*
X60960000Y-91313000D03*
X65405000Y-88201500D03*
X60960000Y-88201500D03*
X87947500Y-97129600D03*
X70358000Y-86677500D03*
X70358000Y-92837000D03*
X87376000Y-104394000D03*
X87947500Y-99123500D03*
X87947500Y-101346000D03*
X85534500Y-95377000D03*
X81534000Y-106362500D03*
X44704000Y-64516000D03*
X52832000Y-64516000D03*
X55626000Y-64516000D03*
X50165000Y-64516000D03*
X63754000Y-64516000D03*
X58293000Y-64516000D03*
X41910000Y-64516000D03*
X66548000Y-64516000D03*
X72009000Y-64516000D03*
X47371000Y-64516000D03*
X61087000Y-64516000D03*
X74676000Y-64516000D03*
X69215000Y-64516000D03*
X54229000Y-66167000D03*
X62484000Y-66167000D03*
X70612000Y-66167000D03*
X40640000Y-66167000D03*
X46101000Y-66167000D03*
X43307000Y-66167000D03*
X59690000Y-66167000D03*
X65151000Y-66167000D03*
X73406000Y-66167000D03*
X67945000Y-66167000D03*
X48768000Y-66167000D03*
X57023000Y-66167000D03*
X51562000Y-66167000D03*
X61722000Y-113792000D03*
X72644000Y-113792000D03*
X69977000Y-113792000D03*
X45339000Y-113792000D03*
X48133000Y-113792000D03*
X67183000Y-113792000D03*
X42672000Y-113792000D03*
X50800000Y-113792000D03*
X56261000Y-113792000D03*
X53594000Y-113792000D03*
X64516000Y-113792000D03*
X59055000Y-113792000D03*
X68580000Y-115443000D03*
X63119000Y-115443000D03*
X71247000Y-115443000D03*
X49403000Y-115443000D03*
X65786000Y-115443000D03*
X60325000Y-115443000D03*
X54864000Y-115443000D03*
X57658000Y-115443000D03*
X46736000Y-115443000D03*
X41275000Y-115443000D03*
X43942000Y-115443000D03*
X52197000Y-115443000D03*
X74930000Y-113665000D03*
X73914000Y-115443000D03*
X75501500Y-111823500D03*
X73088500Y-111950500D03*
X35433000Y-101219000D03*
X35433000Y-104013000D03*
X35433000Y-106934000D03*
X35433000Y-110109000D03*
X37147500Y-108458000D03*
X37020500Y-105473500D03*
X37084000Y-102552500D03*
X37465000Y-111506000D03*
X39052500Y-110172500D03*
X40894000Y-111887000D03*
X35433000Y-112395000D03*
X47815500Y-111760000D03*
X41910000Y-67818000D03*
X44704000Y-67818000D03*
X38989000Y-67945000D03*
X47498000Y-67945000D03*
X44767500Y-71120000D03*
X43053000Y-69786500D03*
X42037000Y-71628000D03*
X35306000Y-67818000D03*
X74676000Y-67691000D03*
X72771000Y-68580000D03*
X75882500Y-66103500D03*
X102870000Y-91503500D03*
X104965500Y-95059500D03*
X90106500Y-106934000D03*
X92075000Y-73152000D03*
X94297500Y-98615500D03*
X96900998Y-101409500D03*
X96583500Y-91313000D03*
X104457500Y-62674500D03*
X109982000Y-68072000D03*
X105473500Y-68008500D03*
X104330500Y-116903500D03*
X104394000Y-111125000D03*
X110045500Y-112014000D03*
X86931500Y-87947500D03*
X84772500Y-89916000D03*
X88709500Y-91122500D03*
X85280500Y-91567000D03*
X86931500Y-89852500D03*
X86931500Y-92519500D03*
X88900000Y-88963500D03*
X88836500Y-86169500D03*
X85534500Y-93853000D03*
X83629500Y-92900500D03*
X81280000Y-95377000D03*
X78613000Y-95313500D03*
X81089500Y-71183500D03*
X81534000Y-68643500D03*
X81978500Y-74612500D03*
X81915000Y-77343000D03*
X82232500Y-80137000D03*
X110109000Y-93281500D03*
X110109000Y-103441500D03*
X101092000Y-110998000D03*
X101155500Y-114363500D03*
X106489500Y-109728000D03*
X110172500Y-98107500D03*
X110172500Y-95758000D03*
X110172500Y-101028500D03*
X110045500Y-106489500D03*
X110045500Y-109029500D03*
X107696000Y-111252000D03*
X81724500Y-109156500D03*
X80899000Y-114554000D03*
X82359500Y-112966500D03*
X85090000Y-112839500D03*
X83883500Y-114681000D03*
X81534000Y-65976500D03*
X84836000Y-79946500D03*
X82232500Y-82613500D03*
X77978000Y-89027000D03*
X38989000Y-101155500D03*
X41402000Y-102933500D03*
X39751000Y-102679500D03*
X49911000Y-111760000D03*
X80899000Y-111442500D03*
X74612500Y-70104000D03*
X72707500Y-71310500D03*
X74676000Y-108331000D03*
X75692000Y-109156500D03*
X78676500Y-113220500D03*
X78613000Y-69977000D03*
X78613000Y-67056000D03*
X75819000Y-68834000D03*
X43561000Y-72580500D03*
X40767000Y-73025000D03*
X40322500Y-69786500D03*
X38608000Y-106934000D03*
X38608000Y-104140000D03*
X35242500Y-73025000D03*
X35242500Y-70358000D03*
X46101000Y-69596000D03*
X46418500Y-89789000D03*
X104203500Y-113347500D03*
X102425500Y-112458500D03*
X96075500Y-67500500D03*
X88328500Y-76263500D03*
X83375500Y-67310000D03*
X55054500Y-90551000D03*
X87249000Y-95313500D03*
X40132000Y-108648500D03*
X37211000Y-69024500D03*
G04 #@! TO.N,VIN*
X49911000Y-103124000D03*
X52133500Y-104394000D03*
X68834000Y-100330000D03*
X69977000Y-102616000D03*
X73342500Y-99314000D03*
X71755000Y-100901500D03*
X73660000Y-102171500D03*
X73977500Y-79883000D03*
X70675500Y-80899000D03*
X70358000Y-76835000D03*
X68834000Y-79248000D03*
X70866000Y-104711500D03*
X71120000Y-74549000D03*
X46799500Y-74739500D03*
X42481500Y-75247500D03*
X40195500Y-75120500D03*
X40703500Y-78676500D03*
X43116500Y-78359000D03*
X41084500Y-76898500D03*
X52514500Y-75247500D03*
X44831000Y-74993500D03*
X47498000Y-76390500D03*
X51562000Y-76644500D03*
X50863500Y-75057000D03*
X71818500Y-78676500D03*
X73787000Y-77343000D03*
X72263000Y-82359500D03*
X71882000Y-97409000D03*
X70294500Y-98806000D03*
X43180000Y-101219000D03*
X45656500Y-101473000D03*
X47561500Y-101727000D03*
X45720000Y-103251000D03*
X48006000Y-103060500D03*
X47434500Y-108712000D03*
X48895000Y-74930000D03*
X51879500Y-106045000D03*
X51625500Y-103060500D03*
X50546000Y-104838500D03*
X49593500Y-108712000D03*
X50673000Y-107188000D03*
X51943000Y-108267500D03*
X53403500Y-103060500D03*
X43434000Y-76644500D03*
X45529500Y-76644500D03*
X45339000Y-78168500D03*
X49657000Y-76327000D03*
X49022000Y-77787500D03*
X53721000Y-76898500D03*
G04 #@! TO.N,SM_RST*
X90170000Y-78867000D03*
X86931498Y-79629000D03*
G04 #@! TO.N,Net-(D5-Pad1)*
X100647500Y-95250000D03*
X91757500Y-94615000D03*
G04 #@! TO.N,OUTA1*
X61849000Y-85471000D03*
X62484000Y-86487000D03*
X61341000Y-86487000D03*
X62484000Y-84582000D03*
X61341000Y-84582000D03*
X55308500Y-86042500D03*
X56515001Y-86438990D03*
G04 #@! TO.N,OUTA2*
X64643000Y-85471000D03*
X65151000Y-86487000D03*
X64008000Y-86487000D03*
X65151000Y-84582000D03*
X64008000Y-84582000D03*
X69850000Y-85788500D03*
G04 #@! TO.N,OUTB1*
X61849000Y-94107000D03*
X62484000Y-93091000D03*
X61341000Y-93091000D03*
X62484000Y-94996000D03*
X61341000Y-94996000D03*
X56515000Y-93726000D03*
X55689500Y-94551500D03*
G04 #@! TO.N,OUTB2*
X64643000Y-94107000D03*
X65151000Y-94996000D03*
X64008000Y-94996000D03*
X65151000Y-93091000D03*
X64008000Y-93091000D03*
X69850000Y-93726000D03*
G04 #@! TO.N,SM_FLAG*
X87902240Y-81470500D03*
X90170000Y-83947000D03*
G04 #@! TO.N,WIFI_RST*
X94170500Y-93789500D03*
X98043998Y-93281500D03*
G04 #@! TO.N,WIFI_ADC*
X98806000Y-94043500D03*
X94932500Y-94549990D03*
G04 #@! TO.N,AUTH_SCK*
X97102247Y-92945160D03*
X93219510Y-93345000D03*
G04 #@! TO.N,AUTH_SDA*
X90932000Y-78105000D03*
X91249500Y-84010500D03*
G04 #@! TO.N,PROG_BOOT*
X91694000Y-84963000D03*
X92136990Y-77914500D03*
G04 #@! TO.N,SM_CLK*
X94107000Y-69024500D03*
X100012500Y-69850000D03*
G04 #@! TO.N,SM_SO*
X98996500Y-73279000D03*
X97091502Y-73279000D03*
G04 #@! TO.N,SM_CS*
X93027500Y-68961000D03*
X90932000Y-82677000D03*
X89725500Y-80327500D03*
X100363950Y-67153454D03*
G04 #@! TO.N,Net-(JP1-Pad1)*
X58039000Y-70739000D03*
X59372500Y-70739000D03*
X60706000Y-70739000D03*
X62039500Y-70739000D03*
X63373000Y-70739000D03*
X64706500Y-70739000D03*
X66040000Y-70739000D03*
X67373500Y-70739000D03*
X68707000Y-70739000D03*
X58737500Y-71501000D03*
X60071000Y-71501000D03*
X61404500Y-71501000D03*
X62738000Y-71501000D03*
X64071500Y-71501000D03*
X65405000Y-71501000D03*
X66738500Y-71501000D03*
X68072000Y-71501000D03*
X71437500Y-86677500D03*
X66167000Y-79692500D03*
X65405000Y-78930500D03*
X57340500Y-71501000D03*
X56642000Y-70739000D03*
X55943500Y-71501000D03*
G04 #@! TO.N,Net-(JP2-Pad1)*
X55626000Y-108013500D03*
X61023500Y-108013500D03*
X59690000Y-108013500D03*
X58356500Y-108013500D03*
X68389500Y-108775500D03*
X67056000Y-108775500D03*
X65722500Y-108775500D03*
X64389000Y-108775500D03*
X63055500Y-108775500D03*
X61722000Y-108775500D03*
X60388500Y-108775500D03*
X59055000Y-108775500D03*
X57721500Y-108775500D03*
X67691000Y-108013500D03*
X66357500Y-108013500D03*
X65024000Y-108013500D03*
X63690500Y-108013500D03*
X62357000Y-108013500D03*
X71437500Y-92837000D03*
X66103500Y-100139500D03*
X65405000Y-100838000D03*
X57023000Y-108013500D03*
X56324500Y-108775500D03*
G04 #@! TO.N,Net-(J4-Pad7)*
X96710502Y-113792000D03*
G04 #@! TD*
D21*
G04 #@! TO.N,+3V3*
X74676000Y-110363000D02*
X78422500Y-110363000D01*
X70675500Y-106362500D02*
X74676000Y-110363000D01*
X53657500Y-101727000D02*
X58293000Y-106362500D01*
X49657000Y-101727000D02*
X53657500Y-101727000D01*
X49022000Y-101092000D02*
X49657000Y-101727000D01*
X58293000Y-106362500D02*
X70675500Y-106362500D01*
G04 #@! TD*
D22*
G04 #@! TO.N,GND*
G36*
X77252756Y-62269000D02*
X77252756Y-63969000D01*
X77301263Y-64212863D01*
X77439400Y-64419600D01*
X77646137Y-64557737D01*
X77890000Y-64606244D01*
X79590000Y-64606244D01*
X79833863Y-64557737D01*
X80040600Y-64419600D01*
X80178737Y-64212863D01*
X80202562Y-64093085D01*
X80297726Y-64219390D01*
X80639277Y-64447571D01*
X80855000Y-64367390D01*
X80855000Y-63544000D01*
X80430000Y-63544000D01*
X80430000Y-62694000D01*
X80855000Y-62694000D01*
X80855000Y-62269000D01*
X81705000Y-62269000D01*
X81705000Y-62694000D01*
X82130000Y-62694000D01*
X82130000Y-63544000D01*
X81705000Y-63544000D01*
X81705000Y-64367390D01*
X81920723Y-64447571D01*
X82262274Y-64219390D01*
X82432091Y-63994002D01*
X82630691Y-63994002D01*
X82756585Y-64182415D01*
X83244484Y-64508419D01*
X83674730Y-64594000D01*
X83965270Y-64594000D01*
X84395516Y-64508419D01*
X84883415Y-64182415D01*
X85090000Y-63873239D01*
X85296585Y-64182415D01*
X85784484Y-64508419D01*
X86214730Y-64594000D01*
X86505270Y-64594000D01*
X86935516Y-64508419D01*
X87423415Y-64182415D01*
X87630000Y-63873239D01*
X87836585Y-64182415D01*
X88324484Y-64508419D01*
X88754730Y-64594000D01*
X89045270Y-64594000D01*
X89475516Y-64508419D01*
X89963415Y-64182415D01*
X90170000Y-63873239D01*
X90376585Y-64182415D01*
X90864484Y-64508419D01*
X91294730Y-64594000D01*
X91585270Y-64594000D01*
X92015516Y-64508419D01*
X92503415Y-64182415D01*
X92710000Y-63873239D01*
X92916585Y-64182415D01*
X93404484Y-64508419D01*
X93834730Y-64594000D01*
X94125270Y-64594000D01*
X94555516Y-64508419D01*
X95043415Y-64182415D01*
X95250000Y-63873239D01*
X95456585Y-64182415D01*
X95944484Y-64508419D01*
X96374730Y-64594000D01*
X96665270Y-64594000D01*
X97095516Y-64508419D01*
X97583415Y-64182415D01*
X97790000Y-63873239D01*
X97996585Y-64182415D01*
X98484484Y-64508419D01*
X98914730Y-64594000D01*
X99205270Y-64594000D01*
X99635516Y-64508419D01*
X100123415Y-64182415D01*
X100330000Y-63873239D01*
X100536585Y-64182415D01*
X101024484Y-64508419D01*
X101454730Y-64594000D01*
X101745270Y-64594000D01*
X101929170Y-64557420D01*
X105519500Y-64557420D01*
X105519500Y-65442580D01*
X105858236Y-66260361D01*
X106484139Y-66886264D01*
X107301920Y-67225000D01*
X108187080Y-67225000D01*
X109004861Y-66886264D01*
X109630764Y-66260361D01*
X109969500Y-65442580D01*
X109969500Y-64557420D01*
X109630764Y-63739639D01*
X109004861Y-63113736D01*
X108187080Y-62775000D01*
X107301920Y-62775000D01*
X106484139Y-63113736D01*
X105858236Y-63739639D01*
X105519500Y-64557420D01*
X101929170Y-64557420D01*
X102175516Y-64508419D01*
X102663415Y-64182415D01*
X102989419Y-63694516D01*
X103103896Y-63119000D01*
X102989419Y-62543484D01*
X102663415Y-62055585D01*
X102641587Y-62041000D01*
X109184052Y-62041000D01*
X110679000Y-63535949D01*
X110679000Y-69090000D01*
X104159343Y-69090000D01*
X104111508Y-69099515D01*
X103970086Y-69158094D01*
X103929533Y-69185191D01*
X103475191Y-69639533D01*
X103448094Y-69680086D01*
X103389515Y-69821508D01*
X103380000Y-69869343D01*
X103380000Y-91484157D01*
X103389515Y-91531992D01*
X103448094Y-91673414D01*
X103475191Y-91713967D01*
X103866033Y-92104809D01*
X103906586Y-92131906D01*
X104048008Y-92190485D01*
X104095843Y-92200000D01*
X110679001Y-92200000D01*
X110679001Y-116423050D01*
X109184052Y-117918000D01*
X102641587Y-117918000D01*
X102663415Y-117903415D01*
X102989419Y-117415516D01*
X103103896Y-116840000D01*
X102989419Y-116264484D01*
X102663415Y-115776585D01*
X102175516Y-115450581D01*
X101745270Y-115365000D01*
X101454730Y-115365000D01*
X101024484Y-115450581D01*
X100536585Y-115776585D01*
X100330000Y-116085761D01*
X100123415Y-115776585D01*
X99635516Y-115450581D01*
X99205270Y-115365000D01*
X98914730Y-115365000D01*
X98484484Y-115450581D01*
X97996585Y-115776585D01*
X97790000Y-116085761D01*
X97583415Y-115776585D01*
X97095516Y-115450581D01*
X96665270Y-115365000D01*
X96374730Y-115365000D01*
X95944484Y-115450581D01*
X95456585Y-115776585D01*
X95250000Y-116085761D01*
X95043415Y-115776585D01*
X94555516Y-115450581D01*
X94125270Y-115365000D01*
X93834730Y-115365000D01*
X93404484Y-115450581D01*
X92916585Y-115776585D01*
X92710000Y-116085761D01*
X92503415Y-115776585D01*
X92015516Y-115450581D01*
X91585270Y-115365000D01*
X91294730Y-115365000D01*
X90864484Y-115450581D01*
X90376585Y-115776585D01*
X90170000Y-116085761D01*
X89963415Y-115776585D01*
X89475516Y-115450581D01*
X89045270Y-115365000D01*
X88754730Y-115365000D01*
X88324484Y-115450581D01*
X87836585Y-115776585D01*
X87630000Y-116085761D01*
X87423415Y-115776585D01*
X86935516Y-115450581D01*
X86505270Y-115365000D01*
X86214730Y-115365000D01*
X85784484Y-115450581D01*
X85296585Y-115776585D01*
X85090000Y-116085761D01*
X84883415Y-115776585D01*
X84395516Y-115450581D01*
X83965270Y-115365000D01*
X83674730Y-115365000D01*
X83244484Y-115450581D01*
X82756585Y-115776585D01*
X82630691Y-115964998D01*
X82432091Y-115964998D01*
X82262274Y-115739610D01*
X81920723Y-115511429D01*
X81705000Y-115591610D01*
X81705000Y-116415000D01*
X82130000Y-116415000D01*
X82130000Y-117265000D01*
X81705000Y-117265000D01*
X81705000Y-117690000D01*
X80855000Y-117690000D01*
X80855000Y-117265000D01*
X80430000Y-117265000D01*
X80430000Y-116415000D01*
X80855000Y-116415000D01*
X80855000Y-115591610D01*
X80639277Y-115511429D01*
X80297726Y-115739610D01*
X80202562Y-115865915D01*
X80178737Y-115746137D01*
X80040600Y-115539400D01*
X79833863Y-115401263D01*
X79590000Y-115352756D01*
X77890000Y-115352756D01*
X77646137Y-115401263D01*
X77439400Y-115539400D01*
X77301263Y-115746137D01*
X77252756Y-115990000D01*
X77252756Y-117690000D01*
X77298108Y-117918000D01*
X35976949Y-117918000D01*
X34482000Y-116423052D01*
X34482000Y-114557420D01*
X35188000Y-114557420D01*
X35188000Y-115442580D01*
X35526736Y-116260361D01*
X36152639Y-116886264D01*
X36970420Y-117225000D01*
X37855580Y-117225000D01*
X38673361Y-116886264D01*
X39299264Y-116260361D01*
X39638000Y-115442580D01*
X39638000Y-114557420D01*
X39299264Y-113739639D01*
X39147740Y-113588115D01*
X95685502Y-113588115D01*
X95685502Y-113995885D01*
X95841549Y-114372616D01*
X96129886Y-114660953D01*
X96506617Y-114817000D01*
X96914387Y-114817000D01*
X97291118Y-114660953D01*
X97394651Y-114557420D01*
X105519500Y-114557420D01*
X105519500Y-115442580D01*
X105858236Y-116260361D01*
X106484139Y-116886264D01*
X107301920Y-117225000D01*
X108187080Y-117225000D01*
X109004861Y-116886264D01*
X109630764Y-116260361D01*
X109969500Y-115442580D01*
X109969500Y-114557420D01*
X109630764Y-113739639D01*
X109004861Y-113113736D01*
X108187080Y-112775000D01*
X107301920Y-112775000D01*
X106484139Y-113113736D01*
X105858236Y-113739639D01*
X105519500Y-114557420D01*
X97394651Y-114557420D01*
X97579455Y-114372616D01*
X97735502Y-113995885D01*
X97735502Y-113588115D01*
X97579455Y-113211384D01*
X97291118Y-112923047D01*
X96914387Y-112767000D01*
X96506617Y-112767000D01*
X96129886Y-112923047D01*
X95841549Y-113211384D01*
X95685502Y-113588115D01*
X39147740Y-113588115D01*
X38673361Y-113113736D01*
X37855580Y-112775000D01*
X36970420Y-112775000D01*
X36152639Y-113113736D01*
X35526736Y-113739639D01*
X35188000Y-114557420D01*
X34482000Y-114557420D01*
X34482000Y-109743000D01*
X42205256Y-109743000D01*
X42205256Y-111493000D01*
X42320369Y-112071711D01*
X42648182Y-112562318D01*
X43138789Y-112890131D01*
X43717500Y-113005244D01*
X45467500Y-113005244D01*
X46046211Y-112890131D01*
X46536818Y-112562318D01*
X46864631Y-112071711D01*
X46979744Y-111493000D01*
X46979744Y-110234000D01*
X69396000Y-110234000D01*
X69443836Y-110224485D01*
X69585257Y-110165906D01*
X69625810Y-110138809D01*
X69652906Y-110098257D01*
X69711485Y-109956836D01*
X69721000Y-109909000D01*
X69721000Y-107237500D01*
X70313064Y-107237500D01*
X73996341Y-110920777D01*
X74045160Y-110993840D01*
X74334592Y-111187232D01*
X74589821Y-111238000D01*
X74675999Y-111255142D01*
X74762177Y-111238000D01*
X77856483Y-111238000D01*
X78218615Y-111388000D01*
X78626385Y-111388000D01*
X79003116Y-111231953D01*
X79291453Y-110943616D01*
X79300773Y-110921115D01*
X84192000Y-110921115D01*
X84192000Y-111328885D01*
X84348047Y-111705616D01*
X84636384Y-111993953D01*
X85013115Y-112150000D01*
X85420885Y-112150000D01*
X85797616Y-111993953D01*
X86085953Y-111705616D01*
X86242000Y-111328885D01*
X86242000Y-110921115D01*
X89272000Y-110921115D01*
X89272000Y-111328885D01*
X89428047Y-111705616D01*
X89716384Y-111993953D01*
X90093115Y-112150000D01*
X90500885Y-112150000D01*
X90877616Y-111993953D01*
X91165953Y-111705616D01*
X91322000Y-111328885D01*
X91322000Y-110921115D01*
X91165953Y-110544384D01*
X90877616Y-110256047D01*
X90500885Y-110100000D01*
X90093115Y-110100000D01*
X89716384Y-110256047D01*
X89428047Y-110544384D01*
X89272000Y-110921115D01*
X86242000Y-110921115D01*
X86085953Y-110544384D01*
X85797616Y-110256047D01*
X85420885Y-110100000D01*
X85013115Y-110100000D01*
X84636384Y-110256047D01*
X84348047Y-110544384D01*
X84192000Y-110921115D01*
X79300773Y-110921115D01*
X79447500Y-110566885D01*
X79447500Y-110159115D01*
X79291453Y-109782384D01*
X79003116Y-109494047D01*
X78626385Y-109338000D01*
X78218615Y-109338000D01*
X77856483Y-109488000D01*
X75038436Y-109488000D01*
X72924680Y-107374244D01*
X74733000Y-107374244D01*
X74976863Y-107325737D01*
X75183600Y-107187600D01*
X75249222Y-107089389D01*
X77829139Y-107089389D01*
X77983106Y-107314645D01*
X78705240Y-107389765D01*
X79082894Y-107314645D01*
X79236861Y-107089389D01*
X78623587Y-106476115D01*
X83811000Y-106476115D01*
X83811000Y-106883885D01*
X83967047Y-107260616D01*
X84255384Y-107548953D01*
X84632115Y-107705000D01*
X85039885Y-107705000D01*
X85344000Y-107579032D01*
X85648115Y-107705000D01*
X86055885Y-107705000D01*
X86360000Y-107579032D01*
X86664115Y-107705000D01*
X87071885Y-107705000D01*
X87448616Y-107548953D01*
X87736953Y-107260616D01*
X87893000Y-106883885D01*
X87893000Y-106730115D01*
X92828000Y-106730115D01*
X92828000Y-107137885D01*
X92984047Y-107514616D01*
X93272384Y-107802953D01*
X93649115Y-107959000D01*
X94056885Y-107959000D01*
X94433616Y-107802953D01*
X94721953Y-107514616D01*
X94878000Y-107137885D01*
X94878000Y-106730115D01*
X94721953Y-106353384D01*
X94433616Y-106065047D01*
X94056885Y-105909000D01*
X93649115Y-105909000D01*
X93272384Y-106065047D01*
X92984047Y-106353384D01*
X92828000Y-106730115D01*
X87893000Y-106730115D01*
X87893000Y-106476115D01*
X87736953Y-106099384D01*
X87448616Y-105811047D01*
X87071885Y-105655000D01*
X86664115Y-105655000D01*
X86360000Y-105780968D01*
X86055885Y-105655000D01*
X85648115Y-105655000D01*
X85344000Y-105780968D01*
X85039885Y-105655000D01*
X84632115Y-105655000D01*
X84255384Y-105811047D01*
X83967047Y-106099384D01*
X83811000Y-106476115D01*
X78623587Y-106476115D01*
X78533000Y-106385528D01*
X77829139Y-107089389D01*
X75249222Y-107089389D01*
X75321737Y-106980863D01*
X75370244Y-106737000D01*
X75370244Y-105709240D01*
X76680235Y-105709240D01*
X76755355Y-106086894D01*
X76980611Y-106240861D01*
X77684472Y-105537000D01*
X79381528Y-105537000D01*
X80085389Y-106240861D01*
X80310645Y-106086894D01*
X80385765Y-105364760D01*
X80310645Y-104987106D01*
X80085389Y-104833139D01*
X79381528Y-105537000D01*
X77684472Y-105537000D01*
X76980611Y-104833139D01*
X76755355Y-104987106D01*
X76680235Y-105709240D01*
X75370244Y-105709240D01*
X75370244Y-104337000D01*
X75321737Y-104093137D01*
X75249223Y-103984611D01*
X77829139Y-103984611D01*
X78533000Y-104688472D01*
X79236861Y-103984611D01*
X79082894Y-103759355D01*
X78360760Y-103684235D01*
X77983106Y-103759355D01*
X77829139Y-103984611D01*
X75249223Y-103984611D01*
X75183600Y-103886400D01*
X74976863Y-103748263D01*
X74733000Y-103699756D01*
X72333000Y-103699756D01*
X72089137Y-103748263D01*
X71882400Y-103886400D01*
X71744263Y-104093137D01*
X71736170Y-104133823D01*
X71734953Y-104130884D01*
X71446616Y-103842547D01*
X71069885Y-103686500D01*
X70662115Y-103686500D01*
X70285384Y-103842547D01*
X69997047Y-104130884D01*
X69841000Y-104507615D01*
X69841000Y-104915385D01*
X69997047Y-105292116D01*
X70192431Y-105487500D01*
X58655437Y-105487500D01*
X55580052Y-102412115D01*
X68952000Y-102412115D01*
X68952000Y-102819885D01*
X69108047Y-103196616D01*
X69396384Y-103484953D01*
X69773115Y-103641000D01*
X70180885Y-103641000D01*
X70557616Y-103484953D01*
X70845953Y-103196616D01*
X71002000Y-102819885D01*
X71002000Y-102412115D01*
X70845953Y-102035384D01*
X70778184Y-101967615D01*
X72635000Y-101967615D01*
X72635000Y-102375385D01*
X72791047Y-102752116D01*
X73079384Y-103040453D01*
X73456115Y-103196500D01*
X73863885Y-103196500D01*
X74240616Y-103040453D01*
X74528953Y-102752116D01*
X74685000Y-102375385D01*
X74685000Y-102094615D01*
X103686500Y-102094615D01*
X103686500Y-102502385D01*
X103842547Y-102879116D01*
X104130884Y-103167453D01*
X104507615Y-103323500D01*
X104915385Y-103323500D01*
X105292116Y-103167453D01*
X105580453Y-102879116D01*
X105736500Y-102502385D01*
X105736500Y-102094615D01*
X105580453Y-101717884D01*
X105292116Y-101429547D01*
X104915385Y-101273500D01*
X104507615Y-101273500D01*
X104130884Y-101429547D01*
X103842547Y-101717884D01*
X103686500Y-102094615D01*
X74685000Y-102094615D01*
X74685000Y-101967615D01*
X74528953Y-101590884D01*
X74240616Y-101302547D01*
X73863885Y-101146500D01*
X73456115Y-101146500D01*
X73079384Y-101302547D01*
X72791047Y-101590884D01*
X72635000Y-101967615D01*
X70778184Y-101967615D01*
X70557616Y-101747047D01*
X70180885Y-101591000D01*
X69773115Y-101591000D01*
X69396384Y-101747047D01*
X69108047Y-102035384D01*
X68952000Y-102412115D01*
X55580052Y-102412115D01*
X54337159Y-101169223D01*
X54288340Y-101096160D01*
X53998908Y-100902768D01*
X53743679Y-100852000D01*
X53743678Y-100852000D01*
X53657500Y-100834858D01*
X53571322Y-100852000D01*
X50032041Y-100852000D01*
X49941790Y-100634115D01*
X64380000Y-100634115D01*
X64380000Y-101041885D01*
X64536047Y-101418616D01*
X64824384Y-101706953D01*
X65201115Y-101863000D01*
X65608885Y-101863000D01*
X65985616Y-101706953D01*
X66273953Y-101418616D01*
X66394087Y-101128587D01*
X66684116Y-101008453D01*
X66972453Y-100720116D01*
X67128500Y-100343385D01*
X67128500Y-100126115D01*
X67809000Y-100126115D01*
X67809000Y-100533885D01*
X67965047Y-100910616D01*
X68253384Y-101198953D01*
X68630115Y-101355000D01*
X69037885Y-101355000D01*
X69414616Y-101198953D01*
X69702953Y-100910616D01*
X69791180Y-100697615D01*
X70730000Y-100697615D01*
X70730000Y-101105385D01*
X70886047Y-101482116D01*
X71174384Y-101770453D01*
X71551115Y-101926500D01*
X71958885Y-101926500D01*
X72335616Y-101770453D01*
X72623953Y-101482116D01*
X72780000Y-101105385D01*
X72780000Y-100697615D01*
X72623953Y-100320884D01*
X72335616Y-100032547D01*
X71958885Y-99876500D01*
X71551115Y-99876500D01*
X71174384Y-100032547D01*
X70886047Y-100320884D01*
X70730000Y-100697615D01*
X69791180Y-100697615D01*
X69859000Y-100533885D01*
X69859000Y-100126115D01*
X69702953Y-99749384D01*
X69414616Y-99461047D01*
X69037885Y-99305000D01*
X68630115Y-99305000D01*
X68253384Y-99461047D01*
X67965047Y-99749384D01*
X67809000Y-100126115D01*
X67128500Y-100126115D01*
X67128500Y-99935615D01*
X66972453Y-99558884D01*
X66684116Y-99270547D01*
X66307385Y-99114500D01*
X65899615Y-99114500D01*
X65522884Y-99270547D01*
X65234547Y-99558884D01*
X65114413Y-99848913D01*
X64824384Y-99969047D01*
X64536047Y-100257384D01*
X64380000Y-100634115D01*
X49941790Y-100634115D01*
X49890953Y-100511384D01*
X49602616Y-100223047D01*
X49225885Y-100067000D01*
X48818115Y-100067000D01*
X48441384Y-100223047D01*
X48153047Y-100511384D01*
X48040295Y-100783590D01*
X47930120Y-100770236D01*
X47765385Y-100702000D01*
X47367176Y-100702000D01*
X46103930Y-100548880D01*
X45860385Y-100448000D01*
X45452615Y-100448000D01*
X45411652Y-100464967D01*
X45070107Y-100423568D01*
X45017860Y-100428326D01*
X44861154Y-100477184D01*
X44818319Y-100500506D01*
X44784370Y-100545222D01*
X44717010Y-100694910D01*
X44706000Y-100746206D01*
X44706000Y-101089256D01*
X44631500Y-101269115D01*
X44631500Y-101676885D01*
X44706000Y-101856744D01*
X44706000Y-103020559D01*
X44695000Y-103047115D01*
X44695000Y-103454885D01*
X44706000Y-103481441D01*
X44706000Y-108230756D01*
X43717500Y-108230756D01*
X43138789Y-108345869D01*
X42648182Y-108673682D01*
X42320369Y-109164289D01*
X42205256Y-109743000D01*
X34482000Y-109743000D01*
X34482000Y-106949250D01*
X39467500Y-106949250D01*
X39467500Y-107792320D01*
X39562651Y-108022034D01*
X39738466Y-108197850D01*
X39968180Y-108293000D01*
X40686250Y-108293000D01*
X40842500Y-108136750D01*
X40842500Y-106793000D01*
X42342500Y-106793000D01*
X42342500Y-108136750D01*
X42498750Y-108293000D01*
X43216820Y-108293000D01*
X43446534Y-108197850D01*
X43622349Y-108022034D01*
X43717500Y-107792320D01*
X43717500Y-106949250D01*
X43561250Y-106793000D01*
X42342500Y-106793000D01*
X40842500Y-106793000D01*
X39623750Y-106793000D01*
X39467500Y-106949250D01*
X34482000Y-106949250D01*
X34482000Y-104043680D01*
X39467500Y-104043680D01*
X39467500Y-104886750D01*
X39623750Y-105043000D01*
X40842500Y-105043000D01*
X40842500Y-103699250D01*
X42342500Y-103699250D01*
X42342500Y-105043000D01*
X43561250Y-105043000D01*
X43717500Y-104886750D01*
X43717500Y-104043680D01*
X43622349Y-103813966D01*
X43446534Y-103638150D01*
X43216820Y-103543000D01*
X42498750Y-103543000D01*
X42342500Y-103699250D01*
X40842500Y-103699250D01*
X40686250Y-103543000D01*
X39968180Y-103543000D01*
X39738466Y-103638150D01*
X39562651Y-103813966D01*
X39467500Y-104043680D01*
X34482000Y-104043680D01*
X34482000Y-101015115D01*
X42155000Y-101015115D01*
X42155000Y-101422885D01*
X42311047Y-101799616D01*
X42599384Y-102087953D01*
X42976115Y-102244000D01*
X43383885Y-102244000D01*
X43760616Y-102087953D01*
X44048953Y-101799616D01*
X44205000Y-101422885D01*
X44205000Y-101015115D01*
X44048953Y-100638384D01*
X43760616Y-100350047D01*
X43383885Y-100194000D01*
X42976115Y-100194000D01*
X42599384Y-100350047D01*
X42311047Y-100638384D01*
X42155000Y-101015115D01*
X34482000Y-101015115D01*
X34482000Y-95963000D01*
X35908756Y-95963000D01*
X35908756Y-98563000D01*
X35957263Y-98806863D01*
X36095400Y-99013600D01*
X36302137Y-99151737D01*
X36546000Y-99200244D01*
X39146000Y-99200244D01*
X39389863Y-99151737D01*
X39596600Y-99013600D01*
X39734737Y-98806863D01*
X39775463Y-98602115D01*
X69269500Y-98602115D01*
X69269500Y-99009885D01*
X69425547Y-99386616D01*
X69713884Y-99674953D01*
X70090615Y-99831000D01*
X70498385Y-99831000D01*
X70875116Y-99674953D01*
X71163453Y-99386616D01*
X71277983Y-99110115D01*
X72317500Y-99110115D01*
X72317500Y-99517885D01*
X72473547Y-99894616D01*
X72761884Y-100182953D01*
X73138615Y-100339000D01*
X73546385Y-100339000D01*
X73923116Y-100182953D01*
X74211453Y-99894616D01*
X74367500Y-99517885D01*
X74367500Y-99427615D01*
X103686500Y-99427615D01*
X103686500Y-99835385D01*
X103842547Y-100212116D01*
X104130884Y-100500453D01*
X104507615Y-100656500D01*
X104915385Y-100656500D01*
X105292116Y-100500453D01*
X105580453Y-100212116D01*
X105736500Y-99835385D01*
X105736500Y-99427615D01*
X105580453Y-99050884D01*
X105292116Y-98762547D01*
X104915385Y-98606500D01*
X104507615Y-98606500D01*
X104130884Y-98762547D01*
X103842547Y-99050884D01*
X103686500Y-99427615D01*
X74367500Y-99427615D01*
X74367500Y-99110115D01*
X74211453Y-98733384D01*
X73923116Y-98445047D01*
X73546385Y-98289000D01*
X73138615Y-98289000D01*
X72761884Y-98445047D01*
X72473547Y-98733384D01*
X72317500Y-99110115D01*
X71277983Y-99110115D01*
X71319500Y-99009885D01*
X71319500Y-98602115D01*
X71163453Y-98225384D01*
X70875116Y-97937047D01*
X70498385Y-97781000D01*
X70090615Y-97781000D01*
X69713884Y-97937047D01*
X69425547Y-98225384D01*
X69269500Y-98602115D01*
X39775463Y-98602115D01*
X39783244Y-98563000D01*
X39783244Y-97205115D01*
X70857000Y-97205115D01*
X70857000Y-97612885D01*
X71013047Y-97989616D01*
X71301384Y-98277953D01*
X71678115Y-98434000D01*
X72085885Y-98434000D01*
X72462616Y-98277953D01*
X72750953Y-97989616D01*
X72907000Y-97612885D01*
X72907000Y-97205115D01*
X72750953Y-96828384D01*
X72462616Y-96540047D01*
X72085885Y-96384000D01*
X71678115Y-96384000D01*
X71301384Y-96540047D01*
X71013047Y-96828384D01*
X70857000Y-97205115D01*
X39783244Y-97205115D01*
X39783244Y-96125615D01*
X88764000Y-96125615D01*
X88764000Y-96533385D01*
X88920047Y-96910116D01*
X89208384Y-97198453D01*
X89585115Y-97354500D01*
X89992885Y-97354500D01*
X90369616Y-97198453D01*
X90657953Y-96910116D01*
X90719878Y-96760615D01*
X103623000Y-96760615D01*
X103623000Y-97168385D01*
X103779047Y-97545116D01*
X104067384Y-97833453D01*
X104444115Y-97989500D01*
X104851885Y-97989500D01*
X105228616Y-97833453D01*
X105516953Y-97545116D01*
X105673000Y-97168385D01*
X105673000Y-96760615D01*
X105516953Y-96383884D01*
X105228616Y-96095547D01*
X104851885Y-95939500D01*
X104444115Y-95939500D01*
X104067384Y-96095547D01*
X103779047Y-96383884D01*
X103623000Y-96760615D01*
X90719878Y-96760615D01*
X90814000Y-96533385D01*
X90814000Y-96125615D01*
X90657953Y-95748884D01*
X90369616Y-95460547D01*
X89992885Y-95304500D01*
X89585115Y-95304500D01*
X89208384Y-95460547D01*
X88920047Y-95748884D01*
X88764000Y-96125615D01*
X39783244Y-96125615D01*
X39783244Y-95963000D01*
X39734737Y-95719137D01*
X39596600Y-95512400D01*
X39389863Y-95374263D01*
X39146000Y-95325756D01*
X36546000Y-95325756D01*
X36302137Y-95374263D01*
X36095400Y-95512400D01*
X35957263Y-95719137D01*
X35908756Y-95963000D01*
X34482000Y-95963000D01*
X34482000Y-94347615D01*
X54664500Y-94347615D01*
X54664500Y-94755385D01*
X54820547Y-95132116D01*
X55108884Y-95420453D01*
X55485615Y-95576500D01*
X55893385Y-95576500D01*
X56270116Y-95420453D01*
X56558453Y-95132116D01*
X56714500Y-94755385D01*
X56714500Y-94751000D01*
X56718885Y-94751000D01*
X57095616Y-94594953D01*
X57383953Y-94306616D01*
X57540000Y-93929885D01*
X57540000Y-93522115D01*
X57383953Y-93145384D01*
X57125684Y-92887115D01*
X60316000Y-92887115D01*
X60316000Y-93294885D01*
X60472047Y-93671616D01*
X60760384Y-93959953D01*
X60824000Y-93986304D01*
X60824000Y-94100696D01*
X60760384Y-94127047D01*
X60472047Y-94415384D01*
X60316000Y-94792115D01*
X60316000Y-95199885D01*
X60472047Y-95576616D01*
X60760384Y-95864953D01*
X61137115Y-96021000D01*
X61544885Y-96021000D01*
X61912500Y-95868729D01*
X62280115Y-96021000D01*
X62687885Y-96021000D01*
X63064616Y-95864953D01*
X63246000Y-95683569D01*
X63427384Y-95864953D01*
X63804115Y-96021000D01*
X64211885Y-96021000D01*
X64579500Y-95868729D01*
X64947115Y-96021000D01*
X65354885Y-96021000D01*
X65731616Y-95864953D01*
X66019953Y-95576616D01*
X66176000Y-95199885D01*
X66176000Y-94792115D01*
X66019953Y-94415384D01*
X65731616Y-94127047D01*
X65668000Y-94100696D01*
X65668000Y-93986304D01*
X65731616Y-93959953D01*
X66019953Y-93671616D01*
X66081878Y-93522115D01*
X68825000Y-93522115D01*
X68825000Y-93929885D01*
X68981047Y-94306616D01*
X69269384Y-94594953D01*
X69646115Y-94751000D01*
X70053885Y-94751000D01*
X70430616Y-94594953D01*
X70614454Y-94411115D01*
X90732500Y-94411115D01*
X90732500Y-94818885D01*
X90888547Y-95195616D01*
X91176884Y-95483953D01*
X91553615Y-95640000D01*
X91961385Y-95640000D01*
X92338116Y-95483953D01*
X92626453Y-95195616D01*
X92782500Y-94818885D01*
X92782500Y-94411115D01*
X92713661Y-94244922D01*
X93015625Y-94370000D01*
X93301499Y-94370000D01*
X93301547Y-94370116D01*
X93589884Y-94658453D01*
X93925569Y-94797498D01*
X94063547Y-95130606D01*
X94351884Y-95418943D01*
X94728615Y-95574990D01*
X95136385Y-95574990D01*
X95513116Y-95418943D01*
X95801453Y-95130606D01*
X95957500Y-94753875D01*
X95957500Y-94346105D01*
X95801453Y-93969374D01*
X95513116Y-93681037D01*
X95177431Y-93541992D01*
X95039453Y-93208884D01*
X94751116Y-92920547D01*
X94374385Y-92764500D01*
X94088511Y-92764500D01*
X94088463Y-92764384D01*
X94065354Y-92741275D01*
X96077247Y-92741275D01*
X96077247Y-93149045D01*
X96233294Y-93525776D01*
X96521631Y-93814113D01*
X96898362Y-93970160D01*
X97283089Y-93970160D01*
X97463382Y-94150453D01*
X97798315Y-94289187D01*
X97937047Y-94624116D01*
X98225384Y-94912453D01*
X98602115Y-95068500D01*
X99009885Y-95068500D01*
X99063927Y-95046115D01*
X99622500Y-95046115D01*
X99622500Y-95453885D01*
X99778547Y-95830616D01*
X100066884Y-96118953D01*
X100443615Y-96275000D01*
X100851385Y-96275000D01*
X101228116Y-96118953D01*
X101516453Y-95830616D01*
X101672500Y-95453885D01*
X101672500Y-95046115D01*
X101516453Y-94669384D01*
X101228116Y-94381047D01*
X100851385Y-94225000D01*
X100443615Y-94225000D01*
X100066884Y-94381047D01*
X99778547Y-94669384D01*
X99622500Y-95046115D01*
X99063927Y-95046115D01*
X99386616Y-94912453D01*
X99674953Y-94624116D01*
X99831000Y-94247385D01*
X99831000Y-93839615D01*
X99674953Y-93462884D01*
X99386616Y-93174547D01*
X99051683Y-93035813D01*
X98912951Y-92700884D01*
X98624614Y-92412547D01*
X98247883Y-92256500D01*
X97863156Y-92256500D01*
X97682863Y-92076207D01*
X97306132Y-91920160D01*
X96898362Y-91920160D01*
X96521631Y-92076207D01*
X96233294Y-92364544D01*
X96077247Y-92741275D01*
X94065354Y-92741275D01*
X93800126Y-92476047D01*
X93423395Y-92320000D01*
X93015625Y-92320000D01*
X92638894Y-92476047D01*
X92350557Y-92764384D01*
X92194510Y-93141115D01*
X92194510Y-93548885D01*
X92263349Y-93715078D01*
X91961385Y-93590000D01*
X91553615Y-93590000D01*
X91176884Y-93746047D01*
X90888547Y-94034384D01*
X90732500Y-94411115D01*
X70614454Y-94411115D01*
X70718953Y-94306616D01*
X70875000Y-93929885D01*
X70875000Y-93713457D01*
X71233615Y-93862000D01*
X71641385Y-93862000D01*
X72018116Y-93705953D01*
X72306453Y-93417616D01*
X72462500Y-93040885D01*
X72462500Y-92633115D01*
X72306453Y-92256384D01*
X72037069Y-91987000D01*
X77252756Y-91987000D01*
X77252756Y-93687000D01*
X77301263Y-93930863D01*
X77439400Y-94137600D01*
X77646137Y-94275737D01*
X77890000Y-94324244D01*
X79590000Y-94324244D01*
X79833863Y-94275737D01*
X80040600Y-94137600D01*
X80178737Y-93930863D01*
X80202562Y-93811085D01*
X80297726Y-93937390D01*
X80639277Y-94165571D01*
X80855000Y-94085390D01*
X80855000Y-93262000D01*
X81705000Y-93262000D01*
X81705000Y-94085390D01*
X81920723Y-94165571D01*
X82262274Y-93937390D01*
X82608604Y-93477728D01*
X82536229Y-93262000D01*
X81705000Y-93262000D01*
X80855000Y-93262000D01*
X80430000Y-93262000D01*
X80430000Y-92412000D01*
X80855000Y-92412000D01*
X80855000Y-91588610D01*
X81705000Y-91588610D01*
X81705000Y-92412000D01*
X82536229Y-92412000D01*
X82608604Y-92196272D01*
X82262274Y-91736610D01*
X81920723Y-91508429D01*
X81705000Y-91588610D01*
X80855000Y-91588610D01*
X80639277Y-91508429D01*
X80297726Y-91736610D01*
X80202562Y-91862915D01*
X80178737Y-91743137D01*
X80040600Y-91536400D01*
X79833863Y-91398263D01*
X79590000Y-91349756D01*
X77890000Y-91349756D01*
X77646137Y-91398263D01*
X77439400Y-91536400D01*
X77301263Y-91743137D01*
X77252756Y-91987000D01*
X72037069Y-91987000D01*
X72018116Y-91968047D01*
X71641385Y-91812000D01*
X71233615Y-91812000D01*
X70856884Y-91968047D01*
X70568547Y-92256384D01*
X70412500Y-92633115D01*
X70412500Y-92849543D01*
X70053885Y-92701000D01*
X69646115Y-92701000D01*
X69269384Y-92857047D01*
X68981047Y-93145384D01*
X68825000Y-93522115D01*
X66081878Y-93522115D01*
X66176000Y-93294885D01*
X66176000Y-92887115D01*
X66019953Y-92510384D01*
X65731616Y-92222047D01*
X65354885Y-92066000D01*
X64947115Y-92066000D01*
X64579500Y-92218271D01*
X64211885Y-92066000D01*
X63804115Y-92066000D01*
X63427384Y-92222047D01*
X63246000Y-92403431D01*
X63064616Y-92222047D01*
X62687885Y-92066000D01*
X62280115Y-92066000D01*
X61912500Y-92218271D01*
X61544885Y-92066000D01*
X61137115Y-92066000D01*
X60760384Y-92222047D01*
X60472047Y-92510384D01*
X60316000Y-92887115D01*
X57125684Y-92887115D01*
X57095616Y-92857047D01*
X56718885Y-92701000D01*
X56311115Y-92701000D01*
X55934384Y-92857047D01*
X55646047Y-93145384D01*
X55490000Y-93522115D01*
X55490000Y-93526500D01*
X55485615Y-93526500D01*
X55108884Y-93682547D01*
X54820547Y-93970884D01*
X54664500Y-94347615D01*
X34482000Y-94347615D01*
X34482000Y-91880094D01*
X35921000Y-91880094D01*
X35921000Y-92645906D01*
X36214064Y-93353425D01*
X36755575Y-93894936D01*
X37463094Y-94188000D01*
X38228906Y-94188000D01*
X38936425Y-93894936D01*
X39477936Y-93353425D01*
X39771000Y-92645906D01*
X39771000Y-91880094D01*
X39477936Y-91172575D01*
X38936425Y-90631064D01*
X38228906Y-90338000D01*
X37463094Y-90338000D01*
X36755575Y-90631064D01*
X36214064Y-91172575D01*
X35921000Y-91880094D01*
X34482000Y-91880094D01*
X34482000Y-89204115D01*
X78286500Y-89204115D01*
X78286500Y-89611885D01*
X78442547Y-89988616D01*
X78730884Y-90276953D01*
X79107615Y-90433000D01*
X79515385Y-90433000D01*
X79892116Y-90276953D01*
X80180453Y-89988616D01*
X80336500Y-89611885D01*
X80336500Y-89204115D01*
X80180453Y-88827384D01*
X79892116Y-88539047D01*
X79515385Y-88383000D01*
X79107615Y-88383000D01*
X78730884Y-88539047D01*
X78442547Y-88827384D01*
X78286500Y-89204115D01*
X34482000Y-89204115D01*
X34482000Y-86880094D01*
X35921000Y-86880094D01*
X35921000Y-87645906D01*
X36214064Y-88353425D01*
X36755575Y-88894936D01*
X37463094Y-89188000D01*
X38228906Y-89188000D01*
X38936425Y-88894936D01*
X39477936Y-88353425D01*
X39771000Y-87645906D01*
X39771000Y-86880094D01*
X39477936Y-86172575D01*
X39143976Y-85838615D01*
X54283500Y-85838615D01*
X54283500Y-86246385D01*
X54439547Y-86623116D01*
X54727884Y-86911453D01*
X55104615Y-87067500D01*
X55512385Y-87067500D01*
X55643407Y-87013229D01*
X55646048Y-87019606D01*
X55934385Y-87307943D01*
X56311116Y-87463990D01*
X56718886Y-87463990D01*
X57095617Y-87307943D01*
X57383954Y-87019606D01*
X57540001Y-86642875D01*
X57540001Y-86235105D01*
X57383954Y-85858374D01*
X57095617Y-85570037D01*
X56718886Y-85413990D01*
X56311116Y-85413990D01*
X56180094Y-85468261D01*
X56177453Y-85461884D01*
X55889116Y-85173547D01*
X55512385Y-85017500D01*
X55104615Y-85017500D01*
X54727884Y-85173547D01*
X54439547Y-85461884D01*
X54283500Y-85838615D01*
X39143976Y-85838615D01*
X38936425Y-85631064D01*
X38228906Y-85338000D01*
X37463094Y-85338000D01*
X36755575Y-85631064D01*
X36214064Y-86172575D01*
X35921000Y-86880094D01*
X34482000Y-86880094D01*
X34482000Y-84378115D01*
X60316000Y-84378115D01*
X60316000Y-84785885D01*
X60472047Y-85162616D01*
X60760384Y-85450953D01*
X60824000Y-85477304D01*
X60824000Y-85591696D01*
X60760384Y-85618047D01*
X60472047Y-85906384D01*
X60316000Y-86283115D01*
X60316000Y-86690885D01*
X60472047Y-87067616D01*
X60760384Y-87355953D01*
X61137115Y-87512000D01*
X61544885Y-87512000D01*
X61912500Y-87359729D01*
X62280115Y-87512000D01*
X62687885Y-87512000D01*
X63064616Y-87355953D01*
X63246000Y-87174569D01*
X63427384Y-87355953D01*
X63804115Y-87512000D01*
X64211885Y-87512000D01*
X64579500Y-87359729D01*
X64947115Y-87512000D01*
X65354885Y-87512000D01*
X65731616Y-87355953D01*
X66019953Y-87067616D01*
X66176000Y-86690885D01*
X66176000Y-86283115D01*
X66019953Y-85906384D01*
X65731616Y-85618047D01*
X65668000Y-85591696D01*
X65668000Y-85584615D01*
X68825000Y-85584615D01*
X68825000Y-85992385D01*
X68981047Y-86369116D01*
X69269384Y-86657453D01*
X69646115Y-86813500D01*
X70053885Y-86813500D01*
X70412500Y-86664957D01*
X70412500Y-86881385D01*
X70568547Y-87258116D01*
X70856884Y-87546453D01*
X71233615Y-87702500D01*
X71641385Y-87702500D01*
X72018116Y-87546453D01*
X72306453Y-87258116D01*
X72399809Y-87032733D01*
X80801418Y-87032733D01*
X80801418Y-87440503D01*
X80957465Y-87817234D01*
X81245802Y-88105571D01*
X81622533Y-88261618D01*
X82030303Y-88261618D01*
X82407034Y-88105571D01*
X82695371Y-87817234D01*
X82851418Y-87440503D01*
X82851418Y-87032733D01*
X82695371Y-86656002D01*
X82407034Y-86367665D01*
X82030303Y-86211618D01*
X81622533Y-86211618D01*
X81245802Y-86367665D01*
X80957465Y-86656002D01*
X80801418Y-87032733D01*
X72399809Y-87032733D01*
X72462500Y-86881385D01*
X72462500Y-86473615D01*
X72306453Y-86096884D01*
X72018116Y-85808547D01*
X71641385Y-85652500D01*
X71233615Y-85652500D01*
X70875000Y-85801043D01*
X70875000Y-85584615D01*
X70718953Y-85207884D01*
X70430616Y-84919547D01*
X70053885Y-84763500D01*
X69646115Y-84763500D01*
X69269384Y-84919547D01*
X68981047Y-85207884D01*
X68825000Y-85584615D01*
X65668000Y-85584615D01*
X65668000Y-85477304D01*
X65731616Y-85450953D01*
X66019953Y-85162616D01*
X66176000Y-84785885D01*
X66176000Y-84378115D01*
X66019953Y-84001384D01*
X65761684Y-83743115D01*
X89145000Y-83743115D01*
X89145000Y-84150885D01*
X89301047Y-84527616D01*
X89589384Y-84815953D01*
X89966115Y-84972000D01*
X90373885Y-84972000D01*
X90647921Y-84858490D01*
X90668884Y-84879453D01*
X90669000Y-84879501D01*
X90669000Y-85166885D01*
X90825047Y-85543616D01*
X91113384Y-85831953D01*
X91490115Y-85988000D01*
X91897885Y-85988000D01*
X92274616Y-85831953D01*
X92562953Y-85543616D01*
X92719000Y-85166885D01*
X92719000Y-84759115D01*
X92562953Y-84382384D01*
X92274616Y-84094047D01*
X92274500Y-84093999D01*
X92274500Y-83806615D01*
X92118453Y-83429884D01*
X91843490Y-83154921D01*
X91957000Y-82880885D01*
X91957000Y-82473115D01*
X91800953Y-82096384D01*
X91512616Y-81808047D01*
X91135885Y-81652000D01*
X90728115Y-81652000D01*
X90351384Y-81808047D01*
X90063047Y-82096384D01*
X89907000Y-82473115D01*
X89907000Y-82880885D01*
X89930194Y-82936879D01*
X89589384Y-83078047D01*
X89301047Y-83366384D01*
X89145000Y-83743115D01*
X65761684Y-83743115D01*
X65731616Y-83713047D01*
X65354885Y-83557000D01*
X64947115Y-83557000D01*
X64579500Y-83709271D01*
X64211885Y-83557000D01*
X63804115Y-83557000D01*
X63427384Y-83713047D01*
X63246000Y-83894431D01*
X63064616Y-83713047D01*
X62687885Y-83557000D01*
X62280115Y-83557000D01*
X61912500Y-83709271D01*
X61544885Y-83557000D01*
X61137115Y-83557000D01*
X60760384Y-83713047D01*
X60472047Y-84001384D01*
X60316000Y-84378115D01*
X34482000Y-84378115D01*
X34482000Y-81880094D01*
X35921000Y-81880094D01*
X35921000Y-82645906D01*
X36214064Y-83353425D01*
X36755575Y-83894936D01*
X37463094Y-84188000D01*
X38228906Y-84188000D01*
X38936425Y-83894936D01*
X39477936Y-83353425D01*
X39771000Y-82645906D01*
X39771000Y-82155615D01*
X71238000Y-82155615D01*
X71238000Y-82563385D01*
X71394047Y-82940116D01*
X71682384Y-83228453D01*
X72059115Y-83384500D01*
X72466885Y-83384500D01*
X72843616Y-83228453D01*
X73131953Y-82940116D01*
X73288000Y-82563385D01*
X73288000Y-82155615D01*
X73131953Y-81778884D01*
X72843616Y-81490547D01*
X72466885Y-81334500D01*
X72059115Y-81334500D01*
X71682384Y-81490547D01*
X71394047Y-81778884D01*
X71238000Y-82155615D01*
X39771000Y-82155615D01*
X39771000Y-81880094D01*
X39477936Y-81172575D01*
X38936425Y-80631064D01*
X38228906Y-80338000D01*
X37463094Y-80338000D01*
X36755575Y-80631064D01*
X36214064Y-81172575D01*
X35921000Y-81880094D01*
X34482000Y-81880094D01*
X34482000Y-76880094D01*
X35921000Y-76880094D01*
X35921000Y-77645906D01*
X36214064Y-78353425D01*
X36755575Y-78894936D01*
X37463094Y-79188000D01*
X38228906Y-79188000D01*
X38936425Y-78894936D01*
X39477936Y-78353425D01*
X39771000Y-77645906D01*
X39771000Y-76880094D01*
X39477936Y-76172575D01*
X38936425Y-75631064D01*
X38228906Y-75338000D01*
X37463094Y-75338000D01*
X36755575Y-75631064D01*
X36214064Y-76172575D01*
X35921000Y-76880094D01*
X34482000Y-76880094D01*
X34482000Y-74916615D01*
X39170500Y-74916615D01*
X39170500Y-75324385D01*
X39326547Y-75701116D01*
X39614884Y-75989453D01*
X39991615Y-76145500D01*
X40387931Y-76145500D01*
X40215547Y-76317884D01*
X40059500Y-76694615D01*
X40059500Y-77102385D01*
X40215547Y-77479116D01*
X40420642Y-77684211D01*
X40122884Y-77807547D01*
X39834547Y-78095884D01*
X39678500Y-78472615D01*
X39678500Y-78880385D01*
X39834547Y-79257116D01*
X40122884Y-79545453D01*
X40499615Y-79701500D01*
X40907385Y-79701500D01*
X41284116Y-79545453D01*
X41572453Y-79257116D01*
X41728500Y-78880385D01*
X41728500Y-78472615D01*
X41572453Y-78095884D01*
X41367358Y-77890789D01*
X41665116Y-77767453D01*
X41953453Y-77479116D01*
X42109500Y-77102385D01*
X42109500Y-76694615D01*
X41953453Y-76317884D01*
X41665116Y-76029547D01*
X41288385Y-75873500D01*
X40892069Y-75873500D01*
X41064453Y-75701116D01*
X41220500Y-75324385D01*
X41220500Y-75043615D01*
X41456500Y-75043615D01*
X41456500Y-75451385D01*
X41612547Y-75828116D01*
X41900884Y-76116453D01*
X42277615Y-76272500D01*
X42478635Y-76272500D01*
X42409000Y-76440615D01*
X42409000Y-76848385D01*
X42565047Y-77225116D01*
X42743840Y-77403909D01*
X42535884Y-77490047D01*
X42247547Y-77778384D01*
X42091500Y-78155115D01*
X42091500Y-78562885D01*
X42247547Y-78939616D01*
X42535884Y-79227953D01*
X42912615Y-79384000D01*
X43320385Y-79384000D01*
X43697116Y-79227953D01*
X43985453Y-78939616D01*
X44141500Y-78562885D01*
X44141500Y-78155115D01*
X43985453Y-77778384D01*
X43806660Y-77599591D01*
X44014616Y-77513453D01*
X44302953Y-77225116D01*
X44459000Y-76848385D01*
X44459000Y-76440615D01*
X44302953Y-76063884D01*
X44014616Y-75775547D01*
X43637885Y-75619500D01*
X43436865Y-75619500D01*
X43506500Y-75451385D01*
X43506500Y-75043615D01*
X43401290Y-74789615D01*
X43806000Y-74789615D01*
X43806000Y-75197385D01*
X43962047Y-75574116D01*
X44250384Y-75862453D01*
X44627115Y-76018500D01*
X44705931Y-76018500D01*
X44660547Y-76063884D01*
X44504500Y-76440615D01*
X44504500Y-76848385D01*
X44660547Y-77225116D01*
X44746681Y-77311250D01*
X44470047Y-77587884D01*
X44314000Y-77964615D01*
X44314000Y-78372385D01*
X44470047Y-78749116D01*
X44758384Y-79037453D01*
X45135115Y-79193500D01*
X45542885Y-79193500D01*
X45919616Y-79037453D01*
X46207953Y-78749116D01*
X46364000Y-78372385D01*
X46364000Y-77964615D01*
X46207953Y-77587884D01*
X46121819Y-77501750D01*
X46398453Y-77225116D01*
X46554500Y-76848385D01*
X46554500Y-76791144D01*
X46629047Y-76971116D01*
X46917384Y-77259453D01*
X47294115Y-77415500D01*
X47701885Y-77415500D01*
X48078616Y-77259453D01*
X48366953Y-76971116D01*
X48523000Y-76594385D01*
X48523000Y-76186615D01*
X48372375Y-75822974D01*
X48691115Y-75955000D01*
X48701635Y-75955000D01*
X48632000Y-76123115D01*
X48632000Y-76530885D01*
X48741144Y-76794382D01*
X48441384Y-76918547D01*
X48153047Y-77206884D01*
X47997000Y-77583615D01*
X47997000Y-77991385D01*
X48153047Y-78368116D01*
X48441384Y-78656453D01*
X48818115Y-78812500D01*
X49225885Y-78812500D01*
X49433229Y-78726615D01*
X64380000Y-78726615D01*
X64380000Y-79134385D01*
X64536047Y-79511116D01*
X64824384Y-79799453D01*
X65159314Y-79938186D01*
X65298047Y-80273116D01*
X65586384Y-80561453D01*
X65963115Y-80717500D01*
X66370885Y-80717500D01*
X66424927Y-80695115D01*
X69650500Y-80695115D01*
X69650500Y-81102885D01*
X69806547Y-81479616D01*
X70094884Y-81767953D01*
X70471615Y-81924000D01*
X70879385Y-81924000D01*
X71256116Y-81767953D01*
X71544453Y-81479616D01*
X71632680Y-81266615D01*
X86877240Y-81266615D01*
X86877240Y-81674385D01*
X87033287Y-82051116D01*
X87321624Y-82339453D01*
X87698355Y-82495500D01*
X88106125Y-82495500D01*
X88482856Y-82339453D01*
X88771193Y-82051116D01*
X88927240Y-81674385D01*
X88927240Y-81266615D01*
X88771193Y-80889884D01*
X88482856Y-80601547D01*
X88106125Y-80445500D01*
X87698355Y-80445500D01*
X87321624Y-80601547D01*
X87033287Y-80889884D01*
X86877240Y-81266615D01*
X71632680Y-81266615D01*
X71700500Y-81102885D01*
X71700500Y-80695115D01*
X71544453Y-80318384D01*
X71256116Y-80030047D01*
X70879385Y-79874000D01*
X70471615Y-79874000D01*
X70094884Y-80030047D01*
X69806547Y-80318384D01*
X69650500Y-80695115D01*
X66424927Y-80695115D01*
X66747616Y-80561453D01*
X67035953Y-80273116D01*
X67192000Y-79896385D01*
X67192000Y-79488615D01*
X67035953Y-79111884D01*
X66968184Y-79044115D01*
X67809000Y-79044115D01*
X67809000Y-79451885D01*
X67965047Y-79828616D01*
X68253384Y-80116953D01*
X68630115Y-80273000D01*
X69037885Y-80273000D01*
X69414616Y-80116953D01*
X69702953Y-79828616D01*
X69859000Y-79451885D01*
X69859000Y-79044115D01*
X69702953Y-78667384D01*
X69508184Y-78472615D01*
X70793500Y-78472615D01*
X70793500Y-78880385D01*
X70949547Y-79257116D01*
X71237884Y-79545453D01*
X71614615Y-79701500D01*
X72022385Y-79701500D01*
X72076427Y-79679115D01*
X72952500Y-79679115D01*
X72952500Y-80086885D01*
X73108547Y-80463616D01*
X73396884Y-80751953D01*
X73773615Y-80908000D01*
X74181385Y-80908000D01*
X74558116Y-80751953D01*
X74846453Y-80463616D01*
X75002500Y-80086885D01*
X75002500Y-79679115D01*
X74897290Y-79425115D01*
X85906498Y-79425115D01*
X85906498Y-79832885D01*
X86062545Y-80209616D01*
X86350882Y-80497953D01*
X86727613Y-80654000D01*
X87135383Y-80654000D01*
X87512114Y-80497953D01*
X87800451Y-80209616D01*
X87836073Y-80123615D01*
X88700500Y-80123615D01*
X88700500Y-80531385D01*
X88856547Y-80908116D01*
X89144884Y-81196453D01*
X89521615Y-81352500D01*
X89929385Y-81352500D01*
X90306116Y-81196453D01*
X90594453Y-80908116D01*
X90750500Y-80531385D01*
X90750500Y-80123615D01*
X90613458Y-79792766D01*
X90750616Y-79735953D01*
X91038953Y-79447616D01*
X91177686Y-79112686D01*
X91512616Y-78973953D01*
X91660136Y-78826433D01*
X91933105Y-78939500D01*
X92340875Y-78939500D01*
X92717606Y-78783453D01*
X93005943Y-78495116D01*
X93161990Y-78118385D01*
X93161990Y-77710615D01*
X93005943Y-77333884D01*
X92717606Y-77045547D01*
X92340875Y-76889500D01*
X91933105Y-76889500D01*
X91556374Y-77045547D01*
X91408854Y-77193067D01*
X91135885Y-77080000D01*
X90728115Y-77080000D01*
X90351384Y-77236047D01*
X90063047Y-77524384D01*
X89924314Y-77859314D01*
X89589384Y-77998047D01*
X89301047Y-78286384D01*
X89145000Y-78663115D01*
X89145000Y-79070885D01*
X89282042Y-79401734D01*
X89144884Y-79458547D01*
X88856547Y-79746884D01*
X88700500Y-80123615D01*
X87836073Y-80123615D01*
X87956498Y-79832885D01*
X87956498Y-79425115D01*
X87800451Y-79048384D01*
X87512114Y-78760047D01*
X87135383Y-78604000D01*
X86727613Y-78604000D01*
X86350882Y-78760047D01*
X86062545Y-79048384D01*
X85906498Y-79425115D01*
X74897290Y-79425115D01*
X74846453Y-79302384D01*
X74558116Y-79014047D01*
X74181385Y-78858000D01*
X73773615Y-78858000D01*
X73396884Y-79014047D01*
X73108547Y-79302384D01*
X72952500Y-79679115D01*
X72076427Y-79679115D01*
X72399116Y-79545453D01*
X72687453Y-79257116D01*
X72843500Y-78880385D01*
X72843500Y-78472615D01*
X72687453Y-78095884D01*
X72399116Y-77807547D01*
X72022385Y-77651500D01*
X71614615Y-77651500D01*
X71237884Y-77807547D01*
X70949547Y-78095884D01*
X70793500Y-78472615D01*
X69508184Y-78472615D01*
X69414616Y-78379047D01*
X69037885Y-78223000D01*
X68630115Y-78223000D01*
X68253384Y-78379047D01*
X67965047Y-78667384D01*
X67809000Y-79044115D01*
X66968184Y-79044115D01*
X66747616Y-78823547D01*
X66412686Y-78684814D01*
X66273953Y-78349884D01*
X65985616Y-78061547D01*
X65608885Y-77905500D01*
X65201115Y-77905500D01*
X64824384Y-78061547D01*
X64536047Y-78349884D01*
X64380000Y-78726615D01*
X49433229Y-78726615D01*
X49602616Y-78656453D01*
X49890953Y-78368116D01*
X50047000Y-77991385D01*
X50047000Y-77583615D01*
X49937856Y-77320118D01*
X50237616Y-77195953D01*
X50525953Y-76907616D01*
X50543744Y-76864666D01*
X50693047Y-77225116D01*
X50981384Y-77513453D01*
X51358115Y-77669500D01*
X51765885Y-77669500D01*
X52142616Y-77513453D01*
X52430953Y-77225116D01*
X52587000Y-76848385D01*
X52587000Y-76440615D01*
X52517365Y-76272500D01*
X52718385Y-76272500D01*
X53024036Y-76145895D01*
X52852047Y-76317884D01*
X52696000Y-76694615D01*
X52696000Y-77102385D01*
X52852047Y-77479116D01*
X53140384Y-77767453D01*
X53517115Y-77923500D01*
X53924885Y-77923500D01*
X54301616Y-77767453D01*
X54589953Y-77479116D01*
X54746000Y-77102385D01*
X54746000Y-76694615D01*
X54719698Y-76631115D01*
X69333000Y-76631115D01*
X69333000Y-77038885D01*
X69489047Y-77415616D01*
X69777384Y-77703953D01*
X70154115Y-77860000D01*
X70561885Y-77860000D01*
X70938616Y-77703953D01*
X71226953Y-77415616D01*
X71341483Y-77139115D01*
X72762000Y-77139115D01*
X72762000Y-77546885D01*
X72918047Y-77923616D01*
X73206384Y-78211953D01*
X73583115Y-78368000D01*
X73990885Y-78368000D01*
X74367616Y-78211953D01*
X74655953Y-77923616D01*
X74812000Y-77546885D01*
X74812000Y-77139115D01*
X74655953Y-76762384D01*
X74367616Y-76474047D01*
X73990885Y-76318000D01*
X73583115Y-76318000D01*
X73206384Y-76474047D01*
X72918047Y-76762384D01*
X72762000Y-77139115D01*
X71341483Y-77139115D01*
X71383000Y-77038885D01*
X71383000Y-76631115D01*
X71226953Y-76254384D01*
X70938616Y-75966047D01*
X70561885Y-75810000D01*
X70154115Y-75810000D01*
X69777384Y-75966047D01*
X69489047Y-76254384D01*
X69333000Y-76631115D01*
X54719698Y-76631115D01*
X54589953Y-76317884D01*
X54301616Y-76029547D01*
X53924885Y-75873500D01*
X53517115Y-75873500D01*
X53211464Y-76000105D01*
X53383453Y-75828116D01*
X53539500Y-75451385D01*
X53539500Y-75043615D01*
X53383453Y-74666884D01*
X53095116Y-74378547D01*
X53014404Y-74345115D01*
X70095000Y-74345115D01*
X70095000Y-74752885D01*
X70251047Y-75129616D01*
X70539384Y-75417953D01*
X70916115Y-75574000D01*
X71323885Y-75574000D01*
X71700616Y-75417953D01*
X71886256Y-75232313D01*
X71886256Y-75558500D01*
X71934763Y-75802363D01*
X72072900Y-76009100D01*
X72279637Y-76147237D01*
X72523500Y-76195744D01*
X74923500Y-76195744D01*
X75167363Y-76147237D01*
X75374100Y-76009100D01*
X75439722Y-75910889D01*
X78019639Y-75910889D01*
X78173606Y-76136145D01*
X78895740Y-76211265D01*
X79273394Y-76136145D01*
X79427361Y-75910889D01*
X78723500Y-75207028D01*
X78019639Y-75910889D01*
X75439722Y-75910889D01*
X75512237Y-75802363D01*
X75560744Y-75558500D01*
X75560744Y-74530740D01*
X76870735Y-74530740D01*
X76945855Y-74908394D01*
X77171111Y-75062361D01*
X77874972Y-74358500D01*
X79572028Y-74358500D01*
X80275889Y-75062361D01*
X80501145Y-74908394D01*
X80576265Y-74186260D01*
X80501145Y-73808606D01*
X80275889Y-73654639D01*
X79572028Y-74358500D01*
X77874972Y-74358500D01*
X77171111Y-73654639D01*
X76945855Y-73808606D01*
X76870735Y-74530740D01*
X75560744Y-74530740D01*
X75560744Y-73158500D01*
X75512237Y-72914637D01*
X75439723Y-72806111D01*
X78019639Y-72806111D01*
X78723500Y-73509972D01*
X79158357Y-73075115D01*
X96066502Y-73075115D01*
X96066502Y-73482885D01*
X96222549Y-73859616D01*
X96510886Y-74147953D01*
X96887617Y-74304000D01*
X97295387Y-74304000D01*
X97672118Y-74147953D01*
X97960455Y-73859616D01*
X98044001Y-73657918D01*
X98127547Y-73859616D01*
X98415884Y-74147953D01*
X98792615Y-74304000D01*
X99200385Y-74304000D01*
X99577116Y-74147953D01*
X99865453Y-73859616D01*
X100021500Y-73482885D01*
X100021500Y-73075115D01*
X99865453Y-72698384D01*
X99577116Y-72410047D01*
X99200385Y-72254000D01*
X98792615Y-72254000D01*
X98415884Y-72410047D01*
X98127547Y-72698384D01*
X98044001Y-72900082D01*
X97960455Y-72698384D01*
X97672118Y-72410047D01*
X97295387Y-72254000D01*
X96887617Y-72254000D01*
X96510886Y-72410047D01*
X96222549Y-72698384D01*
X96066502Y-73075115D01*
X79158357Y-73075115D01*
X79427361Y-72806111D01*
X79273394Y-72580855D01*
X78551260Y-72505735D01*
X78173606Y-72580855D01*
X78019639Y-72806111D01*
X75439723Y-72806111D01*
X75374100Y-72707900D01*
X75167363Y-72569763D01*
X74923500Y-72521256D01*
X72523500Y-72521256D01*
X72279637Y-72569763D01*
X72072900Y-72707900D01*
X71934763Y-72914637D01*
X71886256Y-73158500D01*
X71886256Y-73865687D01*
X71700616Y-73680047D01*
X71323885Y-73524000D01*
X70916115Y-73524000D01*
X70539384Y-73680047D01*
X70251047Y-73968384D01*
X70095000Y-74345115D01*
X53014404Y-74345115D01*
X52718385Y-74222500D01*
X52310615Y-74222500D01*
X51933884Y-74378547D01*
X51762795Y-74549636D01*
X51732453Y-74476384D01*
X51444116Y-74188047D01*
X51067385Y-74032000D01*
X50659615Y-74032000D01*
X50282884Y-74188047D01*
X49994547Y-74476384D01*
X49905553Y-74691236D01*
X49763953Y-74349384D01*
X49475616Y-74061047D01*
X49098885Y-73905000D01*
X48691115Y-73905000D01*
X48314384Y-74061047D01*
X48026047Y-74349384D01*
X47870000Y-74726115D01*
X47870000Y-75133885D01*
X48020625Y-75497526D01*
X47701885Y-75365500D01*
X47623069Y-75365500D01*
X47668453Y-75320116D01*
X47824500Y-74943385D01*
X47824500Y-74535615D01*
X47668453Y-74158884D01*
X47380116Y-73870547D01*
X47003385Y-73714500D01*
X46595615Y-73714500D01*
X46218884Y-73870547D01*
X45930547Y-74158884D01*
X45774500Y-74535615D01*
X45774500Y-74592856D01*
X45699953Y-74412884D01*
X45411616Y-74124547D01*
X45034885Y-73968500D01*
X44627115Y-73968500D01*
X44250384Y-74124547D01*
X43962047Y-74412884D01*
X43806000Y-74789615D01*
X43401290Y-74789615D01*
X43350453Y-74666884D01*
X43062116Y-74378547D01*
X42685385Y-74222500D01*
X42277615Y-74222500D01*
X41900884Y-74378547D01*
X41612547Y-74666884D01*
X41456500Y-75043615D01*
X41220500Y-75043615D01*
X41220500Y-74916615D01*
X41064453Y-74539884D01*
X40776116Y-74251547D01*
X40399385Y-74095500D01*
X39991615Y-74095500D01*
X39614884Y-74251547D01*
X39326547Y-74539884D01*
X39170500Y-74916615D01*
X34482000Y-74916615D01*
X34482000Y-73914427D01*
X37113812Y-73914427D01*
X37283308Y-74143324D01*
X38045710Y-74215525D01*
X38408692Y-74143324D01*
X38578188Y-73914427D01*
X37846000Y-73182239D01*
X37113812Y-73914427D01*
X34482000Y-73914427D01*
X34482000Y-72462710D01*
X35893475Y-72462710D01*
X35965676Y-72825692D01*
X36194573Y-72995188D01*
X36926761Y-72263000D01*
X38765239Y-72263000D01*
X39497427Y-72995188D01*
X39726324Y-72825692D01*
X39798525Y-72063290D01*
X39726324Y-71700308D01*
X39497427Y-71530812D01*
X38765239Y-72263000D01*
X36926761Y-72263000D01*
X36194573Y-71530812D01*
X35965676Y-71700308D01*
X35893475Y-72462710D01*
X34482000Y-72462710D01*
X34482000Y-70611573D01*
X37113812Y-70611573D01*
X37846000Y-71343761D01*
X38578188Y-70611573D01*
X38408692Y-70382676D01*
X37646290Y-70310475D01*
X37283308Y-70382676D01*
X37113812Y-70611573D01*
X34482000Y-70611573D01*
X34482000Y-69923000D01*
X54675500Y-69923000D01*
X54675500Y-72380500D01*
X54685015Y-72428336D01*
X54743594Y-72569757D01*
X54770691Y-72610310D01*
X54811243Y-72637406D01*
X54952664Y-72695985D01*
X55000500Y-72705500D01*
X69650000Y-72705500D01*
X69697836Y-72695985D01*
X69839257Y-72637406D01*
X69879810Y-72610309D01*
X69906906Y-72569757D01*
X69965485Y-72428336D01*
X69975000Y-72380500D01*
X69975000Y-69923000D01*
X69965485Y-69875164D01*
X69906906Y-69733743D01*
X69879809Y-69693190D01*
X69839257Y-69666094D01*
X69697836Y-69607515D01*
X69650000Y-69598000D01*
X55000500Y-69598000D01*
X54952664Y-69607515D01*
X54811243Y-69666094D01*
X54770690Y-69693191D01*
X54743594Y-69733743D01*
X54685015Y-69875164D01*
X54675500Y-69923000D01*
X34482000Y-69923000D01*
X34482000Y-68757115D01*
X92002500Y-68757115D01*
X92002500Y-69164885D01*
X92158547Y-69541616D01*
X92446884Y-69829953D01*
X92823615Y-69986000D01*
X93231385Y-69986000D01*
X93505421Y-69872490D01*
X93526384Y-69893453D01*
X93903115Y-70049500D01*
X94310885Y-70049500D01*
X94687616Y-69893453D01*
X94975953Y-69605116D01*
X95046349Y-69435166D01*
X95143047Y-69668616D01*
X95431384Y-69956953D01*
X95808115Y-70113000D01*
X96215885Y-70113000D01*
X96592616Y-69956953D01*
X96880953Y-69668616D01*
X96890273Y-69646115D01*
X98987500Y-69646115D01*
X98987500Y-70053885D01*
X99143547Y-70430616D01*
X99431884Y-70718953D01*
X99808615Y-70875000D01*
X100216385Y-70875000D01*
X100593116Y-70718953D01*
X100881453Y-70430616D01*
X101037500Y-70053885D01*
X101037500Y-69646115D01*
X100881453Y-69269384D01*
X100593116Y-68981047D01*
X100216385Y-68825000D01*
X99808615Y-68825000D01*
X99431884Y-68981047D01*
X99143547Y-69269384D01*
X98987500Y-69646115D01*
X96890273Y-69646115D01*
X97037000Y-69291885D01*
X97037000Y-68884115D01*
X96880953Y-68507384D01*
X96592616Y-68219047D01*
X96215885Y-68063000D01*
X95808115Y-68063000D01*
X95431384Y-68219047D01*
X95143047Y-68507384D01*
X95072651Y-68677334D01*
X94975953Y-68443884D01*
X94687616Y-68155547D01*
X94310885Y-67999500D01*
X93903115Y-67999500D01*
X93629079Y-68113010D01*
X93608116Y-68092047D01*
X93231385Y-67936000D01*
X92823615Y-67936000D01*
X92446884Y-68092047D01*
X92158547Y-68380384D01*
X92002500Y-68757115D01*
X34482000Y-68757115D01*
X34482000Y-64557420D01*
X35188000Y-64557420D01*
X35188000Y-65442580D01*
X35526736Y-66260361D01*
X36152639Y-66886264D01*
X36970420Y-67225000D01*
X37855580Y-67225000D01*
X38520529Y-66949569D01*
X99338950Y-66949569D01*
X99338950Y-67357339D01*
X99494997Y-67734070D01*
X99783334Y-68022407D01*
X100160065Y-68178454D01*
X100567835Y-68178454D01*
X100944566Y-68022407D01*
X101232903Y-67734070D01*
X101388950Y-67357339D01*
X101388950Y-66949569D01*
X101232903Y-66572838D01*
X100944566Y-66284501D01*
X100628580Y-66153615D01*
X102543500Y-66153615D01*
X102543500Y-66561385D01*
X102699547Y-66938116D01*
X102987884Y-67226453D01*
X103364615Y-67382500D01*
X103772385Y-67382500D01*
X104149116Y-67226453D01*
X104437453Y-66938116D01*
X104593500Y-66561385D01*
X104593500Y-66153615D01*
X104437453Y-65776884D01*
X104149116Y-65488547D01*
X103772385Y-65332500D01*
X103364615Y-65332500D01*
X102987884Y-65488547D01*
X102699547Y-65776884D01*
X102543500Y-66153615D01*
X100628580Y-66153615D01*
X100567835Y-66128454D01*
X100160065Y-66128454D01*
X99783334Y-66284501D01*
X99494997Y-66572838D01*
X99338950Y-66949569D01*
X38520529Y-66949569D01*
X38673361Y-66886264D01*
X39299264Y-66260361D01*
X39638000Y-65442580D01*
X39638000Y-64557420D01*
X39299264Y-63739639D01*
X38673361Y-63113736D01*
X37855580Y-62775000D01*
X36970420Y-62775000D01*
X36152639Y-63113736D01*
X35526736Y-63739639D01*
X35188000Y-64557420D01*
X34482000Y-64557420D01*
X34482000Y-63535948D01*
X35976949Y-62041000D01*
X77298108Y-62041000D01*
X77252756Y-62269000D01*
X77252756Y-62269000D01*
G37*
X77252756Y-62269000D02*
X77252756Y-63969000D01*
X77301263Y-64212863D01*
X77439400Y-64419600D01*
X77646137Y-64557737D01*
X77890000Y-64606244D01*
X79590000Y-64606244D01*
X79833863Y-64557737D01*
X80040600Y-64419600D01*
X80178737Y-64212863D01*
X80202562Y-64093085D01*
X80297726Y-64219390D01*
X80639277Y-64447571D01*
X80855000Y-64367390D01*
X80855000Y-63544000D01*
X80430000Y-63544000D01*
X80430000Y-62694000D01*
X80855000Y-62694000D01*
X80855000Y-62269000D01*
X81705000Y-62269000D01*
X81705000Y-62694000D01*
X82130000Y-62694000D01*
X82130000Y-63544000D01*
X81705000Y-63544000D01*
X81705000Y-64367390D01*
X81920723Y-64447571D01*
X82262274Y-64219390D01*
X82432091Y-63994002D01*
X82630691Y-63994002D01*
X82756585Y-64182415D01*
X83244484Y-64508419D01*
X83674730Y-64594000D01*
X83965270Y-64594000D01*
X84395516Y-64508419D01*
X84883415Y-64182415D01*
X85090000Y-63873239D01*
X85296585Y-64182415D01*
X85784484Y-64508419D01*
X86214730Y-64594000D01*
X86505270Y-64594000D01*
X86935516Y-64508419D01*
X87423415Y-64182415D01*
X87630000Y-63873239D01*
X87836585Y-64182415D01*
X88324484Y-64508419D01*
X88754730Y-64594000D01*
X89045270Y-64594000D01*
X89475516Y-64508419D01*
X89963415Y-64182415D01*
X90170000Y-63873239D01*
X90376585Y-64182415D01*
X90864484Y-64508419D01*
X91294730Y-64594000D01*
X91585270Y-64594000D01*
X92015516Y-64508419D01*
X92503415Y-64182415D01*
X92710000Y-63873239D01*
X92916585Y-64182415D01*
X93404484Y-64508419D01*
X93834730Y-64594000D01*
X94125270Y-64594000D01*
X94555516Y-64508419D01*
X95043415Y-64182415D01*
X95250000Y-63873239D01*
X95456585Y-64182415D01*
X95944484Y-64508419D01*
X96374730Y-64594000D01*
X96665270Y-64594000D01*
X97095516Y-64508419D01*
X97583415Y-64182415D01*
X97790000Y-63873239D01*
X97996585Y-64182415D01*
X98484484Y-64508419D01*
X98914730Y-64594000D01*
X99205270Y-64594000D01*
X99635516Y-64508419D01*
X100123415Y-64182415D01*
X100330000Y-63873239D01*
X100536585Y-64182415D01*
X101024484Y-64508419D01*
X101454730Y-64594000D01*
X101745270Y-64594000D01*
X101929170Y-64557420D01*
X105519500Y-64557420D01*
X105519500Y-65442580D01*
X105858236Y-66260361D01*
X106484139Y-66886264D01*
X107301920Y-67225000D01*
X108187080Y-67225000D01*
X109004861Y-66886264D01*
X109630764Y-66260361D01*
X109969500Y-65442580D01*
X109969500Y-64557420D01*
X109630764Y-63739639D01*
X109004861Y-63113736D01*
X108187080Y-62775000D01*
X107301920Y-62775000D01*
X106484139Y-63113736D01*
X105858236Y-63739639D01*
X105519500Y-64557420D01*
X101929170Y-64557420D01*
X102175516Y-64508419D01*
X102663415Y-64182415D01*
X102989419Y-63694516D01*
X103103896Y-63119000D01*
X102989419Y-62543484D01*
X102663415Y-62055585D01*
X102641587Y-62041000D01*
X109184052Y-62041000D01*
X110679000Y-63535949D01*
X110679000Y-69090000D01*
X104159343Y-69090000D01*
X104111508Y-69099515D01*
X103970086Y-69158094D01*
X103929533Y-69185191D01*
X103475191Y-69639533D01*
X103448094Y-69680086D01*
X103389515Y-69821508D01*
X103380000Y-69869343D01*
X103380000Y-91484157D01*
X103389515Y-91531992D01*
X103448094Y-91673414D01*
X103475191Y-91713967D01*
X103866033Y-92104809D01*
X103906586Y-92131906D01*
X104048008Y-92190485D01*
X104095843Y-92200000D01*
X110679001Y-92200000D01*
X110679001Y-116423050D01*
X109184052Y-117918000D01*
X102641587Y-117918000D01*
X102663415Y-117903415D01*
X102989419Y-117415516D01*
X103103896Y-116840000D01*
X102989419Y-116264484D01*
X102663415Y-115776585D01*
X102175516Y-115450581D01*
X101745270Y-115365000D01*
X101454730Y-115365000D01*
X101024484Y-115450581D01*
X100536585Y-115776585D01*
X100330000Y-116085761D01*
X100123415Y-115776585D01*
X99635516Y-115450581D01*
X99205270Y-115365000D01*
X98914730Y-115365000D01*
X98484484Y-115450581D01*
X97996585Y-115776585D01*
X97790000Y-116085761D01*
X97583415Y-115776585D01*
X97095516Y-115450581D01*
X96665270Y-115365000D01*
X96374730Y-115365000D01*
X95944484Y-115450581D01*
X95456585Y-115776585D01*
X95250000Y-116085761D01*
X95043415Y-115776585D01*
X94555516Y-115450581D01*
X94125270Y-115365000D01*
X93834730Y-115365000D01*
X93404484Y-115450581D01*
X92916585Y-115776585D01*
X92710000Y-116085761D01*
X92503415Y-115776585D01*
X92015516Y-115450581D01*
X91585270Y-115365000D01*
X91294730Y-115365000D01*
X90864484Y-115450581D01*
X90376585Y-115776585D01*
X90170000Y-116085761D01*
X89963415Y-115776585D01*
X89475516Y-115450581D01*
X89045270Y-115365000D01*
X88754730Y-115365000D01*
X88324484Y-115450581D01*
X87836585Y-115776585D01*
X87630000Y-116085761D01*
X87423415Y-115776585D01*
X86935516Y-115450581D01*
X86505270Y-115365000D01*
X86214730Y-115365000D01*
X85784484Y-115450581D01*
X85296585Y-115776585D01*
X85090000Y-116085761D01*
X84883415Y-115776585D01*
X84395516Y-115450581D01*
X83965270Y-115365000D01*
X83674730Y-115365000D01*
X83244484Y-115450581D01*
X82756585Y-115776585D01*
X82630691Y-115964998D01*
X82432091Y-115964998D01*
X82262274Y-115739610D01*
X81920723Y-115511429D01*
X81705000Y-115591610D01*
X81705000Y-116415000D01*
X82130000Y-116415000D01*
X82130000Y-117265000D01*
X81705000Y-117265000D01*
X81705000Y-117690000D01*
X80855000Y-117690000D01*
X80855000Y-117265000D01*
X80430000Y-117265000D01*
X80430000Y-116415000D01*
X80855000Y-116415000D01*
X80855000Y-115591610D01*
X80639277Y-115511429D01*
X80297726Y-115739610D01*
X80202562Y-115865915D01*
X80178737Y-115746137D01*
X80040600Y-115539400D01*
X79833863Y-115401263D01*
X79590000Y-115352756D01*
X77890000Y-115352756D01*
X77646137Y-115401263D01*
X77439400Y-115539400D01*
X77301263Y-115746137D01*
X77252756Y-115990000D01*
X77252756Y-117690000D01*
X77298108Y-117918000D01*
X35976949Y-117918000D01*
X34482000Y-116423052D01*
X34482000Y-114557420D01*
X35188000Y-114557420D01*
X35188000Y-115442580D01*
X35526736Y-116260361D01*
X36152639Y-116886264D01*
X36970420Y-117225000D01*
X37855580Y-117225000D01*
X38673361Y-116886264D01*
X39299264Y-116260361D01*
X39638000Y-115442580D01*
X39638000Y-114557420D01*
X39299264Y-113739639D01*
X39147740Y-113588115D01*
X95685502Y-113588115D01*
X95685502Y-113995885D01*
X95841549Y-114372616D01*
X96129886Y-114660953D01*
X96506617Y-114817000D01*
X96914387Y-114817000D01*
X97291118Y-114660953D01*
X97394651Y-114557420D01*
X105519500Y-114557420D01*
X105519500Y-115442580D01*
X105858236Y-116260361D01*
X106484139Y-116886264D01*
X107301920Y-117225000D01*
X108187080Y-117225000D01*
X109004861Y-116886264D01*
X109630764Y-116260361D01*
X109969500Y-115442580D01*
X109969500Y-114557420D01*
X109630764Y-113739639D01*
X109004861Y-113113736D01*
X108187080Y-112775000D01*
X107301920Y-112775000D01*
X106484139Y-113113736D01*
X105858236Y-113739639D01*
X105519500Y-114557420D01*
X97394651Y-114557420D01*
X97579455Y-114372616D01*
X97735502Y-113995885D01*
X97735502Y-113588115D01*
X97579455Y-113211384D01*
X97291118Y-112923047D01*
X96914387Y-112767000D01*
X96506617Y-112767000D01*
X96129886Y-112923047D01*
X95841549Y-113211384D01*
X95685502Y-113588115D01*
X39147740Y-113588115D01*
X38673361Y-113113736D01*
X37855580Y-112775000D01*
X36970420Y-112775000D01*
X36152639Y-113113736D01*
X35526736Y-113739639D01*
X35188000Y-114557420D01*
X34482000Y-114557420D01*
X34482000Y-109743000D01*
X42205256Y-109743000D01*
X42205256Y-111493000D01*
X42320369Y-112071711D01*
X42648182Y-112562318D01*
X43138789Y-112890131D01*
X43717500Y-113005244D01*
X45467500Y-113005244D01*
X46046211Y-112890131D01*
X46536818Y-112562318D01*
X46864631Y-112071711D01*
X46979744Y-111493000D01*
X46979744Y-110234000D01*
X69396000Y-110234000D01*
X69443836Y-110224485D01*
X69585257Y-110165906D01*
X69625810Y-110138809D01*
X69652906Y-110098257D01*
X69711485Y-109956836D01*
X69721000Y-109909000D01*
X69721000Y-107237500D01*
X70313064Y-107237500D01*
X73996341Y-110920777D01*
X74045160Y-110993840D01*
X74334592Y-111187232D01*
X74589821Y-111238000D01*
X74675999Y-111255142D01*
X74762177Y-111238000D01*
X77856483Y-111238000D01*
X78218615Y-111388000D01*
X78626385Y-111388000D01*
X79003116Y-111231953D01*
X79291453Y-110943616D01*
X79300773Y-110921115D01*
X84192000Y-110921115D01*
X84192000Y-111328885D01*
X84348047Y-111705616D01*
X84636384Y-111993953D01*
X85013115Y-112150000D01*
X85420885Y-112150000D01*
X85797616Y-111993953D01*
X86085953Y-111705616D01*
X86242000Y-111328885D01*
X86242000Y-110921115D01*
X89272000Y-110921115D01*
X89272000Y-111328885D01*
X89428047Y-111705616D01*
X89716384Y-111993953D01*
X90093115Y-112150000D01*
X90500885Y-112150000D01*
X90877616Y-111993953D01*
X91165953Y-111705616D01*
X91322000Y-111328885D01*
X91322000Y-110921115D01*
X91165953Y-110544384D01*
X90877616Y-110256047D01*
X90500885Y-110100000D01*
X90093115Y-110100000D01*
X89716384Y-110256047D01*
X89428047Y-110544384D01*
X89272000Y-110921115D01*
X86242000Y-110921115D01*
X86085953Y-110544384D01*
X85797616Y-110256047D01*
X85420885Y-110100000D01*
X85013115Y-110100000D01*
X84636384Y-110256047D01*
X84348047Y-110544384D01*
X84192000Y-110921115D01*
X79300773Y-110921115D01*
X79447500Y-110566885D01*
X79447500Y-110159115D01*
X79291453Y-109782384D01*
X79003116Y-109494047D01*
X78626385Y-109338000D01*
X78218615Y-109338000D01*
X77856483Y-109488000D01*
X75038436Y-109488000D01*
X72924680Y-107374244D01*
X74733000Y-107374244D01*
X74976863Y-107325737D01*
X75183600Y-107187600D01*
X75249222Y-107089389D01*
X77829139Y-107089389D01*
X77983106Y-107314645D01*
X78705240Y-107389765D01*
X79082894Y-107314645D01*
X79236861Y-107089389D01*
X78623587Y-106476115D01*
X83811000Y-106476115D01*
X83811000Y-106883885D01*
X83967047Y-107260616D01*
X84255384Y-107548953D01*
X84632115Y-107705000D01*
X85039885Y-107705000D01*
X85344000Y-107579032D01*
X85648115Y-107705000D01*
X86055885Y-107705000D01*
X86360000Y-107579032D01*
X86664115Y-107705000D01*
X87071885Y-107705000D01*
X87448616Y-107548953D01*
X87736953Y-107260616D01*
X87893000Y-106883885D01*
X87893000Y-106730115D01*
X92828000Y-106730115D01*
X92828000Y-107137885D01*
X92984047Y-107514616D01*
X93272384Y-107802953D01*
X93649115Y-107959000D01*
X94056885Y-107959000D01*
X94433616Y-107802953D01*
X94721953Y-107514616D01*
X94878000Y-107137885D01*
X94878000Y-106730115D01*
X94721953Y-106353384D01*
X94433616Y-106065047D01*
X94056885Y-105909000D01*
X93649115Y-105909000D01*
X93272384Y-106065047D01*
X92984047Y-106353384D01*
X92828000Y-106730115D01*
X87893000Y-106730115D01*
X87893000Y-106476115D01*
X87736953Y-106099384D01*
X87448616Y-105811047D01*
X87071885Y-105655000D01*
X86664115Y-105655000D01*
X86360000Y-105780968D01*
X86055885Y-105655000D01*
X85648115Y-105655000D01*
X85344000Y-105780968D01*
X85039885Y-105655000D01*
X84632115Y-105655000D01*
X84255384Y-105811047D01*
X83967047Y-106099384D01*
X83811000Y-106476115D01*
X78623587Y-106476115D01*
X78533000Y-106385528D01*
X77829139Y-107089389D01*
X75249222Y-107089389D01*
X75321737Y-106980863D01*
X75370244Y-106737000D01*
X75370244Y-105709240D01*
X76680235Y-105709240D01*
X76755355Y-106086894D01*
X76980611Y-106240861D01*
X77684472Y-105537000D01*
X79381528Y-105537000D01*
X80085389Y-106240861D01*
X80310645Y-106086894D01*
X80385765Y-105364760D01*
X80310645Y-104987106D01*
X80085389Y-104833139D01*
X79381528Y-105537000D01*
X77684472Y-105537000D01*
X76980611Y-104833139D01*
X76755355Y-104987106D01*
X76680235Y-105709240D01*
X75370244Y-105709240D01*
X75370244Y-104337000D01*
X75321737Y-104093137D01*
X75249223Y-103984611D01*
X77829139Y-103984611D01*
X78533000Y-104688472D01*
X79236861Y-103984611D01*
X79082894Y-103759355D01*
X78360760Y-103684235D01*
X77983106Y-103759355D01*
X77829139Y-103984611D01*
X75249223Y-103984611D01*
X75183600Y-103886400D01*
X74976863Y-103748263D01*
X74733000Y-103699756D01*
X72333000Y-103699756D01*
X72089137Y-103748263D01*
X71882400Y-103886400D01*
X71744263Y-104093137D01*
X71736170Y-104133823D01*
X71734953Y-104130884D01*
X71446616Y-103842547D01*
X71069885Y-103686500D01*
X70662115Y-103686500D01*
X70285384Y-103842547D01*
X69997047Y-104130884D01*
X69841000Y-104507615D01*
X69841000Y-104915385D01*
X69997047Y-105292116D01*
X70192431Y-105487500D01*
X58655437Y-105487500D01*
X55580052Y-102412115D01*
X68952000Y-102412115D01*
X68952000Y-102819885D01*
X69108047Y-103196616D01*
X69396384Y-103484953D01*
X69773115Y-103641000D01*
X70180885Y-103641000D01*
X70557616Y-103484953D01*
X70845953Y-103196616D01*
X71002000Y-102819885D01*
X71002000Y-102412115D01*
X70845953Y-102035384D01*
X70778184Y-101967615D01*
X72635000Y-101967615D01*
X72635000Y-102375385D01*
X72791047Y-102752116D01*
X73079384Y-103040453D01*
X73456115Y-103196500D01*
X73863885Y-103196500D01*
X74240616Y-103040453D01*
X74528953Y-102752116D01*
X74685000Y-102375385D01*
X74685000Y-102094615D01*
X103686500Y-102094615D01*
X103686500Y-102502385D01*
X103842547Y-102879116D01*
X104130884Y-103167453D01*
X104507615Y-103323500D01*
X104915385Y-103323500D01*
X105292116Y-103167453D01*
X105580453Y-102879116D01*
X105736500Y-102502385D01*
X105736500Y-102094615D01*
X105580453Y-101717884D01*
X105292116Y-101429547D01*
X104915385Y-101273500D01*
X104507615Y-101273500D01*
X104130884Y-101429547D01*
X103842547Y-101717884D01*
X103686500Y-102094615D01*
X74685000Y-102094615D01*
X74685000Y-101967615D01*
X74528953Y-101590884D01*
X74240616Y-101302547D01*
X73863885Y-101146500D01*
X73456115Y-101146500D01*
X73079384Y-101302547D01*
X72791047Y-101590884D01*
X72635000Y-101967615D01*
X70778184Y-101967615D01*
X70557616Y-101747047D01*
X70180885Y-101591000D01*
X69773115Y-101591000D01*
X69396384Y-101747047D01*
X69108047Y-102035384D01*
X68952000Y-102412115D01*
X55580052Y-102412115D01*
X54337159Y-101169223D01*
X54288340Y-101096160D01*
X53998908Y-100902768D01*
X53743679Y-100852000D01*
X53743678Y-100852000D01*
X53657500Y-100834858D01*
X53571322Y-100852000D01*
X50032041Y-100852000D01*
X49941790Y-100634115D01*
X64380000Y-100634115D01*
X64380000Y-101041885D01*
X64536047Y-101418616D01*
X64824384Y-101706953D01*
X65201115Y-101863000D01*
X65608885Y-101863000D01*
X65985616Y-101706953D01*
X66273953Y-101418616D01*
X66394087Y-101128587D01*
X66684116Y-101008453D01*
X66972453Y-100720116D01*
X67128500Y-100343385D01*
X67128500Y-100126115D01*
X67809000Y-100126115D01*
X67809000Y-100533885D01*
X67965047Y-100910616D01*
X68253384Y-101198953D01*
X68630115Y-101355000D01*
X69037885Y-101355000D01*
X69414616Y-101198953D01*
X69702953Y-100910616D01*
X69791180Y-100697615D01*
X70730000Y-100697615D01*
X70730000Y-101105385D01*
X70886047Y-101482116D01*
X71174384Y-101770453D01*
X71551115Y-101926500D01*
X71958885Y-101926500D01*
X72335616Y-101770453D01*
X72623953Y-101482116D01*
X72780000Y-101105385D01*
X72780000Y-100697615D01*
X72623953Y-100320884D01*
X72335616Y-100032547D01*
X71958885Y-99876500D01*
X71551115Y-99876500D01*
X71174384Y-100032547D01*
X70886047Y-100320884D01*
X70730000Y-100697615D01*
X69791180Y-100697615D01*
X69859000Y-100533885D01*
X69859000Y-100126115D01*
X69702953Y-99749384D01*
X69414616Y-99461047D01*
X69037885Y-99305000D01*
X68630115Y-99305000D01*
X68253384Y-99461047D01*
X67965047Y-99749384D01*
X67809000Y-100126115D01*
X67128500Y-100126115D01*
X67128500Y-99935615D01*
X66972453Y-99558884D01*
X66684116Y-99270547D01*
X66307385Y-99114500D01*
X65899615Y-99114500D01*
X65522884Y-99270547D01*
X65234547Y-99558884D01*
X65114413Y-99848913D01*
X64824384Y-99969047D01*
X64536047Y-100257384D01*
X64380000Y-100634115D01*
X49941790Y-100634115D01*
X49890953Y-100511384D01*
X49602616Y-100223047D01*
X49225885Y-100067000D01*
X48818115Y-100067000D01*
X48441384Y-100223047D01*
X48153047Y-100511384D01*
X48040295Y-100783590D01*
X47930120Y-100770236D01*
X47765385Y-100702000D01*
X47367176Y-100702000D01*
X46103930Y-100548880D01*
X45860385Y-100448000D01*
X45452615Y-100448000D01*
X45411652Y-100464967D01*
X45070107Y-100423568D01*
X45017860Y-100428326D01*
X44861154Y-100477184D01*
X44818319Y-100500506D01*
X44784370Y-100545222D01*
X44717010Y-100694910D01*
X44706000Y-100746206D01*
X44706000Y-101089256D01*
X44631500Y-101269115D01*
X44631500Y-101676885D01*
X44706000Y-101856744D01*
X44706000Y-103020559D01*
X44695000Y-103047115D01*
X44695000Y-103454885D01*
X44706000Y-103481441D01*
X44706000Y-108230756D01*
X43717500Y-108230756D01*
X43138789Y-108345869D01*
X42648182Y-108673682D01*
X42320369Y-109164289D01*
X42205256Y-109743000D01*
X34482000Y-109743000D01*
X34482000Y-106949250D01*
X39467500Y-106949250D01*
X39467500Y-107792320D01*
X39562651Y-108022034D01*
X39738466Y-108197850D01*
X39968180Y-108293000D01*
X40686250Y-108293000D01*
X40842500Y-108136750D01*
X40842500Y-106793000D01*
X42342500Y-106793000D01*
X42342500Y-108136750D01*
X42498750Y-108293000D01*
X43216820Y-108293000D01*
X43446534Y-108197850D01*
X43622349Y-108022034D01*
X43717500Y-107792320D01*
X43717500Y-106949250D01*
X43561250Y-106793000D01*
X42342500Y-106793000D01*
X40842500Y-106793000D01*
X39623750Y-106793000D01*
X39467500Y-106949250D01*
X34482000Y-106949250D01*
X34482000Y-104043680D01*
X39467500Y-104043680D01*
X39467500Y-104886750D01*
X39623750Y-105043000D01*
X40842500Y-105043000D01*
X40842500Y-103699250D01*
X42342500Y-103699250D01*
X42342500Y-105043000D01*
X43561250Y-105043000D01*
X43717500Y-104886750D01*
X43717500Y-104043680D01*
X43622349Y-103813966D01*
X43446534Y-103638150D01*
X43216820Y-103543000D01*
X42498750Y-103543000D01*
X42342500Y-103699250D01*
X40842500Y-103699250D01*
X40686250Y-103543000D01*
X39968180Y-103543000D01*
X39738466Y-103638150D01*
X39562651Y-103813966D01*
X39467500Y-104043680D01*
X34482000Y-104043680D01*
X34482000Y-101015115D01*
X42155000Y-101015115D01*
X42155000Y-101422885D01*
X42311047Y-101799616D01*
X42599384Y-102087953D01*
X42976115Y-102244000D01*
X43383885Y-102244000D01*
X43760616Y-102087953D01*
X44048953Y-101799616D01*
X44205000Y-101422885D01*
X44205000Y-101015115D01*
X44048953Y-100638384D01*
X43760616Y-100350047D01*
X43383885Y-100194000D01*
X42976115Y-100194000D01*
X42599384Y-100350047D01*
X42311047Y-100638384D01*
X42155000Y-101015115D01*
X34482000Y-101015115D01*
X34482000Y-95963000D01*
X35908756Y-95963000D01*
X35908756Y-98563000D01*
X35957263Y-98806863D01*
X36095400Y-99013600D01*
X36302137Y-99151737D01*
X36546000Y-99200244D01*
X39146000Y-99200244D01*
X39389863Y-99151737D01*
X39596600Y-99013600D01*
X39734737Y-98806863D01*
X39775463Y-98602115D01*
X69269500Y-98602115D01*
X69269500Y-99009885D01*
X69425547Y-99386616D01*
X69713884Y-99674953D01*
X70090615Y-99831000D01*
X70498385Y-99831000D01*
X70875116Y-99674953D01*
X71163453Y-99386616D01*
X71277983Y-99110115D01*
X72317500Y-99110115D01*
X72317500Y-99517885D01*
X72473547Y-99894616D01*
X72761884Y-100182953D01*
X73138615Y-100339000D01*
X73546385Y-100339000D01*
X73923116Y-100182953D01*
X74211453Y-99894616D01*
X74367500Y-99517885D01*
X74367500Y-99427615D01*
X103686500Y-99427615D01*
X103686500Y-99835385D01*
X103842547Y-100212116D01*
X104130884Y-100500453D01*
X104507615Y-100656500D01*
X104915385Y-100656500D01*
X105292116Y-100500453D01*
X105580453Y-100212116D01*
X105736500Y-99835385D01*
X105736500Y-99427615D01*
X105580453Y-99050884D01*
X105292116Y-98762547D01*
X104915385Y-98606500D01*
X104507615Y-98606500D01*
X104130884Y-98762547D01*
X103842547Y-99050884D01*
X103686500Y-99427615D01*
X74367500Y-99427615D01*
X74367500Y-99110115D01*
X74211453Y-98733384D01*
X73923116Y-98445047D01*
X73546385Y-98289000D01*
X73138615Y-98289000D01*
X72761884Y-98445047D01*
X72473547Y-98733384D01*
X72317500Y-99110115D01*
X71277983Y-99110115D01*
X71319500Y-99009885D01*
X71319500Y-98602115D01*
X71163453Y-98225384D01*
X70875116Y-97937047D01*
X70498385Y-97781000D01*
X70090615Y-97781000D01*
X69713884Y-97937047D01*
X69425547Y-98225384D01*
X69269500Y-98602115D01*
X39775463Y-98602115D01*
X39783244Y-98563000D01*
X39783244Y-97205115D01*
X70857000Y-97205115D01*
X70857000Y-97612885D01*
X71013047Y-97989616D01*
X71301384Y-98277953D01*
X71678115Y-98434000D01*
X72085885Y-98434000D01*
X72462616Y-98277953D01*
X72750953Y-97989616D01*
X72907000Y-97612885D01*
X72907000Y-97205115D01*
X72750953Y-96828384D01*
X72462616Y-96540047D01*
X72085885Y-96384000D01*
X71678115Y-96384000D01*
X71301384Y-96540047D01*
X71013047Y-96828384D01*
X70857000Y-97205115D01*
X39783244Y-97205115D01*
X39783244Y-96125615D01*
X88764000Y-96125615D01*
X88764000Y-96533385D01*
X88920047Y-96910116D01*
X89208384Y-97198453D01*
X89585115Y-97354500D01*
X89992885Y-97354500D01*
X90369616Y-97198453D01*
X90657953Y-96910116D01*
X90719878Y-96760615D01*
X103623000Y-96760615D01*
X103623000Y-97168385D01*
X103779047Y-97545116D01*
X104067384Y-97833453D01*
X104444115Y-97989500D01*
X104851885Y-97989500D01*
X105228616Y-97833453D01*
X105516953Y-97545116D01*
X105673000Y-97168385D01*
X105673000Y-96760615D01*
X105516953Y-96383884D01*
X105228616Y-96095547D01*
X104851885Y-95939500D01*
X104444115Y-95939500D01*
X104067384Y-96095547D01*
X103779047Y-96383884D01*
X103623000Y-96760615D01*
X90719878Y-96760615D01*
X90814000Y-96533385D01*
X90814000Y-96125615D01*
X90657953Y-95748884D01*
X90369616Y-95460547D01*
X89992885Y-95304500D01*
X89585115Y-95304500D01*
X89208384Y-95460547D01*
X88920047Y-95748884D01*
X88764000Y-96125615D01*
X39783244Y-96125615D01*
X39783244Y-95963000D01*
X39734737Y-95719137D01*
X39596600Y-95512400D01*
X39389863Y-95374263D01*
X39146000Y-95325756D01*
X36546000Y-95325756D01*
X36302137Y-95374263D01*
X36095400Y-95512400D01*
X35957263Y-95719137D01*
X35908756Y-95963000D01*
X34482000Y-95963000D01*
X34482000Y-94347615D01*
X54664500Y-94347615D01*
X54664500Y-94755385D01*
X54820547Y-95132116D01*
X55108884Y-95420453D01*
X55485615Y-95576500D01*
X55893385Y-95576500D01*
X56270116Y-95420453D01*
X56558453Y-95132116D01*
X56714500Y-94755385D01*
X56714500Y-94751000D01*
X56718885Y-94751000D01*
X57095616Y-94594953D01*
X57383953Y-94306616D01*
X57540000Y-93929885D01*
X57540000Y-93522115D01*
X57383953Y-93145384D01*
X57125684Y-92887115D01*
X60316000Y-92887115D01*
X60316000Y-93294885D01*
X60472047Y-93671616D01*
X60760384Y-93959953D01*
X60824000Y-93986304D01*
X60824000Y-94100696D01*
X60760384Y-94127047D01*
X60472047Y-94415384D01*
X60316000Y-94792115D01*
X60316000Y-95199885D01*
X60472047Y-95576616D01*
X60760384Y-95864953D01*
X61137115Y-96021000D01*
X61544885Y-96021000D01*
X61912500Y-95868729D01*
X62280115Y-96021000D01*
X62687885Y-96021000D01*
X63064616Y-95864953D01*
X63246000Y-95683569D01*
X63427384Y-95864953D01*
X63804115Y-96021000D01*
X64211885Y-96021000D01*
X64579500Y-95868729D01*
X64947115Y-96021000D01*
X65354885Y-96021000D01*
X65731616Y-95864953D01*
X66019953Y-95576616D01*
X66176000Y-95199885D01*
X66176000Y-94792115D01*
X66019953Y-94415384D01*
X65731616Y-94127047D01*
X65668000Y-94100696D01*
X65668000Y-93986304D01*
X65731616Y-93959953D01*
X66019953Y-93671616D01*
X66081878Y-93522115D01*
X68825000Y-93522115D01*
X68825000Y-93929885D01*
X68981047Y-94306616D01*
X69269384Y-94594953D01*
X69646115Y-94751000D01*
X70053885Y-94751000D01*
X70430616Y-94594953D01*
X70614454Y-94411115D01*
X90732500Y-94411115D01*
X90732500Y-94818885D01*
X90888547Y-95195616D01*
X91176884Y-95483953D01*
X91553615Y-95640000D01*
X91961385Y-95640000D01*
X92338116Y-95483953D01*
X92626453Y-95195616D01*
X92782500Y-94818885D01*
X92782500Y-94411115D01*
X92713661Y-94244922D01*
X93015625Y-94370000D01*
X93301499Y-94370000D01*
X93301547Y-94370116D01*
X93589884Y-94658453D01*
X93925569Y-94797498D01*
X94063547Y-95130606D01*
X94351884Y-95418943D01*
X94728615Y-95574990D01*
X95136385Y-95574990D01*
X95513116Y-95418943D01*
X95801453Y-95130606D01*
X95957500Y-94753875D01*
X95957500Y-94346105D01*
X95801453Y-93969374D01*
X95513116Y-93681037D01*
X95177431Y-93541992D01*
X95039453Y-93208884D01*
X94751116Y-92920547D01*
X94374385Y-92764500D01*
X94088511Y-92764500D01*
X94088463Y-92764384D01*
X94065354Y-92741275D01*
X96077247Y-92741275D01*
X96077247Y-93149045D01*
X96233294Y-93525776D01*
X96521631Y-93814113D01*
X96898362Y-93970160D01*
X97283089Y-93970160D01*
X97463382Y-94150453D01*
X97798315Y-94289187D01*
X97937047Y-94624116D01*
X98225384Y-94912453D01*
X98602115Y-95068500D01*
X99009885Y-95068500D01*
X99063927Y-95046115D01*
X99622500Y-95046115D01*
X99622500Y-95453885D01*
X99778547Y-95830616D01*
X100066884Y-96118953D01*
X100443615Y-96275000D01*
X100851385Y-96275000D01*
X101228116Y-96118953D01*
X101516453Y-95830616D01*
X101672500Y-95453885D01*
X101672500Y-95046115D01*
X101516453Y-94669384D01*
X101228116Y-94381047D01*
X100851385Y-94225000D01*
X100443615Y-94225000D01*
X100066884Y-94381047D01*
X99778547Y-94669384D01*
X99622500Y-95046115D01*
X99063927Y-95046115D01*
X99386616Y-94912453D01*
X99674953Y-94624116D01*
X99831000Y-94247385D01*
X99831000Y-93839615D01*
X99674953Y-93462884D01*
X99386616Y-93174547D01*
X99051683Y-93035813D01*
X98912951Y-92700884D01*
X98624614Y-92412547D01*
X98247883Y-92256500D01*
X97863156Y-92256500D01*
X97682863Y-92076207D01*
X97306132Y-91920160D01*
X96898362Y-91920160D01*
X96521631Y-92076207D01*
X96233294Y-92364544D01*
X96077247Y-92741275D01*
X94065354Y-92741275D01*
X93800126Y-92476047D01*
X93423395Y-92320000D01*
X93015625Y-92320000D01*
X92638894Y-92476047D01*
X92350557Y-92764384D01*
X92194510Y-93141115D01*
X92194510Y-93548885D01*
X92263349Y-93715078D01*
X91961385Y-93590000D01*
X91553615Y-93590000D01*
X91176884Y-93746047D01*
X90888547Y-94034384D01*
X90732500Y-94411115D01*
X70614454Y-94411115D01*
X70718953Y-94306616D01*
X70875000Y-93929885D01*
X70875000Y-93713457D01*
X71233615Y-93862000D01*
X71641385Y-93862000D01*
X72018116Y-93705953D01*
X72306453Y-93417616D01*
X72462500Y-93040885D01*
X72462500Y-92633115D01*
X72306453Y-92256384D01*
X72037069Y-91987000D01*
X77252756Y-91987000D01*
X77252756Y-93687000D01*
X77301263Y-93930863D01*
X77439400Y-94137600D01*
X77646137Y-94275737D01*
X77890000Y-94324244D01*
X79590000Y-94324244D01*
X79833863Y-94275737D01*
X80040600Y-94137600D01*
X80178737Y-93930863D01*
X80202562Y-93811085D01*
X80297726Y-93937390D01*
X80639277Y-94165571D01*
X80855000Y-94085390D01*
X80855000Y-93262000D01*
X81705000Y-93262000D01*
X81705000Y-94085390D01*
X81920723Y-94165571D01*
X82262274Y-93937390D01*
X82608604Y-93477728D01*
X82536229Y-93262000D01*
X81705000Y-93262000D01*
X80855000Y-93262000D01*
X80430000Y-93262000D01*
X80430000Y-92412000D01*
X80855000Y-92412000D01*
X80855000Y-91588610D01*
X81705000Y-91588610D01*
X81705000Y-92412000D01*
X82536229Y-92412000D01*
X82608604Y-92196272D01*
X82262274Y-91736610D01*
X81920723Y-91508429D01*
X81705000Y-91588610D01*
X80855000Y-91588610D01*
X80639277Y-91508429D01*
X80297726Y-91736610D01*
X80202562Y-91862915D01*
X80178737Y-91743137D01*
X80040600Y-91536400D01*
X79833863Y-91398263D01*
X79590000Y-91349756D01*
X77890000Y-91349756D01*
X77646137Y-91398263D01*
X77439400Y-91536400D01*
X77301263Y-91743137D01*
X77252756Y-91987000D01*
X72037069Y-91987000D01*
X72018116Y-91968047D01*
X71641385Y-91812000D01*
X71233615Y-91812000D01*
X70856884Y-91968047D01*
X70568547Y-92256384D01*
X70412500Y-92633115D01*
X70412500Y-92849543D01*
X70053885Y-92701000D01*
X69646115Y-92701000D01*
X69269384Y-92857047D01*
X68981047Y-93145384D01*
X68825000Y-93522115D01*
X66081878Y-93522115D01*
X66176000Y-93294885D01*
X66176000Y-92887115D01*
X66019953Y-92510384D01*
X65731616Y-92222047D01*
X65354885Y-92066000D01*
X64947115Y-92066000D01*
X64579500Y-92218271D01*
X64211885Y-92066000D01*
X63804115Y-92066000D01*
X63427384Y-92222047D01*
X63246000Y-92403431D01*
X63064616Y-92222047D01*
X62687885Y-92066000D01*
X62280115Y-92066000D01*
X61912500Y-92218271D01*
X61544885Y-92066000D01*
X61137115Y-92066000D01*
X60760384Y-92222047D01*
X60472047Y-92510384D01*
X60316000Y-92887115D01*
X57125684Y-92887115D01*
X57095616Y-92857047D01*
X56718885Y-92701000D01*
X56311115Y-92701000D01*
X55934384Y-92857047D01*
X55646047Y-93145384D01*
X55490000Y-93522115D01*
X55490000Y-93526500D01*
X55485615Y-93526500D01*
X55108884Y-93682547D01*
X54820547Y-93970884D01*
X54664500Y-94347615D01*
X34482000Y-94347615D01*
X34482000Y-91880094D01*
X35921000Y-91880094D01*
X35921000Y-92645906D01*
X36214064Y-93353425D01*
X36755575Y-93894936D01*
X37463094Y-94188000D01*
X38228906Y-94188000D01*
X38936425Y-93894936D01*
X39477936Y-93353425D01*
X39771000Y-92645906D01*
X39771000Y-91880094D01*
X39477936Y-91172575D01*
X38936425Y-90631064D01*
X38228906Y-90338000D01*
X37463094Y-90338000D01*
X36755575Y-90631064D01*
X36214064Y-91172575D01*
X35921000Y-91880094D01*
X34482000Y-91880094D01*
X34482000Y-89204115D01*
X78286500Y-89204115D01*
X78286500Y-89611885D01*
X78442547Y-89988616D01*
X78730884Y-90276953D01*
X79107615Y-90433000D01*
X79515385Y-90433000D01*
X79892116Y-90276953D01*
X80180453Y-89988616D01*
X80336500Y-89611885D01*
X80336500Y-89204115D01*
X80180453Y-88827384D01*
X79892116Y-88539047D01*
X79515385Y-88383000D01*
X79107615Y-88383000D01*
X78730884Y-88539047D01*
X78442547Y-88827384D01*
X78286500Y-89204115D01*
X34482000Y-89204115D01*
X34482000Y-86880094D01*
X35921000Y-86880094D01*
X35921000Y-87645906D01*
X36214064Y-88353425D01*
X36755575Y-88894936D01*
X37463094Y-89188000D01*
X38228906Y-89188000D01*
X38936425Y-88894936D01*
X39477936Y-88353425D01*
X39771000Y-87645906D01*
X39771000Y-86880094D01*
X39477936Y-86172575D01*
X39143976Y-85838615D01*
X54283500Y-85838615D01*
X54283500Y-86246385D01*
X54439547Y-86623116D01*
X54727884Y-86911453D01*
X55104615Y-87067500D01*
X55512385Y-87067500D01*
X55643407Y-87013229D01*
X55646048Y-87019606D01*
X55934385Y-87307943D01*
X56311116Y-87463990D01*
X56718886Y-87463990D01*
X57095617Y-87307943D01*
X57383954Y-87019606D01*
X57540001Y-86642875D01*
X57540001Y-86235105D01*
X57383954Y-85858374D01*
X57095617Y-85570037D01*
X56718886Y-85413990D01*
X56311116Y-85413990D01*
X56180094Y-85468261D01*
X56177453Y-85461884D01*
X55889116Y-85173547D01*
X55512385Y-85017500D01*
X55104615Y-85017500D01*
X54727884Y-85173547D01*
X54439547Y-85461884D01*
X54283500Y-85838615D01*
X39143976Y-85838615D01*
X38936425Y-85631064D01*
X38228906Y-85338000D01*
X37463094Y-85338000D01*
X36755575Y-85631064D01*
X36214064Y-86172575D01*
X35921000Y-86880094D01*
X34482000Y-86880094D01*
X34482000Y-84378115D01*
X60316000Y-84378115D01*
X60316000Y-84785885D01*
X60472047Y-85162616D01*
X60760384Y-85450953D01*
X60824000Y-85477304D01*
X60824000Y-85591696D01*
X60760384Y-85618047D01*
X60472047Y-85906384D01*
X60316000Y-86283115D01*
X60316000Y-86690885D01*
X60472047Y-87067616D01*
X60760384Y-87355953D01*
X61137115Y-87512000D01*
X61544885Y-87512000D01*
X61912500Y-87359729D01*
X62280115Y-87512000D01*
X62687885Y-87512000D01*
X63064616Y-87355953D01*
X63246000Y-87174569D01*
X63427384Y-87355953D01*
X63804115Y-87512000D01*
X64211885Y-87512000D01*
X64579500Y-87359729D01*
X64947115Y-87512000D01*
X65354885Y-87512000D01*
X65731616Y-87355953D01*
X66019953Y-87067616D01*
X66176000Y-86690885D01*
X66176000Y-86283115D01*
X66019953Y-85906384D01*
X65731616Y-85618047D01*
X65668000Y-85591696D01*
X65668000Y-85584615D01*
X68825000Y-85584615D01*
X68825000Y-85992385D01*
X68981047Y-86369116D01*
X69269384Y-86657453D01*
X69646115Y-86813500D01*
X70053885Y-86813500D01*
X70412500Y-86664957D01*
X70412500Y-86881385D01*
X70568547Y-87258116D01*
X70856884Y-87546453D01*
X71233615Y-87702500D01*
X71641385Y-87702500D01*
X72018116Y-87546453D01*
X72306453Y-87258116D01*
X72399809Y-87032733D01*
X80801418Y-87032733D01*
X80801418Y-87440503D01*
X80957465Y-87817234D01*
X81245802Y-88105571D01*
X81622533Y-88261618D01*
X82030303Y-88261618D01*
X82407034Y-88105571D01*
X82695371Y-87817234D01*
X82851418Y-87440503D01*
X82851418Y-87032733D01*
X82695371Y-86656002D01*
X82407034Y-86367665D01*
X82030303Y-86211618D01*
X81622533Y-86211618D01*
X81245802Y-86367665D01*
X80957465Y-86656002D01*
X80801418Y-87032733D01*
X72399809Y-87032733D01*
X72462500Y-86881385D01*
X72462500Y-86473615D01*
X72306453Y-86096884D01*
X72018116Y-85808547D01*
X71641385Y-85652500D01*
X71233615Y-85652500D01*
X70875000Y-85801043D01*
X70875000Y-85584615D01*
X70718953Y-85207884D01*
X70430616Y-84919547D01*
X70053885Y-84763500D01*
X69646115Y-84763500D01*
X69269384Y-84919547D01*
X68981047Y-85207884D01*
X68825000Y-85584615D01*
X65668000Y-85584615D01*
X65668000Y-85477304D01*
X65731616Y-85450953D01*
X66019953Y-85162616D01*
X66176000Y-84785885D01*
X66176000Y-84378115D01*
X66019953Y-84001384D01*
X65761684Y-83743115D01*
X89145000Y-83743115D01*
X89145000Y-84150885D01*
X89301047Y-84527616D01*
X89589384Y-84815953D01*
X89966115Y-84972000D01*
X90373885Y-84972000D01*
X90647921Y-84858490D01*
X90668884Y-84879453D01*
X90669000Y-84879501D01*
X90669000Y-85166885D01*
X90825047Y-85543616D01*
X91113384Y-85831953D01*
X91490115Y-85988000D01*
X91897885Y-85988000D01*
X92274616Y-85831953D01*
X92562953Y-85543616D01*
X92719000Y-85166885D01*
X92719000Y-84759115D01*
X92562953Y-84382384D01*
X92274616Y-84094047D01*
X92274500Y-84093999D01*
X92274500Y-83806615D01*
X92118453Y-83429884D01*
X91843490Y-83154921D01*
X91957000Y-82880885D01*
X91957000Y-82473115D01*
X91800953Y-82096384D01*
X91512616Y-81808047D01*
X91135885Y-81652000D01*
X90728115Y-81652000D01*
X90351384Y-81808047D01*
X90063047Y-82096384D01*
X89907000Y-82473115D01*
X89907000Y-82880885D01*
X89930194Y-82936879D01*
X89589384Y-83078047D01*
X89301047Y-83366384D01*
X89145000Y-83743115D01*
X65761684Y-83743115D01*
X65731616Y-83713047D01*
X65354885Y-83557000D01*
X64947115Y-83557000D01*
X64579500Y-83709271D01*
X64211885Y-83557000D01*
X63804115Y-83557000D01*
X63427384Y-83713047D01*
X63246000Y-83894431D01*
X63064616Y-83713047D01*
X62687885Y-83557000D01*
X62280115Y-83557000D01*
X61912500Y-83709271D01*
X61544885Y-83557000D01*
X61137115Y-83557000D01*
X60760384Y-83713047D01*
X60472047Y-84001384D01*
X60316000Y-84378115D01*
X34482000Y-84378115D01*
X34482000Y-81880094D01*
X35921000Y-81880094D01*
X35921000Y-82645906D01*
X36214064Y-83353425D01*
X36755575Y-83894936D01*
X37463094Y-84188000D01*
X38228906Y-84188000D01*
X38936425Y-83894936D01*
X39477936Y-83353425D01*
X39771000Y-82645906D01*
X39771000Y-82155615D01*
X71238000Y-82155615D01*
X71238000Y-82563385D01*
X71394047Y-82940116D01*
X71682384Y-83228453D01*
X72059115Y-83384500D01*
X72466885Y-83384500D01*
X72843616Y-83228453D01*
X73131953Y-82940116D01*
X73288000Y-82563385D01*
X73288000Y-82155615D01*
X73131953Y-81778884D01*
X72843616Y-81490547D01*
X72466885Y-81334500D01*
X72059115Y-81334500D01*
X71682384Y-81490547D01*
X71394047Y-81778884D01*
X71238000Y-82155615D01*
X39771000Y-82155615D01*
X39771000Y-81880094D01*
X39477936Y-81172575D01*
X38936425Y-80631064D01*
X38228906Y-80338000D01*
X37463094Y-80338000D01*
X36755575Y-80631064D01*
X36214064Y-81172575D01*
X35921000Y-81880094D01*
X34482000Y-81880094D01*
X34482000Y-76880094D01*
X35921000Y-76880094D01*
X35921000Y-77645906D01*
X36214064Y-78353425D01*
X36755575Y-78894936D01*
X37463094Y-79188000D01*
X38228906Y-79188000D01*
X38936425Y-78894936D01*
X39477936Y-78353425D01*
X39771000Y-77645906D01*
X39771000Y-76880094D01*
X39477936Y-76172575D01*
X38936425Y-75631064D01*
X38228906Y-75338000D01*
X37463094Y-75338000D01*
X36755575Y-75631064D01*
X36214064Y-76172575D01*
X35921000Y-76880094D01*
X34482000Y-76880094D01*
X34482000Y-74916615D01*
X39170500Y-74916615D01*
X39170500Y-75324385D01*
X39326547Y-75701116D01*
X39614884Y-75989453D01*
X39991615Y-76145500D01*
X40387931Y-76145500D01*
X40215547Y-76317884D01*
X40059500Y-76694615D01*
X40059500Y-77102385D01*
X40215547Y-77479116D01*
X40420642Y-77684211D01*
X40122884Y-77807547D01*
X39834547Y-78095884D01*
X39678500Y-78472615D01*
X39678500Y-78880385D01*
X39834547Y-79257116D01*
X40122884Y-79545453D01*
X40499615Y-79701500D01*
X40907385Y-79701500D01*
X41284116Y-79545453D01*
X41572453Y-79257116D01*
X41728500Y-78880385D01*
X41728500Y-78472615D01*
X41572453Y-78095884D01*
X41367358Y-77890789D01*
X41665116Y-77767453D01*
X41953453Y-77479116D01*
X42109500Y-77102385D01*
X42109500Y-76694615D01*
X41953453Y-76317884D01*
X41665116Y-76029547D01*
X41288385Y-75873500D01*
X40892069Y-75873500D01*
X41064453Y-75701116D01*
X41220500Y-75324385D01*
X41220500Y-75043615D01*
X41456500Y-75043615D01*
X41456500Y-75451385D01*
X41612547Y-75828116D01*
X41900884Y-76116453D01*
X42277615Y-76272500D01*
X42478635Y-76272500D01*
X42409000Y-76440615D01*
X42409000Y-76848385D01*
X42565047Y-77225116D01*
X42743840Y-77403909D01*
X42535884Y-77490047D01*
X42247547Y-77778384D01*
X42091500Y-78155115D01*
X42091500Y-78562885D01*
X42247547Y-78939616D01*
X42535884Y-79227953D01*
X42912615Y-79384000D01*
X43320385Y-79384000D01*
X43697116Y-79227953D01*
X43985453Y-78939616D01*
X44141500Y-78562885D01*
X44141500Y-78155115D01*
X43985453Y-77778384D01*
X43806660Y-77599591D01*
X44014616Y-77513453D01*
X44302953Y-77225116D01*
X44459000Y-76848385D01*
X44459000Y-76440615D01*
X44302953Y-76063884D01*
X44014616Y-75775547D01*
X43637885Y-75619500D01*
X43436865Y-75619500D01*
X43506500Y-75451385D01*
X43506500Y-75043615D01*
X43401290Y-74789615D01*
X43806000Y-74789615D01*
X43806000Y-75197385D01*
X43962047Y-75574116D01*
X44250384Y-75862453D01*
X44627115Y-76018500D01*
X44705931Y-76018500D01*
X44660547Y-76063884D01*
X44504500Y-76440615D01*
X44504500Y-76848385D01*
X44660547Y-77225116D01*
X44746681Y-77311250D01*
X44470047Y-77587884D01*
X44314000Y-77964615D01*
X44314000Y-78372385D01*
X44470047Y-78749116D01*
X44758384Y-79037453D01*
X45135115Y-79193500D01*
X45542885Y-79193500D01*
X45919616Y-79037453D01*
X46207953Y-78749116D01*
X46364000Y-78372385D01*
X46364000Y-77964615D01*
X46207953Y-77587884D01*
X46121819Y-77501750D01*
X46398453Y-77225116D01*
X46554500Y-76848385D01*
X46554500Y-76791144D01*
X46629047Y-76971116D01*
X46917384Y-77259453D01*
X47294115Y-77415500D01*
X47701885Y-77415500D01*
X48078616Y-77259453D01*
X48366953Y-76971116D01*
X48523000Y-76594385D01*
X48523000Y-76186615D01*
X48372375Y-75822974D01*
X48691115Y-75955000D01*
X48701635Y-75955000D01*
X48632000Y-76123115D01*
X48632000Y-76530885D01*
X48741144Y-76794382D01*
X48441384Y-76918547D01*
X48153047Y-77206884D01*
X47997000Y-77583615D01*
X47997000Y-77991385D01*
X48153047Y-78368116D01*
X48441384Y-78656453D01*
X48818115Y-78812500D01*
X49225885Y-78812500D01*
X49433229Y-78726615D01*
X64380000Y-78726615D01*
X64380000Y-79134385D01*
X64536047Y-79511116D01*
X64824384Y-79799453D01*
X65159314Y-79938186D01*
X65298047Y-80273116D01*
X65586384Y-80561453D01*
X65963115Y-80717500D01*
X66370885Y-80717500D01*
X66424927Y-80695115D01*
X69650500Y-80695115D01*
X69650500Y-81102885D01*
X69806547Y-81479616D01*
X70094884Y-81767953D01*
X70471615Y-81924000D01*
X70879385Y-81924000D01*
X71256116Y-81767953D01*
X71544453Y-81479616D01*
X71632680Y-81266615D01*
X86877240Y-81266615D01*
X86877240Y-81674385D01*
X87033287Y-82051116D01*
X87321624Y-82339453D01*
X87698355Y-82495500D01*
X88106125Y-82495500D01*
X88482856Y-82339453D01*
X88771193Y-82051116D01*
X88927240Y-81674385D01*
X88927240Y-81266615D01*
X88771193Y-80889884D01*
X88482856Y-80601547D01*
X88106125Y-80445500D01*
X87698355Y-80445500D01*
X87321624Y-80601547D01*
X87033287Y-80889884D01*
X86877240Y-81266615D01*
X71632680Y-81266615D01*
X71700500Y-81102885D01*
X71700500Y-80695115D01*
X71544453Y-80318384D01*
X71256116Y-80030047D01*
X70879385Y-79874000D01*
X70471615Y-79874000D01*
X70094884Y-80030047D01*
X69806547Y-80318384D01*
X69650500Y-80695115D01*
X66424927Y-80695115D01*
X66747616Y-80561453D01*
X67035953Y-80273116D01*
X67192000Y-79896385D01*
X67192000Y-79488615D01*
X67035953Y-79111884D01*
X66968184Y-79044115D01*
X67809000Y-79044115D01*
X67809000Y-79451885D01*
X67965047Y-79828616D01*
X68253384Y-80116953D01*
X68630115Y-80273000D01*
X69037885Y-80273000D01*
X69414616Y-80116953D01*
X69702953Y-79828616D01*
X69859000Y-79451885D01*
X69859000Y-79044115D01*
X69702953Y-78667384D01*
X69508184Y-78472615D01*
X70793500Y-78472615D01*
X70793500Y-78880385D01*
X70949547Y-79257116D01*
X71237884Y-79545453D01*
X71614615Y-79701500D01*
X72022385Y-79701500D01*
X72076427Y-79679115D01*
X72952500Y-79679115D01*
X72952500Y-80086885D01*
X73108547Y-80463616D01*
X73396884Y-80751953D01*
X73773615Y-80908000D01*
X74181385Y-80908000D01*
X74558116Y-80751953D01*
X74846453Y-80463616D01*
X75002500Y-80086885D01*
X75002500Y-79679115D01*
X74897290Y-79425115D01*
X85906498Y-79425115D01*
X85906498Y-79832885D01*
X86062545Y-80209616D01*
X86350882Y-80497953D01*
X86727613Y-80654000D01*
X87135383Y-80654000D01*
X87512114Y-80497953D01*
X87800451Y-80209616D01*
X87836073Y-80123615D01*
X88700500Y-80123615D01*
X88700500Y-80531385D01*
X88856547Y-80908116D01*
X89144884Y-81196453D01*
X89521615Y-81352500D01*
X89929385Y-81352500D01*
X90306116Y-81196453D01*
X90594453Y-80908116D01*
X90750500Y-80531385D01*
X90750500Y-80123615D01*
X90613458Y-79792766D01*
X90750616Y-79735953D01*
X91038953Y-79447616D01*
X91177686Y-79112686D01*
X91512616Y-78973953D01*
X91660136Y-78826433D01*
X91933105Y-78939500D01*
X92340875Y-78939500D01*
X92717606Y-78783453D01*
X93005943Y-78495116D01*
X93161990Y-78118385D01*
X93161990Y-77710615D01*
X93005943Y-77333884D01*
X92717606Y-77045547D01*
X92340875Y-76889500D01*
X91933105Y-76889500D01*
X91556374Y-77045547D01*
X91408854Y-77193067D01*
X91135885Y-77080000D01*
X90728115Y-77080000D01*
X90351384Y-77236047D01*
X90063047Y-77524384D01*
X89924314Y-77859314D01*
X89589384Y-77998047D01*
X89301047Y-78286384D01*
X89145000Y-78663115D01*
X89145000Y-79070885D01*
X89282042Y-79401734D01*
X89144884Y-79458547D01*
X88856547Y-79746884D01*
X88700500Y-80123615D01*
X87836073Y-80123615D01*
X87956498Y-79832885D01*
X87956498Y-79425115D01*
X87800451Y-79048384D01*
X87512114Y-78760047D01*
X87135383Y-78604000D01*
X86727613Y-78604000D01*
X86350882Y-78760047D01*
X86062545Y-79048384D01*
X85906498Y-79425115D01*
X74897290Y-79425115D01*
X74846453Y-79302384D01*
X74558116Y-79014047D01*
X74181385Y-78858000D01*
X73773615Y-78858000D01*
X73396884Y-79014047D01*
X73108547Y-79302384D01*
X72952500Y-79679115D01*
X72076427Y-79679115D01*
X72399116Y-79545453D01*
X72687453Y-79257116D01*
X72843500Y-78880385D01*
X72843500Y-78472615D01*
X72687453Y-78095884D01*
X72399116Y-77807547D01*
X72022385Y-77651500D01*
X71614615Y-77651500D01*
X71237884Y-77807547D01*
X70949547Y-78095884D01*
X70793500Y-78472615D01*
X69508184Y-78472615D01*
X69414616Y-78379047D01*
X69037885Y-78223000D01*
X68630115Y-78223000D01*
X68253384Y-78379047D01*
X67965047Y-78667384D01*
X67809000Y-79044115D01*
X66968184Y-79044115D01*
X66747616Y-78823547D01*
X66412686Y-78684814D01*
X66273953Y-78349884D01*
X65985616Y-78061547D01*
X65608885Y-77905500D01*
X65201115Y-77905500D01*
X64824384Y-78061547D01*
X64536047Y-78349884D01*
X64380000Y-78726615D01*
X49433229Y-78726615D01*
X49602616Y-78656453D01*
X49890953Y-78368116D01*
X50047000Y-77991385D01*
X50047000Y-77583615D01*
X49937856Y-77320118D01*
X50237616Y-77195953D01*
X50525953Y-76907616D01*
X50543744Y-76864666D01*
X50693047Y-77225116D01*
X50981384Y-77513453D01*
X51358115Y-77669500D01*
X51765885Y-77669500D01*
X52142616Y-77513453D01*
X52430953Y-77225116D01*
X52587000Y-76848385D01*
X52587000Y-76440615D01*
X52517365Y-76272500D01*
X52718385Y-76272500D01*
X53024036Y-76145895D01*
X52852047Y-76317884D01*
X52696000Y-76694615D01*
X52696000Y-77102385D01*
X52852047Y-77479116D01*
X53140384Y-77767453D01*
X53517115Y-77923500D01*
X53924885Y-77923500D01*
X54301616Y-77767453D01*
X54589953Y-77479116D01*
X54746000Y-77102385D01*
X54746000Y-76694615D01*
X54719698Y-76631115D01*
X69333000Y-76631115D01*
X69333000Y-77038885D01*
X69489047Y-77415616D01*
X69777384Y-77703953D01*
X70154115Y-77860000D01*
X70561885Y-77860000D01*
X70938616Y-77703953D01*
X71226953Y-77415616D01*
X71341483Y-77139115D01*
X72762000Y-77139115D01*
X72762000Y-77546885D01*
X72918047Y-77923616D01*
X73206384Y-78211953D01*
X73583115Y-78368000D01*
X73990885Y-78368000D01*
X74367616Y-78211953D01*
X74655953Y-77923616D01*
X74812000Y-77546885D01*
X74812000Y-77139115D01*
X74655953Y-76762384D01*
X74367616Y-76474047D01*
X73990885Y-76318000D01*
X73583115Y-76318000D01*
X73206384Y-76474047D01*
X72918047Y-76762384D01*
X72762000Y-77139115D01*
X71341483Y-77139115D01*
X71383000Y-77038885D01*
X71383000Y-76631115D01*
X71226953Y-76254384D01*
X70938616Y-75966047D01*
X70561885Y-75810000D01*
X70154115Y-75810000D01*
X69777384Y-75966047D01*
X69489047Y-76254384D01*
X69333000Y-76631115D01*
X54719698Y-76631115D01*
X54589953Y-76317884D01*
X54301616Y-76029547D01*
X53924885Y-75873500D01*
X53517115Y-75873500D01*
X53211464Y-76000105D01*
X53383453Y-75828116D01*
X53539500Y-75451385D01*
X53539500Y-75043615D01*
X53383453Y-74666884D01*
X53095116Y-74378547D01*
X53014404Y-74345115D01*
X70095000Y-74345115D01*
X70095000Y-74752885D01*
X70251047Y-75129616D01*
X70539384Y-75417953D01*
X70916115Y-75574000D01*
X71323885Y-75574000D01*
X71700616Y-75417953D01*
X71886256Y-75232313D01*
X71886256Y-75558500D01*
X71934763Y-75802363D01*
X72072900Y-76009100D01*
X72279637Y-76147237D01*
X72523500Y-76195744D01*
X74923500Y-76195744D01*
X75167363Y-76147237D01*
X75374100Y-76009100D01*
X75439722Y-75910889D01*
X78019639Y-75910889D01*
X78173606Y-76136145D01*
X78895740Y-76211265D01*
X79273394Y-76136145D01*
X79427361Y-75910889D01*
X78723500Y-75207028D01*
X78019639Y-75910889D01*
X75439722Y-75910889D01*
X75512237Y-75802363D01*
X75560744Y-75558500D01*
X75560744Y-74530740D01*
X76870735Y-74530740D01*
X76945855Y-74908394D01*
X77171111Y-75062361D01*
X77874972Y-74358500D01*
X79572028Y-74358500D01*
X80275889Y-75062361D01*
X80501145Y-74908394D01*
X80576265Y-74186260D01*
X80501145Y-73808606D01*
X80275889Y-73654639D01*
X79572028Y-74358500D01*
X77874972Y-74358500D01*
X77171111Y-73654639D01*
X76945855Y-73808606D01*
X76870735Y-74530740D01*
X75560744Y-74530740D01*
X75560744Y-73158500D01*
X75512237Y-72914637D01*
X75439723Y-72806111D01*
X78019639Y-72806111D01*
X78723500Y-73509972D01*
X79158357Y-73075115D01*
X96066502Y-73075115D01*
X96066502Y-73482885D01*
X96222549Y-73859616D01*
X96510886Y-74147953D01*
X96887617Y-74304000D01*
X97295387Y-74304000D01*
X97672118Y-74147953D01*
X97960455Y-73859616D01*
X98044001Y-73657918D01*
X98127547Y-73859616D01*
X98415884Y-74147953D01*
X98792615Y-74304000D01*
X99200385Y-74304000D01*
X99577116Y-74147953D01*
X99865453Y-73859616D01*
X100021500Y-73482885D01*
X100021500Y-73075115D01*
X99865453Y-72698384D01*
X99577116Y-72410047D01*
X99200385Y-72254000D01*
X98792615Y-72254000D01*
X98415884Y-72410047D01*
X98127547Y-72698384D01*
X98044001Y-72900082D01*
X97960455Y-72698384D01*
X97672118Y-72410047D01*
X97295387Y-72254000D01*
X96887617Y-72254000D01*
X96510886Y-72410047D01*
X96222549Y-72698384D01*
X96066502Y-73075115D01*
X79158357Y-73075115D01*
X79427361Y-72806111D01*
X79273394Y-72580855D01*
X78551260Y-72505735D01*
X78173606Y-72580855D01*
X78019639Y-72806111D01*
X75439723Y-72806111D01*
X75374100Y-72707900D01*
X75167363Y-72569763D01*
X74923500Y-72521256D01*
X72523500Y-72521256D01*
X72279637Y-72569763D01*
X72072900Y-72707900D01*
X71934763Y-72914637D01*
X71886256Y-73158500D01*
X71886256Y-73865687D01*
X71700616Y-73680047D01*
X71323885Y-73524000D01*
X70916115Y-73524000D01*
X70539384Y-73680047D01*
X70251047Y-73968384D01*
X70095000Y-74345115D01*
X53014404Y-74345115D01*
X52718385Y-74222500D01*
X52310615Y-74222500D01*
X51933884Y-74378547D01*
X51762795Y-74549636D01*
X51732453Y-74476384D01*
X51444116Y-74188047D01*
X51067385Y-74032000D01*
X50659615Y-74032000D01*
X50282884Y-74188047D01*
X49994547Y-74476384D01*
X49905553Y-74691236D01*
X49763953Y-74349384D01*
X49475616Y-74061047D01*
X49098885Y-73905000D01*
X48691115Y-73905000D01*
X48314384Y-74061047D01*
X48026047Y-74349384D01*
X47870000Y-74726115D01*
X47870000Y-75133885D01*
X48020625Y-75497526D01*
X47701885Y-75365500D01*
X47623069Y-75365500D01*
X47668453Y-75320116D01*
X47824500Y-74943385D01*
X47824500Y-74535615D01*
X47668453Y-74158884D01*
X47380116Y-73870547D01*
X47003385Y-73714500D01*
X46595615Y-73714500D01*
X46218884Y-73870547D01*
X45930547Y-74158884D01*
X45774500Y-74535615D01*
X45774500Y-74592856D01*
X45699953Y-74412884D01*
X45411616Y-74124547D01*
X45034885Y-73968500D01*
X44627115Y-73968500D01*
X44250384Y-74124547D01*
X43962047Y-74412884D01*
X43806000Y-74789615D01*
X43401290Y-74789615D01*
X43350453Y-74666884D01*
X43062116Y-74378547D01*
X42685385Y-74222500D01*
X42277615Y-74222500D01*
X41900884Y-74378547D01*
X41612547Y-74666884D01*
X41456500Y-75043615D01*
X41220500Y-75043615D01*
X41220500Y-74916615D01*
X41064453Y-74539884D01*
X40776116Y-74251547D01*
X40399385Y-74095500D01*
X39991615Y-74095500D01*
X39614884Y-74251547D01*
X39326547Y-74539884D01*
X39170500Y-74916615D01*
X34482000Y-74916615D01*
X34482000Y-73914427D01*
X37113812Y-73914427D01*
X37283308Y-74143324D01*
X38045710Y-74215525D01*
X38408692Y-74143324D01*
X38578188Y-73914427D01*
X37846000Y-73182239D01*
X37113812Y-73914427D01*
X34482000Y-73914427D01*
X34482000Y-72462710D01*
X35893475Y-72462710D01*
X35965676Y-72825692D01*
X36194573Y-72995188D01*
X36926761Y-72263000D01*
X38765239Y-72263000D01*
X39497427Y-72995188D01*
X39726324Y-72825692D01*
X39798525Y-72063290D01*
X39726324Y-71700308D01*
X39497427Y-71530812D01*
X38765239Y-72263000D01*
X36926761Y-72263000D01*
X36194573Y-71530812D01*
X35965676Y-71700308D01*
X35893475Y-72462710D01*
X34482000Y-72462710D01*
X34482000Y-70611573D01*
X37113812Y-70611573D01*
X37846000Y-71343761D01*
X38578188Y-70611573D01*
X38408692Y-70382676D01*
X37646290Y-70310475D01*
X37283308Y-70382676D01*
X37113812Y-70611573D01*
X34482000Y-70611573D01*
X34482000Y-69923000D01*
X54675500Y-69923000D01*
X54675500Y-72380500D01*
X54685015Y-72428336D01*
X54743594Y-72569757D01*
X54770691Y-72610310D01*
X54811243Y-72637406D01*
X54952664Y-72695985D01*
X55000500Y-72705500D01*
X69650000Y-72705500D01*
X69697836Y-72695985D01*
X69839257Y-72637406D01*
X69879810Y-72610309D01*
X69906906Y-72569757D01*
X69965485Y-72428336D01*
X69975000Y-72380500D01*
X69975000Y-69923000D01*
X69965485Y-69875164D01*
X69906906Y-69733743D01*
X69879809Y-69693190D01*
X69839257Y-69666094D01*
X69697836Y-69607515D01*
X69650000Y-69598000D01*
X55000500Y-69598000D01*
X54952664Y-69607515D01*
X54811243Y-69666094D01*
X54770690Y-69693191D01*
X54743594Y-69733743D01*
X54685015Y-69875164D01*
X54675500Y-69923000D01*
X34482000Y-69923000D01*
X34482000Y-68757115D01*
X92002500Y-68757115D01*
X92002500Y-69164885D01*
X92158547Y-69541616D01*
X92446884Y-69829953D01*
X92823615Y-69986000D01*
X93231385Y-69986000D01*
X93505421Y-69872490D01*
X93526384Y-69893453D01*
X93903115Y-70049500D01*
X94310885Y-70049500D01*
X94687616Y-69893453D01*
X94975953Y-69605116D01*
X95046349Y-69435166D01*
X95143047Y-69668616D01*
X95431384Y-69956953D01*
X95808115Y-70113000D01*
X96215885Y-70113000D01*
X96592616Y-69956953D01*
X96880953Y-69668616D01*
X96890273Y-69646115D01*
X98987500Y-69646115D01*
X98987500Y-70053885D01*
X99143547Y-70430616D01*
X99431884Y-70718953D01*
X99808615Y-70875000D01*
X100216385Y-70875000D01*
X100593116Y-70718953D01*
X100881453Y-70430616D01*
X101037500Y-70053885D01*
X101037500Y-69646115D01*
X100881453Y-69269384D01*
X100593116Y-68981047D01*
X100216385Y-68825000D01*
X99808615Y-68825000D01*
X99431884Y-68981047D01*
X99143547Y-69269384D01*
X98987500Y-69646115D01*
X96890273Y-69646115D01*
X97037000Y-69291885D01*
X97037000Y-68884115D01*
X96880953Y-68507384D01*
X96592616Y-68219047D01*
X96215885Y-68063000D01*
X95808115Y-68063000D01*
X95431384Y-68219047D01*
X95143047Y-68507384D01*
X95072651Y-68677334D01*
X94975953Y-68443884D01*
X94687616Y-68155547D01*
X94310885Y-67999500D01*
X93903115Y-67999500D01*
X93629079Y-68113010D01*
X93608116Y-68092047D01*
X93231385Y-67936000D01*
X92823615Y-67936000D01*
X92446884Y-68092047D01*
X92158547Y-68380384D01*
X92002500Y-68757115D01*
X34482000Y-68757115D01*
X34482000Y-64557420D01*
X35188000Y-64557420D01*
X35188000Y-65442580D01*
X35526736Y-66260361D01*
X36152639Y-66886264D01*
X36970420Y-67225000D01*
X37855580Y-67225000D01*
X38520529Y-66949569D01*
X99338950Y-66949569D01*
X99338950Y-67357339D01*
X99494997Y-67734070D01*
X99783334Y-68022407D01*
X100160065Y-68178454D01*
X100567835Y-68178454D01*
X100944566Y-68022407D01*
X101232903Y-67734070D01*
X101388950Y-67357339D01*
X101388950Y-66949569D01*
X101232903Y-66572838D01*
X100944566Y-66284501D01*
X100628580Y-66153615D01*
X102543500Y-66153615D01*
X102543500Y-66561385D01*
X102699547Y-66938116D01*
X102987884Y-67226453D01*
X103364615Y-67382500D01*
X103772385Y-67382500D01*
X104149116Y-67226453D01*
X104437453Y-66938116D01*
X104593500Y-66561385D01*
X104593500Y-66153615D01*
X104437453Y-65776884D01*
X104149116Y-65488547D01*
X103772385Y-65332500D01*
X103364615Y-65332500D01*
X102987884Y-65488547D01*
X102699547Y-65776884D01*
X102543500Y-66153615D01*
X100628580Y-66153615D01*
X100567835Y-66128454D01*
X100160065Y-66128454D01*
X99783334Y-66284501D01*
X99494997Y-66572838D01*
X99338950Y-66949569D01*
X38520529Y-66949569D01*
X38673361Y-66886264D01*
X39299264Y-66260361D01*
X39638000Y-65442580D01*
X39638000Y-64557420D01*
X39299264Y-63739639D01*
X38673361Y-63113736D01*
X37855580Y-62775000D01*
X36970420Y-62775000D01*
X36152639Y-63113736D01*
X35526736Y-63739639D01*
X35188000Y-64557420D01*
X34482000Y-64557420D01*
X34482000Y-63535948D01*
X35976949Y-62041000D01*
X77298108Y-62041000D01*
X77252756Y-62269000D01*
G04 #@! TD*
M02*
