G04 #@! TF.GenerationSoftware,KiCad,Pcbnew,5.0.2-bee76a0~70~ubuntu16.04.1*
G04 #@! TF.CreationDate,2019-03-19T22:13:39-07:00*
G04 #@! TF.ProjectId,wifistepper,77696669-7374-4657-9070-65722e6b6963,rev?*
G04 #@! TF.SameCoordinates,Original*
G04 #@! TF.FileFunction,Copper,L4,Bot*
G04 #@! TF.FilePolarity,Positive*
%FSLAX46Y46*%
G04 Gerber Fmt 4.6, Leading zero omitted, Abs format (unit mm)*
G04 Created by KiCad (PCBNEW 5.0.2-bee76a0~70~ubuntu16.04.1) date Tue 19 Mar 2019 10:13:39 PM PDT*
%MOMM*%
%LPD*%
G01*
G04 APERTURE LIST*
G04 #@! TA.AperFunction,SMDPad,CuDef*
%ADD10C,1.000000*%
G04 #@! TD*
G04 #@! TA.AperFunction,Conductor*
%ADD11C,0.100000*%
G04 #@! TD*
G04 #@! TA.AperFunction,ComponentPad*
%ADD12R,3.500000X3.500000*%
G04 #@! TD*
G04 #@! TA.AperFunction,ComponentPad*
%ADD13C,3.000000*%
G04 #@! TD*
G04 #@! TA.AperFunction,ComponentPad*
%ADD14C,3.500000*%
G04 #@! TD*
G04 #@! TA.AperFunction,ComponentPad*
%ADD15R,2.600000X2.600000*%
G04 #@! TD*
G04 #@! TA.AperFunction,ComponentPad*
%ADD16C,2.600000*%
G04 #@! TD*
G04 #@! TA.AperFunction,ComponentPad*
%ADD17R,1.700000X1.700000*%
G04 #@! TD*
G04 #@! TA.AperFunction,ComponentPad*
%ADD18O,1.700000X1.700000*%
G04 #@! TD*
G04 #@! TA.AperFunction,ComponentPad*
%ADD19C,2.400000*%
G04 #@! TD*
G04 #@! TA.AperFunction,ComponentPad*
%ADD20R,2.400000X2.400000*%
G04 #@! TD*
G04 #@! TA.AperFunction,ViaPad*
%ADD21C,0.800000*%
G04 #@! TD*
G04 #@! TA.AperFunction,Conductor*
%ADD22C,0.400000*%
G04 #@! TD*
G04 #@! TA.AperFunction,Conductor*
%ADD23C,0.200000*%
G04 #@! TD*
G04 #@! TA.AperFunction,Conductor*
%ADD24C,0.250000*%
G04 #@! TD*
G04 APERTURE END LIST*
D10*
G04 #@! TO.P,JP1,2*
G04 #@! TO.N,GND*
X63373000Y-68042000D03*
D11*
G04 #@! TD*
G04 #@! TO.N,GND*
G04 #@! TO.C,JP1*
G36*
X55373602Y-68042000D02*
X55373602Y-68017466D01*
X55378412Y-67968635D01*
X55387984Y-67920510D01*
X55402228Y-67873555D01*
X55421005Y-67828222D01*
X55444136Y-67784949D01*
X55471396Y-67744150D01*
X55502524Y-67706221D01*
X55537221Y-67671524D01*
X55575150Y-67640396D01*
X55615949Y-67613136D01*
X55659222Y-67590005D01*
X55704555Y-67571228D01*
X55751510Y-67556984D01*
X55799635Y-67547412D01*
X55848466Y-67542602D01*
X55873000Y-67542602D01*
X55873000Y-67542000D01*
X70873000Y-67542000D01*
X70873000Y-67542602D01*
X70897534Y-67542602D01*
X70946365Y-67547412D01*
X70994490Y-67556984D01*
X71041445Y-67571228D01*
X71086778Y-67590005D01*
X71130051Y-67613136D01*
X71170850Y-67640396D01*
X71208779Y-67671524D01*
X71243476Y-67706221D01*
X71274604Y-67744150D01*
X71301864Y-67784949D01*
X71324995Y-67828222D01*
X71343772Y-67873555D01*
X71358016Y-67920510D01*
X71367588Y-67968635D01*
X71372398Y-68017466D01*
X71372398Y-68042000D01*
X71373000Y-68042000D01*
X71373000Y-68542000D01*
X55373000Y-68542000D01*
X55373000Y-68042000D01*
X55373602Y-68042000D01*
X55373602Y-68042000D01*
G37*
D10*
G04 #@! TO.P,JP1,1*
G04 #@! TO.N,Net-(JP1-Pad1)*
X63373000Y-69342000D03*
D11*
G04 #@! TD*
G04 #@! TO.N,Net-(JP1-Pad1)*
G04 #@! TO.C,JP1*
G36*
X71373000Y-68842000D02*
X71373000Y-69342000D01*
X71372398Y-69342000D01*
X71372398Y-69366534D01*
X71367588Y-69415365D01*
X71358016Y-69463490D01*
X71343772Y-69510445D01*
X71324995Y-69555778D01*
X71301864Y-69599051D01*
X71274604Y-69639850D01*
X71243476Y-69677779D01*
X71208779Y-69712476D01*
X71170850Y-69743604D01*
X71130051Y-69770864D01*
X71086778Y-69793995D01*
X71041445Y-69812772D01*
X70994490Y-69827016D01*
X70946365Y-69836588D01*
X70897534Y-69841398D01*
X70873000Y-69841398D01*
X70873000Y-69842000D01*
X55873000Y-69842000D01*
X55873000Y-69841398D01*
X55848466Y-69841398D01*
X55799635Y-69836588D01*
X55751510Y-69827016D01*
X55704555Y-69812772D01*
X55659222Y-69793995D01*
X55615949Y-69770864D01*
X55575150Y-69743604D01*
X55537221Y-69712476D01*
X55502524Y-69677779D01*
X55471396Y-69639850D01*
X55444136Y-69599051D01*
X55421005Y-69555778D01*
X55402228Y-69510445D01*
X55387984Y-69463490D01*
X55378412Y-69415365D01*
X55373602Y-69366534D01*
X55373602Y-69342000D01*
X55373000Y-69342000D01*
X55373000Y-68842000D01*
X71373000Y-68842000D01*
X71373000Y-68842000D01*
G37*
D10*
G04 #@! TO.P,JP2,2*
G04 #@! TO.N,GND*
X63119000Y-111521000D03*
D11*
G04 #@! TD*
G04 #@! TO.N,GND*
G04 #@! TO.C,JP2*
G36*
X71118398Y-111521000D02*
X71118398Y-111545534D01*
X71113588Y-111594365D01*
X71104016Y-111642490D01*
X71089772Y-111689445D01*
X71070995Y-111734778D01*
X71047864Y-111778051D01*
X71020604Y-111818850D01*
X70989476Y-111856779D01*
X70954779Y-111891476D01*
X70916850Y-111922604D01*
X70876051Y-111949864D01*
X70832778Y-111972995D01*
X70787445Y-111991772D01*
X70740490Y-112006016D01*
X70692365Y-112015588D01*
X70643534Y-112020398D01*
X70619000Y-112020398D01*
X70619000Y-112021000D01*
X55619000Y-112021000D01*
X55619000Y-112020398D01*
X55594466Y-112020398D01*
X55545635Y-112015588D01*
X55497510Y-112006016D01*
X55450555Y-111991772D01*
X55405222Y-111972995D01*
X55361949Y-111949864D01*
X55321150Y-111922604D01*
X55283221Y-111891476D01*
X55248524Y-111856779D01*
X55217396Y-111818850D01*
X55190136Y-111778051D01*
X55167005Y-111734778D01*
X55148228Y-111689445D01*
X55133984Y-111642490D01*
X55124412Y-111594365D01*
X55119602Y-111545534D01*
X55119602Y-111521000D01*
X55119000Y-111521000D01*
X55119000Y-111021000D01*
X71119000Y-111021000D01*
X71119000Y-111521000D01*
X71118398Y-111521000D01*
X71118398Y-111521000D01*
G37*
D10*
G04 #@! TO.P,JP2,1*
G04 #@! TO.N,Net-(JP2-Pad1)*
X63119000Y-110221000D03*
D11*
G04 #@! TD*
G04 #@! TO.N,Net-(JP2-Pad1)*
G04 #@! TO.C,JP2*
G36*
X55119000Y-110721000D02*
X55119000Y-110221000D01*
X55119602Y-110221000D01*
X55119602Y-110196466D01*
X55124412Y-110147635D01*
X55133984Y-110099510D01*
X55148228Y-110052555D01*
X55167005Y-110007222D01*
X55190136Y-109963949D01*
X55217396Y-109923150D01*
X55248524Y-109885221D01*
X55283221Y-109850524D01*
X55321150Y-109819396D01*
X55361949Y-109792136D01*
X55405222Y-109769005D01*
X55450555Y-109750228D01*
X55497510Y-109735984D01*
X55545635Y-109726412D01*
X55594466Y-109721602D01*
X55619000Y-109721602D01*
X55619000Y-109721000D01*
X70619000Y-109721000D01*
X70619000Y-109721602D01*
X70643534Y-109721602D01*
X70692365Y-109726412D01*
X70740490Y-109735984D01*
X70787445Y-109750228D01*
X70832778Y-109769005D01*
X70876051Y-109792136D01*
X70916850Y-109819396D01*
X70954779Y-109850524D01*
X70989476Y-109885221D01*
X71020604Y-109923150D01*
X71047864Y-109963949D01*
X71070995Y-110007222D01*
X71089772Y-110052555D01*
X71104016Y-110099510D01*
X71113588Y-110147635D01*
X71118398Y-110196466D01*
X71118398Y-110221000D01*
X71119000Y-110221000D01*
X71119000Y-110721000D01*
X55119000Y-110721000D01*
X55119000Y-110721000D01*
G37*
D12*
G04 #@! TO.P,J1,1*
G04 #@! TO.N,VIN*
X47592500Y-105918000D03*
D11*
G04 #@! TD*
G04 #@! TO.N,GND*
G04 #@! TO.C,J1*
G36*
X42416013Y-104171611D02*
X42488818Y-104182411D01*
X42560214Y-104200295D01*
X42629513Y-104225090D01*
X42696048Y-104256559D01*
X42759178Y-104294398D01*
X42818295Y-104338242D01*
X42872830Y-104387670D01*
X42922258Y-104442205D01*
X42966102Y-104501322D01*
X43003941Y-104564452D01*
X43035410Y-104630987D01*
X43060205Y-104700286D01*
X43078089Y-104771682D01*
X43088889Y-104844487D01*
X43092500Y-104918000D01*
X43092500Y-106918000D01*
X43088889Y-106991513D01*
X43078089Y-107064318D01*
X43060205Y-107135714D01*
X43035410Y-107205013D01*
X43003941Y-107271548D01*
X42966102Y-107334678D01*
X42922258Y-107393795D01*
X42872830Y-107448330D01*
X42818295Y-107497758D01*
X42759178Y-107541602D01*
X42696048Y-107579441D01*
X42629513Y-107610910D01*
X42560214Y-107635705D01*
X42488818Y-107653589D01*
X42416013Y-107664389D01*
X42342500Y-107668000D01*
X40842500Y-107668000D01*
X40768987Y-107664389D01*
X40696182Y-107653589D01*
X40624786Y-107635705D01*
X40555487Y-107610910D01*
X40488952Y-107579441D01*
X40425822Y-107541602D01*
X40366705Y-107497758D01*
X40312170Y-107448330D01*
X40262742Y-107393795D01*
X40218898Y-107334678D01*
X40181059Y-107271548D01*
X40149590Y-107205013D01*
X40124795Y-107135714D01*
X40106911Y-107064318D01*
X40096111Y-106991513D01*
X40092500Y-106918000D01*
X40092500Y-104918000D01*
X40096111Y-104844487D01*
X40106911Y-104771682D01*
X40124795Y-104700286D01*
X40149590Y-104630987D01*
X40181059Y-104564452D01*
X40218898Y-104501322D01*
X40262742Y-104442205D01*
X40312170Y-104387670D01*
X40366705Y-104338242D01*
X40425822Y-104294398D01*
X40488952Y-104256559D01*
X40555487Y-104225090D01*
X40624786Y-104200295D01*
X40696182Y-104182411D01*
X40768987Y-104171611D01*
X40842500Y-104168000D01*
X42342500Y-104168000D01*
X42416013Y-104171611D01*
X42416013Y-104171611D01*
G37*
D13*
G04 #@! TO.P,J1,2*
G04 #@! TO.N,GND*
X41592500Y-105918000D03*
D11*
G04 #@! TD*
G04 #@! TO.N,N/C*
G04 #@! TO.C,J1*
G36*
X45553265Y-108872213D02*
X45638204Y-108884813D01*
X45721499Y-108905677D01*
X45802348Y-108934605D01*
X45879972Y-108971319D01*
X45953624Y-109015464D01*
X46022594Y-109066616D01*
X46086218Y-109124282D01*
X46143884Y-109187906D01*
X46195036Y-109256876D01*
X46239181Y-109330528D01*
X46275895Y-109408152D01*
X46304823Y-109489001D01*
X46325687Y-109572296D01*
X46338287Y-109657235D01*
X46342500Y-109743000D01*
X46342500Y-111493000D01*
X46338287Y-111578765D01*
X46325687Y-111663704D01*
X46304823Y-111746999D01*
X46275895Y-111827848D01*
X46239181Y-111905472D01*
X46195036Y-111979124D01*
X46143884Y-112048094D01*
X46086218Y-112111718D01*
X46022594Y-112169384D01*
X45953624Y-112220536D01*
X45879972Y-112264681D01*
X45802348Y-112301395D01*
X45721499Y-112330323D01*
X45638204Y-112351187D01*
X45553265Y-112363787D01*
X45467500Y-112368000D01*
X43717500Y-112368000D01*
X43631735Y-112363787D01*
X43546796Y-112351187D01*
X43463501Y-112330323D01*
X43382652Y-112301395D01*
X43305028Y-112264681D01*
X43231376Y-112220536D01*
X43162406Y-112169384D01*
X43098782Y-112111718D01*
X43041116Y-112048094D01*
X42989964Y-111979124D01*
X42945819Y-111905472D01*
X42909105Y-111827848D01*
X42880177Y-111746999D01*
X42859313Y-111663704D01*
X42846713Y-111578765D01*
X42842500Y-111493000D01*
X42842500Y-109743000D01*
X42846713Y-109657235D01*
X42859313Y-109572296D01*
X42880177Y-109489001D01*
X42909105Y-109408152D01*
X42945819Y-109330528D01*
X42989964Y-109256876D01*
X43041116Y-109187906D01*
X43098782Y-109124282D01*
X43162406Y-109066616D01*
X43231376Y-109015464D01*
X43305028Y-108971319D01*
X43382652Y-108934605D01*
X43463501Y-108905677D01*
X43546796Y-108884813D01*
X43631735Y-108872213D01*
X43717500Y-108868000D01*
X45467500Y-108868000D01*
X45553265Y-108872213D01*
X45553265Y-108872213D01*
G37*
D14*
G04 #@! TO.P,J1,3*
G04 #@! TO.N,N/C*
X44592500Y-110618000D03*
G04 #@! TD*
D15*
G04 #@! TO.P,J2,1*
G04 #@! TO.N,OUTB2*
X37846000Y-97263000D03*
D16*
G04 #@! TO.P,J2,2*
G04 #@! TO.N,OUTB1*
X37846000Y-92263000D03*
G04 #@! TO.P,J2,3*
G04 #@! TO.N,OUTA1*
X37846000Y-87263000D03*
G04 #@! TO.P,J2,4*
G04 #@! TO.N,OUTA2*
X37846000Y-82263000D03*
G04 #@! TO.P,J2,5*
G04 #@! TO.N,VIN*
X37846000Y-77263000D03*
G04 #@! TO.P,J2,6*
G04 #@! TO.N,GND*
X37846000Y-72263000D03*
G04 #@! TD*
D17*
G04 #@! TO.P,J5,1*
G04 #@! TO.N,VIN*
X78740000Y-92837000D03*
D18*
G04 #@! TO.P,J5,2*
G04 #@! TO.N,GND*
X81280000Y-92837000D03*
G04 #@! TD*
D17*
G04 #@! TO.P,J4,1*
G04 #@! TO.N,+3V3*
X78740000Y-116840000D03*
D18*
G04 #@! TO.P,J4,2*
G04 #@! TO.N,GND*
X81280000Y-116840000D03*
G04 #@! TO.P,J4,3*
G04 #@! TO.N,Net-(J4-Pad3)*
X83820000Y-116840000D03*
G04 #@! TO.P,J4,4*
G04 #@! TO.N,Net-(J4-Pad4)*
X86360000Y-116840000D03*
G04 #@! TO.P,J4,5*
G04 #@! TO.N,Net-(J4-Pad5)*
X88900000Y-116840000D03*
G04 #@! TO.P,J4,6*
G04 #@! TO.N,Net-(J4-Pad6)*
X91440000Y-116840000D03*
G04 #@! TO.P,J4,7*
G04 #@! TO.N,Net-(J4-Pad7)*
X93980000Y-116840000D03*
G04 #@! TO.P,J4,8*
G04 #@! TO.N,Net-(J4-Pad8)*
X96520000Y-116840000D03*
G04 #@! TO.P,J4,9*
G04 #@! TO.N,Net-(J4-Pad9)*
X99060000Y-116840000D03*
G04 #@! TO.P,J4,10*
G04 #@! TO.N,Net-(J4-Pad10)*
X101600000Y-116840000D03*
G04 #@! TD*
D19*
G04 #@! TO.P,C10,2*
G04 #@! TO.N,GND*
X78533000Y-105537000D03*
D20*
G04 #@! TO.P,C10,1*
G04 #@! TO.N,VIN*
X73533000Y-105537000D03*
G04 #@! TD*
G04 #@! TO.P,C11,1*
G04 #@! TO.N,VIN*
X73723500Y-74358500D03*
D19*
G04 #@! TO.P,C11,2*
G04 #@! TO.N,GND*
X78723500Y-74358500D03*
G04 #@! TD*
D17*
G04 #@! TO.P,J3,1*
G04 #@! TO.N,+3V3*
X78740000Y-63119000D03*
D18*
G04 #@! TO.P,J3,2*
G04 #@! TO.N,GND*
X81280000Y-63119000D03*
G04 #@! TO.P,J3,3*
G04 #@! TO.N,Net-(J3-Pad3)*
X83820000Y-63119000D03*
G04 #@! TO.P,J3,4*
G04 #@! TO.N,Net-(J3-Pad4)*
X86360000Y-63119000D03*
G04 #@! TO.P,J3,5*
G04 #@! TO.N,Net-(J3-Pad5)*
X88900000Y-63119000D03*
G04 #@! TO.P,J3,6*
G04 #@! TO.N,Net-(J3-Pad6)*
X91440000Y-63119000D03*
G04 #@! TO.P,J3,7*
G04 #@! TO.N,Net-(J3-Pad7)*
X93980000Y-63119000D03*
G04 #@! TO.P,J3,8*
G04 #@! TO.N,Net-(J3-Pad8)*
X96520000Y-63119000D03*
G04 #@! TO.P,J3,9*
G04 #@! TO.N,Net-(J3-Pad9)*
X99060000Y-63119000D03*
G04 #@! TO.P,J3,10*
G04 #@! TO.N,Net-(J3-Pad10)*
X101600000Y-63119000D03*
G04 #@! TD*
D21*
G04 #@! TO.N,+3V3*
X84836000Y-106680000D03*
X85852000Y-106680000D03*
X86868000Y-106680000D03*
X104648000Y-96964500D03*
X104711500Y-99631500D03*
X104711500Y-102298500D03*
X85217000Y-111125000D03*
X89789000Y-96329500D03*
X93853000Y-106934000D03*
X81826418Y-87236618D03*
X90297000Y-111125000D03*
X79311500Y-89408000D03*
X78422500Y-110363000D03*
X96012000Y-69088000D03*
X103568500Y-66357500D03*
X49022000Y-101092000D03*
G04 #@! TO.N,GND*
X100393500Y-68326000D03*
X65405000Y-91249500D03*
X99187000Y-81788000D03*
X97536000Y-81788000D03*
X97536000Y-83439000D03*
X97536000Y-80137000D03*
X95885000Y-81851500D03*
X99187000Y-83439000D03*
X99187000Y-80137000D03*
X95885000Y-80137000D03*
X95885000Y-83439000D03*
X61976000Y-90678000D03*
X64389000Y-90678000D03*
X64389000Y-89027000D03*
X61976000Y-89027000D03*
X63246000Y-89789000D03*
X65405000Y-89789000D03*
X60960000Y-89789000D03*
X63246000Y-91313000D03*
X63246000Y-88201500D03*
X60960000Y-91313000D03*
X65405000Y-88201500D03*
X60960000Y-88201500D03*
X87947500Y-97129600D03*
X70358000Y-86677500D03*
X70358000Y-92837000D03*
X87376000Y-104394000D03*
X87947500Y-99123500D03*
X87947500Y-101346000D03*
X85534500Y-95377000D03*
X81534000Y-106362500D03*
X44704000Y-64516000D03*
X52832000Y-64516000D03*
X55626000Y-64516000D03*
X50165000Y-64516000D03*
X63754000Y-64516000D03*
X58293000Y-64516000D03*
X41910000Y-64516000D03*
X66548000Y-64516000D03*
X72009000Y-64516000D03*
X47371000Y-64516000D03*
X61087000Y-64516000D03*
X74676000Y-64516000D03*
X69215000Y-64516000D03*
X54229000Y-66167000D03*
X62484000Y-66167000D03*
X70612000Y-66167000D03*
X40640000Y-66167000D03*
X46101000Y-66167000D03*
X43307000Y-66167000D03*
X59690000Y-66167000D03*
X65151000Y-66167000D03*
X73406000Y-66167000D03*
X67945000Y-66167000D03*
X48768000Y-66167000D03*
X57023000Y-66167000D03*
X51562000Y-66167000D03*
X61722000Y-113792000D03*
X72644000Y-113792000D03*
X69977000Y-113792000D03*
X45339000Y-113792000D03*
X48133000Y-113792000D03*
X67183000Y-113792000D03*
X42672000Y-113792000D03*
X50800000Y-113792000D03*
X56261000Y-113792000D03*
X53594000Y-113792000D03*
X64516000Y-113792000D03*
X59055000Y-113792000D03*
X68580000Y-115443000D03*
X63119000Y-115443000D03*
X71247000Y-115443000D03*
X49403000Y-115443000D03*
X65786000Y-115443000D03*
X60325000Y-115443000D03*
X54864000Y-115443000D03*
X57658000Y-115443000D03*
X46736000Y-115443000D03*
X41275000Y-115443000D03*
X43942000Y-115443000D03*
X52197000Y-115443000D03*
X74930000Y-113665000D03*
X73914000Y-115443000D03*
X75501500Y-111823500D03*
X73088500Y-111950500D03*
X35433000Y-101219000D03*
X35433000Y-104013000D03*
X35433000Y-106934000D03*
X35433000Y-110109000D03*
X37147500Y-108458000D03*
X37020500Y-105473500D03*
X37084000Y-102552500D03*
X37465000Y-111506000D03*
X39052500Y-110172500D03*
X40894000Y-111887000D03*
X35433000Y-112395000D03*
X47815500Y-111760000D03*
X41910000Y-67818000D03*
X44704000Y-67818000D03*
X38989000Y-67945000D03*
X47498000Y-67945000D03*
X44767500Y-71120000D03*
X43053000Y-69786500D03*
X42037000Y-71628000D03*
X35306000Y-67818000D03*
X74676000Y-67691000D03*
X72771000Y-68580000D03*
X75882500Y-66103500D03*
X102870000Y-91503500D03*
X104965500Y-95059500D03*
X90106500Y-106934000D03*
X92075000Y-73152000D03*
X94297500Y-98615500D03*
X96900998Y-101409500D03*
X96583500Y-91313000D03*
X104457500Y-62674500D03*
X109982000Y-68072000D03*
X105473500Y-68008500D03*
X104330500Y-116903500D03*
X104394000Y-111125000D03*
X110045500Y-112014000D03*
X86931500Y-87947500D03*
X84772500Y-89916000D03*
X88709500Y-91122500D03*
X85280500Y-91567000D03*
X86931500Y-89852500D03*
X86931500Y-92519500D03*
X88900000Y-88963500D03*
X88836500Y-86169500D03*
X85534500Y-93853000D03*
X83629500Y-92900500D03*
X81280000Y-95377000D03*
X78613000Y-95313500D03*
X81089500Y-71183500D03*
X81534000Y-68643500D03*
X81978500Y-74612500D03*
X81915000Y-77343000D03*
X82232500Y-80137000D03*
X110109000Y-93281500D03*
X110109000Y-103441500D03*
X101092000Y-110998000D03*
X101155500Y-114363500D03*
X106489500Y-109728000D03*
X110172500Y-98107500D03*
X110172500Y-95758000D03*
X110172500Y-101028500D03*
X110045500Y-106489500D03*
X110045500Y-109029500D03*
X107696000Y-111252000D03*
X81724500Y-109156500D03*
X80899000Y-114554000D03*
X82359500Y-112966500D03*
X85090000Y-112839500D03*
X83883500Y-114681000D03*
X81534000Y-65976500D03*
X84836000Y-79946500D03*
X82232500Y-82613500D03*
X77978000Y-89027000D03*
X38989000Y-101155500D03*
X41402000Y-102933500D03*
X39751000Y-102679500D03*
X49911000Y-111760000D03*
X80899000Y-111442500D03*
X74612500Y-70104000D03*
X72707500Y-71310500D03*
X74676000Y-108331000D03*
X75692000Y-109156500D03*
X78676500Y-113220500D03*
X78613000Y-69977000D03*
X78613000Y-67056000D03*
X75819000Y-68834000D03*
X43561000Y-72580500D03*
X40767000Y-73025000D03*
X40322500Y-69786500D03*
X38608000Y-106934000D03*
X38608000Y-104140000D03*
X35242500Y-73025000D03*
X35242500Y-70358000D03*
X46101000Y-69596000D03*
X46418500Y-89789000D03*
X104203500Y-113347500D03*
X102425500Y-112458500D03*
X96075500Y-67500500D03*
X88328500Y-76263500D03*
X83375500Y-67310000D03*
X55054500Y-90551000D03*
X87249000Y-95313500D03*
X40132000Y-108648500D03*
X37211000Y-69024500D03*
G04 #@! TO.N,VIN*
X49911000Y-103124000D03*
X52133500Y-104394000D03*
X68834000Y-100330000D03*
X69977000Y-102616000D03*
X73342500Y-99314000D03*
X71755000Y-100901500D03*
X73660000Y-102171500D03*
X73977500Y-79883000D03*
X70675500Y-80899000D03*
X70358000Y-76835000D03*
X68834000Y-79248000D03*
X70866000Y-104711500D03*
X71120000Y-74549000D03*
X46799500Y-74739500D03*
X42481500Y-75247500D03*
X40195500Y-75120500D03*
X40703500Y-78676500D03*
X43116500Y-78359000D03*
X41084500Y-76898500D03*
X52514500Y-75247500D03*
X44831000Y-74993500D03*
X47498000Y-76390500D03*
X51562000Y-76644500D03*
X50863500Y-75057000D03*
X71818500Y-78676500D03*
X73787000Y-77343000D03*
X72263000Y-82359500D03*
X71882000Y-97409000D03*
X70294500Y-98806000D03*
X43180000Y-101219000D03*
X45656500Y-101473000D03*
X47561500Y-101727000D03*
X45720000Y-103251000D03*
X48006000Y-103060500D03*
X47434500Y-108712000D03*
X48895000Y-74930000D03*
X51879500Y-106045000D03*
X51625500Y-103060500D03*
X50546000Y-104838500D03*
X49593500Y-108712000D03*
X50673000Y-107188000D03*
X51943000Y-108267500D03*
X53403500Y-103060500D03*
X43434000Y-76644500D03*
X45529500Y-76644500D03*
X45339000Y-78168500D03*
X49657000Y-76327000D03*
X49022000Y-77787500D03*
X53721000Y-76898500D03*
G04 #@! TO.N,SM_RST*
X90170000Y-78867000D03*
X86931498Y-79629000D03*
G04 #@! TO.N,Net-(D5-Pad1)*
X100647500Y-95250000D03*
X91757500Y-94615000D03*
G04 #@! TO.N,OUTA1*
X61849000Y-85471000D03*
X62484000Y-86487000D03*
X61341000Y-86487000D03*
X62484000Y-84582000D03*
X61341000Y-84582000D03*
X55308500Y-86042500D03*
X56515001Y-86438990D03*
G04 #@! TO.N,OUTA2*
X64643000Y-85471000D03*
X65151000Y-86487000D03*
X64008000Y-86487000D03*
X65151000Y-84582000D03*
X64008000Y-84582000D03*
X69850000Y-85788500D03*
G04 #@! TO.N,OUTB1*
X61849000Y-94107000D03*
X62484000Y-93091000D03*
X61341000Y-93091000D03*
X62484000Y-94996000D03*
X61341000Y-94996000D03*
X56515000Y-93726000D03*
X55689500Y-94551500D03*
G04 #@! TO.N,OUTB2*
X64643000Y-94107000D03*
X65151000Y-94996000D03*
X64008000Y-94996000D03*
X65151000Y-93091000D03*
X64008000Y-93091000D03*
X69850000Y-93726000D03*
G04 #@! TO.N,SM_FLAG*
X87902240Y-81470500D03*
X90170000Y-83947000D03*
G04 #@! TO.N,WIFI_RST*
X94170500Y-93789500D03*
X98043998Y-93281500D03*
G04 #@! TO.N,WIFI_ADC*
X98806000Y-94043500D03*
X94932500Y-94549990D03*
G04 #@! TO.N,AUTH_SCK*
X97102247Y-92945160D03*
X93219510Y-93345000D03*
G04 #@! TO.N,AUTH_SDA*
X90932000Y-78105000D03*
X91249500Y-84010500D03*
G04 #@! TO.N,PROG_BOOT*
X91694000Y-84963000D03*
X92136990Y-77914500D03*
G04 #@! TO.N,SM_CLK*
X94107000Y-69024500D03*
X100012500Y-69850000D03*
G04 #@! TO.N,SM_SO*
X98996500Y-73279000D03*
X97091502Y-73279000D03*
G04 #@! TO.N,SM_CS*
X93027500Y-68961000D03*
X90932000Y-82677000D03*
X89725500Y-80327500D03*
X100363950Y-67153454D03*
G04 #@! TO.N,Net-(JP1-Pad1)*
X58039000Y-70739000D03*
X59372500Y-70739000D03*
X60706000Y-70739000D03*
X62039500Y-70739000D03*
X63373000Y-70739000D03*
X64706500Y-70739000D03*
X66040000Y-70739000D03*
X67373500Y-70739000D03*
X68707000Y-70739000D03*
X58737500Y-71501000D03*
X60071000Y-71501000D03*
X61404500Y-71501000D03*
X62738000Y-71501000D03*
X64071500Y-71501000D03*
X65405000Y-71501000D03*
X66738500Y-71501000D03*
X68072000Y-71501000D03*
X71437500Y-86677500D03*
X66167000Y-79692500D03*
X65405000Y-78930500D03*
X57340500Y-71501000D03*
X56642000Y-70739000D03*
X55943500Y-71501000D03*
G04 #@! TO.N,Net-(JP2-Pad1)*
X55626000Y-108013500D03*
X61023500Y-108013500D03*
X59690000Y-108013500D03*
X58356500Y-108013500D03*
X68389500Y-108775500D03*
X67056000Y-108775500D03*
X65722500Y-108775500D03*
X64389000Y-108775500D03*
X63055500Y-108775500D03*
X61722000Y-108775500D03*
X60388500Y-108775500D03*
X59055000Y-108775500D03*
X57721500Y-108775500D03*
X67691000Y-108013500D03*
X66357500Y-108013500D03*
X65024000Y-108013500D03*
X63690500Y-108013500D03*
X62357000Y-108013500D03*
X71437500Y-92837000D03*
X66103500Y-100139500D03*
X65405000Y-100838000D03*
X57023000Y-108013500D03*
X56324500Y-108775500D03*
G04 #@! TO.N,Net-(J4-Pad7)*
X96710502Y-113792000D03*
G04 #@! TD*
D22*
G04 #@! TO.N,GND*
X70358000Y-86677500D02*
X70358000Y-87820500D01*
X70358000Y-92837000D02*
X70358000Y-91567000D01*
D23*
G04 #@! TO.N,SM_RST*
X89408000Y-79629000D02*
X87497183Y-79629000D01*
X87497183Y-79629000D02*
X86931498Y-79629000D01*
X90170000Y-78867000D02*
X89408000Y-79629000D01*
G04 #@! TO.N,Net-(D5-Pad1)*
X100081815Y-95250000D02*
X100647500Y-95250000D01*
X92392500Y-95250000D02*
X100081815Y-95250000D01*
X91757500Y-94615000D02*
X92392500Y-95250000D01*
G04 #@! TO.N,SM_FLAG*
X90170000Y-83738260D02*
X90170000Y-83947000D01*
X87902240Y-81470500D02*
X90170000Y-83738260D01*
G04 #@! TO.N,WIFI_RST*
X97535998Y-93789500D02*
X97643999Y-93681499D01*
X97643999Y-93681499D02*
X98043998Y-93281500D01*
X94170500Y-93789500D02*
X97535998Y-93789500D01*
G04 #@! TO.N,WIFI_ADC*
X98806000Y-94043500D02*
X98299510Y-94549990D01*
X95498185Y-94549990D02*
X94932500Y-94549990D01*
X98299510Y-94549990D02*
X95498185Y-94549990D01*
G04 #@! TO.N,AUTH_SCK*
X97102247Y-92945160D02*
X93619350Y-92945160D01*
X93619350Y-92945160D02*
X93219510Y-93345000D01*
G04 #@! TO.N,AUTH_SDA*
X91649499Y-78822499D02*
X91649499Y-83610501D01*
X90932000Y-78105000D02*
X91649499Y-78822499D01*
X91649499Y-83610501D02*
X91249500Y-84010500D01*
G04 #@! TO.N,PROG_BOOT*
X92136990Y-78480185D02*
X92136990Y-77914500D01*
X91694000Y-84963000D02*
X92136990Y-84520010D01*
X92136990Y-84520010D02*
X92136990Y-78480185D01*
G04 #@! TO.N,SM_CLK*
X100012500Y-69850000D02*
X94932500Y-69850000D01*
X94932500Y-69850000D02*
X94107000Y-69024500D01*
G04 #@! TO.N,SM_SO*
X98996500Y-73279000D02*
X97091502Y-73279000D01*
G04 #@! TO.N,SM_CS*
X90932000Y-81534000D02*
X89725500Y-80327500D01*
X90932000Y-82677000D02*
X90932000Y-81534000D01*
X93027500Y-68961000D02*
X93726000Y-68262500D01*
X99963951Y-67553453D02*
X100363950Y-67153454D01*
X93726000Y-68262500D02*
X99254904Y-68262500D01*
X99254904Y-68262500D02*
X99963951Y-67553453D01*
D22*
G04 #@! TO.N,Net-(JP1-Pad1)*
X66566999Y-80092499D02*
X66167000Y-79692500D01*
X71437500Y-84963000D02*
X66566999Y-80092499D01*
X71437500Y-86677500D02*
X71437500Y-84963000D01*
X66167000Y-79692500D02*
X65405000Y-78930500D01*
G04 #@! TO.N,Net-(JP2-Pad1)*
X71437500Y-92837000D02*
X71437500Y-94805500D01*
X66503499Y-99739501D02*
X66103500Y-100139500D01*
X71437500Y-94805500D02*
X66503499Y-99739501D01*
X66103500Y-100139500D02*
X65405000Y-100838000D01*
D23*
G04 #@! TO.N,Net-(J4-Pad7)*
X93980000Y-116840000D02*
X96710502Y-114109498D01*
X96710502Y-114109498D02*
X96710502Y-113792000D01*
G04 #@! TD*
D24*
G04 #@! TO.N,OUTB2*
G36*
X69633000Y-92692788D02*
X69633000Y-92981212D01*
X69743374Y-93247680D01*
X69947320Y-93451626D01*
X70213788Y-93562000D01*
X70502212Y-93562000D01*
X70768680Y-93451626D01*
X70897750Y-93322556D01*
X70912500Y-93337306D01*
X70912501Y-94588037D01*
X66168832Y-99331707D01*
X66168829Y-99331709D01*
X66086038Y-99414500D01*
X65959288Y-99414500D01*
X65692820Y-99524874D01*
X65488874Y-99728820D01*
X65378500Y-99995288D01*
X65378500Y-100113000D01*
X65260788Y-100113000D01*
X64994320Y-100223374D01*
X64790374Y-100427320D01*
X64680000Y-100693788D01*
X64680000Y-100982212D01*
X64790374Y-101248680D01*
X64942578Y-101400884D01*
X64009921Y-102312344D01*
X63899531Y-102349552D01*
X49516726Y-100561420D01*
X49432680Y-100477374D01*
X49166212Y-100367000D01*
X48877788Y-100367000D01*
X48664275Y-100455439D01*
X40540712Y-99445483D01*
X40533016Y-99444767D01*
X40508341Y-99443239D01*
X40500615Y-99443000D01*
X35530865Y-99443000D01*
X35460250Y-99413750D01*
X35431000Y-99343135D01*
X35431000Y-95157365D01*
X35460250Y-95086750D01*
X35530865Y-95057500D01*
X40625955Y-95057500D01*
X40640614Y-95058285D01*
X61249328Y-97270877D01*
X61295806Y-97267120D01*
X61437156Y-97228262D01*
X61479022Y-97207733D01*
X63368000Y-95791000D01*
X63404803Y-95746902D01*
X63484803Y-95586902D01*
X63498000Y-95531000D01*
X63498000Y-92680865D01*
X63527250Y-92610250D01*
X63597865Y-92581000D01*
X69679304Y-92581000D01*
X69633000Y-92692788D01*
X69633000Y-92692788D01*
G37*
X69633000Y-92692788D02*
X69633000Y-92981212D01*
X69743374Y-93247680D01*
X69947320Y-93451626D01*
X70213788Y-93562000D01*
X70502212Y-93562000D01*
X70768680Y-93451626D01*
X70897750Y-93322556D01*
X70912500Y-93337306D01*
X70912501Y-94588037D01*
X66168832Y-99331707D01*
X66168829Y-99331709D01*
X66086038Y-99414500D01*
X65959288Y-99414500D01*
X65692820Y-99524874D01*
X65488874Y-99728820D01*
X65378500Y-99995288D01*
X65378500Y-100113000D01*
X65260788Y-100113000D01*
X64994320Y-100223374D01*
X64790374Y-100427320D01*
X64680000Y-100693788D01*
X64680000Y-100982212D01*
X64790374Y-101248680D01*
X64942578Y-101400884D01*
X64009921Y-102312344D01*
X63899531Y-102349552D01*
X49516726Y-100561420D01*
X49432680Y-100477374D01*
X49166212Y-100367000D01*
X48877788Y-100367000D01*
X48664275Y-100455439D01*
X40540712Y-99445483D01*
X40533016Y-99444767D01*
X40508341Y-99443239D01*
X40500615Y-99443000D01*
X35530865Y-99443000D01*
X35460250Y-99413750D01*
X35431000Y-99343135D01*
X35431000Y-95157365D01*
X35460250Y-95086750D01*
X35530865Y-95057500D01*
X40625955Y-95057500D01*
X40640614Y-95058285D01*
X61249328Y-97270877D01*
X61295806Y-97267120D01*
X61437156Y-97228262D01*
X61479022Y-97207733D01*
X63368000Y-95791000D01*
X63404803Y-95746902D01*
X63484803Y-95586902D01*
X63498000Y-95531000D01*
X63498000Y-92680865D01*
X63527250Y-92610250D01*
X63597865Y-92581000D01*
X69679304Y-92581000D01*
X69633000Y-92692788D01*
G04 #@! TO.N,OUTA2*
G36*
X64010586Y-77516267D02*
X64933727Y-78376467D01*
X64790374Y-78519820D01*
X64680000Y-78786288D01*
X64680000Y-79074712D01*
X64790374Y-79341180D01*
X64994320Y-79545126D01*
X65260788Y-79655500D01*
X65387539Y-79655500D01*
X65442000Y-79709962D01*
X65442000Y-79836712D01*
X65552374Y-80103180D01*
X65756320Y-80307126D01*
X66022788Y-80417500D01*
X66149538Y-80417500D01*
X66232329Y-80500291D01*
X66232332Y-80500293D01*
X70912501Y-85180464D01*
X70912500Y-86177194D01*
X70897750Y-86191944D01*
X70768680Y-86062874D01*
X70502212Y-85952500D01*
X70213788Y-85952500D01*
X69947320Y-86062874D01*
X69743374Y-86266820D01*
X69633000Y-86533288D01*
X69633000Y-86821712D01*
X69705606Y-86997000D01*
X63597865Y-86997000D01*
X63527250Y-86967750D01*
X63498000Y-86897135D01*
X63498000Y-83925206D01*
X63483628Y-83867012D01*
X63396934Y-83702204D01*
X63357122Y-83657393D01*
X61472556Y-82361754D01*
X61432567Y-82343620D01*
X61298515Y-82309507D01*
X61254722Y-82306320D01*
X40640598Y-84456259D01*
X40626356Y-84457000D01*
X35530865Y-84457000D01*
X35460250Y-84427750D01*
X35431000Y-84357135D01*
X35431000Y-80298365D01*
X35460250Y-80227750D01*
X35530865Y-80198500D01*
X40628355Y-80198500D01*
X40635624Y-80198288D01*
X40658835Y-80196936D01*
X40666073Y-80196303D01*
X63903304Y-77481084D01*
X64010586Y-77516267D01*
X64010586Y-77516267D01*
G37*
X64010586Y-77516267D02*
X64933727Y-78376467D01*
X64790374Y-78519820D01*
X64680000Y-78786288D01*
X64680000Y-79074712D01*
X64790374Y-79341180D01*
X64994320Y-79545126D01*
X65260788Y-79655500D01*
X65387539Y-79655500D01*
X65442000Y-79709962D01*
X65442000Y-79836712D01*
X65552374Y-80103180D01*
X65756320Y-80307126D01*
X66022788Y-80417500D01*
X66149538Y-80417500D01*
X66232329Y-80500291D01*
X66232332Y-80500293D01*
X70912501Y-85180464D01*
X70912500Y-86177194D01*
X70897750Y-86191944D01*
X70768680Y-86062874D01*
X70502212Y-85952500D01*
X70213788Y-85952500D01*
X69947320Y-86062874D01*
X69743374Y-86266820D01*
X69633000Y-86533288D01*
X69633000Y-86821712D01*
X69705606Y-86997000D01*
X63597865Y-86997000D01*
X63527250Y-86967750D01*
X63498000Y-86897135D01*
X63498000Y-83925206D01*
X63483628Y-83867012D01*
X63396934Y-83702204D01*
X63357122Y-83657393D01*
X61472556Y-82361754D01*
X61432567Y-82343620D01*
X61298515Y-82309507D01*
X61254722Y-82306320D01*
X40640598Y-84456259D01*
X40626356Y-84457000D01*
X35530865Y-84457000D01*
X35460250Y-84427750D01*
X35431000Y-84357135D01*
X35431000Y-80298365D01*
X35460250Y-80227750D01*
X35530865Y-80198500D01*
X40628355Y-80198500D01*
X40635624Y-80198288D01*
X40658835Y-80196936D01*
X40666073Y-80196303D01*
X63903304Y-77481084D01*
X64010586Y-77516267D01*
G04 #@! TO.N,OUTB1*
G36*
X40640713Y-90105601D02*
X60550618Y-92641895D01*
X60558502Y-92642646D01*
X60583776Y-92644249D01*
X60591688Y-92644500D01*
X62894135Y-92644500D01*
X62964750Y-92673750D01*
X62994000Y-92744365D01*
X62994000Y-95437992D01*
X62940394Y-95545205D01*
X61348726Y-96738956D01*
X61252350Y-96765136D01*
X40665338Y-94428573D01*
X40658302Y-94427976D01*
X40635748Y-94426700D01*
X40628687Y-94426500D01*
X35530865Y-94426500D01*
X35460250Y-94397250D01*
X35431000Y-94326635D01*
X35431000Y-90204365D01*
X35460250Y-90133750D01*
X35530865Y-90104500D01*
X40623357Y-90104500D01*
X40640713Y-90105601D01*
X40640713Y-90105601D01*
G37*
X40640713Y-90105601D02*
X60550618Y-92641895D01*
X60558502Y-92642646D01*
X60583776Y-92644249D01*
X60591688Y-92644500D01*
X62894135Y-92644500D01*
X62964750Y-92673750D01*
X62994000Y-92744365D01*
X62994000Y-95437992D01*
X62940394Y-95545205D01*
X61348726Y-96738956D01*
X61252350Y-96765136D01*
X40665338Y-94428573D01*
X40658302Y-94427976D01*
X40635748Y-94426700D01*
X40628687Y-94426500D01*
X35530865Y-94426500D01*
X35460250Y-94397250D01*
X35431000Y-94326635D01*
X35431000Y-90204365D01*
X35460250Y-90133750D01*
X35530865Y-90104500D01*
X40623357Y-90104500D01*
X40640713Y-90105601D01*
G04 #@! TO.N,OUTA1*
G36*
X61286187Y-82898336D02*
X62936208Y-84036281D01*
X62994000Y-84146342D01*
X62994000Y-86897135D01*
X62964750Y-86967750D01*
X62894135Y-86997000D01*
X60591096Y-86997000D01*
X60583549Y-86997228D01*
X60559445Y-86998686D01*
X60551927Y-86999369D01*
X40704190Y-89408998D01*
X40687626Y-89410000D01*
X35530865Y-89410000D01*
X35460250Y-89380750D01*
X35431000Y-89310135D01*
X35431000Y-85187865D01*
X35460250Y-85117250D01*
X35530865Y-85088000D01*
X40692729Y-85088000D01*
X40699452Y-85087819D01*
X40720932Y-85086662D01*
X40727634Y-85086120D01*
X61194723Y-82875169D01*
X61286187Y-82898336D01*
X61286187Y-82898336D01*
G37*
X61286187Y-82898336D02*
X62936208Y-84036281D01*
X62994000Y-84146342D01*
X62994000Y-86897135D01*
X62964750Y-86967750D01*
X62894135Y-86997000D01*
X60591096Y-86997000D01*
X60583549Y-86997228D01*
X60559445Y-86998686D01*
X60551927Y-86999369D01*
X40704190Y-89408998D01*
X40687626Y-89410000D01*
X35530865Y-89410000D01*
X35460250Y-89380750D01*
X35431000Y-89310135D01*
X35431000Y-85187865D01*
X35460250Y-85117250D01*
X35530865Y-85088000D01*
X40692729Y-85088000D01*
X40699452Y-85087819D01*
X40720932Y-85086662D01*
X40727634Y-85086120D01*
X61194723Y-82875169D01*
X61286187Y-82898336D01*
G04 #@! TO.N,Net-(JP1-Pad1)*
G36*
X71219750Y-68988250D02*
X71249000Y-69058865D01*
X71249000Y-71847635D01*
X71219750Y-71918250D01*
X71149135Y-71947500D01*
X54419207Y-71947500D01*
X54348592Y-71918250D01*
X54329642Y-71872500D01*
X54358891Y-71801885D01*
X55719309Y-70441467D01*
X55746406Y-70400914D01*
X55804985Y-70259492D01*
X55814500Y-70211657D01*
X55814500Y-69058865D01*
X55843750Y-68988250D01*
X55914365Y-68959000D01*
X71149135Y-68959000D01*
X71219750Y-68988250D01*
X71219750Y-68988250D01*
G37*
X71219750Y-68988250D02*
X71249000Y-69058865D01*
X71249000Y-71847635D01*
X71219750Y-71918250D01*
X71149135Y-71947500D01*
X54419207Y-71947500D01*
X54348592Y-71918250D01*
X54329642Y-71872500D01*
X54358891Y-71801885D01*
X55719309Y-70441467D01*
X55746406Y-70400914D01*
X55804985Y-70259492D01*
X55814500Y-70211657D01*
X55814500Y-69058865D01*
X55843750Y-68988250D01*
X55914365Y-68959000D01*
X71149135Y-68959000D01*
X71219750Y-68988250D01*
G04 #@! TO.N,VIN*
G36*
X71993651Y-72804466D02*
X71898500Y-73034180D01*
X71898500Y-73602250D01*
X72054750Y-73758500D01*
X73123500Y-73758500D01*
X73123500Y-73463500D01*
X74323500Y-73463500D01*
X74323500Y-73758500D01*
X74618500Y-73758500D01*
X74618500Y-74958500D01*
X74323500Y-74958500D01*
X74323500Y-76027250D01*
X74479750Y-76183500D01*
X74995500Y-76183500D01*
X74995500Y-81352148D01*
X71947658Y-84156162D01*
X64221916Y-76681663D01*
X64180920Y-76655240D01*
X64120120Y-76647389D01*
X40823035Y-79440500D01*
X35431000Y-79440500D01*
X35431000Y-78914427D01*
X37113812Y-78914427D01*
X37283308Y-79143324D01*
X38045710Y-79215525D01*
X38408692Y-79143324D01*
X38578188Y-78914427D01*
X37846000Y-78182239D01*
X37113812Y-78914427D01*
X35431000Y-78914427D01*
X35431000Y-77462710D01*
X35893475Y-77462710D01*
X35965676Y-77825692D01*
X36194573Y-77995188D01*
X36926761Y-77263000D01*
X38765239Y-77263000D01*
X39497427Y-77995188D01*
X39726324Y-77825692D01*
X39798525Y-77063290D01*
X39726324Y-76700308D01*
X39497427Y-76530812D01*
X38765239Y-77263000D01*
X36926761Y-77263000D01*
X36194573Y-76530812D01*
X35965676Y-76700308D01*
X35893475Y-77462710D01*
X35431000Y-77462710D01*
X35431000Y-75611573D01*
X37113812Y-75611573D01*
X37846000Y-76343761D01*
X38578188Y-75611573D01*
X38408692Y-75382676D01*
X37646290Y-75310475D01*
X37283308Y-75382676D01*
X37113812Y-75611573D01*
X35431000Y-75611573D01*
X35431000Y-75114750D01*
X71898500Y-75114750D01*
X71898500Y-75682820D01*
X71993651Y-75912534D01*
X72169466Y-76088350D01*
X72399180Y-76183500D01*
X72967250Y-76183500D01*
X73123500Y-76027250D01*
X73123500Y-74958500D01*
X72054750Y-74958500D01*
X71898500Y-75114750D01*
X35431000Y-75114750D01*
X35431000Y-74483500D01*
X41338500Y-74483500D01*
X41356447Y-74482205D01*
X53603021Y-72705500D01*
X72092616Y-72705500D01*
X71993651Y-72804466D01*
X71993651Y-72804466D01*
G37*
X71993651Y-72804466D02*
X71898500Y-73034180D01*
X71898500Y-73602250D01*
X72054750Y-73758500D01*
X73123500Y-73758500D01*
X73123500Y-73463500D01*
X74323500Y-73463500D01*
X74323500Y-73758500D01*
X74618500Y-73758500D01*
X74618500Y-74958500D01*
X74323500Y-74958500D01*
X74323500Y-76027250D01*
X74479750Y-76183500D01*
X74995500Y-76183500D01*
X74995500Y-81352148D01*
X71947658Y-84156162D01*
X64221916Y-76681663D01*
X64180920Y-76655240D01*
X64120120Y-76647389D01*
X40823035Y-79440500D01*
X35431000Y-79440500D01*
X35431000Y-78914427D01*
X37113812Y-78914427D01*
X37283308Y-79143324D01*
X38045710Y-79215525D01*
X38408692Y-79143324D01*
X38578188Y-78914427D01*
X37846000Y-78182239D01*
X37113812Y-78914427D01*
X35431000Y-78914427D01*
X35431000Y-77462710D01*
X35893475Y-77462710D01*
X35965676Y-77825692D01*
X36194573Y-77995188D01*
X36926761Y-77263000D01*
X38765239Y-77263000D01*
X39497427Y-77995188D01*
X39726324Y-77825692D01*
X39798525Y-77063290D01*
X39726324Y-76700308D01*
X39497427Y-76530812D01*
X38765239Y-77263000D01*
X36926761Y-77263000D01*
X36194573Y-76530812D01*
X35965676Y-76700308D01*
X35893475Y-77462710D01*
X35431000Y-77462710D01*
X35431000Y-75611573D01*
X37113812Y-75611573D01*
X37846000Y-76343761D01*
X38578188Y-75611573D01*
X38408692Y-75382676D01*
X37646290Y-75310475D01*
X37283308Y-75382676D01*
X37113812Y-75611573D01*
X35431000Y-75611573D01*
X35431000Y-75114750D01*
X71898500Y-75114750D01*
X71898500Y-75682820D01*
X71993651Y-75912534D01*
X72169466Y-76088350D01*
X72399180Y-76183500D01*
X72967250Y-76183500D01*
X73123500Y-76027250D01*
X73123500Y-74958500D01*
X72054750Y-74958500D01*
X71898500Y-75114750D01*
X35431000Y-75114750D01*
X35431000Y-74483500D01*
X41338500Y-74483500D01*
X41356447Y-74482205D01*
X53603021Y-72705500D01*
X72092616Y-72705500D01*
X71993651Y-72804466D01*
G04 #@! TO.N,Net-(JP2-Pad1)*
G36*
X70965750Y-107596250D02*
X70995000Y-107666865D01*
X70995000Y-110460791D01*
X70965741Y-110531414D01*
X70895108Y-110560651D01*
X55088836Y-110555572D01*
X55018239Y-110526310D01*
X54989000Y-110455705D01*
X54989000Y-107666865D01*
X55018250Y-107596250D01*
X55088865Y-107567000D01*
X70895135Y-107567000D01*
X70965750Y-107596250D01*
X70965750Y-107596250D01*
G37*
X70965750Y-107596250D02*
X70995000Y-107666865D01*
X70995000Y-110460791D01*
X70965741Y-110531414D01*
X70895108Y-110560651D01*
X55088836Y-110555572D01*
X55018239Y-110526310D01*
X54989000Y-110455705D01*
X54989000Y-107666865D01*
X55018250Y-107596250D01*
X55088865Y-107567000D01*
X70895135Y-107567000D01*
X70965750Y-107596250D01*
G04 #@! TO.N,VIN*
G36*
X71887207Y-95685983D02*
X74765451Y-98564227D01*
X74805000Y-98659707D01*
X74805000Y-103712000D01*
X74289250Y-103712000D01*
X74133000Y-103868250D01*
X74133000Y-104937000D01*
X74428000Y-104937000D01*
X74428000Y-106137000D01*
X74133000Y-106137000D01*
X74133000Y-106432000D01*
X72933000Y-106432000D01*
X72933000Y-106137000D01*
X71864250Y-106137000D01*
X71708000Y-106293250D01*
X71708000Y-106861320D01*
X71738934Y-106936000D01*
X54556000Y-106936000D01*
X54508164Y-106945515D01*
X54366743Y-107004094D01*
X54326190Y-107031191D01*
X54299094Y-107071743D01*
X54240515Y-107213164D01*
X54231000Y-107261000D01*
X54231000Y-109376135D01*
X54201750Y-109446750D01*
X54131135Y-109476000D01*
X46671736Y-109476000D01*
X46629136Y-109261835D01*
X46356578Y-108853922D01*
X45948665Y-108581364D01*
X45467500Y-108485654D01*
X44956000Y-108485654D01*
X44956000Y-106949250D01*
X45217500Y-106949250D01*
X45217500Y-107792320D01*
X45312651Y-108022034D01*
X45488466Y-108197850D01*
X45718180Y-108293000D01*
X46561250Y-108293000D01*
X46717500Y-108136750D01*
X46717500Y-106793000D01*
X48467500Y-106793000D01*
X48467500Y-108136750D01*
X48623750Y-108293000D01*
X49466820Y-108293000D01*
X49696534Y-108197850D01*
X49872349Y-108022034D01*
X49967500Y-107792320D01*
X49967500Y-106949250D01*
X49811250Y-106793000D01*
X48467500Y-106793000D01*
X46717500Y-106793000D01*
X45373750Y-106793000D01*
X45217500Y-106949250D01*
X44956000Y-106949250D01*
X44956000Y-104043680D01*
X45217500Y-104043680D01*
X45217500Y-104886750D01*
X45373750Y-105043000D01*
X46717500Y-105043000D01*
X46717500Y-103699250D01*
X48467500Y-103699250D01*
X48467500Y-105043000D01*
X49811250Y-105043000D01*
X49967500Y-104886750D01*
X49967500Y-104212680D01*
X71708000Y-104212680D01*
X71708000Y-104780750D01*
X71864250Y-104937000D01*
X72933000Y-104937000D01*
X72933000Y-103868250D01*
X72776750Y-103712000D01*
X72208680Y-103712000D01*
X71978966Y-103807150D01*
X71803151Y-103982966D01*
X71708000Y-104212680D01*
X49967500Y-104212680D01*
X49967500Y-104043680D01*
X49872349Y-103813966D01*
X49696534Y-103638150D01*
X49466820Y-103543000D01*
X48623750Y-103543000D01*
X48467500Y-103699250D01*
X46717500Y-103699250D01*
X46561250Y-103543000D01*
X45718180Y-103543000D01*
X45488466Y-103638150D01*
X45312651Y-103813966D01*
X45217500Y-104043680D01*
X44956000Y-104043680D01*
X44956000Y-104037799D01*
X44945351Y-103987313D01*
X44880102Y-103839522D01*
X44849970Y-103797639D01*
X41081325Y-100361522D01*
X41049080Y-100287461D01*
X41070611Y-100240658D01*
X41147829Y-100216952D01*
X48247000Y-101094807D01*
X48247000Y-101246157D01*
X48364987Y-101531002D01*
X48582998Y-101749013D01*
X48867843Y-101867000D01*
X49176157Y-101867000D01*
X49461002Y-101749013D01*
X49679013Y-101531002D01*
X49781114Y-101284509D01*
X64024283Y-103045761D01*
X64079526Y-103040166D01*
X64243706Y-102984863D01*
X64291075Y-102955894D01*
X65748557Y-101534548D01*
X65844002Y-101495013D01*
X66062013Y-101277002D01*
X66095466Y-101196240D01*
X66477928Y-100823260D01*
X66542502Y-100796513D01*
X66760513Y-100578502D01*
X66781931Y-100526795D01*
X71746719Y-95685101D01*
X71817143Y-95656704D01*
X71887207Y-95685983D01*
X71887207Y-95685983D01*
G37*
X71887207Y-95685983D02*
X74765451Y-98564227D01*
X74805000Y-98659707D01*
X74805000Y-103712000D01*
X74289250Y-103712000D01*
X74133000Y-103868250D01*
X74133000Y-104937000D01*
X74428000Y-104937000D01*
X74428000Y-106137000D01*
X74133000Y-106137000D01*
X74133000Y-106432000D01*
X72933000Y-106432000D01*
X72933000Y-106137000D01*
X71864250Y-106137000D01*
X71708000Y-106293250D01*
X71708000Y-106861320D01*
X71738934Y-106936000D01*
X54556000Y-106936000D01*
X54508164Y-106945515D01*
X54366743Y-107004094D01*
X54326190Y-107031191D01*
X54299094Y-107071743D01*
X54240515Y-107213164D01*
X54231000Y-107261000D01*
X54231000Y-109376135D01*
X54201750Y-109446750D01*
X54131135Y-109476000D01*
X46671736Y-109476000D01*
X46629136Y-109261835D01*
X46356578Y-108853922D01*
X45948665Y-108581364D01*
X45467500Y-108485654D01*
X44956000Y-108485654D01*
X44956000Y-106949250D01*
X45217500Y-106949250D01*
X45217500Y-107792320D01*
X45312651Y-108022034D01*
X45488466Y-108197850D01*
X45718180Y-108293000D01*
X46561250Y-108293000D01*
X46717500Y-108136750D01*
X46717500Y-106793000D01*
X48467500Y-106793000D01*
X48467500Y-108136750D01*
X48623750Y-108293000D01*
X49466820Y-108293000D01*
X49696534Y-108197850D01*
X49872349Y-108022034D01*
X49967500Y-107792320D01*
X49967500Y-106949250D01*
X49811250Y-106793000D01*
X48467500Y-106793000D01*
X46717500Y-106793000D01*
X45373750Y-106793000D01*
X45217500Y-106949250D01*
X44956000Y-106949250D01*
X44956000Y-104043680D01*
X45217500Y-104043680D01*
X45217500Y-104886750D01*
X45373750Y-105043000D01*
X46717500Y-105043000D01*
X46717500Y-103699250D01*
X48467500Y-103699250D01*
X48467500Y-105043000D01*
X49811250Y-105043000D01*
X49967500Y-104886750D01*
X49967500Y-104212680D01*
X71708000Y-104212680D01*
X71708000Y-104780750D01*
X71864250Y-104937000D01*
X72933000Y-104937000D01*
X72933000Y-103868250D01*
X72776750Y-103712000D01*
X72208680Y-103712000D01*
X71978966Y-103807150D01*
X71803151Y-103982966D01*
X71708000Y-104212680D01*
X49967500Y-104212680D01*
X49967500Y-104043680D01*
X49872349Y-103813966D01*
X49696534Y-103638150D01*
X49466820Y-103543000D01*
X48623750Y-103543000D01*
X48467500Y-103699250D01*
X46717500Y-103699250D01*
X46561250Y-103543000D01*
X45718180Y-103543000D01*
X45488466Y-103638150D01*
X45312651Y-103813966D01*
X45217500Y-104043680D01*
X44956000Y-104043680D01*
X44956000Y-104037799D01*
X44945351Y-103987313D01*
X44880102Y-103839522D01*
X44849970Y-103797639D01*
X41081325Y-100361522D01*
X41049080Y-100287461D01*
X41070611Y-100240658D01*
X41147829Y-100216952D01*
X48247000Y-101094807D01*
X48247000Y-101246157D01*
X48364987Y-101531002D01*
X48582998Y-101749013D01*
X48867843Y-101867000D01*
X49176157Y-101867000D01*
X49461002Y-101749013D01*
X49679013Y-101531002D01*
X49781114Y-101284509D01*
X64024283Y-103045761D01*
X64079526Y-103040166D01*
X64243706Y-102984863D01*
X64291075Y-102955894D01*
X65748557Y-101534548D01*
X65844002Y-101495013D01*
X66062013Y-101277002D01*
X66095466Y-101196240D01*
X66477928Y-100823260D01*
X66542502Y-100796513D01*
X66760513Y-100578502D01*
X66781931Y-100526795D01*
X71746719Y-95685101D01*
X71817143Y-95656704D01*
X71887207Y-95685983D01*
G04 #@! TO.N,GND*
G36*
X77252756Y-62269000D02*
X77252756Y-63969000D01*
X77301263Y-64212863D01*
X77439400Y-64419600D01*
X77646137Y-64557737D01*
X77890000Y-64606244D01*
X79590000Y-64606244D01*
X79833863Y-64557737D01*
X80040600Y-64419600D01*
X80178737Y-64212863D01*
X80202562Y-64093085D01*
X80297726Y-64219390D01*
X80639277Y-64447571D01*
X80855000Y-64367390D01*
X80855000Y-63544000D01*
X80430000Y-63544000D01*
X80430000Y-62694000D01*
X80855000Y-62694000D01*
X80855000Y-62269000D01*
X81705000Y-62269000D01*
X81705000Y-62694000D01*
X82130000Y-62694000D01*
X82130000Y-63544000D01*
X81705000Y-63544000D01*
X81705000Y-64367390D01*
X81920723Y-64447571D01*
X82262274Y-64219390D01*
X82432091Y-63994002D01*
X82630691Y-63994002D01*
X82756585Y-64182415D01*
X83244484Y-64508419D01*
X83674730Y-64594000D01*
X83965270Y-64594000D01*
X84395516Y-64508419D01*
X84883415Y-64182415D01*
X85090000Y-63873239D01*
X85296585Y-64182415D01*
X85784484Y-64508419D01*
X86214730Y-64594000D01*
X86505270Y-64594000D01*
X86935516Y-64508419D01*
X87423415Y-64182415D01*
X87630000Y-63873239D01*
X87836585Y-64182415D01*
X88324484Y-64508419D01*
X88754730Y-64594000D01*
X89045270Y-64594000D01*
X89475516Y-64508419D01*
X89963415Y-64182415D01*
X90170000Y-63873239D01*
X90376585Y-64182415D01*
X90864484Y-64508419D01*
X91294730Y-64594000D01*
X91585270Y-64594000D01*
X92015516Y-64508419D01*
X92503415Y-64182415D01*
X92710000Y-63873239D01*
X92916585Y-64182415D01*
X93404484Y-64508419D01*
X93834730Y-64594000D01*
X94125270Y-64594000D01*
X94555516Y-64508419D01*
X95043415Y-64182415D01*
X95250000Y-63873239D01*
X95456585Y-64182415D01*
X95944484Y-64508419D01*
X96374730Y-64594000D01*
X96665270Y-64594000D01*
X97095516Y-64508419D01*
X97583415Y-64182415D01*
X97790000Y-63873239D01*
X97996585Y-64182415D01*
X98484484Y-64508419D01*
X98914730Y-64594000D01*
X99205270Y-64594000D01*
X99635516Y-64508419D01*
X100123415Y-64182415D01*
X100330000Y-63873239D01*
X100536585Y-64182415D01*
X101024484Y-64508419D01*
X101454730Y-64594000D01*
X101745270Y-64594000D01*
X101929170Y-64557420D01*
X105519500Y-64557420D01*
X105519500Y-65442580D01*
X105858236Y-66260361D01*
X106484139Y-66886264D01*
X107301920Y-67225000D01*
X108187080Y-67225000D01*
X109004861Y-66886264D01*
X109630764Y-66260361D01*
X109969500Y-65442580D01*
X109969500Y-64557420D01*
X109630764Y-63739639D01*
X109004861Y-63113736D01*
X108187080Y-62775000D01*
X107301920Y-62775000D01*
X106484139Y-63113736D01*
X105858236Y-63739639D01*
X105519500Y-64557420D01*
X101929170Y-64557420D01*
X102175516Y-64508419D01*
X102663415Y-64182415D01*
X102989419Y-63694516D01*
X103103896Y-63119000D01*
X102989419Y-62543484D01*
X102663415Y-62055585D01*
X102641587Y-62041000D01*
X109184052Y-62041000D01*
X110679000Y-63535949D01*
X110679000Y-69090000D01*
X104095843Y-69090000D01*
X104048008Y-69099515D01*
X103906586Y-69158094D01*
X103866033Y-69185191D01*
X103475191Y-69576033D01*
X103448094Y-69616586D01*
X103389515Y-69758008D01*
X103380000Y-69805843D01*
X103380000Y-91484157D01*
X103389515Y-91531992D01*
X103448094Y-91673414D01*
X103475191Y-91713967D01*
X103866033Y-92104809D01*
X103906586Y-92131906D01*
X104048008Y-92190485D01*
X104095843Y-92200000D01*
X110679001Y-92200000D01*
X110679001Y-116423050D01*
X109184052Y-117918000D01*
X102641587Y-117918000D01*
X102663415Y-117903415D01*
X102989419Y-117415516D01*
X103103896Y-116840000D01*
X102989419Y-116264484D01*
X102663415Y-115776585D01*
X102175516Y-115450581D01*
X101745270Y-115365000D01*
X101454730Y-115365000D01*
X101024484Y-115450581D01*
X100536585Y-115776585D01*
X100330000Y-116085761D01*
X100123415Y-115776585D01*
X99635516Y-115450581D01*
X99205270Y-115365000D01*
X98914730Y-115365000D01*
X98484484Y-115450581D01*
X97996585Y-115776585D01*
X97790000Y-116085761D01*
X97583415Y-115776585D01*
X97095516Y-115450581D01*
X96665270Y-115365000D01*
X96480305Y-115365000D01*
X97108857Y-114736448D01*
X97291118Y-114660953D01*
X97394651Y-114557420D01*
X105519500Y-114557420D01*
X105519500Y-115442580D01*
X105858236Y-116260361D01*
X106484139Y-116886264D01*
X107301920Y-117225000D01*
X108187080Y-117225000D01*
X109004861Y-116886264D01*
X109630764Y-116260361D01*
X109969500Y-115442580D01*
X109969500Y-114557420D01*
X109630764Y-113739639D01*
X109004861Y-113113736D01*
X108187080Y-112775000D01*
X107301920Y-112775000D01*
X106484139Y-113113736D01*
X105858236Y-113739639D01*
X105519500Y-114557420D01*
X97394651Y-114557420D01*
X97579455Y-114372616D01*
X97735502Y-113995885D01*
X97735502Y-113588115D01*
X97579455Y-113211384D01*
X97291118Y-112923047D01*
X96914387Y-112767000D01*
X96506617Y-112767000D01*
X96129886Y-112923047D01*
X95841549Y-113211384D01*
X95685502Y-113588115D01*
X95685502Y-113995885D01*
X95718689Y-114076006D01*
X94379188Y-115415507D01*
X94125270Y-115365000D01*
X93834730Y-115365000D01*
X93404484Y-115450581D01*
X92916585Y-115776585D01*
X92710000Y-116085761D01*
X92503415Y-115776585D01*
X92015516Y-115450581D01*
X91585270Y-115365000D01*
X91294730Y-115365000D01*
X90864484Y-115450581D01*
X90376585Y-115776585D01*
X90170000Y-116085761D01*
X89963415Y-115776585D01*
X89475516Y-115450581D01*
X89045270Y-115365000D01*
X88754730Y-115365000D01*
X88324484Y-115450581D01*
X87836585Y-115776585D01*
X87630000Y-116085761D01*
X87423415Y-115776585D01*
X86935516Y-115450581D01*
X86505270Y-115365000D01*
X86214730Y-115365000D01*
X85784484Y-115450581D01*
X85296585Y-115776585D01*
X85090000Y-116085761D01*
X84883415Y-115776585D01*
X84395516Y-115450581D01*
X83965270Y-115365000D01*
X83674730Y-115365000D01*
X83244484Y-115450581D01*
X82756585Y-115776585D01*
X82630691Y-115964998D01*
X82432091Y-115964998D01*
X82262274Y-115739610D01*
X81920723Y-115511429D01*
X81705000Y-115591610D01*
X81705000Y-116415000D01*
X82130000Y-116415000D01*
X82130000Y-117265000D01*
X81705000Y-117265000D01*
X81705000Y-117690000D01*
X80855000Y-117690000D01*
X80855000Y-117265000D01*
X80430000Y-117265000D01*
X80430000Y-116415000D01*
X80855000Y-116415000D01*
X80855000Y-115591610D01*
X80639277Y-115511429D01*
X80297726Y-115739610D01*
X80202562Y-115865915D01*
X80178737Y-115746137D01*
X80040600Y-115539400D01*
X79833863Y-115401263D01*
X79590000Y-115352756D01*
X77890000Y-115352756D01*
X77646137Y-115401263D01*
X77439400Y-115539400D01*
X77301263Y-115746137D01*
X77252756Y-115990000D01*
X77252756Y-117690000D01*
X77298108Y-117918000D01*
X35976949Y-117918000D01*
X34482000Y-116423052D01*
X34482000Y-114557420D01*
X35188000Y-114557420D01*
X35188000Y-115442580D01*
X35526736Y-116260361D01*
X36152639Y-116886264D01*
X36970420Y-117225000D01*
X37855580Y-117225000D01*
X38673361Y-116886264D01*
X39299264Y-116260361D01*
X39638000Y-115442580D01*
X39638000Y-114557420D01*
X39299264Y-113739639D01*
X38673361Y-113113736D01*
X37855580Y-112775000D01*
X36970420Y-112775000D01*
X36152639Y-113113736D01*
X35526736Y-113739639D01*
X35188000Y-114557420D01*
X34482000Y-114557420D01*
X34482000Y-106949250D01*
X39467500Y-106949250D01*
X39467500Y-107792320D01*
X39562651Y-108022034D01*
X39738466Y-108197850D01*
X39968180Y-108293000D01*
X40686250Y-108293000D01*
X40842500Y-108136750D01*
X40842500Y-106793000D01*
X42342500Y-106793000D01*
X42342500Y-108136750D01*
X42498750Y-108293000D01*
X43216820Y-108293000D01*
X43446534Y-108197850D01*
X43622349Y-108022034D01*
X43717500Y-107792320D01*
X43717500Y-106949250D01*
X43561250Y-106793000D01*
X42342500Y-106793000D01*
X40842500Y-106793000D01*
X39623750Y-106793000D01*
X39467500Y-106949250D01*
X34482000Y-106949250D01*
X34482000Y-104043680D01*
X39467500Y-104043680D01*
X39467500Y-104886750D01*
X39623750Y-105043000D01*
X40842500Y-105043000D01*
X40842500Y-103699250D01*
X40686250Y-103543000D01*
X39968180Y-103543000D01*
X39738466Y-103638150D01*
X39562651Y-103813966D01*
X39467500Y-104043680D01*
X34482000Y-104043680D01*
X34482000Y-100264500D01*
X39774671Y-100264500D01*
X39867428Y-100301333D01*
X43375090Y-103608557D01*
X43216820Y-103543000D01*
X42498750Y-103543000D01*
X42342500Y-103699250D01*
X42342500Y-105043000D01*
X43561250Y-105043000D01*
X43717500Y-104886750D01*
X43717500Y-104043680D01*
X43641190Y-103859451D01*
X44155665Y-104344528D01*
X44198000Y-104442629D01*
X44198000Y-108230756D01*
X43717500Y-108230756D01*
X43138789Y-108345869D01*
X42648182Y-108673682D01*
X42320369Y-109164289D01*
X42205256Y-109743000D01*
X42205256Y-111493000D01*
X42320369Y-112071711D01*
X42648182Y-112562318D01*
X43138789Y-112890131D01*
X43717500Y-113005244D01*
X45467500Y-113005244D01*
X46046211Y-112890131D01*
X46536818Y-112562318D01*
X46864631Y-112071711D01*
X46979744Y-111493000D01*
X46979744Y-110234000D01*
X54131135Y-110234000D01*
X54201750Y-110263250D01*
X54231000Y-110333865D01*
X54231000Y-112258500D01*
X54240515Y-112306336D01*
X54299094Y-112447757D01*
X54326191Y-112488310D01*
X54366743Y-112515406D01*
X54508164Y-112573985D01*
X54556000Y-112583500D01*
X55489500Y-112583500D01*
X55537336Y-112573985D01*
X55678757Y-112515406D01*
X55719310Y-112488309D01*
X55746406Y-112447757D01*
X55804985Y-112306336D01*
X55814500Y-112258500D01*
X55814500Y-111921365D01*
X55843750Y-111850750D01*
X55914365Y-111821500D01*
X57750635Y-111821500D01*
X57821250Y-111850750D01*
X57850500Y-111921365D01*
X57850500Y-112258500D01*
X57860015Y-112306336D01*
X57918594Y-112447757D01*
X57945691Y-112488310D01*
X57986243Y-112515406D01*
X58127664Y-112573985D01*
X58175500Y-112583500D01*
X59426500Y-112583500D01*
X59474336Y-112573985D01*
X59615757Y-112515406D01*
X59656310Y-112488309D01*
X59683406Y-112447757D01*
X59741985Y-112306336D01*
X59751500Y-112258500D01*
X59751500Y-111921365D01*
X59780750Y-111850750D01*
X59851365Y-111821500D01*
X61878135Y-111821500D01*
X61948750Y-111850750D01*
X61978000Y-111921365D01*
X61978000Y-112258500D01*
X61987515Y-112306336D01*
X62046094Y-112447757D01*
X62073191Y-112488310D01*
X62113743Y-112515406D01*
X62255164Y-112573985D01*
X62303000Y-112583500D01*
X63935000Y-112583500D01*
X63982836Y-112573985D01*
X64124257Y-112515406D01*
X64164810Y-112488309D01*
X64191906Y-112447757D01*
X64250485Y-112306336D01*
X64260000Y-112258500D01*
X64260000Y-111921365D01*
X64289250Y-111850750D01*
X64359865Y-111821500D01*
X66259635Y-111821500D01*
X66330250Y-111850750D01*
X66359500Y-111921365D01*
X66359500Y-112258500D01*
X66369015Y-112306336D01*
X66427594Y-112447757D01*
X66454691Y-112488310D01*
X66495243Y-112515406D01*
X66636664Y-112573985D01*
X66684500Y-112583500D01*
X67999000Y-112583500D01*
X68046836Y-112573985D01*
X68188257Y-112515406D01*
X68228810Y-112488309D01*
X68255906Y-112447757D01*
X68314485Y-112306336D01*
X68324000Y-112258500D01*
X68324000Y-111921365D01*
X68353250Y-111850750D01*
X68423865Y-111821500D01*
X70450635Y-111821500D01*
X70521250Y-111850750D01*
X70550500Y-111921365D01*
X70550500Y-112258500D01*
X70560015Y-112306336D01*
X70618594Y-112447757D01*
X70645691Y-112488310D01*
X70686243Y-112515406D01*
X70827664Y-112573985D01*
X70875500Y-112583500D01*
X71428000Y-112583500D01*
X71475836Y-112573985D01*
X71617257Y-112515406D01*
X71657810Y-112488309D01*
X71684906Y-112447757D01*
X71743485Y-112306336D01*
X71753000Y-112258500D01*
X71753000Y-110737309D01*
X71756244Y-110721000D01*
X71756244Y-110221000D01*
X71753836Y-110208894D01*
X71753836Y-110171991D01*
X71753000Y-110163503D01*
X71753000Y-110159115D01*
X77397500Y-110159115D01*
X77397500Y-110566885D01*
X77553547Y-110943616D01*
X77841884Y-111231953D01*
X78218615Y-111388000D01*
X78626385Y-111388000D01*
X79003116Y-111231953D01*
X79291453Y-110943616D01*
X79300773Y-110921115D01*
X84192000Y-110921115D01*
X84192000Y-111328885D01*
X84348047Y-111705616D01*
X84636384Y-111993953D01*
X85013115Y-112150000D01*
X85420885Y-112150000D01*
X85797616Y-111993953D01*
X86085953Y-111705616D01*
X86242000Y-111328885D01*
X86242000Y-110921115D01*
X89272000Y-110921115D01*
X89272000Y-111328885D01*
X89428047Y-111705616D01*
X89716384Y-111993953D01*
X90093115Y-112150000D01*
X90500885Y-112150000D01*
X90877616Y-111993953D01*
X91165953Y-111705616D01*
X91322000Y-111328885D01*
X91322000Y-110921115D01*
X91165953Y-110544384D01*
X90877616Y-110256047D01*
X90500885Y-110100000D01*
X90093115Y-110100000D01*
X89716384Y-110256047D01*
X89428047Y-110544384D01*
X89272000Y-110921115D01*
X86242000Y-110921115D01*
X86085953Y-110544384D01*
X85797616Y-110256047D01*
X85420885Y-110100000D01*
X85013115Y-110100000D01*
X84636384Y-110256047D01*
X84348047Y-110544384D01*
X84192000Y-110921115D01*
X79300773Y-110921115D01*
X79447500Y-110566885D01*
X79447500Y-110159115D01*
X79291453Y-109782384D01*
X79003116Y-109494047D01*
X78626385Y-109338000D01*
X78218615Y-109338000D01*
X77841884Y-109494047D01*
X77553547Y-109782384D01*
X77397500Y-110159115D01*
X71753000Y-110159115D01*
X71753000Y-107793865D01*
X71782250Y-107723250D01*
X71852865Y-107694000D01*
X75238000Y-107694000D01*
X75285836Y-107684485D01*
X75427257Y-107625906D01*
X75467810Y-107598809D01*
X75494906Y-107558257D01*
X75553485Y-107416836D01*
X75563000Y-107369000D01*
X75563000Y-107089389D01*
X77829139Y-107089389D01*
X77983106Y-107314645D01*
X78705240Y-107389765D01*
X79082894Y-107314645D01*
X79236861Y-107089389D01*
X78623587Y-106476115D01*
X83811000Y-106476115D01*
X83811000Y-106883885D01*
X83967047Y-107260616D01*
X84255384Y-107548953D01*
X84632115Y-107705000D01*
X85039885Y-107705000D01*
X85344000Y-107579032D01*
X85648115Y-107705000D01*
X86055885Y-107705000D01*
X86360000Y-107579032D01*
X86664115Y-107705000D01*
X87071885Y-107705000D01*
X87448616Y-107548953D01*
X87736953Y-107260616D01*
X87893000Y-106883885D01*
X87893000Y-106730115D01*
X92828000Y-106730115D01*
X92828000Y-107137885D01*
X92984047Y-107514616D01*
X93272384Y-107802953D01*
X93649115Y-107959000D01*
X94056885Y-107959000D01*
X94433616Y-107802953D01*
X94721953Y-107514616D01*
X94878000Y-107137885D01*
X94878000Y-106730115D01*
X94721953Y-106353384D01*
X94433616Y-106065047D01*
X94056885Y-105909000D01*
X93649115Y-105909000D01*
X93272384Y-106065047D01*
X92984047Y-106353384D01*
X92828000Y-106730115D01*
X87893000Y-106730115D01*
X87893000Y-106476115D01*
X87736953Y-106099384D01*
X87448616Y-105811047D01*
X87071885Y-105655000D01*
X86664115Y-105655000D01*
X86360000Y-105780968D01*
X86055885Y-105655000D01*
X85648115Y-105655000D01*
X85344000Y-105780968D01*
X85039885Y-105655000D01*
X84632115Y-105655000D01*
X84255384Y-105811047D01*
X83967047Y-106099384D01*
X83811000Y-106476115D01*
X78623587Y-106476115D01*
X78533000Y-106385528D01*
X77829139Y-107089389D01*
X75563000Y-107089389D01*
X75563000Y-105709240D01*
X76680235Y-105709240D01*
X76755355Y-106086894D01*
X76980611Y-106240861D01*
X77684472Y-105537000D01*
X79381528Y-105537000D01*
X80085389Y-106240861D01*
X80310645Y-106086894D01*
X80385765Y-105364760D01*
X80310645Y-104987106D01*
X80085389Y-104833139D01*
X79381528Y-105537000D01*
X77684472Y-105537000D01*
X76980611Y-104833139D01*
X76755355Y-104987106D01*
X76680235Y-105709240D01*
X75563000Y-105709240D01*
X75563000Y-103984611D01*
X77829139Y-103984611D01*
X78533000Y-104688472D01*
X79236861Y-103984611D01*
X79082894Y-103759355D01*
X78360760Y-103684235D01*
X77983106Y-103759355D01*
X77829139Y-103984611D01*
X75563000Y-103984611D01*
X75563000Y-102094615D01*
X103686500Y-102094615D01*
X103686500Y-102502385D01*
X103842547Y-102879116D01*
X104130884Y-103167453D01*
X104507615Y-103323500D01*
X104915385Y-103323500D01*
X105292116Y-103167453D01*
X105580453Y-102879116D01*
X105736500Y-102502385D01*
X105736500Y-102094615D01*
X105580453Y-101717884D01*
X105292116Y-101429547D01*
X104915385Y-101273500D01*
X104507615Y-101273500D01*
X104130884Y-101429547D01*
X103842547Y-101717884D01*
X103686500Y-102094615D01*
X75563000Y-102094615D01*
X75563000Y-99427615D01*
X103686500Y-99427615D01*
X103686500Y-99835385D01*
X103842547Y-100212116D01*
X104130884Y-100500453D01*
X104507615Y-100656500D01*
X104915385Y-100656500D01*
X105292116Y-100500453D01*
X105580453Y-100212116D01*
X105736500Y-99835385D01*
X105736500Y-99427615D01*
X105580453Y-99050884D01*
X105292116Y-98762547D01*
X104915385Y-98606500D01*
X104507615Y-98606500D01*
X104130884Y-98762547D01*
X103842547Y-99050884D01*
X103686500Y-99427615D01*
X75563000Y-99427615D01*
X75563000Y-98380843D01*
X75553485Y-98333008D01*
X75494906Y-98191586D01*
X75467809Y-98151033D01*
X73442391Y-96125615D01*
X88764000Y-96125615D01*
X88764000Y-96533385D01*
X88920047Y-96910116D01*
X89208384Y-97198453D01*
X89585115Y-97354500D01*
X89992885Y-97354500D01*
X90369616Y-97198453D01*
X90657953Y-96910116D01*
X90719878Y-96760615D01*
X103623000Y-96760615D01*
X103623000Y-97168385D01*
X103779047Y-97545116D01*
X104067384Y-97833453D01*
X104444115Y-97989500D01*
X104851885Y-97989500D01*
X105228616Y-97833453D01*
X105516953Y-97545116D01*
X105673000Y-97168385D01*
X105673000Y-96760615D01*
X105516953Y-96383884D01*
X105228616Y-96095547D01*
X104851885Y-95939500D01*
X104444115Y-95939500D01*
X104067384Y-96095547D01*
X103779047Y-96383884D01*
X103623000Y-96760615D01*
X90719878Y-96760615D01*
X90814000Y-96533385D01*
X90814000Y-96125615D01*
X90657953Y-95748884D01*
X90369616Y-95460547D01*
X89992885Y-95304500D01*
X89585115Y-95304500D01*
X89208384Y-95460547D01*
X88920047Y-95748884D01*
X88764000Y-96125615D01*
X73442391Y-96125615D01*
X72300549Y-94983773D01*
X72261806Y-94890239D01*
X72262500Y-94886751D01*
X72262500Y-94886748D01*
X72278661Y-94805501D01*
X72262500Y-94724253D01*
X72262500Y-94411115D01*
X90732500Y-94411115D01*
X90732500Y-94818885D01*
X90888547Y-95195616D01*
X91176884Y-95483953D01*
X91553615Y-95640000D01*
X91757196Y-95640000D01*
X91829357Y-95712161D01*
X91869805Y-95772695D01*
X92109619Y-95932935D01*
X92321096Y-95975000D01*
X92321100Y-95975000D01*
X92392500Y-95989202D01*
X92463900Y-95975000D01*
X99922931Y-95975000D01*
X100066884Y-96118953D01*
X100443615Y-96275000D01*
X100851385Y-96275000D01*
X101228116Y-96118953D01*
X101516453Y-95830616D01*
X101672500Y-95453885D01*
X101672500Y-95046115D01*
X101516453Y-94669384D01*
X101228116Y-94381047D01*
X100851385Y-94225000D01*
X100443615Y-94225000D01*
X100066884Y-94381047D01*
X99922931Y-94525000D01*
X99716008Y-94525000D01*
X99831000Y-94247385D01*
X99831000Y-93839615D01*
X99674953Y-93462884D01*
X99386616Y-93174547D01*
X99051683Y-93035813D01*
X98912951Y-92700884D01*
X98624614Y-92412547D01*
X98247883Y-92256500D01*
X97863156Y-92256500D01*
X97682863Y-92076207D01*
X97306132Y-91920160D01*
X96898362Y-91920160D01*
X96521631Y-92076207D01*
X96377678Y-92220160D01*
X93690748Y-92220160D01*
X93619349Y-92205958D01*
X93547950Y-92220160D01*
X93547946Y-92220160D01*
X93336469Y-92262225D01*
X93250003Y-92320000D01*
X93015625Y-92320000D01*
X92638894Y-92476047D01*
X92350557Y-92764384D01*
X92194510Y-93141115D01*
X92194510Y-93548885D01*
X92263349Y-93715078D01*
X91961385Y-93590000D01*
X91553615Y-93590000D01*
X91176884Y-93746047D01*
X90888547Y-94034384D01*
X90732500Y-94411115D01*
X72262500Y-94411115D01*
X72262500Y-93461569D01*
X72306453Y-93417616D01*
X72462500Y-93040885D01*
X72462500Y-92633115D01*
X72306453Y-92256384D01*
X72261000Y-92210931D01*
X72261000Y-92084500D01*
X72251485Y-92036664D01*
X72230914Y-91987000D01*
X77252756Y-91987000D01*
X77252756Y-93687000D01*
X77301263Y-93930863D01*
X77439400Y-94137600D01*
X77646137Y-94275737D01*
X77890000Y-94324244D01*
X79590000Y-94324244D01*
X79833863Y-94275737D01*
X80040600Y-94137600D01*
X80178737Y-93930863D01*
X80202562Y-93811085D01*
X80297726Y-93937390D01*
X80639277Y-94165571D01*
X80855000Y-94085390D01*
X80855000Y-93262000D01*
X81705000Y-93262000D01*
X81705000Y-94085390D01*
X81920723Y-94165571D01*
X82262274Y-93937390D01*
X82608604Y-93477728D01*
X82536229Y-93262000D01*
X81705000Y-93262000D01*
X80855000Y-93262000D01*
X80430000Y-93262000D01*
X80430000Y-92412000D01*
X80855000Y-92412000D01*
X80855000Y-91588610D01*
X81705000Y-91588610D01*
X81705000Y-92412000D01*
X82536229Y-92412000D01*
X82608604Y-92196272D01*
X82262274Y-91736610D01*
X81920723Y-91508429D01*
X81705000Y-91588610D01*
X80855000Y-91588610D01*
X80639277Y-91508429D01*
X80297726Y-91736610D01*
X80202562Y-91862915D01*
X80178737Y-91743137D01*
X80040600Y-91536400D01*
X79833863Y-91398263D01*
X79590000Y-91349756D01*
X77890000Y-91349756D01*
X77646137Y-91398263D01*
X77439400Y-91536400D01*
X77301263Y-91743137D01*
X77252756Y-91987000D01*
X72230914Y-91987000D01*
X72192906Y-91895243D01*
X72165809Y-91854690D01*
X72125257Y-91827594D01*
X71983836Y-91769015D01*
X71936000Y-91759500D01*
X60341205Y-91759500D01*
X60324296Y-91758456D01*
X46187471Y-90006992D01*
X46124287Y-89973683D01*
X46099000Y-89906883D01*
X46099000Y-89671222D01*
X46124305Y-89604404D01*
X46187522Y-89571110D01*
X49162803Y-89204115D01*
X78286500Y-89204115D01*
X78286500Y-89611885D01*
X78442547Y-89988616D01*
X78730884Y-90276953D01*
X79107615Y-90433000D01*
X79515385Y-90433000D01*
X79892116Y-90276953D01*
X80180453Y-89988616D01*
X80336500Y-89611885D01*
X80336500Y-89204115D01*
X80180453Y-88827384D01*
X79892116Y-88539047D01*
X79515385Y-88383000D01*
X79107615Y-88383000D01*
X78730884Y-88539047D01*
X78442547Y-88827384D01*
X78286500Y-89204115D01*
X49162803Y-89204115D01*
X60387800Y-87819534D01*
X60404626Y-87818500D01*
X71936000Y-87818500D01*
X71983836Y-87808985D01*
X72125257Y-87750406D01*
X72165810Y-87723309D01*
X72192906Y-87682757D01*
X72251485Y-87541336D01*
X72261000Y-87493500D01*
X72261000Y-87303569D01*
X72306453Y-87258116D01*
X72399809Y-87032733D01*
X80801418Y-87032733D01*
X80801418Y-87440503D01*
X80957465Y-87817234D01*
X81245802Y-88105571D01*
X81622533Y-88261618D01*
X82030303Y-88261618D01*
X82407034Y-88105571D01*
X82695371Y-87817234D01*
X82851418Y-87440503D01*
X82851418Y-87032733D01*
X82695371Y-86656002D01*
X82407034Y-86367665D01*
X82030303Y-86211618D01*
X81622533Y-86211618D01*
X81245802Y-86367665D01*
X80957465Y-86656002D01*
X80801418Y-87032733D01*
X72399809Y-87032733D01*
X72462500Y-86881385D01*
X72462500Y-86473615D01*
X72306453Y-86096884D01*
X72262500Y-86052931D01*
X72262500Y-85044247D01*
X72278661Y-84963000D01*
X72271521Y-84927104D01*
X72305093Y-84851212D01*
X75647119Y-81813007D01*
X75677349Y-81771083D01*
X75742814Y-81623095D01*
X75753500Y-81572526D01*
X75753500Y-79425115D01*
X85906498Y-79425115D01*
X85906498Y-79832885D01*
X86062545Y-80209616D01*
X86350882Y-80497953D01*
X86727613Y-80654000D01*
X87135383Y-80654000D01*
X87512114Y-80497953D01*
X87656067Y-80354000D01*
X88700500Y-80354000D01*
X88700500Y-80531385D01*
X88856547Y-80908116D01*
X89144884Y-81196453D01*
X89521615Y-81352500D01*
X89725196Y-81352500D01*
X90207001Y-81834305D01*
X90207001Y-81952430D01*
X90063047Y-82096384D01*
X89913783Y-82456739D01*
X88927240Y-81470196D01*
X88927240Y-81266615D01*
X88771193Y-80889884D01*
X88482856Y-80601547D01*
X88106125Y-80445500D01*
X87698355Y-80445500D01*
X87321624Y-80601547D01*
X87033287Y-80889884D01*
X86877240Y-81266615D01*
X86877240Y-81674385D01*
X87033287Y-82051116D01*
X87321624Y-82339453D01*
X87698355Y-82495500D01*
X87901936Y-82495500D01*
X89146333Y-83739897D01*
X89145000Y-83743115D01*
X89145000Y-84150885D01*
X89301047Y-84527616D01*
X89589384Y-84815953D01*
X89966115Y-84972000D01*
X90373885Y-84972000D01*
X90647921Y-84858490D01*
X90668884Y-84879453D01*
X90669000Y-84879501D01*
X90669000Y-85166885D01*
X90825047Y-85543616D01*
X91113384Y-85831953D01*
X91490115Y-85988000D01*
X91897885Y-85988000D01*
X92274616Y-85831953D01*
X92562953Y-85543616D01*
X92719000Y-85166885D01*
X92719000Y-84953934D01*
X92819924Y-84802892D01*
X92819925Y-84802891D01*
X92861990Y-84591414D01*
X92861990Y-84591410D01*
X92876192Y-84520011D01*
X92861990Y-84448612D01*
X92861990Y-78639069D01*
X93005943Y-78495116D01*
X93161990Y-78118385D01*
X93161990Y-77710615D01*
X93005943Y-77333884D01*
X92717606Y-77045547D01*
X92340875Y-76889500D01*
X91933105Y-76889500D01*
X91556374Y-77045547D01*
X91408854Y-77193067D01*
X91135885Y-77080000D01*
X90728115Y-77080000D01*
X90351384Y-77236047D01*
X90063047Y-77524384D01*
X89924314Y-77859314D01*
X89589384Y-77998047D01*
X89301047Y-78286384D01*
X89145000Y-78663115D01*
X89145000Y-78866696D01*
X89107696Y-78904000D01*
X87656067Y-78904000D01*
X87512114Y-78760047D01*
X87135383Y-78604000D01*
X86727613Y-78604000D01*
X86350882Y-78760047D01*
X86062545Y-79048384D01*
X85906498Y-79425115D01*
X75753500Y-79425115D01*
X75753500Y-75910889D01*
X78019639Y-75910889D01*
X78173606Y-76136145D01*
X78895740Y-76211265D01*
X79273394Y-76136145D01*
X79427361Y-75910889D01*
X78723500Y-75207028D01*
X78019639Y-75910889D01*
X75753500Y-75910889D01*
X75753500Y-74530740D01*
X76870735Y-74530740D01*
X76945855Y-74908394D01*
X77171111Y-75062361D01*
X77874972Y-74358500D01*
X79572028Y-74358500D01*
X80275889Y-75062361D01*
X80501145Y-74908394D01*
X80576265Y-74186260D01*
X80501145Y-73808606D01*
X80275889Y-73654639D01*
X79572028Y-74358500D01*
X77874972Y-74358500D01*
X77171111Y-73654639D01*
X76945855Y-73808606D01*
X76870735Y-74530740D01*
X75753500Y-74530740D01*
X75753500Y-72806111D01*
X78019639Y-72806111D01*
X78723500Y-73509972D01*
X79158357Y-73075115D01*
X96066502Y-73075115D01*
X96066502Y-73482885D01*
X96222549Y-73859616D01*
X96510886Y-74147953D01*
X96887617Y-74304000D01*
X97295387Y-74304000D01*
X97672118Y-74147953D01*
X97816071Y-74004000D01*
X98271931Y-74004000D01*
X98415884Y-74147953D01*
X98792615Y-74304000D01*
X99200385Y-74304000D01*
X99577116Y-74147953D01*
X99865453Y-73859616D01*
X100021500Y-73482885D01*
X100021500Y-73075115D01*
X99865453Y-72698384D01*
X99577116Y-72410047D01*
X99200385Y-72254000D01*
X98792615Y-72254000D01*
X98415884Y-72410047D01*
X98271931Y-72554000D01*
X97816071Y-72554000D01*
X97672118Y-72410047D01*
X97295387Y-72254000D01*
X96887617Y-72254000D01*
X96510886Y-72410047D01*
X96222549Y-72698384D01*
X96066502Y-73075115D01*
X79158357Y-73075115D01*
X79427361Y-72806111D01*
X79273394Y-72580855D01*
X78551260Y-72505735D01*
X78173606Y-72580855D01*
X78019639Y-72806111D01*
X75753500Y-72806111D01*
X75753500Y-72272500D01*
X75743985Y-72224664D01*
X75685406Y-72083243D01*
X75658309Y-72042690D01*
X75617757Y-72015594D01*
X75476336Y-71957015D01*
X75428500Y-71947500D01*
X72233865Y-71947500D01*
X72163250Y-71918250D01*
X72134000Y-71847635D01*
X72134000Y-68757115D01*
X92002500Y-68757115D01*
X92002500Y-69164885D01*
X92158547Y-69541616D01*
X92446884Y-69829953D01*
X92823615Y-69986000D01*
X93231385Y-69986000D01*
X93505421Y-69872490D01*
X93526384Y-69893453D01*
X93903115Y-70049500D01*
X94106695Y-70049500D01*
X94369359Y-70312164D01*
X94409805Y-70372695D01*
X94470336Y-70413141D01*
X94470337Y-70413142D01*
X94547337Y-70464592D01*
X94649619Y-70532935D01*
X94861096Y-70575000D01*
X94861100Y-70575000D01*
X94932499Y-70589202D01*
X95003898Y-70575000D01*
X99287931Y-70575000D01*
X99431884Y-70718953D01*
X99808615Y-70875000D01*
X100216385Y-70875000D01*
X100593116Y-70718953D01*
X100881453Y-70430616D01*
X101037500Y-70053885D01*
X101037500Y-69646115D01*
X100881453Y-69269384D01*
X100593116Y-68981047D01*
X100216385Y-68825000D01*
X99808615Y-68825000D01*
X99570283Y-68923720D01*
X99777599Y-68785195D01*
X99818046Y-68724662D01*
X100364255Y-68178454D01*
X100567835Y-68178454D01*
X100944566Y-68022407D01*
X101232903Y-67734070D01*
X101388950Y-67357339D01*
X101388950Y-66949569D01*
X101232903Y-66572838D01*
X100944566Y-66284501D01*
X100628580Y-66153615D01*
X102543500Y-66153615D01*
X102543500Y-66561385D01*
X102699547Y-66938116D01*
X102987884Y-67226453D01*
X103364615Y-67382500D01*
X103772385Y-67382500D01*
X104149116Y-67226453D01*
X104437453Y-66938116D01*
X104593500Y-66561385D01*
X104593500Y-66153615D01*
X104437453Y-65776884D01*
X104149116Y-65488547D01*
X103772385Y-65332500D01*
X103364615Y-65332500D01*
X102987884Y-65488547D01*
X102699547Y-65776884D01*
X102543500Y-66153615D01*
X100628580Y-66153615D01*
X100567835Y-66128454D01*
X100160065Y-66128454D01*
X99783334Y-66284501D01*
X99494997Y-66572838D01*
X99338950Y-66949569D01*
X99338950Y-67153149D01*
X98954600Y-67537500D01*
X93797398Y-67537500D01*
X93725999Y-67523298D01*
X93654600Y-67537500D01*
X93654596Y-67537500D01*
X93443119Y-67579565D01*
X93443117Y-67579566D01*
X93443118Y-67579566D01*
X93263837Y-67699358D01*
X93263836Y-67699359D01*
X93203305Y-67739805D01*
X93162859Y-67800336D01*
X93027195Y-67936000D01*
X92823615Y-67936000D01*
X92446884Y-68092047D01*
X92158547Y-68380384D01*
X92002500Y-68757115D01*
X72134000Y-68757115D01*
X72134000Y-67383000D01*
X72124485Y-67335164D01*
X72065906Y-67193743D01*
X72038809Y-67153190D01*
X71998257Y-67126094D01*
X71856836Y-67067515D01*
X71809000Y-67058000D01*
X71002500Y-67058000D01*
X70954664Y-67067515D01*
X70813243Y-67126094D01*
X70772690Y-67153191D01*
X70745594Y-67193743D01*
X70687015Y-67335164D01*
X70677500Y-67383000D01*
X70677500Y-67593135D01*
X70648250Y-67663750D01*
X70577635Y-67693000D01*
X68614365Y-67693000D01*
X68543750Y-67663750D01*
X68514500Y-67593135D01*
X68514500Y-67383000D01*
X68504985Y-67335164D01*
X68446406Y-67193743D01*
X68419309Y-67153190D01*
X68378757Y-67126094D01*
X68237336Y-67067515D01*
X68189500Y-67058000D01*
X66875000Y-67058000D01*
X66827164Y-67067515D01*
X66685743Y-67126094D01*
X66645190Y-67153191D01*
X66618094Y-67193743D01*
X66559515Y-67335164D01*
X66550000Y-67383000D01*
X66550000Y-67656635D01*
X66520750Y-67727250D01*
X66450135Y-67756500D01*
X64550365Y-67756500D01*
X64479750Y-67727250D01*
X64450500Y-67656635D01*
X64450500Y-67383000D01*
X64440985Y-67335164D01*
X64382406Y-67193743D01*
X64355309Y-67153190D01*
X64314757Y-67126094D01*
X64173336Y-67067515D01*
X64125500Y-67058000D01*
X62684000Y-67058000D01*
X62636164Y-67067515D01*
X62494743Y-67126094D01*
X62454190Y-67153191D01*
X62427094Y-67193743D01*
X62368515Y-67335164D01*
X62359000Y-67383000D01*
X62359000Y-67656635D01*
X62329750Y-67727250D01*
X62259135Y-67756500D01*
X60422865Y-67756500D01*
X60352250Y-67727250D01*
X60323000Y-67656635D01*
X60323000Y-67383000D01*
X60313485Y-67335164D01*
X60254906Y-67193743D01*
X60227809Y-67153190D01*
X60187257Y-67126094D01*
X60045836Y-67067515D01*
X59998000Y-67058000D01*
X58556500Y-67058000D01*
X58508664Y-67067515D01*
X58367243Y-67126094D01*
X58326690Y-67153191D01*
X58299594Y-67193743D01*
X58241015Y-67335164D01*
X58231500Y-67383000D01*
X58231500Y-67720135D01*
X58202250Y-67790750D01*
X58131635Y-67820000D01*
X56104865Y-67820000D01*
X56034250Y-67790750D01*
X56005000Y-67720135D01*
X56005000Y-67383000D01*
X55995485Y-67335164D01*
X55936906Y-67193743D01*
X55909809Y-67153190D01*
X55869257Y-67126094D01*
X55727836Y-67067515D01*
X55680000Y-67058000D01*
X55000500Y-67058000D01*
X54952664Y-67067515D01*
X54811243Y-67126094D01*
X54770690Y-67153191D01*
X54743594Y-67193743D01*
X54685015Y-67335164D01*
X54675500Y-67383000D01*
X54675500Y-70313793D01*
X54635951Y-70409273D01*
X53121916Y-71923308D01*
X53045950Y-71961611D01*
X41275811Y-73723985D01*
X41255463Y-73725500D01*
X38389261Y-73725500D01*
X37846000Y-73182239D01*
X37302739Y-73725500D01*
X34482000Y-73725500D01*
X34482000Y-72462710D01*
X35893475Y-72462710D01*
X35965676Y-72825692D01*
X36194573Y-72995188D01*
X36926761Y-72263000D01*
X38765239Y-72263000D01*
X39497427Y-72995188D01*
X39726324Y-72825692D01*
X39798525Y-72063290D01*
X39726324Y-71700308D01*
X39497427Y-71530812D01*
X38765239Y-72263000D01*
X36926761Y-72263000D01*
X36194573Y-71530812D01*
X35965676Y-71700308D01*
X35893475Y-72462710D01*
X34482000Y-72462710D01*
X34482000Y-70611573D01*
X37113812Y-70611573D01*
X37846000Y-71343761D01*
X38578188Y-70611573D01*
X38408692Y-70382676D01*
X37646290Y-70310475D01*
X37283308Y-70382676D01*
X37113812Y-70611573D01*
X34482000Y-70611573D01*
X34482000Y-64557420D01*
X35188000Y-64557420D01*
X35188000Y-65442580D01*
X35526736Y-66260361D01*
X36152639Y-66886264D01*
X36970420Y-67225000D01*
X37855580Y-67225000D01*
X38673361Y-66886264D01*
X39299264Y-66260361D01*
X39638000Y-65442580D01*
X39638000Y-64557420D01*
X39299264Y-63739639D01*
X38673361Y-63113736D01*
X37855580Y-62775000D01*
X36970420Y-62775000D01*
X36152639Y-63113736D01*
X35526736Y-63739639D01*
X35188000Y-64557420D01*
X34482000Y-64557420D01*
X34482000Y-63535948D01*
X35976949Y-62041000D01*
X77298108Y-62041000D01*
X77252756Y-62269000D01*
X77252756Y-62269000D01*
G37*
X77252756Y-62269000D02*
X77252756Y-63969000D01*
X77301263Y-64212863D01*
X77439400Y-64419600D01*
X77646137Y-64557737D01*
X77890000Y-64606244D01*
X79590000Y-64606244D01*
X79833863Y-64557737D01*
X80040600Y-64419600D01*
X80178737Y-64212863D01*
X80202562Y-64093085D01*
X80297726Y-64219390D01*
X80639277Y-64447571D01*
X80855000Y-64367390D01*
X80855000Y-63544000D01*
X80430000Y-63544000D01*
X80430000Y-62694000D01*
X80855000Y-62694000D01*
X80855000Y-62269000D01*
X81705000Y-62269000D01*
X81705000Y-62694000D01*
X82130000Y-62694000D01*
X82130000Y-63544000D01*
X81705000Y-63544000D01*
X81705000Y-64367390D01*
X81920723Y-64447571D01*
X82262274Y-64219390D01*
X82432091Y-63994002D01*
X82630691Y-63994002D01*
X82756585Y-64182415D01*
X83244484Y-64508419D01*
X83674730Y-64594000D01*
X83965270Y-64594000D01*
X84395516Y-64508419D01*
X84883415Y-64182415D01*
X85090000Y-63873239D01*
X85296585Y-64182415D01*
X85784484Y-64508419D01*
X86214730Y-64594000D01*
X86505270Y-64594000D01*
X86935516Y-64508419D01*
X87423415Y-64182415D01*
X87630000Y-63873239D01*
X87836585Y-64182415D01*
X88324484Y-64508419D01*
X88754730Y-64594000D01*
X89045270Y-64594000D01*
X89475516Y-64508419D01*
X89963415Y-64182415D01*
X90170000Y-63873239D01*
X90376585Y-64182415D01*
X90864484Y-64508419D01*
X91294730Y-64594000D01*
X91585270Y-64594000D01*
X92015516Y-64508419D01*
X92503415Y-64182415D01*
X92710000Y-63873239D01*
X92916585Y-64182415D01*
X93404484Y-64508419D01*
X93834730Y-64594000D01*
X94125270Y-64594000D01*
X94555516Y-64508419D01*
X95043415Y-64182415D01*
X95250000Y-63873239D01*
X95456585Y-64182415D01*
X95944484Y-64508419D01*
X96374730Y-64594000D01*
X96665270Y-64594000D01*
X97095516Y-64508419D01*
X97583415Y-64182415D01*
X97790000Y-63873239D01*
X97996585Y-64182415D01*
X98484484Y-64508419D01*
X98914730Y-64594000D01*
X99205270Y-64594000D01*
X99635516Y-64508419D01*
X100123415Y-64182415D01*
X100330000Y-63873239D01*
X100536585Y-64182415D01*
X101024484Y-64508419D01*
X101454730Y-64594000D01*
X101745270Y-64594000D01*
X101929170Y-64557420D01*
X105519500Y-64557420D01*
X105519500Y-65442580D01*
X105858236Y-66260361D01*
X106484139Y-66886264D01*
X107301920Y-67225000D01*
X108187080Y-67225000D01*
X109004861Y-66886264D01*
X109630764Y-66260361D01*
X109969500Y-65442580D01*
X109969500Y-64557420D01*
X109630764Y-63739639D01*
X109004861Y-63113736D01*
X108187080Y-62775000D01*
X107301920Y-62775000D01*
X106484139Y-63113736D01*
X105858236Y-63739639D01*
X105519500Y-64557420D01*
X101929170Y-64557420D01*
X102175516Y-64508419D01*
X102663415Y-64182415D01*
X102989419Y-63694516D01*
X103103896Y-63119000D01*
X102989419Y-62543484D01*
X102663415Y-62055585D01*
X102641587Y-62041000D01*
X109184052Y-62041000D01*
X110679000Y-63535949D01*
X110679000Y-69090000D01*
X104095843Y-69090000D01*
X104048008Y-69099515D01*
X103906586Y-69158094D01*
X103866033Y-69185191D01*
X103475191Y-69576033D01*
X103448094Y-69616586D01*
X103389515Y-69758008D01*
X103380000Y-69805843D01*
X103380000Y-91484157D01*
X103389515Y-91531992D01*
X103448094Y-91673414D01*
X103475191Y-91713967D01*
X103866033Y-92104809D01*
X103906586Y-92131906D01*
X104048008Y-92190485D01*
X104095843Y-92200000D01*
X110679001Y-92200000D01*
X110679001Y-116423050D01*
X109184052Y-117918000D01*
X102641587Y-117918000D01*
X102663415Y-117903415D01*
X102989419Y-117415516D01*
X103103896Y-116840000D01*
X102989419Y-116264484D01*
X102663415Y-115776585D01*
X102175516Y-115450581D01*
X101745270Y-115365000D01*
X101454730Y-115365000D01*
X101024484Y-115450581D01*
X100536585Y-115776585D01*
X100330000Y-116085761D01*
X100123415Y-115776585D01*
X99635516Y-115450581D01*
X99205270Y-115365000D01*
X98914730Y-115365000D01*
X98484484Y-115450581D01*
X97996585Y-115776585D01*
X97790000Y-116085761D01*
X97583415Y-115776585D01*
X97095516Y-115450581D01*
X96665270Y-115365000D01*
X96480305Y-115365000D01*
X97108857Y-114736448D01*
X97291118Y-114660953D01*
X97394651Y-114557420D01*
X105519500Y-114557420D01*
X105519500Y-115442580D01*
X105858236Y-116260361D01*
X106484139Y-116886264D01*
X107301920Y-117225000D01*
X108187080Y-117225000D01*
X109004861Y-116886264D01*
X109630764Y-116260361D01*
X109969500Y-115442580D01*
X109969500Y-114557420D01*
X109630764Y-113739639D01*
X109004861Y-113113736D01*
X108187080Y-112775000D01*
X107301920Y-112775000D01*
X106484139Y-113113736D01*
X105858236Y-113739639D01*
X105519500Y-114557420D01*
X97394651Y-114557420D01*
X97579455Y-114372616D01*
X97735502Y-113995885D01*
X97735502Y-113588115D01*
X97579455Y-113211384D01*
X97291118Y-112923047D01*
X96914387Y-112767000D01*
X96506617Y-112767000D01*
X96129886Y-112923047D01*
X95841549Y-113211384D01*
X95685502Y-113588115D01*
X95685502Y-113995885D01*
X95718689Y-114076006D01*
X94379188Y-115415507D01*
X94125270Y-115365000D01*
X93834730Y-115365000D01*
X93404484Y-115450581D01*
X92916585Y-115776585D01*
X92710000Y-116085761D01*
X92503415Y-115776585D01*
X92015516Y-115450581D01*
X91585270Y-115365000D01*
X91294730Y-115365000D01*
X90864484Y-115450581D01*
X90376585Y-115776585D01*
X90170000Y-116085761D01*
X89963415Y-115776585D01*
X89475516Y-115450581D01*
X89045270Y-115365000D01*
X88754730Y-115365000D01*
X88324484Y-115450581D01*
X87836585Y-115776585D01*
X87630000Y-116085761D01*
X87423415Y-115776585D01*
X86935516Y-115450581D01*
X86505270Y-115365000D01*
X86214730Y-115365000D01*
X85784484Y-115450581D01*
X85296585Y-115776585D01*
X85090000Y-116085761D01*
X84883415Y-115776585D01*
X84395516Y-115450581D01*
X83965270Y-115365000D01*
X83674730Y-115365000D01*
X83244484Y-115450581D01*
X82756585Y-115776585D01*
X82630691Y-115964998D01*
X82432091Y-115964998D01*
X82262274Y-115739610D01*
X81920723Y-115511429D01*
X81705000Y-115591610D01*
X81705000Y-116415000D01*
X82130000Y-116415000D01*
X82130000Y-117265000D01*
X81705000Y-117265000D01*
X81705000Y-117690000D01*
X80855000Y-117690000D01*
X80855000Y-117265000D01*
X80430000Y-117265000D01*
X80430000Y-116415000D01*
X80855000Y-116415000D01*
X80855000Y-115591610D01*
X80639277Y-115511429D01*
X80297726Y-115739610D01*
X80202562Y-115865915D01*
X80178737Y-115746137D01*
X80040600Y-115539400D01*
X79833863Y-115401263D01*
X79590000Y-115352756D01*
X77890000Y-115352756D01*
X77646137Y-115401263D01*
X77439400Y-115539400D01*
X77301263Y-115746137D01*
X77252756Y-115990000D01*
X77252756Y-117690000D01*
X77298108Y-117918000D01*
X35976949Y-117918000D01*
X34482000Y-116423052D01*
X34482000Y-114557420D01*
X35188000Y-114557420D01*
X35188000Y-115442580D01*
X35526736Y-116260361D01*
X36152639Y-116886264D01*
X36970420Y-117225000D01*
X37855580Y-117225000D01*
X38673361Y-116886264D01*
X39299264Y-116260361D01*
X39638000Y-115442580D01*
X39638000Y-114557420D01*
X39299264Y-113739639D01*
X38673361Y-113113736D01*
X37855580Y-112775000D01*
X36970420Y-112775000D01*
X36152639Y-113113736D01*
X35526736Y-113739639D01*
X35188000Y-114557420D01*
X34482000Y-114557420D01*
X34482000Y-106949250D01*
X39467500Y-106949250D01*
X39467500Y-107792320D01*
X39562651Y-108022034D01*
X39738466Y-108197850D01*
X39968180Y-108293000D01*
X40686250Y-108293000D01*
X40842500Y-108136750D01*
X40842500Y-106793000D01*
X42342500Y-106793000D01*
X42342500Y-108136750D01*
X42498750Y-108293000D01*
X43216820Y-108293000D01*
X43446534Y-108197850D01*
X43622349Y-108022034D01*
X43717500Y-107792320D01*
X43717500Y-106949250D01*
X43561250Y-106793000D01*
X42342500Y-106793000D01*
X40842500Y-106793000D01*
X39623750Y-106793000D01*
X39467500Y-106949250D01*
X34482000Y-106949250D01*
X34482000Y-104043680D01*
X39467500Y-104043680D01*
X39467500Y-104886750D01*
X39623750Y-105043000D01*
X40842500Y-105043000D01*
X40842500Y-103699250D01*
X40686250Y-103543000D01*
X39968180Y-103543000D01*
X39738466Y-103638150D01*
X39562651Y-103813966D01*
X39467500Y-104043680D01*
X34482000Y-104043680D01*
X34482000Y-100264500D01*
X39774671Y-100264500D01*
X39867428Y-100301333D01*
X43375090Y-103608557D01*
X43216820Y-103543000D01*
X42498750Y-103543000D01*
X42342500Y-103699250D01*
X42342500Y-105043000D01*
X43561250Y-105043000D01*
X43717500Y-104886750D01*
X43717500Y-104043680D01*
X43641190Y-103859451D01*
X44155665Y-104344528D01*
X44198000Y-104442629D01*
X44198000Y-108230756D01*
X43717500Y-108230756D01*
X43138789Y-108345869D01*
X42648182Y-108673682D01*
X42320369Y-109164289D01*
X42205256Y-109743000D01*
X42205256Y-111493000D01*
X42320369Y-112071711D01*
X42648182Y-112562318D01*
X43138789Y-112890131D01*
X43717500Y-113005244D01*
X45467500Y-113005244D01*
X46046211Y-112890131D01*
X46536818Y-112562318D01*
X46864631Y-112071711D01*
X46979744Y-111493000D01*
X46979744Y-110234000D01*
X54131135Y-110234000D01*
X54201750Y-110263250D01*
X54231000Y-110333865D01*
X54231000Y-112258500D01*
X54240515Y-112306336D01*
X54299094Y-112447757D01*
X54326191Y-112488310D01*
X54366743Y-112515406D01*
X54508164Y-112573985D01*
X54556000Y-112583500D01*
X55489500Y-112583500D01*
X55537336Y-112573985D01*
X55678757Y-112515406D01*
X55719310Y-112488309D01*
X55746406Y-112447757D01*
X55804985Y-112306336D01*
X55814500Y-112258500D01*
X55814500Y-111921365D01*
X55843750Y-111850750D01*
X55914365Y-111821500D01*
X57750635Y-111821500D01*
X57821250Y-111850750D01*
X57850500Y-111921365D01*
X57850500Y-112258500D01*
X57860015Y-112306336D01*
X57918594Y-112447757D01*
X57945691Y-112488310D01*
X57986243Y-112515406D01*
X58127664Y-112573985D01*
X58175500Y-112583500D01*
X59426500Y-112583500D01*
X59474336Y-112573985D01*
X59615757Y-112515406D01*
X59656310Y-112488309D01*
X59683406Y-112447757D01*
X59741985Y-112306336D01*
X59751500Y-112258500D01*
X59751500Y-111921365D01*
X59780750Y-111850750D01*
X59851365Y-111821500D01*
X61878135Y-111821500D01*
X61948750Y-111850750D01*
X61978000Y-111921365D01*
X61978000Y-112258500D01*
X61987515Y-112306336D01*
X62046094Y-112447757D01*
X62073191Y-112488310D01*
X62113743Y-112515406D01*
X62255164Y-112573985D01*
X62303000Y-112583500D01*
X63935000Y-112583500D01*
X63982836Y-112573985D01*
X64124257Y-112515406D01*
X64164810Y-112488309D01*
X64191906Y-112447757D01*
X64250485Y-112306336D01*
X64260000Y-112258500D01*
X64260000Y-111921365D01*
X64289250Y-111850750D01*
X64359865Y-111821500D01*
X66259635Y-111821500D01*
X66330250Y-111850750D01*
X66359500Y-111921365D01*
X66359500Y-112258500D01*
X66369015Y-112306336D01*
X66427594Y-112447757D01*
X66454691Y-112488310D01*
X66495243Y-112515406D01*
X66636664Y-112573985D01*
X66684500Y-112583500D01*
X67999000Y-112583500D01*
X68046836Y-112573985D01*
X68188257Y-112515406D01*
X68228810Y-112488309D01*
X68255906Y-112447757D01*
X68314485Y-112306336D01*
X68324000Y-112258500D01*
X68324000Y-111921365D01*
X68353250Y-111850750D01*
X68423865Y-111821500D01*
X70450635Y-111821500D01*
X70521250Y-111850750D01*
X70550500Y-111921365D01*
X70550500Y-112258500D01*
X70560015Y-112306336D01*
X70618594Y-112447757D01*
X70645691Y-112488310D01*
X70686243Y-112515406D01*
X70827664Y-112573985D01*
X70875500Y-112583500D01*
X71428000Y-112583500D01*
X71475836Y-112573985D01*
X71617257Y-112515406D01*
X71657810Y-112488309D01*
X71684906Y-112447757D01*
X71743485Y-112306336D01*
X71753000Y-112258500D01*
X71753000Y-110737309D01*
X71756244Y-110721000D01*
X71756244Y-110221000D01*
X71753836Y-110208894D01*
X71753836Y-110171991D01*
X71753000Y-110163503D01*
X71753000Y-110159115D01*
X77397500Y-110159115D01*
X77397500Y-110566885D01*
X77553547Y-110943616D01*
X77841884Y-111231953D01*
X78218615Y-111388000D01*
X78626385Y-111388000D01*
X79003116Y-111231953D01*
X79291453Y-110943616D01*
X79300773Y-110921115D01*
X84192000Y-110921115D01*
X84192000Y-111328885D01*
X84348047Y-111705616D01*
X84636384Y-111993953D01*
X85013115Y-112150000D01*
X85420885Y-112150000D01*
X85797616Y-111993953D01*
X86085953Y-111705616D01*
X86242000Y-111328885D01*
X86242000Y-110921115D01*
X89272000Y-110921115D01*
X89272000Y-111328885D01*
X89428047Y-111705616D01*
X89716384Y-111993953D01*
X90093115Y-112150000D01*
X90500885Y-112150000D01*
X90877616Y-111993953D01*
X91165953Y-111705616D01*
X91322000Y-111328885D01*
X91322000Y-110921115D01*
X91165953Y-110544384D01*
X90877616Y-110256047D01*
X90500885Y-110100000D01*
X90093115Y-110100000D01*
X89716384Y-110256047D01*
X89428047Y-110544384D01*
X89272000Y-110921115D01*
X86242000Y-110921115D01*
X86085953Y-110544384D01*
X85797616Y-110256047D01*
X85420885Y-110100000D01*
X85013115Y-110100000D01*
X84636384Y-110256047D01*
X84348047Y-110544384D01*
X84192000Y-110921115D01*
X79300773Y-110921115D01*
X79447500Y-110566885D01*
X79447500Y-110159115D01*
X79291453Y-109782384D01*
X79003116Y-109494047D01*
X78626385Y-109338000D01*
X78218615Y-109338000D01*
X77841884Y-109494047D01*
X77553547Y-109782384D01*
X77397500Y-110159115D01*
X71753000Y-110159115D01*
X71753000Y-107793865D01*
X71782250Y-107723250D01*
X71852865Y-107694000D01*
X75238000Y-107694000D01*
X75285836Y-107684485D01*
X75427257Y-107625906D01*
X75467810Y-107598809D01*
X75494906Y-107558257D01*
X75553485Y-107416836D01*
X75563000Y-107369000D01*
X75563000Y-107089389D01*
X77829139Y-107089389D01*
X77983106Y-107314645D01*
X78705240Y-107389765D01*
X79082894Y-107314645D01*
X79236861Y-107089389D01*
X78623587Y-106476115D01*
X83811000Y-106476115D01*
X83811000Y-106883885D01*
X83967047Y-107260616D01*
X84255384Y-107548953D01*
X84632115Y-107705000D01*
X85039885Y-107705000D01*
X85344000Y-107579032D01*
X85648115Y-107705000D01*
X86055885Y-107705000D01*
X86360000Y-107579032D01*
X86664115Y-107705000D01*
X87071885Y-107705000D01*
X87448616Y-107548953D01*
X87736953Y-107260616D01*
X87893000Y-106883885D01*
X87893000Y-106730115D01*
X92828000Y-106730115D01*
X92828000Y-107137885D01*
X92984047Y-107514616D01*
X93272384Y-107802953D01*
X93649115Y-107959000D01*
X94056885Y-107959000D01*
X94433616Y-107802953D01*
X94721953Y-107514616D01*
X94878000Y-107137885D01*
X94878000Y-106730115D01*
X94721953Y-106353384D01*
X94433616Y-106065047D01*
X94056885Y-105909000D01*
X93649115Y-105909000D01*
X93272384Y-106065047D01*
X92984047Y-106353384D01*
X92828000Y-106730115D01*
X87893000Y-106730115D01*
X87893000Y-106476115D01*
X87736953Y-106099384D01*
X87448616Y-105811047D01*
X87071885Y-105655000D01*
X86664115Y-105655000D01*
X86360000Y-105780968D01*
X86055885Y-105655000D01*
X85648115Y-105655000D01*
X85344000Y-105780968D01*
X85039885Y-105655000D01*
X84632115Y-105655000D01*
X84255384Y-105811047D01*
X83967047Y-106099384D01*
X83811000Y-106476115D01*
X78623587Y-106476115D01*
X78533000Y-106385528D01*
X77829139Y-107089389D01*
X75563000Y-107089389D01*
X75563000Y-105709240D01*
X76680235Y-105709240D01*
X76755355Y-106086894D01*
X76980611Y-106240861D01*
X77684472Y-105537000D01*
X79381528Y-105537000D01*
X80085389Y-106240861D01*
X80310645Y-106086894D01*
X80385765Y-105364760D01*
X80310645Y-104987106D01*
X80085389Y-104833139D01*
X79381528Y-105537000D01*
X77684472Y-105537000D01*
X76980611Y-104833139D01*
X76755355Y-104987106D01*
X76680235Y-105709240D01*
X75563000Y-105709240D01*
X75563000Y-103984611D01*
X77829139Y-103984611D01*
X78533000Y-104688472D01*
X79236861Y-103984611D01*
X79082894Y-103759355D01*
X78360760Y-103684235D01*
X77983106Y-103759355D01*
X77829139Y-103984611D01*
X75563000Y-103984611D01*
X75563000Y-102094615D01*
X103686500Y-102094615D01*
X103686500Y-102502385D01*
X103842547Y-102879116D01*
X104130884Y-103167453D01*
X104507615Y-103323500D01*
X104915385Y-103323500D01*
X105292116Y-103167453D01*
X105580453Y-102879116D01*
X105736500Y-102502385D01*
X105736500Y-102094615D01*
X105580453Y-101717884D01*
X105292116Y-101429547D01*
X104915385Y-101273500D01*
X104507615Y-101273500D01*
X104130884Y-101429547D01*
X103842547Y-101717884D01*
X103686500Y-102094615D01*
X75563000Y-102094615D01*
X75563000Y-99427615D01*
X103686500Y-99427615D01*
X103686500Y-99835385D01*
X103842547Y-100212116D01*
X104130884Y-100500453D01*
X104507615Y-100656500D01*
X104915385Y-100656500D01*
X105292116Y-100500453D01*
X105580453Y-100212116D01*
X105736500Y-99835385D01*
X105736500Y-99427615D01*
X105580453Y-99050884D01*
X105292116Y-98762547D01*
X104915385Y-98606500D01*
X104507615Y-98606500D01*
X104130884Y-98762547D01*
X103842547Y-99050884D01*
X103686500Y-99427615D01*
X75563000Y-99427615D01*
X75563000Y-98380843D01*
X75553485Y-98333008D01*
X75494906Y-98191586D01*
X75467809Y-98151033D01*
X73442391Y-96125615D01*
X88764000Y-96125615D01*
X88764000Y-96533385D01*
X88920047Y-96910116D01*
X89208384Y-97198453D01*
X89585115Y-97354500D01*
X89992885Y-97354500D01*
X90369616Y-97198453D01*
X90657953Y-96910116D01*
X90719878Y-96760615D01*
X103623000Y-96760615D01*
X103623000Y-97168385D01*
X103779047Y-97545116D01*
X104067384Y-97833453D01*
X104444115Y-97989500D01*
X104851885Y-97989500D01*
X105228616Y-97833453D01*
X105516953Y-97545116D01*
X105673000Y-97168385D01*
X105673000Y-96760615D01*
X105516953Y-96383884D01*
X105228616Y-96095547D01*
X104851885Y-95939500D01*
X104444115Y-95939500D01*
X104067384Y-96095547D01*
X103779047Y-96383884D01*
X103623000Y-96760615D01*
X90719878Y-96760615D01*
X90814000Y-96533385D01*
X90814000Y-96125615D01*
X90657953Y-95748884D01*
X90369616Y-95460547D01*
X89992885Y-95304500D01*
X89585115Y-95304500D01*
X89208384Y-95460547D01*
X88920047Y-95748884D01*
X88764000Y-96125615D01*
X73442391Y-96125615D01*
X72300549Y-94983773D01*
X72261806Y-94890239D01*
X72262500Y-94886751D01*
X72262500Y-94886748D01*
X72278661Y-94805501D01*
X72262500Y-94724253D01*
X72262500Y-94411115D01*
X90732500Y-94411115D01*
X90732500Y-94818885D01*
X90888547Y-95195616D01*
X91176884Y-95483953D01*
X91553615Y-95640000D01*
X91757196Y-95640000D01*
X91829357Y-95712161D01*
X91869805Y-95772695D01*
X92109619Y-95932935D01*
X92321096Y-95975000D01*
X92321100Y-95975000D01*
X92392500Y-95989202D01*
X92463900Y-95975000D01*
X99922931Y-95975000D01*
X100066884Y-96118953D01*
X100443615Y-96275000D01*
X100851385Y-96275000D01*
X101228116Y-96118953D01*
X101516453Y-95830616D01*
X101672500Y-95453885D01*
X101672500Y-95046115D01*
X101516453Y-94669384D01*
X101228116Y-94381047D01*
X100851385Y-94225000D01*
X100443615Y-94225000D01*
X100066884Y-94381047D01*
X99922931Y-94525000D01*
X99716008Y-94525000D01*
X99831000Y-94247385D01*
X99831000Y-93839615D01*
X99674953Y-93462884D01*
X99386616Y-93174547D01*
X99051683Y-93035813D01*
X98912951Y-92700884D01*
X98624614Y-92412547D01*
X98247883Y-92256500D01*
X97863156Y-92256500D01*
X97682863Y-92076207D01*
X97306132Y-91920160D01*
X96898362Y-91920160D01*
X96521631Y-92076207D01*
X96377678Y-92220160D01*
X93690748Y-92220160D01*
X93619349Y-92205958D01*
X93547950Y-92220160D01*
X93547946Y-92220160D01*
X93336469Y-92262225D01*
X93250003Y-92320000D01*
X93015625Y-92320000D01*
X92638894Y-92476047D01*
X92350557Y-92764384D01*
X92194510Y-93141115D01*
X92194510Y-93548885D01*
X92263349Y-93715078D01*
X91961385Y-93590000D01*
X91553615Y-93590000D01*
X91176884Y-93746047D01*
X90888547Y-94034384D01*
X90732500Y-94411115D01*
X72262500Y-94411115D01*
X72262500Y-93461569D01*
X72306453Y-93417616D01*
X72462500Y-93040885D01*
X72462500Y-92633115D01*
X72306453Y-92256384D01*
X72261000Y-92210931D01*
X72261000Y-92084500D01*
X72251485Y-92036664D01*
X72230914Y-91987000D01*
X77252756Y-91987000D01*
X77252756Y-93687000D01*
X77301263Y-93930863D01*
X77439400Y-94137600D01*
X77646137Y-94275737D01*
X77890000Y-94324244D01*
X79590000Y-94324244D01*
X79833863Y-94275737D01*
X80040600Y-94137600D01*
X80178737Y-93930863D01*
X80202562Y-93811085D01*
X80297726Y-93937390D01*
X80639277Y-94165571D01*
X80855000Y-94085390D01*
X80855000Y-93262000D01*
X81705000Y-93262000D01*
X81705000Y-94085390D01*
X81920723Y-94165571D01*
X82262274Y-93937390D01*
X82608604Y-93477728D01*
X82536229Y-93262000D01*
X81705000Y-93262000D01*
X80855000Y-93262000D01*
X80430000Y-93262000D01*
X80430000Y-92412000D01*
X80855000Y-92412000D01*
X80855000Y-91588610D01*
X81705000Y-91588610D01*
X81705000Y-92412000D01*
X82536229Y-92412000D01*
X82608604Y-92196272D01*
X82262274Y-91736610D01*
X81920723Y-91508429D01*
X81705000Y-91588610D01*
X80855000Y-91588610D01*
X80639277Y-91508429D01*
X80297726Y-91736610D01*
X80202562Y-91862915D01*
X80178737Y-91743137D01*
X80040600Y-91536400D01*
X79833863Y-91398263D01*
X79590000Y-91349756D01*
X77890000Y-91349756D01*
X77646137Y-91398263D01*
X77439400Y-91536400D01*
X77301263Y-91743137D01*
X77252756Y-91987000D01*
X72230914Y-91987000D01*
X72192906Y-91895243D01*
X72165809Y-91854690D01*
X72125257Y-91827594D01*
X71983836Y-91769015D01*
X71936000Y-91759500D01*
X60341205Y-91759500D01*
X60324296Y-91758456D01*
X46187471Y-90006992D01*
X46124287Y-89973683D01*
X46099000Y-89906883D01*
X46099000Y-89671222D01*
X46124305Y-89604404D01*
X46187522Y-89571110D01*
X49162803Y-89204115D01*
X78286500Y-89204115D01*
X78286500Y-89611885D01*
X78442547Y-89988616D01*
X78730884Y-90276953D01*
X79107615Y-90433000D01*
X79515385Y-90433000D01*
X79892116Y-90276953D01*
X80180453Y-89988616D01*
X80336500Y-89611885D01*
X80336500Y-89204115D01*
X80180453Y-88827384D01*
X79892116Y-88539047D01*
X79515385Y-88383000D01*
X79107615Y-88383000D01*
X78730884Y-88539047D01*
X78442547Y-88827384D01*
X78286500Y-89204115D01*
X49162803Y-89204115D01*
X60387800Y-87819534D01*
X60404626Y-87818500D01*
X71936000Y-87818500D01*
X71983836Y-87808985D01*
X72125257Y-87750406D01*
X72165810Y-87723309D01*
X72192906Y-87682757D01*
X72251485Y-87541336D01*
X72261000Y-87493500D01*
X72261000Y-87303569D01*
X72306453Y-87258116D01*
X72399809Y-87032733D01*
X80801418Y-87032733D01*
X80801418Y-87440503D01*
X80957465Y-87817234D01*
X81245802Y-88105571D01*
X81622533Y-88261618D01*
X82030303Y-88261618D01*
X82407034Y-88105571D01*
X82695371Y-87817234D01*
X82851418Y-87440503D01*
X82851418Y-87032733D01*
X82695371Y-86656002D01*
X82407034Y-86367665D01*
X82030303Y-86211618D01*
X81622533Y-86211618D01*
X81245802Y-86367665D01*
X80957465Y-86656002D01*
X80801418Y-87032733D01*
X72399809Y-87032733D01*
X72462500Y-86881385D01*
X72462500Y-86473615D01*
X72306453Y-86096884D01*
X72262500Y-86052931D01*
X72262500Y-85044247D01*
X72278661Y-84963000D01*
X72271521Y-84927104D01*
X72305093Y-84851212D01*
X75647119Y-81813007D01*
X75677349Y-81771083D01*
X75742814Y-81623095D01*
X75753500Y-81572526D01*
X75753500Y-79425115D01*
X85906498Y-79425115D01*
X85906498Y-79832885D01*
X86062545Y-80209616D01*
X86350882Y-80497953D01*
X86727613Y-80654000D01*
X87135383Y-80654000D01*
X87512114Y-80497953D01*
X87656067Y-80354000D01*
X88700500Y-80354000D01*
X88700500Y-80531385D01*
X88856547Y-80908116D01*
X89144884Y-81196453D01*
X89521615Y-81352500D01*
X89725196Y-81352500D01*
X90207001Y-81834305D01*
X90207001Y-81952430D01*
X90063047Y-82096384D01*
X89913783Y-82456739D01*
X88927240Y-81470196D01*
X88927240Y-81266615D01*
X88771193Y-80889884D01*
X88482856Y-80601547D01*
X88106125Y-80445500D01*
X87698355Y-80445500D01*
X87321624Y-80601547D01*
X87033287Y-80889884D01*
X86877240Y-81266615D01*
X86877240Y-81674385D01*
X87033287Y-82051116D01*
X87321624Y-82339453D01*
X87698355Y-82495500D01*
X87901936Y-82495500D01*
X89146333Y-83739897D01*
X89145000Y-83743115D01*
X89145000Y-84150885D01*
X89301047Y-84527616D01*
X89589384Y-84815953D01*
X89966115Y-84972000D01*
X90373885Y-84972000D01*
X90647921Y-84858490D01*
X90668884Y-84879453D01*
X90669000Y-84879501D01*
X90669000Y-85166885D01*
X90825047Y-85543616D01*
X91113384Y-85831953D01*
X91490115Y-85988000D01*
X91897885Y-85988000D01*
X92274616Y-85831953D01*
X92562953Y-85543616D01*
X92719000Y-85166885D01*
X92719000Y-84953934D01*
X92819924Y-84802892D01*
X92819925Y-84802891D01*
X92861990Y-84591414D01*
X92861990Y-84591410D01*
X92876192Y-84520011D01*
X92861990Y-84448612D01*
X92861990Y-78639069D01*
X93005943Y-78495116D01*
X93161990Y-78118385D01*
X93161990Y-77710615D01*
X93005943Y-77333884D01*
X92717606Y-77045547D01*
X92340875Y-76889500D01*
X91933105Y-76889500D01*
X91556374Y-77045547D01*
X91408854Y-77193067D01*
X91135885Y-77080000D01*
X90728115Y-77080000D01*
X90351384Y-77236047D01*
X90063047Y-77524384D01*
X89924314Y-77859314D01*
X89589384Y-77998047D01*
X89301047Y-78286384D01*
X89145000Y-78663115D01*
X89145000Y-78866696D01*
X89107696Y-78904000D01*
X87656067Y-78904000D01*
X87512114Y-78760047D01*
X87135383Y-78604000D01*
X86727613Y-78604000D01*
X86350882Y-78760047D01*
X86062545Y-79048384D01*
X85906498Y-79425115D01*
X75753500Y-79425115D01*
X75753500Y-75910889D01*
X78019639Y-75910889D01*
X78173606Y-76136145D01*
X78895740Y-76211265D01*
X79273394Y-76136145D01*
X79427361Y-75910889D01*
X78723500Y-75207028D01*
X78019639Y-75910889D01*
X75753500Y-75910889D01*
X75753500Y-74530740D01*
X76870735Y-74530740D01*
X76945855Y-74908394D01*
X77171111Y-75062361D01*
X77874972Y-74358500D01*
X79572028Y-74358500D01*
X80275889Y-75062361D01*
X80501145Y-74908394D01*
X80576265Y-74186260D01*
X80501145Y-73808606D01*
X80275889Y-73654639D01*
X79572028Y-74358500D01*
X77874972Y-74358500D01*
X77171111Y-73654639D01*
X76945855Y-73808606D01*
X76870735Y-74530740D01*
X75753500Y-74530740D01*
X75753500Y-72806111D01*
X78019639Y-72806111D01*
X78723500Y-73509972D01*
X79158357Y-73075115D01*
X96066502Y-73075115D01*
X96066502Y-73482885D01*
X96222549Y-73859616D01*
X96510886Y-74147953D01*
X96887617Y-74304000D01*
X97295387Y-74304000D01*
X97672118Y-74147953D01*
X97816071Y-74004000D01*
X98271931Y-74004000D01*
X98415884Y-74147953D01*
X98792615Y-74304000D01*
X99200385Y-74304000D01*
X99577116Y-74147953D01*
X99865453Y-73859616D01*
X100021500Y-73482885D01*
X100021500Y-73075115D01*
X99865453Y-72698384D01*
X99577116Y-72410047D01*
X99200385Y-72254000D01*
X98792615Y-72254000D01*
X98415884Y-72410047D01*
X98271931Y-72554000D01*
X97816071Y-72554000D01*
X97672118Y-72410047D01*
X97295387Y-72254000D01*
X96887617Y-72254000D01*
X96510886Y-72410047D01*
X96222549Y-72698384D01*
X96066502Y-73075115D01*
X79158357Y-73075115D01*
X79427361Y-72806111D01*
X79273394Y-72580855D01*
X78551260Y-72505735D01*
X78173606Y-72580855D01*
X78019639Y-72806111D01*
X75753500Y-72806111D01*
X75753500Y-72272500D01*
X75743985Y-72224664D01*
X75685406Y-72083243D01*
X75658309Y-72042690D01*
X75617757Y-72015594D01*
X75476336Y-71957015D01*
X75428500Y-71947500D01*
X72233865Y-71947500D01*
X72163250Y-71918250D01*
X72134000Y-71847635D01*
X72134000Y-68757115D01*
X92002500Y-68757115D01*
X92002500Y-69164885D01*
X92158547Y-69541616D01*
X92446884Y-69829953D01*
X92823615Y-69986000D01*
X93231385Y-69986000D01*
X93505421Y-69872490D01*
X93526384Y-69893453D01*
X93903115Y-70049500D01*
X94106695Y-70049500D01*
X94369359Y-70312164D01*
X94409805Y-70372695D01*
X94470336Y-70413141D01*
X94470337Y-70413142D01*
X94547337Y-70464592D01*
X94649619Y-70532935D01*
X94861096Y-70575000D01*
X94861100Y-70575000D01*
X94932499Y-70589202D01*
X95003898Y-70575000D01*
X99287931Y-70575000D01*
X99431884Y-70718953D01*
X99808615Y-70875000D01*
X100216385Y-70875000D01*
X100593116Y-70718953D01*
X100881453Y-70430616D01*
X101037500Y-70053885D01*
X101037500Y-69646115D01*
X100881453Y-69269384D01*
X100593116Y-68981047D01*
X100216385Y-68825000D01*
X99808615Y-68825000D01*
X99570283Y-68923720D01*
X99777599Y-68785195D01*
X99818046Y-68724662D01*
X100364255Y-68178454D01*
X100567835Y-68178454D01*
X100944566Y-68022407D01*
X101232903Y-67734070D01*
X101388950Y-67357339D01*
X101388950Y-66949569D01*
X101232903Y-66572838D01*
X100944566Y-66284501D01*
X100628580Y-66153615D01*
X102543500Y-66153615D01*
X102543500Y-66561385D01*
X102699547Y-66938116D01*
X102987884Y-67226453D01*
X103364615Y-67382500D01*
X103772385Y-67382500D01*
X104149116Y-67226453D01*
X104437453Y-66938116D01*
X104593500Y-66561385D01*
X104593500Y-66153615D01*
X104437453Y-65776884D01*
X104149116Y-65488547D01*
X103772385Y-65332500D01*
X103364615Y-65332500D01*
X102987884Y-65488547D01*
X102699547Y-65776884D01*
X102543500Y-66153615D01*
X100628580Y-66153615D01*
X100567835Y-66128454D01*
X100160065Y-66128454D01*
X99783334Y-66284501D01*
X99494997Y-66572838D01*
X99338950Y-66949569D01*
X99338950Y-67153149D01*
X98954600Y-67537500D01*
X93797398Y-67537500D01*
X93725999Y-67523298D01*
X93654600Y-67537500D01*
X93654596Y-67537500D01*
X93443119Y-67579565D01*
X93443117Y-67579566D01*
X93443118Y-67579566D01*
X93263837Y-67699358D01*
X93263836Y-67699359D01*
X93203305Y-67739805D01*
X93162859Y-67800336D01*
X93027195Y-67936000D01*
X92823615Y-67936000D01*
X92446884Y-68092047D01*
X92158547Y-68380384D01*
X92002500Y-68757115D01*
X72134000Y-68757115D01*
X72134000Y-67383000D01*
X72124485Y-67335164D01*
X72065906Y-67193743D01*
X72038809Y-67153190D01*
X71998257Y-67126094D01*
X71856836Y-67067515D01*
X71809000Y-67058000D01*
X71002500Y-67058000D01*
X70954664Y-67067515D01*
X70813243Y-67126094D01*
X70772690Y-67153191D01*
X70745594Y-67193743D01*
X70687015Y-67335164D01*
X70677500Y-67383000D01*
X70677500Y-67593135D01*
X70648250Y-67663750D01*
X70577635Y-67693000D01*
X68614365Y-67693000D01*
X68543750Y-67663750D01*
X68514500Y-67593135D01*
X68514500Y-67383000D01*
X68504985Y-67335164D01*
X68446406Y-67193743D01*
X68419309Y-67153190D01*
X68378757Y-67126094D01*
X68237336Y-67067515D01*
X68189500Y-67058000D01*
X66875000Y-67058000D01*
X66827164Y-67067515D01*
X66685743Y-67126094D01*
X66645190Y-67153191D01*
X66618094Y-67193743D01*
X66559515Y-67335164D01*
X66550000Y-67383000D01*
X66550000Y-67656635D01*
X66520750Y-67727250D01*
X66450135Y-67756500D01*
X64550365Y-67756500D01*
X64479750Y-67727250D01*
X64450500Y-67656635D01*
X64450500Y-67383000D01*
X64440985Y-67335164D01*
X64382406Y-67193743D01*
X64355309Y-67153190D01*
X64314757Y-67126094D01*
X64173336Y-67067515D01*
X64125500Y-67058000D01*
X62684000Y-67058000D01*
X62636164Y-67067515D01*
X62494743Y-67126094D01*
X62454190Y-67153191D01*
X62427094Y-67193743D01*
X62368515Y-67335164D01*
X62359000Y-67383000D01*
X62359000Y-67656635D01*
X62329750Y-67727250D01*
X62259135Y-67756500D01*
X60422865Y-67756500D01*
X60352250Y-67727250D01*
X60323000Y-67656635D01*
X60323000Y-67383000D01*
X60313485Y-67335164D01*
X60254906Y-67193743D01*
X60227809Y-67153190D01*
X60187257Y-67126094D01*
X60045836Y-67067515D01*
X59998000Y-67058000D01*
X58556500Y-67058000D01*
X58508664Y-67067515D01*
X58367243Y-67126094D01*
X58326690Y-67153191D01*
X58299594Y-67193743D01*
X58241015Y-67335164D01*
X58231500Y-67383000D01*
X58231500Y-67720135D01*
X58202250Y-67790750D01*
X58131635Y-67820000D01*
X56104865Y-67820000D01*
X56034250Y-67790750D01*
X56005000Y-67720135D01*
X56005000Y-67383000D01*
X55995485Y-67335164D01*
X55936906Y-67193743D01*
X55909809Y-67153190D01*
X55869257Y-67126094D01*
X55727836Y-67067515D01*
X55680000Y-67058000D01*
X55000500Y-67058000D01*
X54952664Y-67067515D01*
X54811243Y-67126094D01*
X54770690Y-67153191D01*
X54743594Y-67193743D01*
X54685015Y-67335164D01*
X54675500Y-67383000D01*
X54675500Y-70313793D01*
X54635951Y-70409273D01*
X53121916Y-71923308D01*
X53045950Y-71961611D01*
X41275811Y-73723985D01*
X41255463Y-73725500D01*
X38389261Y-73725500D01*
X37846000Y-73182239D01*
X37302739Y-73725500D01*
X34482000Y-73725500D01*
X34482000Y-72462710D01*
X35893475Y-72462710D01*
X35965676Y-72825692D01*
X36194573Y-72995188D01*
X36926761Y-72263000D01*
X38765239Y-72263000D01*
X39497427Y-72995188D01*
X39726324Y-72825692D01*
X39798525Y-72063290D01*
X39726324Y-71700308D01*
X39497427Y-71530812D01*
X38765239Y-72263000D01*
X36926761Y-72263000D01*
X36194573Y-71530812D01*
X35965676Y-71700308D01*
X35893475Y-72462710D01*
X34482000Y-72462710D01*
X34482000Y-70611573D01*
X37113812Y-70611573D01*
X37846000Y-71343761D01*
X38578188Y-70611573D01*
X38408692Y-70382676D01*
X37646290Y-70310475D01*
X37283308Y-70382676D01*
X37113812Y-70611573D01*
X34482000Y-70611573D01*
X34482000Y-64557420D01*
X35188000Y-64557420D01*
X35188000Y-65442580D01*
X35526736Y-66260361D01*
X36152639Y-66886264D01*
X36970420Y-67225000D01*
X37855580Y-67225000D01*
X38673361Y-66886264D01*
X39299264Y-66260361D01*
X39638000Y-65442580D01*
X39638000Y-64557420D01*
X39299264Y-63739639D01*
X38673361Y-63113736D01*
X37855580Y-62775000D01*
X36970420Y-62775000D01*
X36152639Y-63113736D01*
X35526736Y-63739639D01*
X35188000Y-64557420D01*
X34482000Y-64557420D01*
X34482000Y-63535948D01*
X35976949Y-62041000D01*
X77298108Y-62041000D01*
X77252756Y-62269000D01*
G04 #@! TD*
M02*
