<?xml version="1.0" encoding="UTF-8" standalone="no"?>
<!-- Created with Inkscape (http://www.inkscape.org/) -->

<svg
   xmlns:dc="http://purl.org/dc/elements/1.1/"
   xmlns:cc="http://creativecommons.org/ns#"
   xmlns:rdf="http://www.w3.org/1999/02/22-rdf-syntax-ns#"
   xmlns:svg="http://www.w3.org/2000/svg"
   xmlns="http://www.w3.org/2000/svg"
   xmlns:sodipodi="http://sodipodi.sourceforge.net/DTD/sodipodi-0.dtd"
   xmlns:inkscape="http://www.inkscape.org/namespaces/inkscape"
   width="128"
   height="128"
   viewBox="0 0 128 128"
   id="svg5008"
   version="1.1"
   inkscape:version="0.91 r13725"
   sodipodi:docname="logo-ink.svg">
  <sodipodi:namedview
     id="base"
     pagecolor="#ffffff"
     bordercolor="#666666"
     borderopacity="1.0"
     inkscape:pageopacity="0.0"
     inkscape:pageshadow="2"
     inkscape:zoom="5.6"
     inkscape:cx="19.323884"
     inkscape:cy="65.43066"
     inkscape:document-units="px"
     inkscape:current-layer="layer1"
     showgrid="false"
     showguides="true"
     inkscape:guide-bbox="true"
     inkscape:window-width="1920"
     inkscape:window-height="1027"
     inkscape:window-x="0"
     inkscape:window-y="0"
     inkscape:window-maximized="1"
     units="px" />
  <defs
     id="defs5010" />
  <metadata
     id="metadata5013">
    <rdf:RDF>
      <cc:Work
         rdf:about="">
        <dc:format>image/svg+xml</dc:format>
        <dc:type
           rdf:resource="http://purl.org/dc/dcmitype/StillImage" />
        <dc:title />
      </cc:Work>
    </rdf:RDF>
  </metadata>
  <g
     id="layer1"
     inkscape:groupmode="layer"
     inkscape:label="Layer 1">
    <path
       id="path5560"
       d="M61.713915 33.00749C39.5978019391 33.0378275574 19.4647571849 45.7667456733 9.9528668 65.7329C9.9528668 65.7329 46.217006 83.0177 46.217006 83.0177C49.0694505351 77.0455899609 55.0955724137 73.2399493519 61.713915 73.23103C68.3499436552 73.2381722181 74.3898957657 77.0622869443 77.234531 83.0577C77.234531 83.0577 113.50903 65.76845 113.50903 65.76845C104.002059144 45.7773524731 83.8504438842 33.0312419288 61.713915 33.00749C61.713915 33.00749 61.713915 33.00749 61.713915 33.00749"
       style="opacity:0.75;stroke-linejoin:round;stroke-opacity:1;fill-opacity:1;stroke:none;stroke-linecap:butt;stroke-miterlimit:4;stroke-dasharray:none;stroke-width:1.41421356237;fill:#808080" />
    <path
       id="path5560-6"
       d="M61.703125 25.441406C36.73267 25.476676 13.969068 39.954673 3.1894531 62.595703C3.1894531 62.595703 16.882812 69.115234 16.882812 69.115234C25.183502 51.680834 42.586782 40.642428 61.714844 40.611328C75.156198 40.631428 87.741077 46.091783 96.919922 55.382812C96.919922 55.382812 85.896484 63.25 85.896484 63.25C85.896484 63.25 124.26953 80.724609 124.26953 80.724609C124.26953 80.724609 120.2168 38.755859 120.2168 38.755859C120.2168 38.755859 109.37695 46.494141 109.37695 46.494141C97.285824 33.322181 80.106182 25.465006 61.724609 25.441406C61.7174476703 25.4413958577 61.7102863297 25.4413958577 61.703125 25.441406C61.703125 25.441406 61.703125 25.441406 61.703125 25.441406M61.712891 80.814453C56.4025975131 80.8145837749 52.0977867749 85.1193945131 52.097656 90.429688C52.0977884316 95.7399803153 56.4025986846 100.044789225 61.712891 100.04492C64.2633282957 100.045374946 66.7094654908 99.0325529808 68.5130803381 97.2293047758C70.3166951854 95.4260565708 71.3300144353 92.9801253355 71.330078 90.429688C71.330015231 87.8792501448 70.3166963324 85.4333181387 68.5130813988 83.6300692848C66.7094664653 81.8268204309 64.2633288155 80.8139980542 61.712891 80.814453C61.712891 80.814453 61.712891 80.814453 61.712891 80.814453"
       style="stroke-linejoin:miter;font-size:medium;baseline-shift:baseline;color-rendering:auto;text-decoration-color:#000000;color:#000000;letter-spacing:normal;shape-rendering:auto;word-spacing:normal;stroke:none;text-decoration-line:none;text-rendering:auto;stroke-width:1.41421356237;font-style:normal;fill:#000000;solid-opacity:1;display:inline;mix-blend-mode:normal;fill-opacity:1;color-interpolation-filters:linearRGB;block-progression:tb;font-stretch:normal;stroke-miterlimit:4;font-variant:normal;font-weight:normal;opacity:1;direction:ltr;visibility:visible;text-indent:0;clip-rule:nonzero;image-rendering:auto;white-space:normal;overflow:visible;font-family:sans-serif;text-decoration-style:solid;text-align:start;solid-color:#000000;writing-mode:lr-tb;stroke-opacity:1;isolation:auto;fill-rule:nonzero;stroke-dashoffset:0;text-anchor:start;text-decoration:none;stroke-linecap:butt;stroke-dasharray:none;enable-background:accumulate;text-transform:none;line-height:normal;color-interpolation:sRGB" />
  </g>
</svg>
