<?xml version="1.0" encoding="UTF-8" standalone="no"?>
<!-- Created with Inkscape (http://www.inkscape.org/) -->

<svg
   xmlns:dc="http://purl.org/dc/elements/1.1/"
   xmlns:cc="http://creativecommons.org/ns#"
   xmlns:rdf="http://www.w3.org/1999/02/22-rdf-syntax-ns#"
   xmlns:svg="http://www.w3.org/2000/svg"
   xmlns="http://www.w3.org/2000/svg"
   xmlns:sodipodi="http://sodipodi.sourceforge.net/DTD/sodipodi-0.dtd"
   xmlns:inkscape="http://www.inkscape.org/namespaces/inkscape"
   width="210mm"
   height="297mm"
   viewBox="0 0 744.09448819 1052.3622047"
   id="svg2"
   version="1.1"
   inkscape:version="0.91 r13725"
   sodipodi:docname="motor-front.svg">
  <defs
     id="defs4">
    <marker
       inkscape:stockid="Arrow2Send"
       orient="auto"
       refY="0.0"
       refX="0.0"
       id="marker5007"
       style="overflow:visible;"
       inkscape:isstock="true">
      <path
         id="path5009"
         style="fill-rule:evenodd;stroke-width:0.625;stroke-linejoin:round;stroke:#800000;stroke-opacity:1;fill:#800000;fill-opacity:1"
         d="M 8.7185878,4.0337352 L -2.2072895,0.016013256 L 8.7185884,-4.0017078 C 6.9730900,-1.6296469 6.9831476,1.6157441 8.7185878,4.0337352 z "
         transform="scale(0.3) rotate(180) translate(-2.3,0)" />
    </marker>
    <marker
       inkscape:stockid="Arrow2Send"
       orient="auto"
       refY="0.0"
       refX="0.0"
       id="Arrow2Send"
       style="overflow:visible;"
       inkscape:isstock="true">
      <path
         id="path4450"
         style="fill-rule:evenodd;stroke-width:0.625;stroke-linejoin:round;stroke:#000000;stroke-opacity:1;fill:#000000;fill-opacity:1"
         d="M 8.7185878,4.0337352 L -2.2072895,0.016013256 L 8.7185884,-4.0017078 C 6.9730900,-1.6296469 6.9831476,1.6157441 8.7185878,4.0337352 z "
         transform="scale(0.3) rotate(180) translate(-2.3,0)" />
    </marker>
    <marker
       inkscape:stockid="Arrow2Mend"
       orient="auto"
       refY="0.0"
       refX="0.0"
       id="Arrow2Mend"
       style="overflow:visible;"
       inkscape:isstock="true">
      <path
         id="path4444"
         style="fill-rule:evenodd;stroke-width:0.625;stroke-linejoin:round;stroke:#000000;stroke-opacity:1;fill:#000000;fill-opacity:1"
         d="M 8.7185878,4.0337352 L -2.2072895,0.016013256 L 8.7185884,-4.0017078 C 6.9730900,-1.6296469 6.9831476,1.6157441 8.7185878,4.0337352 z "
         transform="scale(0.6) rotate(180) translate(0,0)" />
    </marker>
    <inkscape:perspective
       sodipodi:type="inkscape:persp3d"
       inkscape:vp_x="406.43543 : 30.277933 : 1"
       inkscape:vp_y="-183.24844 : 408.92675 : 1"
       inkscape:vp_z="359.94184 : 808.22114 : 1"
       inkscape:persp3d-origin="565.77753 : 542.87502 : 1"
       id="perspective4142" />
  </defs>
  <sodipodi:namedview
     id="base"
     pagecolor="#ffffff"
     bordercolor="#666666"
     borderopacity="1.0"
     inkscape:pageopacity="0.0"
     inkscape:pageshadow="2"
     inkscape:zoom="3.959798"
     inkscape:cx="411.71423"
     inkscape:cy="484.81384"
     inkscape:document-units="px"
     inkscape:current-layer="layer4"
     showgrid="false"
     showguides="true"
     inkscape:guide-bbox="true"
     inkscape:window-width="1920"
     inkscape:window-height="1027"
     inkscape:window-x="0"
     inkscape:window-y="0"
     inkscape:window-maximized="1">
    <sodipodi:guide
       position="-120,465.7143"
       orientation="0,1"
       id="guide4186" />
    <sodipodi:guide
       position="398.57143,-41.428572"
       orientation="1,0"
       id="guide4190" />
  </sodipodi:namedview>
  <metadata
     id="metadata7">
    <rdf:RDF>
      <cc:Work
         rdf:about="">
        <dc:format>image/svg+xml</dc:format>
        <dc:type
           rdf:resource="http://purl.org/dc/dcmitype/StillImage" />
        <dc:title></dc:title>
      </cc:Work>
    </rdf:RDF>
  </metadata>
  <g
     inkscape:label="background"
     inkscape:groupmode="layer"
     id="layer1"
     style="display:inline">
    <path
       inkscape:connector-curvature="0"
       style="opacity:1;fill:#b3b3b3;fill-opacity:1;fill-rule:nonzero;stroke:#666666;stroke-width:1;stroke-linecap:butt;stroke-linejoin:round;stroke-miterlimit:4;stroke-dasharray:none;stroke-opacity:1"
       d="m 342.39453,508.79102 -21.67969,21.67968 0,112.35547 21.67969,21.67969 112.35547,0 21.67773,-21.67774 0,-112.35937 -21.67773,-21.67773 -112.35547,0 z m 56.17774,64.64257 a 13.214288,13.214288 0 0 1 13.21289,13.21485 13.214288,13.214288 0 0 1 -13.21289,13.21289 13.214288,13.214288 0 0 1 -13.21485,-13.21289 13.214288,13.214288 0 0 1 13.21485,-13.21485 z"
       id="path4216" />
    <path
       inkscape:connector-curvature="0"
       style="opacity:1;fill:#cccccc;fill-opacity:1;fill-rule:nonzero;stroke:#666666;stroke-width:1;stroke-linecap:butt;stroke-linejoin:round;stroke-miterlimit:4;stroke-dasharray:none;stroke-opacity:1"
       d="m 398.57227,536.64844 a 50.000004,50.000004 0 0 0 -50,50 50.000004,50.000004 0 0 0 50,50 50.000004,50.000004 0 0 0 50,-50 50.000004,50.000004 0 0 0 -50,-50 z m 0,36.78515 a 13.214288,13.214288 0 0 1 13.21289,13.21485 13.214288,13.214288 0 0 1 -13.21289,13.21289 13.214288,13.214288 0 0 1 -13.21485,-13.21289 13.214288,13.214288 0 0 1 13.21485,-13.21485 z"
       id="path4243" />
    <path
       inkscape:connector-curvature="0"
       style="opacity:1;fill:#b3b3b3;fill-opacity:1;fill-rule:nonzero;stroke:#666666;stroke-width:1;stroke-linecap:butt;stroke-linejoin:round;stroke-miterlimit:4;stroke-dasharray:none;stroke-opacity:1"
       d="m 398.57227,554.14844 a 32.500004,32.500004 0 0 0 -32.5,32.5 32.500004,32.500004 0 0 0 32.5,32.5 32.500004,32.500004 0 0 0 32.5,-32.5 32.500004,32.500004 0 0 0 -32.5,-32.5 z m 0,19.28515 a 13.214288,13.214288 0 0 1 13.21289,13.21485 13.214288,13.214288 0 0 1 -13.21289,13.21289 13.214288,13.214288 0 0 1 -13.21485,-13.21289 13.214288,13.214288 0 0 1 13.21485,-13.21485 z"
       id="path4245" />
    <circle
       style="color:#000000;clip-rule:nonzero;display:inline;overflow:visible;visibility:visible;opacity:1;isolation:auto;mix-blend-mode:normal;color-interpolation:sRGB;color-interpolation-filters:linearRGB;solid-color:#000000;solid-opacity:1;fill:#666666;fill-opacity:1;fill-rule:nonzero;stroke:#808080;stroke-width:1;stroke-linecap:butt;stroke-linejoin:round;stroke-miterlimit:4;stroke-dasharray:none;stroke-dashoffset:0;stroke-opacity:1;color-rendering:auto;image-rendering:auto;shape-rendering:auto;text-rendering:auto;enable-background:accumulate"
       id="path4314"
       cx="340.25"
       cy="528.32648"
       r="3.2142856" />
    <circle
       style="color:#000000;clip-rule:nonzero;display:inline;overflow:visible;visibility:visible;opacity:1;isolation:auto;mix-blend-mode:normal;color-interpolation:sRGB;color-interpolation-filters:linearRGB;solid-color:#000000;solid-opacity:1;fill:#666666;fill-opacity:1;fill-rule:nonzero;stroke:#808080;stroke-width:1;stroke-linecap:butt;stroke-linejoin:round;stroke-miterlimit:4;stroke-dasharray:none;stroke-dashoffset:0;stroke-opacity:1;color-rendering:auto;image-rendering:auto;shape-rendering:auto;text-rendering:auto;enable-background:accumulate"
       id="path4314-3"
       cx="456.25"
       cy="528.32648"
       r="3.2142856" />
    <circle
       style="color:#000000;clip-rule:nonzero;display:inline;overflow:visible;visibility:visible;opacity:1;isolation:auto;mix-blend-mode:normal;color-interpolation:sRGB;color-interpolation-filters:linearRGB;solid-color:#000000;solid-opacity:1;fill:#666666;fill-opacity:1;fill-rule:nonzero;stroke:#808080;stroke-width:1;stroke-linecap:butt;stroke-linejoin:round;stroke-miterlimit:4;stroke-dasharray:none;stroke-dashoffset:0;stroke-opacity:1;color-rendering:auto;image-rendering:auto;shape-rendering:auto;text-rendering:auto;enable-background:accumulate"
       id="path4314-5"
       cx="340.25"
       cy="646.32648"
       r="3.2142856" />
    <circle
       style="color:#000000;clip-rule:nonzero;display:inline;overflow:visible;visibility:visible;opacity:1;isolation:auto;mix-blend-mode:normal;color-interpolation:sRGB;color-interpolation-filters:linearRGB;solid-color:#000000;solid-opacity:1;fill:#666666;fill-opacity:1;fill-rule:nonzero;stroke:#808080;stroke-width:1;stroke-linecap:butt;stroke-linejoin:round;stroke-miterlimit:4;stroke-dasharray:none;stroke-dashoffset:0;stroke-opacity:1;color-rendering:auto;image-rendering:auto;shape-rendering:auto;text-rendering:auto;enable-background:accumulate"
       id="path4314-5-6"
       cx="456.25"
       cy="646.32648"
       r="3.2142856" />
  </g>
  <g
     inkscape:groupmode="layer"
     id="layer2"
     inkscape:label="handle"
     style="display:inline">
    <path
       inkscape:connector-curvature="0"
       style="opacity:1;fill:#800000;fill-opacity:1;fill-rule:nonzero;stroke:#000000;stroke-width:0.81770837;stroke-linecap:butt;stroke-linejoin:round;stroke-miterlimit:4;stroke-dasharray:none;stroke-opacity:1"
       d="m 391.57031,578.43359 a 10.805433,10.805433 0 0 0 -3.80469,8.21485 10.805433,10.805433 0 0 0 10.80665,10.80468 10.805433,10.805433 0 0 0 10.80468,-10.80468 10.805433,10.805433 0 0 0 -3.78906,-8.21485 l -14.01758,0 z"
       id="path4289" />
    <path
       inkscape:connector-curvature="0"
       style="color:#000000;clip-rule:nonzero;display:inline;overflow:visible;visibility:visible;opacity:1;isolation:auto;mix-blend-mode:normal;color-interpolation:sRGB;color-interpolation-filters:linearRGB;solid-color:#000000;solid-opacity:1;fill:#008000;fill-opacity:1;fill-rule:nonzero;stroke:#000000;stroke-width:0.5;stroke-linecap:butt;stroke-linejoin:round;stroke-miterlimit:4;stroke-dasharray:none;stroke-dashoffset:0;stroke-opacity:1;color-rendering:auto;image-rendering:auto;shape-rendering:auto;text-rendering:auto;enable-background:accumulate"
       d="m 398.57227,467.14844 a 6.9642882,6.9642882 0 0 0 -6.96485,6.96289 6.9642882,6.9642882 0 0 0 3.86719,6.23047 l 0,96.08008 6.19336,0 0,-96.07618 a 6.9642882,6.9642882 0 0 0 3.86719,-6.23437 6.9642882,6.9642882 0 0 0 -6.96289,-6.96289 z"
       id="rect4309" />
  </g>
  <g
     inkscape:groupmode="layer"
     id="layer4"
     inkscape:label="indicator"
     style="display:inline">
    <path
       inkscape:connector-curvature="0"
       style="display:inline;opacity:1;fill:#800000;fill-opacity:1;fill-rule:nonzero;stroke:#000000;stroke-width:0.81770837;stroke-linecap:butt;stroke-linejoin:round;stroke-miterlimit:4;stroke-dasharray:none;stroke-opacity:1"
       d="m 391.57031,578.43359 a 10.805433,10.805433 0 0 0 -3.80469,8.21485 10.805433,10.805433 0 0 0 10.80665,10.80468 10.805433,10.805433 0 0 0 10.80468,-10.80468 10.805433,10.805433 0 0 0 -3.78906,-8.21485 l -14.01758,0 z"
       id="path4289-0" />
    <g
       id="g5392"
       style="fill:#008000;fill-opacity:1;stroke:none;stroke-opacity:1">
      <path
         style="color:#000000;font-style:normal;font-variant:normal;font-weight:normal;font-stretch:normal;font-size:medium;line-height:normal;font-family:sans-serif;text-indent:0;text-align:start;text-decoration:none;text-decoration-line:none;text-decoration-style:solid;text-decoration-color:#000000;letter-spacing:normal;word-spacing:normal;text-transform:none;direction:ltr;block-progression:tb;writing-mode:lr-tb;baseline-shift:baseline;text-anchor:start;white-space:normal;clip-rule:nonzero;display:inline;overflow:visible;visibility:visible;opacity:1;isolation:auto;mix-blend-mode:normal;color-interpolation:sRGB;color-interpolation-filters:linearRGB;solid-color:#000000;solid-opacity:1;fill:#008000;fill-opacity:1;fill-rule:evenodd;stroke:#000000;stroke-width:0.5;stroke-linecap:butt;stroke-linejoin:miter;stroke-miterlimit:4;stroke-dasharray:none;stroke-dashoffset:0;stroke-opacity:1;color-rendering:auto;image-rendering:auto;shape-rendering:auto;text-rendering:auto;enable-background:accumulate"
         d="m 398.54297,510.45117 -7.33399,19.94336 c 1.33108,-0.95534 2.79966,-1.61908 4.32032,-2 l 0,47.94141 6.08398,0 0,-47.94336 c 1.50825,0.37975 2.95783,1.04247 4.26172,2.00195 -2.41653,-6.58033 -5.03881,-13.697 -7.33201,-19.94336 z"
         id="path5005"
         inkscape:connector-curvature="0"
         sodipodi:nodetypes="ccccccccc" />
    </g>
  </g>
  <g
     inkscape:groupmode="layer"
     id="layer3"
     inkscape:label="help"
     style="display:inline">
    <text
       xml:space="preserve"
       style="font-style:normal;font-weight:normal;font-size:40px;line-height:125%;font-family:sans-serif;letter-spacing:0px;word-spacing:0px;fill:#000000;fill-opacity:1;stroke:none;stroke-width:1px;stroke-linecap:butt;stroke-linejoin:miter;stroke-opacity:1"
       x="437.85715"
       y="478.43365"
       id="text4407"
       sodipodi:linespacing="125%"><tspan
         sodipodi:role="line"
         id="tspan4409"
         x="437.85715"
         y="478.43365"
         style="font-size:12.5px">Grab and drag</tspan></text>
    <path
       style="fill:none;fill-rule:evenodd;stroke:#000000;stroke-width:3;stroke-linecap:butt;stroke-linejoin:miter;stroke-miterlimit:4;stroke-dasharray:none;stroke-opacity:1;marker-end:url(#Arrow2Send)"
       d="m 434.64284,473.79077 -18.57143,0"
       id="path4411"
       inkscape:connector-curvature="0" />
  </g>
</svg>
